<?xml version="1.0" encoding="utf-8"?>
<!-- Generator: Adobe Illustrator 27.2.0, SVG Export Plug-In . SVG Version: 6.00 Build 0)  -->
<svg version="1.1" id="svg" xmlns="http://www.w3.org/2000/svg" xmlns:xlink="http://www.w3.org/1999/xlink" x="0px" y="0px"
	 viewBox="0 0 400 400" style="enable-background:new 0 0 400 400;" xml:space="preserve">
<style type="text/css">
	.st0{fill-rule:evenodd;clip-rule:evenodd;fill:#175970;}
	.st1{fill-rule:evenodd;clip-rule:evenodd;fill:#F9974B;}
	.st2{fill-rule:evenodd;clip-rule:evenodd;fill:#F67B26;}
	.st3{fill-rule:evenodd;clip-rule:evenodd;fill:#61B1B5;}
</style>
<path id="path0" class="st0" d="M186.8,12.9c-2.7,0.9-5.5,3.6-6.3,6.2c-3.2,10.3,9.5,17.6,16.6,9.5C203.7,21.2,196.1,9.8,186.8,12.9
	 M157.2,37.1c0.4,0.8,2.3,4.6,4.4,8.6c2,3.9,4.9,9.5,6.3,12.3c1.5,2.8,4,7.6,5.5,10.6c1.6,3,3.5,6.6,4.3,7.8
	c0.8,1.2,1.4,2.3,1.4,2.4c0,0.1-3.2,0-7.1-0.1c-9.4-0.3-9.7-0.2-10,2.1c-0.2,1.5-0.9,5.5-1.5,8c-0.1,0.6,0.7,1.5,3.7,4.2
	c2.2,1.9,3.9,3.6,3.9,3.7c0,0.1-2,2.2-4.5,4.6c-2.4,2.3-6.6,6.4-9,8.9l-4.6,4.6l4.2,0.3c9.8,0.6,73.4,0.4,73.7-0.2
	c0.1-0.4-2.5-3.4-8-9c-9.4-9.8-9.2-9.4-8-10.3c7.2-5.6,7.4-5.9,5.7-12.2l-1.1-4.4l-8.6,0.1c-4.7,0.1-8.6,0-8.6-0.1
	c0-0.2,1-2.1,2.3-4.3c2.2-3.9,3.3-5.9,9.7-18.2c2.1-4,9.9-19.3,10.3-20.3c0.1-0.2-14.6-0.3-32.6-0.3h-32.7L157.2,37.1 M129.6,62
	c-12.5,2.8-21.6,6.4-25.6,9.9c-7.5,6.6-7.7,24.6-0.4,39c1.3,2.5,4.7,7.3,4.1,5.8c-1.9-5.2-1-21.1,1.4-28.1
	c3.4-9.6,14.4-21.4,24.3-26.4C137.3,60.3,136.9,60.3,129.6,62 M259.8,69.5c0.2,0.2,1.8,1.1,3.5,2c10.5,5.5,17.6,11,22.3,17
	c1.2,1.6,2.4,3.1,2.8,3.5c0.8,0.9,0.8,0.8-1.1,1.8c-5,2.3-16.4,9.1-16.1,9.7c0.1,0.2,1.9,4.2,4,8.8c21.1,46.4,25.8,74.4,17.9,106.6
	c-2.6,10.7-7,24.6-8.1,25.2c-0.2,0.1-0.5,0.6-0.8,1c-1.4,2.8,10.5-11.5,14.8-17.8c14.7-21.8,15.5-50.1,2.4-82.7
	c-2.7-6.8-2.9-7.2-2.7-7.2c0.1,0,0.4,0.5,0.8,1l0.6,1l-0.1-1.7c-0.1-1.1,0.1-1.6,0.4-1.6c0.3,0.1,0.4-0.1,0.4-0.2
	c-0.1-0.2,0.4-0.8,0.9-1.2c0.6-0.5,1.2-1.5,1.5-2.2c0.4-0.8,0.6-0.9,0.6-0.6c0,0.9,0.8,0.4,0.8-0.7c0-0.5,0.2-1,0.5-1.1
	c0.3-0.2,0.3-0.1,0.2,0.2c-0.2,0.2-0.2,0.5-0.1,0.5c0.5,0,3.2-1.5,3.2-1.8c-0.1-0.8,0.1-1.1,0.7-0.9c0.5,0.2,0.6,0.1,0.4-0.5
	c-0.2-0.4-0.2-0.6,0-0.5c0.3,0.3,1.2-0.6,1.2-1.1c0-0.3,0.2-0.3,0.8,0c0.8,0.5,1.2,0.5,0.9,0c-0.1-0.2,0.1-0.5,0.6-0.6
	c0.4-0.1,0.8-0.4,0.8-0.6s0.3-0.4,0.8-0.4c0.4,0,0.8-0.4,0.9-0.8s0.4-0.8,0.7-0.8s0.2-0.2-0.1-0.6c-0.4-0.5-0.4-0.6,0.1-0.6
	c0.3,0,0.7-0.1,0.7-0.3c0.2-1.2,0.2-2-0.1-2c-0.2,0-0.3-0.6-0.3-1.2c0-0.9,0.2-1.2,0.6-1c0.4,0.1,0.5,0.1,0.3-0.2
	c-1.1-1.8,1.1,0.2,2.8,2.5c1.1,1.5,0.2-0.1-1.3-2.4c-10.5-15.7-22.5-27.1-40.9-39C272.1,75.1,258.1,67.9,259.8,69.5 M328.6,135.4
	c0,0.1,0.7,1.9,1.5,3.9c7.8,19.5,7.8,50.6,0,76.4c-5.4,17.7-14.3,33.7-26.3,47.4c-5.3,5.9-15.7,16.2-19.4,19
	c-7,5.4-23.9,20.3-23.6,20.8c0.1,0.2,0.1,0.3-0.1,0.2c-0.2-0.1-0.8,0.3-1.4,0.9c-1,1.1-1,1.1-0.1,0.3c1.1-0.9,1.4-0.7,0.4,0.5
	c-0.5,0.6-0.6,0.8-0.2,0.9c0.3,0.2,0.4,0.6,0.4,1c-0.1,0.6,0.1,0.7,0.9,0.7c0.9,0,1,0.1,0.8,1.1c-0.1,0.7,0.1,1.7,0.3,2.3
	c0.3,0.7,0.4,1.2,0.3,1.4s0,0.2,0.2,0.2c0.2,0,0.5,0.4,0.5,0.9c0,0.5,0.2,1,0.5,1.2c0.3,0.2,0.8,0.9,1.1,1.7s0.8,1.4,1,1.4
	c0.2,0,0.3,0.2,0.2,0.4c-0.1,0.2,0.1,0.7,0.6,1c0.5,0.4,0.7,0.9,0.6,1.1c-0.2,0.3,0,0.3,0.4,0.2c0.5-0.2,0.6,0,0.5,1.1
	c-0.1,0.8,0,1.2,0.2,1.1c0.2-0.1,0.3,0.1,0.3,0.4s0.4,0.7,0.8,0.8c0.4,0.1,0.7,0.4,0.6,0.6c-0.1,0.2,0,0.8,0.2,1.3
	c0.2,0.6,0.5,1.8,0.6,2.7c0.4,4.5,0.9,4.5,1.4-0.1c0.2-2,1.2-4.3,1.3-3c0,0.2,0.3,0,0.6-0.4c0.7-0.8,0.6-0.8,0.7,1
	c0.1,1.4,0.1,1.5,1.2,1.4c1.1-0.1,1.7,0.7,0.8,1.1c-0.2,0.1-0.1,0.1,0.2,0s0.6,0.1,0.7,0.3c0.1,0.2,0,0.4-0.2,0.4s-0.3,0.2-0.2,0.4
	c0.1,0.2,0.5,0.3,0.8,0.2c0.4-0.2,0.5,0,0.4,0.4c-0.1,0.3-0.1,0.5,0.1,0.5c0.6-0.2,2.3,1.3,2.2,1.8c-0.1,0.3,0.2,0.7,0.7,0.9
	c0.5,0.2,0.9,0.7,1.1,0.9c0.2,0.3,0.5,0.4,0.7,0.3c0.3-0.2,0.3-0.1,0.1,0.2c-0.2,0.3-0.5,0.3-0.7,0.2c-0.2-0.2-0.2,0.1,0,0.6
	c0.2,0.5,0.6,0.8,0.8,0.7c0.3-0.1,0.5,0.1,0.5,0.4s0.1,0.6,0.2,0.8c0.1,0.2,0.1,0.7,0,1.2c0,0.8,0,0.8,0.4,0.4
	c0.4-0.5,0.4-0.4,0.2,0.3c-0.1,0.5,0,0.8,0.2,0.8s0.2,0.2-0.1,0.6c-0.4,0.5-0.3,0.6,0.4,0.6c0.8,0,3,2.2,2.2,2.2
	c-0.2,0-0.3,0.2-0.2,0.4c0.1,0.2,0.5,0.3,0.9,0.2c0.4-0.1,0.8,0,0.9,0.3c0.2,0.3,0.1,0.4-0.1,0.3c-0.2-0.1-0.4,0.2-0.4,0.8
	c0,0.6,0.2,1,0.5,1.1c0.3,0.1,0.4-0.2,0.3-0.7c-0.2-0.8-0.1-0.8,0.5,0.2c0.4,0.6,0.8,1,0.9,1c0.2,0,0.3,0.2,0.3,0.4
	c0,0.3-0.2,0.3-0.6-0.1c-0.3-0.3-0.7-0.4-0.8-0.2c-0.2,0.2-0.1,0.4,0.2,0.5s0.4,0.4,0.2,0.8c-0.2,0.5-0.1,0.6,0.4,0.4
	c0.6-0.2,0.6-0.1,0.3,0.5c-0.5,0.8-0.6,1.9-0.1,1.2c0.2-0.3,0.6-0.2,1.4,0.5c0.9,0.8,1,0.9,0.7,1.6c-0.7,1-0.6,1.8,0.1,0.9
	c0.3-0.4,0.6-0.6,0.6-0.5c0,0.2,0.1,0.4,0.1,0.6c0.1,0.6,1.2,1.9,1.4,1.7c0.1-0.1,0.2,0.3,0.1,0.9c0,0.7,0.1,1.1,0.3,1.1
	c0.2,0,0.2,0.4,0.1,0.8c-0.2,0.7-0.1,0.8,0.4,0.6c0.3-0.1,0.7-0.1,0.7,0.1s0.1,0.6,0.1,0.8c0,0.2,0.3,0.6,0.6,0.7
	c0.3,0.2,0.4,0.6,0.3,0.9c-0.2,0.4-0.1,0.6,0.3,0.5c0.3-0.1,0.6,0,0.5,0.2c0,0.2,0.2,0.5,0.5,0.7c0.4,0.2,0.3,0.3-0.4,0.3
	c-0.8,0-1.1,0.6-0.4,0.9c0.3,0.2,0.3,0.1,0.2-0.2c-0.3-0.5,0.1-0.6,0.8-0.1c0.3,0.2,0.4,0.6,0.3,0.8c-0.3,0.8,0.8,1.2,1.5,0.7
	c0.4-0.4,0.5-0.2,0.1,0.8c-0.5,1.5-0.5,1.5,0.1,1.2c0.3-0.2,0.4-0.1,0.2,0.4c-0.2,0.6-0.2,0.6,0.3,0.2c0.5-0.4,0.6-0.4,0.5,0
	c-0.1,0.3,0.1,0.5,0.4,0.5c0.3-0.1,0.5,0.2,0.5,0.5c0,0.4,0.2,0.5,0.6,0.4c0.4-0.2,0.5,0,0.3,0.4c-0.1,0.3,0,0.8,0.3,0.8
	c0.4,0.3,0.4,0.5,0.1,1.3c-0.3,0.6-0.3,0.8-0.1,0.8c0.2-0.1,0.4,0,0.4,0.4c0,0.3,0.1,0.5,0.3,0.4c0.2-0.1,0.3,0.2,0.1,0.8
	c-0.1,0.7,0,0.9,0.4,0.9c0.4,0,0.6,0.3,0.6,0.8c0,0.4-0.2,0.8-0.4,0.8c-0.2,0-0.3,0.2-0.2,0.4c0.1,0.2,0.4,0.3,0.6,0.2
	c0.6-0.4,1.3,0.9,1.2,2c-0.1,0.5,0.1,0.9,0.4,1c0.3,0.1,0.5,0.4,0.5,0.7c0,0.3,0.3,0.4,0.7,0.3c0.6-0.2,0.6-0.1-0.1,0.4
	c-0.4,0.3-0.6,0.6-0.5,0.7c0.1,0,0.4,0.1,0.6,0.1c0.9,0.2,1.2,0.7,0.8,1.2c-0.4,0.5-0.4,0.6,0,0.3c0.3-0.2,0.5,0,0.5,0.4
	c0,0.5,0.1,0.6,0.3,0.2c0.3-0.4,0.4-0.3,0.5,0.3c0.1,0.4,0,0.8-0.2,0.9s0,0.6,0.5,1l0.8,0.8l26.9,0.1c14.8,0.1,26.9,0,26.9-0.1
	c0-0.5-2.7-5.5-8.1-14.9c-13.3-23.1-16.2-28.9-19.5-37.1c-10.6-26.6-11.2-45.6-2-70.1c3.3-8.8,4.8-13.2,6.2-18
	c10.4-35.7,7.6-68.7-8.8-103.5C330.6,138.5,328.7,134.9,328.6,135.4 M250.7,137.2c-0.1,0.5-0.4,0.9-0.6,0.9c-0.2,0-0.3,0.3-0.1,0.6
	c0.2,0.4,0.1,0.6-0.2,0.4s-1.1,0.4-2.2,1.4c-0.9,0.9-1.9,1.7-2.2,1.7s-0.7,0.3-0.9,0.6c-0.3,0.3-0.8,0.7-1.1,0.8
	c-0.4,0.1-1.5,0.9-2.5,1.9s-2.7,2.3-3.6,3.1c-0.9,0.8-2.8,2.5-4.3,3.9c-2.3,2.1-4.2,3.8-5.8,5.2c-0.2,0.2-0.8,0.8-1.3,1.4
	c-0.6,0.6-1.6,1.6-2.4,2.3c-3.1,2.6-5.7,5-8.4,7.5c-1.4,1.4-3.5,3.3-4.6,4.2c-1,0.9-2.3,2.1-2.9,2.5c-0.6,0.5-1.7,1.4-2.4,2
	c-0.8,0.6-2.2,1.9-3.1,2.8c-0.9,0.9-1.8,1.8-1.9,1.8c-0.1,0-1.5,1.2-3.1,2.7c-1.6,1.5-3.1,2.7-3.3,2.7c-0.2,0-1.4,0.9-2.6,2.1
	c-1.2,1.1-2.7,2.4-3.4,3c-0.7,0.5-1.2,1.1-1.2,1.4s-0.4,0.6-0.8,0.6s-0.7,0.1-0.4,0.2c1.1,0.5,14.8-3.9,21.6-6.9
	c17.5-7.7,33.3-22.6,39.6-37c2.6-6.1,5.2-14,4.6-14.6C251,136.4,250.8,136.8,250.7,137.2 M42.2,143.1c-6.3,12.6-10.6,26.9-12.9,42.8
	c-4.8,33.7,13.3,59.1,42.1,59.1h7.4l0.4,1.8c0.2,1,0.7,2.3,1,3c1.4,3-6.2,19.4-18.5,39.9c-2.5,4.2-4.7,7.8-4.7,7.9
	c-0.1,0.1,0.6,0.4,1.3,0.6c0.8,0.2,4.2,1.5,7.6,2.8c3.5,1.3,7.5,2.8,9.2,3.4c3.9,1.3,7.1,3,7.1,3.6c0,0.3-1.1,2.5-2.5,5.1
	c-2.2,3.9-2.4,4.7-2.1,5.4s7.7,5.8,8.7,6.1c0.3,0.1,0.2,0.6-0.5,1.6c-0.6,0.8-1.4,2.2-2,3l-0.9,1.6l1,1.1c0.6,0.6,2.1,1.8,3.3,2.6
	l2.3,1.5l-0.2,2.1c-0.1,1.1-0.4,4.2-0.7,6.9c-0.3,2.6-0.6,5.8-0.8,7.1c-0.2,2.3-1.7,13.3-2.3,17.2c-0.4,2.3-0.8,2.2,5,1.2
	c15.7-2.6,30.8-8.8,56.5-22.7c10.8-5.8,14.8-4.6,15.1,4.8c0.4,7.8-1.1,21.7-3.1,29.8l-1,4l3.1-0.1l3.1-0.1l1.1-4.4
	c6.3-24.4,16.9-46.3,32.6-67.6c11.9-16.1,16.5-24.9,18.9-36.4c5.3-25.8-4.2-42.8-29.5-52.4c-13.1-5.1-13.9-5.5-18-7.8
	c-4.5-2.7-7.9-5.7-10.4-9.4l-1.5-2.2l-5.4,0.1c-38.8,0.8-77.8-18.6-92.9-46.3c-1.4-2.7-1.5-2.4-0.1,4c4,19.5,16.7,36.1,34.5,44.9
	c6.4,3.2,13.2,5.2,25.6,7.5c19,3.7,27.2,9.6,31.8,23c3.2,9.3,3.2,16.1,0,23.7l-0.8,1.8l1.4-1.5c3.1-3.3,7.9-8.7,12.8-14.3
	c9.7-11,14.1-13.6,19.3-11.5c12.4,5.2,11.8,32.3-1.2,57.1c-10.3,19.8-27.3,35.6-52.7,49.4c-14.8,8-25.5,12.6-30.9,13.2l-2.1,0.3
	l-0.3-2.2c-0.1-1.2-0.1-5,0.1-8.4c0.2-3.5,0.5-8.6,0.6-11.6c0.2-4.2,0.4-5.5,0.8-5.8c0.4-0.3,3.5-3.1,7-6.1s6.4-5.5,6.4-5.6
	c-0.1-0.1-3.3-0.8-7.2-1.5c-12.8-2.6-17.9-4-17.7-5.2c0.3-1.2,3.2-7.7,4.7-10.5c0.9-1.7,1.6-3.1,1.5-3.2c-0.2-0.2-9.8-1.3-14.9-1.7
	l-4.9-0.5l0.2-1c0.3-1.4,12.2-29,14.7-33.7l1.2-2.3l7.2-4.1c7.3-4.2,14.4-8.7,15.2-9.8c0.6-0.8,0.3-0.8-5.4-1.3
	c-28.9-2.7-51.3-20-60.5-46.8c-5-14.6-5.8-37.6-2-53.2C44.7,138.5,44.5,138.5,42.2,143.1 M267.8,220c-0.8,0.5-1.2,0.6-1.3,0.3
	c-0.1-0.3-0.2-0.1-0.2,0.3s-0.1,0.6-0.3,0.5c-0.1-0.1-0.5-0.1-0.8,0.2c-0.4,0.4-0.5,0.3-0.3-0.3c0.2-0.6,0.2-0.6-0.2-0.2
	c-0.2,0.3-0.4,0.8-0.4,1.2c0,0.7-0.8,0.7-2.5,0.3c-0.3-0.1-0.6,0.1-0.6,0.3c-0.1,0.9-0.2,1-0.5,0.6c-0.2-0.3-0.5-0.1-0.9,0.6
	c-0.4,0.6-1,1-1.5,1.1c-2,0.2-2.3,0.2-2.1,0.5s-0.8,0.5-2.3,0.3c-0.6,0-0.8,0.1-0.7,0.3c0.1,0.2,0.1,0.4-0.2,0.4
	c-0.2,0-0.9,0.4-1.5,0.8c-0.8,0.6-1,0.7-0.8,0.2c0.1-0.3,0-0.6-0.2-0.6s-0.5,0.3-0.7,0.6c-0.1,0.3-0.5,0.6-0.8,0.6s-0.9,0.4-1.2,0.8
	c-0.3,0.4-0.7,0.8-0.8,0.7c-1-0.2-2.1,0.1-3,0.9c-0.6,0.5-1.1,0.8-1.2,0.8c-0.1-0.1-0.7,0-1.3,0.2c-0.8,0.2-1.1,0.2-1.1,0
	c0-0.2-0.2-0.3-0.5-0.2c-0.3,0.1-0.8-0.1-1.3-0.4c-0.6-0.4-0.8-0.4-0.8-0.1c0,0.2-0.3,0.4-0.6,0.2c-0.7-0.3-0.8-0.6,0.6,3
	c3.8,10.2,5.7,25.5,4.4,34.3c-0.8,6.1-3.8,15.4-5.5,18c-1.5,2.1-0.5,1.6,4.2-2.3c1.4-1.1,8.1-6.5,14.9-11.9
	c6.8-5.4,13.7-11.1,15.5-12.6l3.2-2.8l-0.2-6.6c-0.5-13.8-2.5-28.3-3.9-28c-0.3,0.1-0.5-0.3-0.6-0.8
	C269.4,219.4,269.1,219.3,267.8,220 M293.1,355.2c-0.4,0.2-0.4,0.4-0.1,0.6c0.5,0.3,0.8,0,0.7-0.5C293.6,355,293.3,355,293.1,355.2"
	/>
<path id="path1" class="st1" d="M215.5,60.3c0,0.1,3.4,2.3,7.5,4.8c10.9,6.7,16.1,10.9,22.7,18.7c0.8,0.9,1,1.1,0.7,0.6
	c-3.4-5.2-16.8-17.1-19.3-17.1c-0.2,0-0.2-0.2-0.1-0.4c0.1-0.2,0.1-0.6-0.2-0.8c-0.3-0.4-0.3-0.6,0-0.8c0.2-0.2,0.6,0,0.8,0.3
	c0.2,0.4,0.3,0.2,0.3-0.7c0-0.7-0.2-1.2-0.5-1.3c-1.1-0.5,0.7-0.8,4-0.8c4.1,0.1,11.7,1.3,12.6,2.2c0.4,0.3,0.8,0.6,1.2,0.6
	c0.4,0,0.9,0.4,1.2,0.8c0.4,0.4,1,0.8,1.6,0.8c0.6,0,1.5,0.3,2.3,0.7s1.7,0.7,2.1,0.6c0.4-0.1,0.8,0,0.9,0.3
	c0.1,0.2,0.5,0.4,0.8,0.4c0.3,0,0.5-0.2,0.4-0.4c-0.1-0.2,0.1-0.5,0.4-0.7c1-0.6-10.8-4.2-19.4-5.9
	C229.5,60.6,215.5,59.6,215.5,60.3 M253.7,67.1c1.1,0.4,1.2,0.5,0.5,0.7c-0.5,0.1-0.8,0-0.8-0.2c0-0.2-0.3-0.3-0.6-0.2
	c-0.4,0.1-0.5,0.1-0.3-0.2c0.2-0.3,0-0.3-0.6-0.1c-0.6,0.2-0.8,0.1-0.6-0.2C251.6,66.6,252.1,66.6,253.7,67.1 M255.6,69
	c0,0.3,0.3,0.6,0.6,0.6s1.4,0.6,2.4,1.2c1,0.7,2.8,1.7,3.9,2.3c3.4,1.7,4.4,2.3,5,3.1c0.3,0.4,0.7,0.7,0.8,0.6
	c0.2-0.1,0.6,0.2,0.8,0.8c0.4,0.9,1.2,1.2,1.5,0.7c0.1-0.2,0.5-0.2,0.9,0c0.8,0.3,0.8,1.7,0,2.3c-0.5,0.3,0,1.1,0.5,0.8
	c0.6-0.3,0.4,0.2-0.2,0.8c-0.7,0.7-1.1,0.7-0.6,0c0.3-0.3,0.3-0.6,0.1-0.6c-0.6,0-0.8,0.9-0.6,2.2c0.2,1-0.9,2.2-1.2,1.2
	c-0.1-0.2-0.4-0.3-0.7-0.2c-0.4,0.2-0.5,0.4-0.2,0.7c0.8,0.8-2.1,1.4-3.1,0.6c-0.6-0.5-0.6-0.4-0.6,0.3c0,0.5-0.2,0.8-0.4,0.8
	s-0.3,0.2-0.2,0.4c0.1,0.2,0.1,0.5-0.1,0.6c-0.2,0.1-0.5,0-0.6-0.2c-0.2-0.3-0.5-0.3-1,0c-0.8,0.4-0.8,0.4-0.2-0.1
	c0.4-0.3,0.7-0.8,0.7-1.2c0-0.6-0.1-0.6-0.8,0.3c-0.8,1.1-1.6,1-1.2-0.1c0.2-0.5,0.1-0.7-0.3-0.5c-0.3,0.1-0.5,0.5-0.4,0.8
	c0.4,1.3-0.7,1.9-1.7,0.9c-0.8-0.7-0.8-0.8-0.7-0.1c0.2,0.6,0.1,0.7-0.4,0.5c-0.3-0.1-0.8-0.2-0.9-0.2c-0.2,0-0.4-0.2-0.4-0.4
	c0-0.2,0.3-0.4,0.6-0.4c0.3,0,0.6-0.3,0.6-0.7c0-0.4-0.1-0.5-0.3-0.3c-0.5,0.8-1.8,1.2-2.3,0.8c-0.8-0.5-1.1-0.5-1.1,0.2
	c0,0.3-0.2,0.6-0.4,0.6c-0.2,0-0.3,0.3-0.2,0.6c0.1,0.4,0,0.6-0.3,0.6s-0.6-0.2-0.6-0.5c0-0.3-0.3-0.1-0.6,0.3
	c-0.6,0.7-0.6,0.7-0.4-0.1c0.1-0.5,0.1-0.8-0.2-0.8c-0.2,0-0.4,0.2-0.4,0.4c0,0.2-0.3,0.4-0.6,0.4c-0.3,0-0.6,0.2-0.6,0.5
	s-0.4-0.1-0.8-0.8c-0.8-1.3-0.9-1.7-0.4-1.4c0.2,0.1,0.4,0,0.4-0.2s-0.2-0.4-0.5-0.3c-0.3,0.1-0.8-0.1-1.1-0.5
	c-0.4-0.3-0.1,0.4,0.8,1.5c0.9,1.4,1.5,2,1.8,1.8c0.6-0.6,0.9-0.5,0.8,0.3c0,0.4,0.1,0.9,0.3,1.4c0.2,0.6,0.1,0.6-0.5-0.2
	c-0.4-0.5,0.3,1.1,1.6,3.7c5.7,11.2,7.8,20.5,7.3,33c-0.3,7-0.3,7.1-0.1,9.6c0.3,4.3-8.6,21.5-16.8,32.4l-3.7,4.8l1.6,1.3
	c15.8,13,24.1,25.3,29.5,44c0.7,2.3,1.3,4,1.5,3.9c0.2-0.2,0.2,0.2,0,0.8c-0.2,0.8-0.2,1,0.2,0.8c0.4-0.2,0.4,0.1,0.2,1.1
	c-0.2,1.1-0.1,1.2,0.2,0.7c0.3-0.6,0.3-0.3,0.2,1.1c-0.2,1.4-0.1,1.7,0.2,1.3c0.3-0.5,0.4-0.2,0.2,1.1c-0.1,1-0.1,1.4,0.1,0.9
	c0.4-0.9,0.8,0.7,1,4.8c0.1,1.6,0.4,3.4,0.6,3.9c0.3,0.8,0.7,3.7,0.7,5.8c0,0.3,0.2,0.4,0.3,0.3c0.2-0.1,0.3,0.1,0.3,0.5
	c0,0.4-0.1,0.6-0.3,0.5c-0.2-0.1-0.3,0.3-0.3,0.9s0.2,1.1,0.4,1.1c0.2,0,0.3-0.3,0.2-0.6c-0.2-0.4,0-0.5,0.3-0.4
	c0.4,0.1,0.6-0.2,0.6-1c0.1-0.7,0.4-1.4,0.7-1.6c0.3-0.2,0.6-0.8,0.6-1.1s0.2-0.9,0.5-1.1c0.5-0.5,0.7-1.9,0.7-4.2
	c0-0.8,0.2-1.1,0.8-1.2c0.4-0.1,0.8-0.3,0.8-0.5c0-0.2,0.4-0.4,0.8-0.5c0.4-0.1,0.8-0.5,0.8-0.8c0-0.5,0.1-0.5,0.8-0.1
	c0.5,0.3,0.6,0.6,0.3,0.8c-0.3,0.2-0.3,0.5,0.3,0.9c0.4,0.4,0.6,0.5,0.5,0.2c-0.1-0.3-0.1-0.6,0.2-0.7c0.3-0.2,0.4,0.1,0.3,0.7
	c-0.4,2.7,1.7,2.3,2.8-0.5c0.4-0.9,0.8-1.7,0.9-1.6c0.1,0.1,0.3-0.4,0.3-1s0.7-3.2,1.4-5.7c2.5-8.5,2.7-9.3,3.8-14.6
	c0.6-2.8,1.1-5.2,1.3-5.1s0.2-0.2,0.1-0.6c-0.1-0.5,0-0.8,0.2-1c0.8-0.5,1.7-10,1.7-17.3c-0.1-16.6-3.7-33.9-11.2-53.8
	c-1.3-3.4-0.5-0.3,1.3,5c2.5,7.6,2.8,13.4,0.6,13.5c-0.2,0-0.1-0.2,0.1-0.5c0.3-0.3,0.3-0.6,0.1-0.8c-0.2-0.1-0.5,0-0.5,0.3
	c-0.1,0.4-0.3,0.4-0.8-0.1c-0.4-0.3-0.6-0.4-0.6-0.2c0.2,0.8-0.1,1.3-0.6,1.1c-0.4-0.1-0.6,0.1-0.8,0.8c-0.1,0.6-0.4,1.1-0.6,1.3
	c-0.2,0.1-0.4,0.6-0.4,0.9c0,0.5-0.2,0.7-0.7,0.5c-0.5-0.2-0.6-0.1-0.4,0.4c0.1,0.3,0.1,0.7-0.1,0.8c-0.2,0.1-0.4,0.5-0.5,0.9
	c0,0.5-0.4,0.9-0.8,1.1c-0.4,0.2-1.1,0.8-1.6,1.4c-0.8,1.1-1.6,1.2-1.4,0.3c0.1-0.3,0-0.3,0-0.2c-0.1,0.2-0.5,0.3-0.9,0.3
	c-1,0-2.3,0.9-1.9,1.4c0.2,0.3,0,0.3-0.7,0c-0.7-0.3-0.9-0.2-0.9,0c0,0.2-0.2,0.3-0.4,0.2c-0.2-0.1-0.4,0-0.4,0.2
	c0,0.3-0.3,0.2-0.8-0.2c-0.8-0.7-2.6,0.6-2.6,1.8c0,0.2-0.2,0.2-0.5-0.1c-0.4-0.4-0.4-0.6,0.2-0.8c0.8-0.5,0.8-1,0.1-1
	c-0.3,0-0.5,0.2-0.4,0.4c0.1,0.2-0.1,0.4-0.4,0.4c-0.5,0-0.6,0.2-0.4,0.8c0.2,0.8-0.1,0.8-1.4,0.8c-0.3,0-0.4,0.2-0.3,0.5
	c0.1,0.3-0.1,0.5-0.7,0.4c-0.5-0.1-1,0.1-1.3,0.4c-0.3,0.3-0.4,0.5-0.2,0.5c0.2,0,0,0.3-0.2,0.6c-0.3,0.3-0.3,0.8-0.2,0.9
	c0.2,0.3,0,0.4-0.6,0.2c-1-0.3-2.1,0.6-1.4,1.3c0.4,0.4,0.4,0.4,0,0.2c-0.3-0.1-0.6-0.1-0.7,0.2c-0.1,0.2-0.6,0.3-0.9,0.2
	c-0.4-0.1-0.7-0.1-0.7,0.1c0.1,0.8-0.1,1-0.4,0.6c-0.3-0.4-0.4-0.4-0.8,0.3c-0.4,0.8-0.5,0.8-1.1,0.2s-0.8-0.6-0.8,0
	c0,0.7-0.6,0.8-0.9,0.3c-0.1-0.2-0.9-0.3-1.9-0.3c-0.9,0.1-1.7,0-1.7-0.2c0-0.2-0.5-0.5-1.1-0.7c-0.7-0.2-1-0.3-0.9,0
	c0.1,0.2,0.1,0.4-0.1,0.4c-0.2,0-0.7,0.1-1,0.3c-0.6,0.2-0.6,0.2-0.3-0.3c0.2-0.3,0.4-1.1,0.4-1.9c0-1.2,0.1-1.4,0.8-1.4
	c0.7,0,0.8-0.1,0.3-0.2c-0.4-0.1-0.7-0.4-0.7-0.7c0-0.3-0.2-0.6-0.5-0.7c-0.3-0.1-0.3-0.4,0-0.8c0.3-0.6,0.2-0.8-0.4-1.3
	c-0.8-0.6-1.2-2.3-0.6-2c0.2,0.1,0.3-0.2,0.3-0.6c0-0.9,2.2-4.5,2.5-4.2c0.2,0.1,0.3-0.1,0.3-0.5s0.8-2.2,1.9-4c1-1.9,2-3.8,2.1-4.1
	c0.1-0.4,0.4-0.7,0.7-0.5c0.2,0.1,0.3,0.1,0.2-0.2c-0.4-0.6,0.1-1.6,0.6-1.3c0.2,0.1,0.3,0.1,0.2-0.2c-0.1-0.2,0.7-2.3,1.8-4.6
	c1.1-2.3,2-4.3,2-4.4c0-0.1,0.8-2,1.9-4.1c1-2.2,1.9-3.9,1.9-4c0-0.1,1.3-3,2.9-6.4c1.6-3.5,3.7-8.1,4.6-10.2c2-4.8,1.9-4.7,3.6-1.3
	c1.7,3.2,1.4,2-0.4-1.9c-0.7-1.5-1.8-3.9-2.5-5.5c-1.5-3.2-1.5-3.2-0.5-3.6c0.4-0.1,2.1-1,3.6-2c5.3-3.3,7.2-4.4,10-5.7
	c1.5-0.8,2.8-1.5,3-1.7c0.6-0.9-4-6.1-11.5-12.9c-3.4-3-16-10.2-17.5-10.1c-0.4,0-0.7-0.1-0.7-0.3c-0.1-0.6-1-0.9-1.7-0.8
	c-0.4,0.1-0.7,0-0.7-0.2c0-0.2-0.2-0.4-0.4-0.4C256.1,68.8,255.6,68.7,255.6,69 M97.8,75.1c-2.2,1.4-5.3,3.9-6.9,5.5s-3,2.7-3.1,2.5
	C87.4,82,76,92.8,70.6,99.5c-8,9.9-18.4,25.4-18.4,27.4c0,3.4,4.3,16.4,7.7,23.3c4.3,8.8,7.1,13.1,12.3,18.5
	c3.7,3.9,13.4,11.7,11.3,9.1c-0.8-0.8-0.2-0.8,1,0.2c0.8,0.6,0.8,0.8,0.3,0.6c-0.9-0.3,0.6,1,2.2,1.9l1.1,0.6l-0.8-0.8l-0.8-0.8
	l1,0.4c1.4,0.6,1.3,0.6,0.9-0.8c-0.2-0.6-0.6-1.1-0.8-1.1c-0.2,0-0.4-0.2-0.4-0.4c0-0.2,0.1-0.3,0.3-0.2c0.2,0.1,0.5-0.1,0.8-0.4
	c0.4-0.4,0.4-0.5-0.1-0.5c-0.8,0-1-1.5-0.4-1.7c0.3-0.1,0.6-0.5,0.6-0.8c0-0.3,0.4-0.8,0.8-1.3c0.5-0.5,0.7-0.6,0.5-0.3
	c-0.2,0.3-0.2,0.5,0,0.3c0.5-0.4,0.5-1.8,0.1-1.5c-0.2,0.1-0.3,0-0.2-0.4c0.1-0.3,0.1-1.2-0.1-2c-0.3-1.1-0.2-1.5,0.2-1.8
	c0.8-0.6,0.7-0.8-0.2-0.7c-0.8,0.2-1.1-1.8-0.4-2.3c0.2-0.1,0.3-0.4,0.2-0.6c-0.4-0.7-0.5-3.9-0.1-3.9c0.2,0,0.2-0.3-0.1-0.6
	c-0.3-0.3-0.3-0.6-0.1-0.6s0.4-0.4,0.3-0.8c-0.1-0.7,0.1-0.9,0.8-1.1c0.5-0.1,0.8-0.6,1-1.1c0.1-0.5,0-0.8-0.1-0.8
	c-0.5,0.3-0.4-0.3,0.3-1.3c0.3-0.5,0.6-0.8,0.6-0.5c0,0.3,0.4,0.5,0.8,0.5s1.4,0.6,2.3,1.5c23.1,23.9,72.8,30.5,98.6,13
	c11.6-7.9,23.6-22,27.4-32.3c0.5-1.1,1-2.5,1.3-3.2c0.7-1.2-0.2-1-1.3,0.2c-0.6,0.8-7.3,4.9-10.2,6.4c-14.6,7.3-43.2,10.2-62.8,6.3
	c-13.3-2.7-27.3-11-35.2-21c-2.8-3.6-3.6-4.2-2-2c0.7,1,3.3,3.9,5.8,6.4c2.5,2.5,4.5,4.7,4.5,4.9c-0.1,0.2,0,0.2,0.2,0.1
	c0.6-0.4,1.1,0.3,0.8,0.8c-0.3,0.4-0.4,0.5-0.6,0.1c-0.6-1.5-2.2,0-1.8,1.7c0.1,0.6,0.1,0.8-0.1,0.7c-0.5-0.6-1.5-0.6-1.7,0
	c-0.1,0.3,0,0.4,0.4,0.3c0.4-0.1,0.5-0.1,0.4,0.2c-0.1,0.2,0,0.4,0.4,0.4c0.4,0,0.7,0.2,0.8,0.4c0.1,0.3-0.1,0.5-0.4,0.5
	c-0.5,0-0.6,0.3-0.4,1.3c0.1,0.8,0,1.3-0.3,1.3s-0.3,0.2,0,0.6c0.3,0.3,0.4,0.7,0.2,0.8c-0.1,0.2-0.1,0.5,0.2,0.6
	c0.6,0.4,0.5,0.8-0.3,1.5c-0.5,0.5-0.6,0.7-0.1,0.9c0.3,0.2,0.4,0.4,0.1,0.4c-0.2,0-0.6-0.2-0.8-0.5c-0.3-0.3-0.5-0.3-0.4-0.1
	c0.1,0.5-0.4,2.7-0.7,2.7c-0.1,0-0.5-0.3-0.8-0.6c-0.6-0.6-0.7-0.6-1.1,0.1c-0.3,0.4-0.7,0.7-0.8,0.6c-0.2-0.1-0.4,0.3-0.6,0.7
	c-0.2,0.6-0.5,0.7-1.2,0.5c-0.8-0.2-1.1,0-1.5,0.8c-0.3,0.6-0.8,0.9-1.3,0.9c-0.6,0-0.7,0.1-0.3,0.3c0.4,0.3,0.3,0.4-0.3,0.5
	c-0.5,0.1-0.7,0.4-0.6,0.8c0.1,0.3,0,0.6-0.2,0.6s-0.4-0.2-0.4-0.4c0-0.2-0.3-0.2-0.8,0.1c-0.4,0.3-0.7,0.6-0.6,0.7
	c0.3,0.4-2.2-0.1-2.9-0.6c-0.9-0.7-1.4-0.7-1.1,0.1c0.2,0.6-0.7,1.6-1.4,1.6c-0.2,0-0.1-0.2,0.2-0.4c0.5-0.3,0.5-0.4-0.2-0.4
	c-0.4,0-0.9,0.3-1.2,0.7c-0.4,0.6-0.5,0.6-0.5,0.1c0-0.8-2.9-0.8-2.9-0.1c0,0.3,0.3,0.4,0.8,0.3c0.5-0.2,0.8-0.1,0.8,0.3
	c0,3.8-10.3-7.7-14.9-16.6c-10.6-21-3.4-51.2,15.6-63.5l0.9-0.7l-0.1,1.6c-0.1,0.8-0.2,2.1-0.4,2.7c-0.2,0.6,0.4-0.3,1.2-1.9
	s1.7-3.1,1.9-3.2c0.5-0.3,0.2-0.9-0.4-0.9C101.9,72.5,100,73.7,97.8,75.1 M274.1,82.5c-0.7,3.3-0.9,3.8-1.9,3.2
	c-0.4-0.3-0.4-0.4,0.1-0.6c0.3-0.1,0.6-0.6,0.6-0.9c0-0.5-0.2-0.7-0.5-0.6c-0.8,0.3-1.1-0.7-0.4-1.2
	C272.6,82.1,274.2,82.1,274.1,82.5 M87.1,85.3c-0.4,0.6-1,1.6-1.4,2.3c-0.4,0.8-0.8,1.1-0.8,0.8c-0.2-0.6,2.4-4.7,2.7-4.3
	C87.8,84.1,87.6,84.7,87.1,85.3 M110.3,92.8c0.1,0.5,0.5,2.1,0.8,3.6c0.6,3.1,2.7,10.4,2.7,9.6c0-0.3-0.2-1.4-0.5-2.4
	c-0.7-2.5-0.5-3.4,1-3.4c0.7,0,1.5-0.3,1.9-0.6c0.6-0.5,0.8-0.5,1.5,0c0.5,0.3,0.9,0.5,1,0.3c0.1-0.1,0.6,0.1,1,0.6
	c0.5,0.5,1.1,0.8,1.6,0.8c0.4,0,1,0.3,1.4,0.6c0.4,0.3,1.2,0.8,1.9,0.9c0.7,0.2,2.6,0.8,4.4,1.4c1.8,0.6,4.7,1.4,6.4,1.7
	c1.8,0.3,3.9,0.8,4.8,0.9c1.8,0.4,13.5,0.6,14.7,0.2c0.8-0.3,1.5,0.3,0.8,0.8c-0.3,0.2-0.4,0.1-0.1-0.2c0.2-0.3,0.2-0.4-0.1-0.2
	c-0.3,0.2-0.4,0.4-0.3,0.6c0.2,0.4-0.8,1.9-3.1,4.1c-0.9,0.9-1.6,1.8-1.5,2c0.2,0.2,4.9-4.7,5.9-6.2c0.4-0.6,0.8-0.9,0.9-0.8
	c0.2,0.1,0.3-0.2,0.3-0.6c0-0.4,0-0.8-0.1-0.8s-1,0.3-2.2,0.6c-4.5,1.1-16.4,0.3-23.4-1.7c-8.5-2.4-15.3-6-20.1-10.7
	C110.4,92.3,110.2,92,110.3,92.8 M114.1,107.3c0.1,0.5,0.4,1.1,0.6,1.5c0.3,0.4,0.3,0.3,0.1-0.4c-0.1-0.5-0.4-1.1-0.6-1.5
	C113.9,106.6,113.9,106.7,114.1,107.3 M116.5,113.4c0,0.4,1.5,3.2,1.7,3.2c0.1,0-0.2-0.7-0.6-1.6C116.6,113.3,116.5,113,116.5,113.4
	 M171.3,115.7c0.2,0.2,4.7,0.5,10.1,0.6c10.1,0.3,12.5,0.4,12.9,0.6c0.1,0.1,0.4,0.1,0.7,0.1c0.3,0,0.6,0.3,0.7,0.6
	c0.1,0.4,0,0.5-0.6,0.3c-0.7-0.2-0.7-0.2,0,0.3c1.2,0.9,2.3,0.6,1.3-0.5c-0.3-0.3-0.3-0.5,0-0.7c0.2-0.1,0.5,0.1,0.6,0.5
	c0.3,0.8,1.3,1,1.3,0.4c0-0.2-0.2-0.4-0.4-0.4c-0.2,0-0.4-0.1-0.4-0.3c0-0.5,2.3-0.3,2.5,0.3c0.1,0.4,0,0.5-0.4,0.3
	c-0.3-0.1-0.7-0.1-0.8,0.1c-0.3,0.4,2.5,0.8,3.5,0.6c0.8-0.3,1.4,0.5,0.7,0.8c-0.5,0.2-0.4,0.4,0.5,1.1c0.6,0.5,0.8,0.8,0.6,0.8
	c-0.3,0-0.7-0.3-1-0.6c-0.6-0.6-0.7-0.5-1,0.6c-0.5,1.3-1,1.5-1,0.5c0-0.4-0.2-0.8-0.4-0.9c-0.2-0.1-0.4,0-0.4,0.3
	c0,0.3-0.3,0.5-0.7,0.5s-0.7,0.2-0.7,0.5c0,0.7-0.8,1.5-1.3,1.5c-0.4,0-0.4,0.1,0.1,0.4c0.5,0.3,0.4,0.4-0.4,0.5
	c-1.2,0.1-2.3,0.2-2.7,0.3c-0.2,0-0.1,0.3,0.1,0.6c0.4,0.4,0.3,0.5-0.5,0.5c-0.5,0-0.9-0.2-0.9-0.4c0-0.2-0.2-0.1-0.4,0.2
	c-0.2,0.3-0.3,0.7-0.2,0.9c0.1,0.2-0.4,0.7-0.9,1c-1.2,0.8-1.4,0.5-0.5-0.6c0.7-0.8,0.7-0.8-0.4-0.1c-0.6,0.4-0.9,0.8-0.8,1.1
	c0.1,0.3,0,0.6-0.2,0.6c-0.3,0-0.3,0.2-0.2,0.5c0.2,0.4,0.1,0.3-0.3,0c-0.5-0.4-0.7-0.4-1,0.2c-0.3,0.5-0.8,0.7-1.4,0.6
	c-0.8-0.2-0.8-0.1-0.4,0.4c0.6,0.5,0.6,0.6-0.2,1.2c-0.7,0.7-0.8,0.7-0.5,0.1c0.1-0.4,0-0.9-0.3-1.2c-0.7-0.7-1-0.7-0.8,0
	c0.1,0.3,0,0.8-0.3,1.2c-0.3,0.4-0.4,0.8-0.3,1.1c0.1,0.3-0.1,0.5-0.4,0.5c-0.8,0-0.8-0.2,0.1-1.4c0.6-0.9,0.6-0.9,0-0.8
	c-0.4,0.2-0.7,0.1-0.7-0.2c0-0.3-0.2-0.3-0.4,0.1c-0.3,0.4-0.5,0.5-0.6,0.1c-0.1-0.4-0.4-0.4-0.8,0c-0.5,0.3-0.6,0.6-0.3,0.9
	c0.6,0.7,1,0.6,0.8-0.2c-0.2-0.6-0.2-0.6,0.4-0.1c0.8,0.7,0.6,0.8-0.8,0.9c-0.7,0.1-1.2-0.2-1.6-0.6c-0.4-0.5-0.8-0.6-1.1-0.4
	c-0.5,0.3-0.2,0.5,0.5,0.4c0.8-0.1,0.1,0.6-1,1.1c-0.7,0.3-1.2,0.4-1.2,0.2c0-0.2-0.3-0.5-0.7-0.6c-0.6-0.1-0.7,0-0.5,0.5
	c0.2,0.6,0.1,0.6-0.8,0.5c-0.8-0.1-1.1,0-1.1,0.4c0,0.3-0.2,0.5-0.5,0.5c-0.9-0.2-1.8,0.5-1.3,1c0.7,0.8-0.2,0.6-1.1-0.2
	c-1-0.9-1.1-0.9-0.8-0.1c0.2,0.5,0.1,0.6-0.3,0.3c-0.4-0.2-0.5-0.1-0.3,0.5c0.3,1-0.3,1-1.1-0.2c-0.8-1-1.9-0.8-1.9,0.6
	c0,0.8-2.7,1.8-4,1.4c-0.5-0.1-1.5-0.3-2.3-0.3s-1.4-0.2-1.4-0.5c0-0.2-0.2-0.3-0.5-0.1c-0.3,0.2-2,0.3-3.9,0.3
	c-2.3,0-3.5,0.2-3.6,0.4c-0.2,0.6-5.5-0.1-6.9-0.9c-0.2-0.1-0.6-0.3-0.8-0.3c-4.1-0.7-11.9-5-17.4-9.6l-3.1-2.7l2.6,2.5
	c11.7,11.3,29,14.9,58.2,12.3c20.1-1.9,35.1-9.5,43.4-22.3l0.7-1h-28.4C182.3,115.3,171.2,115.4,171.3,115.7 M201.5,117.6
	c0.1,0.3-0.1,0.4-0.5,0.2c-0.3-0.1-0.6-0.4-0.6-0.6C200.5,116.7,201.3,117,201.5,117.6 M204.5,117.7c0.2,0.5,0.1,0.5-0.4,0.1
	c-0.3-0.3-0.7-0.4-0.8-0.2c-0.2,0.2-0.2,0.1,0-0.2C203.6,116.7,204.2,116.9,204.5,117.7 M207.3,117.5c0.2,0.5,0.1,0.5-0.3,0.2
	c-0.3-0.2-0.8-0.3-1.3-0.3c-0.5,0.1-0.8,0-0.8-0.2C204.9,116.6,207,116.8,207.3,117.5 M205.7,119.3c-0.2,0.3-0.4,0.8-0.3,1
	c0.1,0.3,0.1,0.4,0,0.3c-0.1-0.1-0.5-0.2-0.8-0.1c-0.4,0.1-0.8-0.1-0.9-0.5c-0.4-0.8,0.4-1.5,1-0.9c0.5,0.4,0.6,0.3,0.8-0.4
	c0.2-0.5,0.4-0.7,0.5-0.4C206,118.5,205.9,119,205.7,119.3 M207.1,119.1c0,0.4,0.2,0.8,0.5,0.8c0.3,0,0.4,0.1,0,0.4
	c-0.2,0.2-0.6,0.3-0.8,0.2c-0.5-0.3-0.6-2.1,0-2.1C207,118.3,207.1,118.7,207.1,119.1 M120.9,121.2c0.7,0.9,1.4,1.9,1.8,2.1
	c0.3,0.3-0.2-0.5-1-1.7C119.7,119.1,119.2,118.7,120.9,121.2 M278,119.7c0,0.2,0.3,0.8,0.6,1.3c0.3,0.5,0.6,0.8,0.6,0.6
	c0-0.2-0.3-0.8-0.6-1.3C278.2,119.8,278,119.5,278,119.7 M195.7,123c0.3,0.2,0.4,0.6,0.2,0.8c-0.2,0.3-0.1,0.4,0.2,0.3
	c0.8-0.3,0.7-1.2-0.2-1.3C195.3,122.8,195.3,122.9,195.7,123 M261.8,135.2c-0.9,2.2-1.4,2.6-1.1,1.3c0.2-0.8,1.4-3.1,1.8-3.1
	C262.4,133.4,262.1,134.2,261.8,135.2 M154.6,137.9c-0.7,0.4-2.9,0.5-2.9,0.1c0-0.2,0.8-0.3,1.7-0.4
	C154.5,137.5,154.9,137.6,154.6,137.9 M157.7,137.9c-0.1,0.2-0.6,0.3-1,0.3s-0.9-0.1-1-0.3c-0.1-0.2,0.4-0.3,1-0.3
	C157.3,137.6,157.8,137.7,157.7,137.9 M43.4,143.7c-0.2,0.9-0.6,3.1-0.7,5c-0.1,1.8-0.3,3.9-0.4,4.6c-0.9,7-1.1,16-0.6,20.8l0.3,2.2
	l0.1-3.3c0.1-1.8,0.2-4.4,0.2-5.7c0.1-1.7,0.2-2.3,0.6-2.4c1.2-0.1,1.4-0.2,1.2-0.7c-0.1-0.3-0.1-0.6,0.1-0.6c0.8,0,1.3-2.5,0.7-3.4
	c-0.5-0.7-0.5-1.1-0.2-1.8c0.4-0.8,0.4-0.8,0.4,0.2c0,0.8,0.1,0.9,0.3,0.4c0.2-0.5,0.5,0.3,0.8,2.3c0.3,1.7,0.6,2.9,0.7,2.8
	c0.1-0.1-0.1-1.7-0.4-3.6c-0.3-1.9-0.9-6.2-1.3-9.7c-0.5-3.5-0.9-6.9-1-7.5l-0.3-1.3L43.4,143.7 M105.4,152.2c0,0.2,0.2,0.4,0.4,0.4
	c0.2,0,0.3,0.2,0.2,0.4c-0.1,0.2,0,0.4,0.3,0.4c0.9,0,0.9-0.6,0-0.9C105.8,152.1,105.4,152,105.4,152.2 M99.3,157.2
	c0.7,0.6,1.3,0.9,1.5,0.9c0.2-0.1,0.3,0.1,0.2,0.2c-0.1,0.2,0.4,0.8,1.1,1.4c2.3,1.7,3.5,3,1.6,1.7c-2-1.4-6.2-5.2-5.7-5.2
	C97.9,156.2,98.6,156.7,99.3,157.2 M272.7,163.7c-0.8,0.3-0.9,0.6-0.6,0.8c0.3,0.2,0.6,0.1,0.7-0.1s0.6-0.6,0.9-0.8
	C274.7,163.1,274,163.1,272.7,163.7 M47.1,165.1c0,0.8,1.3,5.5,1.4,4.8c0-0.2-0.3-1.5-0.7-2.9C47.5,165.6,47.1,164.8,47.1,165.1
	 M247.6,170.6c-0.4,0.4-0.5,0.3-0.5-0.5c0-0.7,0.1-0.8,0.5-0.5C248,170,248,170.2,247.6,170.6 M48.6,170.9c0,0.3,0.2,0.8,0.3,1.3
	c0.2,0.5,0.3,0.6,0.3,0.2c0-0.3-0.2-0.8-0.3-1.3C48.7,170.6,48.6,170.5,48.6,170.9 M49.3,173.2c0,0.5,1.2,3.9,1.3,3.9
	c0.2-0.2-0.9-3.9-1.1-3.9C49.3,173,49.3,173.1,49.3,173.2 M42.3,177.5c0,0.8,0.1,1,0.2,0.7c0.1-0.4,0.1-0.9,0-1.3
	C42.4,176.5,42.3,176.8,42.3,177.5 M50.7,177.6c0,1.1,5.1,12,6.3,13.4c0.4,0.5-0.3-0.9-1.4-3.3c-1.2-2.3-2.7-5.5-3.4-7.1
	C51,177.8,50.7,177.1,50.7,177.6 M43,183c0,0.7,0.2,1.5,0.4,1.8c0.3,0.4,0.3,0.1,0.1-1.1C43.2,181.7,43,181.4,43,183 M58.2,193.2
	c0.3,0.7,0.8,1.3,0.9,1.4c0.5,0.3,0-0.8-0.9-1.9C57.7,192,57.7,192,58.2,193.2 M59.7,195.5c1.8,3.4,10.4,12.8,15.2,16.5
	c1.6,1.2,2.9,2.4,2.8,2.7c0,0.2,0.1,0.4,0.4,0.3c1.1-0.2,2.1,0.7,1.3,1.2c-0.7,0.5-0.6,0.5,0.3,0.4c1.1-0.2,1.6,0.1,1.9,1
	c0.2,0.5,0.5,0.6,0.9,0.5c0.5-0.2,0.8,0,0.9,0.4c0.2,0.5,0.1,0.6-0.4,0.4s-0.5-0.1-0.2,0.5c0.5,0.8,0.9,0.9,1.3,0.4
	c0.1-0.2,0.4-0.3,0.6-0.2c0.2,0.1,0.3,0.4,0.2,0.5c-0.1,0.2,0.2,0.7,0.6,1c0.4,0.5,0.8,1,0.8,1.3s0.3,0.8,0.6,0.9
	c0.5,0.4,0.6,0.4,0.6-0.1c0-0.3,0.5,0,1.1,0.7c0.6,0.7,1.1,1.5,1.1,1.9s0.2,0.8,0.4,0.9c0.2,0.1,0.4,0,0.4-0.2
	c0-0.4,0.8-1.5,1.2-1.5c0.1,0,0.1,0.3,0,0.6c-0.2,0.5-0.1,0.6,0.2,0.3c0.4-0.2,0.4-0.1,0,0.5c-0.4,0.7-0.3,1,0.6,2.1
	c0.6,0.8,0.8,1.2,0.4,1c-0.3-0.1-0.6,0-0.6,0.2c0,0.2,0.2,0.4,0.5,0.4c0.7,0,1,0.9,0.6,1.4c-0.3,0.3-0.3,0.5,0,0.7
	c0.7,0.4,0.5,0.8-0.9,1.9c-1.3,0.9-1.3,0.9-2.1,0.3l-0.8-0.7l0.8,1c0.8,1,1.1,1.2,1.4,0.7c0.1-0.2,0.4-0.4,0.7-0.4s0.2,0.2-0.1,0.6
	c-0.3,0.3-0.7,0.6-0.9,0.6c-0.3,0-0.5,0.2-0.5,0.4c0,0.2,0.2,0.3,0.4,0.2c0.2-0.1,0.4-0.1,0.4,0.2c0,0.2-0.3,0.4-0.8,0.4
	c-0.6,0-0.7-0.2-0.6-0.9c0.2-0.8,0.1-0.9-0.4-0.4c-0.7,0.7-5.9,0.7-5.9,0c0-0.7-0.3-0.8-1.7-1c-0.7-0.1-1.4-0.2-1.6-0.2
	s-0.2-0.2-0.1-0.4c0.2-0.3-1.1-0.9-1.8-0.8c-0.2,0-0.6-0.1-0.8-0.3c-0.8-0.7-4.7-2.6-4.8-2.4c-0.5,0.5,6.1,4,11.7,6.4
	c7,2.9,11.4,4,20.6,5.1c3,0.4,5.8,0.8,6.2,0.9c0.4,0.2,3,0.8,5.8,1.5c2.8,0.7,9,2.2,13.7,3.3c5.5,1.4,8.7,2,9,1.8
	c0.2-0.2,0.5-0.3,0.7-0.2c0.1,0.1,0.3-0.1,0.4-0.4c0.1-0.3,0-0.7-0.2-0.8c-0.3-0.2-0.2-0.4,0.1-0.8c0.3-0.3,0.4-0.8,0.3-1.2
	c-0.1-0.4,0-0.8,0.2-0.9c0.2-0.1,0.3-0.5,0.2-0.8c-0.1-0.3,0-0.6,0.2-0.7c0.2-0.1,0.5-0.8,0.5-1.8s0.2-1.9,0.3-2.1
	c0.2-0.2,0.1-0.6-0.1-0.7c-0.2-0.2-0.2-0.6,0.2-1c0.5-0.8,0.5-0.8-0.3-1.5c-0.6-0.5-0.7-0.8-0.3-0.9c1.9-1.1-9.2-5-16.7-5.8
	c-29.1-3.3-50.6-14-63.5-31.8C60.2,195.6,59.1,194.5,59.7,195.5 M194.9,199.6c-5.8,2-17.4,4.2-25.8,5.1c-5.5,0.6-5.4,0.5-3.5,2.4
	c3.3,3.4,25.1,14.4,26.2,13.3c0.1-0.1-2.3-1.1-5.3-2.3c-11.6-4.6-19.2-9.2-15.6-9.5c0.4,0,0.8-0.3,0.9-0.6s0-0.4-0.2-0.3
	c-0.2,0.1-0.3-0.3-0.3-0.9c0-0.7,0.2-1.1,0.4-1.1c0.2,0,0.2-0.2,0-0.5c-0.2-0.3-0.1-0.3,0.1-0.2c0.2,0.1,1.1,0,2-0.3
	c0.8-0.3,2-0.6,2.4-0.6s1.4-0.2,2-0.4c1.1-0.4,5.5-1.2,9.2-1.9c1-0.2,3.4-0.8,5.4-1.4c5.5-1.8,7.4-2.3,7.6-1.9
	c0.1,0.2,0.4,0.4,0.7,0.4c0.5,0,1.9,0.7,2.3,1.1c0.1,0.1,0.5,0.3,0.9,0.3c5.8,1,24.2,17,25.8,22.3c0.4,1.4,0.7,2,0.9,2
	c0.5,0,1.2,1.9,1,2.8c0,0.5,0.1,0.8,0.2,0.8c0.3,0,0.5,0.7,0.5,2.3c0,0.4,0.2,0.8,0.5,1c0.4,0.2,0.3,0.4-0.1,0.6
	c-0.3,0.2-0.4,0.4-0.1,0.6c0.2,0.1,0.5,0,0.6-0.2c0.1-0.3,0.3-0.3,0.5-0.2c0.2,0.2,0.1,0.5-0.2,0.6c-0.3,0.2-0.4,0.5-0.2,0.8
	c0.2,0.3-0.3,0.1-0.9-0.4c-0.8-0.6-1.3-0.8-1.4-0.5c-0.2,0.6-1,0.6-1.4-0.1c-0.8-1.2-2-0.8-2.4,0.8c-0.3,0.8-0.3,0.8-1.1,0.3
	c-0.9-0.6-1.9-0.4-2.2,0.4c-0.2,0.4-0.4,0.4-1.3-0.1c-0.9-0.5-1.2-0.5-1.4-0.1s-0.5,0.4-1.1,0c-0.8-0.4-0.8-0.4-0.6,0.4
	c0.2,0.6,0.1,0.8-0.4,0.8c-0.3,0-0.6-0.2-0.6-0.5c0-0.3-0.4-0.7-0.9-0.9c-0.5-0.2-0.9-0.6-0.9-0.8c0-0.2-0.5-0.3-0.9-0.1
	c-0.7,0.1-1.1,0-1.4-0.4c-0.2-0.3-0.8-0.7-1.4-0.8c-0.6-0.1-1.2-0.4-1.5-0.7c-0.4-0.4-0.6-0.3-0.6,0c0,0.3-0.2,0.4-0.4,0.2
	c-0.2-0.1-0.3-0.4-0.1-0.7c0.1-0.2,0.1-0.3-0.1-0.2c-0.2,0.1-1.1-0.5-2.2-1.4c-0.9-0.9-2-1.7-2.3-1.7c-0.3,0-0.7-0.3-0.9-0.7
	c-0.3-0.4-0.7-0.8-0.8-0.8c-0.2-0.1-1.5-0.8-2.9-1.6c-2.6-1.6-8.9-4.4-9.2-4.2c-0.1,0.1,1.3,0.8,3,1.6c7,3.2,12,6.6,16.5,11.2
	c1.5,1.5,2.8,2.7,3,2.7c0.1,0,0.5,0.2,0.8,0.6c0.4,0.5,0.4,0.6,0,0.4c-0.8-0.5-0.5,0.3,0.7,1.6l1.1,1.3l-0.8-1.3l-0.8-1.3l0.9,1
	c0.5,0.6,0.8,1.2,0.8,1.3c-0.1,0.1,0.7,1.8,1.7,3.7c7,13.2,7.3,30.4,1,46.7c-0.7,1.8-1.1,3.4-0.9,3.4c0.2,0.1,0.2,0.3,0.1,0.5
	c-0.1,0.2,0,0.4,0.2,0.4s0.4,0.3,0.3,0.7c0,0.5-0.3,0.7-0.8,0.5c-0.5-0.1-0.6-0.4-0.5-0.9c0.1-0.5-0.8,1-2,3.3
	c-1.2,2.3-2.6,4.8-3.2,5.8c-0.6,0.9-0.8,1.8-0.7,1.8c0.2,0,0.4-0.1,0.4-0.3c0-0.2,0.7-1.3,1.5-2.5c0.8-1.2,1.5-2.4,1.5-2.6
	s0.2-0.4,0.4-0.4c0.2,0,0.3,0.2,0.2,0.4c-0.4,0.7,0.3,0.4,0.8-0.3c0.3-0.4,0.4-0.5,0.3-0.2c-0.3,0.5,0.8,0.5,1.6,0
	c0.3-0.2,0.5-0.1,0.5,0.3c0,0.3-0.3,0.6-0.6,0.6c-0.3,0-0.6,0.2-0.6,0.5c0,0.7-6.2,6.8-6.3,6.1c0-0.3-0.3,0-0.6,0.6
	c-0.3,0.6-1.8,2.5-3.2,4.2c-18.2,21.8-32.4,49.3-38.2,73.5l-0.3,1h20.8h21.1v-2.6c0-11.6,3.9-29.1,9.2-41.4c7-16,14.4-26.4,30.6-43
	c14.3-14.6,18.9-22.7,21-37c0.3-2.3,0.8-4.6,0.9-5.1c0.5-1.3,0.5-1.3-0.3-0.6c-0.4,0.4-2.1,2-3.9,3.6c-1.8,1.6-3.1,3-3,3.1
	c0.1,0.1,1.1-0.7,2.3-1.7c3.9-3.6,4.1-3.4,3.3,2.3c-2,13.3-6.7,21.2-20.8,35.7c-5,5.1-9.8,10.2-10.6,11.2c-0.9,1.1-1.8,2.1-1.9,2.2
	c-2.5,2.1-11.5,15.6-15.3,23.3c-1.1,2.3-2.2,4.1-2.3,4.2c-0.2,0.1-0.3,0.6-0.4,1.1c-0.1,0.5-0.4,0.9-0.6,0.9c-0.6,0-1.9,1.6-1.9,2.3
	c0,0.9-1.6,2.1-2.4,1.9c-0.6-0.1-0.8-0.1-0.8,0.2c0,0.3-0.2,0.3-0.6,0c-0.5-0.4-0.6-0.4-0.4,0.1c0.2,0.6-0.8,1.2-1.3,0.8
	c-0.2-0.1-0.4-0.1-0.4,0.2c0,0.2,0.3,0.5,0.6,0.6c0.3,0.1,0.5,0.4,0.4,0.7c-0.2,0.3-0.5,0.2-0.8-0.2c-0.4-0.3-0.8-0.5-0.8-0.4
	c-0.1,0.1,0.1,0.5,0.4,0.8c0.6,0.5,0.6,0.5,0,0.5c-0.3,0-0.8-0.2-1-0.5c-0.3-0.3-0.7-0.5-1-0.3c-0.3,0.1-0.5,0.1-0.4-0.1
	c0.5-0.8-1.3-0.3-1.9,0.5c-0.5,0.7-0.7,0.8-1,0.5c-0.4-0.3-0.5-0.3-0.5,0c0,0.3-0.3,0.4-0.7,0.2c-0.4-0.1-1.1-0.1-1.7,0.2
	c-0.7,0.3-0.9,0.3-0.9,0c0-0.2-0.3-0.3-0.6-0.2c-0.3,0.1-0.5,0.1-0.4-0.2c0.1-0.2,0-0.4-0.4-0.4s-0.5,0.2-0.4,0.6
	c0.1,0.3,0,0.6-0.3,0.6c-0.3,0-0.8,0.1-1,0.1s-0.5,0.3-0.5,0.6c0.1,0.3-0.1,0.4-0.3,0.3c-0.2-0.1-0.3-0.5-0.2-0.8
	c0.3-0.8-1.2-0.9-1.6-0.3c-0.4,0.6-0.6,0.2-0.4-0.8c0.1-0.5-1-1.4-1.4-1.2c-0.2,0.1-0.6,0-0.8-0.4c-0.6-0.7-2-0.7-2.7,0
	c-0.7,0.7-1.5,0.8-1.1,0.2c0.1-0.2,0-0.6-0.3-0.8c-0.3-0.2-0.6-0.1-0.8,0.1c-0.2,0.4-0.3,0.4-0.3,0c0-0.3-0.3-0.5-0.6-0.5
	c-0.3,0-0.6-0.2-0.6-0.4c0-0.3-0.2-0.3-0.6,0.1c-0.5,0.4-0.6,0.3-0.5-1.1c0.1-0.8,0.2-1.6,0.4-1.6c0.4,0,1.4-1.6,1.3-2.1
	c-0.1-0.7,1.6-4.2,1.8-3.7c0.2,0.5,0.8,0.3,0.8-0.3c0-0.2-0.2-0.3-0.4-0.1c-0.6,0.4-0.5,0,0.3-1.3c0.4-0.6,0.8-0.9,0.9-0.8
	c0.2,0.2,0.2,0.1,0.1-0.1s1.4-2.9,3.5-6c8.9-13.4,16.8-22.4,30.1-33.7c3.9-3.4,7.5-6.7,7.9-7.2c0.7-0.9,0.8-1.1,0.8-2.3
	c0-0.3,0.2-0.4,0.5-0.2c0.3,0.2,0.3,0.1,0.2-0.2c-0.3-0.5,0.8-2.6,1.2-2.6c0.6,0,1.9-4,1.7-4.9c-0.2-0.7-0.2-0.7,0.2-0.2
	s0.4,0.4,0.3-0.3c-0.1-0.5,0-0.8,0.2-0.9c1.4-0.5,2.9-15.5,2.2-22.4c-2.1-19.6-9.3-34.2-22.3-44.9c-4.4-3.7-4.9-3.9-8.3-6
	C201.4,197.5,201.2,197.4,194.9,199.6 M63.5,223.1c0.8,1.1,3.6,3.6,5.1,4.6l1.3,0.8l-0.7-0.9c-0.4-0.6-0.9-0.9-1.2-0.9
	c-0.3,0-1.2-0.8-2.1-1.6C64,223.1,62.7,222.1,63.5,223.1 M87.5,224.8c0.2,0.5,0.7,0.6,0.8,0.1c0-0.2-0.2-0.4-0.4-0.4
	C87.5,224.5,87.4,224.6,87.5,224.8 M94.7,228.6c0,0.3-0.9,0.7-1.5,0.7c-0.2,0-0.4-0.2-0.4-0.5c0-0.3,0.4-0.5,0.9-0.5
	C94.4,228.3,94.7,228.4,94.7,228.6 M91.1,229.1c-0.3,0.3-0.3,0.7-0.1,0.8c0.2,0.1,0.5-0.1,0.6-0.4C91.9,228.6,91.6,228.4,91.1,229.1
	 M213.4,232.8c2.3,2.6,2.3,3.1,0,0.7c-0.8-0.9-1.4-1.7-1.2-1.7C212.3,231.8,212.9,232.3,213.4,232.8 M273.6,237.7
	c0,0.8,0.1,1,0.2,0.7c0.1-0.4,0.1-0.9,0-1.3S273.6,237,273.6,237.7 M148.3,240.5c-0.2,0.6,0.1,0.9,0.7,1.3c1.5,1,1.8,0.5,0.4-1.1
	C148.5,239.8,148.5,239.8,148.3,240.5 M274,241.8c0,0.8,0.1,1,0.2,0.7c0.1-0.4,0.1-0.9,0-1.3C274.1,240.7,274,241,274,241.8
	 M274.4,248.7c0,0.9,0.1,1.3,0.2,0.8c0.1-0.5,0.1-1.2,0-1.7C274.5,247.4,274.4,247.8,274.4,248.7 M241.3,283.3
	c-2.8,2.3-4,3.4-3.9,3.6c0.1,0.1,0.9-0.5,1.8-1.2s2-1.7,2.4-2.1c0.5-0.4,0.8-0.7,0.8-0.8C242.2,282.6,241.7,282.9,241.3,283.3
	 M221.6,290.7c-0.1,0.8-0.9,2.2-0.9,1.4c0-0.4,0.8-2.3,0.9-2.3C221.6,289.9,221.7,290.3,221.6,290.7 M216.5,345.4
	c0.4,0.3,0.8,0.5,0.9,0.4c0.2-0.2-0.7-0.8-1.2-0.8C215.9,345,216.1,345.1,216.5,345.4 M194,348.1c0.8,0.3,0.4,0.8-0.6,0.7
	c-0.4-0.1-0.8,0-0.8,0.2s0.2,0.4,0.4,0.4c0.2,0,0.4,0.2,0.4,0.4s-0.3,0.4-0.6,0.4c-0.3,0-0.6-0.2-0.6-0.4s-0.3-0.3-0.6-0.2
	c-0.8,0.4-0.3-0.8,0.7-1.2c0.5-0.2,0.8-0.5,0.8-0.5C193.4,347.9,193.7,348,194,348.1 M206,350.9c0,0.5-0.8,0.2-1-0.4
	c-0.1-0.3,0.1-0.4,0.5-0.2C205.7,350.4,206,350.7,206,350.9"/>
<path id="path2" class="st2" d="M227.6,63.1c-0.3,0.2-0.3,0.4,0,0.5c0.3,0.1,0.5,0.8,0.5,1.3c0,0.8-0.1,1-0.3,0.7
	c-0.2-0.3-0.5-0.4-0.8-0.3c-0.3,0.2-0.3,0.4,0,0.8c0.2,0.3,0.3,0.7,0.2,0.8c-0.1,0.2-0.1,0.4,0.1,0.4c2.5,0,14.2,10.3,19.3,17.1
	c1.1,1.5,1.9,2.2,2.3,2.1c0.3-0.1,0.6,0,0.6,0.2s-0.2,0.3-0.4,0.2c-0.6-0.4-0.5,0,0.9,2.3c1.1,2,2.3,3,1.3,1.2
	c-0.2-0.4-0.3-0.9-0.2-1.2c0.1-0.4,0-0.5-0.4-0.3c-0.4,0.1-0.6,0.1-0.6-0.1s0.3-0.4,0.6-0.4c0.3,0,0.6-0.2,0.6-0.4
	c0-0.2,0.2-0.4,0.4-0.4c0.2,0,0.3,0.4,0.2,0.8c-0.2,0.8-0.2,0.8,0.4,0.1c0.3-0.4,0.6-0.5,0.6-0.3c0,0.3,0.3,0.5,0.6,0.5
	c0.3,0,0.5-0.2,0.3-0.6c-0.1-0.3,0-0.6,0.2-0.6s0.4-0.3,0.4-0.6c0-0.7,0.3-0.7,1.1-0.2c0.6,0.4,1.8-0.1,2.3-0.8
	c0.2-0.3,0.3-0.2,0.3,0.3c0,0.4-0.3,0.7-0.6,0.7s-0.6,0.2-0.6,0.4c0,0.2,0.2,0.4,0.4,0.4c0.2,0,0.6,0.1,0.9,0.2
	c0.5,0.2,0.6,0.1,0.4-0.5c-0.2-0.6-0.2-0.6,0.7,0.1c1,0.9,2.1,0.3,1.7-0.9c-0.1-0.4,0-0.8,0.4-0.8c0.4-0.2,0.5,0,0.3,0.5
	c-0.4,1.1,0.4,1.2,1.2,0.1c0.7-0.8,0.8-0.9,0.8-0.3c0,0.4-0.3,0.9-0.7,1.2c-0.6,0.5-0.6,0.5,0.2,0.1c0.6-0.3,0.8-0.3,1,0
	c0.1,0.2,0.4,0.3,0.6,0.2c0.2-0.1,0.3-0.4,0.1-0.6c-0.1-0.2,0-0.4,0.2-0.4c0.2,0,0.4-0.4,0.4-0.8c0-0.7,0.1-0.8,0.6-0.3
	c1,0.8,3.9,0.3,3.1-0.6c-0.3-0.4-0.3-0.6,0.2-0.7c0.3-0.1,0.6,0,0.7,0.2c0.3,0.9,1.5-0.2,1.2-1.2c-0.3-1.2,0-2.2,0.6-2.2
	c0.2,0,0.2,0.2-0.1,0.6c-0.6,0.7-0.1,0.8,0.6,0c0.6-0.6,0.8-1.1,0.2-0.8c-0.5,0.3-0.9-0.6-0.5-0.8c0.8-0.6,0.9-1.9,0-2.3
	c-0.5-0.2-0.9-0.2-0.9,0c-0.3,0.7-1,0.3-1.5-0.7c-0.3-0.5-0.6-0.8-0.8-0.8c-0.2,0.1-0.6-0.1-0.8-0.6c-0.6-0.8-1.6-1.4-5-3.1
	c-1.1-0.6-2.9-1.6-3.9-2.3s-2.2-1.2-2.4-1.2s-0.6-0.3-0.6-0.6s0.2-0.6,0.4-0.6c0.2,0,0.4,0.2,0.4,0.4c0,0.2,0.3,0.3,0.7,0.2
	c0.8-0.2,1.7,0.3,1.5,0.8c-0.1,0.2,0.3,0.4,0.8,0.4c0.5,0,1.2,0.2,1.7,0.3c0.4,0.2,0.1-0.2-0.8-0.7c-2.3-1.4-8.2-3.4-8.7-2.8
	c-0.4,0.4-0.2,0.4,0.5,0.2c0.6-0.2,0.8-0.1,0.7,0.1c-0.2,0.3,0,0.3,0.3,0.2c0.3-0.1,0.6-0.1,0.6,0.2c0,0.2,0.3,0.3,0.7,0.2
	c0.5-0.1,0.7,0,0.7,0.4c0,0.7-0.8,0.8-1.1,0.2c-0.1-0.2-0.6-0.3-0.9-0.3s-1.3-0.2-2.1-0.6c-0.8-0.4-1.8-0.7-2.3-0.7
	c-0.6,0-1.2-0.4-1.6-0.8S246,65,245.7,65c-0.4,0-0.8-0.3-1.2-0.6C242.8,63.6,228.9,62,227.6,63.1 M97.3,76
	c-17.8,12.5-24.3,42.3-13.8,62.6c4.6,8.9,14.9,20.4,14.9,16.6c0-0.4-0.2-0.5-0.8-0.3c-0.5,0.2-0.8,0.1-0.8-0.3
	c0-0.8,2.9-0.7,2.9,0.1c0,0.5,0.1,0.5,0.5-0.1c0.3-0.4,0.8-0.7,1.2-0.7c0.6,0,0.6,0.1,0.2,0.4c-0.3,0.2-0.4,0.4-0.2,0.4
	c0.8,0,1.7-1,1.4-1.6c-0.3-0.8,0.2-0.8,1.1-0.1c0.8,0.5,3.2,1,2.9,0.6c-0.1-0.1,0.2-0.5,0.6-0.7c0.5-0.3,0.8-0.3,0.8-0.1
	c0,0.2,0.2,0.4,0.4,0.4s0.3-0.3,0.2-0.6c-0.2-0.4,0-0.7,0.6-0.8c0.6-0.2,0.7-0.3,0.3-0.5c-0.4-0.2-0.3-0.3,0.3-0.3
	c0.5,0,0.9-0.4,1.3-0.9c0.4-0.8,0.7-0.9,1.5-0.8c0.8,0.2,1,0,1.2-0.5c0.1-0.4,0.4-0.7,0.6-0.7s0.6-0.2,0.8-0.6
	c0.5-0.7,0.6-0.7,1.1-0.1c0.3,0.3,0.7,0.6,0.8,0.6c0.3,0,0.8-2.3,0.7-2.7c-0.1-0.2,0.1-0.2,0.4,0.1c0.3,0.3,0.7,0.5,0.8,0.5
	c0.2,0,0.2-0.2-0.1-0.4c-0.5-0.3-0.5-0.4,0.1-0.9c0.7-0.7,0.8-1.1,0.3-1.5c-0.2-0.1-0.3-0.4-0.2-0.6c0.1-0.2,0-0.6-0.2-0.8
	c-0.3-0.4-0.3-0.6,0-0.6s0.4-0.5,0.3-1.3c-0.1-0.9,0-1.3,0.4-1.3c0.3,0,0.5-0.2,0.4-0.5c-0.1-0.3-0.5-0.5-0.8-0.4
	c-0.4,0-0.5-0.1-0.4-0.4c0.2-0.3,0-0.3-0.4-0.2c-0.4,0.2-0.6,0.1-0.4-0.3c0.2-0.6,1.3-0.6,1.7,0c0.2,0.2,0.2-0.1,0.1-0.7
	c-0.4-1.7,1.1-3.2,1.8-1.7c0.2,0.4,0.3,0.4,0.6,0s0.5-0.4,0.6-0.1c0.1,0.2,0.5,0.4,0.7,0.4c0.3,0-0.1-0.3-0.7-0.8
	c-0.6-0.4-1.2-0.7-1.4-0.6s-0.3,0.1-0.2-0.1s-2.1-2.4-4.7-5.1c-2.6-2.6-5.4-5.7-6-6.9c-0.8-1.1-2.3-3.6-3.6-5.4
	c-1.2-1.8-2.7-4.1-3.3-5.3c-0.6-1.1-1.1-2-1.2-1.9c-0.2,0.1-0.3,0-0.3-0.3c0-1.2-0.1-1.8-0.6-1.5c-0.3,0.2-0.3,0.1-0.2-0.2
	c0.1-0.2-0.2-1.8-0.8-3.5C98,96.2,97.5,88.7,99,81.7c0.2-0.8,0.1-0.8-0.2-0.4c-0.4,0.5-0.4,0.5-0.2-0.1c0.1-0.4,0.2-0.8,0.2-1.1
	c0-0.3,0.2-0.2,0.4,0.1c0.3,0.4,0.4,0.2,0.3-0.8c0-0.7,0.1-2.2,0.2-3.2c0.1-1,0.2-2,0.1-2C99.7,74.4,98.6,75.1,97.3,76 M271.9,82.5
	c-0.8,0.6-0.4,1.5,0.4,1.2c0.4-0.1,0.5,0.1,0.5,0.6c0,0.4-0.3,0.8-0.6,0.9c-0.5,0.2-0.5,0.3-0.1,0.6c0.9,0.6,1.2,0.1,1.9-3.2
	C274.2,82.1,272.6,82.1,271.9,82.5 M116.2,99.4c-0.4,0.3-1.2,0.6-1.9,0.6c-4.8,0.1,4.1,19.9,12,26.9c4.9,4.2,13,8.6,16.9,9.3
	c0.3,0,0.6,0.2,0.8,0.3c1.5,0.8,6.7,1.5,6.9,0.9c0.1-0.3,1.4-0.4,3.6-0.4c1.9,0,3.7-0.1,3.9-0.3c0.3-0.2,0.5-0.1,0.5,0.1
	c0,0.2,0.7,0.4,1.4,0.5c0.8,0,1.8,0.2,2.3,0.3c1.3,0.4,4-0.6,4-1.4c0-1.3,1-1.7,1.9-0.6c0.9,1.1,1.4,1.2,1.1,0.2
	c-0.2-0.6-0.1-0.8,0.3-0.5c0.4,0.2,0.4,0.1,0.3-0.3c-0.3-0.8-0.2-0.8,0.8,0.1c0.9,0.8,1.8,1,1.1,0.2c-0.5-0.6,0.4-1.1,1.3-1
	c0.3,0,0.5-0.2,0.5-0.5c0-0.4,0.4-0.5,1.1-0.4c0.9,0.1,1,0.1,0.8-0.5c-0.2-0.5-0.1-0.6,0.5-0.5c0.4,0.1,0.7,0.3,0.7,0.6
	c0,0.2,0.5,0.1,1.2-0.2c1.1-0.6,1.8-1.2,1-1.1c-0.8,0.1-0.9-0.1-0.5-0.4c0.4-0.2,0.8-0.1,1.1,0.4s0.9,0.7,1.6,0.6
	c1.3-0.2,1.5-0.4,0.8-0.9c-0.6-0.5-0.6-0.5-0.4,0.1c0.3,0.8-0.2,0.8-0.8,0.2c-0.3-0.4-0.2-0.6,0.3-0.9c0.6-0.4,0.8-0.3,0.8,0
	c0.1,0.3,0.3,0.3,0.6-0.1c0.3-0.4,0.4-0.4,0.4-0.1c0,0.3,0.3,0.4,0.7,0.2c0.6-0.2,0.6-0.2,0,0.8c-0.8,1.2-0.8,1.4-0.1,1.4
	c0.4,0,0.5-0.2,0.4-0.5c-0.1-0.3,0-0.8,0.3-1.1s0.4-0.9,0.3-1.2c-0.3-0.7,0.2-0.7,0.8,0c0.3,0.3,0.4,0.8,0.3,1.2
	c-0.2,0.6-0.2,0.6,0.5-0.1c0.7-0.7,0.8-0.8,0.2-1.2c-0.6-0.5-0.5-0.5,0.4-0.4c0.7,0.1,1.1,0,1.4-0.6c0.4-0.6,0.6-0.7,1-0.2
	c0.5,0.4,0.6,0.4,0.3,0c-0.2-0.3-0.1-0.5,0.2-0.5c0.3,0,0.4-0.2,0.2-0.6c-0.1-0.3,0.2-0.8,0.8-1.1c0.9-0.7,0.9-0.7,0.4,0.1
	c-0.9,1-0.8,1.2,0.5,0.6c0.6-0.4,1-0.8,0.9-1c-0.1-0.2,0-0.7,0.2-0.9c0.2-0.3,0.4-0.4,0.4-0.2c0,0.2,0.5,0.4,0.9,0.4
	c0.8,0,0.8,0,0.5-0.5c-0.2-0.3-0.3-0.6-0.1-0.6c0.4-0.1,1.5-0.2,2.7-0.3c0.8-0.1,0.8-0.1,0.4-0.5c-0.4-0.3-0.5-0.4-0.1-0.4
	c0.7,0,1.3-0.8,1.3-1.5c0-0.3,0.3-0.6,0.7-0.5c0.4,0,0.7-0.2,0.7-0.5s0.2-0.5,0.4-0.3c0.2,0.1,0.4,0.6,0.4,0.9c0,1,0.6,0.8,1-0.5
	c0.4-1,0.5-1.1,1-0.6c0.3,0.3,0.8,0.6,1,0.6c0.3,0,0-0.4-0.6-0.8c-0.8-0.7-0.8-0.9-0.5-1.1c0.8-0.3,0.2-1-0.7-0.8
	c-0.9,0.3-3.7-0.2-3.5-0.6c0.1-0.2,0.5-0.2,0.8-0.1c0.4,0.2,0.6,0.1,0.4-0.3c-0.2-0.6-2.5-0.8-2.5-0.3c0,0.2,0.2,0.3,0.4,0.3
	c0.2,0,0.4,0.2,0.4,0.4c0,0.7-1,0.4-1.3-0.4c-0.1-0.4-0.4-0.7-0.6-0.5c-0.3,0.2-0.3,0.4,0,0.7c1,1-0.1,1.4-1.3,0.5
	c-0.7-0.6-0.7-0.6,0-0.3c0.5,0.2,0.7,0.1,0.6-0.3c-0.1-0.3-0.4-0.6-0.7-0.6c-0.3,0-0.6-0.1-0.7-0.1c-0.3-0.2-2.7-0.3-12.9-0.6
	c-5.4-0.2-9.9-0.4-10.2-0.6c-0.2-0.2-3.6-0.3-7.4-0.3s-7-0.1-6.9-0.2c0.1-0.2-1.5-0.3-3.6-0.2l-3.9,0.1l1.3-1.2
	c0.8-0.7,0.9-0.9,0.5-0.6c-1.2,1-1,0.1,0.3-1.1c2.9-2.7,5.3-6.7,3.2-5.5c-0.6,0.4-13,0.2-14.8-0.2c-0.8-0.2-3-0.7-4.8-0.9
	c-1.8-0.4-4.7-1.1-6.4-1.7c-1.7-0.6-3.8-1.2-4.4-1.4c-0.7-0.2-1.5-0.6-1.9-0.9c-0.4-0.3-0.9-0.6-1.4-0.6c-0.4,0-1.1-0.4-1.6-0.8
	c-0.5-0.5-0.9-0.7-1-0.6c-0.1,0.1-0.6,0-1-0.3C117,99.1,116.7,99,116.2,99.4 M271.5,114.7c-0.9,2.3-3,6.9-4.6,10.2
	c-1.6,3.5-2.9,6.3-2.9,6.4c0,0.1-0.8,1.9-1.9,4c-1,2.2-1.9,3.9-1.9,4.1c0,0.2-0.9,2.2-2,4.4c-1.1,2.3-1.9,4.4-1.8,4.6
	c0.1,0.2,0.1,0.3-0.2,0.2c-0.5-0.3-0.9,0.8-0.6,1.3c0.1,0.2,0.1,0.3-0.2,0.2c-0.2-0.1-0.5,0.1-0.7,0.5c-0.1,0.4-1,2.3-2.1,4.1
	c-1,1.9-1.9,3.7-1.9,4c0,0.4-0.1,0.6-0.3,0.5c-0.4-0.3-2.5,3.3-2.5,4.2c0,0.4-0.1,0.7-0.3,0.6c-0.7-0.4-0.2,1.4,0.6,2
	c0.6,0.5,0.7,0.8,0.4,1.3c-0.3,0.5-0.3,0.8,0,0.8c0.2,0.1,0.5,0.4,0.5,0.7c0,0.3,0.3,0.6,0.7,0.7c0.5,0.1,0.4,0.2-0.3,0.2
	c-0.8,0-0.9,0.2-0.8,1.4c0,0.8-0.2,1.6-0.4,1.9c-0.3,0.5-0.3,0.5,0.3,0.3c0.4-0.1,0.8-0.3,1-0.3c0.2,0,0.3-0.2,0.1-0.4
	c-0.1-0.2,0.3-0.2,0.9,0c0.7,0.2,1.1,0.5,1.1,0.7c0,0.2,0.8,0.2,1.7,0.2c0.9-0.1,1.8,0.1,1.9,0.3c0.4,0.6,0.9,0.4,0.9-0.3
	c0-0.6,0.1-0.6,0.8,0c0.7,0.6,0.8,0.6,1.1-0.2c0.4-0.7,0.5-0.8,0.8-0.3c0.3,0.5,0.5,0.2,0.4-0.6c0-0.2,0.3-0.2,0.7-0.1
	c0.4,0.1,0.8,0.1,0.9-0.2c0.1-0.2,0.5-0.3,0.7-0.2c0.4,0.2,0.4,0.1,0-0.2c-0.7-0.7,0.4-1.6,1.4-1.3c0.6,0.2,0.7,0.1,0.6-0.2
	c-0.2-0.2-0.1-0.7,0.2-0.9s0.4-0.6,0.2-0.6c-0.2,0,0-0.2,0.2-0.5c0.3-0.3,0.8-0.5,1.3-0.4c0.6,0.1,0.8-0.1,0.7-0.4
	c-0.1-0.3,0-0.5,0.3-0.5c1.3,0,1.6-0.1,1.4-0.8c-0.1-0.6,0-0.8,0.4-0.8c0.4,0,0.5-0.2,0.4-0.4s0-0.4,0.4-0.4c0.8,0,0.8,0.6-0.1,1
	c-0.5,0.3-0.6,0.5-0.2,0.8c0.3,0.3,0.5,0.3,0.5,0.1c0-1.1,1.9-2.4,2.6-1.8c0.5,0.4,0.8,0.5,0.8,0.2s0.2-0.4,0.4-0.2
	c0.2,0.2,0.4,0.1,0.4-0.2s0.3-0.3,0.9,0c0.7,0.3,0.8,0.3,0.7,0c-0.3-0.5,0.9-1.4,1.9-1.4c0.5,0,0.8-0.1,0.9-0.3
	c0.1-0.2,0.1-0.1,0,0.2c-0.2,0.9,0.6,0.8,1.4-0.3c0.5-0.7,1.2-1.3,1.6-1.4c0.4-0.2,0.8-0.7,0.8-1.1c0-0.5,0.2-0.9,0.5-0.9
	c0.2-0.1,0.3-0.4,0.1-0.8c-0.2-0.5-0.1-0.6,0.4-0.4c0.5,0.2,0.7,0,0.7-0.5c0-0.4,0.2-0.8,0.4-0.9c0.2-0.1,0.5-0.7,0.6-1.3
	c0.2-0.8,0.4-1,0.8-0.8c0.5,0.2,0.8-0.3,0.6-1.1c0-0.2,0.2-0.1,0.6,0.2c0.5,0.4,0.7,0.4,0.8,0.1c0.1-0.3,0.3-0.4,0.5-0.3
	s0.2,0.4-0.1,0.8c-0.3,0.3-0.3,0.5-0.1,0.5c2.3-0.1,2.1-5.9-0.6-13.6c-1-3.2-1.9-5.9-1.9-6c0.2-0.8-0.1-1.6-0.4-1.4
	c-0.2,0.1-0.4,0-0.3-0.3c0.2-1.1,0-1.8-0.5-1.6c-0.3,0.2-0.4,0.1-0.2-0.3c0.3-0.7-2.4-7-2.8-6.7c-0.2,0.2-0.2,0,0-0.4
	c0.1-0.4,0.1-0.7-0.1-0.7c-0.2,0-0.5-0.3-0.6-0.6s-0.1-0.5,0.1-0.4c0.2,0.1,0.2-0.3-0.1-0.8c-0.2-0.6-0.6-1-0.7-0.9
	c-0.4,0.2-0.9-1.3-1-2.9c0-0.4-0.2-0.6-0.5-0.4s-0.3,0.1-0.2-0.1c0.4-0.6-0.1-1.6-0.6-1.3c-0.3,0.2-0.3,0-0.2-0.4
	c0.1-0.4,0.1-0.7-0.2-0.7c-0.2,0-0.3-0.3-0.2-0.6c0.1-0.3,0.1-0.5-0.1-0.4c-0.2,0.1-0.8-0.8-1.3-2C273.5,110,273.5,110,271.5,114.7
	 M200.5,117.2c0,0.2,0.3,0.5,0.6,0.6c0.4,0.1,0.6,0.1,0.5-0.2C201.3,117,200.5,116.7,200.5,117.2 M203.2,117.3
	c-0.2,0.3-0.1,0.4,0,0.2c0.2-0.2,0.6-0.1,0.8,0.2c0.5,0.4,0.6,0.4,0.4-0.1C204.2,116.9,203.6,116.7,203.2,117.3 M204.9,117.3
	c0,0.2,0.4,0.3,0.8,0.2s1,0,1.3,0.3c0.4,0.3,0.4,0.2,0.3-0.2C207,116.8,204.9,116.6,204.9,117.3 M205.5,118.6
	c-0.2,0.7-0.4,0.8-0.8,0.4c-0.7-0.6-1.3,0-1,0.9c0.2,0.4,0.5,0.6,0.9,0.5c0.4-0.1,0.8-0.1,0.8,0.1c0.1,0.1,0.1,0,0-0.3
	c-0.1-0.3,0.1-0.8,0.3-1c0.2-0.3,0.4-0.7,0.3-0.9C205.8,118.1,205.7,118.2,205.5,118.6 M206.4,119.3c0,1,0.7,1.6,1.2,0.9
	c0.3-0.3,0.3-0.4,0-0.4c-0.3,0-0.5-0.4-0.5-0.8s-0.2-0.8-0.4-0.8C206.5,118.3,206.4,118.8,206.4,119.3 M196.6,123.5
	c0,0.3-0.2,0.6-0.5,0.7c-0.4,0.1-0.4,0-0.2-0.3c0.2-0.3,0.1-0.6-0.2-0.8c-0.4-0.3-0.4-0.3,0.2-0.2
	C196.4,122.9,196.6,123.2,196.6,123.5 M151.7,137.9c0,0.4,2.3,0.4,2.9-0.1c0.4-0.2,0-0.3-1.2-0.3
	C152.5,137.6,151.7,137.8,151.7,137.9 M155.6,137.9c0.1,0.2,0.6,0.3,1,0.3s0.9-0.1,1-0.3c0.1-0.2-0.4-0.3-1-0.3
	C155.9,137.6,155.5,137.7,155.6,137.9 M42.1,151.9c-0.1,1-0.3,3.4-0.4,5.3c-0.2,3.7,0.1,1.8,0.8-4.3
	C42.8,149.6,42.5,148.9,42.1,151.9 M107,152.9c-0.1,0.2-0.4,0.3-0.8,0.3c-0.4,0-0.5-0.2-0.3-0.4c0.1-0.2,0.1-0.4-0.2-0.4
	c-0.2,0-0.4-0.2-0.4-0.4c0-0.2,0.4-0.2,0.8,0.1C106.8,152.5,107.1,152.8,107,152.9 M99.7,158.2c2.3,2.2,6.3,5.1,4.6,3.5
	c-0.5-0.5-1.5-1.3-2.3-2c-0.8-0.6-1.3-1.2-1.1-1.4c0.1-0.2,0.1-0.3-0.2-0.2c-0.2,0.1-0.8-0.4-1.5-0.9c-0.7-0.6-1.2-1-1.4-1
	C97.7,156.2,98.5,157.2,99.7,158.2 M44.7,158.4c-0.2,0.6,0,1.2,0.3,1.8c0.6,0.8,0.1,3.4-0.7,3.4c-0.2,0-0.3,0.3-0.1,0.6
	c0.2,0.5,0.1,0.6-1.1,0.7c-0.8,0.1-1.2,12.7-0.7,16.9c0.3,2,0.4,2.1,0.6,1.1c0.3-1,0.3-1,0.3-0.2c0,0.5,0.2,1.3,0.3,1.9
	c0.2,0.8,0.1,0.8-0.2,0.4c-0.5-0.6-0.4,0,0.5,4c0.4,1.7,0.5,1.9,0.7,1.1c0.2-0.6,0.3-0.3,0.3,1.1c0,1.3,0.5,3.1,1.1,5.1
	c0.7,1.7,1.1,3.1,1.1,3.2c0,0.1,0.2,0.1,0.4-0.1c0.3-0.2,0.3,0,0.2,0.5c-0.4,1.2,6,12.9,8.2,14.8c0.6,0.5,0.8,0.8,0.5,0.6
	c-0.7-0.4,1,2,3.9,5.3c1.8,2.2,6.9,6.8,6.2,5.7c-0.2-0.3-0.1-0.5,0.1-0.5c0.2,0,0.4,0.2,0.4,0.4c0,0.2,0.4,0.5,0.8,0.6
	c0.5,0.1,1.1,0.7,1.5,1.2c0.8,0.9,0.8,0.9,0,0.5c-0.7-0.5-0.7-0.5-0.2,0.1c0.4,0.4,0.8,0.6,1.3,0.5c0.6-0.2,0.7-0.1,0.3,0.1
	c-0.4,0.3-0.1,0.7,1.2,1.5c0.9,0.7,1.6,1,1.5,0.8c-0.5-0.8,3.4,1,4.8,2.2c0.3,0.2,0.6,0.4,0.8,0.3c0.7-0.1,2,0.5,1.8,0.8
	c-0.1,0.2-0.1,0.4,0.1,0.4s0.8,0.1,1.6,0.2c1.3,0.2,1.7,0.4,1.7,1s5.2,0.7,5.9,0c0.5-0.5,0.6-0.5,0.4,0.4c-0.1,0.8,0,0.9,0.6,0.9
	c0.4,0,0.8-0.2,0.8-0.4c0-0.2-0.2-0.3-0.4-0.2c-0.2,0.1-0.4,0.1-0.4-0.2c0-0.2,0.2-0.4,0.5-0.4c0.3,0,0.8-0.3,0.9-0.6
	c0.3-0.4,0.3-0.6,0.1-0.6c-0.2,0-0.5,0.2-0.7,0.4c-0.4,0.6-0.7,0.5-1.4-0.7l-0.8-1l0.8,0.7c1.2,1,4.1-1.1,3-2.3
	c-0.3-0.3-0.3-0.5,0-0.7c0.5-0.3,0.1-1.3-0.6-1.3c-0.3,0-0.5-0.2-0.5-0.4c0-0.2,0.3-0.3,0.6-0.2c0.4,0.1,0.2-0.3-0.4-1
	c-0.8-1-0.8-1.4-0.6-2.1c0.4-0.7,0.4-0.8,0-0.5c-0.4,0.2-0.4,0.1-0.2-0.3c0.1-0.4,0.2-0.6,0-0.6c-0.4,0-1.2,1-1.2,1.5
	c0,0.2-0.2,0.3-0.4,0.2c-0.2-0.1-0.4-0.6-0.4-0.9s-0.5-1.2-1.1-1.9c-0.6-0.7-1.1-0.9-1.1-0.7c0,0.4-0.1,0.4-0.6,0.1
	c-0.3-0.3-0.6-0.7-0.6-0.9s-0.3-0.8-0.8-1.3c-0.4-0.5-0.7-0.9-0.6-1c0.1-0.2,0-0.4-0.2-0.5s-0.5,0-0.6,0.2c-0.4,0.6-0.8,0.5-1.3-0.4
	c-0.3-0.6-0.3-0.7,0.2-0.5c0.4,0.2,0.5,0.1,0.4-0.4c-0.2-0.4-0.5-0.6-0.9-0.4s-0.8,0-0.9-0.5c-0.4-0.9-0.8-1.1-1.9-1
	c-0.8,0.1-0.9,0.1-0.3-0.4c0.8-0.6-0.2-1.4-1.3-1.2c-0.3,0.1-0.5-0.1-0.4-0.3c0-0.2-1.2-1.4-2.8-2.7c-3.3-2.5-10.1-9.5-12.5-12.8
	c-1.5-2-2.5-3.5-5.6-8.4c-3.9-6.1-8.4-18.6-10.3-28.5c-0.5-2.3-0.8-3.9-0.9-3.5c-0.1,0.5-0.2,0.4-0.3-0.4
	C45,157.4,45,157.4,44.7,158.4 M41.3,166.3c0,2,0.1,2.8,0.1,1.7c0.1-1,0.1-2.7,0-3.7C41.4,163.4,41.3,164.3,41.3,166.3 M273.7,163.6
	c-0.4,0.2-0.8,0.6-0.9,0.8c-0.1,0.2-0.5,0.2-0.7,0.1c-0.3-0.2-0.1-0.5,0.6-0.8C274,163.1,274.7,163.1,273.7,163.6 M247.1,170.1
	c0,0.7,0.1,0.8,0.5,0.5c0.4-0.4,0.4-0.6,0-0.8C247.2,169.4,247.1,169.5,247.1,170.1 M41.6,174c0,1,0.1,1.4,0.2,0.8
	c0.1-0.6,0.1-1.4,0-1.9C41.7,172.6,41.6,173,41.6,174 M42.5,178.1c-0.1,0.4-0.2,0.1-0.2-0.7s0.1-1,0.2-0.7
	C42.6,177.2,42.6,177.7,42.5,178.1 M199.4,198.8c-5.2,1.7-9.7,3-11.2,3.3c-3.6,0.6-8.1,1.5-9.2,1.9c-0.7,0.2-1.5,0.4-2,0.4
	s-1.6,0.3-2.4,0.6c-0.8,0.3-1.8,0.5-2,0.3c-0.3-0.2-0.3-0.1-0.1,0.2c0.2,0.2,0.1,0.5,0,0.5c-0.2,0-0.4,0.5-0.4,1.1
	c0,0.7,0.1,1,0.3,0.9c0.2-0.1,0.3,0,0.2,0.3c-0.1,0.3-0.6,0.6-0.9,0.6c-3.9,0.3,3.7,4.7,17.8,10.3c8.9,3.6,9.4,3.8,13.3,6
	c1.4,0.8,2.6,1.5,2.7,1.5c0.1,0,0.4,0.3,0.7,0.7s0.7,0.7,0.9,0.7c0.3,0,1.2,0.8,2.3,1.7c0.9,0.9,2,1.5,2.2,1.4
	c0.2-0.1,0.3-0.1,0.2,0.1c-0.1,0.2,0.7,1.2,1.9,2.3c1.5,1.4,1.8,1.7,1.2,0.8c-0.5-0.7-1.2-1.5-1.7-1.9c-0.5-0.4-0.9-0.8-0.9-0.9
	c0-0.2,0.2-0.1,0.6,0.2s0.9,0.5,1.5,0.7c0.6,0.1,1.2,0.5,1.4,0.8c0.3,0.4,0.8,0.6,1.4,0.4c0.6-0.1,0.9,0,0.9,0.1
	c0,0.2,0.4,0.5,0.9,0.8c0.5,0.2,0.9,0.7,0.9,0.9c0,0.3,0.3,0.5,0.6,0.5c0.4,0,0.5-0.2,0.4-0.8c-0.2-0.7-0.2-0.8,0.6-0.4
	c0.7,0.4,0.8,0.4,1.1,0c0.2-0.4,0.6-0.3,1.4,0.1c0.9,0.5,1.2,0.5,1.3,0.1c0.3-0.8,1.3-0.9,2.2-0.4c0.8,0.5,0.8,0.5,1.1-0.3
	c0.5-1.6,1.8-2,2.4-0.8c0.4,0.7,1.2,0.7,1.4,0.1c0.1-0.3,0.6-0.2,1.4,0.5c0.7,0.5,1.1,0.7,0.9,0.4c-0.2-0.3-0.1-0.6,0.2-0.8
	c0.3-0.2,0.4-0.5,0.2-0.6c-0.2-0.2-0.4-0.1-0.6,0.2c-0.2,0.3-0.4,0.4-0.6,0.1c-0.1-0.2,0-0.5,0.2-0.6c0.4-0.2,0.4-0.3,0-0.5
	c-0.3-0.2-0.5-0.7-0.5-1c-0.1-1.7-0.2-2.3-0.5-2.3c-0.2,0-0.3-0.4-0.2-0.8c0.1-0.9-0.6-2.8-1-2.8c-0.3,0-0.6-0.6-0.9-2
	c-0.8-3.1-8.8-11.5-16-16.7c-1.9-1.4-8.9-5.4-9.8-5.5c-0.4-0.1-0.8-0.2-0.9-0.3c-0.5-0.5-1.9-1.1-2.3-1.1c-0.3,0-0.6-0.2-0.6-0.4
	C201.2,198.3,200.7,198.3,199.4,198.8 M65.4,224.6l0.8,1l-1.1-0.9c-1.4-1.1-2.4-2.6-1.3-1.8C64.3,223.4,65,224.1,65.4,224.6
	 M88.2,224.9c0,0.5-0.6,0.4-0.8-0.1c-0.1-0.3,0.1-0.4,0.3-0.3C88,224.6,88.2,224.8,88.2,224.9 M93,228.8c0,0.6,0.4,0.7,1.2,0.3
	c0.8-0.4,0.7-0.7-0.4-0.8C93.2,228.2,93,228.4,93,228.8 M91.6,229.3c-0.1,0.4-0.4,0.5-0.6,0.4s-0.2-0.5,0.1-0.8
	C91.6,228.4,91.9,228.6,91.6,229.3 M217.4,238.5c0.5,0.6,0.8,1.1,0.9,1.1s-0.2-0.5-0.6-1.1c-0.5-0.6-0.8-1.1-0.9-1.1
	C216.7,237.3,216.9,237.8,217.4,238.5 M271.4,259.5c-0.7,0.5-1.4,0.8-1.6,0.7c-0.2-0.1-0.3-0.1-0.1,0.1c0.2,0.2-0.3,0.8-0.9,1.5
	c-1.2,1.3-2.3,1.7-1.3,0.6c0.4-0.6,0.4-0.6-0.3,0.1c-0.5,0.4-0.8,0.8-0.6,1c0.1,0.2,0.1,0.3-0.2,0.1c-0.4-0.3-9.6,7-9.6,7.5
	c0,0.2-0.1,0.3-0.3,0.2c-0.3-0.1-11.2,8.4-14.2,11.1c-0.7,0.6-0.8,0.8-0.5,0.5c0.9-0.8,0.8-0.1-0.2,0.8c-0.9,0.8-1.5,0.9-1.1,0.3
	c0.2-0.3,0.1-0.3-0.4,0.1c-0.4,0.3-0.6,0.6-0.5,0.8c0.3,0.3-1.7,2.3-2.2,2.3c-0.2,0-0.1-0.3,0.2-0.7c0.3-0.4-0.3-0.1-1.2,0.6
	c-0.9,0.7-1.8,1.3-1.8,1.5s-3.4,3.3-7.6,6.9c-13.5,11.7-21.1,20.3-30.1,33.8c-2.1,3.1-3.7,5.8-3.5,6c0.2,0.2,0.1,0.3-0.1,0.1
	c-0.5-0.5-3.8,5.3-3.6,6.2c0.1,0.6-0.8,1.9-1.2,1.8c-0.2,0-0.4,0.8-0.5,1.8c-0.1,1.6-0.1,1.7,0.5,1.3c0.4-0.3,0.6-0.4,0.6-0.1
	c0,0.2,0.3,0.4,0.6,0.4c0.3,0,0.6,0.2,0.6,0.5c0,0.4,0.1,0.4,0.3,0c0.2-0.3,0.5-0.3,0.8-0.1c0.3,0.2,0.4,0.5,0.3,0.8
	c-0.4,0.6,0.5,0.5,1.1-0.2c0.8-0.8,2.1-0.8,2.7,0c0.3,0.3,0.6,0.5,0.8,0.4c0.4-0.2,1.5,0.8,1.4,1.2c-0.2,0.9,0.1,1.4,0.4,0.8
	c0.4-0.8,1.9-0.5,1.6,0.3c-0.1,0.3,0,0.6,0.2,0.8c0.2,0.1,0.4,0,0.3-0.3c-0.1-0.3,0.2-0.5,0.5-0.6c0.3,0,0.8-0.1,1-0.1
	c0.3,0,0.4-0.3,0.3-0.6c-0.1-0.4,0-0.6,0.4-0.6c0.3,0,0.5,0.2,0.4,0.4s0,0.3,0.4,0.2c0.3-0.1,0.6,0,0.6,0.2c0,0.3,0.3,0.3,0.9,0
	c0.6-0.2,1.3-0.3,1.7-0.2c0.4,0.1,0.7,0,0.7-0.2c0-0.3,0.1-0.4,0.5,0c0.4,0.3,0.7,0.2,1-0.5c0.5-0.8,2.3-1.3,1.9-0.5
	c-0.1,0.2,0,0.3,0.4,0.1c0.3-0.1,0.8,0,1,0.3s0.8,0.6,1,0.5c0.6,0,0.6-0.1,0-0.5c-0.4-0.3-0.6-0.6-0.4-0.8c0.1-0.1,0.6,0,0.8,0.4
	c0.5,0.4,0.8,0.5,0.8,0.2c0.1-0.2,0-0.5-0.4-0.7c-0.3-0.1-0.6-0.4-0.6-0.6s0.2-0.3,0.4-0.2c0.6,0.4,1.6-0.2,1.3-0.8
	c-0.2-0.5-0.1-0.5,0.4-0.1c0.4,0.3,0.6,0.4,0.6,0c0-0.3,0.4-0.4,0.8-0.2c0.8,0.2,2.4-0.9,2.4-1.9c0-0.7,1.4-2.3,1.9-2.3
	c0.3,0,0.6-0.4,0.6-0.9c0.1-0.5,0.3-1,0.4-1.1c0.2-0.1,1.2-2,2.3-4.2c3.9-7.7,12.8-21.2,15.3-23.3c0.1-0.1,0.9-1.1,1.9-2.2
	c0.9-1.1,5.7-6.2,10.6-11.2c14.3-14.7,19.2-23.1,21-36.7C273.3,258.8,273.1,258.2,271.4,259.5 M217,345.2c0.3,0.2,0.5,0.5,0.4,0.6
	c-0.1,0.1-0.6,0-0.9-0.4C215.7,344.9,216.2,344.7,217,345.2 M192.5,348.3c-0.9,0.5-1.5,1.5-0.7,1.2c0.3-0.1,0.6-0.1,0.6,0.2
	c0,0.3,0.3,0.4,0.6,0.4c0.3,0,0.6-0.2,0.6-0.4s-0.2-0.4-0.4-0.4c-0.2,0-0.4-0.2-0.4-0.4c0-0.2,0.3-0.3,0.8-0.2
	c0.8,0.2,1.3-0.3,0.6-0.7c-0.3-0.1-0.6-0.2-0.7-0.2C193.3,347.9,193,348.2,192.5,348.3 M205,350.5c0.2,0.6,1,0.8,1,0.4
	c0-0.2-0.3-0.5-0.6-0.6C205.1,350.1,204.9,350.2,205,350.5"/>
<path id="path4" class="st3" d="M189.4,12.1c0.5,0.1,1.1,0.1,1.5,0c0.4-0.1,0-0.2-0.8-0.2C189.2,12,188.9,12,189.4,12.1 M186.2,12.8
	c-1.1,0.7-0.9,0.7,0.9,0c0.8-0.3,1.1-0.6,0.8-0.6C187.4,12.3,186.7,12.5,186.2,12.8 M192,12.5c0.3,0.1,1,0.5,1.6,0.8
	c0.6,0.3,1,0.5,1,0.3c0-0.3-2.1-1.3-2.6-1.3C191.7,12.3,191.7,12.4,192,12.5 M182.7,15.2l-1.9,1.9L182.7,15.2
	c1.2-0.8,2.2-1.7,2.3-1.8c0.1-0.1,0-0.1-0.1-0.1S183.8,14.2,182.7,15.2 M196.4,15c1.5,1.4,2.5,3.1,3.1,5c0.3,0.8,0.3,0.8,0.3,0.2
	c0.1-1.1-2.2-4.5-3.7-5.6C194.9,13.6,194.9,13.6,196.4,15 M180.4,18.3c-0.2,0.5-0.4,1.2-0.4,1.6c0,0.4,0.3,0,0.6-0.8
	C181.1,17.4,181,16.9,180.4,18.3 M179.6,22c0,0.8,0.1,1.1,0.2,0.7c0.1-0.5,0.1-1.1,0-1.5C179.7,20.8,179.6,21.2,179.6,22
	 M196.8,28.9c-1.5,1.8-1.6,1.9-0.3,0.7c1.1-1,2.3-2.6,2-2.5C198.5,27,197.8,27.8,196.8,28.9 M182.3,29.1c0.9,1,3.1,2.3,3.4,2.1
	c0.1-0.1,0-0.2-0.2-0.2c-0.2,0-1.2-0.6-2.2-1.3C182.3,29,181.9,28.7,182.3,29.1 M189,32.3c0.5,0.1,1.1,0.1,1.5,0
	c0.4-0.1,0-0.2-0.8-0.2C188.8,32.2,188.5,32.2,189,32.3 M168,35.6c30.7,0.3,54.1,0.3,54.1,0c0-0.2-14.9-0.3-33-0.2
	C171.1,35.5,161.6,35.6,168,35.6 M159,41.3c1,2,1.9,3.7,2.1,3.7c0.1,0-0.7-1.7-1.7-3.7s-1.9-3.7-2.1-3.7
	C157.2,37.6,158,39.3,159,41.3 M165.6,54.1c0.4,0.8,0.8,1.5,0.9,1.5s-0.2-0.7-0.6-1.5c-0.4-0.8-0.8-1.5-0.9-1.5
	C165,52.6,165.2,53.3,165.6,54.1 M135.4,60.7c0.4,0.3,0.4,0.4-0.2,0.8c-0.4,0.2-0.5,0.4-0.3,0.4c0.5,0,1.2-0.8,1.2-1.1
	c0-0.2-0.3-0.3-0.7-0.3C135.1,60.3,135.1,60.4,135.4,60.7 M173.5,69.2c0.3,0.6,0.7,1.1,0.8,1.1s-0.1-0.5-0.4-1.1
	c-0.3-0.6-0.7-1.1-0.8-1.1C173,68.1,173.2,68.5,173.5,69.2 M120.3,72.2l-2.5,2.6L120.3,72.2c2.5-2.3,2.9-2.6,2.6-2.6
	C122.8,69.6,121.7,70.8,120.3,72.2 M178.6,78.3c0.2,0.3-0.3,0.5-1.1,0.6l-1.4,0.2l1.6,0.1c1.5,0.1,2-0.4,1.1-0.8
	C178.5,78,178.5,78,178.6,78.3 M199.4,78.8c0,0.2,2.1,0.3,4.7,0.2c4.8-0.1,4.2-0.2-1.5-0.4C200.9,78.6,199.4,78.7,199.4,78.8
	 M214.5,78.5c0,0.1,0.5,0.2,1.1,0.3c0.6,0.1,1,0,0.9-0.2C216.3,78.4,214.5,78.2,214.5,78.5 M162,79.2c-0.1,0.3-0.1,0.8,0,1
	c0.1,0.3,0.2,0.1,0.2-0.3s0.3-0.8,0.7-0.9c0.6-0.2,0.6-0.2,0-0.2C162.6,78.8,162.2,79,162,79.2 M161.7,82.7c0,0.8,0.1,1,0.2,0.7
	c0.1-0.4,0.1-0.9,0-1.3C161.8,81.8,161.7,82.1,161.7,82.7 M282.2,85c1,1,1.9,1.9,2,1.9s-0.7-0.8-1.6-1.9c-1-1-1.9-1.9-2-1.9
	S281.2,83.9,282.2,85 M160.7,87c-0.1,0.6-0.2,1-0.1,1.1c0.1,0.1,0.3-0.3,0.4-0.8c0.1-0.6,0.2-1,0.1-1.1
	C161,86.1,160.8,86.5,160.7,87 M160.2,89c0,0.3,0.5,0.9,0.9,1.5l1,0.8l-0.8-0.9c-0.5-0.5-0.8-1.1-0.9-1.5
	C160.2,88.5,160.2,88.5,160.2,89 M216.8,91.3l-1.4,1.6l1.6-1.4c1.4-1.3,1.7-1.7,1.4-1.7C218.3,89.8,217.6,90.4,216.8,91.3
	 M162.7,91.6c0,0.1,0.6,0.6,1.2,1.2l1.2,1l-1-1.2C163,91.6,162.7,91.4,162.7,91.6 M302.6,98.3c6.6,6.9,7.1,7.4,4.5,4.4
	c-1.2-1.4-3.9-4.1-5.8-6C298.4,94,298.7,94.4,302.6,98.3 M214.3,100c1.6,1.6,3,2.9,3.1,2.9c0.1,0-1.1-1.3-2.7-2.9
	c-1.6-1.6-3-2.9-3.1-2.9C211.4,97.1,212.7,98.4,214.3,100 M163.1,101.8l-4.2,4.3L163.1,101.8c4.1-3.9,4.6-4.3,4.3-4.3
	C167.3,97.5,165.3,99.4,163.1,101.8 M107,99.6c0,0.9,0.1,1.3,0.2,0.8c0.1-0.5,0.1-1.2,0-1.7C107.1,98.3,107,98.7,107,99.6
	 M219.8,105.9c0.8,0.8,1.5,1.5,1.6,1.5s-0.5-0.7-1.2-1.5c-0.8-0.8-1.5-1.5-1.6-1.5C218.4,104.4,219,105.1,219.8,105.9 M310.4,106.9
	c0.8,0.8,2.4,3,3.8,4.9c1.3,1.9,2.5,3.4,2.6,3.4c0.5,0-5.5-7.9-6.9-9C309.4,105.7,309.6,106,310.4,106.9 M107,111.8
	c0,0.8,0.1,1,0.2,0.7c0.1-0.4,0.1-0.9,0-1.3C107.1,110.7,107,111.1,107,111.8 M252,113.8c0.1,0.7,0,1.1-0.3,1.1
	c-0.2,0-0.8,0.1-1.2,0.1c-0.5,0.1-2.1,1.4-3.9,3.4c-1.7,1.8-4.4,4.7-6.2,6.5c-1.7,1.8-3.6,3.8-4,4.3c-0.5,0.7-1,1.1-1.1,1.1
	c-0.2,0-1,0.8-2,1.7c-0.9,0.9-1.9,1.7-2.2,1.7c-0.3,0-0.5,0.2-0.6,0.5c0,0.3-0.9,1.7-2,3.2c-1,1.5-3.1,4.7-4.4,7
	c-7.8,13.6-20.9,26-35.7,34.2c-7.1,3.9-7,3.9-6.8,4.5c0.1,0.4,0.1,0.5,0,0.4s-0.9,0.5-1.8,1.3c-2.1,2-3.6,3.2-3.6,2.9
	c0-0.1-0.5,0.2-1,0.7c-1.3,1.1-3.3,2.5-4.6,3.3c-0.6,0.3-1.6,1-2.2,1.7c-0.7,0.7-1.3,1.2-1.5,1.2c-0.2,0-0.9,0.7-1.7,1.5
	c-1,1.2-1.7,1.6-2.9,1.8c-2.3,0.4,8.2,0,11.7-0.5c5.5-0.8,16.8-3.2,16.4-3.6c-0.1-0.1-0.8,0-1.6,0.2c-2.7,0.8-3.2,0.1-1.1-1.6
	c0.7-0.5,2.2-1.9,3.4-3s2.3-2.1,2.6-2.1c0.3,0,1.7-1.2,3.3-2.7c1.6-1.5,3-2.7,3.1-2.7s0.9-0.8,1.9-1.8c0.9-0.9,2.3-2.3,3.1-2.8
	c0.8-0.6,1.9-1.5,2.4-2c0.6-0.5,1.9-1.7,2.9-2.5c1-0.9,3.1-2.8,4.6-4.2c2.5-2.5,5.3-4.9,8.4-7.5c0.8-0.8,2-1.8,2.4-2.3
	c0.6-0.6,1.1-1.2,1.3-1.4c1.7-1.3,3.7-3.1,5.8-5.2c1.4-1.3,3.4-3.1,4.3-3.9c0.9-0.8,2.5-2.2,3.6-3.1c1-0.9,2.3-1.8,2.5-1.9
	c0.4-0.1,0.8-0.5,1.1-0.8c0.3-0.3,0.7-0.6,0.9-0.6c0.3,0,1.2-0.8,2.2-1.7c1-1,1.9-1.6,2.2-1.4c0.3,0.2,0.4,0.1,0.2-0.4
	c-0.1-0.4-0.1-0.6,0.1-0.6s0.5-0.5,0.7-1c0.6-1.5,0.5-0.2-0.1,2.1c-0.6,2.2-0.7,3.2-0.2,2c2.3-5.9,3.7-25.1,1.9-27.9
	C251.9,112.8,251.9,112.9,252,113.8 M318.3,117.6c1.5,2.3,2.3,3.8,1.3,2.3c-1.7-2.3-3.9-4.3-2.8-2.5c0.2,0.3,0.1,0.4-0.3,0.2
	c-0.4-0.2-0.6,0.1-0.6,1c0,0.7,0.1,1.2,0.3,1.2c0.3,0,0.3,0.8,0.1,2c0,0.2-0.3,0.3-0.7,0.3c-0.5,0-0.5,0.1-0.1,0.6
	c0.3,0.4,0.3,0.6,0.1,0.6c-0.2,0-0.5,0.4-0.7,0.8c-0.1,0.4-0.6,0.8-0.9,0.8c-0.4,0-0.8,0.2-0.8,0.4c0,0.2-0.4,0.5-0.8,0.6
	c-0.4,0.1-0.7,0.4-0.6,0.6c0.3,0.5-0.1,0.5-0.9,0c-0.5-0.3-0.8-0.3-0.8,0c0,0.6-0.9,1.5-1.2,1.1c-0.1-0.1-0.1,0.1,0,0.5
	c0.2,0.6,0.1,0.7-0.4,0.5c-0.6-0.2-0.8,0.1-0.7,0.9c0,0.2-2.7,1.8-3.2,1.8c-0.1,0,0-0.2,0.1-0.5c0.2-0.3,0.1-0.3-0.2-0.2
	c-0.2,0.2-0.5,0.7-0.5,1.1c0,1-0.8,1.7-0.8,0.7c0-0.4-0.2-0.2-0.6,0.6c-0.3,0.7-0.9,1.6-1.5,2.2c-0.6,0.5-0.9,1-0.9,1.2
	c0.1,0.2-0.1,0.3-0.4,0.2c-0.3-0.1-0.5,0.4-0.4,1.6l0.1,1.7l-0.6-1c-0.3-0.6-0.7-1-0.8-1c-0.2,0,0,0.4,2.7,7.2c6.3,15.7,9,29,9,43.6
	c0,9.5,0,9.2-1.9,18.1l-0.2,0.9l0.4-0.8c0.7-1.6,2.2-10.7,2.3-13.7c0.1-2.9,0.1-3,0.2-0.6c0.1,2.4,0.1,2.4,1.1,2.3
	c0.8-0.1,1-0.4,0.9-0.9c-0.1-0.9,0.5-2.1,1.2-2.7c0.3-0.2,0.6-0.9,0.7-1.5c0.1-1.1,2.3-3.8,3.3-3.8c0.3,0,0.5-0.2,0.4-0.5
	c-0.1-0.4,0.7-1.5,1.1-1.6c0.1,0,0.5-0.2,0.8-0.3c0.7-0.3,0.8-1.4,0.1-1.1c-0.3,0.1-0.5-0.1-0.5-0.4s0.4-0.6,0.8-0.6
	c0.4,0,1-0.3,1.3-0.8c0.5-0.6,0.8-0.7,1.1-0.3c0.4,0.3,0.5,0.3,0.3-0.2c-0.2-0.4,0-0.6,0.4-0.6c0.4,0,0.5-0.2,0.4-0.6
	c-0.2-0.5,0-0.6,1-0.4c0.7,0.1,1,0.1,0.8,0s-0.5-0.4-0.5-0.6s0.3-0.2,0.8,0.1c0.6,0.3,0.8,0.3,1.3-0.2c0.3-0.3,0.5-0.6,0.4-0.6
	s0-0.2,0.3-0.6c0.3-0.3,0.7-0.4,0.8-0.2c0.2,0.2,0.7,0.2,1-0.1c0.4-0.2,0.8-0.3,1.1-0.1c0.3,0.2,0.8,0.2,1.1,0.2
	c0.6-0.1,0.7,0,0.3,0.4c-0.4,0.5-0.3,0.7,0.3,1.2c0.6,0.6,0.7,0.8,0.3,1.4c-0.4,0.8-0.4,0.8,0.2,0.3c0.6-0.5,0.7-0.5,0.6,0.2
	c-0.1,0.4,0,0.9,0.1,1.2s0.3,0.9,0.4,1.5c0.1,0.5,0.2-0.8,0.3-2.9l0.1-3.9l0.3,4.6c0.2,2.7,0.2,0.1,0.1-6.6
	c-0.1-15.2-1.7-24.6-5.6-34.5c-1.6-4-1.9-5-0.8-2.8c0.4,0.8,0.8,1.4,0.9,1.4c0.1,0-0.4-0.9-1-2.2s-1.3-2.1-1.6-2
	c-0.2,0.1-0.3,0-0.1-0.2c0.5-0.8-6.5-12.8-7.2-12.3c-0.3,0.2-0.3,0.1-0.1-0.2c0.3-0.4-2.8-5.5-3.3-5.5
	C316.9,115.4,317.5,116.4,318.3,117.6 M60.1,160.8c0.4,0.7,0.9,1.5,1.3,2l0.8,0.9l-0.7-1.1c-0.4-0.7-0.9-1.5-1.3-2l-0.8-0.9
	L60.1,160.8 M239.6,162.7c-0.6,0.8-0.8,1.2-0.7,1.1c0.5-0.3,2.1-2.4,1.8-2.4C240.7,161.3,240.2,162,239.6,162.7 M63.3,165.6
	c2.4,3.7,9.7,11.5,13.7,14.9c1.2,1-0.4-0.7-3.5-3.8c-3.1-3.1-6.9-7.3-8.4-9.3C62.2,163.7,61.3,162.7,63.3,165.6 M237.3,165.4l-1,1.2
	l1.2-1c0.7-0.6,1.2-1.1,1.2-1.2C238.6,164.1,238.4,164.3,237.3,165.4 M233,170.2l-3.3,3.4L233,170.2c3.3-3,3.7-3.4,3.4-3.4
	C236.3,166.8,234.8,168.3,233,170.2 M62.5,175.1c0,0.2,0.3,0.8,0.6,1.3c0.3,0.5,0.6,0.8,0.6,0.6c0-0.2-0.3-0.8-0.6-1.3
	C62.7,175.1,62.5,174.9,62.5,175.1 M82.2,184.6c0,0.1,0.5,0.6,1.1,0.9c0.6,0.5,1.1,0.7,1.1,0.6c0-0.1-0.5-0.6-1.1-0.9
	C82.8,184.8,82.2,184.5,82.2,184.6 M296.5,187.4c0,1.7,0.1,2.4,0.1,1.6s0.1-2.3,0-3.1C296.5,185,296.5,185.6,296.5,187.4
	 M29.1,185.9c0,0.8,0.1,1,0.2,0.7c0.1-0.4,0.1-0.9,0-1.3C29.2,185,29.1,185.3,29.1,185.9 M335.4,187.4c0,1.3,0.1,1.9,0.2,1.2
	c0.1-0.7,0.1-1.7,0-2.3C335.5,185.5,335.4,186.1,335.4,187.4 M28.8,189.6c0,1.1,0.1,1.6,0.2,1c0.1-0.6,0.1-1.5,0-2
	C28.9,188.1,28.8,188.5,28.8,189.6 M250.6,190.1c-0.3,0.5-0.8,0.6-1.1,0.5c-0.4-0.2-0.8,0-1.3,0.5c-0.4,0.4-1,0.8-1.6,0.8
	c-0.5,0-1,0.2-1.3,0.5c-0.2,0.3-0.8,0.5-1.3,0.5c-0.6,0-1.4,0.4-2,0.8c-0.6,0.5-1.2,0.7-1.4,0.6c-0.2-0.1-0.5-0.1-0.6,0.1
	s-0.8,0.5-1.7,0.6c-0.8,0.1-1.5,0.4-1.5,0.7c0,0.3-0.2,0.3-0.4,0.2c-0.2-0.1-0.6-0.1-0.8,0.1c-0.3,0.2-0.6,0.3-0.8,0.4
	c-0.2,0-0.3,0.1-0.4,0.1c-0.1,0-0.4,0.1-0.8,0.2c-1,0.2-2.8,1-2.8,1.4c0,0.2-0.2,0.3-0.5,0.3c-0.8,0-3.3,1.2-3.3,1.6
	c0,0.2-0.3,0.3-0.6,0.1c-0.3-0.1-0.5-0.1-0.4,0.2c0.1,0.2-0.2,0.4-0.8,0.4c-0.5,0-0.9,0.2-0.9,0.4s-0.2,0.4-0.4,0.4
	c-0.2,0-0.7,0.3-0.9,0.6c-0.3,0.3-1,0.6-1.7,0.6c-1.9,0-6.2,1.2-7,1.9c-0.7,0.7,0.8,2.8,2,2.8c0.5,0,5.7,4.7,7.8,6.8
	c5.1,5.3,9.7,12.2,11.6,17.1c0.8,2,1.5,3.4,1.5,2.9c0-0.1-0.3-0.8-0.6-1.5c-0.3-0.8-0.6-1.4-0.6-1.5s0.3-0.1,0.6,0
	c0.3,0.1,0.6,0,0.6-0.2c0-0.3,0.3-0.3,0.8,0.1c0.5,0.3,1,0.5,1.3,0.4c0.3-0.1,0.5,0,0.5,0.2c0,0.3,0.4,0.3,1.1,0
	c0.7-0.2,1.2-0.3,1.3-0.2c0.1,0.1,0.7-0.3,1.2-0.8c0.9-0.8,2-1.1,3-0.9c0.2,0,0.6-0.3,0.8-0.7s0.8-0.8,1.2-0.8
	c0.4,0,0.8-0.3,0.8-0.6c0.1-0.3,0.4-0.6,0.7-0.6c0.2,0,0.3,0.3,0.2,0.6c-0.2,0.5,0,0.4,0.8-0.2c0.6-0.4,1.2-0.8,1.5-0.8
	c0.2,0,0.3-0.2,0.2-0.4c-0.2-0.3,0.1-0.4,0.7-0.3c1.5,0.1,2.5,0,2.3-0.3s0.1-0.3,2.1-0.5c0.5,0,1.1-0.5,1.5-1.1
	c0.5-0.8,0.8-0.9,0.9-0.6c0.3,0.5,0.3,0.4,0.5-0.6c0-0.3,0.3-0.4,0.6-0.3c1.8,0.5,2.5,0.4,2.5-0.3c0-0.4,0.2-0.8,0.4-1.2
	c0.3-0.5,0.4-0.5,0.2,0.2c-0.2,0.6-0.1,0.7,0.3,0.3c0.3-0.2,0.6-0.3,0.8-0.2c0.1,0.1,0.3-0.1,0.3-0.5s0.1-0.5,0.2-0.3
	c0.1,0.3,0.6,0.2,1.4-0.3c1.3-0.8,1.4-0.8,1.7,0.9c0.1,0.4,0.4,0.7,0.6,0.7c0.3-0.1,0.6,0.4,0.7,0.8s0.3,0.8,0.4,0.8
	c0.3-0.3-1-4.6-1.4-4.4c-0.2,0.1-0.2-0.1-0.1-0.5c0.8-2.8-8.6-22-12.5-25.8c-0.8-0.7-1.3-1.4-1.3-1.7c0-0.2-0.2-0.4-0.5-0.4
	c-0.3,0-0.7-0.2-0.9-0.5C253.8,189.2,251.1,189.3,250.6,190.1 M335,191.3c0,0.8,0.1,1.1,0.2,0.7s0.1-1.1,0-1.5
	C335.1,190.1,335,190.4,335,191.3 M346.7,191.3c0,0.8,0.1,1.1,0.2,0.7s0.1-1.1,0-1.5C346.8,190.1,346.7,190.4,346.7,191.3
	 M73.5,193.1c0.7,0.8,1.3,1.3,1.4,1.3c0.1,0-0.4-0.6-1-1.3s-1.3-1.3-1.4-1.3C72.3,191.8,72.8,192.4,73.5,193.1 M192.6,193.3
	c-1,0.4-1.6,0.7-1.3,0.7s1.4-0.3,2.3-0.7c1-0.4,1.6-0.7,1.3-0.7C194.7,192.6,193.6,192.9,192.6,193.3 M28.5,196.4
	c0,1.8,0.1,2.6,0.1,1.8c0.1-0.8,0.1-2.3,0-3.3C28.5,193.9,28.5,194.6,28.5,196.4 M97.2,193.6c0.5,0.5,6.5,3.1,6.6,2.9
	c0.1-0.1-1.5-0.8-3.4-1.7C98.4,193.9,97,193.4,97.2,193.6 M296.5,195.5c0,1.1,0.1,1.6,0.2,1c0.1-0.6,0.1-1.5,0-2
	C296.5,193.9,296.5,194.4,296.5,195.5 M347.1,195.7c0,1,0.1,1.4,0.2,0.8c0.1-0.6,0.1-1.4,0-1.9S347.1,194.7,347.1,195.7 M78.8,198.4
	c1.2,1.2,2.3,2.2,2.3,2.2c0.1,0-0.8-1-2-2.2c-1.2-1.2-2.3-2.2-2.3-2.2C76.7,196.2,77.5,197.2,78.8,198.4 M112.2,199.7
	c0.6,0.3,1.3,0.5,1.7,0.5c0.3,0,0-0.2-0.8-0.5C111.5,199.1,110.8,199.1,112.2,199.7 M333.2,201.5c-0.1,0.9-0.2,1.8-0.1,1.9
	s0.3-0.6,0.4-1.5c0.1-0.9,0.2-1.8,0.1-1.9C333.6,199.9,333.4,200.6,333.2,201.5 M115.1,200.6c0.4,0.2,0.9,0.3,1.3,0.3
	s0.3-0.1-0.2-0.3c-0.4-0.2-0.9-0.3-1.3-0.3S114.7,200.4,115.1,200.6 M347.5,205.4c0,2.7,0.1,3.9,0.1,2.4c0.1-1.4,0.1-3.6,0-5
	C347.6,201.5,347.5,202.7,347.5,205.4 M28.8,202.7c0,1,0.1,1.4,0.2,0.8c0.1-0.6,0.1-1.4,0-1.9C28.9,201.1,28.8,201.6,28.8,202.7
	 M133.8,204.5c0.4,0.1,0.9,0.1,1.3,0s0.1-0.2-0.7-0.2C133.7,204.3,133.4,204.4,133.8,204.5 M29.1,205.8c0,0.8,0.1,1,0.2,0.7
	c0.1-0.4,0.1-0.9,0-1.3C29.2,204.7,29.1,205.1,29.1,205.8 M136.9,204.9c0.5,0.1,1.1,0.1,1.5,0s0-0.2-0.8-0.2
	C136.8,204.7,136.5,204.8,136.9,204.9 M140.4,205.3c0.6,0.1,1.4,0.1,1.9,0c0.5-0.1,0-0.2-1-0.2S139.9,205.2,140.4,205.3
	 M156.8,205.3c0.3,0.1,0.8,0.6,1.2,1l0.7,0.8l-0.6-0.9c-0.3-0.5-0.8-0.9-1.2-1C156.5,205.1,156.4,205.1,156.8,205.3 M147.2,205.7
	c1.7,0.1,4.3,0.1,5.8,0c1.6-0.1,0.2-0.1-3-0.1C146.8,205.6,145.5,205.6,147.2,205.7 M332.2,207.1c-0.1,0.8-0.2,1.4-0.1,1.5
	c0.1,0.1,0.3-0.5,0.4-1.2c0.1-0.8,0.2-1.4,0.1-1.5C332.5,205.8,332.3,206.3,332.2,207.1 M91.5,207.4c0,0.3,4.4,2.4,4.6,2.3
	c0.1-0.1-0.9-0.7-2.3-1.3C92.5,207.7,91.5,207.4,91.5,207.4 M159.4,208.3c0.5,0.6,0.8,1.1,0.9,1.1c0.1,0-0.2-0.5-0.6-1.1
	c-0.5-0.6-0.8-1.1-0.9-1.1C158.7,207.3,158.9,207.7,159.4,208.3 M307.4,210.1c-0.2,0.8-0.4,1.4-0.3,1.5s0.4-0.5,0.6-1.2
	s0.4-1.4,0.3-1.5C307.9,208.8,307.6,209.3,307.4,210.1 M161.6,211c0.8,0.8,2,1.9,2.7,2.5c1.7,1.3,1.2,0.8-1.9-2
	C161.1,210.4,160.7,210.1,161.6,211 M347.1,214.4c0,0.8,0.1,1.1,0.2,0.7s0.1-1.1,0-1.5C347.1,213.2,347.1,213.6,347.1,214.4
	 M166.4,215.1c0.5,0.6,1.9,1.5,1.9,1.2c0-0.1-0.6-0.6-1.2-1C166.3,214.8,166,214.7,166.4,215.1 M293.3,216.6
	c-0.1,0.8-0.2,1.4-0.1,1.5c0.1,0.1,0.3-0.5,0.4-1.2s0.2-1.4,0.1-1.5C293.5,215.3,293.3,215.9,293.3,216.6 M304.6,216.9
	c-0.8,1.8-0.8,2.2,0.2,0.4c0.4-0.8,0.7-1.5,0.6-1.6C305.4,215.7,305,216.3,304.6,216.9 M329.1,218.3c-0.3,0.8-0.4,1.6-0.3,1.7
	s0.4-0.6,0.6-1.3c0.3-0.8,0.4-1.6,0.3-1.7C329.5,216.8,329.3,217.4,329.1,218.3 M346.7,218.8c0,1,0.1,1.4,0.2,0.8
	c0.1-0.6,0.1-1.4,0-1.9S346.7,217.8,346.7,218.8 M303.1,220.1c-0.3,0.7-0.6,1.2-0.5,1.3c0.1,0.1,0.4-0.5,0.8-1.1
	C304.2,218.6,303.9,218.5,303.1,220.1 M177,221c0.5,0.3,1.1,0.6,1.3,0.6c0.2,0,0-0.3-0.6-0.6c-0.5-0.3-1.1-0.6-1.3-0.6
	C176.2,220.5,176.5,220.7,177,221 M143.4,226.7c1,1,1.9,1.9,2,1.9c0.1,0-0.7-0.8-1.6-1.9c-1-1-1.9-1.9-2-1.9
	C141.7,224.8,142.4,225.7,143.4,226.7 M194.7,227.9c0,0.1,0.8,0.6,1.9,1.1c1,0.5,1.9,0.8,1.9,0.8s-0.8-0.6-1.9-1.1
	C195.4,228.2,194.7,227.8,194.7,227.9 M297.4,229.6c-0.5,0.6-0.7,1.1-0.6,1.1s0.6-0.5,0.9-1.1c0.5-0.6,0.7-1.1,0.6-1.1
	C298.3,228.5,297.9,229,297.4,229.6 M295.2,232.5c-0.7,0.8-1,1.5-0.9,1.5s0.8-0.7,1.3-1.5c0.7-0.8,1-1.5,0.9-1.5
	C296.5,231.1,295.9,231.8,295.2,232.5 M43,234.1c0,0.1,0.6,0.6,1.2,1.2l1.2,1l-1-1.2C43.3,234.1,43,233.9,43,234.1 M207.1,236.8
	c1.3,1.3,2.4,2.3,2.5,2.3s-0.8-1-2.2-2.3c-1.3-1.3-2.4-2.3-2.5-2.3C204.8,234.4,205.8,235.5,207.1,236.8 M273.3,235.6
	c0,0.8,0.1,1.1,0.2,0.7c0.1-0.5,0.1-1.1,0-1.5C273.3,234.5,273.3,234.9,273.3,235.6 M291.4,237.6c-0.8,0.9-1.2,1.6-1,1.5
	c0.5-0.3,2.8-3.2,2.5-3.2C292.8,235.8,292.1,236.7,291.4,237.6 M186.8,239.5c0.8,0.8,1.5,1.5,1.6,1.5s-0.5-0.7-1.2-1.5
	c-0.8-0.8-1.5-1.5-1.6-1.5C185.4,238.1,185.9,238.7,186.8,239.5 M320,239.5c-0.3,0.6-0.5,1.1-0.4,1.1s0.5-0.5,0.8-1.1
	c0.3-0.6,0.5-1.1,0.4-1.1C320.7,238.5,320.3,238.9,320,239.5 M273.6,240.1c0,0.8,0.1,1.1,0.2,0.7s0.1-1.1,0-1.5
	C273.7,238.9,273.6,239.3,273.6,240.1 M169.8,242.6l-2.9,3L169.8,242.6c2.9-2.6,3.3-3,3-3C172.9,239.5,171.4,240.9,169.8,242.6
	 M288.3,241.2c-0.8,0.9-1.5,1.7-1.4,1.7c0.1,0,0.9-0.8,1.8-1.7c0.8-0.9,1.5-1.7,1.4-1.7C290,239.5,289.1,240.2,288.3,241.2
	 M285.1,243.3c-0.5,0.8-0.7,1.3-0.5,1.2c0.4-0.3,1.5-2.3,1.4-2.5C285.9,241.8,285.5,242.4,285.1,243.3 M274.1,245.8
	c0,1.7,0.1,2.4,0.1,1.6c0.1-0.8,0.1-2.3,0-3.1C274.1,243.4,274.1,244.1,274.1,245.8 M317.4,243.9c-0.3,0.6-0.5,1.1-0.4,1.1
	s0.5-0.5,0.8-1.1c0.3-0.6,0.5-1.1,0.4-1.1C318.1,242.9,317.8,243.4,317.4,243.9 M285.5,244.3c-0.6,0.6-1.1,1-1.3,0.9
	c-0.2-0.1-0.5,0.2-0.8,0.6c-0.4,0.7-0.4,0.8,0.3,0.4c0.8-0.4,3.3-3,3-3C286.7,243.2,286.1,243.7,285.5,244.3 M68.2,245.3
	c1,0.1,2.7,0.1,3.7,0s0.1-0.1-2-0.1C68,245.1,67.2,245.2,68.2,245.3 M165.4,247.3l-1,1.2l1.2-1c1.1-1,1.3-1.3,1-1.3
	C166.6,246.2,166,246.6,165.4,247.3 M153.3,251.2c0,1.5,0.1,2.2,0.2,1.4c0.1-0.8,0.1-2,0-2.7C153.3,249.2,153.3,249.7,153.3,251.2
	 M162.9,250.3l-1,1.2l1.2-1c1.1-1,1.3-1.3,1-1.3C164,249.1,163.5,249.6,162.9,250.3 M80.2,251.4v1.5l0.4-1.2c0.2-0.8,0.3-1.3,0-1.5
	C80.4,250,80.3,250.5,80.2,251.4 M274.5,252.9c0,1.6,0.1,2.3,0.2,1.4s0.1-2.2,0-2.9C274.5,250.6,274.5,251.3,274.5,252.9
	 M311.8,252.7c-0.5,0.6-0.7,1.1-0.6,1.1c0.1,0,0.6-0.5,0.9-1.1c0.5-0.6,0.7-1.1,0.6-1.1C312.6,251.6,312.1,252.2,311.8,252.7
	 M192.6,256.8c0,1.9,0.1,2.7,0.1,1.8c0.1-0.9,0.1-2.5,0-3.5C192.6,254.1,192.6,254.9,192.6,256.8 M157,256.9l-1.8,2l2-1.8
	c1-1,2-1.9,2-2C159,254.8,158.7,255.1,157,256.9 M218.3,260.3c0,0.8,0.1,1.1,0.2,0.7c0.1-0.5,0.1-1.1,0-1.5
	C218.3,259.1,218.3,259.5,218.3,260.3 M303.5,263.1l-1.4,1.6l1.6-1.4c1.4-1.3,1.7-1.7,1.4-1.7C305,261.6,304.3,262.2,303.5,263.1
	 M150.2,263.3c-0.7,1.5-0.2,1.5,1.1,0.1c1-1.1,1-1.1,0.1-0.4c-1,0.9-1,0.9-0.8,0.1C151,262,150.8,262.1,150.2,263.3 M85.6,264.7
	c-0.7,1.3-0.5,1.6,0.2,0.4c0.3-0.6,0.5-1.1,0.4-1.2C86.1,263.8,85.9,264.2,85.6,264.7 M242,265.6c0,0.8,0.1,1,0.2,0.7
	c0.1-0.4,0.1-0.9,0-1.3S242,264.9,242,265.6 M73.7,267.6c-0.8,1.5-1.3,2.7-1.2,2.7c0.3,0,2.8-5.2,2.6-5.4
	C75.1,265,74.4,266.1,73.7,267.6 M299.6,267.3l-2.3,2.4L299.6,267.3c1.5-1.2,2.5-2.3,2.5-2.3C302.2,264.7,301.8,265.1,299.6,267.3
	 M218.3,270c0,0.8,0.1,1,0.2,0.7c0.1-0.4,0.1-0.9,0-1.3C218.3,269,218.3,269.3,218.3,270 M288.8,277.9l-3.7,3.5l3.4-3
	c3.1-2.7,4.5-4.1,4.1-4C292.5,274.5,290.8,276.1,288.8,277.9 M66,282.2c-0.3,0.6-0.5,1.1-0.4,1.1c0.1,0,0.5-0.5,0.8-1.1
	c0.3-0.6,0.5-1.1,0.4-1.1C66.5,281,66.3,281.5,66,282.2 M282,283.9l-1.2,1.4l1.4-1.2c1.3-1.2,1.5-1.5,1.2-1.5
	C283.3,282.5,282.7,283.1,282,283.9 M329.4,285.1c0,0.8,0.1,1,0.2,0.7c0.1-0.4,0.1-0.9,0-1.3C329.5,284,329.4,284.3,329.4,285.1
	 M278.3,287l-2,1.9l2.1-1.7c1.9-1.5,2.3-2,2-2C280.4,285.1,279.4,285.9,278.3,287 M329.1,288.2c0,0.8,0.1,1.1,0.2,0.7
	c0.1-0.5,0.1-1.1,0-1.5C329.2,287,329.1,287.3,329.1,288.2 M75.4,288.2c-0.7,1.3-0.5,1.6,0.2,0.4c0.3-0.6,0.5-1.1,0.4-1.2
	C75.9,287.3,75.6,287.7,75.4,288.2 M268.8,294.9c-18.1,15.5-32.1,31.6-39.2,45.5c-0.5,1-0.5,1,0,0.7c0.5-0.4,0.6-0.4,0.5,0.2
	c0,0.4,0.2,0.7,0.6,0.6c0.4,0,0.6,0.1,0.5,0.3c-0.1,0.2,0.1,0.5,0.4,0.6c0.4,0.2,0.5,0.3,0.2,0.5c-0.6,0.4-0.1,1.5,0.6,1.2
	c0.6-0.2,0.8,0.5,0.2,0.8c-0.2,0.1-0.4,0.4-0.4,0.6s0.2,0.3,0.5,0.1c0.3-0.2,0.4-0.1,0.2,0.4c-0.2,0.4-0.1,0.6,0.3,0.6
	c0.3,0,0.7,0.7,0.9,1.4c0.2,0.8,0.7,1.7,0.9,2.1c1.2,1.6,2.3,3.5,2.2,3.6c-0.1,0.1,0.2,0.4,0.6,0.6c0.4,0.2,0.8,0.6,0.8,0.8
	s0.6,0.9,1.2,1.6c3.3,3.4,3.9,4.1,4.1,4.9c0.1,0.5,0.5,0.8,0.8,1c0.3,0.1,0.6,0.4,0.6,0.6c0,0.4,0.4,0.8,1.6,2.3
	c0.4,0.4,0.7,0.8,0.7,0.8s0.6,0.8,1.3,1.5c0.7,0.8,1.1,1.5,1,1.7c-0.1,0.2,0,0.3,0.2,0.1c0.3-0.2,0.5,0,0.5,0.4
	c0,0.3,0.2,0.5,0.4,0.4c0.2-0.1,0.4-0.1,0.4,0.2c0.1,0.8,0.2,0.9,0.8,1.8c0.4,0.5,0.8,0.8,1,0.6c0.2-0.1,0.3,0,0.1,0.2
	c-0.2,0.2-0.1,0.5,0.1,0.5c0.2,0,0.4,0.3,0.4,0.6c0,0.3,0.1,0.6,0.3,0.6s0.7,0.7,1.2,1.5c0.5,0.8,1,1.5,1.1,1.5
	c0.1,0,0.5,0.5,0.7,1.1c0.3,0.6,0.7,1,0.8,0.8c0.2-0.1,0.3-0.1,0.1,0.2c-0.3,0.5,0.7,1.6,1,1.2c0.1-0.1,0.2,0,0.2,0.4
	c0,0.4,0.5,1,1,1.6c0.6,0.6,1.3,1.5,1.7,2.1l0.7,1H287c13.5,0,24.4-0.1,24.2-0.3c-0.9-0.4-2-1.5-1.5-1.7c0.2-0.1,0.3-0.6,0.2-0.9
	c-0.2-0.6-0.3-0.7-0.5-0.3c-0.2,0.4-0.3,0.4-0.3-0.2c0-0.5-0.2-0.6-0.5-0.4c-0.4,0.2-0.4,0.2,0-0.3c0.6-0.8,0-1.4-1.2-1.4
	c-0.1,0,0.1-0.3,0.5-0.6c0.6-0.5,0.7-0.6,0.1-0.4c-0.4,0.1-0.7,0-0.7-0.3c0-0.3-0.2-0.6-0.5-0.7c-0.3-0.1-0.5-0.6-0.4-1
	c0.1-1-0.7-2.3-1.2-2c-0.2,0.1-0.5,0.1-0.6-0.2c-0.1-0.2-0.1-0.4,0.2-0.4c0.2,0,0.4-0.4,0.4-0.8c0-0.5-0.3-0.8-0.6-0.8
	c-0.5,0-0.6-0.3-0.4-0.9c0.1-0.5,0-0.8-0.1-0.8c-0.2,0.1-0.3-0.1-0.3-0.4c0-0.3-0.2-0.5-0.4-0.4s-0.2-0.2,0.1-0.8
	c0.4-0.8,0.4-1-0.1-1.3c-0.3-0.2-0.4-0.6-0.3-0.8c0.2-0.4,0.1-0.5-0.3-0.4c-0.3,0.1-0.6,0-0.6-0.4c0-0.3-0.2-0.6-0.5-0.5
	c-0.3,0.1-0.4-0.2-0.4-0.5c0.1-0.5,0-0.5-0.5,0c-0.5,0.4-0.6,0.4-0.3-0.2c0.2-0.5,0.1-0.6-0.2-0.4c-0.6,0.3-0.5,0.4-0.1-1.2
	c0.3-1,0.3-1.1-0.1-0.8c-0.7,0.6-1.8,0.1-1.5-0.7c0.1-0.3,0-0.7-0.3-0.8c-0.7-0.5-1.1-0.4-0.8,0.1c0.2,0.3,0.1,0.3-0.2,0.2
	c-0.7-0.5-0.5-0.9,0.4-0.9c0.6,0,0.7-0.1,0.4-0.3c-0.3-0.2-0.5-0.5-0.5-0.7s-0.2-0.3-0.5-0.2c-0.4,0.1-0.5-0.1-0.3-0.5
	c0.1-0.4,0-0.8-0.3-0.9s-0.6-0.5-0.6-0.7s-0.1-0.6-0.1-0.8c0-0.2-0.3-0.3-0.7-0.1c-0.5,0.2-0.6,0.1-0.4-0.6c0.1-0.5,0.1-0.8-0.1-0.8
	c-0.2,0-0.3-0.5-0.3-1.1s0-1-0.1-0.9c-0.2,0.2-1.3-1.1-1.4-1.7c0-0.2-0.1-0.4-0.1-0.6s-0.3,0-0.6,0.5c-0.7,0.8-0.8,0.1-0.1-0.9
	c0.4-0.7,0.3-0.8-0.7-1.6c-0.8-0.7-1.2-0.8-1.4-0.5c-0.5,0.7-0.4-0.4,0.1-1.2c0.3-0.6,0.3-0.7-0.3-0.5c-0.5,0.2-0.6,0.1-0.4-0.4
	c0.1-0.3,0-0.7-0.2-0.8c-0.3-0.1-0.3-0.3-0.2-0.5c0.2-0.2,0.6-0.1,0.8,0.2c0.4,0.3,0.6,0.4,0.6,0.1c0-0.2-0.1-0.4-0.3-0.4
	s-0.6-0.5-0.9-1c-0.6-0.9-0.7-0.9-0.5-0.2c0.1,0.6,0,0.8-0.3,0.7s-0.5-0.6-0.5-1.1s0.1-0.8,0.4-0.8c0.2,0.1,0.2,0,0.1-0.3
	c-0.2-0.3-0.6-0.4-0.9-0.3c-0.4,0.1-0.8,0-0.9-0.2c-0.1-0.2,0-0.4,0.2-0.4c0.8,0-1.3-2.2-2.2-2.2c-0.8,0-0.8-0.1-0.4-0.6
	c0.3-0.3,0.3-0.6,0.1-0.6c-0.2,0-0.3-0.4-0.2-0.8c0.2-0.7,0.1-0.8-0.2-0.3c-0.4,0.5-0.4,0.4-0.4-0.4c0-0.5,0-1,0-1.2
	c0-0.2-0.1-0.5-0.2-0.8c0-0.3-0.3-0.4-0.5-0.4c-0.3,0.1-0.7-0.3-0.8-0.7c-0.3-0.5-0.3-0.7,0-0.6c0.2,0.1,0.5,0,0.7-0.2
	c0.2-0.3,0.1-0.4-0.1-0.2c-0.2,0.1-0.6,0-0.7-0.3c-0.2-0.3-0.7-0.7-1.1-0.9c-0.5-0.2-0.8-0.7-0.7-0.9c0.2-0.5-1.6-2-2.2-1.8
	c-0.2,0-0.2-0.2-0.1-0.5c0.2-0.4,0-0.5-0.4-0.4c-0.3,0.1-0.7,0-0.8-0.2c-0.1-0.2-0.1-0.4,0.2-0.4c0.2,0,0.3-0.2,0.2-0.4
	c-0.1-0.2-0.4-0.3-0.7-0.3c-0.3,0.1-0.3,0-0.2,0c0.8-0.5,0.2-1.2-0.8-1.1c-1.1,0.1-1.1,0-1.2-1.4c-0.1-2-0.1-1.9-0.7-1
	c-0.3,0.4-0.6,0.6-0.6,0.4c-0.1-1.3-1.1,1-1.3,3c-0.5,4.6-1,4.6-1.4,0.1c-0.1-0.9-0.4-2.2-0.6-2.7s-0.3-1.2-0.2-1.3
	c0.1-0.2-0.2-0.4-0.6-0.6c-0.4-0.1-0.8-0.5-0.8-0.8c0-0.3-0.2-0.5-0.3-0.4c-0.2,0.1-0.3-0.4-0.2-1.1c0.1-1.1,0-1.3-0.5-1.1
	c-0.4,0.1-0.5,0.1-0.4-0.2c0.1-0.2-0.1-0.8-0.6-1.1c-0.5-0.4-0.7-0.8-0.6-1c0.1-0.2,0-0.4-0.2-0.4s-0.7-0.7-1-1.4
	c-0.4-0.8-0.8-1.5-1.1-1.7c-0.3-0.2-0.5-0.7-0.5-1.2c0-0.5-0.2-0.9-0.5-0.9s-0.4-0.1-0.2-0.2s0-0.8-0.3-1.4
	c-0.3-0.7-0.4-1.7-0.3-2.3c0.1-1,0.1-1.1-0.8-1.1c-0.8,0-1-0.1-0.9-0.7c0.1-0.4-0.1-0.8-0.4-1c-0.4-0.2-0.4-0.5,0.2-1
	c0.4-0.4,0.6-0.9,0.6-1.2c-0.1-0.3,0.1-0.5,0.4-0.4c0.3,0.1,0.4-0.1,0.3-0.3c-0.2-0.3,4.6-4.6,13.3-12.2c1.1-0.9,1.9-1.7,1.8-1.8
	C276.1,288.7,272.8,291.5,268.8,294.9 M328.8,295.7c0,3.3,0.1,4.7,0.1,3c0.1-1.7,0.1-4.4,0-6C328.9,291,328.8,292.4,328.8,295.7
	 M73.8,294.9c0.5,0.1,1.1,0.1,1.5,0s0-0.2-0.8-0.2S73.3,294.8,73.8,294.9 M77.1,295.2c0.5,0.1,1.1,0.1,1.5,0s0-0.2-0.8-0.2
	C76.9,295,76.6,295.1,77.1,295.2 M80.9,295.6c0.6,0.1,1.5,0.1,2,0c0.6-0.1,0.1-0.2-1-0.2C80.8,295.4,80.4,295.5,80.9,295.6 M85,296
	c0.4,0.1,0.9,0.1,1.3,0s0.1-0.2-0.7-0.2S84.6,295.9,85,296 M90.4,296.7c0.4,0.1,0.9,0.1,1.3,0s0.1-0.2-0.7-0.2
	C90.3,296.5,90.1,296.6,90.4,296.7 M329.1,303.2c0,0.8,0.1,1.1,0.2,0.7c0.1-0.5,0.1-1.1,0-1.5C329.2,302.1,329.1,302.5,329.1,303.2
	 M329.4,306.3c0,0.8,0.1,1,0.2,0.7c0.1-0.4,0.1-0.9,0-1.3C329.5,305.4,329.4,305.7,329.4,306.3 M169.5,313.1l-1,1.2l1.2-1
	c1.1-1,1.3-1.3,1-1.3C170.6,311.9,170,312.4,169.5,313.1 M163.7,319.1l-4.6,4.7L163.7,319.1c2.6-2.4,4.8-4.5,4.8-4.6
	C168.5,314.3,168.1,314.8,163.7,319.1 M332.7,321.7c0,0.3,0.2,1,0.5,1.7c0.7,1.4,0.7,0.8,0-0.9C332.9,321.8,332.7,321.5,332.7,321.7
	 M157.7,324.8l-1,1.2l1.2-1c1.1-1,1.3-1.3,1-1.3C158.8,323.6,158.3,324.2,157.7,324.8 M335.1,328.8c0.1,0.5,0.4,1.1,0.6,1.5
	c0.3,0.4,0.3,0.3,0.1-0.4c-0.1-0.5-0.4-1.1-0.6-1.5S334.9,328.1,335.1,328.8 M97.5,333.5c0,2.2,0.1,3,0.1,2c0.1-1,0.1-2.8,0-3.9
	C97.6,330.6,97.5,331.4,97.5,333.5 M149.5,331c-0.8,0.6-1.6,1.2-1.6,1.3s0.8-0.4,1.7-0.9c0.9-0.6,1.7-1.2,1.7-1.3
	C151.3,329.7,151.2,329.8,149.5,331 M186.5,331c-0.8,1.2-1.5,2.7-1.1,2.3c0.5-0.6,2.1-3.1,1.8-3.1C187,330.2,186.8,330.6,186.5,331
	 M146.3,333.3c-1.7,1.2-2,1.5-0.5,0.8c0.7-0.4,1.4-0.9,1.6-1.1C147.9,332.3,147.7,332.4,146.3,333.3 M140.4,337.1
	c-0.8,0.5-1.6,1-1.6,1.1c0,0.2,2.4-1.2,3.1-1.8C142.6,335.8,141.9,336.1,140.4,337.1 M182.3,338.3c-0.3,0.6-0.5,1.1-0.4,1.1
	c0.1,0,0.5-0.5,0.8-1.1c0.3-0.6,0.5-1.1,0.4-1.1S182.6,337.7,182.3,338.3 M96.8,342.4c-0.2,2.7-0.2,5.5-0.1,6.2
	c0.1,0.8,0.3-1.4,0.4-4.7c0.1-3.3,0.2-6.1,0.1-6.2C97.1,337.6,96.9,339.7,96.8,342.4 M89,340.3c0,0.8,0.1,1.1,0.2,0.7
	c0.1-0.5,0.1-1.1,0-1.5C89,339.1,89,339.5,89,340.3 M339.7,339.9c0,0.4,4.8,9.8,5,9.8c0.2,0-4.5-9.5-4.8-9.9
	C339.7,339.7,339.7,339.8,339.7,339.9 M131.8,342.1c-1.4,0.8-1.3,1,0.1,0.4c0.6-0.3,1.1-0.7,1.1-0.8
	C132.9,341.6,132.9,341.6,131.8,342.1 M88.6,343.5c0,0.9,0.1,1.3,0.2,0.8c0.1-0.5,0.1-1.2,0-1.7C88.7,342.1,88.6,342.5,88.6,343.5
	 M179.5,343.5c-0.4,0.8-0.8,1.6-0.7,1.7c0.1,0.1,0.5-0.6,0.9-1.5C180.8,341.6,180.6,341.5,179.5,343.5 M126.6,345
	c-0.8,0.4-1.4,0.8-1.4,0.9s0.7-0.2,1.5-0.6c0.8-0.4,1.5-0.8,1.5-0.9C128.2,344.1,128.2,344.1,126.6,345 M88.3,346.6
	c0,0.8,0.1,1.1,0.2,0.7c0.1-0.5,0.1-1.1,0-1.5C88.4,345.4,88.3,345.7,88.3,346.6 M148.3,346.7c-0.8,0.4-1.1,0.8-1,0.8
	c0.4,0,2.4-1,2.4-1.3C149.8,346,149.8,346,148.3,346.7 M116.9,349.8c-3,1.5-5.4,2.7-5.2,2.7c0.5,0,10.9-5.1,10.9-5.3
	C122.7,347,123.3,346.7,116.9,349.8 M87.9,350c0,1.1,0.1,1.6,0.2,1c0.1-0.6,0.1-1.5,0-2C88,348.5,87.9,348.9,87.9,350 M96.3,352.3
	c0,1.3,0.1,1.9,0.2,1.2c0.1-0.7,0.1-1.7,0-2.3C96.4,350.4,96.3,351,96.3,352.3 M162.1,354.8c0,2.7,0.1,3.9,0.1,2.4
	c0.1-1.4,0.1-3.6,0-5C162.1,351,162.1,352.1,162.1,354.8 M345.5,351.5c0.4,0.8,0.8,1.5,0.9,1.5s-0.2-0.7-0.6-1.5
	c-0.4-0.8-0.8-1.5-0.9-1.5C344.9,350,345.1,350.7,345.5,351.5 M87.5,353.9c0,1,0.1,1.4,0.2,0.8c0.1-0.6,0.1-1.4,0-1.9
	C87.6,352.5,87.5,352.9,87.5,353.9 M108.7,353.4c-1,0.4-1.9,0.8-1.8,0.8c0.2,0.2,4.3-1.3,4.3-1.6
	C111.3,352.6,110.9,352.7,108.7,353.4 M348,355.8c0.8,1.4,1.6,2.7,1.8,2.9c0.2,0.2-0.3-0.8-1-2.2s-1.5-2.7-1.8-2.9
	S347.1,354.4,348,355.8 M103.3,355.4c-4.5,1.5-6.3,1.6-6.5,0.3c-0.2-1-0.2-1-0.2,0.1c-0.1,1.7,4,1.3,8.7-0.8
	C107.2,354.3,106.3,354.4,103.3,355.4 M293.6,355.8c-0.1,0.1-0.4,0.1-0.7-0.1c-0.3-0.2-0.3-0.4,0.1-0.6
	C293.5,354.8,294,355.4,293.6,355.8 M87.1,357c0,0.8,0.1,1,0.2,0.7c0.1-0.4,0.1-0.9,0-1.3C87.2,356,87.1,356.3,87.1,357 M86.8,359.6
	c0,0.8,0.1,1,0.2,0.7c0.1-0.4,0.1-0.9,0-1.3C86.8,358.6,86.8,358.9,86.8,359.6 M350.9,361c0.3,0.6,0.7,1.1,0.8,1.1
	c0.1,0-0.1-0.5-0.4-1.1c-0.3-0.6-0.7-1.1-0.8-1.1C350.4,360,350.5,360.5,350.9,361 M86.4,362.3c0,0.8,0.1,1.1,0.2,0.7
	c0.1-0.5,0.1-1.1,0-1.5C86.5,361.1,86.4,361.5,86.4,362.3 M161.7,363.8c0,1,0.1,1.4,0.2,0.8c0.1-0.6,0.1-1.4,0-1.9
	C161.8,362.3,161.7,362.8,161.7,363.8 M352.3,363.7c0.3,0.6,0.7,1.1,0.8,1.1c0.1,0-0.1-0.5-0.4-1.1c-0.3-0.6-0.7-1.1-0.8-1.1
	C351.8,362.5,352,363,352.3,363.7 M85.7,365.8c-0.2,1-0.2,2-0.1,2.1c0.1,0.1,0.3-0.7,0.5-1.7c0.1-1,0.2-2,0.1-2.1
	C86.1,364,85.9,364.8,85.7,365.8 M161.3,367.5c0,0.8,0.1,1.1,0.2,0.7c0.1-0.5,0.1-1.1,0-1.5C161.4,366.3,161.3,366.7,161.3,367.5
	 M85.1,369.6c-0.3,1.6,0.1,2,2.3,1.5l1.8-0.4l-1.9,0.2l-1.9,0.2l0.2-1.3C85.7,368.1,85.3,368,85.1,369.6 M97.7,368.7
	c-0.8,0.3-0.8,0.3-0.2,0.3c0.4,0,1-0.1,1.5-0.3C99.9,368.4,99,368.4,97.7,368.7 M160.4,374.1c-0.2,1.1-0.2,2.2-0.1,2.3
	s0.3-0.8,0.5-1.9c0.2-1.1,0.2-2.2,0.1-2.3C160.7,372.1,160.4,373,160.4,374.1 M358.2,373.9c0.3,0.6,0.7,1.1,0.8,1.1
	c0.1,0-0.1-0.5-0.4-1.1c-0.3-0.6-0.7-1.1-0.8-1.1C357.7,372.8,357.9,373.3,358.2,373.9 M360.9,378.7c0.4,0.8,0.8,1.5,0.9,1.5
	s-0.2-0.7-0.6-1.5c-0.4-0.8-0.8-1.5-0.9-1.5S360.6,377.9,360.9,378.7 M159.2,380c-0.1,0.8-0.2,1.4-0.1,1.5c0.1,0.1,0.3-0.5,0.4-1.2
	c0.1-0.8,0.2-1.4,0.1-1.5C159.5,378.7,159.3,379.3,159.2,380 M363.4,383.3c0.8,1.5,1.4,2.7,1.5,2.6c0.2-0.2-2.4-5.4-2.6-5.4
	C362.2,380.5,362.6,381.8,363.4,383.3"/>
</svg>
