<?xml version="1.0" encoding="utf-8"?>
<!-- Generator: Adobe Illustrator 27.2.0, SVG Export Plug-In . SVG Version: 6.00 Build 0)  -->
<svg version="1.1" id="Layer_1" xmlns="http://www.w3.org/2000/svg" xmlns:xlink="http://www.w3.org/1999/xlink" x="0px" y="0px"
	 viewBox="0 0 52 52" style="enable-background:new 0 0 52 52;" xml:space="preserve">
<style type="text/css">
	.st0{fill-rule:evenodd;clip-rule:evenodd;fill:#175970;}
	.st1{fill-rule:evenodd;clip-rule:evenodd;fill:#F9974B;}
	.st2{fill-rule:evenodd;clip-rule:evenodd;fill:#F67B26;}
	.st3{fill-rule:evenodd;clip-rule:evenodd;fill:#61B1B5;}
</style>
<path id="path0" class="st0" d="M24,0.5c-0.4,0.1-0.8,0.5-0.9,0.9c-0.4,1.4,1.3,2.4,2.3,1.3C26.3,1.6,25.3,0,24,0.5 M19.9,3.8
	C20,3.9,20.2,4.4,20.5,5c0.3,0.5,0.7,1.3,0.9,1.7c0.2,0.4,0.6,1,0.8,1.5c0.2,0.4,0.5,0.9,0.6,1.1c0.1,0.2,0.2,0.3,0.2,0.3
	s-0.4,0-1,0c-1.3,0-1.3,0-1.4,0.3c0,0.2-0.1,0.8-0.2,1.1c0,0.1,0.1,0.2,0.5,0.6c0.3,0.3,0.5,0.5,0.5,0.5c0,0-0.3,0.3-0.6,0.6
	c-0.3,0.3-0.9,0.9-1.2,1.2l-0.6,0.6l0.6,0c1.3,0.1,10.1,0.1,10.1,0c0-0.1-0.3-0.5-1.1-1.2c-1.3-1.3-1.3-1.3-1.1-1.4
	c1-0.8,1-0.8,0.8-1.7l-0.2-0.6l-1.2,0c-0.6,0-1.2,0-1.2,0c0,0,0.1-0.3,0.3-0.6c0.3-0.5,0.5-0.8,1.3-2.5c0.3-0.6,1.4-2.7,1.4-2.8
	c0,0-2,0-4.5,0h-4.5L19.9,3.8 M16.1,7.2c-1.7,0.4-3,0.9-3.5,1.4c-1,0.9-1.1,3.4-0.1,5.4c0.2,0.3,0.6,1,0.6,0.8
	c-0.3-0.7-0.1-2.9,0.2-3.9c0.5-1.3,2-2.9,3.3-3.6C17.2,7,17.1,7,16.1,7.2 M34,8.2c0,0,0.2,0.2,0.5,0.3c1.4,0.8,2.4,1.5,3.1,2.3
	c0.2,0.2,0.3,0.4,0.4,0.5c0.1,0.1,0.1,0.1-0.2,0.2c-0.7,0.3-2.3,1.3-2.2,1.3c0,0,0.3,0.6,0.6,1.2c2.9,6.4,3.5,10.2,2.5,14.7
	c-0.4,1.5-1,3.4-1.1,3.5c0,0-0.1,0.1-0.1,0.1c-0.2,0.4,1.4-1.6,2-2.4c2-3,2.1-6.9,0.3-11.4c-0.4-0.9-0.4-1-0.4-1
	c0,0,0.1,0.1,0.1,0.1l0.1,0.1l0-0.2c0-0.2,0-0.2,0.1-0.2c0,0,0.1,0,0.1,0c0,0,0.1-0.1,0.1-0.2c0.1-0.1,0.2-0.2,0.2-0.3
	c0.1-0.1,0.1-0.1,0.1-0.1c0,0.1,0.1,0.1,0.1-0.1c0-0.1,0-0.1,0.1-0.2c0,0,0,0,0,0c0,0,0,0.1,0,0.1c0.1,0,0.4-0.2,0.4-0.2
	c0-0.1,0-0.2,0.1-0.1c0.1,0,0.1,0,0.1-0.1c0-0.1,0-0.1,0-0.1c0,0,0.2-0.1,0.2-0.2c0,0,0,0,0.1,0c0.1,0.1,0.2,0.1,0.1,0
	c0,0,0-0.1,0.1-0.1c0.1,0,0.1-0.1,0.1-0.1s0-0.1,0.1-0.1c0.1,0,0.1-0.1,0.1-0.1c0-0.1,0.1-0.1,0.1-0.1c0,0,0,0,0-0.1
	c-0.1-0.1-0.1-0.1,0-0.1c0,0,0.1,0,0.1,0c0-0.2,0-0.3,0-0.3c0,0,0-0.1,0-0.2c0-0.1,0-0.2,0.1-0.1c0.1,0,0.1,0,0,0
	c-0.2-0.2,0.2,0,0.4,0.3c0.2,0.2,0,0-0.2-0.3c-1.4-2.2-3.1-3.7-5.6-5.4C35.7,9,33.8,8,34,8.2 M43.5,17.3c0,0,0.1,0.3,0.2,0.5
	c1.1,2.7,1.1,7,0,10.5c-0.7,2.4-2,4.6-3.6,6.5c-0.7,0.8-2.2,2.2-2.7,2.6c-1,0.7-3.3,2.8-3.2,2.9c0,0,0,0,0,0c0,0-0.1,0-0.2,0.1
	c-0.1,0.2-0.1,0.2,0,0c0.2-0.1,0.2-0.1,0.1,0.1c-0.1,0.1-0.1,0.1,0,0.1c0,0,0.1,0.1,0.1,0.1c0,0.1,0,0.1,0.1,0.1
	c0.1,0,0.1,0,0.1,0.2c0,0.1,0,0.2,0,0.3c0,0.1,0.1,0.2,0,0.2c0,0,0,0,0,0s0.1,0.1,0.1,0.1c0,0.1,0,0.1,0.1,0.2s0.1,0.1,0.2,0.2
	c0.1,0.1,0.1,0.2,0.1,0.2s0,0,0,0.1c0,0,0,0.1,0.1,0.1s0.1,0.1,0.1,0.2c0,0,0,0,0.1,0c0.1,0,0.1,0,0.1,0.2c0,0.1,0,0.2,0,0.2
	c0,0,0,0,0,0.1c0,0,0.1,0.1,0.1,0.1c0.1,0,0.1,0.1,0.1,0.1c0,0,0,0.1,0,0.2c0,0.1,0.1,0.2,0.1,0.4c0.1,0.6,0.1,0.6,0.2,0
	c0-0.3,0.2-0.6,0.2-0.4c0,0,0,0,0.1-0.1c0.1-0.1,0.1-0.1,0.1,0.1c0,0.2,0,0.2,0.2,0.2c0.2,0,0.2,0.1,0.1,0.2c0,0,0,0,0,0
	c0,0,0.1,0,0.1,0c0,0,0,0.1,0,0.1s0,0,0,0.1s0.1,0,0.1,0c0.1,0,0.1,0,0.1,0.1c0,0,0,0.1,0,0.1c0.1,0,0.3,0.2,0.3,0.2
	c0,0,0,0.1,0.1,0.1c0.1,0,0.1,0.1,0.2,0.1c0,0,0.1,0.1,0.1,0c0,0,0,0,0,0c0,0-0.1,0-0.1,0c0,0,0,0,0,0.1c0,0.1,0.1,0.1,0.1,0.1
	c0,0,0.1,0,0.1,0.1s0,0.1,0,0.1c0,0,0,0.1,0,0.2c0,0.1,0,0.1,0.1,0.1c0.1-0.1,0.1-0.1,0,0c0,0.1,0,0.1,0,0.1c0,0,0,0,0,0.1
	c-0.1,0.1,0,0.1,0.1,0.1c0.1,0,0.4,0.3,0.3,0.3c0,0,0,0,0,0.1c0,0,0.1,0,0.1,0c0.1,0,0.1,0,0.1,0c0,0,0,0.1,0,0c0,0-0.1,0-0.1,0.1
	c0,0.1,0,0.1,0.1,0.2c0,0,0.1,0,0-0.1c0-0.1,0-0.1,0.1,0c0.1,0.1,0.1,0.1,0.1,0.1c0,0,0,0,0,0.1c0,0,0,0-0.1,0c0,0-0.1-0.1-0.1,0
	c0,0,0,0.1,0,0.1c0,0,0.1,0.1,0,0.1c0,0.1,0,0.1,0.1,0.1c0.1,0,0.1,0,0,0.1c-0.1,0.1-0.1,0.3,0,0.2c0,0,0.1,0,0.2,0.1
	c0.1,0.1,0.1,0.1,0.1,0.2c-0.1,0.1-0.1,0.2,0,0.1c0-0.1,0.1-0.1,0.1-0.1c0,0,0,0.1,0,0.1c0,0.1,0.2,0.3,0.2,0.2c0,0,0,0,0,0.1
	c0,0.1,0,0.2,0,0.2c0,0,0,0.1,0,0.1c0,0.1,0,0.1,0.1,0.1c0,0,0.1,0,0.1,0s0,0.1,0,0.1c0,0,0,0.1,0.1,0.1c0,0,0.1,0.1,0,0.1
	c0,0.1,0,0.1,0,0.1c0,0,0.1,0,0.1,0c0,0,0,0.1,0.1,0.1c0.1,0,0,0-0.1,0c-0.1,0-0.2,0.1-0.1,0.1c0,0,0,0,0,0c0-0.1,0-0.1,0.1,0
	c0,0,0.1,0.1,0,0.1c0,0.1,0.1,0.2,0.2,0.1c0.1-0.1,0.1,0,0,0.1c-0.1,0.2-0.1,0.2,0,0.2c0,0,0.1,0,0,0.1c0,0.1,0,0.1,0,0
	s0.1-0.1,0.1,0c0,0,0,0.1,0.1,0.1c0,0,0.1,0,0.1,0.1c0,0.1,0,0.1,0.1,0.1c0.1,0,0.1,0,0,0.1c0,0,0,0.1,0,0.1c0.1,0,0.1,0.1,0,0.2
	c0,0.1,0,0.1,0,0.1c0,0,0.1,0,0.1,0.1c0,0,0,0.1,0,0.1c0,0,0,0,0,0.1c0,0.1,0,0.1,0.1,0.1s0.1,0,0.1,0.1c0,0.1,0,0.1-0.1,0.1
	c0,0,0,0,0,0.1c0,0,0.1,0,0.1,0c0.1-0.1,0.2,0.1,0.2,0.3c0,0.1,0,0.1,0.1,0.1c0,0,0.1,0.1,0.1,0.1c0,0,0,0.1,0.1,0
	c0.1,0,0.1,0,0,0.1c-0.1,0-0.1,0.1-0.1,0.1c0,0,0.1,0,0.1,0c0.1,0,0.2,0.1,0.1,0.2c-0.1,0.1-0.1,0.1,0,0c0,0,0.1,0,0.1,0.1
	c0,0.1,0,0.1,0,0c0-0.1,0.1,0,0.1,0c0,0.1,0,0.1,0,0.1c0,0,0,0.1,0.1,0.1l0.1,0.1l3.7,0c2,0,3.7,0,3.7,0c0-0.1-0.4-0.8-1.1-2
	c-1.8-3.2-2.2-4-2.7-5.1c-1.5-3.7-1.5-6.3-0.3-9.6c0.5-1.2,0.7-1.8,0.9-2.5c1.4-4.9,1-9.5-1.2-14.2C43.8,17.7,43.5,17.2,43.5,17.3
	 M32.8,17.6c0,0.1-0.1,0.1-0.1,0.1c0,0,0,0,0,0.1c0,0.1,0,0.1,0,0.1c0,0-0.2,0.1-0.3,0.2c-0.1,0.1-0.3,0.2-0.3,0.2s-0.1,0-0.1,0.1
	c0,0-0.1,0.1-0.2,0.1c-0.1,0-0.2,0.1-0.3,0.3s-0.4,0.3-0.5,0.4c-0.1,0.1-0.4,0.3-0.6,0.5c-0.3,0.3-0.6,0.5-0.8,0.7
	c0,0-0.1,0.1-0.2,0.2c-0.1,0.1-0.2,0.2-0.3,0.3c-0.4,0.4-0.8,0.7-1.2,1c-0.2,0.2-0.5,0.5-0.6,0.6c-0.1,0.1-0.3,0.3-0.4,0.3
	s-0.2,0.2-0.3,0.3s-0.3,0.3-0.4,0.4c-0.1,0.1-0.2,0.2-0.3,0.2c0,0-0.2,0.2-0.4,0.4c-0.2,0.2-0.4,0.4-0.5,0.4c0,0-0.2,0.1-0.4,0.3
	s-0.4,0.3-0.5,0.4c-0.1,0.1-0.2,0.2-0.2,0.2c0,0-0.1,0.1-0.1,0.1s-0.1,0-0.1,0c0.2,0.1,2-0.5,3-0.9c2.4-1.1,4.6-3.1,5.4-5.1
	c0.4-0.8,0.7-1.9,0.6-2C32.8,17.5,32.8,17.5,32.8,17.6 M4.1,18.4c-0.9,1.7-1.5,3.7-1.8,5.9c-0.7,4.6,1.8,8.1,5.8,8.1h1l0.1,0.2
	c0,0.1,0.1,0.3,0.1,0.4c0.2,0.4-0.9,2.7-2.5,5.5c-0.3,0.6-0.6,1.1-0.6,1.1c0,0,0.1,0.1,0.2,0.1c0.1,0,0.6,0.2,1,0.4
	c0.5,0.2,1,0.4,1.3,0.5c0.5,0.2,1,0.4,1,0.5c0,0-0.2,0.3-0.3,0.7C9,42.3,8.9,42.4,9,42.5s1.1,0.8,1.2,0.8c0,0,0,0.1-0.1,0.2
	C10,43.7,9.9,43.8,9.8,44l-0.1,0.2l0.1,0.2c0.1,0.1,0.3,0.2,0.5,0.4l0.3,0.2l0,0.3c0,0.2-0.1,0.6-0.1,0.9c0,0.4-0.1,0.8-0.1,1
	c0,0.3-0.2,1.8-0.3,2.4c-0.1,0.3-0.1,0.3,0.7,0.2c2.2-0.4,4.2-1.2,7.8-3.1c1.5-0.8,2-0.6,2.1,0.7c0.1,1.1-0.2,3-0.4,4.1l-0.1,0.6
	l0.4,0l0.4,0l0.2-0.6c0.9-3.4,2.3-6.4,4.5-9.3c1.6-2.2,2.3-3.4,2.6-5c0.7-3.5-0.6-5.9-4.1-7.2c-1.8-0.7-1.9-0.8-2.5-1.1
	c-0.6-0.4-1.1-0.8-1.4-1.3L20,27l-0.7,0c-5.3,0.1-10.7-2.6-12.8-6.4c-0.2-0.4-0.2-0.3,0,0.6c0.6,2.7,2.3,5,4.7,6.2
	c0.9,0.4,1.8,0.7,3.5,1c2.6,0.5,3.7,1.3,4.4,3.2c0.4,1.3,0.4,2.2,0,3.3L19,35.1l0.2-0.2c0.4-0.5,1.1-1.2,1.8-2
	c1.3-1.5,1.9-1.9,2.7-1.6c1.7,0.7,1.6,4.4-0.2,7.9c-1.4,2.7-3.8,4.9-7.3,6.8c-2,1.1-3.5,1.7-4.3,1.8l-0.3,0l0-0.3c0-0.2,0-0.7,0-1.2
	c0-0.5,0.1-1.2,0.1-1.6c0-0.6,0.1-0.8,0.1-0.8c0.1,0,0.5-0.4,1-0.8c0.5-0.4,0.9-0.8,0.9-0.8c0,0-0.5-0.1-1-0.2
	c-1.8-0.4-2.5-0.6-2.4-0.7c0-0.2,0.4-1.1,0.6-1.4c0.1-0.2,0.2-0.4,0.2-0.4c0,0-1.3-0.2-2.1-0.2l-0.7-0.1l0-0.1c0-0.2,1.7-4,2-4.6
	l0.2-0.3l1-0.6c1-0.6,2-1.2,2.1-1.3c0.1-0.1,0-0.1-0.7-0.2c-4-0.4-7.1-2.8-8.3-6.4c-0.7-2-0.8-5.2-0.3-7.3
	C4.4,17.7,4.4,17.7,4.1,18.4 M35.1,29C35,29,35,29,35,29c0,0,0,0,0,0c0,0.1,0,0.1,0,0.1c0,0-0.1,0-0.1,0c-0.1,0.1-0.1,0,0,0
	s0-0.1,0,0c0,0-0.1,0.1-0.1,0.2c0,0.1-0.1,0.1-0.3,0c0,0-0.1,0-0.1,0c0,0.1,0,0.1-0.1,0.1c0,0-0.1,0-0.1,0.1
	c-0.1,0.1-0.1,0.1-0.2,0.2c-0.3,0-0.3,0-0.3,0.1c0,0-0.1,0.1-0.3,0c-0.1,0-0.1,0-0.1,0s0,0.1,0,0.1c0,0-0.1,0.1-0.2,0.1
	c-0.1,0.1-0.1,0.1-0.1,0c0,0,0-0.1,0-0.1c0,0-0.1,0-0.1,0.1c0,0-0.1,0.1-0.1,0.1c-0.1,0-0.1,0.1-0.2,0.1c0,0.1-0.1,0.1-0.1,0.1
	c-0.1,0-0.3,0-0.4,0.1c-0.1,0.1-0.2,0.1-0.2,0.1s-0.1,0-0.2,0c-0.1,0-0.2,0-0.2,0s0,0-0.1,0c0,0-0.1,0-0.2-0.1
	c-0.1-0.1-0.1-0.1-0.1,0c0,0,0,0.1-0.1,0c-0.1,0-0.1-0.1,0.1,0.4c0.5,1.4,0.8,3.5,0.6,4.7c-0.1,0.8-0.5,2.1-0.8,2.5
	c-0.2,0.3-0.1,0.2,0.6-0.3c0.2-0.2,1.1-0.9,2-1.6c0.9-0.7,1.9-1.5,2.1-1.7l0.4-0.4l0-0.9c-0.1-1.9-0.3-3.9-0.5-3.9
	c0,0-0.1,0-0.1-0.1C35.4,28.9,35.3,28.9,35.1,29 M38.6,47.6C38.6,47.6,38.6,47.6,38.6,47.6C38.7,47.7,38.7,47.6,38.6,47.6
	C38.7,47.5,38.6,47.5,38.6,47.6"/>
<path id="path1" class="st1" d="M27.9,7c0,0,0.5,0.3,1,0.7c1.5,0.9,2.2,1.5,3.1,2.6c0.1,0.1,0.1,0.2,0.1,0.1
	c-0.5-0.7-2.3-2.4-2.7-2.4c0,0,0,0,0-0.1c0,0,0-0.1,0-0.1c0-0.1,0-0.1,0-0.1c0,0,0.1,0,0.1,0c0,0.1,0,0,0-0.1c0-0.1,0-0.2-0.1-0.2
	c-0.2-0.1,0.1-0.1,0.6-0.1c0.6,0,1.6,0.2,1.7,0.3c0.1,0,0.1,0.1,0.2,0.1c0.1,0,0.1,0.1,0.2,0.1c0.1,0.1,0.1,0.1,0.2,0.1
	c0.1,0,0.2,0,0.3,0.1C32.8,8.1,33,8.1,33,8.1c0.1,0,0.1,0,0.1,0c0,0,0.1,0.1,0.1,0.1s0.1,0,0.1-0.1c0,0,0-0.1,0.1-0.1
	c0.1-0.1-1.5-0.6-2.7-0.8C29.9,7,27.9,6.9,27.9,7 M33.2,7.9C33.3,8,33.4,8,33.2,7.9C33.2,8,33.1,8,33.2,7.9c-0.1,0-0.1,0-0.1,0
	c-0.1,0-0.1,0,0,0s0,0-0.1,0c-0.1,0-0.1,0-0.1,0C32.9,7.8,33,7.8,33.2,7.9 M33.4,8.2C33.4,8.2,33.5,8.3,33.4,8.2
	c0.1,0.1,0.3,0.2,0.4,0.2c0.1,0.1,0.4,0.2,0.5,0.3C34.9,9,35,9.1,35.1,9.2c0,0.1,0.1,0.1,0.1,0.1c0,0,0.1,0,0.1,0.1
	c0.1,0.1,0.2,0.2,0.2,0.1c0,0,0.1,0,0.1,0c0.1,0,0.1,0.2,0,0.3c-0.1,0,0,0.2,0.1,0.1c0.1,0,0.1,0,0,0.1c-0.1,0.1-0.2,0.1-0.1,0
	c0,0,0-0.1,0-0.1c-0.1,0-0.1,0.1-0.1,0.3c0,0.1-0.1,0.3-0.2,0.2c0,0-0.1,0-0.1,0c-0.1,0-0.1,0.1,0,0.1c0.1,0.1-0.3,0.2-0.4,0.1
	c-0.1-0.1-0.1-0.1-0.1,0c0,0.1,0,0.1-0.1,0.1c0,0,0,0,0,0.1c0,0,0,0.1,0,0.1s-0.1,0-0.1,0c0,0-0.1,0-0.1,0c-0.1,0.1-0.1,0.1,0,0
	c0.1,0,0.1-0.1,0.1-0.2c0-0.1,0-0.1-0.1,0c-0.1,0.2-0.2,0.1-0.2,0c0-0.1,0-0.1,0-0.1c0,0-0.1,0.1-0.1,0.1c0.1,0.2-0.1,0.3-0.2,0.1
	c-0.1-0.1-0.1-0.1-0.1,0c0,0.1,0,0.1-0.1,0.1c0,0-0.1,0-0.1,0s-0.1,0-0.1-0.1s0-0.1,0.1-0.1s0.1,0,0.1-0.1c0-0.1,0-0.1,0,0
	c-0.1,0.1-0.2,0.2-0.3,0.1c-0.1-0.1-0.2-0.1-0.2,0c0,0,0,0.1-0.1,0.1c0,0,0,0,0,0.1c0,0.1,0,0.1,0,0.1s-0.1,0-0.1-0.1s0,0-0.1,0
	c-0.1,0.1-0.1,0.1-0.1,0c0-0.1,0-0.1,0-0.1c0,0-0.1,0-0.1,0.1s0,0.1-0.1,0.1s-0.1,0-0.1,0.1c0,0-0.1,0-0.1-0.1
	c-0.1-0.2-0.1-0.2-0.1-0.2c0,0,0.1,0,0.1,0c0,0,0-0.1-0.1,0c0,0-0.1,0-0.2-0.1c-0.1,0,0,0.1,0.1,0.2c0.1,0.2,0.2,0.3,0.2,0.2
	c0.1-0.1,0.1-0.1,0.1,0c0,0.1,0,0.1,0,0.2c0,0.1,0,0.1-0.1,0c-0.1-0.1,0,0.2,0.2,0.5c0.8,1.5,1.1,2.8,1,4.5c0,1,0,1,0,1.3
	c0,0.6-1.2,3-2.3,4.5l-0.5,0.7l0.2,0.2c2.2,1.8,3.3,3.5,4.1,6.1c0.1,0.3,0.2,0.6,0.2,0.5s0,0,0,0.1c0,0.1,0,0.1,0,0.1
	c0.1,0,0.1,0,0,0.2c0,0.2,0,0.2,0,0.1c0-0.1,0,0,0,0.2c0,0.2,0,0.2,0,0.2c0-0.1,0.1,0,0,0.2c0,0.1,0,0.2,0,0.1
	c0.1-0.1,0.1,0.1,0.1,0.7c0,0.2,0.1,0.5,0.1,0.5c0,0.1,0.1,0.5,0.1,0.8c0,0,0,0.1,0,0c0,0,0,0,0,0.1s0,0.1,0,0.1c0,0,0,0,0,0.1
	c0,0.1,0,0.2,0.1,0.2c0,0,0,0,0-0.1c0-0.1,0-0.1,0-0.1c0.1,0,0.1,0,0.1-0.1c0-0.1,0.1-0.2,0.1-0.2c0,0,0.1-0.1,0.1-0.2
	s0-0.1,0.1-0.2c0.1-0.1,0.1-0.3,0.1-0.6c0-0.1,0-0.2,0.1-0.2c0.1,0,0.1,0,0.1-0.1c0,0,0.1-0.1,0.1-0.1c0.1,0,0.1-0.1,0.1-0.1
	c0-0.1,0-0.1,0.1,0c0.1,0,0.1,0.1,0,0.1c0,0,0,0.1,0,0.1c0.1,0.1,0.1,0.1,0.1,0c0,0,0-0.1,0-0.1c0,0,0.1,0,0,0.1
	c-0.1,0.4,0.2,0.3,0.4-0.1c0.1-0.1,0.1-0.2,0.1-0.2c0,0,0-0.1,0-0.1c0-0.1,0.1-0.4,0.2-0.8c0.3-1.2,0.4-1.3,0.5-2
	c0.1-0.4,0.2-0.7,0.2-0.7c0,0,0,0,0-0.1c0-0.1,0-0.1,0-0.1c0.1-0.1,0.2-1.4,0.2-2.4c0-2.3-0.5-4.7-1.5-7.4c-0.2-0.5-0.1,0,0.2,0.7
	c0.3,1,0.4,1.8,0.1,1.9c0,0,0,0,0-0.1c0,0,0-0.1,0-0.1c0,0-0.1,0-0.1,0c0,0.1,0,0.1-0.1,0c-0.1,0-0.1-0.1-0.1,0c0,0.1,0,0.2-0.1,0.2
	c-0.1,0-0.1,0-0.1,0.1c0,0.1-0.1,0.2-0.1,0.2c0,0-0.1,0.1-0.1,0.1c0,0.1,0,0.1-0.1,0.1c-0.1,0-0.1,0-0.1,0.1c0,0,0,0.1,0,0.1
	s-0.1,0.1-0.1,0.1c0,0.1-0.1,0.1-0.1,0.2c-0.1,0-0.2,0.1-0.2,0.2c-0.1,0.2-0.2,0.2-0.2,0c0,0,0,0,0,0c0,0-0.1,0-0.1,0
	c-0.1,0-0.3,0.1-0.3,0.2c0,0,0,0-0.1,0c-0.1,0-0.1,0-0.1,0s0,0-0.1,0c0,0-0.1,0-0.1,0c0,0,0,0-0.1,0c-0.1-0.1-0.4,0.1-0.4,0.2
	c0,0,0,0-0.1,0c-0.1-0.1-0.1-0.1,0-0.1c0.1-0.1,0.1-0.1,0-0.1c0,0-0.1,0-0.1,0.1c0,0,0,0.1-0.1,0.1c-0.1,0-0.1,0-0.1,0.1
	c0,0.1,0,0.1-0.2,0.1c0,0-0.1,0,0,0.1c0,0,0,0.1-0.1,0.1c-0.1,0-0.1,0-0.2,0.1c0,0-0.1,0.1,0,0.1c0,0,0,0,0,0.1c0,0,0,0.1,0,0.1
	c0,0,0,0.1-0.1,0c-0.1,0-0.3,0.1-0.2,0.2c0.1,0.1,0.1,0.1,0,0c0,0-0.1,0-0.1,0c0,0-0.1,0-0.1,0c-0.1,0-0.1,0-0.1,0
	c0,0.1,0,0.1-0.1,0.1c0-0.1-0.1-0.1-0.1,0c-0.1,0.1-0.1,0.1-0.2,0s-0.1-0.1-0.1,0c0,0.1-0.1,0.1-0.1,0c0,0-0.1,0-0.3,0
	c-0.1,0-0.2,0-0.2,0c0,0-0.1-0.1-0.2-0.1c-0.1,0-0.1,0-0.1,0c0,0,0,0.1,0,0.1c0,0-0.1,0-0.1,0c-0.1,0-0.1,0,0,0c0,0,0.1-0.2,0.1-0.3
	c0-0.2,0-0.2,0.1-0.2c0.1,0,0.1,0,0,0c-0.1,0-0.1-0.1-0.1-0.1c0,0,0-0.1-0.1-0.1c0,0,0-0.1,0-0.1c0-0.1,0-0.1-0.1-0.2
	c-0.1-0.1-0.2-0.3-0.1-0.3c0,0,0,0,0-0.1c0-0.1,0.3-0.6,0.3-0.6c0,0,0,0,0-0.1s0.1-0.3,0.3-0.6c0.1-0.3,0.3-0.5,0.3-0.6
	c0-0.1,0.1-0.1,0.1-0.1c0,0,0,0,0,0c-0.1-0.1,0-0.2,0.1-0.2c0,0,0,0,0,0c0,0,0.1-0.3,0.2-0.6c0.2-0.3,0.3-0.6,0.3-0.6
	s0.1-0.3,0.3-0.6c0.1-0.3,0.3-0.5,0.3-0.6s0.2-0.4,0.4-0.9c0.2-0.5,0.5-1.1,0.6-1.4c0.3-0.7,0.3-0.6,0.5-0.2
	c0.2,0.4,0.2,0.3-0.1-0.3c-0.1-0.2-0.2-0.5-0.3-0.8c-0.2-0.4-0.2-0.4-0.1-0.5c0.1,0,0.3-0.1,0.5-0.3c0.7-0.5,1-0.6,1.4-0.8
	c0.2-0.1,0.4-0.2,0.4-0.2c0.1-0.1-0.6-0.8-1.6-1.8C36,9.3,34.2,8.3,34,8.4c-0.1,0-0.1,0-0.1,0c0-0.1-0.1-0.1-0.2-0.1
	c-0.1,0-0.1,0-0.1,0c0,0,0-0.1-0.1-0.1S33.4,8.1,33.4,8.2 M11.7,9c-0.3,0.2-0.7,0.5-0.9,0.8c-0.2,0.2-0.4,0.4-0.4,0.3
	C10.3,10,8.7,11.5,8,12.4c-1.1,1.4-2.5,3.5-2.5,3.8c0,0.5,0.6,2.3,1.1,3.2c0.6,1.2,1,1.8,1.7,2.5c0.5,0.5,1.8,1.6,1.6,1.3
	c-0.1-0.1,0-0.1,0.1,0c0.1,0.1,0.1,0.1,0,0.1c-0.1,0,0.1,0.1,0.3,0.3l0.2,0.1l-0.1-0.1l-0.1-0.1l0.1,0.1c0.2,0.1,0.2,0.1,0.1-0.1
	c0-0.1-0.1-0.2-0.1-0.2c0,0-0.1,0-0.1-0.1s0,0,0,0s0.1,0,0.1-0.1c0.1-0.1,0.1-0.1,0-0.1c-0.1,0-0.1-0.2-0.1-0.2c0,0,0.1-0.1,0.1-0.1
	c0,0,0.1-0.1,0.1-0.2c0.1-0.1,0.1-0.1,0.1,0c0,0,0,0.1,0,0c0.1-0.1,0.1-0.2,0-0.2c0,0,0,0,0-0.1c0,0,0-0.2,0-0.3c0-0.2,0-0.2,0-0.2
	c0.1-0.1,0.1-0.1,0-0.1c-0.1,0-0.2-0.2-0.1-0.3c0,0,0-0.1,0-0.1c-0.1-0.1-0.1-0.5,0-0.5c0,0,0,0,0-0.1c0,0,0-0.1,0-0.1
	c0,0,0.1-0.1,0-0.1c0-0.1,0-0.1,0.1-0.2c0.1,0,0.1-0.1,0.1-0.2c0-0.1,0-0.1,0-0.1c-0.1,0-0.1,0,0-0.2c0-0.1,0.1-0.1,0.1-0.1
	c0,0,0.1,0.1,0.1,0.1c0.1,0,0.2,0.1,0.3,0.2c3.2,3.3,10,4.2,13.6,1.8c1.6-1.1,3.2-3,3.8-4.4c0.1-0.2,0.1-0.3,0.2-0.4
	c0.1-0.2,0-0.1-0.2,0c-0.1,0.1-1,0.7-1.4,0.9c-2,1-5.9,1.4-8.6,0.9c-1.8-0.4-3.8-1.5-4.8-2.9c-0.4-0.5-0.5-0.6-0.3-0.3
	c0.1,0.1,0.5,0.5,0.8,0.9c0.3,0.3,0.6,0.6,0.6,0.7c0,0,0,0,0,0c0.1-0.1,0.2,0,0.1,0.1c0,0.1-0.1,0.1-0.1,0c-0.1-0.2-0.3,0-0.2,0.2
	c0,0.1,0,0.1,0,0.1c-0.1-0.1-0.2-0.1-0.2,0c0,0,0,0.1,0.1,0c0.1,0,0.1,0,0.1,0c0,0,0,0.1,0.1,0.1c0.1,0,0.1,0,0.1,0.1
	c0,0,0,0.1-0.1,0.1c-0.1,0-0.1,0-0.1,0.2c0,0.1,0,0.2,0,0.2c0,0,0,0,0,0.1c0,0,0.1,0.1,0,0.1c0,0,0,0.1,0,0.1c0.1,0.1,0.1,0.1,0,0.2
	c-0.1,0.1-0.1,0.1,0,0.1c0,0,0.1,0.1,0,0.1c0,0-0.1,0-0.1-0.1c0,0-0.1,0-0.1,0c0,0.1-0.1,0.4-0.1,0.4c0,0-0.1,0-0.1-0.1
	c-0.1-0.1-0.1-0.1-0.2,0c0,0.1-0.1,0.1-0.1,0.1s-0.1,0-0.1,0.1c0,0.1-0.1,0.1-0.2,0.1c-0.1,0-0.2,0-0.2,0.1c0,0.1-0.1,0.1-0.2,0.1
	c-0.1,0-0.1,0,0,0c0.1,0,0,0.1,0,0.1c-0.1,0-0.1,0.1-0.1,0.1c0,0,0,0.1,0,0.1c0,0-0.1,0-0.1-0.1s0,0-0.1,0c-0.1,0-0.1,0.1-0.1,0.1
	c0,0.1-0.3,0-0.4-0.1c-0.1-0.1-0.2-0.1-0.2,0c0,0.1-0.1,0.2-0.2,0.2c0,0,0,0,0-0.1c0.1,0,0.1-0.1,0-0.1c-0.1,0-0.1,0-0.2,0.1
	C12,20,12,20,12,20c0-0.1-0.4-0.1-0.4,0c0,0,0,0.1,0.1,0c0.1,0,0.1,0,0.1,0c0,0.5-1.4-1.1-2.1-2.3c-1.5-2.9-0.5-7,2.1-8.7L12,8.9
	l0,0.2c0,0.1,0,0.3-0.1,0.4c0,0.1,0.1,0,0.2-0.3c0.1-0.2,0.2-0.4,0.3-0.4c0.1,0,0-0.1-0.1-0.1C12.3,8.7,12,8.8,11.7,9 M36,10
	c-0.1,0.5-0.1,0.5-0.3,0.4c-0.1,0-0.1-0.1,0-0.1c0,0,0.1-0.1,0.1-0.1c0-0.1,0-0.1-0.1-0.1c-0.1,0-0.2-0.1-0.1-0.2
	C35.8,10,36,10,36,10 M10.3,10.4c-0.1,0.1-0.1,0.2-0.2,0.3C10,10.8,10,10.9,10,10.8c0-0.1,0.3-0.6,0.4-0.6
	C10.4,10.3,10.3,10.3,10.3,10.4 M13.5,11.5c0,0.1,0.1,0.3,0.1,0.5c0.1,0.4,0.4,1.4,0.4,1.3c0,0,0-0.2-0.1-0.3
	c-0.1-0.3-0.1-0.5,0.1-0.5c0.1,0,0.2,0,0.3-0.1c0.1-0.1,0.1-0.1,0.2,0c0.1,0,0.1,0.1,0.1,0c0,0,0.1,0,0.1,0.1
	c0.1,0.1,0.2,0.1,0.2,0.1c0.1,0,0.1,0,0.2,0.1c0.1,0,0.2,0.1,0.3,0.1c0.1,0,0.4,0.1,0.6,0.2s0.6,0.2,0.9,0.2c0.2,0,0.5,0.1,0.7,0.1
	c0.2,0.1,1.9,0.1,2,0c0.1,0,0.2,0,0.1,0.1c0,0-0.1,0,0,0c0,0,0-0.1,0,0c0,0-0.1,0.1,0,0.1c0,0.1-0.1,0.3-0.4,0.6
	c-0.1,0.1-0.2,0.2-0.2,0.3c0,0,0.7-0.6,0.8-0.9c0.1-0.1,0.1-0.1,0.1-0.1c0,0,0,0,0-0.1s0-0.1,0-0.1c0,0-0.1,0-0.3,0.1
	c-0.6,0.2-2.3,0-3.2-0.2c-1.2-0.3-2.1-0.8-2.8-1.5C13.5,11.4,13.4,11.3,13.5,11.5 M14,13.5c0,0.1,0.1,0.2,0.1,0.2c0,0.1,0,0,0-0.1
	C14.1,13.5,14,13.5,14,13.5C14,13.4,14,13.4,14,13.5 M14.3,14.3c0,0.1,0.2,0.4,0.2,0.4c0,0,0-0.1-0.1-0.2
	C14.3,14.3,14.3,14.2,14.3,14.3 M21.9,14.6c0,0,0.6,0.1,1.4,0.1c1.4,0,1.7,0.1,1.8,0.1c0,0,0.1,0,0.1,0c0,0,0.1,0,0.1,0.1
	c0,0.1,0,0.1-0.1,0c-0.1,0-0.1,0,0,0c0.2,0.1,0.3,0.1,0.2-0.1c0,0,0-0.1,0-0.1c0,0,0.1,0,0.1,0.1c0,0.1,0.2,0.1,0.2,0.1
	c0,0,0-0.1-0.1-0.1c0,0-0.1,0-0.1,0c0-0.1,0.3,0,0.3,0c0,0.1,0,0.1-0.1,0c0,0-0.1,0-0.1,0c0,0.1,0.3,0.1,0.5,0.1
	c0.1,0,0.2,0.1,0.1,0.1c-0.1,0-0.1,0.1,0.1,0.2c0.1,0.1,0.1,0.1,0.1,0.1c0,0-0.1,0-0.1-0.1c-0.1-0.1-0.1-0.1-0.1,0.1
	c-0.1,0.2-0.1,0.2-0.1,0.1c0-0.1,0-0.1-0.1-0.1c0,0-0.1,0-0.1,0s0,0.1-0.1,0.1c-0.1,0-0.1,0-0.1,0.1c0,0.1-0.1,0.2-0.2,0.2
	c-0.1,0-0.1,0,0,0.1c0.1,0,0.1,0.1-0.1,0.1c-0.2,0-0.3,0-0.4,0c0,0,0,0,0,0.1c0.1,0.1,0,0.1-0.1,0.1c-0.1,0-0.1,0-0.1-0.1
	c0,0,0,0-0.1,0c0,0,0,0.1,0,0.1c0,0-0.1,0.1-0.1,0.1c-0.2,0.1-0.2,0.1-0.1-0.1c0.1-0.1,0.1-0.1-0.1,0c-0.1,0.1-0.1,0.1-0.1,0.2
	c0,0,0,0.1,0,0.1c0,0,0,0,0,0.1c0,0.1,0,0,0,0c-0.1-0.1-0.1-0.1-0.1,0c0,0.1-0.1,0.1-0.2,0.1c-0.1,0-0.1,0-0.1,0.1
	c0.1,0.1,0.1,0.1,0,0.2c-0.1,0.1-0.1,0.1-0.1,0c0-0.1,0-0.1,0-0.2c-0.1-0.1-0.1-0.1-0.1,0c0,0,0,0.1,0,0.2c0,0.1-0.1,0.1,0,0.2
	c0,0,0,0.1-0.1,0.1c-0.1,0-0.1,0,0-0.2c0.1-0.1,0.1-0.1,0-0.1c-0.1,0-0.1,0-0.1,0c0,0,0,0-0.1,0c0,0.1-0.1,0.1-0.1,0
	c0-0.1-0.1-0.1-0.1,0c-0.1,0-0.1,0.1,0,0.1c0.1,0.1,0.1,0.1,0.1,0c0-0.1,0-0.1,0.1,0c0.1,0.1,0.1,0.1-0.1,0.1c-0.1,0-0.2,0-0.2-0.1
	c-0.1-0.1-0.1-0.1-0.2-0.1c-0.1,0,0,0.1,0.1,0.1c0.1,0,0,0.1-0.1,0.2c-0.1,0-0.2,0.1-0.2,0c0,0,0-0.1-0.1-0.1c-0.1,0-0.1,0-0.1,0.1
	c0,0.1,0,0.1-0.1,0.1c-0.1,0-0.2,0-0.2,0.1c0,0,0,0.1-0.1,0.1c-0.1,0-0.2,0.1-0.2,0.1c0.1,0.1,0,0.1-0.2,0c-0.1-0.1-0.2-0.1-0.1,0
	c0,0.1,0,0.1,0,0c-0.1,0-0.1,0,0,0.1c0,0.1,0,0.1-0.2,0c-0.1-0.1-0.3-0.1-0.3,0.1c0,0.1-0.4,0.2-0.6,0.2c-0.1,0-0.2,0-0.3,0
	c-0.1,0-0.2,0-0.2-0.1c0,0,0,0-0.1,0c0,0-0.3,0-0.5,0c-0.3,0-0.5,0-0.5,0.1c0,0.1-0.8,0-0.9-0.1c0,0-0.1,0-0.1,0
	c-0.6-0.1-1.6-0.7-2.4-1.3l-0.4-0.4l0.4,0.3c1.6,1.6,4,2.1,8,1.7c2.8-0.3,4.8-1.3,6-3.1l0.1-0.1h-3.9C23.4,14.6,21.8,14.6,21.9,14.6
	 M26,14.9C26,14.9,26,14.9,26,14.9c-0.1,0-0.1,0-0.1-0.1C25.9,14.7,26,14.8,26,14.9 M26.4,14.9C26.5,14.9,26.4,14.9,26.4,14.9
	c-0.1,0-0.1,0-0.2,0c0,0,0,0,0,0C26.3,14.7,26.4,14.8,26.4,14.9 M26.8,14.9C26.8,14.9,26.8,14.9,26.8,14.9c-0.1,0-0.2,0-0.2,0
	c-0.1,0-0.1,0-0.1,0C26.5,14.7,26.8,14.8,26.8,14.9 M26.6,15.1c0,0-0.1,0.1,0,0.1c0,0,0,0.1,0,0c0,0-0.1,0-0.1,0s-0.1,0-0.1-0.1
	c-0.1-0.1,0.1-0.2,0.1-0.1C26.5,15.1,26.5,15.1,26.6,15.1c0-0.1,0-0.2,0-0.1C26.6,15,26.6,15.1,26.6,15.1 M26.8,15.1
	c0,0.1,0,0.1,0.1,0.1c0,0,0.1,0,0,0.1c0,0-0.1,0-0.1,0c-0.1,0-0.1-0.3,0-0.3C26.8,15,26.8,15,26.8,15.1 M14.9,15.4
	c0.1,0.1,0.2,0.3,0.2,0.3c0,0,0-0.1-0.1-0.2C14.8,15.1,14.7,15,14.9,15.4 M36.5,15.1c0,0,0,0.1,0.1,0.2c0,0.1,0.1,0.1,0.1,0.1
	C36.7,15.4,36.7,15.3,36.5,15.1C36.6,15.2,36.5,15.1,36.5,15.1 M25.2,15.6c0,0,0.1,0.1,0,0.1c0,0,0,0.1,0,0
	C25.4,15.7,25.4,15.6,25.2,15.6C25.2,15.6,25.2,15.6,25.2,15.6 M34.3,17.3c-0.1,0.3-0.2,0.4-0.2,0.2c0-0.1,0.2-0.4,0.2-0.4
	C34.4,17,34.4,17.2,34.3,17.3 M19.6,17.7c-0.1,0.1-0.4,0.1-0.4,0c0,0,0.1,0,0.2-0.1C19.5,17.6,19.6,17.6,19.6,17.7 M20,17.7
	c0,0-0.1,0-0.1,0s-0.1,0-0.1,0s0.1,0,0.1,0S20,17.6,20,17.7 M4.3,18.5c0,0.1-0.1,0.4-0.1,0.7c0,0.2,0,0.5-0.1,0.6
	C4,20.7,4,22,4,22.6l0,0.3l0-0.5c0-0.2,0-0.6,0-0.8c0-0.2,0-0.3,0.1-0.3c0.2,0,0.2,0,0.2-0.1c0,0,0-0.1,0-0.1c0.1,0,0.2-0.3,0.1-0.5
	c-0.1-0.1-0.1-0.2,0-0.2c0.1-0.1,0.1-0.1,0.1,0c0,0.1,0,0.1,0,0.1c0-0.1,0.1,0,0.1,0.3c0,0.2,0.1,0.4,0.1,0.4c0,0,0-0.2-0.1-0.5
	c0-0.3-0.1-0.9-0.2-1.3C4.4,19,4.4,18.5,4.3,18.5l0.1-0.2L4.3,18.5 M12.8,19.6C12.8,19.7,12.8,19.7,12.8,19.6
	c0.1,0.1,0.1,0.1,0.1,0.1c0,0,0,0.1,0,0.1c0.1,0,0.1-0.1,0-0.1C12.8,19.6,12.8,19.6,12.8,19.6 M11.9,20.3c0.1,0.1,0.2,0.1,0.2,0.1
	c0,0,0,0,0,0c0,0,0.1,0.1,0.2,0.2c0.3,0.2,0.5,0.4,0.2,0.2c-0.3-0.2-0.9-0.7-0.8-0.7C11.8,20.2,11.9,20.2,11.9,20.3 M35.8,21.2
	c-0.1,0-0.1,0.1-0.1,0.1C35.8,21.3,35.8,21.3,35.8,21.2c0,0.1,0.1,0,0.1,0C36.1,21.1,36,21.1,35.8,21.2 M4.8,21.4
	c0,0.1,0.2,0.8,0.2,0.7c0,0,0-0.2-0.1-0.4C4.8,21.5,4.8,21.4,4.8,21.4 M32.4,22.2C32.3,22.2,32.3,22.2,32.4,22.2
	c-0.1-0.2-0.1-0.2,0-0.1C32.4,22.1,32.4,22.1,32.4,22.2 M5,22.2c0,0,0,0.1,0,0.2c0,0.1,0,0.1,0,0C5,22.4,5,22.3,5,22.2
	C5,22.2,5,22.1,5,22.2 M5.1,22.5c0,0.1,0.2,0.5,0.2,0.5C5.3,23,5.1,22.5,5.1,22.5C5.1,22.5,5.1,22.5,5.1,22.5 M4.1,23.1
	C4.1,23.2,4.1,23.2,4.1,23.1C4.1,23.1,4.1,23.1,4.1,23.1C4.1,23,4.1,23,4.1,23.1 M5.3,23.1c0,0.2,0.7,1.7,0.9,1.8
	c0.1,0.1,0-0.1-0.2-0.5c-0.2-0.3-0.4-0.8-0.5-1C5.3,23.2,5.3,23.1,5.3,23.1 M4.2,23.9c0,0.1,0,0.2,0.1,0.2
	C4.3,24.2,4.3,24.1,4.2,23.9C4.2,23.7,4.2,23.6,4.2,23.9 M6.3,25.3c0,0.1,0.1,0.2,0.1,0.2C6.5,25.5,6.4,25.4,6.3,25.3
	C6.2,25.1,6.2,25.1,6.3,25.3 M6.5,25.6c0.2,0.5,1.4,1.8,2.1,2.3C8.8,28,9,28.2,9,28.2c0,0,0,0.1,0.1,0c0.2,0,0.3,0.1,0.2,0.2
	c-0.1,0.1-0.1,0.1,0,0.1c0.2,0,0.2,0,0.3,0.1c0,0.1,0.1,0.1,0.1,0.1c0.1,0,0.1,0,0.1,0.1c0,0.1,0,0.1-0.1,0.1s-0.1,0,0,0.1
	C9.8,29,9.8,29,9.9,28.9c0,0,0.1,0,0.1,0c0,0,0,0.1,0,0.1c0,0,0,0.1,0.1,0.1c0.1,0.1,0.1,0.1,0.1,0.2s0,0.1,0.1,0.1
	c0.1,0.1,0.1,0.1,0.1,0c0,0,0.1,0,0.2,0.1c0.1,0.1,0.2,0.2,0.2,0.3s0,0.1,0.1,0.1s0.1,0,0.1,0c0-0.1,0.1-0.2,0.2-0.2c0,0,0,0,0,0.1
	c0,0.1,0,0.1,0,0c0.1,0,0.1,0,0,0.1c-0.1,0.1,0,0.1,0.1,0.3c0.1,0.1,0.1,0.2,0.1,0.1c0,0-0.1,0-0.1,0c0,0,0,0.1,0.1,0.1
	c0.1,0,0.1,0.1,0.1,0.2c0,0,0,0.1,0,0.1c0.1,0.1,0.1,0.1-0.1,0.3c-0.2,0.1-0.2,0.1-0.3,0l-0.1-0.1l0.1,0.1c0.1,0.1,0.2,0.2,0.2,0.1
	c0,0,0.1-0.1,0.1-0.1c0,0,0,0,0,0.1c0,0-0.1,0.1-0.1,0.1s-0.1,0-0.1,0.1s0,0,0.1,0c0,0,0.1,0,0.1,0c0,0,0,0.1-0.1,0.1
	c-0.1,0-0.1,0-0.1-0.1c0-0.1,0-0.1-0.1-0.1c-0.1,0.1-0.8,0.1-0.8,0s0-0.1-0.2-0.1c-0.1,0-0.2,0-0.2,0c0,0,0,0,0-0.1
	c0,0-0.2-0.1-0.2-0.1c0,0-0.1,0-0.1,0c-0.1-0.1-0.6-0.4-0.7-0.3C8.3,30.5,9.2,31,10,31.3c1,0.4,1.6,0.6,2.8,0.7
	c0.4,0.1,0.8,0.1,0.9,0.1c0.1,0,0.4,0.1,0.8,0.2c0.4,0.1,1.2,0.3,1.9,0.5c0.8,0.2,1.2,0.3,1.2,0.2c0,0,0.1,0,0.1,0c0,0,0,0,0.1-0.1
	c0,0,0-0.1,0-0.1c0,0,0-0.1,0-0.1c0,0,0.1-0.1,0-0.2s0-0.1,0-0.1c0,0,0-0.1,0-0.1s0-0.1,0-0.1c0,0,0.1-0.1,0.1-0.2
	c0-0.1,0-0.3,0-0.3c0,0,0-0.1,0-0.1c0,0,0-0.1,0-0.1c0.1-0.1,0.1-0.1,0-0.2c-0.1-0.1-0.1-0.1,0-0.1c0.3-0.2-1.3-0.7-2.3-0.8
	c-4-0.5-7-1.9-8.7-4.4C6.6,25.6,6.4,25.4,6.5,25.6 M25.1,26.1c-0.8,0.3-2.4,0.6-3.6,0.7c-0.8,0.1-0.7,0.1-0.5,0.3
	c0.5,0.5,3.5,2,3.6,1.8c0,0-0.3-0.2-0.7-0.3c-1.6-0.6-2.6-1.3-2.1-1.3c0.1,0,0.1,0,0.1-0.1c0,0,0-0.1,0,0c0,0,0,0,0-0.1
	s0-0.2,0.1-0.2c0,0,0,0,0-0.1c0,0,0,0,0,0s0.2,0,0.3,0c0.1,0,0.3-0.1,0.3-0.1s0.2,0,0.3-0.1c0.2-0.1,0.8-0.2,1.3-0.3
	c0.1,0,0.5-0.1,0.7-0.2c0.8-0.2,1-0.3,1-0.3c0,0,0.1,0.1,0.1,0.1c0.1,0,0.3,0.1,0.3,0.2c0,0,0.1,0,0.1,0c0.8,0.1,3.3,2.3,3.5,3.1
	c0.1,0.2,0.1,0.3,0.1,0.3c0.1,0,0.2,0.3,0.1,0.4c0,0.1,0,0.1,0,0.1c0,0,0.1,0.1,0.1,0.3c0,0.1,0,0.1,0.1,0.1c0.1,0,0,0.1,0,0.1
	c0,0-0.1,0.1,0,0.1c0,0,0.1,0,0.1,0c0,0,0,0,0.1,0c0,0,0,0.1,0,0.1c0,0-0.1,0.1,0,0.1c0,0,0,0-0.1-0.1c-0.1-0.1-0.2-0.1-0.2-0.1
	c0,0.1-0.1,0.1-0.2,0c-0.1-0.2-0.3-0.1-0.3,0.1c0,0.1,0,0.1-0.2,0c-0.1-0.1-0.3-0.1-0.3,0.1c0,0.1-0.1,0.1-0.2,0
	c-0.1-0.1-0.2-0.1-0.2,0c0,0.1-0.1,0.1-0.2,0c-0.1-0.1-0.1-0.1-0.1,0.1c0,0.1,0,0.1-0.1,0.1c0,0-0.1,0-0.1-0.1c0,0-0.1-0.1-0.1-0.1
	c-0.1,0-0.1-0.1-0.1-0.1c0,0-0.1,0-0.1,0c-0.1,0-0.2,0-0.2-0.1c0,0-0.1-0.1-0.2-0.1s-0.2-0.1-0.2-0.1c-0.1-0.1-0.1,0-0.1,0
	c0,0,0,0.1-0.1,0c0,0,0-0.1,0-0.1c0,0,0,0,0,0s-0.2-0.1-0.3-0.2c-0.1-0.1-0.3-0.2-0.3-0.2s-0.1,0-0.1-0.1c0-0.1-0.1-0.1-0.1-0.1
	c0,0-0.2-0.1-0.4-0.2c-0.4-0.2-1.2-0.6-1.3-0.6c0,0,0.2,0.1,0.4,0.2c1,0.4,1.7,0.9,2.3,1.5c0.2,0.2,0.4,0.4,0.4,0.4
	c0,0,0.1,0,0.1,0.1c0.1,0.1,0.1,0.1,0,0.1c-0.1-0.1-0.1,0,0.1,0.2l0.2,0.2l-0.1-0.2L28,31.3l0.1,0.1c0.1,0.1,0.1,0.2,0.1,0.2
	c0,0,0.1,0.2,0.2,0.5c1,1.8,1,4.2,0.1,6.4c-0.1,0.2-0.2,0.5-0.1,0.5c0,0,0,0,0,0.1c0,0,0,0.1,0,0.1c0,0,0.1,0,0,0.1
	c0,0.1,0,0.1-0.1,0.1c-0.1,0-0.1-0.1-0.1-0.1c0-0.1-0.1,0.1-0.3,0.5c-0.2,0.3-0.4,0.7-0.4,0.8c-0.1,0.1-0.1,0.2-0.1,0.2s0.1,0,0.1,0
	c0,0,0.1-0.2,0.2-0.3c0.1-0.2,0.2-0.3,0.2-0.4c0,0,0-0.1,0.1-0.1c0,0,0,0,0,0.1c-0.1,0.1,0,0.1,0.1,0c0-0.1,0.1-0.1,0,0
	c0,0.1,0.1,0.1,0.2,0c0,0,0.1,0,0.1,0c0,0,0,0.1-0.1,0.1c0,0-0.1,0-0.1,0.1c0,0.1-0.9,0.9-0.9,0.8c0,0,0,0-0.1,0.1
	c0,0.1-0.2,0.3-0.4,0.6c-2.5,3-4.5,6.8-5.3,10.1l0,0.1h2.9h2.9v-0.4c0-1.6,0.5-4,1.3-5.7c1-2.2,2-3.6,4.2-5.9c2-2,2.6-3.1,2.9-5.1
	c0-0.3,0.1-0.6,0.1-0.7c0.1-0.2,0.1-0.2,0-0.1c-0.1,0.1-0.3,0.3-0.5,0.5c-0.2,0.2-0.4,0.4-0.4,0.4c0,0,0.2-0.1,0.3-0.2
	c0.5-0.5,0.6-0.5,0.5,0.3c-0.3,1.8-0.9,2.9-2.9,4.9c-0.7,0.7-1.3,1.4-1.5,1.5c-0.1,0.2-0.2,0.3-0.3,0.3c-0.3,0.3-1.6,2.1-2.1,3.2
	c-0.2,0.3-0.3,0.6-0.3,0.6c0,0,0,0.1-0.1,0.2c0,0.1-0.1,0.1-0.1,0.1c-0.1,0-0.3,0.2-0.3,0.3c0,0.1-0.2,0.3-0.3,0.3
	c-0.1,0-0.1,0-0.1,0s0,0-0.1,0c-0.1-0.1-0.1-0.1-0.1,0c0,0.1-0.1,0.2-0.2,0.1c0,0-0.1,0-0.1,0c0,0,0,0.1,0.1,0.1
	c0,0,0.1,0.1,0.1,0.1c0,0-0.1,0-0.1,0c-0.1,0-0.1-0.1-0.1-0.1c0,0,0,0.1,0.1,0.1c0.1,0.1,0.1,0.1,0,0.1c0,0-0.1,0-0.1-0.1
	c0,0-0.1-0.1-0.1,0c0,0-0.1,0-0.1,0c0.1-0.1-0.2,0-0.3,0.1c-0.1,0.1-0.1,0.1-0.1,0.1s-0.1,0-0.1,0s0,0.1-0.1,0c-0.1,0-0.2,0-0.2,0
	c-0.1,0-0.1,0-0.1,0c0,0,0,0-0.1,0c0,0-0.1,0-0.1,0c0,0,0-0.1-0.1-0.1c-0.1,0-0.1,0-0.1,0.1c0,0,0,0.1,0,0.1c0,0-0.1,0-0.1,0
	c0,0-0.1,0-0.1,0.1c0,0,0,0.1,0,0c0,0,0-0.1,0-0.1c0-0.1-0.2-0.1-0.2,0c-0.1,0.1-0.1,0-0.1-0.1c0-0.1-0.1-0.2-0.2-0.2
	c0,0-0.1,0-0.1-0.1c-0.1-0.1-0.3-0.1-0.4,0c-0.1,0.1-0.2,0.1-0.2,0c0,0,0-0.1,0-0.1c0,0-0.1,0-0.1,0c0,0.1,0,0.1,0,0
	c0,0,0-0.1-0.1-0.1c0,0-0.1,0-0.1-0.1c0,0,0,0-0.1,0c-0.1,0.1-0.1,0-0.1-0.2c0-0.1,0-0.2,0.1-0.2c0.1,0,0.2-0.2,0.2-0.3
	c0-0.1,0.2-0.6,0.2-0.5c0,0.1,0.1,0,0.1,0c0,0,0,0-0.1,0c-0.1,0.1-0.1,0,0-0.2c0.1-0.1,0.1-0.1,0.1-0.1c0,0,0,0,0,0
	c0,0,0.2-0.4,0.5-0.8c1.2-1.8,2.3-3.1,4.1-4.6c0.5-0.5,1-0.9,1.1-1c0.1-0.1,0.1-0.2,0.1-0.3c0,0,0-0.1,0.1,0c0,0,0,0,0,0
	c0-0.1,0.1-0.4,0.2-0.4c0.1,0,0.3-0.6,0.2-0.7c0-0.1,0-0.1,0,0s0.1,0.1,0,0c0-0.1,0-0.1,0-0.1c0.2-0.1,0.4-2.1,0.3-3.1
	c-0.3-2.7-1.3-4.7-3.1-6.2c-0.6-0.5-0.7-0.5-1.1-0.8C26,25.9,26,25.8,25.1,26.1 M7,29.4c0.1,0.2,0.5,0.5,0.7,0.6l0.2,0.1L7.8,30
	c-0.1-0.1-0.1-0.1-0.2-0.1s-0.2-0.1-0.3-0.2C7.1,29.4,6.9,29.2,7,29.4 M10.3,29.6c0,0.1,0.1,0.1,0.1,0
	C10.4,29.6,10.4,29.6,10.3,29.6C10.3,29.6,10.3,29.6,10.3,29.6 M11.3,30.1c0,0-0.1,0.1-0.2,0.1c0,0-0.1,0-0.1-0.1
	c0,0,0.1-0.1,0.1-0.1S11.3,30.1,11.3,30.1 M10.8,30.2c0,0,0,0.1,0,0.1S10.9,30.3,10.8,30.2C10.9,30.1,10.9,30.1,10.8,30.2
	 M27.6,30.7C28,31.1,28,31.1,27.6,30.7c-0.1,0-0.2-0.1-0.2-0.1C27.5,30.6,27.6,30.6,27.6,30.7 M35.9,31.4
	C35.9,31.5,35.9,31.5,35.9,31.4C36,31.4,36,31.4,35.9,31.4C35.9,31.3,35.9,31.3,35.9,31.4 M18.7,31.8c0,0.1,0,0.1,0.1,0.2
	c0.2,0.1,0.2,0.1,0.1-0.2C18.7,31.7,18.7,31.7,18.7,31.8 M36,31.9C36,32.1,36,32.1,36,31.9C36,32,36,31.9,36,31.9
	C36,31.8,36,31.8,36,31.9 M36,32.9c0,0.1,0,0.2,0,0.1c0-0.1,0-0.2,0-0.2C36,32.7,36,32.8,36,32.9 M31.5,37.7
	c-0.4,0.3-0.6,0.5-0.5,0.5c0,0,0.1-0.1,0.2-0.2C31.3,37.9,31.5,37.8,31.5,37.7c0.1,0,0.2-0.1,0.2-0.1C31.6,37.6,31.5,37.6,31.5,37.7
	 M28.8,38.7c0,0.1-0.1,0.3-0.1,0.2c0-0.1,0.1-0.3,0.1-0.3C28.8,38.6,28.8,38.6,28.8,38.7 M28.1,46.2c0.1,0,0.1,0.1,0.1,0.1
	C28.2,46.2,28.1,46.1,28.1,46.2C28,46.1,28,46.2,28.1,46.2 M25,46.6C25.1,46.6,25,46.7,25,46.6c-0.1,0.1-0.2,0.1-0.2,0.1
	c0,0,0,0.1,0.1,0.1c0,0,0.1,0,0.1,0.1s0,0.1-0.1,0.1c0,0-0.1,0-0.1-0.1s0,0-0.1,0c-0.1,0.1,0-0.1,0.1-0.2c0.1,0,0.1-0.1,0.1-0.1
	C24.9,46.6,24.9,46.6,25,46.6 M26.6,47c0,0.1-0.1,0-0.1-0.1C26.5,46.9,26.5,46.9,26.6,47C26.6,46.9,26.6,46.9,26.6,47"/>
<path id="path2" class="st2" d="M29.6,7.4C29.6,7.4,29.6,7.4,29.6,7.4c0,0.1,0.1,0.2,0.1,0.2c0,0.1,0,0.1,0,0.1c0,0-0.1-0.1-0.1,0
	c0,0,0,0.1,0,0.1c0,0,0,0.1,0,0.1c0,0,0,0.1,0,0.1c0.3,0,2,1.4,2.7,2.4c0.2,0.2,0.3,0.3,0.3,0.3c0,0,0.1,0,0.1,0s0,0-0.1,0
	c-0.1-0.1-0.1,0,0.1,0.3c0.2,0.3,0.3,0.4,0.2,0.2c0-0.1,0-0.1,0-0.2c0-0.1,0-0.1-0.1,0c-0.1,0-0.1,0-0.1,0c0,0,0-0.1,0.1-0.1
	s0.1,0,0.1-0.1c0,0,0-0.1,0.1-0.1c0,0,0,0.1,0,0.1c0,0.1,0,0.1,0.1,0c0-0.1,0.1-0.1,0.1,0c0,0,0,0.1,0.1,0.1c0,0,0.1,0,0-0.1
	c0,0,0-0.1,0-0.1s0.1,0,0.1-0.1c0-0.1,0-0.1,0.2,0c0.1,0.1,0.2,0,0.3-0.1c0,0,0,0,0,0c0,0.1,0,0.1-0.1,0.1c0,0-0.1,0-0.1,0.1
	s0,0.1,0.1,0.1c0,0,0.1,0,0.1,0c0.1,0,0.1,0,0.1-0.1s0-0.1,0.1,0c0.1,0.1,0.3,0,0.2-0.1c0-0.1,0-0.1,0.1-0.1c0.1,0,0.1,0,0,0.1
	c-0.1,0.2,0.1,0.2,0.2,0c0.1-0.1,0.1-0.1,0.1,0c0,0.1,0,0.1-0.1,0.2c-0.1,0.1-0.1,0.1,0,0c0.1,0,0.1,0,0.1,0c0,0,0.1,0,0.1,0
	s0-0.1,0-0.1c0,0,0-0.1,0-0.1s0.1-0.1,0.1-0.1c0-0.1,0-0.1,0.1,0c0.1,0.1,0.5,0,0.4-0.1c0-0.1,0-0.1,0-0.1c0,0,0.1,0,0.1,0
	c0,0.1,0.2,0,0.2-0.2c0-0.2,0-0.3,0.1-0.3c0,0,0,0,0,0.1c-0.1,0.1,0,0.1,0.1,0c0.1-0.1,0.1-0.2,0-0.1c-0.1,0-0.1-0.1-0.1-0.1
	c0.1-0.1,0.1-0.3,0-0.3c-0.1,0-0.1,0-0.1,0c0,0.1-0.1,0-0.2-0.1c0-0.1-0.1-0.1-0.1-0.1c0,0-0.1,0-0.1-0.1C35,9,34.9,8.9,34.4,8.7
	c-0.2-0.1-0.4-0.2-0.5-0.3c-0.1-0.1-0.3-0.2-0.3-0.2c0,0-0.1,0-0.1-0.1c0,0,0-0.1,0.1-0.1s0.1,0,0.1,0.1c0,0,0,0,0.1,0
	c0.1,0,0.2,0,0.2,0.1c0,0,0,0.1,0.1,0.1s0.2,0,0.2,0c0.1,0,0,0-0.1-0.1C33.8,8,33,7.8,32.9,7.9c-0.1,0.1,0,0.1,0.1,0
	c0.1,0,0.1,0,0.1,0c0,0,0,0,0,0c0,0,0.1,0,0.1,0c0,0,0,0,0.1,0c0.1,0,0.1,0,0.1,0.1c0,0.1-0.1,0.1-0.2,0c0,0-0.1,0-0.1,0
	c-0.1,0-0.2,0-0.3-0.1c-0.1-0.1-0.2-0.1-0.3-0.1c-0.1,0-0.2-0.1-0.2-0.1c-0.1-0.1-0.1-0.1-0.2-0.1c-0.1,0-0.1,0-0.2-0.1
	C31.7,7.4,29.8,7.2,29.6,7.4 M11.7,9.1c-2.4,1.7-3.3,5.8-1.9,8.6c0.6,1.2,2.1,2.8,2.1,2.3c0-0.1,0-0.1-0.1,0c-0.1,0-0.1,0-0.1,0
	c0-0.1,0.4-0.1,0.4,0c0,0.1,0,0.1,0.1,0c0-0.1,0.1-0.1,0.2-0.1c0.1,0,0.1,0,0,0.1c0,0-0.1,0.1,0,0.1c0.1,0,0.2-0.1,0.2-0.2
	c0-0.1,0-0.1,0.2,0c0.1,0.1,0.4,0.1,0.4,0.1c0,0,0-0.1,0.1-0.1c0.1,0,0.1,0,0.1,0c0,0,0,0.1,0.1,0.1c0,0,0,0,0-0.1
	c0-0.1,0-0.1,0.1-0.1c0.1,0,0.1,0,0-0.1c-0.1,0,0,0,0,0c0.1,0,0.1-0.1,0.2-0.1c0.1-0.1,0.1-0.1,0.2-0.1c0.1,0,0.1,0,0.2-0.1
	c0-0.1,0.1-0.1,0.1-0.1s0.1,0,0.1-0.1c0.1-0.1,0.1-0.1,0.2,0c0,0,0.1,0.1,0.1,0.1c0,0,0.1-0.3,0.1-0.4c0,0,0,0,0.1,0
	c0,0,0.1,0.1,0.1,0.1c0,0,0,0,0-0.1c-0.1,0-0.1-0.1,0-0.1c0.1-0.1,0.1-0.2,0-0.2c0,0,0-0.1,0-0.1s0-0.1,0-0.1c0-0.1,0-0.1,0-0.1
	s0.1-0.1,0-0.2c0-0.1,0-0.2,0.1-0.2c0,0,0.1,0,0.1-0.1c0,0-0.1-0.1-0.1-0.1c-0.1,0-0.1,0-0.1-0.1c0,0,0,0-0.1,0c-0.1,0-0.1,0-0.1,0
	c0-0.1,0.2-0.1,0.2,0c0,0,0,0,0-0.1C14.7,17.2,15,17,15,17.2c0,0.1,0,0.1,0.1,0c0-0.1,0.1-0.1,0.1,0c0,0,0.1,0.1,0.1,0.1
	c0,0,0,0-0.1-0.1c-0.1-0.1-0.2-0.1-0.2-0.1c0,0,0,0,0,0c0,0-0.3-0.3-0.6-0.7c-0.4-0.4-0.7-0.8-0.8-0.9c-0.1-0.2-0.3-0.5-0.5-0.7
	c-0.2-0.2-0.4-0.6-0.5-0.7s-0.2-0.3-0.2-0.3c0,0,0,0,0,0c0-0.2,0-0.2-0.1-0.2c0,0,0,0,0,0c0,0,0-0.2-0.1-0.5c-0.4-1-0.4-2-0.2-3
	c0-0.1,0-0.1,0-0.1c-0.1,0.1-0.1,0.1,0,0c0-0.1,0-0.1,0-0.2c0,0,0,0,0.1,0c0,0.1,0.1,0,0-0.1c0-0.1,0-0.3,0-0.4c0-0.1,0-0.3,0-0.3
	C12,8.9,11.9,9,11.7,9.1 M35.7,10c-0.1,0.1-0.1,0.2,0.1,0.2c0.1,0,0.1,0,0.1,0.1c0,0.1,0,0.1-0.1,0.1c-0.1,0-0.1,0,0,0.1
	c0.1,0.1,0.2,0,0.3-0.4C36,10,35.8,10,35.7,10 M14.3,12.4c-0.1,0-0.2,0.1-0.3,0.1c-0.7,0,0.6,2.7,1.7,3.7c0.7,0.6,1.8,1.2,2.3,1.3
	c0,0,0.1,0,0.1,0c0.2,0.1,0.9,0.2,0.9,0.1c0,0,0.2-0.1,0.5-0.1c0.3,0,0.5,0,0.5,0c0,0,0.1,0,0.1,0c0,0,0.1,0.1,0.2,0.1
	c0.1,0,0.2,0,0.3,0c0.2,0.1,0.6-0.1,0.6-0.2c0-0.2,0.1-0.2,0.3-0.1c0.1,0.2,0.2,0.2,0.2,0c0-0.1,0-0.1,0-0.1c0.1,0,0.1,0,0,0
	c0-0.1,0-0.1,0.1,0c0.1,0.1,0.2,0.1,0.2,0c-0.1-0.1,0.1-0.2,0.2-0.1c0,0,0.1,0,0.1-0.1c0-0.1,0.1-0.1,0.2-0.1c0.1,0,0.1,0,0.1-0.1
	c0-0.1,0-0.1,0.1-0.1c0.1,0,0.1,0,0.1,0.1c0,0,0.1,0,0.2,0c0.2-0.1,0.2-0.2,0.1-0.2c-0.1,0-0.1,0-0.1-0.1c0.1,0,0.1,0,0.2,0.1
	c0.1,0.1,0.1,0.1,0.2,0.1c0.2,0,0.2-0.1,0.1-0.1c-0.1-0.1-0.1-0.1-0.1,0c0,0.1,0,0.1-0.1,0c0-0.1,0-0.1,0-0.1c0.1-0.1,0.1,0,0.1,0
	c0,0,0,0,0.1,0c0-0.1,0.1-0.1,0.1,0c0,0,0,0.1,0.1,0c0.1,0,0.1,0,0,0.1c-0.1,0.2-0.1,0.2,0,0.2c0.1,0,0.1,0,0.1-0.1c0,0,0-0.1,0-0.2
	c0-0.1,0.1-0.1,0-0.2c0-0.1,0-0.1,0.1,0c0,0,0.1,0.1,0,0.2c0,0.1,0,0.1,0.1,0c0.1-0.1,0.1-0.1,0-0.2c-0.1-0.1-0.1-0.1,0.1-0.1
	c0.1,0,0.2,0,0.2-0.1c0.1-0.1,0.1-0.1,0.1,0c0.1,0.1,0.1,0.1,0,0c0,0,0-0.1,0-0.1c0,0,0.1,0,0-0.1c0,0,0-0.1,0.1-0.2
	c0.1-0.1,0.1-0.1,0.1,0c-0.1,0.1-0.1,0.2,0.1,0.1c0.1-0.1,0.1-0.1,0.1-0.1c0,0,0-0.1,0-0.1s0.1-0.1,0.1,0c0,0,0.1,0.1,0.1,0.1
	c0.1,0,0.1,0,0.1-0.1c0,0,0-0.1,0-0.1c0.1,0,0.2,0,0.4,0c0.1,0,0.1,0,0.1-0.1c-0.1,0-0.1-0.1,0-0.1c0.1,0,0.2-0.1,0.2-0.2
	c0,0,0-0.1,0.1-0.1c0.1,0,0.1,0,0.1-0.1s0-0.1,0.1,0c0,0,0.1,0.1,0.1,0.1c0,0.1,0.1,0.1,0.1-0.1c0.1-0.1,0.1-0.2,0.1-0.1
	c0,0,0.1,0.1,0.1,0.1c0,0,0-0.1-0.1-0.1c-0.1-0.1-0.1-0.1-0.1-0.2c0.1,0,0-0.1-0.1-0.1c-0.1,0-0.5,0-0.5-0.1c0,0,0.1,0,0.1,0
	c0.1,0,0.1,0,0.1,0c0-0.1-0.3-0.1-0.3,0c0,0,0,0,0.1,0c0,0,0.1,0,0.1,0.1c0,0.1-0.1,0.1-0.2-0.1c0-0.1-0.1-0.1-0.1-0.1
	c0,0,0,0.1,0,0.1c0.1,0.1,0,0.2-0.2,0.1c-0.1-0.1-0.1-0.1,0,0c0.1,0,0.1,0,0.1,0c0,0-0.1-0.1-0.1-0.1c0,0-0.1,0-0.1,0
	c0,0-0.4,0-1.8-0.1c-0.7,0-1.4-0.1-1.4-0.1c0,0-0.5,0-1,0s-1,0-0.9,0c0,0-0.2,0-0.5,0l-0.5,0l0.2-0.2c0.1-0.1,0.1-0.1,0.1-0.1
	c-0.2,0.1-0.1,0,0-0.2c0.4-0.4,0.7-0.9,0.4-0.8c-0.1,0.1-1.8,0-2,0c-0.1,0-0.4-0.1-0.7-0.1c-0.2-0.1-0.6-0.2-0.9-0.2
	s-0.5-0.2-0.6-0.2c-0.1,0-0.2-0.1-0.3-0.1c-0.1,0-0.1-0.1-0.2-0.1c-0.1,0-0.2-0.1-0.2-0.1c-0.1-0.1-0.1-0.1-0.1-0.1c0,0-0.1,0-0.1,0
	C14.4,12.3,14.3,12.3,14.3,12.4 M35.6,14.5c-0.1,0.3-0.4,0.9-0.6,1.4c-0.2,0.5-0.4,0.9-0.4,0.9c0,0-0.1,0.3-0.3,0.6
	c-0.1,0.3-0.3,0.5-0.3,0.6c0,0-0.1,0.3-0.3,0.6c-0.2,0.3-0.3,0.6-0.2,0.6s0,0,0,0c-0.1,0-0.1,0.1-0.1,0.2c0,0,0,0,0,0
	c0,0-0.1,0-0.1,0.1c0,0.1-0.1,0.3-0.3,0.6c-0.1,0.3-0.3,0.5-0.3,0.6s0,0.1,0,0.1c-0.1,0-0.3,0.5-0.3,0.6c0,0.1,0,0.1,0,0.1
	c-0.1-0.1,0,0.2,0.1,0.3c0.1,0.1,0.1,0.1,0.1,0.2c0,0.1,0,0.1,0,0.1c0,0,0.1,0.1,0.1,0.1c0,0,0,0.1,0.1,0.1c0.1,0,0.1,0,0,0
	c-0.1,0-0.1,0-0.1,0.2c0,0.1,0,0.2-0.1,0.3c0,0.1,0,0.1,0,0c0.1,0,0.1,0,0.1,0s0,0,0-0.1c0,0,0,0,0.1,0s0.2,0.1,0.2,0.1
	c0,0,0.1,0,0.2,0c0.1,0,0.2,0,0.3,0c0.1,0.1,0.1,0.1,0.1,0c0-0.1,0-0.1,0.1,0c0.1,0.1,0.1,0.1,0.2,0c0.1-0.1,0.1-0.1,0.1,0
	c0,0.1,0.1,0,0.1-0.1c0,0,0,0,0.1,0c0.1,0,0.1,0,0.1,0c0,0,0.1,0,0.1,0c0.1,0,0.1,0,0,0c-0.1-0.1,0.1-0.2,0.2-0.2c0.1,0,0.1,0,0.1,0
	c0,0,0-0.1,0-0.1c0,0,0.1-0.1,0-0.1c0,0,0,0,0-0.1c0,0,0.1-0.1,0.2-0.1c0.1,0,0.1,0,0.1-0.1c0,0,0-0.1,0-0.1c0.2,0,0.2,0,0.2-0.1
	c0-0.1,0-0.1,0.1-0.1c0.1,0,0.1,0,0.1-0.1c0,0,0-0.1,0.1-0.1c0.1,0,0.1,0.1,0,0.1c-0.1,0-0.1,0.1,0,0.1c0,0,0.1,0,0.1,0
	c0-0.2,0.3-0.3,0.4-0.2c0.1,0.1,0.1,0.1,0.1,0c0,0,0-0.1,0.1,0c0,0,0.1,0,0.1,0c0,0,0,0,0.1,0c0.1,0,0.1,0,0.1,0
	c0-0.1,0.1-0.2,0.3-0.2c0.1,0,0.1,0,0.1,0c0,0,0,0,0,0c0,0.1,0.1,0.1,0.2,0c0.1-0.1,0.2-0.2,0.2-0.2c0.1,0,0.1-0.1,0.1-0.2
	c0-0.1,0-0.1,0.1-0.1c0,0,0-0.1,0-0.1c0-0.1,0-0.1,0.1-0.1s0.1,0,0.1-0.1c0-0.1,0-0.1,0.1-0.1c0,0,0.1-0.1,0.1-0.2
	c0-0.1,0.1-0.1,0.1-0.1c0.1,0,0.1,0,0.1-0.2c0,0,0,0,0.1,0c0.1,0.1,0.1,0.1,0.1,0c0,0,0-0.1,0.1,0c0,0,0,0.1,0,0.1c0,0,0,0.1,0,0.1
	c0.3,0,0.3-0.8-0.1-1.9c-0.1-0.4-0.3-0.8-0.3-0.8c0-0.1,0-0.2-0.1-0.2c0,0-0.1,0,0,0c0-0.2,0-0.2-0.1-0.2c0,0-0.1,0,0,0
	c0-0.1-0.3-1-0.4-0.9c0,0,0,0,0-0.1c0-0.1,0-0.1,0-0.1s-0.1,0-0.1-0.1c0,0,0-0.1,0-0.1c0,0,0,0,0-0.1c0-0.1-0.1-0.1-0.1-0.1
	c-0.1,0-0.1-0.2-0.1-0.4c0-0.1,0-0.1-0.1-0.1c0,0,0,0,0,0c0.1-0.1,0-0.2-0.1-0.2c0,0,0,0,0-0.1c0-0.1,0-0.1,0-0.1c0,0,0,0,0-0.1
	c0,0,0-0.1,0-0.1s-0.1-0.1-0.2-0.3C35.9,13.8,35.9,13.8,35.6,14.5 M25.9,14.8C25.9,14.8,25.9,14.9,25.9,14.8
	c0.1,0.1,0.2,0.1,0.1,0.1C26,14.8,25.9,14.7,25.9,14.8 M26.2,14.8C26.2,14.9,26.2,14.9,26.2,14.8c0,0,0.1,0,0.1,0.1
	c0.1,0.1,0.1,0.1,0.1,0C26.4,14.8,26.3,14.7,26.2,14.8 M26.5,14.8c0,0,0.1,0,0.1,0c0.1,0,0.1,0,0.2,0c0.1,0,0.1,0,0,0
	C26.8,14.8,26.5,14.7,26.5,14.8 M26.6,15c0,0.1-0.1,0.1-0.1,0.1c-0.1-0.1-0.2,0-0.1,0.1c0,0.1,0.1,0.1,0.1,0.1c0.1,0,0.1,0,0.1,0
	c0,0,0,0,0,0C26.5,15.2,26.6,15.1,26.6,15C26.6,15,26.6,15,26.6,15C26.6,14.9,26.6,14.9,26.6,15 M26.7,15.1c0,0.1,0.1,0.2,0.2,0.1
	c0,0,0-0.1,0-0.1c0,0-0.1-0.1-0.1-0.1c0-0.1,0-0.1-0.1-0.1C26.7,15,26.7,15,26.7,15.1 M25.3,15.7C25.3,15.7,25.3,15.8,25.3,15.7
	C25.2,15.8,25.2,15.8,25.3,15.7c-0.1,0-0.1,0-0.1-0.1C25.2,15.6,25.2,15.6,25.3,15.7C25.3,15.6,25.3,15.6,25.3,15.7 M19.2,17.7
	c0,0.1,0.3,0.1,0.4,0c0.1,0,0,0-0.2,0C19.3,17.6,19.2,17.6,19.2,17.7 M19.7,17.7c0,0,0.1,0,0.1,0c0.1,0,0.1,0,0.1,0c0,0-0.1,0-0.1,0
	S19.7,17.6,19.7,17.7 M4.1,19.6c0,0.1,0,0.5-0.1,0.7c0,0.5,0,0.2,0.1-0.6C4.2,19.3,4.1,19.2,4.1,19.6 M13,19.7c0,0-0.1,0-0.1,0
	c-0.1,0-0.1,0,0-0.1c0,0,0-0.1,0-0.1c0,0-0.1,0-0.1-0.1s0.1,0,0.1,0C13,19.7,13,19.7,13,19.7 M12,20.5c0.3,0.3,0.9,0.7,0.6,0.5
	c-0.1-0.1-0.2-0.2-0.3-0.3c-0.1-0.1-0.2-0.2-0.2-0.2c0,0,0,0,0,0c0,0-0.1-0.1-0.2-0.1s-0.2-0.1-0.2-0.1C11.7,20.2,11.8,20.3,12,20.5
	 M4.4,20.5c0,0.1,0,0.2,0,0.2c0.1,0.1,0,0.5-0.1,0.5c0,0,0,0,0,0.1c0,0.1,0,0.1-0.2,0.1c-0.1,0-0.2,1.7-0.1,2.3
	c0,0.3,0.1,0.3,0.1,0.2c0-0.1,0-0.1,0,0c0,0.1,0,0.2,0,0.3c0,0.1,0,0.1,0,0.1c-0.1-0.1-0.1,0,0.1,0.6c0.1,0.2,0.1,0.3,0.1,0.2
	c0-0.1,0,0,0,0.2c0,0.2,0.1,0.4,0.2,0.7c0.1,0.2,0.2,0.4,0.2,0.4s0,0,0.1,0c0,0,0,0,0,0.1c-0.1,0.2,0.8,1.8,1.1,2
	C6,28.3,6.1,28.3,6,28.3c-0.1-0.1,0.1,0.3,0.5,0.7c0.2,0.3,0.9,0.9,0.9,0.8c0,0,0-0.1,0-0.1c0,0,0.1,0,0.1,0.1c0,0,0.1,0.1,0.1,0.1
	c0.1,0,0.2,0.1,0.2,0.2c0.1,0.1,0.1,0.1,0,0.1c-0.1-0.1-0.1-0.1,0,0c0.1,0.1,0.1,0.1,0.2,0.1c0.1,0,0.1,0,0,0c-0.1,0,0,0.1,0.2,0.2
	c0.1,0.1,0.2,0.1,0.2,0.1c-0.1-0.1,0.5,0.1,0.7,0.3c0,0,0.1,0.1,0.1,0c0.1,0,0.3,0.1,0.2,0.1c0,0,0,0.1,0,0.1c0,0,0.1,0,0.2,0
	c0.2,0,0.2,0.1,0.2,0.1s0.7,0.1,0.8,0c0.1-0.1,0.1-0.1,0.1,0.1c0,0.1,0,0.1,0.1,0.1c0.1,0,0.1,0,0.1-0.1s0,0-0.1,0c0,0-0.1,0-0.1,0
	c0,0,0-0.1,0.1-0.1s0.1,0,0.1-0.1c0-0.1,0-0.1,0-0.1c0,0-0.1,0-0.1,0.1c-0.1,0.1-0.1,0.1-0.2-0.1l-0.1-0.1l0.1,0.1
	c0.2,0.1,0.6-0.2,0.4-0.3c0,0,0-0.1,0-0.1c0.1,0,0-0.2-0.1-0.2c0,0-0.1,0-0.1-0.1s0,0,0.1,0c0.1,0,0,0-0.1-0.1
	c-0.1-0.1-0.1-0.2-0.1-0.3c0.1-0.1,0.1-0.1,0-0.1c-0.1,0-0.1,0,0,0c0-0.1,0-0.1,0-0.1c-0.1,0-0.2,0.1-0.2,0.2c0,0,0,0-0.1,0
	s-0.1-0.1-0.1-0.1c0-0.1-0.1-0.2-0.2-0.3c-0.1-0.1-0.2-0.1-0.2-0.1c0,0.1,0,0.1-0.1,0c0,0-0.1-0.1-0.1-0.1c0,0,0-0.1-0.1-0.2
	C10,29.1,10,29,10,29c0,0,0-0.1,0-0.1c0,0-0.1,0-0.1,0C9.8,29,9.8,29,9.7,28.9c0-0.1,0-0.1,0-0.1c0.1,0,0.1,0,0.1-0.1
	c0-0.1-0.1-0.1-0.1-0.1c-0.1,0-0.1,0-0.1-0.1c-0.1-0.1-0.1-0.2-0.3-0.1c-0.1,0-0.1,0,0-0.1c0.1-0.1,0-0.2-0.2-0.2c0,0-0.1,0-0.1,0
	c0,0-0.2-0.2-0.4-0.4c-0.5-0.3-1.4-1.3-1.7-1.8c-0.2-0.3-0.3-0.5-0.8-1.2c-0.5-0.8-1.2-2.6-1.4-3.9c-0.1-0.3-0.1-0.5-0.1-0.5
	C4.6,20.7,4.5,20.6,4.4,20.5C4.5,20.3,4.5,20.3,4.4,20.5 M4,21.6c0,0.3,0,0.4,0,0.2c0-0.1,0-0.4,0-0.5C4,21.2,4,21.3,4,21.6
	 M35.9,21.2c-0.1,0-0.1,0.1-0.1,0.1c0,0-0.1,0-0.1,0c0,0,0-0.1,0.1-0.1C36,21.1,36.1,21.1,35.9,21.2 M32.3,22.1
	C32.3,22.2,32.3,22.2,32.3,22.1C32.4,22.1,32.4,22.1,32.3,22.1C32.3,22,32.3,22,32.3,22.1 M4,22.6c0,0.1,0,0.2,0,0.1
	c0-0.1,0-0.2,0-0.3C4,22.4,4,22.5,4,22.6 M4.1,23.2C4.1,23.2,4.1,23.2,4.1,23.2c0-0.2,0-0.2,0-0.2C4.1,23.1,4.1,23.1,4.1,23.2
	 M25.7,26c-0.7,0.2-1.3,0.4-1.5,0.5c-0.5,0.1-1.1,0.2-1.3,0.3c-0.1,0-0.2,0.1-0.3,0.1s-0.2,0-0.3,0.1c-0.1,0-0.2,0.1-0.3,0
	c0,0,0,0,0,0c0,0,0,0.1,0,0.1c0,0-0.1,0.1-0.1,0.2s0,0.1,0,0.1c0,0,0,0,0,0c0,0-0.1,0.1-0.1,0.1c-0.5,0,0.5,0.6,2.4,1.4
	c1.2,0.5,1.3,0.5,1.8,0.8c0.2,0.1,0.4,0.2,0.4,0.2c0,0,0.1,0,0.1,0.1c0,0.1,0.1,0.1,0.1,0.1c0,0,0.2,0.1,0.3,0.2
	c0.1,0.1,0.3,0.2,0.3,0.2c0,0,0,0,0,0c0,0,0.1,0.2,0.3,0.3c0.2,0.2,0.2,0.2,0.2,0.1c-0.1-0.1-0.2-0.2-0.2-0.3
	c-0.1-0.1-0.1-0.1-0.1-0.1c0,0,0,0,0.1,0c0.1,0,0.1,0.1,0.2,0.1c0.1,0,0.2,0.1,0.2,0.1c0,0.1,0.1,0.1,0.2,0.1c0.1,0,0.1,0,0.1,0
	c0,0,0.1,0.1,0.1,0.1c0.1,0,0.1,0.1,0.1,0.1c0,0,0,0.1,0.1,0.1c0.1,0,0.1,0,0.1-0.1c0-0.1,0-0.1,0.1-0.1c0.1,0.1,0.1,0.1,0.2,0
	c0-0.1,0.1,0,0.2,0c0.1,0.1,0.2,0.1,0.2,0c0-0.1,0.2-0.1,0.3-0.1c0.1,0.1,0.1,0.1,0.2,0c0.1-0.2,0.2-0.3,0.3-0.1
	c0.1,0.1,0.2,0.1,0.2,0c0,0,0.1,0,0.2,0.1c0.1,0.1,0.2,0.1,0.1,0.1c0,0,0-0.1,0-0.1c0,0,0.1-0.1,0-0.1c0,0-0.1,0-0.1,0
	c0,0-0.1,0.1-0.1,0c0,0,0-0.1,0-0.1c0.1,0,0.1,0,0-0.1c0,0-0.1-0.1-0.1-0.1c0-0.2,0-0.3-0.1-0.3c0,0,0-0.1,0-0.1
	c0-0.1-0.1-0.4-0.1-0.4c0,0-0.1-0.1-0.1-0.3c-0.1-0.4-1.2-1.6-2.2-2.3c-0.3-0.2-1.2-0.7-1.3-0.8c-0.1,0-0.1,0-0.1,0
	c-0.1-0.1-0.3-0.2-0.3-0.2c0,0-0.1,0-0.1-0.1C26,26,25.9,26,25.7,26 M7.3,29.6l0.1,0.1L7.3,29.6c-0.2-0.1-0.4-0.3-0.2-0.2
	C7.1,29.4,7.2,29.5,7.3,29.6 M10.4,29.6c0,0.1-0.1,0.1-0.1,0C10.3,29.6,10.3,29.6,10.4,29.6C10.4,29.6,10.4,29.6,10.4,29.6
	 M11.1,30.2c0,0.1,0.1,0.1,0.2,0c0.1-0.1,0.1-0.1-0.1-0.1C11.1,30.1,11.1,30.1,11.1,30.2 M10.9,30.2C10.9,30.3,10.8,30.3,10.9,30.2
	C10.8,30.3,10.8,30.2,10.9,30.2C10.9,30.1,10.9,30.1,10.9,30.2 M28.2,31.5c0.1,0.1,0.1,0.2,0.1,0.2C28.3,31.7,28.3,31.6,28.2,31.5
	c0-0.1-0.1-0.2-0.1-0.2C28.1,31.3,28.1,31.4,28.2,31.5 M35.6,34.4c-0.1,0.1-0.2,0.1-0.2,0.1c0,0,0,0,0,0c0,0,0,0.1-0.1,0.2
	c-0.2,0.2-0.3,0.2-0.2,0.1c0.1-0.1,0.1-0.1,0,0c-0.1,0.1-0.1,0.1-0.1,0.1c0,0,0,0,0,0c-0.1,0-1.3,1-1.3,1c0,0,0,0,0,0
	c0,0-1.5,1.2-2,1.5c-0.1,0.1-0.1,0.1-0.1,0.1c0.1-0.1,0.1,0,0,0.1c-0.1,0.1-0.2,0.1-0.2,0c0,0,0,0-0.1,0c-0.1,0-0.1,0.1-0.1,0.1
	c0,0-0.2,0.3-0.3,0.3c0,0,0,0,0-0.1c0-0.1,0,0-0.2,0.1c-0.1,0.1-0.2,0.2-0.2,0.2s-0.5,0.5-1,0.9c-1.9,1.6-2.9,2.8-4.1,4.7
	c-0.3,0.4-0.5,0.8-0.5,0.8c0,0,0,0,0,0c-0.1-0.1-0.5,0.7-0.5,0.9c0,0.1-0.1,0.3-0.2,0.2c0,0-0.1,0.1-0.1,0.2c0,0.2,0,0.2,0.1,0.2
	c0.1,0,0.1-0.1,0.1,0c0,0,0,0.1,0.1,0.1s0.1,0,0.1,0.1c0,0.1,0,0.1,0,0c0,0,0.1,0,0.1,0c0,0,0.1,0.1,0,0.1c-0.1,0.1,0.1,0.1,0.2,0
	c0.1-0.1,0.3-0.1,0.4,0c0,0,0.1,0.1,0.1,0.1c0.1,0,0.2,0.1,0.2,0.2c0,0.1,0,0.2,0.1,0.1c0.1-0.1,0.3-0.1,0.2,0c0,0,0,0.1,0,0.1
	c0,0,0.1,0,0,0s0-0.1,0.1-0.1c0,0,0.1,0,0.1,0c0,0,0.1,0,0-0.1c0-0.1,0-0.1,0.1-0.1c0,0,0.1,0,0.1,0.1c0,0,0,0,0.1,0
	c0,0,0.1,0,0.1,0c0,0,0,0,0.1,0c0.1,0,0.2,0,0.2,0c0.1,0,0.1,0,0.1,0c0,0,0-0.1,0.1,0c0.1,0,0.1,0,0.1-0.1c0.1-0.1,0.3-0.2,0.3-0.1
	c0,0,0,0,0.1,0c0,0,0.1,0,0.1,0c0,0,0.1,0.1,0.1,0.1c0.1,0,0.1,0,0-0.1c-0.1,0-0.1-0.1-0.1-0.1c0,0,0.1,0,0.1,0.1
	c0.1,0.1,0.1,0.1,0.1,0c0,0,0-0.1-0.1-0.1c0,0-0.1-0.1-0.1-0.1s0,0,0.1,0c0.1,0.1,0.2,0,0.2-0.1c0-0.1,0-0.1,0.1,0
	c0.1,0,0.1,0.1,0.1,0c0,0,0.1-0.1,0.1,0c0.1,0,0.3-0.1,0.3-0.3c0-0.1,0.2-0.3,0.3-0.3c0,0,0.1-0.1,0.1-0.1c0-0.1,0-0.1,0.1-0.2
	c0,0,0.2-0.3,0.3-0.6c0.5-1.1,1.8-2.9,2.1-3.2c0,0,0.1-0.2,0.3-0.3c0.1-0.2,0.8-0.9,1.5-1.5c2-2,2.6-3.2,2.9-5
	C35.9,34.3,35.9,34.2,35.6,34.4 M28.1,46.2C28.2,46.2,28.2,46.3,28.1,46.2C28.2,46.3,28.1,46.3,28.1,46.2C28,46.1,28,46.1,28.1,46.2
	 M24.8,46.6c-0.1,0.1-0.2,0.2-0.1,0.2c0,0,0.1,0,0.1,0c0,0,0,0.1,0.1,0.1c0,0,0.1,0,0.1-0.1c0,0,0-0.1-0.1-0.1
	C24.8,46.8,24.8,46.7,24.8,46.6c0,0.1,0.1,0.1,0.1,0.1c0.1,0,0.2,0,0.1-0.1c0,0-0.1,0-0.1,0C24.9,46.6,24.8,46.6,24.8,46.6
	 M26.5,46.9c0,0.1,0.1,0.1,0.1,0.1C26.6,46.9,26.6,46.9,26.5,46.9C26.5,46.9,26.5,46.9,26.5,46.9"/>
<path id="path4" class="st3" d="M24.3,0.4c0.1,0,0.2,0,0.2,0C24.6,0.3,24.6,0.3,24.3,0.4C24.3,0.3,24.3,0.3,24.3,0.4 M23.9,0.4
	c-0.2,0.1-0.1,0.1,0.1,0c0.1,0,0.2-0.1,0.1-0.1C24.1,0.4,24,0.4,23.9,0.4 M24.7,0.4c0,0,0.1,0.1,0.2,0.1c0.1,0,0.1,0.1,0.1,0
	C25.1,0.5,24.8,0.4,24.7,0.4C24.7,0.4,24.7,0.4,24.7,0.4 M23.4,0.8L23.2,1L23.4,0.8c0.2-0.1,0.3-0.2,0.3-0.2s0,0,0,0
	C23.7,0.5,23.6,0.6,23.4,0.8 M25.3,0.8c0.2,0.2,0.3,0.4,0.4,0.7c0,0.1,0,0.1,0,0C25.8,1.3,25.5,0.8,25.3,0.8
	C25.1,0.6,25.1,0.6,25.3,0.8 M23.1,1.2c0,0.1-0.1,0.2-0.1,0.2s0,0,0.1-0.1C23.2,1.1,23.2,1,23.1,1.2 M23,1.7C23,1.8,23,1.9,23,1.7
	c0,0,0-0.1,0-0.1C23,1.5,23,1.6,23,1.7 M25.4,2.7C25.2,2.9,25.1,2.9,25.4,2.7c0.1-0.1,0.3-0.3,0.2-0.3C25.6,2.4,25.5,2.5,25.4,2.7
	 M23.4,2.7C23.5,2.8,23.8,3,23.8,3c0,0,0,0,0,0c0,0-0.2-0.1-0.3-0.2C23.4,2.7,23.3,2.6,23.4,2.7 M24.3,3.1c0.1,0,0.2,0,0.2,0
	C24.6,3.1,24.5,3.1,24.3,3.1C24.3,3.1,24.2,3.1,24.3,3.1 M21.4,3.6c4.2,0,7.4,0,7.4,0c0,0-2,0-4.5,0C21.8,3.6,20.5,3.6,21.4,3.6
	 M20.2,4.4c0.1,0.3,0.3,0.5,0.3,0.5C20.5,4.9,20.4,4.6,20.2,4.4c-0.1-0.3-0.2-0.5-0.2-0.5S20,4.1,20.2,4.4 M21.1,6.1
	c0.1,0.1,0.1,0.2,0.1,0.2C21.2,6.3,21.2,6.3,21.1,6.1C21.1,6,21,5.9,21,5.9C21,5.9,21,6,21.1,6.1 M16.9,7c0.1,0,0.1,0.1,0,0.1
	c-0.1,0-0.1,0.1,0,0.1C16.9,7.2,17,7.1,17,7C17,7,17,7,16.9,7C16.9,7,16.9,7,16.9,7 M22.2,8.2c0,0.1,0.1,0.2,0.1,0.2
	C22.3,8.4,22.3,8.3,22.2,8.2c0-0.1,0-0.2-0.1-0.2S22.1,8.1,22.2,8.2 M14.8,8.6L14.5,9L14.8,8.6c0.3-0.3,0.4-0.4,0.4-0.4
	C15.2,8.3,15,8.4,14.8,8.6 M22.9,9.5c0,0,0,0.1-0.2,0.1l-0.2,0l0.2,0C22.9,9.6,23,9.5,22.9,9.5C22.8,9.4,22.8,9.4,22.9,9.5
	 M25.7,9.5c0,0,0.3,0,0.6,0c0.7,0,0.6,0-0.2-0.1C25.9,9.5,25.7,9.5,25.7,9.5 M27.8,9.5c0,0,0.1,0,0.2,0c0.1,0,0.1,0,0.1,0
	C28,9.5,27.8,9.4,27.8,9.5 M20.6,9.6c0,0,0,0.1,0,0.1c0,0,0,0,0,0c0-0.1,0-0.1,0.1-0.1c0.1,0,0.1,0,0,0C20.7,9.5,20.6,9.5,20.6,9.6
	 M20.5,10.1C20.5,10.2,20.5,10.2,20.5,10.1C20.6,10.1,20.6,10,20.5,10.1C20.5,9.9,20.5,10,20.5,10.1 M37.1,10.4
	c0.1,0.1,0.3,0.3,0.3,0.3C37.4,10.6,37.3,10.5,37.1,10.4c-0.1-0.1-0.2-0.3-0.2-0.3S37,10.2,37.1,10.4 M20.4,10.7c0,0.1,0,0.1,0,0.2
	C20.4,10.8,20.4,10.8,20.4,10.7c0.1,0,0.1-0.1,0.1-0.1C20.4,10.5,20.4,10.6,20.4,10.7 M20.3,10.9c0,0,0.1,0.1,0.1,0.2l0.1,0.1
	l-0.1-0.1C20.4,11.1,20.4,11,20.3,10.9C20.3,10.9,20.3,10.9,20.3,10.9 M28.1,11.2l-0.2,0.2L28.1,11.2c0.2-0.2,0.3-0.2,0.2-0.2
	C28.3,11,28.2,11.1,28.1,11.2 M20.7,11.3c0,0,0.1,0.1,0.2,0.2l0.2,0.1l-0.1-0.2C20.7,11.3,20.7,11.3,20.7,11.3 M39.9,12.2
	c0.9,0.9,1,1,0.6,0.6c-0.2-0.2-0.5-0.6-0.8-0.8C39.3,11.6,39.4,11.7,39.9,12.2 M27.8,12.4c0.2,0.2,0.4,0.4,0.4,0.4
	S28,12.7,27.8,12.4c-0.2-0.2-0.4-0.4-0.4-0.4C27.4,12,27.6,12.2,27.8,12.4 M20.7,12.7l-0.6,0.6L20.7,12.7c0.6-0.5,0.6-0.6,0.6-0.6
	C21.3,12.1,21,12.4,20.7,12.7 M13,12.4c0,0.1,0,0.2,0,0.1c0-0.1,0-0.2,0-0.2C13,12.2,13,12.3,13,12.4 M28.5,13.3
	c0.1,0.1,0.2,0.2,0.2,0.2S28.7,13.4,28.5,13.3c-0.1-0.1-0.2-0.2-0.2-0.2S28.4,13.1,28.5,13.3 M41,13.4c0.1,0.1,0.3,0.4,0.5,0.7
	c0.2,0.3,0.3,0.5,0.4,0.5c0.1,0-0.8-1.1-0.9-1.2C40.9,13.2,40.9,13.3,41,13.4 M13,14.1C13,14.2,13,14.2,13,14.1
	C13,14.1,13,14,13,14.1C13,13.9,13,14,13,14.1 M33,14.3c0,0.1,0,0.2,0,0.2c0,0-0.1,0-0.2,0c-0.1,0-0.3,0.2-0.5,0.5
	c-0.2,0.2-0.6,0.6-0.9,0.9c-0.2,0.2-0.5,0.5-0.6,0.6c-0.1,0.1-0.1,0.2-0.2,0.2c0,0-0.1,0.1-0.3,0.2c-0.1,0.1-0.3,0.2-0.3,0.2
	c0,0-0.1,0-0.1,0.1c0,0-0.1,0.2-0.3,0.4s-0.4,0.6-0.6,1c-1.1,1.9-2.9,3.6-4.9,4.7c-1,0.5-1,0.5-0.9,0.6c0,0.1,0,0.1,0,0.1
	c0,0-0.1,0.1-0.2,0.2c-0.3,0.3-0.5,0.4-0.5,0.4c0,0-0.1,0-0.1,0.1c-0.2,0.2-0.5,0.3-0.6,0.5c-0.1,0-0.2,0.1-0.3,0.2
	c-0.1,0.1-0.2,0.2-0.2,0.2s-0.1,0.1-0.2,0.2c-0.1,0.2-0.2,0.2-0.4,0.2c-0.3,0.1,1.1,0,1.6-0.1c0.8-0.1,2.3-0.4,2.3-0.5
	c0,0-0.1,0-0.2,0c-0.4,0.1-0.4,0-0.2-0.2c0.1-0.1,0.3-0.3,0.5-0.4c0.2-0.2,0.3-0.3,0.4-0.3c0,0,0.2-0.2,0.5-0.4
	c0.2-0.2,0.4-0.4,0.4-0.4s0.1-0.1,0.3-0.2c0.1-0.1,0.3-0.3,0.4-0.4s0.3-0.2,0.3-0.3c0.1-0.1,0.3-0.2,0.4-0.3
	c0.1-0.1,0.4-0.4,0.6-0.6c0.3-0.3,0.7-0.7,1.2-1c0.1-0.1,0.3-0.2,0.3-0.3c0.1-0.1,0.2-0.2,0.2-0.2c0.2-0.2,0.5-0.4,0.8-0.7
	c0.2-0.2,0.5-0.4,0.6-0.5c0.1-0.1,0.3-0.3,0.5-0.4c0.1-0.1,0.3-0.2,0.3-0.3c0.1,0,0.1-0.1,0.2-0.1c0,0,0.1-0.1,0.1-0.1
	c0,0,0.2-0.1,0.3-0.2c0.1-0.1,0.3-0.2,0.3-0.2c0,0,0.1,0,0-0.1c0-0.1,0-0.1,0-0.1s0.1-0.1,0.1-0.1c0.1-0.2,0.1,0,0,0.3
	c-0.1,0.3-0.1,0.4,0,0.3c0.3-0.8,0.5-3.5,0.3-3.8C32.9,14.2,32.9,14.2,33,14.3 M42.1,14.9c0.2,0.3,0.3,0.5,0.2,0.3
	c-0.2-0.3-0.5-0.6-0.4-0.3c0,0,0,0.1,0,0s-0.1,0-0.1,0.1c0,0.1,0,0.2,0,0.2c0,0,0,0.1,0,0.3c0,0,0,0-0.1,0c-0.1,0-0.1,0,0,0.1
	c0,0.1,0,0.1,0,0.1c0,0-0.1,0.1-0.1,0.1c0,0.1-0.1,0.1-0.1,0.1s-0.1,0-0.1,0.1S41.3,16,41.3,16c-0.1,0-0.1,0.1-0.1,0.1
	c0,0.1,0,0.1-0.1,0c-0.1,0-0.1,0-0.1,0c0,0.1-0.1,0.2-0.2,0.2c0,0,0,0,0,0.1c0,0.1,0,0.1-0.1,0.1c-0.1,0-0.1,0-0.1,0.1
	c0,0-0.4,0.2-0.4,0.2c0,0,0,0,0-0.1c0,0,0,0,0,0c0,0-0.1,0.1-0.1,0.2c0,0.1-0.1,0.2-0.1,0.1c0-0.1,0,0-0.1,0.1
	c0,0.1-0.1,0.2-0.2,0.3c-0.1,0.1-0.1,0.1-0.1,0.2c0,0,0,0-0.1,0s-0.1,0.1-0.1,0.2l0,0.2l-0.1-0.1c0-0.1-0.1-0.1-0.1-0.1
	c0,0,0,0.1,0.4,1c0.9,2.2,1.2,4,1.2,6c0,1.3,0,1.3-0.3,2.5l0,0.1l0.1-0.1c0.1-0.2,0.3-1.5,0.3-1.9c0-0.4,0-0.4,0-0.1
	c0,0.3,0,0.3,0.2,0.3c0.1,0,0.1-0.1,0.1-0.1c0-0.1,0.1-0.3,0.2-0.4c0,0,0.1-0.1,0.1-0.2c0-0.2,0.3-0.5,0.5-0.5c0,0,0.1,0,0.1-0.1
	c0-0.1,0.1-0.2,0.2-0.2c0,0,0.1,0,0.1,0c0.1,0,0.1-0.2,0-0.2c0,0-0.1,0-0.1-0.1c0,0,0.1-0.1,0.1-0.1s0.1,0,0.2-0.1
	c0.1-0.1,0.1-0.1,0.2,0c0.1,0,0.1,0,0,0c0-0.1,0-0.1,0.1-0.1c0.1,0,0.1,0,0.1-0.1c0-0.1,0-0.1,0.1-0.1c0.1,0,0.1,0,0.1,0
	c0,0-0.1-0.1-0.1-0.1c0,0,0,0,0.1,0c0.1,0,0.1,0,0.2,0c0,0,0.1-0.1,0.1-0.1c0,0,0,0,0-0.1c0,0,0.1-0.1,0.1,0c0,0,0.1,0,0.1,0
	c0.1,0,0.1,0,0.2,0c0,0,0.1,0,0.2,0c0.1,0,0.1,0,0,0.1c-0.1,0.1,0,0.1,0,0.2c0.1,0.1,0.1,0.1,0,0.2c-0.1,0.1-0.1,0.1,0,0
	c0.1-0.1,0.1-0.1,0.1,0c0,0.1,0,0.1,0,0.2c0,0,0,0.1,0.1,0.2c0,0.1,0-0.1,0-0.4l0-0.5l0,0.6c0,0.4,0,0,0-0.9c0-2.1-0.2-3.4-0.8-4.7
	c-0.2-0.6-0.3-0.7-0.1-0.4c0.1,0.1,0.1,0.2,0.1,0.2c0,0-0.1-0.1-0.1-0.3c-0.1-0.2-0.2-0.3-0.2-0.3c0,0,0,0,0,0
	c0.1-0.1-0.9-1.8-1-1.7c0,0,0,0,0,0c0-0.1-0.4-0.8-0.5-0.8C41.9,14.6,42,14.7,42.1,14.9 M6.6,20.8c0.1,0.1,0.1,0.2,0.2,0.3l0.1,0.1
	l-0.1-0.2C6.7,21,6.6,20.9,6.6,20.8l-0.1-0.2L6.6,20.8 M31.3,21.1c-0.1,0.1-0.1,0.2-0.1,0.2c0.1,0,0.3-0.3,0.2-0.3
	C31.4,20.9,31.3,21,31.3,21.1 M7,21.5c0.3,0.5,1.3,1.6,1.9,2.1C9,23.7,8.8,23.4,8.4,23s-0.9-1-1.2-1.3C6.8,21.2,6.7,21.1,7,21.5
	 M30.9,21.4l-0.1,0.2L30.9,21.4c0.1-0.1,0.2-0.1,0.2-0.1C31.1,21.3,31.1,21.3,30.9,21.4 M30.3,22.1l-0.5,0.5L30.3,22.1
	c0.5-0.4,0.5-0.5,0.5-0.5C30.8,21.6,30.6,21.8,30.3,22.1 M6.9,22.8c0,0,0,0.1,0.1,0.2C7,23,7,23.1,7,23C7,23,7,22.9,6.9,22.8
	C6.9,22.8,6.9,22.8,6.9,22.8 M9.6,24.1c0,0,0.1,0.1,0.2,0.1c0.1,0.1,0.2,0.1,0.2,0.1c0,0-0.1-0.1-0.2-0.1
	C9.7,24.1,9.6,24.1,9.6,24.1 M39.1,24.5c0,0.2,0,0.3,0,0.2c0-0.1,0-0.3,0-0.4C39.1,24.1,39.1,24.2,39.1,24.5 M2.3,24.3
	C2.3,24.4,2.3,24.4,2.3,24.3C2.3,24.3,2.3,24.2,2.3,24.3C2.3,24.1,2.3,24.2,2.3,24.3 M44.4,24.5c0,0.2,0,0.3,0,0.2
	c0-0.1,0-0.2,0-0.3C44.4,24.2,44.4,24.3,44.4,24.5 M2.2,24.8c0,0.2,0,0.2,0,0.1c0-0.1,0-0.2,0-0.3C2.3,24.6,2.2,24.6,2.2,24.8
	 M32.8,24.8c0,0.1-0.1,0.1-0.2,0.1c-0.1,0-0.1,0-0.2,0.1c-0.1,0.1-0.1,0.1-0.2,0.1c-0.1,0-0.1,0-0.2,0.1c0,0-0.1,0.1-0.2,0.1
	c-0.1,0-0.2,0.1-0.3,0.1c-0.1,0.1-0.2,0.1-0.2,0.1c0,0-0.1,0-0.1,0c0,0-0.1,0.1-0.2,0.1c-0.1,0-0.2,0.1-0.2,0.1c0,0,0,0-0.1,0
	s-0.1,0-0.1,0c0,0-0.1,0-0.1,0.1c0,0,0,0-0.1,0c0,0-0.1,0-0.1,0c-0.1,0-0.4,0.1-0.4,0.2c0,0,0,0-0.1,0c-0.1,0-0.5,0.2-0.5,0.2
	c0,0,0,0-0.1,0c0,0-0.1,0-0.1,0c0,0,0,0.1-0.1,0.1c-0.1,0-0.1,0-0.1,0.1c0,0,0,0.1-0.1,0.1s-0.1,0-0.1,0.1c0,0-0.1,0.1-0.2,0.1
	c-0.3,0-0.9,0.2-1,0.3c-0.1,0.1,0.1,0.4,0.3,0.4c0.1,0,0.8,0.6,1.1,0.9c0.7,0.7,1.3,1.7,1.6,2.4c0.1,0.3,0.2,0.5,0.2,0.4
	c0,0,0-0.1-0.1-0.2c0-0.1-0.1-0.2-0.1-0.2s0,0,0.1,0c0,0,0.1,0,0.1,0c0,0,0,0,0.1,0c0.1,0,0.1,0.1,0.2,0.1c0,0,0.1,0,0.1,0
	c0,0,0.1,0,0.2,0c0.1,0,0.2,0,0.2,0c0,0,0.1,0,0.2-0.1c0.1-0.1,0.3-0.2,0.4-0.1c0,0,0.1,0,0.1-0.1c0-0.1,0.1-0.1,0.2-0.1
	c0.1,0,0.1,0,0.1-0.1c0,0,0.1-0.1,0.1-0.1c0,0,0,0,0,0.1c0,0.1,0,0.1,0.1,0c0.1-0.1,0.2-0.1,0.2-0.1c0,0,0,0,0-0.1c0,0,0-0.1,0.1,0
	c0.2,0,0.3,0,0.3,0c0,0,0,0,0.3-0.1c0.1,0,0.2-0.1,0.2-0.2c0.1-0.1,0.1-0.1,0.1-0.1c0,0.1,0,0.1,0.1-0.1c0,0,0-0.1,0.1,0
	c0.2,0.1,0.3,0.1,0.3,0c0-0.1,0-0.1,0.1-0.2c0-0.1,0.1-0.1,0,0c0,0.1,0,0.1,0,0c0,0,0.1,0,0.1,0c0,0,0,0,0-0.1c0-0.1,0-0.1,0,0
	c0,0,0.1,0,0.2,0c0.2-0.1,0.2-0.1,0.2,0.1c0,0.1,0.1,0.1,0.1,0.1c0,0,0.1,0.1,0.1,0.1c0,0.1,0,0.1,0.1,0.1c0,0-0.1-0.6-0.2-0.6
	c0,0,0,0,0-0.1c0.1-0.4-1.2-3-1.7-3.6c-0.1-0.1-0.2-0.2-0.2-0.2c0,0,0-0.1-0.1-0.1s-0.1,0-0.1-0.1C33.2,24.7,32.8,24.7,32.8,24.8
	 M44.4,25C44.4,25.1,44.4,25.2,44.4,25c0,0,0-0.1,0-0.1C44.4,24.8,44.4,24.9,44.4,25 M46,25C46,25.1,46,25.2,46,25c0,0,0-0.1,0-0.1
	C46,24.8,46,24.9,46,25 M8.4,25.3c0.1,0.1,0.2,0.2,0.2,0.2C8.6,25.4,8.5,25.4,8.4,25.3c0-0.1-0.1-0.2-0.1-0.2
	C8.2,25.1,8.3,25.2,8.4,25.3 M24.8,25.3c-0.1,0.1-0.2,0.1-0.2,0.1c0,0,0.2,0,0.3-0.1c0.1-0.1,0.2-0.1,0.2-0.1
	C25.1,25.2,24.9,25.2,24.8,25.3 M2.2,25.7c0,0.2,0,0.4,0,0.2c0-0.1,0-0.3,0-0.5C2.2,25.4,2.2,25.5,2.2,25.7 M11.7,25.3
	c0.1,0.1,0.9,0.4,0.9,0.4c0,0-0.2-0.1-0.5-0.2C11.8,25.4,11.6,25.3,11.7,25.3 M39.1,25.6c0,0.2,0,0.2,0,0.1c0-0.1,0-0.2,0-0.3
	C39.1,25.4,39.1,25.4,39.1,25.6 M46,25.6c0,0.1,0,0.2,0,0.1c0-0.1,0-0.2,0-0.3C46.1,25.4,46,25.5,46,25.6 M9.1,26
	c0.2,0.2,0.3,0.3,0.3,0.3C9.5,26.3,9.3,26.1,9.1,26c-0.1-0.2-0.3-0.3-0.3-0.3C8.8,25.7,9,25.8,9.1,26 M13.7,26.2
	c0.1,0,0.2,0.1,0.2,0.1c0,0,0,0-0.1-0.1C13.6,26.1,13.5,26.1,13.7,26.2 M44.1,26.4c0,0.1,0,0.2,0,0.3C44.1,26.7,44.2,26.6,44.1,26.4
	c0.1-0.1,0.1-0.2,0.1-0.2C44.2,26.2,44.2,26.3,44.1,26.4 M14.1,26.3c0.1,0,0.1,0,0.2,0c0.1,0,0,0,0,0C14.2,26.3,14.2,26.2,14.1,26.3
	C14.1,26.2,14.1,26.3,14.1,26.3 M46.1,26.9c0,0.4,0,0.5,0,0.3c0-0.2,0-0.5,0-0.7C46.1,26.4,46.1,26.6,46.1,26.9 M2.2,26.6
	c0,0.1,0,0.2,0,0.1s0-0.2,0-0.3C2.3,26.4,2.2,26.4,2.2,26.6 M16.7,26.8c0.1,0,0.1,0,0.2,0C16.9,26.8,16.9,26.8,16.7,26.8
	C16.7,26.8,16.6,26.8,16.7,26.8 M2.3,27C2.3,27.1,2.3,27.1,2.3,27C2.3,27,2.3,27,2.3,27C2.3,26.9,2.3,26.9,2.3,27 M17.1,26.9
	c0.1,0,0.2,0,0.2,0S17.3,26.9,17.1,26.9C17.1,26.9,17.1,26.9,17.1,26.9 M17.6,26.9c0.1,0,0.2,0,0.3,0c0.1,0,0,0-0.1,0
	C17.6,26.9,17.5,26.9,17.6,26.9 M19.9,26.9c0,0,0.1,0.1,0.2,0.1l0.1,0.1L20,27C20,27,19.9,26.9,19.9,26.9
	C19.8,26.9,19.8,26.9,19.9,26.9 M18.5,27c0.2,0,0.6,0,0.8,0c0.2,0,0,0-0.4,0S18.3,27,18.5,27 M44,27.2c0,0.1,0,0.2,0,0.2
	C44,27.4,44,27.3,44,27.2C44,27.1,44.1,27,44,27S44,27.1,44,27.2 M10.9,27.2c0,0,0.6,0.3,0.6,0.3c0,0-0.1-0.1-0.3-0.2
	C11,27.3,10.9,27.2,10.9,27.2 M20.2,27.3c0.1,0.1,0.1,0.2,0.1,0.2S20.3,27.4,20.2,27.3c0-0.1-0.1-0.2-0.1-0.2
	C20.1,27.2,20.2,27.3,20.2,27.3 M40.6,27.6c0,0.1-0.1,0.2,0,0.2C40.6,27.8,40.6,27.7,40.6,27.6c0.1-0.1,0.1-0.2,0.1-0.2
	C40.7,27.4,40.6,27.5,40.6,27.6 M20.5,27.7c0.1,0.1,0.3,0.3,0.4,0.3c0.2,0.2,0.2,0.1-0.3-0.3C20.5,27.6,20.4,27.6,20.5,27.7
	 M46,28.2C46,28.3,46.1,28.3,46,28.2c0,0,0-0.1,0-0.1C46,28,46,28.1,46,28.2 M21.2,28.3c0.1,0.1,0.3,0.2,0.3,0.2
	C21.4,28.4,21.4,28.4,21.2,28.3C21.2,28.2,21.1,28.2,21.2,28.3 M38.6,28.5c0,0.1,0,0.2,0,0.2C38.6,28.7,38.7,28.6,38.6,28.5
	c0.1-0.1,0.1-0.2,0.1-0.2C38.7,28.3,38.6,28.4,38.6,28.5 M40.2,28.5C40.1,28.8,40.1,28.8,40.2,28.5c0.1-0.1,0.1-0.2,0.1-0.2
	C40.3,28.4,40.3,28.4,40.2,28.5 M43.6,28.7c0,0.1-0.1,0.2,0,0.2C43.5,29,43.6,28.9,43.6,28.7c0.1-0.1,0.1-0.2,0.1-0.2
	S43.6,28.6,43.6,28.7 M46,28.8c0,0.1,0,0.2,0,0.1c0-0.1,0-0.2,0-0.3C46,28.6,46,28.7,46,28.8 M40,29c0,0.1-0.1,0.2-0.1,0.2
	C39.9,29.2,40,29.1,40,29C40.1,28.8,40.1,28.8,40,29 M22.6,29.1c0.1,0,0.2,0.1,0.2,0.1c0,0,0,0-0.1-0.1C22.7,29.1,22.6,29,22.6,29.1
	C22.5,29,22.6,29.1,22.6,29.1 M18,29.9c0.1,0.1,0.3,0.3,0.3,0.3S18.2,30,18,29.9c-0.1-0.1-0.2-0.3-0.2-0.3
	C17.8,29.6,17.9,29.7,18,29.9 M25.1,30c0,0,0.1,0.1,0.3,0.2c0.1,0.1,0.3,0.1,0.3,0.1c0,0-0.1-0.1-0.3-0.2C25.2,30.1,25.1,30,25.1,30
	 M39.2,30.3c-0.1,0.1-0.1,0.2-0.1,0.2C39.1,30.4,39.2,30.4,39.2,30.3c0.1-0.1,0.1-0.2,0.1-0.2C39.3,30.1,39.3,30.2,39.2,30.3
	 M38.9,30.7c-0.1,0.1-0.1,0.2-0.1,0.2C38.8,30.9,38.9,30.8,38.9,30.7c0.1-0.1,0.2-0.2,0.2-0.2C39.1,30.5,39,30.6,38.9,30.7
	 M4.2,30.9c0,0,0.1,0.1,0.2,0.2l0.2,0.1L4.4,31C4.2,30.9,4.2,30.9,4.2,30.9 M26.8,31.3c0.2,0.2,0.3,0.3,0.3,0.3
	C27.1,31.6,27,31.4,26.8,31.3c-0.1-0.2-0.3-0.3-0.3-0.3C26.5,30.9,26.6,31.1,26.8,31.3 M35.9,31.1C35.9,31.2,35.9,31.3,35.9,31.1
	c0,0,0-0.1,0-0.1C35.9,31,35.9,31,35.9,31.1 M38.4,31.4c-0.1,0.1-0.2,0.2-0.1,0.2c0.1,0,0.4-0.4,0.3-0.4
	C38.6,31.1,38.5,31.3,38.4,31.4 M24,31.6c0.1,0.1,0.2,0.2,0.2,0.2C24.2,31.8,24.1,31.8,24,31.6c-0.1-0.1-0.2-0.2-0.2-0.2
	C23.8,31.4,23.9,31.5,24,31.6 M42.3,31.6c0,0.1-0.1,0.2-0.1,0.2C42.3,31.8,42.3,31.7,42.3,31.6c0.1-0.1,0.1-0.2,0.1-0.2
	C42.4,31.5,42.4,31.6,42.3,31.6 M35.9,31.7C35.9,31.8,35.9,31.9,35.9,31.7c0,0,0-0.1,0-0.1C35.9,31.6,35.9,31.6,35.9,31.7
	 M21.7,32.1l-0.4,0.4L21.7,32.1c0.4-0.4,0.5-0.4,0.4-0.4C22.1,31.6,21.9,31.8,21.7,32.1 M38,31.9c-0.1,0.1-0.2,0.2-0.2,0.2
	C37.8,32.1,37.9,32,38,31.9c0.2-0.1,0.3-0.2,0.2-0.2C38.2,31.6,38.1,31.7,38,31.9 M37.5,32.2c-0.1,0.1-0.1,0.2-0.1,0.2
	c0.1,0,0.2-0.3,0.2-0.3C37.6,32,37.6,32,37.5,32.2 M36,32.5c0,0.2,0,0.3,0,0.2c0-0.1,0-0.3,0-0.4C36,32.2,36,32.3,36,32.5 M42,32.2
	c0,0.1-0.1,0.2-0.1,0.2C41.9,32.4,42,32.3,42,32.2c0.1-0.1,0.1-0.2,0.1-0.2C42.1,32.1,42,32.2,42,32.2 M37.6,32.3
	c-0.1,0.1-0.2,0.1-0.2,0.1c0,0-0.1,0-0.1,0.1c-0.1,0.1-0.1,0.1,0,0.1c0.1-0.1,0.5-0.4,0.4-0.4C37.7,32.1,37.7,32.2,37.6,32.3
	 M7.7,32.4c0.1,0,0.4,0,0.5,0c0.1,0,0,0-0.3,0C7.6,32.4,7.5,32.4,7.7,32.4 M21,32.7l-0.1,0.2L21,32.7c0.2-0.1,0.2-0.2,0.2-0.2
	C21.2,32.6,21.1,32.6,21,32.7 M19.4,33.3c0,0.2,0,0.3,0,0.2c0-0.1,0-0.3,0-0.4C19.4,33,19.4,33,19.4,33.3 M20.7,33.1l-0.1,0.2
	L20.7,33.1c0.2-0.1,0.2-0.2,0.2-0.2C20.9,33,20.8,33,20.7,33.1 M9.3,33.3v0.2V33.3c0.1-0.1,0.1-0.1,0.1-0.2
	C9.3,33.1,9.3,33.2,9.3,33.3 M36,33.5c0,0.2,0,0.3,0,0.2c0-0.1,0-0.3,0-0.4C36,33.2,36,33.3,36,33.5 M41.2,33.5
	c-0.1,0.1-0.1,0.2-0.1,0.2C41.1,33.6,41.2,33.6,41.2,33.5c0.1-0.1,0.1-0.2,0.1-0.2C41.3,33.3,41.2,33.4,41.2,33.5 M24.8,34
	c0,0.3,0,0.4,0,0.2c0-0.1,0-0.3,0-0.5C24.8,33.6,24.8,33.8,24.8,34 M19.9,34l-0.2,0.3L19.9,34c0.2-0.1,0.3-0.2,0.3-0.2
	C20.2,33.7,20.1,33.8,19.9,34 M28.3,34.5C28.3,34.6,28.3,34.7,28.3,34.5c0,0,0-0.1,0-0.1C28.3,34.3,28.3,34.4,28.3,34.5 M40,34.9
	l-0.2,0.2L40,34.9c0.2-0.2,0.3-0.2,0.2-0.2C40.3,34.7,40.1,34.8,40,34.9 M19,34.9c-0.1,0.2,0,0.2,0.2,0c0.1-0.2,0.1-0.2,0-0.1
	C19,35,19,35,19,34.9C19.1,34.7,19,34.7,19,34.9 M10.1,35.1C10,35.3,10,35.3,10.1,35.1c0.1,0,0.1-0.1,0.1-0.1
	C10.1,35,10.1,35,10.1,35.1 M31.6,35.2C31.6,35.3,31.6,35.4,31.6,35.2C31.6,35.3,31.6,35.2,31.6,35.2C31.6,35.1,31.6,35.1,31.6,35.2
	 M8.4,35.5c-0.1,0.2-0.2,0.4-0.2,0.4c0,0,0.4-0.7,0.4-0.7C8.6,35.1,8.5,35.3,8.4,35.5 M39.5,35.5l-0.3,0.3L39.5,35.5
	c0.2-0.2,0.3-0.3,0.3-0.3C39.9,35.1,39.8,35.2,39.5,35.5 M28.3,35.8C28.3,35.9,28.3,36,28.3,35.8C28.4,35.9,28.4,35.8,28.3,35.8
	C28.3,35.7,28.3,35.7,28.3,35.8 M38,36.9l-0.5,0.5L38,36.9c0.4-0.3,0.6-0.5,0.5-0.5C38.5,36.4,38.3,36.7,38,36.9 M7.4,37.5
	c0,0.1-0.1,0.2-0.1,0.2C7.3,37.7,7.4,37.6,7.4,37.5c0.1-0.1,0.1-0.2,0.1-0.2C7.4,37.4,7.4,37.4,7.4,37.5 M37.1,37.7l-0.2,0.2
	L37.1,37.7c0.2-0.1,0.2-0.2,0.2-0.2C37.3,37.5,37.2,37.6,37.1,37.7 M43.6,37.9C43.6,38,43.6,38.1,43.6,37.9
	C43.7,38,43.7,37.9,43.6,37.9C43.6,37.8,43.6,37.8,43.6,37.9 M36.6,38.2l-0.3,0.3L36.6,38.2c0.3-0.2,0.3-0.2,0.3-0.2
	C36.9,37.9,36.7,38,36.6,38.2 M43.6,38.3C43.6,38.5,43.6,38.5,43.6,38.3c0,0,0-0.1,0-0.1C43.6,38.2,43.6,38.2,43.6,38.3 M8.7,38.3
	C8.6,38.5,8.6,38.6,8.7,38.3c0.1,0,0.1-0.1,0.1-0.1C8.7,38.2,8.7,38.3,8.7,38.3 M35.3,39.3c-2.5,2.1-4.4,4.3-5.4,6.3
	c-0.1,0.1-0.1,0.1,0,0.1c0.1-0.1,0.1-0.1,0.1,0c0,0.1,0,0.1,0.1,0.1c0.1,0,0.1,0,0.1,0c0,0,0,0.1,0.1,0.1c0.1,0,0.1,0,0,0.1
	c-0.1,0.1,0,0.2,0.1,0.2c0.1,0,0.1,0.1,0,0.1c0,0-0.1,0.1-0.1,0.1s0,0,0.1,0c0,0,0.1,0,0,0.1c0,0.1,0,0.1,0,0.1c0,0,0.1,0.1,0.1,0.2
	c0,0.1,0.1,0.2,0.1,0.3c0.2,0.2,0.3,0.5,0.3,0.5c0,0,0,0.1,0.1,0.1c0.1,0,0.1,0.1,0.1,0.1s0.1,0.1,0.2,0.2c0.5,0.5,0.5,0.6,0.6,0.7
	c0,0.1,0.1,0.1,0.1,0.1c0,0,0.1,0.1,0.1,0.1c0,0.1,0.1,0.1,0.2,0.3c0.1,0.1,0.1,0.1,0.1,0.1s0.1,0.1,0.2,0.2
	c0.1,0.1,0.2,0.2,0.1,0.2c0,0,0,0,0,0c0,0,0.1,0,0.1,0.1c0,0,0,0.1,0.1,0.1c0,0,0.1,0,0.1,0c0,0.1,0,0.1,0.1,0.2
	C33,50,33.1,50,33.1,50c0,0,0,0,0,0s0,0.1,0,0.1s0.1,0,0.1,0.1c0,0,0,0.1,0,0.1s0.1,0.1,0.2,0.2c0.1,0.1,0.1,0.2,0.2,0.2
	c0,0,0.1,0.1,0.1,0.2c0,0.1,0.1,0.1,0.1,0.1c0,0,0,0,0,0c0,0.1,0.1,0.2,0.1,0.2c0,0,0,0,0,0.1c0,0.1,0.1,0.1,0.1,0.2
	c0.1,0.1,0.2,0.2,0.2,0.3l0.1,0.1h3.4c1.9,0,3.4,0,3.3,0c-0.1-0.1-0.3-0.2-0.2-0.2c0,0,0-0.1,0-0.1c0-0.1,0-0.1-0.1,0s0,0.1,0,0
	c0-0.1,0-0.1-0.1-0.1c-0.1,0-0.1,0,0,0c0.1-0.1,0-0.2-0.2-0.2c0,0,0,0,0.1-0.1c0.1-0.1,0.1-0.1,0-0.1c-0.1,0-0.1,0-0.1,0
	s0-0.1-0.1-0.1s-0.1-0.1-0.1-0.1c0-0.1-0.1-0.3-0.2-0.3c0,0-0.1,0-0.1,0c0,0,0-0.1,0-0.1c0,0,0.1-0.1,0.1-0.1c0-0.1,0-0.1-0.1-0.1
	c-0.1,0-0.1,0-0.1-0.1c0-0.1,0-0.1,0-0.1c0,0,0,0,0-0.1s0-0.1-0.1-0.1c0,0,0,0,0-0.1c0.1-0.1,0.1-0.1,0-0.2c0,0-0.1-0.1,0-0.1
	c0-0.1,0-0.1,0-0.1c0,0-0.1,0-0.1-0.1c0,0,0-0.1-0.1-0.1s-0.1,0-0.1-0.1c0-0.1,0-0.1-0.1,0c-0.1,0.1-0.1,0.1,0,0c0-0.1,0-0.1,0-0.1
	c-0.1,0-0.1,0.1,0-0.2c0-0.1,0-0.2,0-0.1c-0.1,0.1-0.2,0-0.2-0.1c0,0,0-0.1,0-0.1c-0.1-0.1-0.2-0.1-0.1,0c0,0,0,0,0,0
	c-0.1-0.1-0.1-0.1,0.1-0.1c0.1,0,0.1,0,0.1,0c0,0-0.1-0.1-0.1-0.1s0,0-0.1,0c-0.1,0-0.1,0,0-0.1c0-0.1,0-0.1,0-0.1
	c0,0-0.1-0.1-0.1-0.1s0-0.1,0-0.1c0,0,0,0-0.1,0c-0.1,0-0.1,0-0.1-0.1c0-0.1,0-0.1,0-0.1c0,0,0-0.1,0-0.2s0-0.1,0-0.1
	c0,0-0.2-0.2-0.2-0.2c0,0,0-0.1,0-0.1s0,0-0.1,0.1c-0.1,0.1-0.1,0,0-0.1c0.1-0.1,0-0.1-0.1-0.2c-0.1-0.1-0.2-0.1-0.2-0.1
	c-0.1,0.1-0.1-0.1,0-0.2c0-0.1,0-0.1,0-0.1c-0.1,0-0.1,0-0.1-0.1c0,0,0-0.1,0-0.1c0,0,0,0,0-0.1c0,0,0.1,0,0.1,0
	c0.1,0,0.1,0.1,0.1,0c0,0,0-0.1,0-0.1c0,0-0.1-0.1-0.1-0.1c-0.1-0.1-0.1-0.1-0.1,0c0,0.1,0,0.1,0,0.1S38,46.2,38,46.1
	C38,46,38,46,38,46c0,0,0,0,0,0c0,0-0.1-0.1-0.1,0c-0.1,0-0.1,0-0.1,0c0,0,0-0.1,0-0.1c0.1,0-0.2-0.3-0.3-0.3c-0.1,0-0.1,0-0.1-0.1
	c0,0,0-0.1,0-0.1c0,0,0-0.1,0-0.1c0-0.1,0-0.1,0,0c-0.1,0.1-0.1,0.1-0.1-0.1c0-0.1,0-0.1,0-0.2c0,0,0-0.1,0-0.1c0,0,0-0.1-0.1-0.1
	c0,0-0.1,0-0.1-0.1c0-0.1,0-0.1,0-0.1c0,0,0.1,0,0.1,0c0,0,0-0.1,0,0c0,0-0.1,0-0.1,0c0,0-0.1-0.1-0.2-0.1c-0.1,0-0.1-0.1-0.1-0.1
	c0-0.1-0.2-0.3-0.3-0.2c0,0,0,0,0-0.1c0-0.1,0-0.1-0.1-0.1c0,0-0.1,0-0.1,0c0,0,0-0.1,0-0.1c0,0,0,0,0-0.1c0,0-0.1,0-0.1,0
	c0,0,0,0,0,0c0.1-0.1,0-0.2-0.1-0.2c-0.2,0-0.2,0-0.2-0.2c0-0.3,0-0.3-0.1-0.1c0,0.1-0.1,0.1-0.1,0.1c0-0.2-0.2,0.1-0.2,0.4
	c-0.1,0.6-0.1,0.6-0.2,0c0-0.1-0.1-0.3-0.1-0.4c0-0.1,0-0.2,0-0.2c0,0,0-0.1-0.1-0.1c-0.1,0-0.1-0.1-0.1-0.1c0,0,0-0.1,0-0.1
	c0,0,0-0.1,0-0.2c0-0.2,0-0.2-0.1-0.2c-0.1,0-0.1,0-0.1,0c0,0,0-0.1-0.1-0.2s-0.1-0.1-0.1-0.1c0,0,0-0.1,0-0.1s-0.1-0.1-0.1-0.2
	c-0.1-0.1-0.1-0.2-0.2-0.2c0,0-0.1-0.1-0.1-0.2c0-0.1,0-0.1-0.1-0.1s-0.1,0,0,0s0-0.1,0-0.2s-0.1-0.2,0-0.3c0-0.1,0-0.2-0.1-0.2
	c-0.1,0-0.1,0-0.1-0.1c0-0.1,0-0.1-0.1-0.1c-0.1,0-0.1-0.1,0-0.1c0.1-0.1,0.1-0.1,0.1-0.2c0,0,0-0.1,0.1-0.1c0,0,0.1,0,0,0
	c0,0,0.6-0.6,1.8-1.7c0.2-0.1,0.3-0.2,0.2-0.2C36.3,38.4,35.8,38.8,35.3,39.3 M43.5,39.4c0,0.5,0,0.6,0,0.4c0-0.2,0-0.6,0-0.8
	C43.5,38.7,43.5,38.9,43.5,39.4 M8.4,39.3c0.1,0,0.2,0,0.2,0C8.7,39.2,8.6,39.2,8.4,39.3C8.4,39.2,8.4,39.2,8.4,39.3 M8.9,39.3
	c0.1,0,0.2,0,0.2,0C9.1,39.3,9.1,39.3,8.9,39.3C8.9,39.3,8.8,39.3,8.9,39.3 M9.4,39.4c0.1,0,0.2,0,0.3,0c0.1,0,0,0-0.1,0
	C9.4,39.3,9.3,39.3,9.4,39.4 M10,39.4c0.1,0,0.1,0,0.2,0S10.2,39.4,10,39.4C10,39.4,9.9,39.4,10,39.4 M10.7,39.5c0.1,0,0.1,0,0.2,0
	C11,39.5,10.9,39.5,10.7,39.5C10.7,39.5,10.7,39.5,10.7,39.5 M43.6,40.4C43.6,40.5,43.6,40.6,43.6,40.4c0,0,0-0.1,0-0.1
	C43.6,40.3,43.6,40.3,43.6,40.4 M43.6,40.8C43.6,40.9,43.6,41,43.6,40.8C43.7,40.9,43.7,40.8,43.6,40.8
	C43.6,40.7,43.6,40.7,43.6,40.8 M21.6,41.8l-0.1,0.2L21.6,41.8c0.2-0.1,0.2-0.2,0.2-0.2C21.8,41.6,21.7,41.7,21.6,41.8 M20.8,42.6
	l-0.6,0.6L20.8,42.6c0.4-0.3,0.7-0.6,0.7-0.6C21.5,41.9,21.4,42,20.8,42.6 M44.1,43c0,0,0,0.1,0.1,0.2c0.1,0.2,0.1,0.1,0-0.1
	C44.1,43,44.1,42.9,44.1,43 M20,43.4l-0.1,0.2L20,43.4c0.2-0.1,0.2-0.2,0.2-0.2C20.1,43.2,20.1,43.3,20,43.4 M44.4,43.9
	c0,0.1,0.1,0.2,0.1,0.2c0,0.1,0,0,0-0.1C44.5,44,44.4,43.9,44.4,43.9C44.4,43.8,44.4,43.8,44.4,43.9 M11.7,44.6c0,0.3,0,0.4,0,0.3
	c0-0.1,0-0.4,0-0.5C11.7,44.2,11.7,44.3,11.7,44.6 M18.9,44.2c-0.1,0.1-0.2,0.2-0.2,0.2C18.6,44.4,18.7,44.4,18.9,44.2
	c0.1,0,0.2-0.1,0.2-0.1C19.1,44.1,19.1,44.1,18.9,44.2 M23.9,44.2c-0.1,0.2-0.2,0.4-0.2,0.3c0.1-0.1,0.3-0.4,0.2-0.4
	C24,44.1,24,44.2,23.9,44.2 M18.4,44.5c-0.2,0.2-0.3,0.2-0.1,0.1c0.1-0.1,0.2-0.1,0.2-0.2C18.6,44.4,18.6,44.4,18.4,44.5 M17.6,45.1
	c-0.1,0.1-0.2,0.1-0.2,0.2c0,0,0.3-0.2,0.4-0.2C17.9,44.9,17.8,44.9,17.6,45.1 M23.4,45.2c0,0.1-0.1,0.2-0.1,0.2
	S23.4,45.3,23.4,45.2c0.1-0.1,0.1-0.2,0.1-0.2C23.5,45.1,23.4,45.2,23.4,45.2 M11.6,45.8c0,0.4,0,0.8,0,0.9c0,0.1,0-0.2,0.1-0.6
	c0-0.5,0-0.8,0-0.9C11.6,45.1,11.6,45.4,11.6,45.8 M10.5,45.5C10.5,45.6,10.5,45.7,10.5,45.5c0,0,0-0.1,0-0.1
	C10.5,45.3,10.5,45.4,10.5,45.5 M45,45.5c0,0.1,0.7,1.3,0.7,1.3C45.7,46.8,45.1,45.5,45,45.5C45,45.4,45,45.4,45,45.5 M16.4,45.8
	C16.2,45.9,16.2,45.9,16.4,45.8c0.1,0,0.2,0,0.2-0.1C16.6,45.7,16.6,45.7,16.4,45.8 M10.5,45.9c0,0.1,0,0.2,0,0.1c0-0.1,0-0.2,0-0.2
	C10.5,45.8,10.5,45.8,10.5,45.9 M23,45.9c-0.1,0.1-0.1,0.2-0.1,0.2C22.9,46.2,23,46.1,23,45.9C23.2,45.7,23.1,45.7,23,45.9
	 M15.7,46.1c-0.1,0.1-0.2,0.1-0.2,0.1C15.5,46.3,15.6,46.3,15.7,46.1c0.1,0,0.2-0.1,0.2-0.1C15.9,46,15.9,46,15.7,46.1 M10.4,46.4
	C10.4,46.5,10.4,46.5,10.4,46.4c0,0,0-0.1,0-0.1C10.4,46.2,10.4,46.3,10.4,46.4 M18.7,46.4c-0.1,0.1-0.2,0.1-0.1,0.1
	c0.1,0,0.3-0.1,0.3-0.2C18.9,46.3,18.9,46.3,18.7,46.4 M14.4,46.8c-0.4,0.2-0.7,0.4-0.7,0.4c0.1,0,1.5-0.7,1.5-0.7
	C15.2,46.4,15.3,46.4,14.4,46.8 M10.4,46.8c0,0.2,0,0.2,0,0.1c0-0.1,0-0.2,0-0.3C10.4,46.6,10.4,46.7,10.4,46.8 M11.5,47.2
	c0,0.2,0,0.3,0,0.2c0-0.1,0-0.2,0-0.3C11.6,46.9,11.5,47,11.5,47.2 M20.6,47.5c0,0.4,0,0.5,0,0.3c0-0.2,0-0.5,0-0.7
	C20.6,47,20.6,47.1,20.6,47.5 M45.8,47.1c0.1,0.1,0.1,0.2,0.1,0.2C46,47.3,45.9,47.2,45.8,47.1c0-0.1-0.1-0.2-0.1-0.2
	C45.7,46.8,45.8,46.9,45.8,47.1 M10.3,47.4c0,0.1,0,0.2,0,0.1c0-0.1,0-0.2,0-0.3C10.3,47.2,10.3,47.2,10.3,47.4 M13.2,47.3
	c-0.1,0.1-0.3,0.1-0.2,0.1c0,0,0.6-0.2,0.6-0.2C13.6,47.2,13.5,47.2,13.2,47.3 M46.2,47.6c0.1,0.2,0.2,0.4,0.2,0.4
	c0,0,0-0.1-0.1-0.3c-0.1-0.2-0.2-0.4-0.2-0.4C46,47.3,46,47.4,46.2,47.6 M12.5,47.6c-0.6,0.2-0.9,0.2-0.9,0c0-0.1,0-0.1,0,0
	c0,0.2,0.6,0.2,1.2-0.1C13,47.4,12.9,47.4,12.5,47.6 M38.7,47.6C38.7,47.6,38.6,47.6,38.7,47.6C38.6,47.6,38.6,47.6,38.7,47.6
	C38.7,47.5,38.7,47.6,38.7,47.6 M10.3,47.8C10.3,47.9,10.3,47.9,10.3,47.8C10.3,47.8,10.3,47.8,10.3,47.8
	C10.3,47.7,10.3,47.7,10.3,47.8 M10.2,48.2C10.2,48.3,10.2,48.3,10.2,48.2C10.3,48.2,10.3,48.1,10.2,48.2
	C10.2,48,10.2,48.1,10.2,48.2 M46.6,48.4c0,0.1,0.1,0.2,0.1,0.2C46.7,48.5,46.7,48.5,46.6,48.4c0-0.1,0-0.2-0.1-0.2
	C46.5,48.2,46.5,48.3,46.6,48.4 M10.2,48.5C10.2,48.7,10.2,48.7,10.2,48.5c0,0,0-0.1,0-0.1S10.2,48.4,10.2,48.5 M20.5,48.7
	c0,0.1,0,0.2,0,0.1c0-0.1,0-0.2,0-0.3C20.5,48.5,20.5,48.6,20.5,48.7 M46.8,48.7c0,0.1,0.1,0.2,0.1,0.2S46.8,48.8,46.8,48.7
	c0-0.1,0-0.2-0.1-0.2C46.7,48.6,46.7,48.6,46.8,48.7 M10.1,49c0,0.1,0,0.3,0,0.3C10.1,49.3,10.1,49.2,10.1,49
	c0.1-0.1,0.1-0.2,0.1-0.2C10.1,48.8,10.1,48.9,10.1,49 M20.5,49.3C20.5,49.4,20.5,49.4,20.5,49.3c0,0,0-0.1,0-0.1
	S20.5,49.1,20.5,49.3 M10,49.5c0,0.2,0,0.3,0.3,0.2l0.2-0.1l-0.3,0l-0.3,0L10,49.5C10.1,49.3,10,49.3,10,49.5 M11.7,49.4
	C11.6,49.5,11.6,49.5,11.7,49.4c0,0,0.1,0,0.2,0C12,49.4,11.9,49.4,11.7,49.4 M20.3,50.2c0,0.2,0,0.3,0,0.3
	C20.3,50.5,20.4,50.4,20.3,50.2c0.1-0.1,0.1-0.2,0.1-0.3C20.4,49.9,20.4,50,20.3,50.2 M47.6,50.1c0,0.1,0.1,0.2,0.1,0.2
	C47.7,50.3,47.7,50.2,47.6,50.1c0-0.1,0-0.2-0.1-0.2C47.5,50,47.5,50.1,47.6,50.1 M47.9,50.8c0.1,0.1,0.1,0.2,0.1,0.2
	C48.1,51,48.1,50.9,47.9,50.8c0-0.1-0.1-0.2-0.1-0.2C47.9,50.6,47.9,50.7,47.9,50.8 M20.2,51c0,0.1,0,0.2,0,0.2
	C20.2,51.2,20.2,51.1,20.2,51c0.1-0.1,0.1-0.2,0.1-0.2C20.2,50.8,20.2,50.9,20.2,51 M48.3,51.4c0.1,0.2,0.2,0.4,0.2,0.4
	c0,0-0.3-0.7-0.4-0.7C48.1,51,48.2,51.2,48.3,51.4"/>
</svg>
