<?xml version="1.0" encoding="utf-8"?>
<!-- Generator: Adobe Illustrator 27.2.0, SVG Export Plug-In . SVG Version: 6.00 Build 0)  -->
<svg version="1.1" id="Layer_1" xmlns="http://www.w3.org/2000/svg" xmlns:xlink="http://www.w3.org/1999/xlink" x="0px" y="0px"
	 viewBox="0 0 50 50" style="enable-background:new 0 0 50 50;" xml:space="preserve">
<style type="text/css">
	.st0{fill-rule:evenodd;clip-rule:evenodd;fill:#175970;}
	.st1{fill-rule:evenodd;clip-rule:evenodd;fill:#F9974B;}
	.st2{fill-rule:evenodd;clip-rule:evenodd;fill:#F67B26;}
	.st3{fill-rule:evenodd;clip-rule:evenodd;fill:#61B1B5;}
</style>
<path id="path0" class="st0" d="M23.2,2.7c-0.3,0.1-0.7,0.4-0.8,0.7c-0.4,1.2,1.1,2.1,2,1.1C25.3,3.7,24.3,2.3,23.2,2.7 M19.7,5.6
	c0,0.1,0.3,0.6,0.5,1c0.2,0.5,0.6,1.1,0.8,1.5c0.2,0.3,0.5,0.9,0.7,1.3c0.2,0.4,0.4,0.8,0.5,0.9c0.1,0.1,0.2,0.3,0.2,0.3
	s-0.4,0-0.9,0c-1.1,0-1.2,0-1.2,0.2c0,0.2-0.1,0.7-0.2,1c0,0.1,0.1,0.2,0.4,0.5c0.3,0.2,0.5,0.4,0.5,0.4s-0.2,0.3-0.5,0.6
	c-0.3,0.3-0.8,0.8-1.1,1.1l-0.6,0.6l0.5,0c1.2,0.1,8.8,0,8.9,0c0,0-0.3-0.4-1-1.1c-1.1-1.2-1.1-1.1-1-1.2c0.9-0.7,0.9-0.7,0.7-1.5
	l-0.1-0.5l-1,0c-0.6,0-1,0-1,0c0,0,0.1-0.2,0.3-0.5c0.3-0.5,0.4-0.7,1.2-2.2c0.2-0.5,1.2-2.3,1.2-2.4c0,0-1.8,0-3.9,0h-3.9L19.7,5.6
	 M16.4,8.6c-1.5,0.3-2.6,0.8-3.1,1.2c-0.9,0.8-0.9,3,0,4.7c0.2,0.3,0.6,0.9,0.5,0.7c-0.2-0.6-0.1-2.5,0.2-3.4
	c0.4-1.2,1.7-2.6,2.9-3.2C17.3,8.4,17.2,8.4,16.4,8.6 M32,9.5c0,0,0.2,0.1,0.4,0.2c1.3,0.7,2.1,1.3,2.7,2c0.1,0.2,0.3,0.4,0.3,0.4
	c0.1,0.1,0.1,0.1-0.1,0.2c-0.6,0.3-2,1.1-1.9,1.2c0,0,0.2,0.5,0.5,1.1c2.5,5.6,3.1,9,2.1,12.8c-0.3,1.3-0.8,3-1,3
	c0,0-0.1,0.1-0.1,0.1c-0.2,0.3,1.3-1.4,1.8-2.1c1.8-2.6,1.9-6,0.3-9.9c-0.3-0.8-0.4-0.9-0.3-0.9c0,0,0,0.1,0.1,0.1l0.1,0.1l0-0.2
	c0-0.1,0-0.2,0-0.2c0,0,0,0,0,0c0,0,0-0.1,0.1-0.1s0.1-0.2,0.2-0.3c0-0.1,0.1-0.1,0.1-0.1c0,0.1,0.1,0,0.1-0.1c0-0.1,0-0.1,0.1-0.1
	c0,0,0,0,0,0c0,0,0,0.1,0,0.1c0.1,0,0.4-0.2,0.4-0.2c0-0.1,0-0.1,0.1-0.1c0.1,0,0.1,0,0-0.1c0,0,0-0.1,0-0.1c0,0,0.1-0.1,0.1-0.1
	c0,0,0,0,0.1,0c0.1,0.1,0.1,0.1,0.1,0c0,0,0-0.1,0.1-0.1c0,0,0.1,0,0.1-0.1s0,0,0.1,0c0,0,0.1,0,0.1-0.1c0,0,0-0.1,0.1-0.1
	c0,0,0,0,0-0.1c0-0.1,0-0.1,0-0.1c0,0,0.1,0,0.1,0c0-0.1,0-0.2,0-0.2c0,0,0-0.1,0-0.1c0-0.1,0-0.1,0.1-0.1c0,0,0.1,0,0,0
	c-0.1-0.2,0.1,0,0.3,0.3c0.1,0.2,0,0-0.2-0.3c-1.3-1.9-2.7-3.3-4.9-4.7C33.5,10.1,31.8,9.3,32,9.5 M40.3,17.4c0,0,0.1,0.2,0.2,0.5
	c0.9,2.3,0.9,6.1,0,9.2c-0.6,2.1-1.7,4.1-3.2,5.7c-0.6,0.7-1.9,1.9-2.3,2.3c-0.8,0.6-2.9,2.4-2.8,2.5c0,0,0,0,0,0c0,0-0.1,0-0.2,0.1
	c-0.1,0.1-0.1,0.1,0,0c0.1-0.1,0.2-0.1,0,0.1c-0.1,0.1-0.1,0.1,0,0.1c0,0,0,0.1,0,0.1c0,0.1,0,0.1,0.1,0.1c0.1,0,0.1,0,0.1,0.1
	c0,0.1,0,0.2,0,0.3c0,0.1,0,0.1,0,0.2c0,0,0,0,0,0s0.1,0,0.1,0.1c0,0.1,0,0.1,0.1,0.1c0,0,0.1,0.1,0.1,0.2s0.1,0.2,0.1,0.2s0,0,0,0
	c0,0,0,0.1,0.1,0.1c0.1,0,0.1,0.1,0.1,0.1c0,0,0,0,0,0c0.1,0,0.1,0,0.1,0.1c0,0.1,0,0.1,0,0.1c0,0,0,0,0,0c0,0,0,0.1,0.1,0.1
	c0,0,0.1,0,0.1,0.1c0,0,0,0.1,0,0.2c0,0.1,0.1,0.2,0.1,0.3c0,0.5,0.1,0.5,0.2,0c0-0.2,0.1-0.5,0.2-0.4c0,0,0,0,0.1,0
	c0.1-0.1,0.1-0.1,0.1,0.1c0,0.2,0,0.2,0.1,0.2c0.1,0,0.2,0.1,0.1,0.1c0,0,0,0,0,0c0,0,0.1,0,0.1,0c0,0,0,0,0,0c0,0,0,0,0,0
	c0,0,0.1,0,0.1,0c0,0,0.1,0,0,0c0,0,0,0.1,0,0.1c0.1,0,0.3,0.2,0.3,0.2c0,0,0,0.1,0.1,0.1c0.1,0,0.1,0.1,0.1,0.1s0.1,0,0.1,0
	c0,0,0,0,0,0s-0.1,0-0.1,0c0,0,0,0,0,0.1c0,0.1,0.1,0.1,0.1,0.1c0,0,0.1,0,0.1,0s0,0.1,0,0.1c0,0,0,0.1,0,0.1c0,0.1,0,0.1,0,0
	c0-0.1,0,0,0,0c0,0.1,0,0.1,0,0.1c0,0,0,0,0,0.1c0,0.1,0,0.1,0,0.1c0.1,0,0.4,0.3,0.3,0.3c0,0,0,0,0,0c0,0,0.1,0,0.1,0
	c0,0,0.1,0,0.1,0c0,0,0,0,0,0c0,0,0,0,0,0.1c0,0.1,0,0.1,0.1,0.1c0,0,0,0,0-0.1c0-0.1,0-0.1,0.1,0c0,0.1,0.1,0.1,0.1,0.1s0,0,0,0
	c0,0,0,0-0.1,0c0,0-0.1,0-0.1,0c0,0,0,0,0,0.1c0,0,0,0,0,0.1c0,0.1,0,0.1,0,0c0.1,0,0.1,0,0,0.1c-0.1,0.1-0.1,0.2,0,0.1
	c0,0,0.1,0,0.2,0.1c0.1,0.1,0.1,0.1,0.1,0.2c-0.1,0.1-0.1,0.2,0,0.1c0,0,0.1-0.1,0.1-0.1c0,0,0,0,0,0.1c0,0.1,0.1,0.2,0.2,0.2
	c0,0,0,0,0,0.1c0,0.1,0,0.1,0,0.1s0,0,0,0.1c0,0.1,0,0.1,0,0.1c0,0,0.1,0,0.1,0s0,0.1,0,0.1s0,0.1,0.1,0.1c0,0,0,0.1,0,0.1
	c0,0,0,0.1,0,0.1c0,0,0.1,0,0.1,0c0,0,0,0.1,0.1,0.1c0,0,0,0,0,0c-0.1,0-0.1,0.1,0,0.1c0,0,0,0,0,0c0-0.1,0-0.1,0.1,0
	c0,0,0,0.1,0,0.1c0,0.1,0.1,0.1,0.2,0.1c0,0,0.1,0,0,0.1c-0.1,0.2-0.1,0.2,0,0.1c0,0,0,0,0,0c0,0.1,0,0.1,0,0c0.1,0,0.1,0,0.1,0
	c0,0,0,0.1,0,0.1c0,0,0.1,0,0.1,0.1c0,0,0,0.1,0.1,0c0,0,0.1,0,0,0c0,0,0,0.1,0,0.1c0,0,0,0.1,0,0.2c0,0.1,0,0.1,0,0.1c0,0,0,0,0,0
	c0,0,0,0.1,0,0c0,0,0,0,0,0.1c0,0.1,0,0.1,0,0.1c0,0,0.1,0,0.1,0.1c0,0,0,0.1,0,0.1c0,0,0,0,0,0c0,0,0,0,0.1,0
	c0.1,0,0.2,0.1,0.1,0.2c0,0.1,0,0.1,0,0.1c0,0,0.1,0,0.1,0.1c0,0,0,0,0.1,0c0.1,0,0.1,0,0,0c0,0-0.1,0.1-0.1,0.1c0,0,0,0,0.1,0
	c0.1,0,0.1,0.1,0.1,0.1c0,0.1,0,0.1,0,0c0,0,0.1,0,0.1,0c0,0.1,0,0.1,0,0c0,0,0,0,0.1,0c0,0,0,0.1,0,0.1c0,0,0,0.1,0.1,0.1l0.1,0.1
	l3.2,0c1.8,0,3.2,0,3.2,0c0-0.1-0.3-0.7-1-1.8c-1.6-2.8-1.9-3.5-2.3-4.5c-1.3-3.2-1.3-5.5-0.2-8.4c0.4-1.1,0.6-1.6,0.7-2.2
	c1.3-4.3,0.9-8.3-1.1-12.4C40.5,17.8,40.3,17.3,40.3,17.4 M30.9,17.6c0,0.1,0,0.1-0.1,0.1s0,0,0,0.1c0,0,0,0.1,0,0
	c0,0-0.1,0-0.3,0.2c-0.1,0.1-0.2,0.2-0.3,0.2c0,0-0.1,0-0.1,0.1c0,0-0.1,0.1-0.1,0.1c0,0-0.2,0.1-0.3,0.2c-0.1,0.1-0.3,0.3-0.4,0.4
	c-0.1,0.1-0.3,0.3-0.5,0.5c-0.3,0.2-0.5,0.5-0.7,0.6c0,0-0.1,0.1-0.2,0.2c-0.1,0.1-0.2,0.2-0.3,0.3c-0.4,0.3-0.7,0.6-1,0.9
	c-0.2,0.2-0.4,0.4-0.6,0.5c-0.1,0.1-0.3,0.2-0.4,0.3c-0.1,0.1-0.2,0.2-0.3,0.2c-0.1,0.1-0.3,0.2-0.4,0.3S24.8,23,24.8,23
	s-0.2,0.1-0.4,0.3s-0.4,0.3-0.4,0.3s-0.2,0.1-0.3,0.2c-0.1,0.1-0.3,0.3-0.4,0.4c-0.1,0.1-0.1,0.1-0.1,0.2s0,0.1-0.1,0.1s-0.1,0,0,0
	c0.1,0.1,1.8-0.5,2.6-0.8c2.1-0.9,4-2.7,4.8-4.5C30.7,18.5,31,17.6,30.9,17.6C30.9,17.5,30.9,17.6,30.9,17.6 M5.8,18.3
	c-0.8,1.5-1.3,3.2-1.5,5.1c-0.6,4.1,1.6,7.1,5.1,7.1h0.9l0,0.2c0,0.1,0.1,0.3,0.1,0.4c0.2,0.4-0.7,2.3-2.2,4.8
	c-0.3,0.5-0.6,0.9-0.6,0.9c0,0,0.1,0,0.2,0.1c0.1,0,0.5,0.2,0.9,0.3c0.4,0.2,0.9,0.3,1.1,0.4c0.5,0.2,0.9,0.4,0.9,0.4
	c0,0-0.1,0.3-0.3,0.6c-0.3,0.5-0.3,0.6-0.2,0.6s0.9,0.7,1.1,0.7c0,0,0,0.1-0.1,0.2c-0.1,0.1-0.2,0.3-0.2,0.4l-0.1,0.2l0.1,0.1
	c0.1,0.1,0.2,0.2,0.4,0.3l0.3,0.2l0,0.2c0,0.1,0,0.5-0.1,0.8c0,0.3-0.1,0.7-0.1,0.9c0,0.3-0.2,1.6-0.3,2.1c0,0.3-0.1,0.3,0.6,0.1
	c1.9-0.3,3.7-1.1,6.8-2.7c1.3-0.7,1.8-0.6,1.8,0.6c0,0.9-0.1,2.6-0.4,3.6l-0.1,0.5l0.4,0l0.4,0l0.1-0.5c0.8-2.9,2-5.6,3.9-8.1
	c1.4-1.9,2-3,2.3-4.4c0.6-3.1-0.5-5.1-3.5-6.3c-1.6-0.6-1.7-0.7-2.2-0.9c-0.5-0.3-0.9-0.7-1.3-1.1l-0.2-0.3l-0.6,0
	c-4.7,0.1-9.4-2.2-11.2-5.6c-0.2-0.3-0.2-0.3,0,0.5c0.5,2.3,2,4.3,4.1,5.4c0.8,0.4,1.6,0.6,3.1,0.9c2.3,0.4,3.3,1.2,3.8,2.8
	c0.4,1.1,0.4,1.9,0,2.8l-0.1,0.2l0.2-0.2c0.4-0.4,0.9-1.1,1.5-1.7c1.2-1.3,1.7-1.6,2.3-1.4c1.5,0.6,1.4,3.9-0.1,6.9
	c-1.2,2.4-3.3,4.3-6.3,5.9c-1.8,1-3.1,1.5-3.7,1.6l-0.2,0l0-0.3c0-0.1,0-0.6,0-1c0-0.4,0.1-1,0.1-1.4c0-0.5,0-0.7,0.1-0.7
	c0,0,0.4-0.4,0.8-0.7c0.4-0.4,0.8-0.7,0.8-0.7c0,0-0.4-0.1-0.9-0.2c-1.5-0.3-2.1-0.5-2.1-0.6c0-0.1,0.4-0.9,0.6-1.3
	c0.1-0.2,0.2-0.4,0.2-0.4c0,0-1.2-0.2-1.8-0.2l-0.6-0.1l0-0.1c0-0.2,1.5-3.5,1.8-4.1l0.1-0.3l0.9-0.5c0.9-0.5,1.7-1.1,1.8-1.2
	c0.1-0.1,0-0.1-0.6-0.2c-3.5-0.3-6.2-2.4-7.3-5.6c-0.6-1.8-0.7-4.5-0.2-6.4C6.1,17.8,6.1,17.8,5.8,18.3 M33,27.6
	c-0.1,0.1-0.1,0.1-0.2,0c0,0,0,0,0,0c0,0,0,0.1,0,0.1c0,0-0.1,0-0.1,0c0,0-0.1,0,0,0c0-0.1,0-0.1,0,0c0,0,0,0.1,0,0.1
	c0,0.1-0.1,0.1-0.3,0c0,0-0.1,0-0.1,0c0,0.1,0,0.1-0.1,0.1c0,0-0.1,0-0.1,0.1c0,0.1-0.1,0.1-0.2,0.1c-0.2,0-0.3,0-0.2,0.1
	c0,0-0.1,0.1-0.3,0c-0.1,0-0.1,0-0.1,0c0,0,0,0,0,0c0,0-0.1,0-0.2,0.1c-0.1,0.1-0.1,0.1-0.1,0c0,0,0-0.1,0-0.1c0,0-0.1,0-0.1,0.1
	c0,0-0.1,0.1-0.1,0.1s-0.1,0-0.1,0.1c0,0-0.1,0.1-0.1,0.1c-0.1,0-0.2,0-0.4,0.1C30,28.8,30,28.9,30,28.9c0,0-0.1,0-0.2,0
	c-0.1,0-0.1,0-0.1,0c0,0,0,0-0.1,0c0,0-0.1,0-0.2,0c-0.1,0-0.1,0-0.1,0c0,0,0,0-0.1,0c-0.1,0-0.1-0.1,0.1,0.4
	c0.5,1.2,0.7,3.1,0.5,4.1c-0.1,0.7-0.5,1.9-0.7,2.2c-0.2,0.2-0.1,0.2,0.5-0.3c0.2-0.1,1-0.8,1.8-1.4c0.8-0.6,1.7-1.3,1.9-1.5
	l0.4-0.3l0-0.8c-0.1-1.7-0.3-3.4-0.5-3.4c0,0-0.1,0-0.1-0.1C33.2,27.5,33.1,27.5,33,27.6 M36,43.8C36,43.9,36,43.9,36,43.8
	C36.1,43.9,36.1,43.9,36,43.8C36.1,43.8,36,43.8,36,43.8"/>
<path id="path1" class="st1" d="M26.7,8.4c0,0,0.4,0.3,0.9,0.6c1.3,0.8,1.9,1.3,2.7,2.2c0.1,0.1,0.1,0.1,0.1,0.1
	c-0.4-0.6-2-2.1-2.3-2.1c0,0,0,0,0,0c0,0,0-0.1,0-0.1C28,9,28,9,28,9c0,0,0.1,0,0.1,0c0,0,0,0,0-0.1c0-0.1,0-0.1-0.1-0.2
	c-0.1-0.1,0.1-0.1,0.5-0.1c0.5,0,1.4,0.2,1.5,0.3c0,0,0.1,0.1,0.1,0.1c0,0,0.1,0,0.1,0.1c0,0,0.1,0.1,0.2,0.1c0.1,0,0.2,0,0.3,0.1
	c0.1,0,0.2,0.1,0.2,0.1c0,0,0.1,0,0.1,0c0,0,0.1,0,0.1,0s0.1,0,0,0c0,0,0-0.1,0-0.1c0.1-0.1-1.3-0.5-2.3-0.7
	C28.4,8.4,26.7,8.3,26.7,8.4 M31.3,9.2C31.4,9.2,31.4,9.2,31.3,9.2C31.3,9.3,31.2,9.3,31.3,9.2c0,0-0.1,0-0.1,0c0,0-0.1,0,0,0
	s0,0-0.1,0c-0.1,0-0.1,0-0.1,0C31,9.1,31.1,9.1,31.3,9.2 M31.5,9.4C31.5,9.4,31.5,9.5,31.5,9.4c0.1,0.1,0.2,0.1,0.4,0.2
	c0.1,0.1,0.3,0.2,0.5,0.3c0.4,0.2,0.5,0.3,0.6,0.4c0,0,0.1,0.1,0.1,0.1c0,0,0.1,0,0.1,0.1c0,0.1,0.1,0.1,0.2,0.1c0,0,0.1,0,0.1,0
	c0.1,0,0.1,0.2,0,0.3c-0.1,0,0,0.1,0.1,0.1c0.1,0,0,0,0,0.1c-0.1,0.1-0.1,0.1-0.1,0c0,0,0-0.1,0-0.1c-0.1,0-0.1,0.1-0.1,0.3
	c0,0.1-0.1,0.3-0.1,0.1c0,0,0,0-0.1,0c0,0-0.1,0,0,0.1c0.1,0.1-0.2,0.2-0.4,0.1c-0.1-0.1-0.1,0-0.1,0c0,0.1,0,0.1,0,0.1s0,0,0,0
	c0,0,0,0.1,0,0.1c0,0-0.1,0-0.1,0c0,0-0.1,0-0.1,0c-0.1,0-0.1,0,0,0c0,0,0.1-0.1,0.1-0.1c0-0.1,0-0.1-0.1,0c-0.1,0.1-0.2,0.1-0.1,0
	c0-0.1,0-0.1,0-0.1c0,0-0.1,0.1,0,0.1c0,0.2-0.1,0.2-0.2,0.1c-0.1-0.1-0.1-0.1-0.1,0c0,0.1,0,0.1,0,0.1c0,0-0.1,0-0.1,0c0,0,0,0,0,0
	c0,0,0,0,0.1,0s0.1,0,0.1-0.1s0-0.1,0,0c-0.1,0.1-0.2,0.1-0.3,0.1c-0.1-0.1-0.1-0.1-0.1,0c0,0,0,0.1,0,0.1c0,0,0,0,0,0.1
	c0,0,0,0.1,0,0.1c0,0-0.1,0-0.1-0.1c0,0,0,0-0.1,0c-0.1,0.1-0.1,0.1,0,0c0-0.1,0-0.1,0-0.1c0,0,0,0,0,0c0,0,0,0-0.1,0
	c0,0-0.1,0-0.1,0.1c0,0,0,0-0.1-0.1c-0.1-0.2-0.1-0.2,0-0.2c0,0,0,0,0,0s0,0-0.1,0s-0.1,0-0.1-0.1c0,0,0,0,0.1,0.2
	c0.1,0.2,0.2,0.2,0.2,0.2c0.1-0.1,0.1-0.1,0.1,0c0,0,0,0.1,0,0.2c0,0.1,0,0.1-0.1,0c0-0.1,0,0.1,0.2,0.4c0.7,1.3,0.9,2.5,0.9,4
	c0,0.8,0,0.9,0,1.2c0,0.5-1,2.6-2,3.9l-0.4,0.6l0.2,0.2c1.9,1.6,2.9,3,3.5,5.3c0.1,0.3,0.2,0.5,0.2,0.5c0,0,0,0,0,0.1
	c0,0.1,0,0.1,0,0.1c0,0,0,0,0,0.1c0,0.1,0,0.1,0,0.1c0-0.1,0,0,0,0.1c0,0.2,0,0.2,0,0.2c0-0.1,0,0,0,0.1c0,0.1,0,0.2,0,0.1
	c0-0.1,0.1,0.1,0.1,0.6c0,0.2,0,0.4,0.1,0.5c0,0.1,0.1,0.4,0.1,0.7c0,0,0,0,0,0c0,0,0,0,0,0.1c0,0,0,0.1,0,0.1c0,0,0,0,0,0.1
	c0,0.1,0,0.1,0,0.1c0,0,0,0,0-0.1c0,0,0-0.1,0,0c0,0,0.1,0,0.1-0.1c0-0.1,0-0.2,0.1-0.2c0,0,0.1-0.1,0.1-0.1c0,0,0-0.1,0.1-0.1
	c0.1-0.1,0.1-0.2,0.1-0.5c0-0.1,0-0.1,0.1-0.1c0,0,0.1,0,0.1-0.1s0,0,0.1-0.1s0.1-0.1,0.1-0.1c0-0.1,0-0.1,0.1,0
	c0.1,0,0.1,0.1,0,0.1c0,0,0,0.1,0,0.1c0,0,0.1,0.1,0.1,0c0,0,0-0.1,0-0.1c0,0,0,0,0,0.1c0,0.3,0.2,0.3,0.3-0.1
	c0-0.1,0.1-0.2,0.1-0.2c0,0,0,0,0-0.1c0-0.1,0.1-0.4,0.2-0.7c0.3-1,0.3-1.1,0.5-1.8c0.1-0.3,0.1-0.6,0.2-0.6c0,0,0,0,0-0.1
	c0-0.1,0-0.1,0-0.1c0.1-0.1,0.2-1.2,0.2-2.1c0-2-0.4-4.1-1.3-6.5c-0.2-0.4-0.1,0,0.2,0.6c0.3,0.9,0.3,1.6,0.1,1.6c0,0,0,0,0-0.1
	c0,0,0-0.1,0-0.1c0,0-0.1,0-0.1,0c0,0,0,0-0.1,0c0,0-0.1,0-0.1,0c0,0.1,0,0.2-0.1,0.1c0,0-0.1,0-0.1,0.1c0,0.1,0,0.1-0.1,0.2
	c0,0,0,0.1,0,0.1c0,0.1,0,0.1-0.1,0.1c-0.1,0-0.1,0,0,0c0,0,0,0.1,0,0.1c0,0,0,0.1-0.1,0.1c0,0.1,0,0.1-0.1,0.1c0,0-0.1,0.1-0.2,0.2
	c-0.1,0.1-0.2,0.1-0.2,0c0,0,0,0,0,0c0,0-0.1,0-0.1,0c-0.1,0-0.3,0.1-0.2,0.2c0,0,0,0-0.1,0c-0.1,0-0.1,0-0.1,0s0,0,0,0c0,0,0,0,0,0
	c0,0,0,0-0.1,0c-0.1-0.1-0.3,0.1-0.3,0.2c0,0,0,0-0.1,0c0,0,0-0.1,0-0.1c0.1-0.1,0.1-0.1,0-0.1c0,0-0.1,0,0,0s0,0,0,0
	c-0.1,0-0.1,0,0,0.1c0,0.1,0,0.1-0.2,0.1c0,0,0,0,0,0.1c0,0,0,0.1-0.1,0c-0.1,0-0.1,0-0.2,0c0,0,0,0.1,0,0.1c0,0,0,0,0,0.1
	c0,0,0,0.1,0,0.1c0,0,0,0-0.1,0c-0.1,0-0.2,0.1-0.2,0.2c0,0,0,0,0,0c0,0-0.1,0-0.1,0c0,0-0.1,0-0.1,0c0,0-0.1,0-0.1,0
	c0,0.1,0,0.1,0,0.1c0,0,0,0-0.1,0c0,0.1-0.1,0.1-0.1,0c-0.1-0.1-0.1-0.1-0.1,0c0,0.1-0.1,0.1-0.1,0c0,0-0.1,0-0.2,0
	c-0.1,0-0.2,0-0.2,0S31,21.9,31,21.9c-0.1,0-0.1,0-0.1,0c0,0,0,0,0,0c0,0-0.1,0-0.1,0c-0.1,0-0.1,0,0,0c0,0,0-0.1,0-0.2
	c0-0.1,0-0.2,0.1-0.2c0.1,0,0.1,0,0,0c0,0-0.1,0-0.1-0.1s0-0.1-0.1-0.1c0,0,0,0,0-0.1c0-0.1,0-0.1,0-0.2c-0.1-0.1-0.1-0.3-0.1-0.2
	c0,0,0,0,0-0.1c0-0.1,0.3-0.5,0.3-0.5c0,0,0,0,0-0.1c0,0,0.1-0.3,0.2-0.5c0.1-0.2,0.2-0.5,0.2-0.5c0,0,0-0.1,0.1-0.1c0,0,0,0,0,0
	c0-0.1,0-0.2,0.1-0.2c0,0,0,0,0,0c0,0,0.1-0.3,0.2-0.6c0.1-0.3,0.2-0.5,0.2-0.5c0,0,0.1-0.2,0.2-0.5c0.1-0.3,0.2-0.5,0.2-0.5
	s0.2-0.4,0.4-0.8c0.2-0.4,0.4-1,0.6-1.2c0.2-0.6,0.2-0.6,0.4-0.2c0.2,0.4,0.2,0.2,0-0.2c-0.1-0.2-0.2-0.5-0.3-0.7
	c-0.2-0.4-0.2-0.4-0.1-0.4c0,0,0.2-0.1,0.4-0.2c0.6-0.4,0.9-0.5,1.2-0.7c0.2-0.1,0.3-0.2,0.4-0.2c0.1-0.1-0.5-0.7-1.4-1.5
	c-0.4-0.4-1.9-1.2-2.1-1.2c0,0-0.1,0-0.1,0c0-0.1-0.1-0.1-0.2-0.1c0,0-0.1,0-0.1,0C31.6,9.4,31.6,9.4,31.5,9.4
	C31.6,9.4,31.5,9.4,31.5,9.4 M12.5,10.1c-0.3,0.2-0.6,0.5-0.8,0.7c-0.2,0.2-0.4,0.3-0.4,0.3c-0.1-0.1-1.4,1.2-2.1,2
	c-1,1.2-2.2,3.1-2.2,3.3c0,0.4,0.5,2,0.9,2.8c0.5,1.1,0.9,1.6,1.5,2.2c0.4,0.5,1.6,1.4,1.4,1.1c-0.1-0.1,0-0.1,0.1,0
	c0.1,0.1,0.1,0.1,0,0.1c-0.1,0,0.1,0.1,0.3,0.2l0.1,0.1l-0.1-0.1l-0.1-0.1l0.1,0c0.2,0.1,0.2,0.1,0.1-0.1c0-0.1-0.1-0.1-0.1-0.1
	c0,0,0,0,0,0c0,0,0,0,0,0c0,0,0.1,0,0.1,0c0,0,0-0.1,0-0.1c-0.1,0-0.1-0.2,0-0.2c0,0,0.1-0.1,0.1-0.1c0,0,0-0.1,0.1-0.2
	c0.1-0.1,0.1-0.1,0.1,0c0,0,0,0.1,0,0c0.1,0,0.1-0.2,0-0.2c0,0,0,0,0,0c0,0,0-0.1,0-0.2c0-0.1,0-0.2,0-0.2c0.1-0.1,0.1-0.1,0-0.1
	c-0.1,0-0.1-0.2,0-0.3c0,0,0,0,0-0.1c0-0.1-0.1-0.5,0-0.5c0,0,0,0,0-0.1c0,0,0-0.1,0-0.1s0,0,0-0.1c0-0.1,0-0.1,0.1-0.1
	c0.1,0,0.1-0.1,0.1-0.1c0-0.1,0-0.1,0-0.1c-0.1,0,0,0,0-0.2c0-0.1,0.1-0.1,0.1-0.1s0,0.1,0.1,0.1s0.2,0.1,0.3,0.2
	c2.8,2.9,8.8,3.7,11.9,1.6c1.4-0.9,2.8-2.6,3.3-3.9c0.1-0.1,0.1-0.3,0.2-0.4c0.1-0.1,0-0.1-0.2,0c-0.1,0.1-0.9,0.6-1.2,0.8
	c-1.8,0.9-5.2,1.2-7.6,0.8c-1.6-0.3-3.3-1.3-4.2-2.5c-0.3-0.4-0.4-0.5-0.2-0.2c0.1,0.1,0.4,0.5,0.7,0.8c0.3,0.3,0.5,0.6,0.5,0.6
	c0,0,0,0,0,0c0.1,0,0.1,0,0.1,0.1c0,0,0,0.1-0.1,0c-0.1-0.2-0.3,0-0.2,0.2c0,0.1,0,0.1,0,0.1c-0.1-0.1-0.2-0.1-0.2,0c0,0,0,0,0,0
	c0,0,0.1,0,0,0c0,0,0,0,0,0s0.1,0,0.1,0c0,0,0,0.1,0,0.1c-0.1,0-0.1,0,0,0.2c0,0.1,0,0.2,0,0.2c0,0,0,0,0,0.1c0,0,0,0.1,0,0.1
	c0,0,0,0.1,0,0.1c0.1,0,0.1,0.1,0,0.2c-0.1,0.1-0.1,0.1,0,0.1c0,0,0,0,0,0c0,0-0.1,0-0.1-0.1c0,0-0.1,0,0,0c0,0.1,0,0.3-0.1,0.3
	c0,0-0.1,0-0.1-0.1c-0.1-0.1-0.1-0.1-0.1,0c0,0-0.1,0.1-0.1,0.1c0,0,0,0-0.1,0.1c0,0.1-0.1,0.1-0.1,0.1c-0.1,0-0.1,0-0.2,0.1
	c0,0.1-0.1,0.1-0.2,0.1c-0.1,0-0.1,0,0,0c0,0,0,0,0,0.1c-0.1,0-0.1,0-0.1,0.1c0,0,0,0.1,0,0.1c0,0,0,0,0,0c0,0,0,0-0.1,0
	c0,0-0.1,0.1-0.1,0.1c0,0-0.3,0-0.4-0.1c-0.1-0.1-0.2-0.1-0.1,0c0,0.1-0.1,0.2-0.2,0.2c0,0,0,0,0,0c0.1,0,0.1,0,0,0
	c0,0-0.1,0-0.1,0.1c0,0.1-0.1,0.1-0.1,0c0-0.1-0.4-0.1-0.4,0c0,0,0,0,0.1,0c0.1,0,0.1,0,0.1,0c0,0.5-1.2-0.9-1.8-2
	c-1.3-2.5-0.4-6.2,1.9-7.6l0.1-0.1l0,0.2c0,0.1,0,0.2,0,0.3c0,0.1,0,0,0.1-0.2c0.1-0.2,0.2-0.4,0.2-0.4c0.1,0,0-0.1,0-0.1
	C13,9.8,12.8,10,12.5,10.1 M33.7,11c-0.1,0.4-0.1,0.5-0.2,0.4c0,0,0,0,0-0.1c0,0,0.1-0.1,0.1-0.1c0-0.1,0-0.1-0.1-0.1
	c-0.1,0-0.1-0.1,0-0.1C33.5,11,33.7,11,33.7,11 M11.2,11.4c0,0.1-0.1,0.2-0.2,0.3c0,0.1-0.1,0.1-0.1,0.1c0-0.1,0.3-0.6,0.3-0.5
	C11.3,11.2,11.3,11.3,11.2,11.4 M14,12.3c0,0.1,0.1,0.2,0.1,0.4c0.1,0.4,0.3,1.3,0.3,1.2c0,0,0-0.2-0.1-0.3
	c-0.1-0.3-0.1-0.4,0.1-0.4c0.1,0,0.2,0,0.2-0.1c0.1-0.1,0.1-0.1,0.2,0c0.1,0,0.1,0.1,0.1,0c0,0,0.1,0,0.1,0.1s0.1,0.1,0.2,0.1
	c0,0,0.1,0,0.2,0.1c0,0,0.1,0.1,0.2,0.1c0.1,0,0.3,0.1,0.5,0.2c0.2,0.1,0.6,0.2,0.8,0.2c0.2,0,0.5,0.1,0.6,0.1c0.2,0,1.6,0.1,1.8,0
	c0.1,0,0.2,0,0.1,0.1c0,0,0,0,0,0c0,0,0,0,0,0c0,0,0,0,0,0.1c0,0-0.1,0.2-0.4,0.5c-0.1,0.1-0.2,0.2-0.2,0.2c0,0,0.6-0.6,0.7-0.7
	c0-0.1,0.1-0.1,0.1-0.1c0,0,0,0,0-0.1c0,0,0-0.1,0-0.1c0,0-0.1,0-0.3,0.1c-0.5,0.1-2,0-2.8-0.2c-1-0.3-1.8-0.7-2.4-1.3
	C14,12.2,14,12.2,14,12.3 M14.5,14c0,0.1,0,0.1,0.1,0.2c0,0,0,0,0,0C14.6,14.1,14.5,14,14.5,14C14.5,13.9,14.5,13.9,14.5,14
	 M14.8,14.7c0,0,0.2,0.4,0.2,0.4c0,0,0-0.1-0.1-0.2C14.8,14.7,14.8,14.7,14.8,14.7 M21.4,15c0,0,0.6,0.1,1.2,0.1
	c1.2,0,1.5,0,1.5,0.1c0,0,0,0,0.1,0s0.1,0,0.1,0.1c0,0,0,0.1-0.1,0c-0.1,0-0.1,0,0,0c0.1,0.1,0.3,0.1,0.2-0.1c0,0,0-0.1,0-0.1
	c0,0,0.1,0,0.1,0.1c0,0.1,0.2,0.1,0.2,0c0,0,0,0,0,0c0,0,0,0,0,0c0-0.1,0.3,0,0.3,0c0,0,0,0.1,0,0c0,0-0.1,0-0.1,0
	c0,0,0.3,0.1,0.4,0.1c0.1,0,0.2,0.1,0.1,0.1c-0.1,0,0,0,0.1,0.1c0.1,0.1,0.1,0.1,0.1,0.1c0,0-0.1,0-0.1-0.1
	c-0.1-0.1-0.1-0.1-0.1,0.1c-0.1,0.2-0.1,0.2-0.1,0.1c0,0,0-0.1,0-0.1s0,0,0,0c0,0,0,0.1-0.1,0.1c0,0-0.1,0-0.1,0.1
	c0,0.1-0.1,0.2-0.2,0.2c0,0,0,0,0,0c0.1,0,0,0,0,0.1c-0.1,0-0.3,0-0.3,0c0,0,0,0,0,0.1c0,0,0,0.1-0.1,0.1c-0.1,0-0.1,0-0.1,0
	c0,0,0,0,0,0s0,0.1,0,0.1c0,0,0,0.1-0.1,0.1c-0.1,0.1-0.2,0.1-0.1-0.1c0.1-0.1,0.1-0.1,0,0c-0.1,0-0.1,0.1-0.1,0.1c0,0,0,0.1,0,0.1
	c0,0,0,0,0,0.1c0,0,0,0,0,0c-0.1,0-0.1,0-0.1,0c0,0.1-0.1,0.1-0.2,0.1c-0.1,0-0.1,0,0,0c0.1,0.1,0.1,0.1,0,0.1
	c-0.1,0.1-0.1,0.1-0.1,0c0,0,0-0.1,0-0.1c-0.1-0.1-0.1-0.1-0.1,0c0,0,0,0.1,0,0.1c0,0,0,0.1,0,0.1c0,0,0,0.1,0,0.1
	c-0.1,0-0.1,0,0-0.2c0.1-0.1,0.1-0.1,0-0.1c0,0-0.1,0-0.1,0s0,0,0,0c0,0-0.1,0.1-0.1,0s0,0-0.1,0c-0.1,0-0.1,0.1,0,0.1
	c0.1,0.1,0.1,0.1,0.1,0c0-0.1,0-0.1,0,0c0.1,0.1,0.1,0.1-0.1,0.1c-0.1,0-0.1,0-0.2-0.1c0-0.1-0.1-0.1-0.1,0c-0.1,0,0,0.1,0.1,0
	c0.1,0,0,0.1-0.1,0.1c-0.1,0-0.1,0-0.1,0s0-0.1-0.1-0.1c-0.1,0-0.1,0-0.1,0.1c0,0.1,0,0.1-0.1,0.1c-0.1,0-0.1,0-0.1,0
	c0,0,0,0.1-0.1,0.1c-0.1,0-0.2,0.1-0.2,0.1c0.1,0.1,0,0.1-0.1,0c-0.1-0.1-0.1-0.1-0.1,0c0,0.1,0,0.1,0,0c0,0-0.1,0,0,0.1
	c0,0.1,0,0.1-0.1,0c-0.1-0.1-0.2-0.1-0.2,0.1c0,0.1-0.3,0.2-0.5,0.2c-0.1,0-0.2,0-0.3,0c-0.1,0-0.2,0-0.2-0.1c0,0,0,0-0.1,0
	c0,0-0.2,0-0.5,0c-0.3,0-0.4,0-0.4,0c0,0.1-0.7,0-0.8-0.1c0,0-0.1,0-0.1,0c-0.5-0.1-1.4-0.6-2.1-1.2L15.5,16l0.3,0.3
	c1.4,1.4,3.5,1.8,7,1.5c2.4-0.2,4.2-1.1,5.2-2.7l0.1-0.1h-3.4C22.7,15,21.3,15,21.4,15 M25,15.3C25,15.3,25,15.3,25,15.3
	c-0.1,0-0.1,0-0.1,0C24.9,15.2,25,15.2,25,15.3 M25.4,15.3C25.4,15.3,25.4,15.3,25.4,15.3c-0.1,0-0.1,0-0.1,0c0,0,0,0,0,0
	C25.2,15.2,25.3,15.2,25.4,15.3 M25.7,15.2C25.7,15.3,25.7,15.3,25.7,15.2c-0.1,0-0.1,0-0.2,0c-0.1,0-0.1,0-0.1,0
	C25.4,15.1,25.7,15.2,25.7,15.2 M25.5,15.5c0,0,0,0.1,0,0.1c0,0,0,0,0,0c0,0-0.1,0-0.1,0c0,0-0.1,0-0.1-0.1c0-0.1,0-0.2,0.1-0.1
	C25.4,15.5,25.4,15.5,25.5,15.5c0-0.1,0-0.1,0-0.1C25.5,15.4,25.5,15.4,25.5,15.5 M25.7,15.4C25.7,15.5,25.7,15.5,25.7,15.4
	c0.1,0.1,0.1,0.1,0.1,0.1c0,0-0.1,0-0.1,0C25.6,15.6,25.6,15.3,25.7,15.4C25.7,15.3,25.7,15.4,25.7,15.4 M15.3,15.7
	c0.1,0.1,0.2,0.2,0.2,0.2C15.5,16,15.5,15.9,15.3,15.7C15.2,15.4,15.1,15.4,15.3,15.7 M34.2,15.5c0,0,0,0.1,0.1,0.2
	c0,0.1,0.1,0.1,0.1,0.1C34.3,15.7,34.3,15.6,34.2,15.5C34.2,15.5,34.2,15.5,34.2,15.5 M24.3,15.9c0,0,0,0.1,0,0.1c0,0,0,0,0,0
	C24.4,16,24.4,15.9,24.3,15.9C24.3,15.9,24.3,15.9,24.3,15.9 M32.2,17.4c-0.1,0.3-0.2,0.3-0.1,0.2c0-0.1,0.2-0.4,0.2-0.4
	C32.3,17.2,32.3,17.3,32.2,17.4 M19.4,17.7c-0.1,0-0.4,0.1-0.4,0c0,0,0.1,0,0.2,0C19.3,17.7,19.4,17.7,19.4,17.7 M19.7,17.7
	c0,0-0.1,0-0.1,0s-0.1,0-0.1,0c0,0,0,0,0.1,0S19.7,17.7,19.7,17.7 M6,18.4c0,0.1-0.1,0.4-0.1,0.6c0,0.2,0,0.5,0,0.6
	c-0.1,0.8-0.1,1.9-0.1,2.5l0,0.3l0-0.4c0-0.2,0-0.5,0-0.7c0-0.2,0-0.3,0.1-0.3c0.1,0,0.2,0,0.1-0.1c0,0,0-0.1,0-0.1
	c0.1,0,0.2-0.3,0.1-0.4c-0.1-0.1-0.1-0.1,0-0.2c0-0.1,0-0.1,0,0c0,0.1,0,0.1,0,0c0-0.1,0.1,0,0.1,0.3c0,0.2,0.1,0.4,0.1,0.3
	c0,0,0-0.2,0-0.4c0-0.2-0.1-0.7-0.2-1.2C6.1,18.8,6.1,18.4,6,18.4l0-0.2L6,18.4 M13.4,19.4C13.4,19.4,13.5,19.5,13.4,19.4
	C13.5,19.5,13.5,19.5,13.4,19.4c0.1,0.1,0.1,0.1,0.1,0.1c0.1,0,0.1-0.1,0-0.1C13.5,19.4,13.4,19.4,13.4,19.4 M12.7,20
	c0.1,0.1,0.2,0.1,0.2,0.1c0,0,0,0,0,0c0,0,0,0.1,0.1,0.2c0.3,0.2,0.4,0.4,0.2,0.2c-0.2-0.2-0.7-0.6-0.7-0.6
	C12.5,19.9,12.6,20,12.7,20 M33.6,20.8C33.5,20.8,33.4,20.9,33.6,20.8C33.5,20.9,33.6,20.9,33.6,20.8c0,0.1,0.1,0,0.1,0
	C33.8,20.7,33.7,20.7,33.6,20.8 M6.4,21c0,0.1,0.2,0.7,0.2,0.6c0,0,0-0.2-0.1-0.4C6.5,21,6.4,20.9,6.4,21 M30.5,21.6
	C30.5,21.7,30.5,21.7,30.5,21.6c-0.1-0.1,0-0.1,0-0.1C30.6,21.6,30.6,21.6,30.5,21.6 M6.6,21.7c0,0,0,0.1,0,0.2c0,0.1,0,0.1,0,0
	C6.7,21.8,6.7,21.7,6.6,21.7C6.6,21.6,6.6,21.6,6.6,21.7 M6.7,21.9c0,0.1,0.1,0.5,0.2,0.5C6.9,22.4,6.7,21.9,6.7,21.9
	C6.7,21.9,6.7,21.9,6.7,21.9 M5.8,22.5C5.8,22.5,5.9,22.6,5.8,22.5C5.9,22.5,5.9,22.4,5.8,22.5C5.9,22.3,5.8,22.4,5.8,22.5
	 M6.9,22.5c0,0.1,0.6,1.4,0.8,1.6c0,0.1,0-0.1-0.2-0.4C7.3,23.4,7.1,23,7,22.8C6.9,22.5,6.9,22.4,6.9,22.5 M5.9,23.1
	c0,0.1,0,0.2,0,0.2C6,23.4,6,23.3,5.9,23.1C6,23,5.9,22.9,5.9,23.1 M7.8,24.3c0,0.1,0.1,0.2,0.1,0.2C7.9,24.5,7.9,24.4,7.8,24.3
	C7.7,24.2,7.7,24.2,7.8,24.3 M7.9,24.6c0.2,0.4,1.3,1.5,1.8,2c0.2,0.1,0.4,0.3,0.3,0.3c0,0,0,0,0,0c0.1,0,0.2,0.1,0.2,0.1
	c-0.1,0.1-0.1,0.1,0,0c0.1,0,0.2,0,0.2,0.1c0,0.1,0.1,0.1,0.1,0.1c0.1,0,0.1,0,0.1,0c0,0.1,0,0.1,0,0c-0.1,0-0.1,0,0,0.1
	c0.1,0.1,0.1,0.1,0.2,0c0,0,0,0,0.1,0c0,0,0,0,0,0.1c0,0,0,0.1,0.1,0.1c0,0.1,0.1,0.1,0.1,0.2c0,0,0,0.1,0.1,0.1c0.1,0,0.1,0,0.1,0
	c0,0,0.1,0,0.1,0.1c0.1,0.1,0.1,0.2,0.1,0.2c0,0,0,0.1,0,0.1c0,0,0,0,0,0c0,0,0.1-0.2,0.1-0.2c0,0,0,0,0,0.1c0,0.1,0,0.1,0,0
	c0,0,0,0,0,0.1c0,0.1,0,0.1,0.1,0.2c0.1,0.1,0.1,0.1,0,0.1c0,0-0.1,0-0.1,0s0,0,0.1,0c0.1,0,0.1,0.1,0.1,0.2c0,0,0,0.1,0,0.1
	c0.1,0,0.1,0.1-0.1,0.2c-0.2,0.1-0.2,0.1-0.2,0l-0.1-0.1l0.1,0.1c0.1,0.1,0.1,0.1,0.2,0.1c0,0,0,0,0.1,0s0,0,0,0.1
	c0,0-0.1,0.1-0.1,0.1s-0.1,0-0.1,0s0,0,0,0c0,0,0,0,0,0c0,0,0,0-0.1,0c-0.1,0-0.1,0-0.1-0.1c0-0.1,0-0.1,0,0c-0.1,0.1-0.7,0.1-0.7,0
	c0-0.1,0-0.1-0.2-0.1c-0.1,0-0.2,0-0.2,0c0,0,0,0,0,0c0,0-0.1-0.1-0.2-0.1c0,0-0.1,0-0.1,0c-0.1-0.1-0.6-0.3-0.6-0.3
	c-0.1,0.1,0.7,0.5,1.4,0.8c0.8,0.4,1.4,0.5,2.5,0.6c0.4,0,0.7,0.1,0.7,0.1c0,0,0.4,0.1,0.7,0.2c0.3,0.1,1.1,0.3,1.7,0.4
	c0.7,0.2,1.1,0.2,1.1,0.2c0,0,0.1,0,0.1,0c0,0,0,0,0,0c0,0,0-0.1,0-0.1c0,0,0,0,0-0.1c0,0,0-0.1,0-0.1c0,0,0-0.1,0-0.1
	c0,0,0-0.1,0-0.1s0-0.1,0-0.1s0.1-0.1,0.1-0.2s0-0.2,0-0.2c0,0,0-0.1,0-0.1c0,0,0-0.1,0-0.1c0.1-0.1,0.1-0.1,0-0.2
	c-0.1-0.1-0.1-0.1,0-0.1c0.2-0.1-1.1-0.6-2-0.7c-3.5-0.4-6.1-1.7-7.6-3.8C8,24.6,7.9,24.5,7.9,24.6 M24.2,25.1
	c-0.7,0.2-2.1,0.5-3.1,0.6c-0.7,0.1-0.6,0.1-0.4,0.3c0.4,0.4,3,1.7,3.2,1.6c0,0-0.3-0.1-0.6-0.3c-1.4-0.6-2.3-1.1-1.9-1.1
	c0,0,0.1,0,0.1-0.1c0,0,0,0,0,0c0,0,0,0,0-0.1s0-0.1,0-0.1s0,0,0-0.1s0,0,0,0c0,0,0.1,0,0.2,0c0.1,0,0.2-0.1,0.3-0.1s0.2,0,0.2,0
	c0.1,0,0.7-0.1,1.1-0.2c0.1,0,0.4-0.1,0.6-0.2c0.7-0.2,0.9-0.3,0.9-0.2c0,0,0,0,0.1,0c0.1,0,0.2,0.1,0.3,0.1c0,0,0.1,0,0.1,0
	c0.7,0.1,2.9,2,3.1,2.7c0,0.2,0.1,0.2,0.1,0.2c0.1,0,0.1,0.2,0.1,0.3c0,0.1,0,0.1,0,0.1c0,0,0.1,0.1,0.1,0.3c0,0,0,0.1,0.1,0.1
	c0,0,0,0,0,0.1c0,0,0,0,0,0.1c0,0,0.1,0,0.1,0c0,0,0,0,0.1,0c0,0,0,0.1,0,0.1c0,0,0,0.1,0,0.1s0,0-0.1,0c-0.1-0.1-0.2-0.1-0.2-0.1
	c0,0.1-0.1,0.1-0.2,0c-0.1-0.1-0.2-0.1-0.3,0.1c0,0.1,0,0.1-0.1,0c-0.1-0.1-0.2,0-0.3,0c0,0,0,0-0.2,0s-0.1-0.1-0.2,0
	c0,0-0.1,0-0.1,0c-0.1,0-0.1,0-0.1,0c0,0.1,0,0.1,0,0.1c0,0-0.1,0-0.1-0.1c0,0,0-0.1-0.1-0.1c-0.1,0-0.1-0.1-0.1-0.1s-0.1,0-0.1,0
	c-0.1,0-0.1,0-0.2,0c0,0-0.1-0.1-0.2-0.1c-0.1,0-0.1,0-0.2-0.1c0,0-0.1,0-0.1,0s0,0,0,0c0,0,0,0,0-0.1c0,0,0,0,0,0
	c0,0-0.1-0.1-0.3-0.2c-0.1-0.1-0.2-0.2-0.3-0.2c0,0-0.1,0-0.1-0.1c0,0-0.1-0.1-0.1-0.1c0,0-0.2-0.1-0.4-0.2
	c-0.3-0.2-1.1-0.5-1.1-0.5c0,0,0.2,0.1,0.4,0.2c0.8,0.4,1.4,0.8,2,1.3c0.2,0.2,0.3,0.3,0.4,0.3c0,0,0.1,0,0.1,0.1c0,0.1,0,0.1,0,0
	c-0.1-0.1-0.1,0,0.1,0.2l0.1,0.2l-0.1-0.2l-0.1-0.2l0.1,0.1c0.1,0.1,0.1,0.1,0.1,0.2s0.1,0.2,0.2,0.4c0.8,1.6,0.9,3.7,0.1,5.6
	c-0.1,0.2-0.1,0.4-0.1,0.4c0,0,0,0,0,0.1c0,0,0,0,0,0s0,0,0,0.1c0,0.1,0,0.1-0.1,0.1c-0.1,0-0.1,0-0.1-0.1c0-0.1-0.1,0.1-0.2,0.4
	s-0.3,0.6-0.4,0.7c-0.1,0.1-0.1,0.2-0.1,0.2s0,0,0,0c0,0,0.1-0.2,0.2-0.3c0.1-0.1,0.2-0.3,0.2-0.3c0,0,0,0,0,0s0,0,0,0
	c0,0.1,0,0,0.1,0c0,0,0-0.1,0,0c0,0.1,0.1,0.1,0.2,0c0,0,0.1,0,0.1,0c0,0,0,0.1-0.1,0.1c0,0-0.1,0-0.1,0.1c0,0.1-0.7,0.8-0.8,0.7
	c0,0,0,0-0.1,0.1c0,0.1-0.2,0.3-0.4,0.5c-2.2,2.6-3.9,5.9-4.6,8.8l0,0.1h2.5h2.5v-0.3c0-1.4,0.5-3.5,1.1-5c0.8-1.9,1.7-3.2,3.7-5.2
	c1.7-1.8,2.3-2.7,2.5-4.5c0-0.3,0.1-0.6,0.1-0.6c0.1-0.2,0.1-0.2,0-0.1c0,0-0.2,0.2-0.5,0.4c-0.2,0.2-0.4,0.4-0.4,0.4
	c0,0,0.1-0.1,0.3-0.2c0.5-0.4,0.5-0.4,0.4,0.3c-0.2,1.6-0.8,2.6-2.5,4.3c-0.6,0.6-1.2,1.2-1.3,1.3c-0.1,0.1-0.2,0.2-0.2,0.3
	c-0.3,0.2-1.4,1.9-1.8,2.8c-0.1,0.3-0.3,0.5-0.3,0.5c0,0,0,0.1,0,0.1c0,0.1,0,0.1-0.1,0.1c-0.1,0-0.2,0.2-0.2,0.3
	c0,0.1-0.2,0.2-0.3,0.2c-0.1,0-0.1,0-0.1,0c0,0,0,0-0.1,0c-0.1,0-0.1,0,0,0c0,0.1-0.1,0.1-0.2,0.1c0,0,0,0,0,0c0,0,0,0.1,0.1,0.1
	c0,0,0.1,0,0,0.1c0,0-0.1,0-0.1,0c0,0-0.1-0.1-0.1,0c0,0,0,0.1,0,0.1c0.1,0.1,0.1,0.1,0,0.1c0,0-0.1,0-0.1-0.1c0,0-0.1-0.1-0.1,0
	c0,0-0.1,0,0,0c0.1-0.1-0.2,0-0.2,0.1c-0.1,0.1-0.1,0.1-0.1,0.1s-0.1,0-0.1,0s0,0-0.1,0c0,0-0.1,0-0.2,0c-0.1,0-0.1,0-0.1,0
	c0,0,0,0-0.1,0c0,0-0.1,0,0,0c0,0,0,0,0,0s-0.1,0,0,0.1c0,0,0,0.1,0,0.1s-0.1,0-0.1,0s-0.1,0-0.1,0.1c0,0,0,0,0,0c0,0,0-0.1,0-0.1
	c0-0.1-0.1-0.1-0.2,0c0,0.1-0.1,0,0-0.1c0-0.1-0.1-0.2-0.2-0.1c0,0-0.1,0-0.1,0c-0.1-0.1-0.2-0.1-0.3,0c-0.1,0.1-0.2,0.1-0.1,0
	c0,0,0-0.1,0-0.1c0,0-0.1,0-0.1,0c0,0,0,0,0,0c0,0,0-0.1-0.1-0.1c0,0-0.1,0-0.1,0c0,0,0,0-0.1,0c-0.1,0-0.1,0-0.1-0.1
	c0-0.1,0-0.2,0-0.2c0,0,0.2-0.2,0.2-0.2c0-0.1,0.2-0.5,0.2-0.4c0,0.1,0.1,0,0.1,0c0,0,0,0,0,0c-0.1,0-0.1,0,0-0.2
	c0-0.1,0.1-0.1,0.1-0.1c0,0,0,0,0,0c0,0,0.2-0.4,0.4-0.7c1.1-1.6,2-2.7,3.6-4.1c0.5-0.4,0.9-0.8,0.9-0.9c0.1-0.1,0.1-0.1,0.1-0.3
	c0,0,0,0,0.1,0c0,0,0,0,0,0c0-0.1,0.1-0.3,0.1-0.3c0.1,0,0.2-0.5,0.2-0.6c0-0.1,0-0.1,0,0c0,0.1,0,0,0,0c0-0.1,0-0.1,0-0.1
	c0.2-0.1,0.4-1.9,0.3-2.7c-0.2-2.4-1.1-4.1-2.7-5.4c-0.5-0.4-0.6-0.5-1-0.7C25,24.9,25,24.9,24.2,25.1 M8.4,27.9
	c0.1,0.1,0.4,0.4,0.6,0.6l0.2,0.1l-0.1-0.1c0-0.1-0.1-0.1-0.1-0.1s-0.1-0.1-0.2-0.2C8.5,27.9,8.3,27.8,8.4,27.9 M11.3,28.2
	C11.3,28.2,11.4,28.2,11.3,28.2C11.4,28.1,11.4,28.1,11.3,28.2C11.3,28.1,11.3,28.1,11.3,28.2 M12.2,28.6c0,0-0.1,0.1-0.2,0.1
	c0,0,0,0,0-0.1s0-0.1,0.1-0.1S12.2,28.6,12.2,28.6 M11.7,28.7C11.7,28.7,11.7,28.7,11.7,28.7C11.7,28.8,11.8,28.7,11.7,28.7
	C11.8,28.6,11.8,28.6,11.7,28.7 M26.4,29.1C26.7,29.4,26.7,29.5,26.4,29.1c-0.1,0-0.2-0.1-0.1-0.1C26.3,29,26.4,29,26.4,29.1
	 M33.7,29.7C33.7,29.8,33.7,29.8,33.7,29.7C33.7,29.7,33.7,29.7,33.7,29.7C33.7,29.6,33.7,29.6,33.7,29.7 M18.6,30
	c0,0.1,0,0.1,0.1,0.2c0.2,0.1,0.2,0.1,0-0.1C18.6,29.9,18.6,29.9,18.6,30 M33.7,30.2C33.7,30.3,33.7,30.3,33.7,30.2
	C33.8,30.2,33.8,30.2,33.7,30.2C33.7,30.1,33.7,30.1,33.7,30.2 M33.8,31c0,0.1,0,0.2,0,0.1c0-0.1,0-0.1,0-0.2
	C33.8,30.9,33.8,30.9,33.8,31 M29.8,35.2c-0.3,0.3-0.5,0.4-0.5,0.4c0,0,0.1-0.1,0.2-0.1C29.6,35.4,29.8,35.3,29.8,35.2
	c0.1,0,0.1,0,0.1-0.1C29.9,35.1,29.8,35.1,29.8,35.2 M27.4,36.1c0,0.1-0.1,0.3-0.1,0.2c0,0,0.1-0.3,0.1-0.3
	C27.4,36,27.4,36,27.4,36.1 M26.8,42.7c0,0,0.1,0.1,0.1,0C26.9,42.7,26.8,42.6,26.8,42.7C26.7,42.6,26.8,42.6,26.8,42.7 M24.1,43
	C24.2,43,24.1,43.1,24.1,43c-0.1,0.1-0.2,0.1-0.2,0.1s0,0,0,0s0,0,0,0c0,0,0,0-0.1,0s-0.1,0-0.1,0c0,0,0,0-0.1,0
	c-0.1,0,0-0.1,0.1-0.1C24,43,24,42.9,24.1,43C24,43,24.1,43,24.1,43 M25.5,43.3c0,0.1-0.1,0-0.1,0C25.4,43.2,25.4,43.2,25.5,43.3
	C25.5,43.3,25.5,43.3,25.5,43.3"/>
<path id="path2" class="st2" d="M28.1,8.7C28.1,8.7,28.1,8.7,28.1,8.7c0,0.1,0.1,0.1,0.1,0.2c0,0.1,0,0.1,0,0.1c0,0-0.1,0-0.1,0
	c0,0,0,0,0,0.1c0,0,0,0.1,0,0.1c0,0,0,0,0,0c0.3,0,1.7,1.2,2.3,2.1c0.1,0.2,0.2,0.3,0.3,0.2c0,0,0.1,0,0.1,0s0,0,0,0
	c-0.1,0-0.1,0,0.1,0.3c0.1,0.2,0.3,0.4,0.2,0.1c0,0,0-0.1,0-0.1c0,0,0-0.1,0,0c0,0-0.1,0-0.1,0c0,0,0,0,0.1,0c0,0,0.1,0,0.1,0
	c0,0,0,0,0,0c0,0,0,0,0,0.1c0,0.1,0,0.1,0,0c0,0,0.1-0.1,0.1,0c0,0,0,0.1,0.1,0.1c0,0,0.1,0,0-0.1c0,0,0-0.1,0-0.1c0,0,0,0,0-0.1
	c0-0.1,0-0.1,0.1,0c0.1,0,0.2,0,0.3-0.1c0,0,0,0,0,0c0,0,0,0.1-0.1,0.1s-0.1,0-0.1,0s0,0,0,0c0,0,0.1,0,0.1,0c0.1,0,0.1,0,0-0.1
	s0-0.1,0.1,0c0.1,0.1,0.2,0,0.2-0.1c0,0,0-0.1,0-0.1c0,0,0.1,0,0,0.1c0,0.1,0,0.1,0.1,0c0.1-0.1,0.1-0.1,0.1,0c0,0,0,0.1-0.1,0.1
	c-0.1,0.1-0.1,0.1,0,0c0.1,0,0.1,0,0.1,0c0,0,0,0,0.1,0c0,0,0,0,0-0.1c0,0,0,0,0,0c0,0,0,0,0-0.1c0-0.1,0-0.1,0.1,0
	c0.1,0.1,0.5,0,0.4-0.1c0,0,0-0.1,0-0.1c0,0,0.1,0,0.1,0c0,0.1,0.2,0,0.1-0.1c0-0.1,0-0.3,0.1-0.3c0,0,0,0,0,0.1
	c-0.1,0.1,0,0.1,0.1,0c0.1-0.1,0.1-0.1,0-0.1c-0.1,0-0.1-0.1-0.1-0.1c0.1-0.1,0.1-0.2,0-0.3c-0.1,0-0.1,0-0.1,0c0,0.1-0.1,0-0.2-0.1
	c0-0.1-0.1-0.1-0.1-0.1c0,0-0.1,0-0.1-0.1c-0.1-0.1-0.2-0.2-0.6-0.4c-0.1-0.1-0.4-0.2-0.5-0.3c-0.1-0.1-0.3-0.1-0.3-0.1
	c0,0-0.1,0-0.1-0.1s0-0.1,0-0.1s0,0,0,0s0,0,0.1,0c0.1,0,0.2,0,0.2,0.1c0,0,0,0,0.1,0c0.1,0,0.1,0,0.2,0c0,0,0,0-0.1-0.1
	c-0.3-0.2-1-0.4-1.1-0.3c0,0,0,0,0.1,0c0.1,0,0.1,0,0.1,0c0,0,0,0,0,0c0,0,0.1,0,0.1,0c0,0,0,0,0.1,0c0.1,0,0.1,0,0.1,0
	c0,0.1-0.1,0.1-0.1,0c0,0-0.1,0-0.1,0c0,0-0.2,0-0.2-0.1c-0.1,0-0.2-0.1-0.3-0.1c-0.1,0-0.1,0-0.2-0.1c0,0-0.1-0.1-0.1-0.1
	c0,0-0.1,0-0.1-0.1C30,8.8,28.3,8.6,28.1,8.7 M12.5,10.2c-2.1,1.5-2.9,5.1-1.7,7.5c0.6,1.1,1.8,2.5,1.8,2c0,0,0-0.1-0.1,0
	c-0.1,0-0.1,0-0.1,0c0-0.1,0.4-0.1,0.4,0c0,0.1,0,0.1,0.1,0c0,0,0.1-0.1,0.1-0.1c0.1,0,0.1,0,0,0c0,0,0,0,0,0c0.1,0,0.2-0.1,0.2-0.2
	c0-0.1,0-0.1,0.1,0c0.1,0.1,0.4,0.1,0.4,0.1c0,0,0-0.1,0.1-0.1c0.1,0,0.1,0,0.1,0s0,0,0,0s0,0,0-0.1c0,0,0-0.1,0.1-0.1
	c0.1,0,0.1,0,0-0.1c0,0,0,0,0,0c0.1,0,0.1,0,0.2-0.1c0-0.1,0.1-0.1,0.2-0.1c0.1,0,0.1,0,0.1-0.1c0,0,0-0.1,0.1-0.1
	c0,0,0.1,0,0.1-0.1c0.1-0.1,0.1-0.1,0.1,0c0,0,0.1,0.1,0.1,0.1c0,0,0.1-0.3,0.1-0.3c0,0,0,0,0,0c0,0,0.1,0.1,0.1,0.1s0,0,0,0
	c-0.1,0-0.1,0,0-0.1c0.1-0.1,0.1-0.1,0-0.2c0,0,0,0,0-0.1c0,0,0-0.1,0-0.1c0,0,0-0.1,0-0.1c0,0,0-0.1,0-0.2c0-0.1,0-0.2,0-0.2
	c0,0,0.1,0,0-0.1c0,0-0.1-0.1-0.1,0c0,0-0.1,0,0,0c0,0,0,0,0,0c0,0-0.1,0,0,0c0-0.1,0.2-0.1,0.2,0c0,0,0,0,0-0.1
	c0-0.2,0.1-0.4,0.2-0.2c0,0,0,0,0.1,0c0,0,0.1,0,0.1,0c0,0,0.1,0,0.1,0c0,0,0,0-0.1-0.1c-0.1,0-0.1-0.1-0.2-0.1s0,0,0,0
	c0,0-0.2-0.3-0.6-0.6c-0.3-0.3-0.6-0.7-0.7-0.8c-0.1-0.1-0.3-0.4-0.4-0.6c-0.1-0.2-0.3-0.5-0.4-0.6s-0.1-0.2-0.1-0.2c0,0,0,0,0,0
	c0-0.1,0-0.2-0.1-0.2c0,0,0,0,0,0c0,0,0-0.2-0.1-0.4c-0.3-0.9-0.4-1.8-0.2-2.6c0-0.1,0-0.1,0,0c0,0.1,0,0.1,0,0c0,0,0-0.1,0-0.1
	c0,0,0,0,0,0c0,0,0,0,0-0.1c0-0.1,0-0.3,0-0.4c0-0.1,0-0.2,0-0.2C12.8,10.1,12.6,10.1,12.5,10.2 M33.5,11c-0.1,0.1,0,0.2,0,0.1
	c0,0,0.1,0,0.1,0.1c0,0,0,0.1-0.1,0.1c-0.1,0-0.1,0,0,0.1c0.1,0.1,0.1,0,0.2-0.4C33.7,11,33.5,11,33.5,11 M14.7,13.1
	c0,0-0.1,0.1-0.2,0.1c-0.6,0,0.5,2.4,1.4,3.2c0.6,0.5,1.6,1,2,1.1c0,0,0.1,0,0.1,0c0.2,0.1,0.8,0.2,0.8,0.1c0,0,0.2,0,0.4,0
	c0.2,0,0.4,0,0.5,0s0.1,0,0.1,0c0,0,0.1,0,0.2,0.1c0.1,0,0.2,0,0.3,0c0.2,0,0.5-0.1,0.5-0.2c0-0.2,0.1-0.2,0.2-0.1
	c0.1,0.1,0.2,0.1,0.1,0c0-0.1,0-0.1,0-0.1c0,0,0,0,0,0c0-0.1,0-0.1,0.1,0c0.1,0.1,0.2,0.1,0.1,0c-0.1-0.1,0-0.1,0.2-0.1
	c0,0,0.1,0,0.1-0.1c0,0,0-0.1,0.1,0c0.1,0,0.1,0,0.1-0.1c0-0.1,0-0.1,0.1-0.1c0,0,0.1,0,0.1,0.1c0,0,0.1,0,0.1,0
	c0.1-0.1,0.2-0.1,0.1-0.1c-0.1,0-0.1,0-0.1,0c0,0,0.1,0,0.1,0s0.1,0.1,0.2,0.1c0.2,0,0.2,0,0.1-0.1c-0.1-0.1-0.1-0.1,0,0
	c0,0.1,0,0.1-0.1,0c0,0,0-0.1,0-0.1c0.1,0,0.1,0,0.1,0c0,0,0,0,0.1,0c0,0,0,0,0,0s0,0,0.1,0c0.1,0,0.1,0,0,0.1
	c-0.1,0.1-0.1,0.2,0,0.2c0,0,0.1,0,0-0.1c0,0,0-0.1,0-0.1c0,0,0-0.1,0-0.1c0-0.1,0-0.1,0.1,0c0,0,0,0.1,0,0.1c0,0.1,0,0.1,0.1,0
	c0.1-0.1,0.1-0.1,0-0.1c-0.1-0.1-0.1-0.1,0,0c0.1,0,0.1,0,0.2-0.1c0-0.1,0.1-0.1,0.1,0c0.1,0,0.1,0,0,0c0,0,0-0.1,0-0.1s0,0,0-0.1
	c0,0,0-0.1,0.1-0.1c0.1-0.1,0.1-0.1,0,0c-0.1,0.1-0.1,0.1,0.1,0.1c0.1,0,0.1-0.1,0.1-0.1c0,0,0-0.1,0-0.1c0,0,0,0,0,0
	c0,0,0.1,0,0.1,0c0.1,0,0.1,0,0.1-0.1c0,0,0-0.1,0-0.1c0,0,0.2,0,0.3,0c0.1,0,0.1,0,0-0.1c0,0-0.1,0,0,0c0.1,0,0.2-0.1,0.2-0.2
	c0,0,0-0.1,0.1-0.1c0,0,0.1,0,0.1-0.1c0,0,0-0.1,0,0c0,0,0,0.1,0,0.1c0,0.1,0.1,0.1,0.1-0.1c0-0.1,0.1-0.1,0.1-0.1
	c0,0,0.1,0.1,0.1,0.1s0,0-0.1-0.1c-0.1-0.1-0.1-0.1-0.1-0.1c0.1,0,0-0.1-0.1-0.1c-0.1,0-0.4,0-0.4-0.1c0,0,0.1,0,0.1,0
	c0,0,0.1,0,0,0c0-0.1-0.3-0.1-0.3,0c0,0,0,0,0,0c0,0,0,0,0,0c0,0.1-0.1,0-0.2,0c0,0,0-0.1-0.1-0.1c0,0,0,0,0,0.1
	c0.1,0.1,0,0.2-0.2,0.1c-0.1-0.1-0.1-0.1,0,0c0.1,0,0.1,0,0.1,0c0,0,0-0.1-0.1-0.1s-0.1,0-0.1,0c0,0-0.3,0-1.5-0.1
	c-0.6,0-1.2,0-1.2-0.1c0,0-0.4,0-0.9,0c-0.5,0-0.8,0-0.8,0c0,0-0.2,0-0.4,0l-0.5,0l0.2-0.1c0.1-0.1,0.1-0.1,0.1-0.1
	c-0.1,0.1-0.1,0,0-0.1c0.4-0.3,0.6-0.8,0.4-0.7c-0.1,0-1.6,0-1.8,0c-0.1,0-0.4-0.1-0.6-0.1c-0.2,0-0.6-0.1-0.8-0.2
	c-0.2-0.1-0.5-0.1-0.5-0.2c-0.1,0-0.2-0.1-0.2-0.1c0,0-0.1-0.1-0.2-0.1c0,0-0.1,0-0.2-0.1c-0.1-0.1-0.1-0.1-0.1-0.1s-0.1,0-0.1,0
	C14.8,13,14.8,13,14.7,13.1 M33.4,14.9c-0.1,0.3-0.4,0.8-0.6,1.2c-0.2,0.4-0.4,0.8-0.4,0.8s-0.1,0.2-0.2,0.5
	c-0.1,0.3-0.2,0.5-0.2,0.5s-0.1,0.3-0.2,0.5c-0.1,0.3-0.2,0.5-0.2,0.6c0,0,0,0,0,0c-0.1,0-0.1,0.1-0.1,0.2c0,0,0,0,0,0
	c0,0-0.1,0-0.1,0.1c0,0-0.1,0.3-0.2,0.5s-0.2,0.4-0.2,0.5c0,0,0,0.1,0,0.1c0,0-0.3,0.4-0.3,0.5c0,0,0,0.1,0,0.1
	c-0.1,0,0,0.2,0.1,0.2c0.1,0.1,0.1,0.1,0,0.2c0,0.1,0,0.1,0,0.1c0,0,0.1,0,0.1,0.1s0,0.1,0.1,0.1c0.1,0,0,0,0,0
	c-0.1,0-0.1,0-0.1,0.2c0,0.1,0,0.2,0,0.2c0,0.1,0,0.1,0,0c0,0,0.1,0,0.1,0c0,0,0,0,0,0c0,0,0,0,0.1,0s0.1,0.1,0.1,0.1s0.1,0,0.2,0
	c0.1,0,0.2,0,0.2,0c0,0.1,0.1,0,0.1,0c0-0.1,0-0.1,0.1,0c0.1,0.1,0.1,0.1,0.1,0c0-0.1,0.1-0.1,0.1,0c0,0.1,0.1,0,0-0.1
	c0,0,0,0,0.1,0c0,0,0.1,0,0.1,0c0,0,0.1,0,0.1,0c0,0,0,0,0,0c-0.1-0.1,0-0.2,0.2-0.2c0.1,0,0.1,0,0.1,0c0,0,0-0.1,0-0.1
	c0,0,0-0.1,0-0.1c0,0,0,0,0-0.1c0,0,0.1-0.1,0.2,0c0.1,0,0.1,0,0.1,0c0,0,0-0.1,0-0.1c0.2,0,0.2,0,0.2-0.1c0-0.1,0-0.1,0-0.1
	s0.1,0,0,0c0,0,0,0,0,0c0.1,0,0.1,0.1,0,0.1c-0.1,0-0.1,0.1,0,0.1c0,0,0.1,0,0.1,0c0-0.1,0.2-0.3,0.3-0.2c0.1,0,0.1,0.1,0.1,0
	s0,0,0,0c0,0,0,0,0,0s0,0,0.1,0s0.1,0,0.1,0c0-0.1,0.1-0.2,0.2-0.2c0.1,0,0.1,0,0.1,0c0,0,0,0,0,0c0,0.1,0.1,0.1,0.2,0
	c0.1-0.1,0.1-0.2,0.2-0.2c0,0,0.1-0.1,0.1-0.1c0-0.1,0-0.1,0.1-0.1c0,0,0,0,0-0.1c0-0.1,0-0.1,0,0c0.1,0,0.1,0,0.1-0.1
	c0,0,0-0.1,0-0.1c0,0,0.1-0.1,0.1-0.2c0-0.1,0-0.1,0.1-0.1c0.1,0,0.1,0,0.1-0.1c0,0,0,0,0.1,0c0.1,0,0.1,0,0.1,0c0,0,0,0,0.1,0
	c0,0,0,0,0,0.1c0,0,0,0.1,0,0.1c0.3,0,0.2-0.7-0.1-1.6c-0.1-0.4-0.2-0.7-0.2-0.7c0-0.1,0-0.2,0-0.2c0,0,0,0,0,0c0-0.1,0-0.2-0.1-0.2
	c0,0,0,0,0,0c0-0.1-0.3-0.8-0.3-0.8c0,0,0,0,0,0c0,0,0-0.1,0-0.1c0,0-0.1,0-0.1-0.1c0,0,0-0.1,0,0c0,0,0,0,0-0.1
	c0-0.1-0.1-0.1-0.1-0.1c0,0-0.1-0.2-0.1-0.4c0,0,0-0.1-0.1,0c0,0,0,0,0,0c0-0.1,0-0.2-0.1-0.2c0,0,0,0,0,0c0,0,0-0.1,0-0.1
	c0,0,0,0,0-0.1c0,0,0-0.1,0,0c0,0-0.1-0.1-0.2-0.2C33.7,14.3,33.7,14.3,33.4,14.9 M24.9,15.2C24.9,15.2,24.9,15.3,24.9,15.2
	c0.1,0.1,0.1,0.1,0.1,0C25,15.2,24.9,15.2,24.9,15.2 M25.2,15.2C25.2,15.3,25.2,15.3,25.2,15.2c0,0,0.1,0,0.1,0c0.1,0,0.1,0,0,0
	C25.3,15.2,25.2,15.2,25.2,15.2 M25.4,15.2c0,0,0,0,0.1,0s0.1,0,0.2,0c0,0,0,0,0,0C25.7,15.2,25.4,15.1,25.4,15.2 M25.5,15.4
	c0,0.1,0,0.1-0.1,0c-0.1-0.1-0.2,0-0.1,0.1c0,0,0.1,0.1,0.1,0.1c0,0,0.1,0,0.1,0c0,0,0,0,0,0C25.5,15.5,25.5,15.5,25.5,15.4
	C25.5,15.4,25.5,15.4,25.5,15.4C25.5,15.3,25.5,15.3,25.5,15.4 M25.6,15.5c0,0.1,0.1,0.2,0.1,0.1c0,0,0,0,0,0S25.7,15.5,25.6,15.5
	c0.1-0.1,0.1-0.1,0-0.1C25.6,15.3,25.6,15.4,25.6,15.5 M24.4,16C24.4,16,24.4,16,24.4,16C24.3,16.1,24.3,16,24.4,16
	c-0.1,0-0.1,0-0.1-0.1C24.3,15.9,24.3,15.9,24.4,16C24.4,15.9,24.4,15.9,24.4,16 M19,17.7c0,0,0.3,0,0.4,0c0,0,0,0-0.1,0
	C19.1,17.7,19,17.7,19,17.7 M19.5,17.7c0,0,0.1,0,0.1,0s0.1,0,0.1,0s0,0-0.1,0C19.5,17.7,19.5,17.7,19.5,17.7 M5.8,19.4
	c0,0.1,0,0.4,0,0.6c0,0.4,0,0.2,0.1-0.5C5.9,19.1,5.9,19,5.8,19.4 M13.6,19.5C13.6,19.5,13.6,19.5,13.6,19.5c-0.1,0-0.1,0-0.1,0
	c0,0,0,0,0,0c0,0,0,0,0,0S13.5,19.4,13.6,19.5C13.6,19.4,13.6,19.5,13.6,19.5 M12.8,20.1c0.3,0.3,0.8,0.6,0.6,0.4
	c-0.1-0.1-0.2-0.2-0.3-0.2c-0.1-0.1-0.2-0.1-0.1-0.2c0,0,0,0,0,0c0,0-0.1,0-0.2-0.1c-0.1-0.1-0.1-0.1-0.2-0.1
	C12.5,19.9,12.6,20,12.8,20.1 M6.1,20.2c0,0.1,0,0.1,0,0.2c0.1,0.1,0,0.4-0.1,0.4c0,0,0,0,0,0.1c0,0.1,0,0.1-0.1,0.1
	c-0.1,0-0.1,1.5-0.1,2c0,0.2,0,0.2,0.1,0.1c0-0.1,0-0.1,0,0c0,0.1,0,0.2,0,0.2c0,0.1,0,0.1,0,0c-0.1-0.1,0,0,0.1,0.5
	c0,0.2,0.1,0.2,0.1,0.1c0-0.1,0,0,0,0.1c0,0.2,0.1,0.4,0.1,0.6c0.1,0.2,0.1,0.4,0.1,0.4s0,0,0,0c0,0,0,0,0,0.1c0,0.1,0.7,1.5,1,1.8
	C7.5,27,7.6,27,7.5,27c-0.1,0,0.1,0.2,0.5,0.6c0.2,0.3,0.8,0.8,0.7,0.7c0,0,0-0.1,0-0.1s0,0,0,0c0,0,0,0.1,0.1,0.1s0.1,0.1,0.2,0.1
	c0.1,0.1,0.1,0.1,0,0.1c-0.1-0.1-0.1-0.1,0,0c0,0,0.1,0.1,0.2,0.1c0.1,0,0.1,0,0,0c0,0,0,0.1,0.1,0.2c0.1,0.1,0.2,0.1,0.2,0.1
	c-0.1-0.1,0.4,0.1,0.6,0.3c0,0,0.1,0,0.1,0c0.1,0,0.2,0.1,0.2,0.1c0,0,0,0,0,0c0,0,0.1,0,0.2,0c0.2,0,0.2,0,0.2,0.1s0.6,0.1,0.7,0
	c0.1-0.1,0.1-0.1,0,0c0,0.1,0,0.1,0.1,0.1c0,0,0.1,0,0.1,0c0,0,0,0,0,0c0,0,0,0,0,0c0,0,0,0,0.1,0c0,0,0.1,0,0.1-0.1
	c0,0,0-0.1,0-0.1c0,0-0.1,0-0.1,0c0,0.1-0.1,0.1-0.2-0.1l-0.1-0.1l0.1,0.1c0.1,0.1,0.5-0.1,0.4-0.3c0,0,0-0.1,0-0.1
	c0.1,0,0-0.2-0.1-0.2c0,0-0.1,0-0.1,0s0,0,0.1,0c0,0,0,0,0-0.1c-0.1-0.1-0.1-0.2-0.1-0.2c0-0.1,0-0.1,0-0.1c0,0,0,0,0,0
	c0,0,0-0.1,0-0.1c0,0-0.1,0.1-0.1,0.2c0,0,0,0,0,0c0,0,0-0.1,0-0.1c0,0-0.1-0.1-0.1-0.2C11.4,28,11.3,28,11.3,28c0,0,0,0-0.1,0
	c0,0-0.1-0.1-0.1-0.1s0-0.1-0.1-0.2c0-0.1-0.1-0.1-0.1-0.1c0,0,0,0,0-0.1c0,0-0.1,0-0.1,0c0,0.1-0.1,0.1-0.2,0c0-0.1,0-0.1,0-0.1
	c0,0,0.1,0,0,0c0,0-0.1-0.1-0.1,0c-0.1,0-0.1,0-0.1-0.1c0-0.1-0.1-0.1-0.2-0.1c-0.1,0-0.1,0,0,0c0.1-0.1,0-0.2-0.2-0.1
	c0,0-0.1,0,0,0c0,0-0.1-0.2-0.3-0.3c-0.4-0.3-1.2-1.1-1.5-1.5c-0.2-0.2-0.3-0.4-0.7-1c-0.5-0.7-1-2.2-1.2-3.4
	c-0.1-0.3-0.1-0.5-0.1-0.4C6.2,20.3,6.2,20.3,6.1,20.2C6.2,20,6.2,20,6.1,20.2 M5.7,21.1c0,0.2,0,0.3,0,0.2c0-0.1,0-0.3,0-0.4
	C5.7,20.8,5.7,20.9,5.7,21.1 M33.7,20.8c0,0-0.1,0.1-0.1,0.1c0,0-0.1,0-0.1,0c0,0,0-0.1,0.1-0.1C33.7,20.7,33.8,20.7,33.7,20.8
	 M30.5,21.6C30.5,21.7,30.5,21.7,30.5,21.6C30.6,21.6,30.6,21.6,30.5,21.6C30.5,21.5,30.5,21.5,30.5,21.6 M5.8,22c0,0.1,0,0.2,0,0.1
	c0-0.1,0-0.2,0-0.2C5.8,21.9,5.8,21.9,5.8,22 M5.9,22.5C5.9,22.6,5.8,22.5,5.9,22.5c0-0.2,0-0.2,0-0.2C5.9,22.4,5.9,22.5,5.9,22.5
	 M24.7,25c-0.6,0.2-1.2,0.4-1.3,0.4c-0.4,0.1-1,0.2-1.1,0.2c-0.1,0-0.2,0-0.2,0s-0.2,0-0.3,0.1c-0.1,0-0.2,0.1-0.2,0c0,0,0,0,0,0
	c0,0,0,0.1,0,0.1c0,0,0,0.1,0,0.1s0,0.1,0,0.1c0,0,0,0,0,0s-0.1,0.1-0.1,0.1c-0.5,0,0.4,0.6,2.1,1.2c1.1,0.4,1.1,0.5,1.6,0.7
	c0.2,0.1,0.3,0.2,0.3,0.2c0,0,0,0,0.1,0.1c0,0,0.1,0.1,0.1,0.1s0.1,0.1,0.3,0.2c0.1,0.1,0.2,0.2,0.3,0.2c0,0,0,0,0,0
	c0,0,0.1,0.1,0.2,0.3c0.2,0.2,0.2,0.2,0.1,0.1c-0.1-0.1-0.1-0.2-0.2-0.2c-0.1,0-0.1-0.1-0.1-0.1c0,0,0,0,0.1,0c0,0,0.1,0.1,0.2,0.1
	c0.1,0,0.1,0.1,0.2,0.1c0,0,0.1,0.1,0.2,0c0.1,0,0.1,0,0.1,0c0,0,0,0.1,0.1,0.1c0.1,0,0.1,0.1,0.1,0.1s0,0.1,0.1,0.1
	c0,0,0.1,0,0-0.1c0-0.1,0-0.1,0.1,0c0.1,0,0.1,0,0.1,0c0,0,0.1,0,0.2,0c0.1,0.1,0.1,0.1,0.2,0c0-0.1,0.2-0.1,0.3,0
	c0.1,0.1,0.1,0.1,0.1,0c0.1-0.2,0.2-0.2,0.3-0.1c0,0.1,0.1,0.1,0.2,0c0,0,0.1,0,0.2,0.1c0.1,0.1,0.1,0.1,0.1,0s0-0.1,0-0.1
	c0,0,0-0.1,0-0.1c0,0,0,0-0.1,0c0,0,0,0-0.1,0c0,0,0-0.1,0-0.1c0,0,0,0,0-0.1c0,0-0.1-0.1-0.1-0.1c0-0.2,0-0.3-0.1-0.3
	c0,0,0,0,0-0.1c0-0.1-0.1-0.3-0.1-0.3c0,0-0.1-0.1-0.1-0.2c-0.1-0.4-1.1-1.4-1.9-2c-0.2-0.2-1.1-0.6-1.2-0.7c0,0-0.1,0-0.1,0
	c-0.1-0.1-0.2-0.1-0.3-0.1c0,0-0.1,0-0.1,0C25,25,24.9,25,24.7,25 M8.6,28.1l0.1,0.1L8.6,28.1c-0.2-0.1-0.3-0.3-0.2-0.2
	C8.5,28,8.6,28.1,8.6,28.1 M11.4,28.2C11.4,28.2,11.3,28.2,11.4,28.2C11.3,28.1,11.3,28.1,11.4,28.2C11.3,28.1,11.4,28.2,11.4,28.2
	 M11.9,28.6c0,0.1,0,0.1,0.1,0c0.1,0,0.1-0.1,0-0.1C12,28.6,11.9,28.6,11.9,28.6 M11.8,28.7C11.8,28.7,11.7,28.8,11.8,28.7
	C11.7,28.7,11.7,28.7,11.8,28.7C11.8,28.6,11.8,28.6,11.8,28.7 M26.9,29.8c0.1,0.1,0.1,0.1,0.1,0.1S27,29.9,26.9,29.8
	c0-0.1-0.1-0.1-0.1-0.1C26.8,29.7,26.9,29.7,26.9,29.8 M33.4,32.3c-0.1,0.1-0.2,0.1-0.2,0.1c0,0,0,0,0,0c0,0,0,0.1-0.1,0.2
	c-0.1,0.2-0.3,0.2-0.2,0.1c0-0.1,0-0.1,0,0c-0.1,0-0.1,0.1-0.1,0.1c0,0,0,0,0,0c0,0-1.2,0.8-1.2,0.9c0,0,0,0,0,0c0,0-1.3,1-1.7,1.3
	c-0.1,0.1-0.1,0.1-0.1,0.1c0.1-0.1,0.1,0,0,0.1c-0.1,0.1-0.2,0.1-0.1,0c0,0,0,0,0,0c0,0-0.1,0.1-0.1,0.1c0,0-0.2,0.3-0.3,0.3
	c0,0,0,0,0-0.1c0,0,0,0-0.1,0.1c-0.1,0.1-0.2,0.2-0.2,0.2c0,0-0.4,0.4-0.9,0.8c-1.6,1.4-2.5,2.4-3.6,4.1c-0.2,0.4-0.4,0.7-0.4,0.7
	c0,0,0,0,0,0c-0.1-0.1-0.5,0.6-0.4,0.7c0,0.1-0.1,0.2-0.1,0.2c0,0,0,0.1-0.1,0.2c0,0.2,0,0.2,0.1,0.2c0,0,0.1,0,0.1,0c0,0,0,0,0.1,0
	s0.1,0,0.1,0.1c0,0,0,0,0,0c0,0,0.1,0,0.1,0c0,0,0,0.1,0,0.1c0,0.1,0.1,0.1,0.1,0c0.1-0.1,0.2-0.1,0.3,0c0,0,0.1,0.1,0.1,0
	c0,0,0.2,0.1,0.2,0.1c0,0.1,0,0.2,0,0.1c0-0.1,0.2-0.1,0.2,0c0,0,0,0.1,0,0.1c0,0,0,0,0,0s0-0.1,0.1-0.1c0,0,0.1,0,0.1,0
	c0,0,0,0,0-0.1c0,0,0-0.1,0-0.1c0,0,0.1,0,0,0s0,0,0,0c0,0,0.1,0,0.1,0c0,0,0,0,0.1,0c0.1,0,0.2,0,0.2,0c0,0,0.1,0,0.1,0
	c0,0,0,0,0.1,0c0,0,0.1,0,0.1-0.1c0.1-0.1,0.3-0.2,0.2-0.1c0,0,0,0,0,0c0,0,0.1,0,0.1,0c0,0,0.1,0.1,0.1,0.1c0.1,0,0.1,0,0-0.1
	c0,0-0.1-0.1,0-0.1c0,0,0.1,0,0.1,0c0.1,0,0.1,0.1,0.1,0c0,0,0-0.1,0-0.1c0,0-0.1,0-0.1-0.1s0,0,0,0c0.1,0,0.2,0,0.2-0.1
	c0-0.1,0-0.1,0,0c0,0,0.1,0,0.1,0c0,0,0,0,0.1,0c0.1,0,0.3-0.1,0.3-0.2c0-0.1,0.2-0.3,0.2-0.3c0,0,0.1,0,0.1-0.1c0-0.1,0-0.1,0-0.1
	c0,0,0.1-0.2,0.3-0.5c0.5-0.9,1.5-2.6,1.8-2.8c0,0,0.1-0.1,0.2-0.3c0.1-0.1,0.7-0.7,1.3-1.3c1.7-1.8,2.3-2.8,2.5-4.4
	C33.6,32.2,33.6,32.2,33.4,32.3 M26.9,42.6C26.9,42.7,26.9,42.7,26.9,42.6C26.9,42.7,26.8,42.7,26.9,42.6
	C26.7,42.6,26.8,42.6,26.9,42.6 M23.9,43c-0.1,0.1-0.2,0.2-0.1,0.1c0,0,0.1,0,0.1,0c0,0,0,0,0.1,0s0.1,0,0.1,0c0,0,0,0,0,0
	S23.9,43.1,23.9,43c0,0.1,0.1,0,0.1,0.1c0.1,0,0.2,0,0.1-0.1c0,0-0.1,0-0.1,0C24,43,24,43,23.9,43 M25.4,43.3c0,0.1,0.1,0.1,0.1,0
	C25.5,43.3,25.5,43.3,25.4,43.3C25.4,43.2,25.4,43.2,25.4,43.3"/>
<path id="path4" class="st3" d="M23.5,2.6c0.1,0,0.1,0,0.2,0S23.7,2.5,23.5,2.6C23.5,2.6,23.5,2.6,23.5,2.6 M23.2,2.6
	c-0.1,0.1-0.1,0.1,0.1,0c0.1,0,0.1-0.1,0.1-0.1C23.3,2.6,23.2,2.6,23.2,2.6 M23.9,2.6c0,0,0.1,0.1,0.2,0.1c0.1,0,0.1,0.1,0.1,0
	C24.2,2.7,23.9,2.6,23.9,2.6C23.8,2.6,23.8,2.6,23.9,2.6 M22.7,2.9l-0.2,0.2L22.7,2.9C22.9,2.8,23,2.7,23,2.7s0,0,0,0
	C23,2.7,22.9,2.8,22.7,2.9 M24.4,2.9c0.2,0.2,0.3,0.4,0.4,0.6c0,0.1,0,0.1,0,0C24.8,3.4,24.5,3,24.4,2.9C24.2,2.8,24.2,2.8,24.4,2.9
	 M22.5,3.3c0,0.1,0,0.1,0,0.2C22.4,3.6,22.4,3.5,22.5,3.3C22.5,3.2,22.5,3.1,22.5,3.3 M22.4,3.8C22.4,3.9,22.4,3.9,22.4,3.8
	c0,0,0-0.1,0-0.1C22.4,3.6,22.4,3.7,22.4,3.8 M24.4,4.6C24.3,4.8,24.2,4.8,24.4,4.6c0.1,0,0.2-0.2,0.2-0.2
	C24.6,4.4,24.5,4.5,24.4,4.6 M22.7,4.6c0.1,0.1,0.4,0.3,0.4,0.2c0,0,0,0,0,0c0,0-0.1-0.1-0.3-0.2C22.7,4.6,22.6,4.6,22.7,4.6
	 M23.5,5c0.1,0,0.1,0,0.2,0C23.7,5,23.7,5,23.5,5C23.5,5,23.4,5,23.5,5 M21,5.4c3.7,0,6.5,0,6.5,0c0,0-1.8,0-4,0
	C21.3,5.4,20.2,5.4,21,5.4 M19.9,6.1c0.1,0.2,0.2,0.4,0.2,0.4C20.2,6.5,20.1,6.3,19.9,6.1c-0.1-0.2-0.2-0.4-0.2-0.4
	S19.8,5.8,19.9,6.1 M20.7,7.6c0,0.1,0.1,0.2,0.1,0.2C20.8,7.8,20.8,7.7,20.7,7.6c0-0.1-0.1-0.2-0.1-0.2C20.6,7.4,20.6,7.5,20.7,7.6
	 M17.1,8.4C17.1,8.4,17.1,8.5,17.1,8.4C17,8.5,17,8.5,17,8.5C17.1,8.5,17.1,8.5,17.1,8.4C17.1,8.4,17.1,8.4,17.1,8.4
	C17,8.4,17,8.4,17.1,8.4 M21.6,9.4c0,0.1,0.1,0.1,0.1,0.1C21.7,9.6,21.7,9.5,21.6,9.4c0-0.1,0-0.1,0-0.1C21.6,9.3,21.6,9.4,21.6,9.4
	 M15.2,9.8l-0.3,0.3L15.2,9.8c0.3-0.3,0.4-0.3,0.3-0.3C15.5,9.5,15.4,9.6,15.2,9.8 M22.2,10.5c0,0,0,0.1-0.1,0.1l-0.2,0l0.2,0
	C22.3,10.6,22.4,10.6,22.2,10.5C22.2,10.5,22.2,10.5,22.2,10.5 M24.7,10.6c0,0,0.2,0,0.6,0c0.6,0,0.5,0-0.2,0
	C24.9,10.6,24.7,10.6,24.7,10.6 M26.6,10.6c0,0,0.1,0,0.1,0c0.1,0,0.1,0,0.1,0C26.8,10.5,26.6,10.5,26.6,10.6 M20.3,10.6
	c0,0,0,0.1,0,0.1C20.3,10.8,20.3,10.8,20.3,10.6c0,0,0.1,0,0.1,0c0.1,0,0.1,0,0,0C20.3,10.6,20.3,10.6,20.3,10.6 M20.2,11.1
	C20.2,11.1,20.2,11.2,20.2,11.1C20.2,11.1,20.2,11,20.2,11.1C20.2,10.9,20.2,11,20.2,11.1 M34.7,11.3c0.1,0.1,0.2,0.2,0.2,0.2
	C34.9,11.6,34.9,11.5,34.7,11.3c-0.1-0.1-0.2-0.2-0.2-0.2S34.6,11.2,34.7,11.3 M20.1,11.6c0,0.1,0,0.1,0,0.1
	C20.1,11.7,20.1,11.7,20.1,11.6c0,0,0.1-0.1,0-0.1C20.1,11.5,20.1,11.5,20.1,11.6 M20,11.8c0,0,0.1,0.1,0.1,0.2l0.1,0.1L20.2,12
	C20.1,11.9,20.1,11.9,20,11.8C20,11.8,20,11.8,20,11.8 M26.8,12.1l-0.2,0.2L26.8,12.1c0.2-0.1,0.2-0.2,0.2-0.2
	C27,11.9,26.9,12,26.8,12.1 M20.3,12.1c0,0,0.1,0.1,0.1,0.1l0.1,0.1l-0.1-0.1C20.4,12.1,20.3,12.1,20.3,12.1 M37.2,12.9
	c0.8,0.8,0.9,0.9,0.5,0.5c-0.1-0.2-0.5-0.5-0.7-0.7C36.7,12.4,36.7,12.5,37.2,12.9 M26.5,13.1c0.2,0.2,0.4,0.4,0.4,0.4
	S26.8,13.3,26.5,13.1c-0.1-0.2-0.3-0.4-0.3-0.4C26.2,12.8,26.3,12.9,26.5,13.1 M20.4,13.4l-0.5,0.5L20.4,13.4
	c0.5-0.5,0.6-0.5,0.5-0.5C20.9,12.8,20.6,13.1,20.4,13.4 M13.6,13.1c0,0.1,0,0.2,0,0.1s0-0.1,0-0.2S13.6,13,13.6,13.1 M27.2,13.9
	c0.1,0.1,0.2,0.2,0.2,0.2S27.3,14,27.2,13.9c0-0.1-0.1-0.2-0.1-0.2C27,13.7,27.1,13.7,27.2,13.9 M38.1,14c0.1,0.1,0.3,0.4,0.5,0.6
	c0.2,0.2,0.3,0.4,0.3,0.4C38.9,15,38.2,14,38.1,14C38,13.8,38,13.9,38.1,14 M13.6,14.6C13.6,14.6,13.6,14.7,13.6,14.6
	C13.7,14.6,13.7,14.5,13.6,14.6C13.6,14.4,13.6,14.5,13.6,14.6 M31.1,14.8c0,0.1,0,0.1,0,0.1c0,0-0.1,0-0.1,0
	c-0.1,0-0.2,0.2-0.5,0.4c-0.2,0.2-0.5,0.6-0.7,0.8c-0.2,0.2-0.4,0.5-0.5,0.5c-0.1,0.1-0.1,0.1-0.1,0.1c0,0-0.1,0.1-0.2,0.2
	s-0.2,0.2-0.3,0.2s-0.1,0-0.1,0.1c0,0-0.1,0.2-0.2,0.4c-0.1,0.2-0.4,0.6-0.5,0.8c-0.9,1.6-2.5,3.1-4.3,4.1c-0.9,0.5-0.8,0.5-0.8,0.5
	c0,0,0,0.1,0,0c0,0-0.1,0.1-0.2,0.2c-0.2,0.2-0.4,0.4-0.4,0.4c0,0-0.1,0-0.1,0.1c-0.2,0.1-0.4,0.3-0.6,0.4c-0.1,0-0.2,0.1-0.3,0.2
	c-0.1,0.1-0.2,0.1-0.2,0.1c0,0-0.1,0.1-0.2,0.2c-0.1,0.1-0.2,0.2-0.4,0.2c-0.3,0,1,0,1.4-0.1c0.7-0.1,2-0.4,2-0.4c0,0-0.1,0-0.2,0
	c-0.3,0.1-0.4,0-0.1-0.2c0.1-0.1,0.3-0.2,0.4-0.4s0.3-0.2,0.3-0.2s0.2-0.1,0.4-0.3s0.4-0.3,0.4-0.3c0,0,0.1-0.1,0.2-0.2
	c0.1-0.1,0.3-0.3,0.4-0.3s0.2-0.2,0.3-0.2c0.1-0.1,0.2-0.2,0.4-0.3c0.1-0.1,0.4-0.3,0.6-0.5c0.3-0.3,0.6-0.6,1-0.9
	c0.1-0.1,0.2-0.2,0.3-0.3c0.1-0.1,0.1-0.1,0.2-0.2c0.2-0.2,0.4-0.4,0.7-0.6c0.2-0.2,0.4-0.4,0.5-0.5s0.3-0.3,0.4-0.4
	s0.3-0.2,0.3-0.2c0,0,0.1-0.1,0.1-0.1c0,0,0.1-0.1,0.1-0.1s0.1-0.1,0.3-0.2c0.1-0.1,0.2-0.2,0.3-0.2c0,0,0,0,0,0c0,0,0-0.1,0-0.1
	c0,0,0.1-0.1,0.1-0.1c0.1-0.2,0.1,0,0,0.2c-0.1,0.3-0.1,0.4,0,0.2c0.3-0.7,0.4-3,0.2-3.4C31.1,14.7,31.1,14.7,31.1,14.8 M39,15.3
	c0.2,0.3,0.3,0.5,0.2,0.3c-0.2-0.3-0.5-0.5-0.3-0.3c0,0,0,0,0,0c0,0-0.1,0-0.1,0.1c0,0.1,0,0.1,0,0.1c0,0,0,0.1,0,0.2c0,0,0,0-0.1,0
	c-0.1,0-0.1,0,0,0.1c0,0,0,0.1,0,0.1s-0.1,0-0.1,0.1c0,0-0.1,0.1-0.1,0.1c0,0-0.1,0-0.1,0s0,0.1-0.1,0.1s-0.1,0-0.1,0.1
	c0,0.1,0,0.1-0.1,0c-0.1,0-0.1,0-0.1,0c0,0.1-0.1,0.2-0.1,0.1c0,0,0,0,0,0.1c0,0.1,0,0.1,0,0.1c-0.1,0-0.1,0-0.1,0.1
	c0,0-0.3,0.2-0.4,0.2c0,0,0,0,0-0.1c0,0,0,0,0,0c0,0-0.1,0.1-0.1,0.1c0,0.1-0.1,0.2-0.1,0.1c0,0,0,0-0.1,0.1c0,0.1-0.1,0.2-0.2,0.3
	c-0.1,0.1-0.1,0.1-0.1,0.1c0,0,0,0,0,0c0,0-0.1,0,0,0.2l0,0.2l-0.1-0.1c0-0.1-0.1-0.1-0.1-0.1c0,0,0,0,0.3,0.9
	c0.8,1.9,1.1,3.5,1.1,5.2c0,1.1,0,1.1-0.2,2.2l0,0.1l0-0.1c0.1-0.2,0.3-1.3,0.3-1.7c0-0.4,0-0.4,0-0.1c0,0.3,0,0.3,0.1,0.3
	c0.1,0,0.1,0,0.1-0.1c0-0.1,0.1-0.2,0.1-0.3c0,0,0.1-0.1,0.1-0.2c0-0.1,0.3-0.5,0.4-0.5c0,0,0.1,0,0-0.1c0,0,0.1-0.2,0.1-0.2
	c0,0,0.1,0,0.1,0c0.1,0,0.1-0.2,0-0.1c0,0-0.1,0-0.1,0c0,0,0-0.1,0.1-0.1c0,0,0.1,0,0.2-0.1c0.1-0.1,0.1-0.1,0.1,0c0,0,0.1,0,0,0
	c0,0,0-0.1,0-0.1c0,0,0.1,0,0-0.1c0-0.1,0-0.1,0.1,0c0.1,0,0.1,0,0.1,0c0,0-0.1,0-0.1-0.1s0,0,0.1,0c0.1,0,0.1,0,0.2,0
	c0,0,0.1-0.1,0-0.1c0,0,0,0,0-0.1c0,0,0.1,0,0.1,0c0,0,0.1,0,0.1,0c0,0,0.1,0,0.1,0c0,0,0.1,0,0.1,0c0.1,0,0.1,0,0,0
	c0,0.1,0,0.1,0,0.1c0.1,0.1,0.1,0.1,0,0.2c0,0.1,0,0.1,0,0s0.1-0.1,0.1,0c0,0,0,0.1,0,0.1s0,0.1,0,0.2c0,0.1,0-0.1,0-0.4l0-0.5
	l0,0.6c0,0.3,0,0,0-0.8c0-1.8-0.2-3-0.7-4.1c-0.2-0.5-0.2-0.6-0.1-0.3c0,0.1,0.1,0.2,0.1,0.2s0-0.1-0.1-0.3s-0.2-0.2-0.2-0.2
	c0,0,0,0,0,0c0.1-0.1-0.8-1.5-0.9-1.5c0,0,0,0,0,0c0,0-0.3-0.7-0.4-0.7C38.9,15,39,15.1,39,15.3 M8,20.5c0,0.1,0.1,0.2,0.2,0.2
	l0.1,0.1l-0.1-0.1C8.1,20.6,8,20.5,8,20.5l-0.1-0.1L8,20.5 M29.6,20.7c-0.1,0.1-0.1,0.1-0.1,0.1c0.1,0,0.2-0.3,0.2-0.3
	C29.7,20.5,29.6,20.6,29.6,20.7 M8.4,21c0.3,0.4,1.2,1.4,1.7,1.8c0.1,0.1,0-0.1-0.4-0.5c-0.4-0.4-0.8-0.9-1-1.1
	C8.2,20.8,8.1,20.7,8.4,21 M29.3,21l-0.1,0.1L29.3,21c0.1,0,0.2-0.1,0.2-0.1C29.5,20.8,29.4,20.9,29.3,21 M28.8,21.6L28.4,22
	L28.8,21.6c0.4-0.4,0.4-0.4,0.4-0.4C29.2,21.2,29,21.4,28.8,21.6 M8.3,22.2c0,0,0,0.1,0.1,0.2c0,0.1,0.1,0.1,0.1,0.1
	C8.4,22.4,8.4,22.3,8.3,22.2C8.3,22.2,8.3,22.1,8.3,22.2 M10.7,23.3c0,0,0.1,0.1,0.1,0.1c0.1,0.1,0.1,0.1,0.1,0.1s-0.1-0.1-0.1-0.1
	C10.7,23.3,10.7,23.3,10.7,23.3 M36.4,23.7c0,0.2,0,0.3,0,0.2s0-0.3,0-0.4C36.4,23.4,36.4,23.4,36.4,23.7 M4.3,23.5
	C4.3,23.6,4.3,23.6,4.3,23.5C4.3,23.5,4.3,23.4,4.3,23.5C4.3,23.4,4.3,23.4,4.3,23.5 M41.1,23.7c0,0.2,0,0.2,0,0.1
	c0-0.1,0-0.2,0-0.3C41.1,23.4,41.1,23.5,41.1,23.7 M4.2,23.9c0,0.1,0,0.2,0,0.1c0-0.1,0-0.2,0-0.2C4.2,23.7,4.2,23.8,4.2,23.9
	 M30.9,24c0,0.1-0.1,0.1-0.1,0.1c0,0-0.1,0-0.2,0.1c0,0-0.1,0.1-0.2,0.1c-0.1,0-0.1,0-0.2,0.1c0,0-0.1,0.1-0.2,0.1
	c-0.1,0-0.2,0-0.2,0.1c-0.1,0.1-0.1,0.1-0.2,0.1s-0.1,0-0.1,0c0,0-0.1,0.1-0.2,0.1c-0.1,0-0.2,0-0.2,0.1s0,0,0,0c0,0-0.1,0-0.1,0
	c0,0-0.1,0-0.1,0c0,0,0,0,0,0c0,0,0,0-0.1,0c-0.1,0-0.3,0.1-0.3,0.2c0,0,0,0-0.1,0c-0.1,0-0.4,0.1-0.4,0.2c0,0,0,0-0.1,0
	c0,0-0.1,0,0,0c0,0,0,0-0.1,0c-0.1,0-0.1,0-0.1,0c0,0,0,0,0,0c0,0-0.1,0-0.1,0.1c0,0-0.1,0.1-0.2,0.1c-0.2,0-0.7,0.1-0.8,0.2
	c-0.1,0.1,0.1,0.3,0.2,0.3c0.1,0,0.7,0.6,0.9,0.8c0.6,0.6,1.2,1.5,1.4,2.1c0.1,0.2,0.2,0.4,0.2,0.4c0,0,0-0.1-0.1-0.2
	c0-0.1-0.1-0.2-0.1-0.2c0,0,0,0,0.1,0c0,0,0.1,0,0.1,0c0,0,0,0,0.1,0c0.1,0,0.1,0.1,0.2,0c0,0,0.1,0,0.1,0c0,0,0,0,0.1,0
	c0.1,0,0.1,0,0.2,0c0,0,0.1,0,0.1-0.1c0.1-0.1,0.2-0.1,0.4-0.1c0,0,0.1,0,0.1-0.1c0,0,0.1-0.1,0.1-0.1s0.1,0,0.1-0.1
	c0,0,0-0.1,0.1-0.1c0,0,0,0,0,0.1c0,0.1,0,0,0.1,0c0.1,0,0.1-0.1,0.2-0.1c0,0,0,0,0,0c0,0,0,0,0.1,0c0.2,0,0.3,0,0.3,0s0,0,0.2-0.1
	c0.1,0,0.1-0.1,0.2-0.1c0.1-0.1,0.1-0.1,0.1-0.1c0,0.1,0,0,0.1-0.1c0,0,0,0,0.1,0c0.2,0.1,0.3,0,0.3,0c0,0,0-0.1,0-0.1
	c0-0.1,0-0.1,0,0c0,0.1,0,0.1,0,0c0,0,0.1,0,0.1,0c0,0,0,0,0-0.1c0,0,0-0.1,0,0c0,0,0.1,0,0.2,0c0.2-0.1,0.2-0.1,0.2,0.1
	c0,0,0,0.1,0.1,0.1c0,0,0.1,0,0.1,0.1s0,0.1,0,0.1c0,0-0.1-0.6-0.2-0.5c0,0,0,0,0-0.1c0.1-0.3-1-2.6-1.5-3.1
	c-0.1-0.1-0.2-0.2-0.2-0.2c0,0,0,0-0.1,0s-0.1,0-0.1-0.1C31.3,23.9,31,23.9,30.9,24 M41.1,24.1C41.1,24.2,41.1,24.3,41.1,24.1
	c0,0,0-0.1,0-0.1C41.1,24,41.1,24,41.1,24.1 M42.5,24.1C42.5,24.2,42.5,24.3,42.5,24.1c0,0,0-0.1,0-0.1C42.5,24,42.5,24,42.5,24.1
	 M9.6,24.3c0.1,0.1,0.2,0.2,0.2,0.2S9.7,24.4,9.6,24.3c0-0.1-0.1-0.2-0.1-0.2C9.5,24.2,9.5,24.3,9.6,24.3 M23.9,24.4
	c-0.1,0-0.2,0.1-0.2,0.1s0.2,0,0.3-0.1c0.1,0,0.2-0.1,0.2-0.1S24.1,24.3,23.9,24.4 M4.2,24.7c0,0.2,0,0.3,0,0.2c0-0.1,0-0.3,0-0.4
	C4.2,24.4,4.2,24.5,4.2,24.7 M12.5,24.4c0.1,0.1,0.8,0.4,0.8,0.4c0,0-0.2-0.1-0.4-0.2C12.6,24.4,12.4,24.4,12.5,24.4 M36.4,24.6
	c0,0.1,0,0.2,0,0.1c0-0.1,0-0.2,0-0.2C36.4,24.4,36.4,24.5,36.4,24.6 M42.5,24.6c0,0.1,0,0.2,0,0.1c0-0.1,0-0.2,0-0.2
	C42.5,24.5,42.5,24.5,42.5,24.6 M10.2,25c0.1,0.1,0.3,0.3,0.3,0.3S10.4,25.1,10.2,25c-0.1-0.1-0.2-0.3-0.2-0.3
	C10,24.7,10.1,24.8,10.2,25 M14.3,25.1c0.1,0,0.2,0.1,0.2,0.1c0,0,0,0-0.1-0.1C14.2,25.1,14.1,25.1,14.3,25.1 M40.8,25.3
	c0,0.1,0,0.2,0,0.2C40.8,25.6,40.9,25.5,40.8,25.3c0-0.1,0.1-0.2,0-0.2C40.9,25.2,40.9,25.2,40.8,25.3 M14.6,25.2c0,0,0.1,0,0.2,0
	s0,0,0,0C14.7,25.2,14.6,25.2,14.6,25.2C14.5,25.2,14.6,25.2,14.6,25.2 M42.6,25.8c0,0.3,0,0.5,0,0.3c0-0.2,0-0.4,0-0.6
	C42.6,25.3,42.6,25.5,42.6,25.8 M4.2,25.5c0,0.1,0,0.2,0,0.1s0-0.2,0-0.2C4.2,25.3,4.2,25.4,4.2,25.5 M16.8,25.7c0,0,0.1,0,0.2,0
	C17.1,25.7,17,25.7,16.8,25.7C16.8,25.7,16.8,25.7,16.8,25.7 M4.3,25.9C4.3,25.9,4.3,26,4.3,25.9C4.3,25.9,4.3,25.8,4.3,25.9
	C4.3,25.7,4.3,25.8,4.3,25.9 M17.2,25.8c0.1,0,0.1,0,0.2,0C17.4,25.7,17.4,25.7,17.2,25.8C17.2,25.7,17.2,25.7,17.2,25.8 M17.7,25.8
	c0.1,0,0.2,0,0.2,0c0.1,0,0,0-0.1,0S17.6,25.8,17.7,25.8 M19.6,25.8c0,0,0.1,0.1,0.1,0.1l0.1,0.1l-0.1-0.1
	C19.7,25.8,19.7,25.8,19.6,25.8C19.6,25.8,19.6,25.8,19.6,25.8 M18.5,25.8c0.2,0,0.5,0,0.7,0c0.2,0,0,0-0.4,0S18.3,25.8,18.5,25.8
	 M40.7,26c0,0.1,0,0.2,0,0.2C40.7,26.2,40.7,26.1,40.7,26c0-0.1,0.1-0.1,0-0.1C40.7,25.9,40.7,25.9,40.7,26 M11.8,26.1
	c0,0,0.5,0.3,0.6,0.3c0,0-0.1-0.1-0.3-0.2S11.8,26,11.8,26.1 M19.9,26.2c0.1,0.1,0.1,0.1,0.1,0.1C20.1,26.3,20,26.2,19.9,26.2
	c0-0.1-0.1-0.1-0.1-0.1C19.8,26,19.9,26.1,19.9,26.2 M37.7,26.4c0,0.1,0,0.2,0,0.2C37.7,26.6,37.8,26.5,37.7,26.4
	c0.1-0.1,0.1-0.1,0.1-0.1C37.8,26.2,37.8,26.3,37.7,26.4 M20.2,26.5c0.1,0.1,0.2,0.2,0.3,0.3c0.2,0.2,0.1,0.1-0.2-0.2
	C20.1,26.4,20.1,26.4,20.2,26.5 M42.5,26.9C42.5,27,42.5,27,42.5,26.9c0,0,0-0.1,0-0.1C42.5,26.8,42.5,26.8,42.5,26.9 M20.8,27
	c0.1,0.1,0.2,0.2,0.2,0.1C21,27.1,20.9,27.1,20.8,27C20.8,26.9,20.7,26.9,20.8,27 M36,27.2c0,0.1,0,0.2,0,0.2
	C36,27.3,36.1,27.3,36,27.2c0-0.1,0.1-0.1,0-0.1C36.1,27,36,27.1,36,27.2 M37.4,27.2C37.3,27.4,37.3,27.5,37.4,27.2
	c0.1,0,0.1-0.1,0.1-0.1C37.5,27.1,37.4,27.1,37.4,27.2 M40.3,27.4c0,0.1,0,0.2,0,0.2C40.3,27.6,40.4,27.5,40.3,27.4
	c0.1-0.1,0.1-0.1,0.1-0.2C40.4,27.2,40.4,27.3,40.3,27.4 M42.5,27.4c0,0.1,0,0.2,0,0.1c0-0.1,0-0.2,0-0.2
	C42.5,27.2,42.5,27.3,42.5,27.4 M37.2,27.6c0,0.1-0.1,0.1-0.1,0.2C37.2,27.8,37.2,27.7,37.2,27.6C37.3,27.4,37.3,27.4,37.2,27.6
	 M22,27.7c0.1,0,0.1,0.1,0.2,0.1C22.2,27.8,22.2,27.7,22,27.7C22.1,27.7,22,27.6,22,27.7C22,27.6,22,27.7,22,27.7 M18,28.4
	c0.1,0.1,0.2,0.2,0.2,0.2C18.3,28.6,18.2,28.5,18,28.4c-0.1-0.1-0.2-0.2-0.2-0.2C17.8,28.2,17.9,28.3,18,28.4 M24.2,28.5
	c0,0,0.1,0.1,0.2,0.1c0.1,0.1,0.2,0.1,0.2,0.1c0,0-0.1-0.1-0.2-0.1C24.3,28.6,24.2,28.5,24.2,28.5 M36.5,28.7
	c-0.1,0.1-0.1,0.1-0.1,0.1S36.5,28.8,36.5,28.7c0.1-0.1,0.1-0.1,0.1-0.1C36.6,28.6,36.6,28.6,36.5,28.7 M36.3,29.1
	c-0.1,0.1-0.1,0.2-0.1,0.2S36.2,29.2,36.3,29.1c0.1-0.1,0.2-0.2,0.2-0.2C36.4,28.9,36.4,29,36.3,29.1 M5.9,29.3c0,0,0.1,0.1,0.1,0.1
	l0.1,0.1l-0.1-0.1C6,29.3,5.9,29.2,5.9,29.3 M25.7,29.6c0.2,0.2,0.3,0.3,0.3,0.3S25.9,29.7,25.7,29.6c-0.1-0.2-0.2-0.3-0.3-0.3
	C25.4,29.3,25.5,29.4,25.7,29.6 M33.6,29.5C33.6,29.6,33.6,29.6,33.6,29.5c0,0,0-0.1,0-0.1C33.6,29.3,33.6,29.4,33.6,29.5
	 M35.8,29.7c-0.1,0.1-0.1,0.2-0.1,0.2c0.1,0,0.3-0.4,0.3-0.4C36,29.5,35.9,29.6,35.8,29.7 M23.2,29.9c0.1,0.1,0.2,0.2,0.2,0.2
	S23.4,30,23.2,29.9c0-0.1-0.1-0.2-0.1-0.2C23.1,29.7,23.1,29.8,23.2,29.9 M39.3,29.9c0,0.1-0.1,0.1,0,0.1
	C39.2,30.1,39.3,30,39.3,29.9c0.1-0.1,0.1-0.1,0.1-0.1C39.3,29.8,39.3,29.8,39.3,29.9 M33.7,30C33.7,30.1,33.7,30.1,33.7,30
	c0,0,0-0.1,0-0.1C33.7,29.8,33.7,29.9,33.7,30 M21.2,30.3l-0.4,0.4L21.2,30.3c0.4-0.3,0.4-0.4,0.4-0.4
	C21.6,29.9,21.4,30.1,21.2,30.3 M35.4,30.1c-0.1,0.1-0.2,0.2-0.2,0.2C35.3,30.3,35.4,30.2,35.4,30.1c0.1-0.1,0.2-0.2,0.2-0.2
	C35.6,29.9,35.5,30,35.4,30.1 M35.1,30.4C35,30.5,35,30.5,35,30.5c0,0,0.2-0.3,0.2-0.3C35.2,30.2,35.1,30.3,35.1,30.4 M33.7,30.7
	c0,0.2,0,0.3,0,0.2c0-0.1,0-0.3,0-0.4C33.7,30.4,33.7,30.5,33.7,30.7 M38.9,30.4c0,0.1-0.1,0.1,0,0.1C38.9,30.6,39,30.5,38.9,30.4
	c0.1-0.1,0.1-0.1,0.1-0.1C39,30.3,39,30.4,38.9,30.4 M35.1,30.5c-0.1,0.1-0.1,0.1-0.2,0.1c0,0-0.1,0-0.1,0.1c0,0.1,0,0.1,0,0
	c0.1,0,0.4-0.4,0.4-0.4C35.2,30.4,35.2,30.4,35.1,30.5 M9,30.6c0.1,0,0.3,0,0.4,0s0,0-0.2,0C8.9,30.6,8.8,30.6,9,30.6 M20.7,30.9
	L20.5,31L20.7,30.9c0.2-0.1,0.2-0.1,0.1-0.1C20.8,30.7,20.7,30.8,20.7,30.9 M19.2,31.3c0,0.2,0,0.3,0,0.2c0-0.1,0-0.2,0-0.3
	C19.2,31.1,19.2,31.1,19.2,31.3 M20.4,31.2l-0.1,0.1L20.4,31.2c0.2-0.1,0.2-0.1,0.1-0.1C20.5,31.1,20.4,31.1,20.4,31.2 M10.4,31.4
	v0.2V31.4c0.1-0.1,0.1-0.1,0-0.1C10.4,31.2,10.4,31.2,10.4,31.4 M33.8,31.5c0,0.2,0,0.3,0,0.2c0-0.1,0-0.3,0-0.4
	C33.8,31.2,33.8,31.3,33.8,31.5 M38.3,31.5c-0.1,0.1-0.1,0.1-0.1,0.1C38.2,31.6,38.3,31.6,38.3,31.5c0.1-0.1,0.1-0.1,0.1-0.1
	C38.4,31.4,38.3,31.4,38.3,31.5 M23.9,32c0,0.2,0,0.3,0,0.2c0-0.1,0-0.3,0-0.4C23.9,31.7,23.9,31.8,23.9,32 M19.6,32l-0.2,0.2
	L19.6,32c0.1-0.1,0.3-0.2,0.3-0.2C19.9,31.8,19.8,31.8,19.6,32 M27,32.4C27,32.5,27,32.5,27,32.4c0,0,0-0.1,0-0.1
	C27,32.3,27,32.3,27,32.4 M37.3,32.8l-0.2,0.2L37.3,32.8c0.2-0.1,0.2-0.2,0.2-0.2C37.4,32.6,37.4,32.7,37.3,32.8 M18.8,32.8
	c-0.1,0.2,0,0.2,0.1,0c0.1-0.1,0.1-0.1,0,0C18.9,32.9,18.9,32.9,18.8,32.8C18.9,32.6,18.9,32.6,18.8,32.8 M11.1,32.9
	C11,33.1,11,33.1,11.1,32.9c0.1,0,0.1-0.1,0.1-0.1C11.1,32.8,11.1,32.9,11.1,32.9 M29.9,33.1C29.9,33.1,29.9,33.2,29.9,33.1
	C29.9,33.1,29.9,33,29.9,33.1C29.9,32.9,29.9,33,29.9,33.1 M9.6,33.3c-0.1,0.2-0.2,0.3-0.1,0.3c0,0,0.3-0.6,0.3-0.6
	C9.8,33,9.7,33.1,9.6,33.3 M36.8,33.3l-0.3,0.3L36.8,33.3c0.2-0.1,0.3-0.3,0.3-0.3C37.1,32.9,37.1,33,36.8,33.3 M27,33.6
	C27,33.7,27,33.7,27,33.6C27,33.6,27,33.6,27,33.6C27,33.5,27,33.5,27,33.6 M35.5,34.5L35.1,35L35.5,34.5c0.3-0.3,0.5-0.4,0.5-0.4
	C35.9,34.1,35.7,34.3,35.5,34.5 M8.7,35c0,0.1-0.1,0.1,0,0.1C8.7,35.2,8.7,35.1,8.7,35c0.1-0.1,0.1-0.1,0.1-0.1
	C8.8,34.9,8.7,35,8.7,35 M34.7,35.3l-0.1,0.2L34.7,35.3c0.2-0.1,0.2-0.2,0.2-0.2C34.8,35.1,34.8,35.2,34.7,35.3 M40.4,35.4
	C40.4,35.5,40.4,35.5,40.4,35.4C40.4,35.4,40.4,35.4,40.4,35.4C40.4,35.3,40.4,35.3,40.4,35.4 M34.2,35.6L34,35.9L34.2,35.6
	c0.2-0.2,0.3-0.2,0.2-0.2C34.5,35.4,34.4,35.5,34.2,35.6 M40.3,35.8C40.3,35.9,40.4,35.9,40.3,35.8c0,0,0-0.1,0-0.1
	S40.3,35.7,40.3,35.8 M9.8,35.8C9.8,35.9,9.8,36,9.8,35.8c0.1,0,0.1-0.1,0.1-0.1C9.9,35.7,9.9,35.7,9.8,35.8 M33.1,36.6
	c-2.2,1.9-3.9,3.8-4.7,5.5c-0.1,0.1-0.1,0.1,0,0.1s0.1,0,0.1,0c0,0,0,0.1,0.1,0.1c0,0,0.1,0,0.1,0c0,0,0,0.1,0,0.1c0,0,0.1,0,0,0.1
	c-0.1,0,0,0.2,0.1,0.1c0.1,0,0.1,0.1,0,0.1c0,0,0,0,0,0.1c0,0,0,0,0.1,0c0,0,0,0,0,0c0,0,0,0.1,0,0.1c0,0,0.1,0.1,0.1,0.2
	c0,0.1,0.1,0.2,0.1,0.2c0.1,0.2,0.3,0.4,0.3,0.4c0,0,0,0,0.1,0.1s0.1,0.1,0.1,0.1c0,0,0.1,0.1,0.1,0.2c0.4,0.4,0.5,0.5,0.5,0.6
	c0,0.1,0.1,0.1,0.1,0.1c0,0,0.1,0,0.1,0.1c0,0,0,0.1,0.2,0.3c0,0,0.1,0.1,0.1,0.1s0.1,0.1,0.2,0.2c0.1,0.1,0.1,0.2,0.1,0.2
	c0,0,0,0,0,0c0,0,0.1,0,0.1,0c0,0,0,0.1,0,0c0,0,0,0,0,0c0,0.1,0,0.1,0.1,0.2c0,0.1,0.1,0.1,0.1,0.1c0,0,0,0,0,0c0,0,0,0.1,0,0.1
	c0,0,0,0,0,0.1c0,0,0,0.1,0,0.1s0.1,0.1,0.1,0.2c0.1,0.1,0.1,0.2,0.1,0.2c0,0,0.1,0.1,0.1,0.1c0,0.1,0.1,0.1,0.1,0.1c0,0,0,0,0,0
	c0,0.1,0.1,0.2,0.1,0.1c0,0,0,0,0,0s0.1,0.1,0.1,0.2s0.2,0.2,0.2,0.2l0.1,0.1h3c1.6,0,2.9,0,2.9,0c-0.1,0-0.2-0.2-0.2-0.2
	c0,0,0-0.1,0-0.1c0-0.1,0-0.1-0.1,0c0,0,0,0,0,0c0-0.1,0-0.1-0.1,0c0,0,0,0,0,0c0.1-0.1,0-0.2-0.1-0.2c0,0,0,0,0.1-0.1
	c0.1-0.1,0.1-0.1,0,0c0,0-0.1,0-0.1,0s0-0.1-0.1-0.1s-0.1-0.1,0-0.1c0-0.1-0.1-0.3-0.1-0.2c0,0-0.1,0-0.1,0c0,0,0,0,0,0
	c0,0,0,0,0-0.1c0-0.1,0-0.1-0.1-0.1c-0.1,0-0.1,0,0-0.1c0-0.1,0-0.1,0-0.1c0,0,0,0,0,0c0,0,0-0.1,0,0c0,0,0,0,0-0.1
	c0-0.1,0-0.1,0-0.2c0,0,0-0.1,0-0.1c0,0,0-0.1,0,0c0,0-0.1,0-0.1,0c0,0,0-0.1-0.1-0.1c0,0,0,0,0-0.1c0-0.1,0-0.1-0.1,0
	c-0.1,0-0.1,0,0,0c0-0.1,0-0.1,0,0c-0.1,0-0.1,0,0-0.1c0-0.1,0-0.1,0-0.1c-0.1,0.1-0.2,0-0.2-0.1c0,0,0-0.1,0-0.1
	c-0.1-0.1-0.1,0-0.1,0c0,0,0,0,0,0c-0.1-0.1-0.1-0.1,0-0.1c0.1,0,0.1,0,0,0c0,0-0.1-0.1-0.1-0.1c0,0,0,0-0.1,0c0,0-0.1,0,0-0.1
	c0,0,0-0.1,0-0.1c0,0-0.1-0.1-0.1-0.1c0,0,0-0.1,0-0.1s0,0-0.1,0c-0.1,0-0.1,0,0-0.1c0-0.1,0-0.1,0-0.1c0,0,0-0.1,0-0.1s0-0.1,0-0.1
	c0,0-0.2-0.1-0.2-0.2c0,0,0,0,0-0.1c0,0,0,0-0.1,0.1c-0.1,0.1-0.1,0,0-0.1c0-0.1,0-0.1-0.1-0.2c-0.1-0.1-0.1-0.1-0.2-0.1
	c-0.1,0.1,0,0,0-0.1c0-0.1,0-0.1,0-0.1c-0.1,0-0.1,0,0,0c0,0,0-0.1,0-0.1c0,0,0,0,0-0.1c0,0,0.1,0,0.1,0c0,0,0.1,0,0.1,0
	c0,0,0,0,0,0c0,0-0.1-0.1-0.1-0.1c-0.1-0.1-0.1-0.1-0.1,0c0,0.1,0,0.1,0,0.1c0,0-0.1-0.1-0.1-0.1c0-0.1,0-0.1,0-0.1c0,0,0,0,0,0
	c0,0-0.1,0-0.1,0c0,0-0.1,0-0.1,0c0,0,0,0,0,0c0.1,0-0.2-0.3-0.3-0.3c-0.1,0-0.1,0,0-0.1c0,0,0-0.1,0-0.1c0,0,0,0,0-0.1
	c0-0.1,0-0.1,0,0c0,0.1,0,0,0,0c0-0.1,0-0.1,0-0.1s0-0.1,0-0.1c0,0,0,0-0.1,0c0,0-0.1,0-0.1-0.1c0-0.1,0-0.1,0-0.1c0,0,0.1,0,0.1,0
	c0,0,0,0,0,0c0,0-0.1,0-0.1,0c0,0-0.1-0.1-0.1-0.1c-0.1,0-0.1-0.1-0.1-0.1c0-0.1-0.2-0.2-0.3-0.2c0,0,0,0,0-0.1c0,0,0-0.1,0,0
	c0,0-0.1,0-0.1,0c0,0,0,0,0,0c0,0,0,0,0,0s0,0-0.1,0c0,0,0,0,0,0c0.1-0.1,0-0.1-0.1-0.1c-0.1,0-0.1,0-0.1-0.2c0-0.2,0-0.2-0.1-0.1
	c0,0-0.1,0.1-0.1,0c0-0.2-0.1,0.1-0.2,0.4c-0.1,0.6-0.1,0.6-0.2,0c0-0.1,0-0.3-0.1-0.3s0-0.1,0-0.2c0,0,0,0-0.1-0.1
	c0,0-0.1-0.1-0.1-0.1c0,0,0-0.1,0,0c0,0,0,0,0-0.1c0-0.1,0-0.2-0.1-0.1c0,0-0.1,0,0,0c0,0,0-0.1-0.1-0.1c-0.1,0-0.1-0.1-0.1-0.1
	c0,0,0,0,0,0c0,0-0.1-0.1-0.1-0.2c0-0.1-0.1-0.2-0.1-0.2c0,0-0.1-0.1-0.1-0.1c0-0.1,0-0.1-0.1-0.1s0,0,0,0c0,0,0-0.1,0-0.2
	s0-0.2,0-0.3c0-0.1,0-0.1-0.1-0.1c-0.1,0-0.1,0-0.1-0.1c0,0,0-0.1,0-0.1c0,0,0-0.1,0-0.1c0,0,0.1-0.1,0.1-0.1c0,0,0-0.1,0,0s0,0,0,0
	c0,0,0.6-0.6,1.6-1.5c0.1-0.1,0.2-0.2,0.2-0.2C34,35.8,33.6,36.2,33.1,36.6 M40.3,36.7c0,0.4,0,0.6,0,0.4c0-0.2,0-0.5,0-0.7
	C40.3,36.1,40.3,36.3,40.3,36.7 M9.6,36.6c0.1,0,0.1,0,0.2,0C9.9,36.6,9.8,36.6,9.6,36.6C9.6,36.6,9.6,36.6,9.6,36.6 M10,36.6
	c0.1,0,0.1,0,0.2,0C10.3,36.6,10.2,36.6,10,36.6C10,36.6,10,36.6,10,36.6 M10.5,36.7c0.1,0,0.2,0,0.2,0c0.1,0,0,0-0.1,0
	C10.5,36.6,10.4,36.7,10.5,36.7 M11,36.7c0,0,0.1,0,0.2,0C11.2,36.7,11.2,36.7,11,36.7C11,36.7,10.9,36.7,11,36.7 M11.6,36.8
	c0,0,0.1,0,0.2,0S11.8,36.8,11.6,36.8C11.6,36.8,11.6,36.8,11.6,36.8 M40.3,37.6C40.3,37.7,40.4,37.7,40.3,37.6c0,0,0-0.1,0-0.1
	C40.4,37.4,40.3,37.5,40.3,37.6 M40.4,38C40.4,38,40.4,38.1,40.4,38C40.4,38,40.4,37.9,40.4,38C40.4,37.8,40.4,37.9,40.4,38
	 M21.1,38.8L21,38.9L21.1,38.8c0.2-0.1,0.2-0.1,0.1-0.1C21.3,38.6,21.2,38.7,21.1,38.8 M20.5,39.5l-0.6,0.6L20.5,39.5
	c0.3-0.3,0.6-0.5,0.6-0.6C21,38.9,21,39,20.5,39.5 M40.8,39.8c0,0,0,0.1,0.1,0.2C40.9,40.2,40.9,40.1,40.8,39.8
	C40.8,39.8,40.8,39.8,40.8,39.8 M19.7,40.2l-0.1,0.1L19.7,40.2c0.2-0.1,0.2-0.1,0.1-0.1C19.9,40,19.8,40.1,19.7,40.2 M41.1,40.7
	c0,0.1,0,0.1,0.1,0.2c0,0,0,0,0,0C41.1,40.7,41.1,40.7,41.1,40.7C41.1,40.6,41,40.6,41.1,40.7 M12.5,41.2c0,0.3,0,0.4,0,0.2
	c0-0.1,0-0.3,0-0.5C12.5,40.9,12.5,41,12.5,41.2 M18.7,40.9c-0.1,0.1-0.2,0.1-0.2,0.2S18.6,41,18.7,40.9c0.1,0,0.2-0.1,0.2-0.1
	C19,40.8,19,40.8,18.7,40.9 M23.2,40.9c-0.1,0.1-0.2,0.3-0.1,0.3c0.1-0.1,0.2-0.4,0.2-0.4C23.3,40.8,23.2,40.9,23.2,40.9 M18.4,41.2
	C18.1,41.3,18.1,41.4,18.4,41.2c0,0,0.1,0,0.1,0C18.5,41.1,18.5,41.1,18.4,41.2 M17.7,41.7c-0.1,0.1-0.2,0.1-0.2,0.1
	c0,0,0.3-0.1,0.4-0.2C17.9,41.5,17.8,41.5,17.7,41.7 M22.7,41.8c0,0.1-0.1,0.1,0,0.1C22.7,41.9,22.7,41.9,22.7,41.8
	c0.1-0.1,0.1-0.1,0.1-0.1S22.7,41.7,22.7,41.8 M12.4,42.3c0,0.3,0,0.7,0,0.7c0,0.1,0-0.2,0-0.6c0-0.4,0-0.7,0-0.7
	C12.4,41.7,12.4,42,12.4,42.3 M11.5,42C11.5,42.1,11.5,42.2,11.5,42c0,0,0-0.1,0-0.1C11.5,41.9,11.5,41.9,11.5,42 M41.6,42
	c0,0,0.6,1.2,0.6,1.2S41.7,42,41.6,42C41.6,42,41.6,42,41.6,42 M16.6,42.3C16.4,42.4,16.5,42.4,16.6,42.3c0.1,0,0.1,0,0.1,0
	C16.7,42.2,16.7,42.2,16.6,42.3 M11.4,42.4c0,0.1,0,0.2,0,0.1c0-0.1,0-0.1,0-0.2S11.4,42.3,11.4,42.4 M22.4,42.4
	c0,0.1-0.1,0.2-0.1,0.2C22.3,42.6,22.3,42.6,22.4,42.4C22.5,42.2,22.5,42.2,22.4,42.4 M16,42.6c-0.1,0-0.2,0.1-0.2,0.1
	C15.8,42.7,15.9,42.7,16,42.6c0.1,0,0.2-0.1,0.2-0.1C16.2,42.5,16.2,42.5,16,42.6 M11.4,42.8C11.4,42.9,11.4,42.9,11.4,42.8
	c0,0,0-0.1,0-0.1C11.4,42.7,11.4,42.7,11.4,42.8 M18.6,42.8c-0.1,0-0.1,0.1-0.1,0.1c0,0,0.3-0.1,0.3-0.2
	C18.8,42.7,18.8,42.7,18.6,42.8 M14.8,43.2c-0.4,0.2-0.6,0.3-0.6,0.3c0.1,0,1.3-0.6,1.3-0.6C15.5,42.8,15.6,42.8,14.8,43.2
	 M11.3,43.2c0,0.1,0,0.2,0,0.1s0-0.2,0-0.2C11.3,43,11.3,43.1,11.3,43.2 M12.4,43.5c0,0.2,0,0.2,0,0.1c0-0.1,0-0.2,0-0.3
	C12.4,43.3,12.4,43.3,12.4,43.5 M20.3,43.8c0,0.3,0,0.5,0,0.3c0-0.2,0-0.4,0-0.6C20.3,43.3,20.3,43.5,20.3,43.8 M42.3,43.4
	c0,0.1,0.1,0.2,0.1,0.2C42.4,43.6,42.4,43.5,42.3,43.4c0-0.1-0.1-0.2-0.1-0.2C42.2,43.2,42.3,43.3,42.3,43.4 M11.3,43.7
	c0,0.1,0,0.2,0,0.1c0-0.1,0-0.2,0-0.2C11.3,43.5,11.3,43.5,11.3,43.7 M13.8,43.6c-0.1,0-0.2,0.1-0.2,0.1c0,0,0.5-0.2,0.5-0.2
	C14.1,43.5,14.1,43.5,13.8,43.6 M42.6,43.9c0.1,0.2,0.2,0.3,0.2,0.4S42.8,44.2,42.6,43.9c0-0.1-0.1-0.2-0.1-0.3
	C42.5,43.6,42.5,43.7,42.6,43.9 M13.2,43.9c-0.5,0.2-0.8,0.2-0.8,0c0-0.1,0-0.1,0,0c0,0.2,0.5,0.2,1.1-0.1
	C13.7,43.7,13.5,43.7,13.2,43.9 M36.1,43.9C36.1,43.9,36,43.9,36.1,43.9C36,43.9,36,43.8,36.1,43.9C36.1,43.8,36.1,43.9,36.1,43.9
	 M11.2,44C11.2,44.1,11.3,44.2,11.2,44C11.3,44.1,11.3,44,11.2,44C11.3,43.9,11.2,44,11.2,44 M11.2,44.4
	C11.2,44.5,11.2,44.5,11.2,44.4C11.2,44.4,11.2,44.3,11.2,44.4C11.2,44.2,11.2,44.3,11.2,44.4 M43,44.5c0,0.1,0.1,0.1,0.1,0.1
	S43,44.6,43,44.5c0-0.1,0-0.1,0-0.1C42.9,44.4,42.9,44.5,43,44.5 M11.2,44.7C11.2,44.8,11.2,44.8,11.2,44.7c0,0,0-0.1,0-0.1
	S11.2,44.6,11.2,44.7 M20.2,44.9c0,0.1,0,0.2,0,0.1c0-0.1,0-0.2,0-0.2C20.2,44.7,20.2,44.7,20.2,44.9 M43.1,44.8
	c0,0.1,0.1,0.1,0.1,0.1C43.2,45,43.2,44.9,43.1,44.8c0-0.1,0-0.1,0-0.1C43.1,44.7,43.1,44.8,43.1,44.8 M11.1,45.1c0,0.1,0,0.2,0,0.2
	C11.1,45.4,11.1,45.3,11.1,45.1c0.1-0.1,0.1-0.2,0.1-0.2C11.1,44.9,11.1,45,11.1,45.1 M20.2,45.3C20.2,45.4,20.2,45.4,20.2,45.3
	c0,0,0-0.1,0-0.1C20.2,45.2,20.2,45.2,20.2,45.3 M11,45.6c0,0.2,0,0.2,0.3,0.2l0.2,0l-0.2,0l-0.2,0L11,45.6
	C11.1,45.4,11,45.4,11,45.6 M12.5,45.5C12.4,45.5,12.4,45.5,12.5,45.5c0,0,0.1,0,0.2,0C12.8,45.4,12.7,45.4,12.5,45.5 M20,46.1
	c0,0.1,0,0.3,0,0.3C20,46.4,20.1,46.3,20,46.1c0.1-0.1,0.1-0.2,0.1-0.2C20.1,45.9,20.1,46,20,46.1 M43.8,46.1c0,0.1,0.1,0.1,0.1,0.1
	S43.9,46.2,43.8,46.1c0-0.1,0-0.1,0-0.1C43.8,45.9,43.8,46,43.8,46.1 M44.2,46.7c0,0.1,0.1,0.2,0.1,0.2S44.3,46.8,44.2,46.7
	c0-0.1-0.1-0.2-0.1-0.2S44.1,46.6,44.2,46.7 M19.9,46.8c0,0.1,0,0.2,0,0.2C19.9,47,19.9,46.9,19.9,46.8c0-0.1,0.1-0.1,0-0.1
	C19.9,46.7,19.9,46.7,19.9,46.8 M44.5,47.2c0.1,0.2,0.2,0.3,0.2,0.3c0,0-0.3-0.6-0.3-0.6C44.3,46.9,44.4,47,44.5,47.2"/>
</svg>
