<?xml version="1.0" encoding="utf-8"?>
<!-- Generator: Adobe Illustrator 27.2.0, SVG Export Plug-In . SVG Version: 6.00 Build 0)  -->
<svg version="1.1" id="Layer_1" xmlns="http://www.w3.org/2000/svg" xmlns:xlink="http://www.w3.org/1999/xlink" x="0px" y="0px"
	 viewBox="0 0 51 51" style="enable-background:new 0 0 51 51;" xml:space="preserve">
<style type="text/css">
	.st0{fill-rule:evenodd;clip-rule:evenodd;fill:#175970;}
	.st1{fill-rule:evenodd;clip-rule:evenodd;fill:#F9974B;}
	.st2{fill-rule:evenodd;clip-rule:evenodd;fill:#F67B26;}
	.st3{fill-rule:evenodd;clip-rule:evenodd;fill:#61B1B5;}
</style>
<path id="path0" class="st0" d="M24.4,0.8c-0.4,0.1-0.7,0.5-0.8,0.8c-0.4,1.4,1.3,2.3,2.2,1.3C26.6,1.8,25.6,0.3,24.4,0.8 M20.5,4
	c0,0.1,0.3,0.6,0.6,1.1c0.3,0.5,0.6,1.3,0.8,1.6c0.2,0.4,0.5,1,0.7,1.4c0.2,0.4,0.5,0.9,0.6,1c0.1,0.2,0.2,0.3,0.2,0.3
	c0,0-0.4,0-0.9,0c-1.2,0-1.3,0-1.3,0.3c0,0.2-0.1,0.7-0.2,1.1c0,0.1,0.1,0.2,0.5,0.6c0.3,0.2,0.5,0.5,0.5,0.5s-0.3,0.3-0.6,0.6
	c-0.3,0.3-0.9,0.8-1.2,1.2l-0.6,0.6l0.6,0c1.3,0.1,9.7,0,9.8,0c0,0-0.3-0.4-1.1-1.2c-1.2-1.3-1.2-1.2-1.1-1.4c1-0.7,1-0.8,0.8-1.6
	l-0.1-0.6l-1.1,0c-0.6,0-1.1,0-1.1,0c0,0,0.1-0.3,0.3-0.6c0.3-0.5,0.4-0.8,1.3-2.4C27.9,6,28.9,4,29,3.8c0,0-1.9,0-4.3,0h-4.3
	L20.5,4 M16.8,7.3c-1.7,0.4-2.9,0.8-3.4,1.3c-1,0.9-1,3.3,0,5.2c0.2,0.3,0.6,1,0.5,0.8c-0.2-0.7-0.1-2.8,0.2-3.7
	c0.4-1.3,1.9-2.8,3.2-3.5C17.8,7,17.8,7,16.8,7.3 M34,8.2c0,0,0.2,0.1,0.5,0.3c1.4,0.7,2.3,1.5,2.9,2.3c0.2,0.2,0.3,0.4,0.4,0.5
	c0.1,0.1,0.1,0.1-0.1,0.2c-0.7,0.3-2.2,1.2-2.1,1.3c0,0,0.2,0.6,0.5,1.2c2.8,6.1,3.4,9.9,2.4,14.1c-0.3,1.4-0.9,3.3-1.1,3.3
	c0,0-0.1,0.1-0.1,0.1c-0.2,0.4,1.4-1.5,2-2.4c1.9-2.9,2.1-6.6,0.3-11c-0.4-0.9-0.4-1-0.4-1c0,0,0,0.1,0.1,0.1l0.1,0.1l0-0.2
	c0-0.1,0-0.2,0-0.2c0,0,0,0,0,0c0,0,0-0.1,0.1-0.2s0.2-0.2,0.2-0.3c0-0.1,0.1-0.1,0.1-0.1c0,0.1,0.1,0,0.1-0.1c0-0.1,0-0.1,0.1-0.1
	c0,0,0,0,0,0c0,0,0,0.1,0,0.1c0.1,0,0.4-0.2,0.4-0.2c0-0.1,0-0.1,0.1-0.1c0.1,0,0.1,0,0-0.1c0,0,0-0.1,0-0.1c0,0,0.2-0.1,0.2-0.1
	c0,0,0,0,0.1,0c0.1,0.1,0.2,0.1,0.1,0c0,0,0-0.1,0.1-0.1c0,0,0.1,0,0.1-0.1c0,0,0,0,0.1,0c0,0,0.1,0,0.1-0.1c0,0,0-0.1,0.1-0.1
	c0,0,0,0,0-0.1c0-0.1,0-0.1,0-0.1c0,0,0.1,0,0.1,0c0-0.2,0-0.3,0-0.3c0,0,0-0.1,0-0.2c0-0.1,0-0.2,0.1-0.1c0,0,0.1,0,0,0
	c-0.1-0.2,0.1,0,0.4,0.3c0.1,0.2,0,0-0.2-0.3c-1.4-2.1-3-3.6-5.4-5.2C35.7,9,33.8,8,34,8.2 M43.1,17c0,0,0.1,0.2,0.2,0.5
	c1,2.6,1,6.7,0,10.1c-0.7,2.3-1.9,4.5-3.5,6.3c-0.7,0.8-2.1,2.1-2.6,2.5c-0.9,0.7-3.2,2.7-3.1,2.8c0,0,0,0,0,0c0,0-0.1,0-0.2,0.1
	c-0.1,0.1-0.1,0.1,0,0c0.1-0.1,0.2-0.1,0,0.1c-0.1,0.1-0.1,0.1,0,0.1c0,0,0,0.1,0,0.1c0,0.1,0,0.1,0.1,0.1c0.1,0,0.1,0,0.1,0.1
	c0,0.1,0,0.2,0,0.3c0,0.1,0,0.2,0,0.2s0,0,0,0s0.1,0,0.1,0.1c0,0.1,0,0.1,0.1,0.2c0,0,0.1,0.1,0.1,0.2c0,0.1,0.1,0.2,0.1,0.2
	s0,0,0,0c0,0,0,0.1,0.1,0.1c0.1,0,0.1,0.1,0.1,0.1c0,0,0,0,0,0c0.1,0,0.1,0,0.1,0.1c0,0.1,0,0.2,0,0.1s0,0,0,0c0,0,0,0.1,0.1,0.1
	s0.1,0,0.1,0.1c0,0,0,0.1,0,0.2s0.1,0.2,0.1,0.4c0,0.6,0.1,0.6,0.2,0c0-0.3,0.2-0.6,0.2-0.4c0,0,0,0,0.1,0c0.1-0.1,0.1-0.1,0.1,0.1
	c0,0.2,0,0.2,0.2,0.2c0.1,0,0.2,0.1,0.1,0.1c0,0,0,0,0,0c0,0,0.1,0,0.1,0c0,0,0,0,0,0s0,0,0,0c0,0,0.1,0,0.1,0c0,0,0.1,0,0,0
	c0,0,0,0.1,0,0.1c0.1,0,0.3,0.2,0.3,0.2c0,0,0,0.1,0.1,0.1c0.1,0,0.1,0.1,0.1,0.1s0.1,0,0.1,0c0,0,0,0,0,0c0,0-0.1,0-0.1,0
	c0,0,0,0,0,0.1c0,0.1,0.1,0.1,0.1,0.1c0,0,0.1,0,0.1,0c0,0,0,0.1,0,0.1c0,0,0,0.1,0,0.2c0,0.1,0,0.1,0,0s0,0,0,0c0,0.1,0,0.1,0,0.1
	s0,0,0,0.1c0,0.1,0,0.1,0,0.1c0.1,0,0.4,0.3,0.3,0.3c0,0,0,0,0,0c0,0,0.1,0,0.1,0c0,0,0.1,0,0.1,0c0,0,0,0,0,0c0,0,0,0,0,0.1
	c0,0.1,0,0.1,0.1,0.1c0,0,0,0,0-0.1c0-0.1,0-0.1,0.1,0C38,44.9,38,45,38,45s0,0,0,0c0,0,0,0-0.1,0c0,0-0.1,0-0.1,0c0,0,0,0,0,0.1
	c0,0,0,0,0,0.1c0,0.1,0,0.1,0,0c0.1,0,0.1,0,0,0.1c-0.1,0.1-0.1,0.2,0,0.2c0,0,0.1,0,0.2,0.1c0.1,0.1,0.1,0.1,0.1,0.2
	c-0.1,0.1-0.1,0.2,0,0.1c0,0,0.1-0.1,0.1-0.1c0,0,0,0,0,0.1c0,0.1,0.2,0.2,0.2,0.2c0,0,0,0,0,0.1c0,0.1,0,0.1,0,0.1c0,0,0,0,0,0.1
	c0,0.1,0,0.1,0,0.1c0,0,0.1,0,0.1,0s0,0.1,0,0.1c0,0,0,0.1,0.1,0.1c0,0,0,0.1,0,0.1c0,0,0,0.1,0,0.1c0,0,0.1,0,0.1,0
	c0,0,0,0.1,0.1,0.1c0,0,0,0,0,0c-0.1,0-0.1,0.1,0,0.1c0,0,0,0,0,0c0-0.1,0-0.1,0.1,0c0,0,0,0.1,0,0.1c0,0.1,0.1,0.2,0.2,0.1
	c0,0,0.1,0,0,0.1c-0.1,0.2-0.1,0.2,0,0.2c0,0,0,0,0,0c0,0.1,0,0.1,0,0c0.1,0,0.1,0,0.1,0c0,0,0,0.1,0,0.1c0,0,0.1,0,0.1,0.1
	c0,0,0,0.1,0.1,0c0,0,0.1,0,0,0c0,0,0,0.1,0,0.1c0,0,0,0.1,0,0.2c0,0.1,0,0.1,0,0.1c0,0,0,0,0,0c0,0,0,0.1,0,0c0,0,0,0,0,0.1
	c0,0.1,0,0.1,0,0.1s0.1,0,0.1,0.1c0,0,0,0.1,0,0.1c0,0,0,0,0,0c0,0,0,0,0.1,0c0.1,0,0.2,0.1,0.2,0.3c0,0.1,0,0.1,0,0.1
	c0,0,0.1,0,0.1,0.1s0,0,0.1,0c0.1,0,0.1,0,0,0c0,0-0.1,0.1-0.1,0.1c0,0,0,0,0.1,0c0.1,0,0.2,0.1,0.1,0.2c0,0.1,0,0.1,0,0
	c0,0,0.1,0,0.1,0c0,0.1,0,0.1,0,0c0,0,0,0,0.1,0c0,0,0,0.1,0,0.1c0,0,0,0.1,0.1,0.1l0.1,0.1l3.6,0c2,0,3.6,0,3.6,0
	c0-0.1-0.4-0.7-1.1-2c-1.8-3.1-2.1-3.8-2.6-4.9c-1.4-3.5-1.5-6-0.3-9.3c0.4-1.2,0.6-1.7,0.8-2.4c1.4-4.7,1-9.1-1.2-13.7
	C43.4,17.4,43.2,16.9,43.1,17 M32.8,17.2c0,0.1,0,0.1-0.1,0.1s0,0,0,0.1c0,0,0,0.1,0,0c0,0-0.1,0-0.3,0.2c-0.1,0.1-0.2,0.2-0.3,0.2
	c0,0-0.1,0-0.1,0.1c0,0-0.1,0.1-0.1,0.1c0,0-0.2,0.1-0.3,0.2c-0.1,0.1-0.4,0.3-0.5,0.4c-0.1,0.1-0.4,0.3-0.6,0.5
	c-0.3,0.3-0.6,0.5-0.8,0.7c0,0-0.1,0.1-0.2,0.2c-0.1,0.1-0.2,0.2-0.3,0.3c-0.4,0.3-0.8,0.7-1.1,1c-0.2,0.2-0.5,0.4-0.6,0.6
	c-0.1,0.1-0.3,0.3-0.4,0.3c-0.1,0.1-0.2,0.2-0.3,0.3c-0.1,0.1-0.3,0.2-0.4,0.4c-0.1,0.1-0.2,0.2-0.2,0.2s-0.2,0.2-0.4,0.4
	c-0.2,0.2-0.4,0.4-0.4,0.4s-0.2,0.1-0.3,0.3c-0.2,0.1-0.4,0.3-0.4,0.4c-0.1,0.1-0.2,0.1-0.2,0.2c0,0,0,0.1-0.1,0.1c-0.1,0-0.1,0,0,0
	c0.1,0.1,2-0.5,2.9-0.9c2.3-1,4.4-3,5.2-4.9C32.6,18.2,33,17.2,32.8,17.2C32.9,17.1,32.8,17.2,32.8,17.2 M5.2,18
	c-0.8,1.7-1.4,3.6-1.7,5.7c-0.6,4.5,1.8,7.8,5.6,7.8h1l0,0.2c0,0.1,0.1,0.3,0.1,0.4c0.2,0.4-0.8,2.6-2.5,5.3c-0.3,0.6-0.6,1-0.6,1
	c0,0,0.1,0,0.2,0.1c0.1,0,0.6,0.2,1,0.4c0.5,0.2,1,0.4,1.2,0.4c0.5,0.2,0.9,0.4,0.9,0.5c0,0-0.1,0.3-0.3,0.7
	c-0.3,0.5-0.3,0.6-0.3,0.7c0,0.1,1,0.8,1.2,0.8c0,0,0,0.1-0.1,0.2c-0.1,0.1-0.2,0.3-0.3,0.4l-0.1,0.2l0.1,0.1
	c0.1,0.1,0.3,0.2,0.4,0.3l0.3,0.2l0,0.3c0,0.1,0,0.6-0.1,0.9c0,0.3-0.1,0.8-0.1,0.9c0,0.3-0.2,1.8-0.3,2.3c0,0.3-0.1,0.3,0.7,0.2
	c2.1-0.3,4.1-1.2,7.5-3c1.4-0.8,2-0.6,2,0.6c0,1-0.1,2.9-0.4,3.9l-0.1,0.5l0.4,0l0.4,0l0.1-0.6c0.8-3.2,2.2-6.1,4.3-8.9
	c1.6-2.1,2.2-3.3,2.5-4.8c0.7-3.4-0.6-5.7-3.9-6.9c-1.7-0.7-1.8-0.7-2.4-1c-0.6-0.4-1-0.8-1.4-1.2l-0.2-0.3l-0.7,0
	c-5.1,0.1-10.3-2.5-12.3-6.1c-0.2-0.4-0.2-0.3,0,0.5c0.5,2.6,2.2,4.8,4.6,5.9c0.8,0.4,1.7,0.7,3.4,1c2.5,0.5,3.6,1.3,4.2,3
	c0.4,1.2,0.4,2.1,0,3.1l-0.1,0.2l0.2-0.2c0.4-0.4,1-1.2,1.7-1.9c1.3-1.5,1.9-1.8,2.6-1.5c1.6,0.7,1.6,4.3-0.2,7.6
	c-1.4,2.6-3.6,4.7-7,6.5c-2,1.1-3.4,1.7-4.1,1.7l-0.3,0l0-0.3c0-0.2,0-0.7,0-1.1c0-0.5,0.1-1.1,0.1-1.5c0-0.6,0-0.7,0.1-0.8
	c0,0,0.5-0.4,0.9-0.8c0.5-0.4,0.8-0.7,0.8-0.7c0,0-0.4-0.1-1-0.2c-1.7-0.3-2.4-0.5-2.3-0.7c0-0.2,0.4-1,0.6-1.4
	c0.1-0.2,0.2-0.4,0.2-0.4c0,0-1.3-0.2-2-0.2l-0.6-0.1l0-0.1c0-0.2,1.6-3.8,1.9-4.5l0.2-0.3l1-0.5c1-0.6,1.9-1.2,2-1.3
	c0.1-0.1,0-0.1-0.7-0.2c-3.8-0.4-6.8-2.7-8-6.2c-0.7-1.9-0.8-5-0.3-7C5.6,17.4,5.5,17.4,5.2,18 M35.1,28.2c-0.1,0.1-0.2,0.1-0.2,0
	c0,0,0,0,0,0s0,0.1,0,0.1c0,0-0.1,0-0.1,0c0,0-0.1,0,0,0c0-0.1,0-0.1,0,0c0,0,0,0.1,0,0.2c0,0.1-0.1,0.1-0.3,0c0,0-0.1,0-0.1,0
	c0,0.1,0,0.1-0.1,0.1c0,0-0.1,0-0.1,0.1c0,0.1-0.1,0.1-0.2,0.1c-0.3,0-0.3,0-0.3,0.1c0,0-0.1,0.1-0.3,0c-0.1,0-0.1,0-0.1,0
	c0,0,0,0,0,0c0,0-0.1,0-0.2,0.1c-0.1,0.1-0.1,0.1-0.1,0c0,0,0-0.1,0-0.1s-0.1,0-0.1,0.1c0,0-0.1,0.1-0.1,0.1s-0.1,0-0.2,0.1
	c0,0-0.1,0.1-0.1,0.1c-0.1,0-0.3,0-0.4,0.1c-0.1,0.1-0.1,0.1-0.2,0.1c0,0-0.1,0-0.2,0c-0.1,0-0.1,0-0.1,0s0,0-0.1,0s-0.1,0-0.2,0
	c-0.1,0-0.1,0-0.1,0c0,0,0,0-0.1,0c-0.1,0-0.1-0.1,0.1,0.4c0.5,1.3,0.8,3.4,0.6,4.5c-0.1,0.8-0.5,2-0.7,2.4
	c-0.2,0.3-0.1,0.2,0.6-0.3c0.2-0.1,1.1-0.9,2-1.6c0.9-0.7,1.8-1.5,2.1-1.7L36,33l0-0.9c-0.1-1.8-0.3-3.7-0.5-3.7c0,0-0.1,0-0.1-0.1
	C35.3,28.1,35.3,28.1,35.1,28.2 M38.4,46.1C38.4,46.1,38.4,46.1,38.4,46.1C38.5,46.2,38.5,46.1,38.4,46.1C38.5,46,38.5,46,38.4,46.1
	"/>
<path id="path1" class="st1" d="M28.2,7c0,0,0.4,0.3,1,0.6c1.4,0.9,2.1,1.4,3,2.5c0.1,0.1,0.1,0.1,0.1,0.1C31.8,9.5,30,8,29.7,8
	c0,0,0,0,0,0c0,0,0-0.1,0-0.1c0,0,0-0.1,0-0.1c0,0,0.1,0,0.1,0c0,0,0,0,0-0.1c0-0.1,0-0.2-0.1-0.2c-0.1-0.1,0.1-0.1,0.5-0.1
	c0.5,0,1.6,0.2,1.7,0.3c0,0,0.1,0.1,0.2,0.1c0,0,0.1,0,0.2,0.1c0,0,0.1,0.1,0.2,0.1c0.1,0,0.2,0,0.3,0.1c0.1,0,0.2,0.1,0.3,0.1
	s0.1,0,0.1,0c0,0,0.1,0,0.1,0c0,0,0.1,0,0,0c0,0,0-0.1,0-0.1c0.1-0.1-1.4-0.6-2.6-0.8C30,7.1,28.2,6.9,28.2,7 M33.2,7.9
	C33.4,8,33.4,8,33.2,7.9C33.2,8,33.2,8,33.2,7.9c0,0-0.1,0-0.1,0c0,0-0.1,0,0,0s0,0-0.1,0c-0.1,0-0.1,0-0.1,0
	C33,7.9,33,7.9,33.2,7.9 M33.5,8.2C33.5,8.2,33.5,8.3,33.5,8.2c0.1,0.1,0.3,0.1,0.4,0.2s0.4,0.2,0.5,0.3C34.8,8.9,35,9,35.1,9.1
	c0,0,0.1,0.1,0.1,0.1c0,0,0.1,0,0.1,0.1c0,0.1,0.2,0.2,0.2,0.1c0,0,0.1,0,0.1,0c0.1,0,0.1,0.2,0,0.3c-0.1,0,0,0.1,0.1,0.1
	c0.1,0,0,0,0,0.1c-0.1,0.1-0.1,0.1-0.1,0c0,0,0-0.1,0-0.1c-0.1,0-0.1,0.1-0.1,0.3c0,0.1-0.1,0.3-0.2,0.2c0,0,0,0-0.1,0
	c0,0-0.1,0,0,0.1c0.1,0.1-0.3,0.2-0.4,0.1c-0.1-0.1-0.1,0-0.1,0c0,0.1,0,0.1,0,0.1c0,0,0,0,0,0s0,0.1,0,0.1s-0.1,0-0.1,0
	c0,0-0.1,0-0.1,0c-0.1,0-0.1,0,0,0c0,0,0.1-0.1,0.1-0.2c0-0.1,0-0.1-0.1,0c-0.1,0.1-0.2,0.1-0.2,0c0-0.1,0-0.1,0-0.1
	c0,0-0.1,0.1,0,0.1c0,0.2-0.1,0.2-0.2,0.1c-0.1-0.1-0.1-0.1-0.1,0c0,0.1,0,0.1,0,0.1c0,0-0.1,0-0.1,0s0,0,0,0c0,0,0,0,0.1,0
	c0,0,0.1,0,0.1-0.1s0-0.1,0,0c-0.1,0.1-0.2,0.2-0.3,0.1c-0.1-0.1-0.1-0.1-0.1,0c0,0,0,0.1,0,0.1c0,0,0,0,0,0.1c0,0,0,0.1,0,0.1
	s-0.1,0-0.1-0.1c0,0,0,0-0.1,0c-0.1,0.1-0.1,0.1,0,0c0-0.1,0-0.1,0-0.1c0,0,0,0,0,0c0,0,0,0-0.1,0c0,0-0.1,0-0.1,0.1s0,0-0.1-0.1
	c-0.1-0.2-0.1-0.2,0-0.2c0,0,0,0,0,0s0,0-0.1,0c0,0-0.1,0-0.1-0.1c0,0,0,0,0.1,0.2c0.1,0.2,0.2,0.3,0.2,0.2c0.1-0.1,0.1-0.1,0.1,0
	c0,0,0,0.1,0,0.2c0,0.1,0,0.1-0.1,0c0-0.1,0,0.1,0.2,0.5c0.8,1.5,1,2.7,1,4.4c0,0.9,0,0.9,0,1.3c0,0.6-1.1,2.8-2.2,4.3l-0.5,0.6
	l0.2,0.2c2.1,1.7,3.2,3.3,3.9,5.8c0.1,0.3,0.2,0.5,0.2,0.5s0,0,0,0.1c0,0.1,0,0.1,0,0.1c0,0,0,0,0,0.1c0,0.1,0,0.2,0,0.1
	c0-0.1,0,0,0,0.1c0,0.2,0,0.2,0,0.2c0-0.1,0,0,0,0.1c0,0.1,0,0.2,0,0.1c0-0.1,0.1,0.1,0.1,0.6c0,0.2,0,0.4,0.1,0.5
	c0,0.1,0.1,0.5,0.1,0.8c0,0,0,0,0,0c0,0,0,0,0,0.1s0,0.1,0,0.1c0,0,0,0,0,0.1s0,0.1,0,0.1c0,0,0,0,0-0.1c0,0,0-0.1,0,0
	c0,0,0.1,0,0.1-0.1c0-0.1,0-0.2,0.1-0.2s0.1-0.1,0.1-0.1c0,0,0-0.1,0.1-0.1c0.1-0.1,0.1-0.2,0.1-0.6c0-0.1,0-0.1,0.1-0.2
	c0,0,0.1,0,0.1-0.1s0,0,0.1-0.1s0.1-0.1,0.1-0.1c0-0.1,0-0.1,0.1,0c0.1,0,0.1,0.1,0,0.1c0,0,0,0.1,0,0.1c0,0,0.1,0.1,0.1,0
	c0,0,0-0.1,0-0.1c0,0,0,0,0,0.1c0,0.4,0.2,0.3,0.4-0.1c0-0.1,0.1-0.2,0.1-0.2c0,0,0,0,0-0.1s0.1-0.4,0.2-0.8
	c0.3-1.1,0.4-1.2,0.5-1.9c0.1-0.4,0.1-0.7,0.2-0.7c0,0,0,0,0-0.1c0-0.1,0-0.1,0-0.1c0.1-0.1,0.2-1.3,0.2-2.3c0-2.2-0.5-4.5-1.5-7.1
	c-0.2-0.4-0.1,0,0.2,0.7c0.3,1,0.4,1.8,0.1,1.8c0,0,0,0,0-0.1c0,0,0-0.1,0-0.1c0,0-0.1,0-0.1,0c0,0,0,0-0.1,0c0,0-0.1,0-0.1,0
	c0,0.1,0,0.2-0.1,0.1c0,0-0.1,0-0.1,0.1c0,0.1,0,0.1-0.1,0.2c0,0,0,0.1,0,0.1c0,0.1,0,0.1-0.1,0.1c-0.1,0-0.1,0,0,0c0,0,0,0.1,0,0.1
	s0,0.1-0.1,0.1c0,0.1,0,0.1-0.1,0.1c0,0-0.1,0.1-0.2,0.2c-0.1,0.1-0.2,0.2-0.2,0c0,0,0,0,0,0c0,0-0.1,0-0.1,0
	c-0.1,0-0.3,0.1-0.2,0.2c0,0,0,0-0.1,0c-0.1,0-0.1,0-0.1,0s0,0,0,0s0,0,0,0c0,0,0,0-0.1,0c-0.1-0.1-0.3,0.1-0.3,0.2c0,0,0,0-0.1,0
	c0,0,0-0.1,0-0.1c0.1-0.1,0.1-0.1,0-0.1c0,0-0.1,0,0,0c0,0,0,0,0,0c-0.1,0-0.1,0,0,0.1c0,0.1,0,0.1-0.2,0.1c0,0,0,0,0,0.1
	s0,0.1-0.1,0c-0.1,0-0.1,0-0.2,0c0,0,0,0.1,0,0.1s0,0,0,0.1c0,0,0,0.1,0,0.1c0,0,0,0-0.1,0c-0.1,0-0.3,0.1-0.2,0.2c0,0,0,0,0,0
	c0,0-0.1,0-0.1,0c0,0-0.1,0-0.1,0c0,0-0.1,0-0.1,0c0,0.1,0,0.1,0,0.1c0,0,0,0-0.1,0c0,0.1-0.1,0.1-0.1,0s-0.1-0.1-0.1,0
	c0,0.1-0.1,0.1-0.1,0c0,0-0.1,0-0.2,0c-0.1,0-0.2,0-0.2,0S33,22,32.9,21.9c-0.1,0-0.1,0-0.1,0c0,0,0,0,0,0s-0.1,0-0.1,0
	c-0.1,0-0.1,0,0,0c0,0,0-0.1,0-0.2c0-0.2,0-0.2,0.1-0.2c0.1,0,0.1,0,0,0c0,0-0.1,0-0.1-0.1s0-0.1-0.1-0.1s0,0,0-0.1
	c0-0.1,0-0.1,0-0.2c-0.1-0.1-0.2-0.3-0.1-0.3c0,0,0,0,0-0.1c0-0.1,0.3-0.6,0.3-0.6c0,0,0,0,0-0.1c0,0,0.1-0.3,0.2-0.5
	c0.1-0.2,0.3-0.5,0.3-0.5c0,0,0-0.1,0.1-0.1c0,0,0,0,0,0c0-0.1,0-0.2,0.1-0.2c0,0,0,0,0,0c0,0,0.1-0.3,0.2-0.6
	c0.1-0.3,0.3-0.6,0.3-0.6c0,0,0.1-0.3,0.2-0.5s0.2-0.5,0.2-0.5s0.2-0.4,0.4-0.8c0.2-0.5,0.5-1.1,0.6-1.4c0.3-0.6,0.2-0.6,0.5-0.2
	c0.2,0.4,0.2,0.3,0-0.2c-0.1-0.2-0.2-0.5-0.3-0.7c-0.2-0.4-0.2-0.4-0.1-0.5c0,0,0.3-0.1,0.5-0.3c0.7-0.4,1-0.6,1.3-0.8
	c0.2-0.1,0.4-0.2,0.4-0.2c0.1-0.1-0.5-0.8-1.5-1.7c-0.4-0.4-2.1-1.4-2.3-1.3c0,0-0.1,0-0.1,0c0-0.1-0.1-0.1-0.2-0.1c0,0-0.1,0-0.1,0
	S33.6,8.2,33.5,8.2C33.6,8.2,33.5,8.1,33.5,8.2 M12.6,9c-0.3,0.2-0.7,0.5-0.9,0.7s-0.4,0.4-0.4,0.3c-0.1-0.2-1.6,1.3-2.3,2.2
	c-1.1,1.3-2.4,3.4-2.4,3.6c0,0.4,0.6,2.2,1,3.1c0.6,1.2,0.9,1.7,1.6,2.5c0.5,0.5,1.8,1.6,1.5,1.2c-0.1-0.1,0-0.1,0.1,0
	c0.1,0.1,0.1,0.1,0,0.1c-0.1,0,0.1,0.1,0.3,0.2l0.1,0.1l-0.1-0.1l-0.1-0.1l0.1,0c0.2,0.1,0.2,0.1,0.1-0.1c0-0.1-0.1-0.1-0.1-0.1
	s0,0,0,0c0,0,0,0,0,0c0,0,0.1,0,0.1,0c0,0,0-0.1,0-0.1c-0.1,0-0.1-0.2,0-0.2c0,0,0.1-0.1,0.1-0.1s0-0.1,0.1-0.2
	c0.1-0.1,0.1-0.1,0.1,0s0,0.1,0,0c0.1,0,0.1-0.2,0-0.2c0,0,0,0,0,0c0,0,0-0.2,0-0.3c0-0.1,0-0.2,0-0.2c0.1-0.1,0.1-0.1,0-0.1
	c-0.1,0-0.1-0.2,0-0.3c0,0,0,0,0-0.1c0-0.1-0.1-0.5,0-0.5c0,0,0,0,0-0.1c0,0,0-0.1,0-0.1c0,0,0,0,0-0.1c0-0.1,0-0.1,0.1-0.1
	c0.1,0,0.1-0.1,0.1-0.1c0-0.1,0-0.1,0-0.1c-0.1,0,0,0,0-0.2c0-0.1,0.1-0.1,0.1-0.1s0,0.1,0.1,0.1s0.2,0.1,0.3,0.2
	c3.1,3.2,9.6,4,13.1,1.7c1.5-1,3.1-2.9,3.6-4.3c0.1-0.1,0.1-0.3,0.2-0.4c0.1-0.2,0-0.1-0.2,0c-0.1,0.1-1,0.6-1.3,0.8
	c-1.9,1-5.7,1.4-8.3,0.8c-1.8-0.4-3.6-1.5-4.7-2.8c-0.4-0.5-0.5-0.6-0.3-0.3c0.1,0.1,0.4,0.5,0.8,0.8c0.3,0.3,0.6,0.6,0.6,0.6
	c0,0,0,0,0,0c0.1,0,0.1,0,0.1,0.1c0,0,0,0.1-0.1,0c-0.1-0.2-0.3,0-0.2,0.2c0,0.1,0,0.1,0,0.1c-0.1-0.1-0.2-0.1-0.2,0c0,0,0,0,0,0
	c0,0,0.1,0,0,0c0,0,0,0,0,0c0,0,0.1,0,0.1,0c0,0,0,0.1,0,0.1c-0.1,0-0.1,0,0,0.2c0,0.1,0,0.2,0,0.2c0,0,0,0,0,0.1c0,0,0,0.1,0,0.1
	c0,0,0,0.1,0,0.1c0.1,0,0.1,0.1,0,0.2c-0.1,0.1-0.1,0.1,0,0.1c0,0,0,0,0,0c0,0-0.1,0-0.1-0.1c0,0-0.1,0,0,0c0,0.1,0,0.4-0.1,0.4
	c0,0-0.1,0-0.1-0.1c-0.1-0.1-0.1-0.1-0.1,0c0,0-0.1,0.1-0.1,0.1c0,0,0,0-0.1,0.1c0,0.1-0.1,0.1-0.2,0.1c-0.1,0-0.1,0-0.2,0.1
	c0,0.1-0.1,0.1-0.2,0.1c-0.1,0-0.1,0,0,0c0,0,0,0,0,0.1c-0.1,0-0.1,0-0.1,0.1c0,0,0,0.1,0,0.1s0,0,0,0s0,0-0.1,0
	c0,0-0.1,0.1-0.1,0.1c0,0-0.3,0-0.4-0.1c-0.1-0.1-0.2-0.1-0.1,0c0,0.1-0.1,0.2-0.2,0.2c0,0,0,0,0,0c0.1,0,0.1,0,0,0
	c0,0-0.1,0-0.2,0.1c0,0.1-0.1,0.1-0.1,0c0-0.1-0.4-0.1-0.4,0c0,0,0,0,0.1,0c0.1,0,0.1,0,0.1,0c0,0.5-1.4-1-2-2.2
	c-1.4-2.8-0.4-6.8,2.1-8.4l0.1-0.1l0,0.2c0,0.1,0,0.3,0,0.4c0,0.1,0,0,0.2-0.2s0.2-0.4,0.2-0.4c0.1,0,0-0.1,0-0.1
	C13.1,8.6,12.9,8.8,12.6,9 M35.9,10c-0.1,0.4-0.1,0.5-0.2,0.4c0,0,0,0,0-0.1c0,0,0.1-0.1,0.1-0.1c0-0.1,0-0.1-0.1-0.1
	c-0.1,0-0.1-0.1,0-0.2C35.7,9.9,35.9,9.9,35.9,10 M11.2,10.3c0,0.1-0.1,0.2-0.2,0.3c0,0.1-0.1,0.1-0.1,0.1c0-0.1,0.3-0.6,0.4-0.6
	C11.3,10.2,11.2,10.3,11.2,10.3 M14.2,11.3c0,0.1,0.1,0.3,0.1,0.5c0.1,0.4,0.4,1.4,0.4,1.3c0,0,0-0.2-0.1-0.3
	c-0.1-0.3-0.1-0.4,0.1-0.4c0.1,0,0.2,0,0.2-0.1c0.1-0.1,0.1-0.1,0.2,0c0.1,0,0.1,0.1,0.1,0c0,0,0.1,0,0.1,0.1
	c0.1,0.1,0.1,0.1,0.2,0.1c0,0,0.1,0,0.2,0.1c0,0,0.2,0.1,0.2,0.1c0.1,0,0.3,0.1,0.6,0.2s0.6,0.2,0.8,0.2c0.2,0,0.5,0.1,0.6,0.1
	c0.2,0,1.8,0.1,1.9,0c0.1,0,0.2,0,0.1,0.1c0,0,0,0,0,0c0,0,0,0,0,0c0,0,0,0,0,0.1c0,0-0.1,0.2-0.4,0.5c-0.1,0.1-0.2,0.2-0.2,0.3
	c0,0,0.6-0.6,0.8-0.8c0-0.1,0.1-0.1,0.1-0.1c0,0,0,0,0-0.1c0,0,0-0.1,0-0.1s-0.1,0-0.3,0.1c-0.6,0.1-2.2,0-3.1-0.2
	c-1.1-0.3-2-0.8-2.7-1.4C14.3,11.3,14.2,11.2,14.2,11.3 M14.7,13.3c0,0.1,0,0.1,0.1,0.2c0,0,0,0,0,0C14.8,13.3,14.8,13.3,14.7,13.3
	C14.7,13.2,14.7,13.2,14.7,13.3 M15.1,14.1c0,0,0.2,0.4,0.2,0.4c0,0,0-0.1-0.1-0.2C15.1,14,15.1,14,15.1,14.1 M22.3,14.4
	c0,0,0.6,0.1,1.3,0.1c1.3,0,1.7,0,1.7,0.1c0,0,0,0,0.1,0c0,0,0.1,0,0.1,0.1c0,0,0,0.1-0.1,0c-0.1,0-0.1,0,0,0
	c0.2,0.1,0.3,0.1,0.2-0.1c0,0,0-0.1,0-0.1c0,0,0.1,0,0.1,0.1c0,0.1,0.2,0.1,0.2,0c0,0,0,0,0,0c0,0,0,0,0,0c0-0.1,0.3,0,0.3,0
	c0,0,0,0.1,0,0c0,0-0.1,0-0.1,0c0,0,0.3,0.1,0.5,0.1c0.1,0,0.2,0.1,0.1,0.1c-0.1,0,0,0,0.1,0.1c0.1,0.1,0.1,0.1,0.1,0.1
	c0,0-0.1,0-0.1-0.1c-0.1-0.1-0.1-0.1-0.1,0.1c-0.1,0.2-0.1,0.2-0.1,0.1c0,0,0-0.1,0-0.1s0,0,0,0s0,0.1-0.1,0.1c0,0-0.1,0-0.1,0.1
	c0,0.1-0.1,0.2-0.2,0.2c0,0,0,0,0,0c0.1,0,0,0,0,0.1c-0.2,0-0.3,0-0.4,0c0,0,0,0,0,0.1c0,0,0,0.1-0.1,0.1c-0.1,0-0.1,0-0.1,0
	c0,0,0,0,0,0c0,0,0,0.1,0,0.1c0,0,0,0.1-0.1,0.1C24.9,16,24.8,16,25,15.8c0.1-0.1,0.1-0.1,0,0c-0.1,0-0.1,0.1-0.1,0.1
	c0,0,0,0.1,0,0.1c0,0,0,0,0,0.1c0,0,0,0,0,0c-0.1,0-0.1,0-0.1,0c0,0.1-0.1,0.1-0.2,0.1c-0.1,0-0.1,0,0,0c0.1,0.1,0.1,0.1,0,0.2
	c-0.1,0.1-0.1,0.1-0.1,0c0,0,0-0.1,0-0.2c-0.1-0.1-0.1-0.1-0.1,0c0,0,0,0.1,0,0.2c0,0,0,0.1,0,0.1c0,0,0,0.1,0,0.1
	c-0.1,0-0.1,0,0-0.2c0.1-0.1,0.1-0.1,0-0.1c0,0-0.1,0-0.1,0c0,0,0,0,0,0c0,0-0.1,0.1-0.1,0c0,0,0,0-0.1,0c-0.1,0-0.1,0.1,0,0.1
	c0.1,0.1,0.1,0.1,0.1,0c0-0.1,0-0.1,0,0c0.1,0.1,0.1,0.1-0.1,0.1c-0.1,0-0.2,0-0.2-0.1c0-0.1-0.1-0.1-0.1,0c-0.1,0,0,0.1,0.1,0
	c0.1,0,0,0.1-0.1,0.1c-0.1,0-0.2,0-0.2,0s0-0.1-0.1-0.1c-0.1,0-0.1,0-0.1,0.1c0,0.1,0,0.1-0.1,0.1c-0.1,0-0.1,0-0.1,0
	c0,0,0,0.1-0.1,0.1c-0.1,0-0.2,0.1-0.2,0.1c0.1,0.1,0,0.1-0.1,0c-0.1-0.1-0.1-0.1-0.1,0c0,0.1,0,0.1,0,0c0,0-0.1,0,0,0.1
	c0,0.1,0,0.1-0.1,0c-0.1-0.1-0.2-0.1-0.2,0.1c0,0.1-0.4,0.2-0.5,0.2c-0.1,0-0.2,0-0.3,0s-0.2,0-0.2-0.1c0,0,0,0-0.1,0
	c0,0-0.3,0-0.5,0c-0.3,0-0.5,0-0.5,0c0,0.1-0.7,0-0.9-0.1c0,0-0.1,0-0.1,0c-0.5-0.1-1.6-0.7-2.3-1.3l-0.4-0.4l0.3,0.3
	c1.6,1.5,3.8,2,7.7,1.6c2.7-0.2,4.6-1.3,5.7-2.9l0.1-0.1H26C23.8,14.3,22.3,14.3,22.3,14.4 M26.3,14.6
	C26.3,14.7,26.3,14.7,26.3,14.6c-0.1,0-0.1,0-0.1,0C26.2,14.5,26.3,14.5,26.3,14.6 M26.7,14.6C26.7,14.7,26.7,14.7,26.7,14.6
	c-0.1,0-0.1,0-0.2,0s0,0,0,0C26.6,14.5,26.7,14.5,26.7,14.6 M27.1,14.6C27.1,14.7,27.1,14.7,27.1,14.6c-0.1,0-0.1,0-0.2,0
	c-0.1,0-0.1,0-0.1,0C26.8,14.5,27,14.5,27.1,14.6 M26.9,14.8c0,0,0,0.1,0,0.1s0,0,0,0c0,0-0.1,0-0.1,0c0,0-0.1,0-0.1-0.1
	c0-0.1,0-0.2,0.1-0.1C26.8,14.9,26.8,14.9,26.9,14.8c0-0.1,0-0.2,0-0.1C26.9,14.7,26.9,14.8,26.9,14.8 M27.1,14.8
	C27.1,14.9,27.1,14.9,27.1,14.8c0.1,0.1,0.1,0.1,0.1,0.1c0,0-0.1,0-0.1,0C26.9,15,26.9,14.7,27.1,14.8C27,14.7,27.1,14.8,27.1,14.8
	 M15.6,15.1c0.1,0.1,0.2,0.2,0.2,0.3C15.9,15.4,15.9,15.3,15.6,15.1C15.5,14.8,15.4,14.8,15.6,15.1 M36.5,14.9c0,0,0,0.1,0.1,0.2
	c0,0.1,0.1,0.1,0.1,0.1C36.6,15.1,36.6,15,36.5,14.9C36.5,14.9,36.5,14.9,36.5,14.9 M25.5,15.3c0,0,0,0.1,0,0.1s0,0,0,0
	C25.7,15.4,25.7,15.3,25.5,15.3C25.5,15.3,25.5,15.3,25.5,15.3 M34.3,16.9c-0.1,0.3-0.2,0.3-0.1,0.2c0-0.1,0.2-0.4,0.2-0.4
	C34.4,16.7,34.3,16.8,34.3,16.9 M20.1,17.3c-0.1,0-0.4,0.1-0.4,0c0,0,0.1,0,0.2,0C20.1,17.3,20.1,17.3,20.1,17.3 M20.5,17.3
	c0,0-0.1,0-0.1,0c-0.1,0-0.1,0-0.1,0s0,0,0.1,0C20.5,17.3,20.5,17.3,20.5,17.3 M5.4,18.1c0,0.1-0.1,0.4-0.1,0.7c0,0.2,0,0.5,0,0.6
	c-0.1,0.9-0.1,2.1-0.1,2.8l0,0.3l0-0.4c0-0.2,0-0.6,0-0.8c0-0.2,0-0.3,0.1-0.3c0.2,0,0.2,0,0.2-0.1c0,0,0-0.1,0-0.1
	c0.1,0,0.2-0.3,0.1-0.4c-0.1-0.1-0.1-0.1,0-0.2c0-0.1,0-0.1,0,0c0,0.1,0,0.1,0,0c0-0.1,0.1,0,0.1,0.3c0,0.2,0.1,0.4,0.1,0.4
	s0-0.2,0-0.5c0-0.2-0.1-0.8-0.2-1.3C5.6,18.6,5.5,18.1,5.4,18.1l0-0.2L5.4,18.1 M13.6,19.2C13.6,19.2,13.6,19.2,13.6,19.2
	C13.7,19.2,13.7,19.3,13.6,19.2c0.1,0.1,0.1,0.1,0.1,0.1c0.1,0,0.1-0.1,0-0.1C13.7,19.2,13.6,19.2,13.6,19.2 M12.8,19.9
	C12.9,19.9,13,20,13,20c0,0,0,0,0,0c0,0,0,0.1,0.1,0.2c0.3,0.2,0.5,0.4,0.2,0.2c-0.3-0.2-0.8-0.7-0.8-0.7
	C12.6,19.7,12.7,19.8,12.8,19.9 M35.7,20.7C35.6,20.8,35.6,20.8,35.7,20.7C35.7,20.8,35.7,20.8,35.7,20.7c0,0.1,0.1,0,0.1,0
	C36,20.6,35.9,20.6,35.7,20.7 M5.9,20.9c0,0.1,0.2,0.7,0.2,0.6c0,0,0-0.2-0.1-0.4C5.9,21,5.9,20.9,5.9,20.9 M32.4,21.6
	C32.4,21.7,32.4,21.7,32.4,21.6c-0.1-0.1,0-0.2,0-0.1C32.5,21.6,32.5,21.6,32.4,21.6 M6.1,21.7c0,0,0,0.1,0,0.2c0,0.1,0,0.1,0,0
	C6.1,21.8,6.1,21.8,6.1,21.7C6.1,21.6,6.1,21.6,6.1,21.7 M6.2,22c0,0.1,0.2,0.5,0.2,0.5C6.4,22.5,6.2,22,6.2,22
	C6.2,22,6.2,22,6.2,22 M5.2,22.5C5.2,22.6,5.3,22.7,5.2,22.5C5.3,22.6,5.3,22.5,5.2,22.5C5.3,22.4,5.2,22.5,5.2,22.5 M6.3,22.6
	c0,0.1,0.7,1.6,0.8,1.8c0,0.1,0-0.1-0.2-0.4c-0.2-0.3-0.4-0.7-0.4-0.9C6.4,22.6,6.3,22.5,6.3,22.6 M5.3,23.3c0,0.1,0,0.2,0,0.2
	C5.4,23.6,5.4,23.5,5.3,23.3C5.4,23.1,5.3,23.1,5.3,23.3 M7.3,24.6c0,0.1,0.1,0.2,0.1,0.2C7.5,24.8,7.5,24.7,7.3,24.6
	C7.3,24.5,7.3,24.5,7.3,24.6 M7.5,24.9c0.2,0.4,1.4,1.7,2,2.2c0.2,0.2,0.4,0.3,0.4,0.4c0,0,0,0,0,0c0.1,0,0.3,0.1,0.2,0.2
	c-0.1,0.1-0.1,0.1,0,0c0.1,0,0.2,0,0.2,0.1c0,0.1,0.1,0.1,0.1,0.1c0.1,0,0.1,0,0.1,0c0,0.1,0,0.1,0,0c-0.1,0-0.1,0,0,0.1
	c0.1,0.1,0.1,0.1,0.2,0c0,0,0,0,0.1,0c0,0,0,0,0,0.1c0,0,0,0.1,0.1,0.1c0,0.1,0.1,0.1,0.1,0.2c0,0,0,0.1,0.1,0.1c0.1,0,0.1,0,0.1,0
	c0,0,0.1,0,0.1,0.1c0.1,0.1,0.1,0.2,0.1,0.2c0,0,0,0.1,0,0.1c0,0,0,0,0,0c0,0,0.1-0.2,0.2-0.2c0,0,0,0,0,0.1c0,0.1,0,0.1,0,0
	c0,0,0,0,0,0.1c0,0.1,0,0.1,0.1,0.3c0.1,0.1,0.1,0.2,0,0.1c0,0-0.1,0-0.1,0s0,0,0.1,0c0.1,0,0.1,0.1,0.1,0.2c0,0,0,0.1,0,0.1
	c0.1,0,0.1,0.1-0.1,0.2c-0.2,0.1-0.2,0.1-0.3,0L11.5,30l0.1,0.1c0.1,0.1,0.1,0.2,0.2,0.1c0,0,0,0,0.1,0s0,0,0,0.1
	c0,0-0.1,0.1-0.1,0.1s-0.1,0-0.1,0c0,0,0,0,0,0c0,0,0,0,0,0c0,0,0,0-0.1,0c-0.1,0-0.1,0-0.1-0.1c0-0.1,0-0.1,0,0
	c-0.1,0.1-0.8,0.1-0.8,0s0-0.1-0.2-0.1c-0.1,0-0.2,0-0.2,0s0,0,0,0c0,0-0.1-0.1-0.2-0.1c0,0-0.1,0-0.1,0c-0.1-0.1-0.6-0.3-0.6-0.3
	c-0.1,0.1,0.8,0.5,1.6,0.8c0.9,0.4,1.5,0.5,2.7,0.7c0.4,0,0.8,0.1,0.8,0.1c0,0,0.4,0.1,0.8,0.2c0.4,0.1,1.2,0.3,1.8,0.4
	c0.7,0.2,1.2,0.3,1.2,0.2c0,0,0.1,0,0.1,0c0,0,0,0,0,0c0,0,0-0.1,0-0.1c0,0,0,0,0-0.1c0,0,0-0.1,0-0.2s0-0.1,0-0.1c0,0,0-0.1,0-0.1
	c0,0,0-0.1,0-0.1c0,0,0.1-0.1,0.1-0.2c0-0.1,0-0.2,0-0.3c0,0,0-0.1,0-0.1c0,0,0-0.1,0-0.1c0.1-0.1,0.1-0.1,0-0.2
	c-0.1-0.1-0.1-0.1,0-0.1c0.2-0.1-1.2-0.7-2.2-0.8c-3.9-0.4-6.7-1.9-8.4-4.2C7.6,24.9,7.5,24.8,7.5,24.9 M25.4,25.5
	c-0.8,0.3-2.3,0.6-3.4,0.7c-0.7,0.1-0.7,0.1-0.5,0.3c0.4,0.4,3.3,1.9,3.5,1.8c0,0-0.3-0.1-0.7-0.3c-1.5-0.6-2.5-1.2-2.1-1.3
	c0,0,0.1,0,0.1-0.1c0,0,0,0,0,0c0,0,0,0,0-0.1c0-0.1,0-0.1,0-0.1s0,0,0-0.1s0,0,0,0c0,0,0.1,0,0.3,0c0.1,0,0.3-0.1,0.3-0.1
	c0.1,0,0.2,0,0.3,0c0.1,0,0.7-0.2,1.2-0.2c0.1,0,0.4-0.1,0.7-0.2c0.7-0.2,1-0.3,1-0.2c0,0,0,0,0.1,0c0.1,0,0.2,0.1,0.3,0.1
	c0,0,0.1,0,0.1,0c0.8,0.1,3.2,2.3,3.4,2.9c0,0.2,0.1,0.3,0.1,0.3c0.1,0,0.2,0.2,0.1,0.4c0,0.1,0,0.1,0,0.1c0,0,0.1,0.1,0.1,0.3
	c0,0,0,0.1,0.1,0.1c0,0,0,0,0,0.1c0,0,0,0,0,0.1c0,0,0.1,0,0.1,0c0,0,0,0,0.1,0c0,0,0,0.1,0,0.1c0,0,0,0.1,0,0.1c0,0,0,0-0.1,0
	c-0.1-0.1-0.2-0.1-0.2-0.1c0,0.1-0.1,0.1-0.2,0c-0.1-0.2-0.3-0.1-0.3,0.1c0,0.1,0,0.1-0.1,0c-0.1-0.1-0.2,0-0.3,0c0,0,0,0-0.2,0
	S29,30,29,30s-0.1,0-0.1,0c-0.1,0-0.1,0-0.1,0c0,0.1,0,0.1,0,0.1c0,0-0.1,0-0.1-0.1s0-0.1-0.1-0.1c-0.1,0-0.1-0.1-0.1-0.1
	s-0.1,0-0.1,0c-0.1,0-0.1,0-0.2,0c0,0-0.1-0.1-0.2-0.1c-0.1,0-0.2,0-0.2-0.1c0,0-0.1,0-0.1,0s0,0,0,0c0,0,0,0,0-0.1c0,0,0,0,0,0
	c0,0-0.1-0.1-0.3-0.2c-0.1-0.1-0.3-0.2-0.3-0.2c0,0-0.1,0-0.1-0.1c0,0-0.1-0.1-0.1-0.1c0,0-0.2-0.1-0.4-0.2
	c-0.3-0.2-1.2-0.6-1.2-0.6c0,0,0.2,0.1,0.4,0.2c0.9,0.4,1.6,0.9,2.2,1.5c0.2,0.2,0.4,0.4,0.4,0.4c0,0,0.1,0,0.1,0.1c0,0.1,0,0.1,0,0
	c-0.1-0.1-0.1,0,0.1,0.2l0.1,0.2l-0.1-0.2l-0.1-0.2l0.1,0.1c0.1,0.1,0.1,0.2,0.1,0.2c0,0,0.1,0.2,0.2,0.5c0.9,1.7,1,4,0.1,6.2
	c-0.1,0.2-0.1,0.4-0.1,0.4c0,0,0,0,0,0.1c0,0,0,0,0,0s0,0,0,0.1c0,0.1,0,0.1-0.1,0.1c-0.1,0-0.1,0-0.1-0.1c0-0.1-0.1,0.1-0.3,0.4
	S28,39,27.9,39.2c-0.1,0.1-0.1,0.2-0.1,0.2s0,0,0,0c0,0,0.1-0.2,0.2-0.3c0.1-0.2,0.2-0.3,0.2-0.3s0,0,0,0s0,0,0,0c0,0.1,0,0,0.1,0
	c0,0,0-0.1,0,0c0,0.1,0.1,0.1,0.2,0c0,0,0.1,0,0.1,0c0,0,0,0.1-0.1,0.1s-0.1,0-0.1,0.1c0,0.1-0.8,0.9-0.8,0.8c0,0,0,0-0.1,0.1
	c0,0.1-0.2,0.3-0.4,0.6c-2.4,2.9-4.3,6.5-5.1,9.7l0,0.1h2.8h2.8v-0.3c0-1.5,0.5-3.9,1.2-5.5c0.9-2.1,1.9-3.5,4.1-5.7
	c1.9-1.9,2.5-3,2.8-4.9c0-0.3,0.1-0.6,0.1-0.7c0.1-0.2,0.1-0.2,0-0.1c0,0-0.3,0.3-0.5,0.5c-0.2,0.2-0.4,0.4-0.4,0.4
	c0,0,0.1-0.1,0.3-0.2c0.5-0.5,0.5-0.4,0.4,0.3c-0.3,1.8-0.9,2.8-2.8,4.7c-0.7,0.7-1.3,1.3-1.4,1.5c-0.1,0.1-0.2,0.3-0.2,0.3
	c-0.3,0.3-1.5,2.1-2,3.1C29.1,43.8,29,44,29,44.1c0,0,0,0.1,0,0.1c0,0.1,0,0.1-0.1,0.1c-0.1,0-0.2,0.2-0.2,0.3
	c0,0.1-0.2,0.3-0.3,0.2c-0.1,0-0.1,0-0.1,0c0,0,0,0-0.1,0c-0.1,0-0.1,0,0,0c0,0.1-0.1,0.2-0.2,0.1c0,0,0,0,0,0c0,0,0,0.1,0.1,0.1
	c0,0,0.1,0,0,0.1c0,0-0.1,0-0.1,0c0,0-0.1-0.1-0.1,0c0,0,0,0.1,0,0.1c0.1,0.1,0.1,0.1,0,0.1c0,0-0.1,0-0.1-0.1c0,0-0.1-0.1-0.1,0
	c0,0-0.1,0,0,0c0.1-0.1-0.2,0-0.2,0.1c-0.1,0.1-0.1,0.1-0.1,0.1c0,0-0.1,0-0.1,0c0,0,0,0-0.1,0c0,0-0.1,0-0.2,0c-0.1,0-0.1,0-0.1,0
	c0,0,0,0-0.1,0c0,0-0.1,0,0,0c0,0,0,0,0,0s-0.1,0,0,0.1c0,0,0,0.1,0,0.1s-0.1,0-0.1,0s-0.1,0-0.1,0.1c0,0,0,0,0,0c0,0,0-0.1,0-0.1
	c0-0.1-0.2-0.1-0.2,0c0,0.1-0.1,0,0-0.1c0-0.1-0.1-0.2-0.2-0.2c0,0-0.1,0-0.1,0c-0.1-0.1-0.3-0.1-0.4,0c-0.1,0.1-0.2,0.1-0.1,0
	c0,0,0-0.1,0-0.1c0,0-0.1,0-0.1,0c0,0,0,0,0,0c0,0,0-0.1-0.1-0.1s-0.1,0-0.1,0c0,0,0,0-0.1,0c-0.1,0-0.1,0-0.1-0.1
	c0-0.1,0-0.2,0-0.2c0,0,0.2-0.2,0.2-0.3c0-0.1,0.2-0.6,0.2-0.5c0,0.1,0.1,0,0.1,0c0,0,0,0,0,0c-0.1,0-0.1,0,0-0.2
	c0-0.1,0.1-0.1,0.1-0.1c0,0,0,0,0,0c0,0,0.2-0.4,0.5-0.8c1.2-1.8,2.2-3,4-4.5c0.5-0.4,1-0.9,1-1c0.1-0.1,0.1-0.1,0.1-0.3
	c0,0,0,0,0.1,0c0,0,0,0,0,0c0-0.1,0.1-0.3,0.2-0.3c0.1,0,0.2-0.5,0.2-0.6c0-0.1,0-0.1,0,0c0,0.1,0,0,0,0c0-0.1,0-0.1,0-0.1
	c0.2-0.1,0.4-2.1,0.3-3c-0.3-2.6-1.2-4.5-2.9-5.9c-0.6-0.5-0.6-0.5-1.1-0.8C26.3,25.2,26.3,25.2,25.4,25.5 M8.1,28.6
	c0.1,0.1,0.5,0.5,0.7,0.6l0.2,0.1l-0.1-0.1c0-0.1-0.1-0.1-0.2-0.1S8.5,29,8.4,28.9C8.1,28.6,7.9,28.5,8.1,28.6 M11.2,28.8
	C11.2,28.9,11.3,28.9,11.2,28.8C11.3,28.8,11.3,28.8,11.2,28.8C11.2,28.8,11.2,28.8,11.2,28.8 M12.2,29.3c0,0-0.1,0.1-0.2,0.1
	c0,0,0,0,0-0.1c0,0,0-0.1,0.1-0.1C12.1,29.3,12.2,29.3,12.2,29.3 M11.7,29.4C11.7,29.4,11.7,29.5,11.7,29.4
	C11.7,29.5,11.7,29.5,11.7,29.4C11.8,29.3,11.8,29.3,11.7,29.4 M27.9,29.9C28.2,30.2,28.2,30.3,27.9,29.9c-0.1,0-0.2-0.1-0.2-0.1
	C27.8,29.7,27.8,29.8,27.9,29.9 M35.9,30.5C35.9,30.6,35.9,30.7,35.9,30.5C35.9,30.6,35.9,30.5,35.9,30.5
	C35.9,30.4,35.9,30.4,35.9,30.5 M19.3,30.9c0,0.1,0,0.1,0.1,0.2c0.2,0.1,0.2,0.1,0-0.1C19.3,30.8,19.3,30.8,19.3,30.9 M35.9,31.1
	C35.9,31.2,35.9,31.2,35.9,31.1C36,31.1,36,31,35.9,31.1C35.9,30.9,35.9,31,35.9,31.1 M36,32c0,0.1,0,0.2,0,0.1c0-0.1,0-0.2,0-0.2
	C36,31.8,36,31.8,36,32 M31.6,36.6C31.2,36.9,31,37,31.1,37c0,0,0.1-0.1,0.2-0.2C31.4,36.8,31.6,36.6,31.6,36.6c0.1,0,0.2,0,0.1-0.1
	C31.7,36.5,31.6,36.5,31.6,36.6 M29,37.5c0,0.1-0.1,0.3-0.1,0.2c0,0,0.1-0.3,0.1-0.3C29,37.4,29,37.5,29,37.5 M28.3,44.8
	c0,0,0.1,0.1,0.1,0C28.4,44.8,28.3,44.7,28.3,44.8C28.2,44.7,28.2,44.7,28.3,44.8 M25.3,45.1C25.4,45.2,25.4,45.2,25.3,45.1
	c-0.1,0.1-0.2,0.1-0.2,0.1s0,0,0,0s0,0,0,0s0,0-0.1,0s-0.1,0-0.1,0s0,0-0.1,0c-0.1,0,0-0.1,0.1-0.2C25.2,45.1,25.2,45.1,25.3,45.1
	C25.2,45.1,25.3,45.1,25.3,45.1 M26.9,45.5c0,0.1-0.1,0-0.1,0C26.8,45.4,26.8,45.4,26.9,45.5C26.9,45.4,26.9,45.5,26.9,45.5"/>
<path id="path2" class="st2" d="M29.8,7.4C29.7,7.4,29.7,7.4,29.8,7.4c0,0.1,0.1,0.2,0.1,0.2c0,0.1,0,0.1,0,0.1c0,0-0.1,0-0.1,0
	c0,0,0,0,0,0.1c0,0,0,0.1,0,0.1c0,0,0,0,0,0c0.3,0,1.9,1.4,2.6,2.3c0.1,0.2,0.2,0.3,0.3,0.3c0,0,0.1,0,0.1,0c0,0,0,0,0,0
	c-0.1,0-0.1,0,0.1,0.3c0.1,0.3,0.3,0.4,0.2,0.2c0,0,0-0.1,0-0.2c0,0,0-0.1,0,0c0,0-0.1,0-0.1,0c0,0,0,0,0.1,0c0,0,0.1,0,0.1,0
	c0,0,0,0,0,0c0,0,0,0,0,0.1c0,0.1,0,0.1,0,0c0,0,0.1-0.1,0.1,0c0,0,0,0.1,0.1,0.1c0,0,0.1,0,0-0.1c0,0,0-0.1,0-0.1s0,0,0-0.1
	c0-0.1,0-0.1,0.1,0c0.1,0,0.2,0,0.3-0.1c0,0,0,0,0,0c0,0,0,0.1-0.1,0.1s-0.1,0-0.1,0s0,0,0,0c0,0,0.1,0,0.1,0c0.1,0,0.1,0,0-0.1
	s0-0.1,0.1,0c0.1,0.1,0.3,0,0.2-0.1c0,0,0-0.1,0-0.1c0,0,0.1,0,0,0.1c0,0.1,0,0.2,0.2,0c0.1-0.1,0.1-0.1,0.1,0c0,0,0,0.1-0.1,0.2
	c-0.1,0.1-0.1,0.1,0,0c0.1,0,0.1,0,0.1,0c0,0,0,0,0.1,0c0,0,0,0,0-0.1c0,0,0,0,0,0s0,0,0-0.1c0-0.1,0-0.1,0.1,0
	c0.1,0.1,0.5,0,0.4-0.1c0,0,0-0.1,0-0.1c0,0,0.1,0,0.1,0c0,0.1,0.2,0,0.2-0.2c0-0.2,0-0.3,0.1-0.3c0,0,0,0,0,0.1
	c-0.1,0.1,0,0.1,0.1,0c0.1-0.1,0.1-0.1,0-0.1c-0.1,0-0.1-0.1-0.1-0.1c0.1-0.1,0.1-0.2,0-0.3c-0.1,0-0.1,0-0.1,0c0,0.1-0.1,0-0.2-0.1
	c0-0.1-0.1-0.1-0.1-0.1c0,0-0.1,0-0.1-0.1C35,9,34.9,8.9,34.4,8.7c-0.1-0.1-0.4-0.2-0.5-0.3s-0.3-0.2-0.3-0.2c0,0-0.1,0-0.1-0.1
	c0,0,0-0.1,0-0.1s0,0,0,0c0,0,0,0,0.1,0c0.1,0,0.2,0,0.2,0.1c0,0,0,0,0.1,0c0.1,0,0.2,0,0.2,0c0,0,0,0-0.1-0.1
	C33.8,8.1,33,7.8,33,7.9c0,0,0,0,0.1,0c0.1,0,0.1,0,0.1,0c0,0,0,0,0,0c0,0,0.1,0,0.1,0c0,0,0,0,0.1,0c0.1,0,0.1,0,0.1,0
	c0,0.1-0.1,0.1-0.1,0c0,0-0.1,0-0.1,0c0,0-0.2,0-0.3-0.1c-0.1,0-0.2-0.1-0.3-0.1c-0.1,0-0.2,0-0.2-0.1c0,0-0.1-0.1-0.2-0.1
	c0,0-0.1,0-0.2-0.1C31.8,7.5,29.9,7.3,29.8,7.4 M12.5,9.1c-2.4,1.7-3.2,5.6-1.8,8.3c0.6,1.2,2,2.7,2,2.2c0,0,0-0.1-0.1,0
	c-0.1,0-0.1,0-0.1,0c0-0.1,0.4-0.1,0.4,0c0,0.1,0,0.1,0.1,0c0,0,0.1-0.1,0.2-0.1c0.1,0,0.1,0,0,0c0,0,0,0,0,0c0.1,0,0.2-0.1,0.2-0.2
	c0-0.1,0-0.1,0.1,0c0.1,0.1,0.4,0.1,0.4,0.1c0,0,0-0.1,0.1-0.1c0.1,0,0.1,0,0.1,0s0,0,0,0s0,0,0-0.1c0,0,0-0.1,0.1-0.1
	c0.1,0,0.1,0,0-0.1c0,0,0,0,0,0c0.1,0,0.1,0,0.2-0.1c0-0.1,0.1-0.1,0.2-0.1c0.1,0,0.1,0,0.2-0.1c0,0,0-0.1,0.1-0.1s0.1,0,0.1-0.1
	c0.1-0.1,0.1-0.1,0.1,0c0,0,0.1,0.1,0.1,0.1c0,0,0.1-0.3,0.1-0.4c0,0,0,0,0,0c0,0,0.1,0.1,0.1,0.1c0,0,0,0,0,0c-0.1,0-0.1,0,0-0.1
	c0.1-0.1,0.1-0.1,0-0.2c0,0,0,0,0-0.1c0,0,0-0.1,0-0.1c0,0,0-0.1,0-0.1c0,0,0-0.1,0-0.2c0-0.1,0-0.2,0-0.2c0,0,0.1,0,0-0.1
	c0,0-0.1-0.1-0.1,0c0,0-0.1,0,0,0c0,0,0,0,0,0c0,0-0.1,0,0,0c0-0.1,0.2-0.1,0.2,0c0,0,0,0,0-0.1c0-0.2,0.1-0.4,0.2-0.2
	c0,0,0,0,0.1,0s0.1,0,0.1,0c0,0,0.1,0,0.1,0c0,0,0,0-0.1-0.1c-0.1,0-0.2-0.1-0.2-0.1c0,0,0,0,0,0c0,0-0.3-0.3-0.6-0.7
	c-0.3-0.3-0.7-0.8-0.8-0.9c-0.1-0.1-0.3-0.5-0.5-0.7s-0.4-0.5-0.4-0.7c-0.1-0.1-0.1-0.3-0.2-0.2c0,0,0,0,0,0c0-0.2,0-0.2-0.1-0.2
	c0,0,0,0,0,0c0,0,0-0.2-0.1-0.5c-0.3-1-0.4-2-0.2-2.9c0-0.1,0-0.1,0,0c0,0.1,0,0.1,0,0c0,0,0-0.1,0-0.1c0,0,0,0,0,0c0,0,0,0,0-0.1
	c0-0.1,0-0.3,0-0.4s0-0.3,0-0.3C12.8,8.9,12.7,9,12.5,9.1 M35.6,10c-0.1,0.1,0,0.2,0,0.2c0,0,0.1,0,0.1,0.1c0,0,0,0.1-0.1,0.1
	c-0.1,0-0.1,0,0,0.1c0.1,0.1,0.2,0,0.2-0.4C35.9,9.9,35.7,9.9,35.6,10 M15,12.2c0,0-0.2,0.1-0.2,0.1c-0.6,0,0.5,2.6,1.6,3.6
	c0.6,0.6,1.7,1.1,2.2,1.2c0,0,0.1,0,0.1,0c0.2,0.1,0.9,0.2,0.9,0.1c0,0,0.2,0,0.5,0c0.2,0,0.5,0,0.5,0c0,0,0.1,0,0.1,0
	s0.1,0,0.2,0.1c0.1,0,0.2,0,0.3,0c0.2,0,0.5-0.1,0.5-0.2c0-0.2,0.1-0.2,0.2-0.1c0.1,0.1,0.2,0.2,0.1,0c0-0.1,0-0.1,0-0.1
	c0,0,0,0,0,0c0-0.1,0-0.1,0.1,0c0.1,0.1,0.2,0.1,0.1,0c-0.1-0.1,0-0.1,0.2-0.1c0,0,0.1,0,0.1-0.1c0,0,0-0.1,0.1,0
	c0.1,0,0.1,0,0.1-0.1c0-0.1,0-0.1,0.1-0.1c0,0,0.1,0,0.1,0.1c0,0,0.1,0,0.2,0c0.1-0.1,0.2-0.2,0.1-0.1c-0.1,0-0.1,0-0.1,0
	c0,0,0.1,0,0.1,0c0,0.1,0.1,0.1,0.2,0.1c0.2,0,0.2,0,0.1-0.1c-0.1-0.1-0.1-0.1,0,0c0,0.1,0,0.1-0.1,0c0,0,0-0.1,0-0.1
	c0.1,0,0.1,0,0.1,0c0,0,0,0,0.1,0c0,0,0,0,0,0c0,0,0,0,0.1,0c0.1,0,0.1,0,0,0.1c-0.1,0.2-0.1,0.2,0,0.2c0,0,0.1,0,0-0.1
	c0,0,0-0.1,0-0.1c0,0,0-0.1,0-0.2c0-0.1,0-0.1,0.1,0c0,0,0,0.1,0,0.2c0,0.1,0,0.1,0.1,0c0.1-0.1,0.1-0.1,0-0.2s-0.1-0.1,0,0
	c0.1,0,0.1,0,0.2-0.1c0-0.1,0.1-0.1,0.1,0c0.1,0,0.1,0,0,0c0,0,0-0.1,0-0.1s0,0,0-0.1c0,0,0-0.1,0.1-0.1c0.1-0.1,0.1-0.1,0,0
	C24.8,16,24.9,16,25,15.9c0.1,0,0.1-0.1,0.1-0.1s0-0.1,0-0.1s0,0,0,0c0,0,0.1,0,0.1,0c0.1,0,0.1,0,0.1-0.1c0,0,0-0.1,0-0.1
	c0,0,0.2,0,0.4,0c0.1,0,0.1,0,0-0.1c0,0-0.1,0,0,0c0.1,0,0.2-0.1,0.2-0.2c0,0,0-0.1,0.1-0.1c0,0,0.1,0,0.1-0.1c0,0,0-0.1,0,0
	c0,0,0,0.1,0,0.1c0,0.1,0.1,0.1,0.1-0.1c0-0.1,0.1-0.1,0.1-0.1c0,0,0.1,0.1,0.1,0.1c0,0,0,0-0.1-0.1c-0.1-0.1-0.1-0.1-0.1-0.1
	c0.1,0,0-0.1-0.1-0.1c-0.1,0-0.5,0-0.5-0.1c0,0,0.1,0,0.1,0c0,0,0.1,0,0,0c0-0.1-0.3-0.1-0.3,0c0,0,0,0,0,0c0,0,0,0,0,0
	c0,0.1-0.1,0-0.2,0c0,0,0-0.1-0.1-0.1c0,0,0,0,0,0.1c0.1,0.1,0,0.2-0.2,0.1c-0.1-0.1-0.1-0.1,0,0c0.1,0,0.1,0,0.1,0
	c0,0,0-0.1-0.1-0.1c0,0-0.1,0-0.1,0c0,0-0.4,0-1.7-0.1c-0.7,0-1.3,0-1.3-0.1c0,0-0.5,0-1,0s-0.9,0-0.9,0c0,0-0.2,0-0.5,0l-0.5,0
	l0.2-0.2c0.1-0.1,0.1-0.1,0.1-0.1c-0.2,0.1-0.1,0,0-0.1c0.4-0.4,0.7-0.9,0.4-0.7c-0.1,0-1.7,0-2,0c-0.1,0-0.4-0.1-0.6-0.1
	c-0.2,0-0.6-0.1-0.8-0.2s-0.5-0.2-0.6-0.2c-0.1,0-0.2-0.1-0.2-0.1c0,0-0.1-0.1-0.2-0.1c0,0-0.1,0-0.2-0.1c-0.1-0.1-0.1-0.1-0.1-0.1
	s-0.1,0-0.1,0C15.1,12.2,15.1,12.2,15,12.2 M35.6,14.2c-0.1,0.3-0.4,0.9-0.6,1.4c-0.2,0.5-0.4,0.8-0.4,0.8c0,0-0.1,0.2-0.2,0.5
	c-0.1,0.3-0.2,0.5-0.2,0.5s-0.1,0.3-0.3,0.6c-0.1,0.3-0.2,0.6-0.2,0.6c0,0,0,0,0,0c-0.1,0-0.1,0.1-0.1,0.2c0,0,0,0,0,0
	c0,0-0.1,0-0.1,0.1c0,0-0.1,0.3-0.3,0.5c-0.1,0.2-0.2,0.5-0.2,0.5c0,0,0,0.1,0,0.1c0,0-0.3,0.4-0.3,0.6c0,0,0,0.1,0,0.1
	c-0.1,0,0,0.2,0.1,0.3c0.1,0.1,0.1,0.1,0,0.2c0,0.1,0,0.1,0,0.1c0,0,0.1,0,0.1,0.1s0,0.1,0.1,0.1c0.1,0,0,0,0,0
	c-0.1,0-0.1,0-0.1,0.2c0,0.1,0,0.2,0,0.2c0,0.1,0,0.1,0,0c0,0,0.1,0,0.1,0s0,0,0,0c0,0,0,0,0.1,0c0.1,0,0.1,0.1,0.1,0.1s0.1,0,0.2,0
	c0.1,0,0.2,0,0.2,0c0,0.1,0.1,0,0.1,0c0-0.1,0-0.1,0.1,0c0.1,0.1,0.1,0.1,0.1,0c0-0.1,0.1-0.1,0.1,0c0,0.1,0.1,0,0-0.1
	c0,0,0,0,0.1,0s0.1,0,0.1,0c0,0,0.1,0,0.1,0c0,0,0,0,0,0c-0.1-0.1,0-0.2,0.2-0.2c0.1,0,0.1,0,0.1,0c0,0,0-0.1,0-0.1s0-0.1,0-0.1
	s0,0,0-0.1c0,0,0.1-0.1,0.2,0c0.1,0,0.1,0,0.1,0c0,0,0-0.1,0-0.1c0.2,0,0.2,0,0.2-0.1c0-0.1,0-0.1,0-0.1c0,0,0.1,0,0,0c0,0,0,0,0,0
	c0.1,0,0.1,0.1,0,0.1c-0.1,0-0.1,0.1,0,0.1c0,0,0.1,0,0.1,0c0-0.1,0.2-0.3,0.3-0.2c0.1,0,0.1,0.1,0.1,0s0,0,0,0s0,0,0,0s0,0,0.1,0
	c0.1,0,0.1,0,0.1,0c0-0.1,0.1-0.2,0.2-0.2c0.1,0,0.1,0,0.1,0c0,0,0,0,0,0c0,0.1,0.1,0.1,0.2,0c0.1-0.1,0.2-0.2,0.2-0.2
	c0,0,0.1-0.1,0.1-0.1c0-0.1,0-0.1,0.1-0.1c0,0,0,0,0-0.1c0-0.1,0-0.1,0,0c0.1,0,0.1,0,0.1-0.1c0,0,0-0.1,0-0.1c0,0,0.1-0.1,0.1-0.2
	c0-0.1,0-0.1,0.1-0.1c0.1,0,0.1,0,0.1-0.1c0,0,0,0,0.1,0c0.1,0,0.1,0,0.1,0c0,0,0,0,0.1,0c0,0,0,0,0,0.1c0,0,0,0.1,0,0.1
	c0.3,0,0.3-0.8-0.1-1.8c-0.1-0.4-0.2-0.8-0.2-0.8c0-0.1,0-0.2,0-0.2c0,0,0,0,0,0c0-0.1,0-0.2-0.1-0.2c0,0,0,0,0,0
	c0-0.1-0.3-0.9-0.4-0.9c0,0,0,0,0,0c0,0,0-0.1,0-0.1s-0.1,0-0.1-0.1c0,0,0-0.1,0,0s0,0,0-0.1c0-0.1-0.1-0.1-0.1-0.1
	c0,0-0.1-0.2-0.1-0.4c0,0,0-0.1-0.1,0c0,0,0,0,0,0c0-0.1,0-0.2-0.1-0.2c0,0,0,0,0,0c0,0,0-0.1,0-0.1c0,0,0,0,0-0.1c0,0,0-0.1,0,0
	S36.1,14.1,36,14C35.9,13.6,35.9,13.6,35.6,14.2 M26.2,14.6C26.2,14.6,26.2,14.6,26.2,14.6c0.1,0.1,0.1,0.1,0.1,0
	C26.3,14.5,26.2,14.5,26.2,14.6 M26.5,14.6C26.5,14.6,26.5,14.6,26.5,14.6c0,0,0.1,0,0.1,0c0.1,0,0.1,0,0,0
	C26.7,14.5,26.6,14.5,26.5,14.6 M26.8,14.6c0,0,0,0,0.1,0c0.1,0,0.1,0,0.2,0c0,0,0,0,0,0C27,14.5,26.8,14.5,26.8,14.6 M26.8,14.8
	c0,0.1,0,0.1-0.1,0c-0.1-0.1-0.2,0-0.1,0.1c0,0,0.1,0.1,0.1,0.1c0,0,0.1,0,0.1,0c0,0,0,0,0,0C26.8,14.9,26.8,14.9,26.8,14.8
	C26.9,14.8,26.9,14.7,26.8,14.8C26.9,14.7,26.9,14.7,26.8,14.8 M27,14.8c0,0.1,0.1,0.2,0.2,0.1c0,0,0,0,0,0S27.1,14.9,27,14.8
	c0.1-0.1,0.1-0.1,0-0.1C27,14.7,27,14.8,27,14.8 M25.7,15.4C25.7,15.4,25.6,15.5,25.7,15.4C25.6,15.5,25.6,15.5,25.7,15.4
	c-0.1,0-0.1,0-0.1-0.1C25.5,15.3,25.5,15.3,25.7,15.4C25.6,15.3,25.7,15.4,25.7,15.4 M19.7,17.3c0,0,0.3,0,0.4,0c0,0,0,0-0.2,0
	C19.8,17.3,19.7,17.3,19.7,17.3 M20.2,17.3c0,0,0.1,0,0.1,0c0.1,0,0.1,0,0.1,0s0,0-0.1,0C20.3,17.3,20.2,17.3,20.2,17.3 M5.2,19.2
	c0,0.1,0,0.4,0,0.7c0,0.5,0,0.2,0.1-0.6C5.3,18.9,5.3,18.8,5.2,19.2 M13.8,19.3C13.8,19.3,13.8,19.3,13.8,19.3c-0.1,0-0.2,0-0.1,0
	c0,0,0,0,0,0c0,0,0,0,0,0S13.6,19.2,13.8,19.3C13.8,19.2,13.8,19.3,13.8,19.3 M12.8,20c0.3,0.3,0.8,0.7,0.6,0.5
	c-0.1-0.1-0.2-0.2-0.3-0.3C13.1,20.1,13,20,13,20c0,0,0,0,0,0c0,0-0.1,0-0.2-0.1c-0.1-0.1-0.2-0.1-0.2-0.1
	C12.6,19.7,12.7,19.9,12.8,20 M5.6,20c0,0.1,0,0.2,0,0.2c0.1,0.1,0,0.4-0.1,0.4c0,0,0,0,0,0.1c0,0.1,0,0.1-0.1,0.1
	c-0.1,0-0.2,1.7-0.1,2.2c0,0.3,0,0.3,0.1,0.1c0-0.1,0-0.1,0,0c0,0.1,0,0.2,0,0.2c0,0.1,0,0.1,0,0c-0.1-0.1,0,0,0.1,0.5
	c0,0.2,0.1,0.2,0.1,0.1c0-0.1,0,0,0,0.1c0,0.2,0.1,0.4,0.1,0.7c0.1,0.2,0.1,0.4,0.1,0.4c0,0,0,0,0,0c0,0,0,0,0,0.1
	c0,0.2,0.8,1.7,1.1,2c0.1,0.1,0.1,0.1,0.1,0.1c-0.1,0,0.1,0.3,0.5,0.7c0.2,0.3,0.9,0.9,0.8,0.8c0,0,0-0.1,0-0.1s0,0,0,0
	c0,0,0,0.1,0.1,0.1c0.1,0,0.1,0.1,0.2,0.2c0.1,0.1,0.1,0.1,0,0.1c-0.1-0.1-0.1-0.1,0,0c0,0,0.1,0.1,0.2,0.1c0.1,0,0.1,0,0,0
	c0,0,0,0.1,0.2,0.2c0.1,0.1,0.2,0.1,0.2,0.1c-0.1-0.1,0.4,0.1,0.6,0.3c0,0,0.1,0,0.1,0c0.1,0,0.3,0.1,0.2,0.1c0,0,0,0,0,0
	s0.1,0,0.2,0c0.2,0,0.2,0,0.2,0.1c0,0.1,0.7,0.1,0.8,0c0.1-0.1,0.1-0.1,0,0c0,0.1,0,0.1,0.1,0.1c0,0,0.1,0,0.1,0s0,0,0,0
	c0,0,0,0,0,0c0,0,0,0,0.1,0c0,0,0.1,0,0.1-0.1c0,0,0-0.1,0-0.1c0,0-0.1,0-0.1,0c0,0.1-0.1,0.1-0.2-0.1L11.5,30l0.1,0.1
	c0.2,0.1,0.5-0.1,0.4-0.3c0,0,0-0.1,0-0.1c0.1,0,0-0.2-0.1-0.2c0,0-0.1,0-0.1,0s0,0,0.1,0c0,0,0,0,0-0.1c-0.1-0.1-0.1-0.2-0.1-0.3
	c0-0.1,0-0.1,0-0.1c0,0,0,0,0,0c0,0,0-0.1,0-0.1c0,0-0.2,0.1-0.2,0.2c0,0,0,0,0,0c0,0,0-0.1,0-0.1c0,0-0.1-0.2-0.1-0.2
	c-0.1-0.1-0.1-0.1-0.1-0.1c0,0,0,0-0.1,0c0,0-0.1-0.1-0.1-0.1c0,0,0-0.1-0.1-0.2c0-0.1-0.1-0.1-0.1-0.1c0,0,0,0,0-0.1
	c0,0-0.1,0-0.1,0c0,0.1-0.1,0.1-0.2,0c0-0.1,0-0.1,0-0.1c0,0,0.1,0,0,0c0,0-0.1-0.1-0.1,0c-0.1,0-0.1,0-0.1-0.1
	c0-0.1-0.1-0.1-0.2-0.1c-0.1,0-0.1,0,0,0c0.1-0.1,0-0.2-0.2-0.2c0,0-0.1,0,0,0c0,0-0.2-0.2-0.4-0.4c-0.4-0.3-1.3-1.3-1.7-1.7
	c-0.2-0.3-0.3-0.5-0.7-1.1c-0.5-0.8-1.1-2.5-1.4-3.8c-0.1-0.3-0.1-0.5-0.1-0.5C5.7,20.2,5.7,20.2,5.6,20C5.6,19.9,5.6,19.9,5.6,20
	 M5.1,21.1c0,0.3,0,0.4,0,0.2c0-0.1,0-0.4,0-0.5C5.1,20.7,5.1,20.8,5.1,21.1 M35.9,20.7c0,0-0.1,0.1-0.1,0.1s-0.1,0-0.1,0
	c0,0,0-0.1,0.1-0.1C35.9,20.6,36,20.6,35.9,20.7 M32.4,21.6C32.4,21.7,32.4,21.7,32.4,21.6C32.5,21.6,32.5,21.6,32.4,21.6
	C32.4,21.5,32.4,21.5,32.4,21.6 M5.2,22.1c0,0.1,0,0.2,0,0.1c0-0.1,0-0.2,0-0.2C5.2,21.9,5.2,21.9,5.2,22.1 M5.3,22.6
	C5.3,22.7,5.2,22.6,5.3,22.6c0-0.2,0-0.2,0-0.2C5.3,22.5,5.3,22.6,5.3,22.6 M26,25.4c-0.7,0.2-1.3,0.4-1.5,0.4
	c-0.5,0.1-1.1,0.2-1.2,0.2c-0.1,0-0.2,0-0.3,0c-0.1,0-0.2,0-0.3,0.1c-0.1,0-0.2,0.1-0.3,0c0,0,0,0,0,0c0,0,0,0.1,0,0.1
	c0,0,0,0.1,0,0.1s0,0.1,0,0.1c0,0,0,0,0,0s-0.1,0.1-0.1,0.1c-0.5,0,0.5,0.6,2.4,1.4c1.2,0.5,1.2,0.5,1.8,0.8
	c0.2,0.1,0.3,0.2,0.4,0.2c0,0,0,0,0.1,0.1c0,0,0.1,0.1,0.1,0.1c0,0,0.2,0.1,0.3,0.2c0.1,0.1,0.3,0.2,0.3,0.2c0,0,0,0,0,0
	c0,0,0.1,0.2,0.2,0.3c0.2,0.2,0.2,0.2,0.2,0.1c-0.1-0.1-0.2-0.2-0.2-0.2c-0.1,0-0.1-0.1-0.1-0.1c0,0,0,0,0.1,0c0,0,0.1,0.1,0.2,0.1
	c0.1,0,0.2,0.1,0.2,0.1c0,0,0.1,0.1,0.2,0c0.1,0,0.1,0,0.1,0c0,0,0,0.1,0.1,0.1c0.1,0,0.1,0.1,0.1,0.1c0,0,0,0.1,0.1,0.1
	c0,0,0.1,0,0-0.1c0-0.1,0-0.1,0.1,0c0.1,0,0.1,0,0.1,0c0,0,0.1,0,0.2,0c0.1,0.1,0.2,0.1,0.2,0c0-0.1,0.2-0.1,0.3,0
	c0.1,0.1,0.1,0.1,0.1,0c0.1-0.2,0.2-0.3,0.3-0.1c0,0.1,0.2,0.1,0.2,0c0,0,0.1,0,0.2,0.1c0.1,0.1,0.1,0.1,0.1,0s0-0.1,0-0.1
	c0,0,0-0.1,0-0.1c0,0,0,0-0.1,0c0,0,0,0-0.1,0c0,0,0-0.1,0-0.1c0,0,0,0,0-0.1c0,0-0.1-0.1-0.1-0.1c0-0.2,0-0.3-0.1-0.3
	c0,0,0,0,0-0.1c0-0.1-0.1-0.4-0.1-0.4c0,0-0.1-0.1-0.1-0.3c-0.1-0.4-1.2-1.5-2.1-2.2c-0.2-0.2-1.2-0.7-1.3-0.7c0,0-0.1,0-0.1,0
	c-0.1-0.1-0.2-0.1-0.3-0.1c0,0-0.1,0-0.1,0C26.3,25.3,26.2,25.3,26,25.4 M8.3,28.8l0.1,0.1L8.3,28.8c-0.2-0.1-0.4-0.3-0.2-0.2
	C8.2,28.6,8.3,28.7,8.3,28.8 M11.3,28.8C11.3,28.9,11.2,28.9,11.3,28.8C11.2,28.8,11.2,28.8,11.3,28.8
	C11.3,28.8,11.3,28.8,11.3,28.8 M11.9,29.3c0,0.1,0,0.1,0.2,0c0.1,0,0.1-0.1,0-0.1C12,29.3,11.9,29.3,11.9,29.3 M11.8,29.4
	C11.8,29.5,11.7,29.5,11.8,29.4C11.7,29.4,11.7,29.4,11.8,29.4C11.8,29.3,11.8,29.3,11.8,29.4 M28.4,30.6c0.1,0.1,0.1,0.1,0.1,0.1
	S28.5,30.7,28.4,30.6c0-0.1-0.1-0.1-0.1-0.1C28.3,30.5,28.4,30.5,28.4,30.6 M35.6,33.4c-0.1,0.1-0.2,0.1-0.2,0.1c0,0,0,0,0,0
	s0,0.1-0.1,0.2c-0.2,0.2-0.3,0.2-0.2,0.1c0-0.1,0-0.1,0,0c-0.1,0-0.1,0.1-0.1,0.1c0,0,0,0,0,0c0,0-1.3,0.9-1.3,1c0,0,0,0,0,0
	c0,0-1.5,1.1-1.9,1.5c-0.1,0.1-0.1,0.1-0.1,0.1c0.1-0.1,0.1,0,0,0.1c-0.1,0.1-0.2,0.1-0.1,0c0,0,0,0,0,0c0,0-0.1,0.1-0.1,0.1
	c0,0-0.2,0.3-0.3,0.3c0,0,0,0,0-0.1c0,0,0,0-0.2,0.1s-0.2,0.2-0.2,0.2s-0.4,0.4-1,0.9c-1.8,1.5-2.8,2.7-4,4.5
	c-0.3,0.4-0.5,0.8-0.5,0.8c0,0,0,0,0,0c-0.1-0.1-0.5,0.7-0.5,0.8c0,0.1-0.1,0.2-0.2,0.2c0,0,0,0.1-0.1,0.2c0,0.2,0,0.2,0.1,0.2
	c0,0,0.1,0,0.1,0c0,0,0,0,0.1,0s0.1,0,0.1,0.1c0,0,0,0,0,0c0,0,0.1,0,0.1,0c0,0,0,0.1,0,0.1c0,0.1,0.1,0.1,0.1,0
	c0.1-0.1,0.3-0.1,0.4,0c0,0,0.1,0.1,0.1,0c0,0,0.2,0.1,0.2,0.2c0,0.1,0,0.2,0,0.1c0-0.1,0.2-0.1,0.2,0c0,0,0,0.1,0,0.1c0,0,0,0,0,0
	c0,0,0-0.1,0.1-0.1c0,0,0.1,0,0.1,0s0,0,0-0.1c0,0,0-0.1,0-0.1c0,0,0.1,0,0,0c0,0,0,0,0,0c0,0,0.1,0,0.1,0c0,0,0,0,0.1,0
	c0.1,0,0.2,0,0.2,0c0,0,0.1,0,0.1,0c0,0,0,0,0.1,0c0,0,0.1,0,0.1-0.1c0.1-0.1,0.3-0.2,0.2-0.1c0,0,0,0,0,0c0,0,0.1,0,0.1,0
	c0,0,0.1,0.1,0.1,0.1c0.1,0,0.1,0,0-0.1c0,0-0.1-0.1,0-0.1c0,0,0.1,0,0.1,0c0.1,0,0.1,0.1,0.1,0c0,0,0-0.1,0-0.1c0,0-0.1,0-0.1-0.1
	s0,0,0,0c0.1,0,0.2,0,0.2-0.1c0-0.1,0-0.1,0,0c0,0,0.1,0,0.1,0c0,0,0,0,0.1,0c0.1,0,0.3-0.1,0.3-0.2c0-0.1,0.2-0.3,0.2-0.3
	c0,0,0.1,0,0.1-0.1c0-0.1,0-0.1,0-0.1c0,0,0.2-0.3,0.3-0.6c0.5-1,1.7-2.8,2-3.1c0,0,0.1-0.1,0.2-0.3c0.1-0.1,0.8-0.8,1.4-1.5
	c1.9-1.9,2.5-3.1,2.8-4.9C35.8,33.3,35.8,33.2,35.6,33.4 M28.4,44.8C28.4,44.8,28.4,44.8,28.4,44.8C28.4,44.8,28.3,44.8,28.4,44.8
	C28.2,44.7,28.3,44.7,28.4,44.8 M25.1,45.2c-0.1,0.1-0.2,0.2-0.1,0.2c0,0,0.1,0,0.1,0c0,0,0,0,0.1,0s0.1,0,0.1,0s0,0,0,0
	C25.2,45.3,25.2,45.3,25.1,45.2c0,0.1,0.1,0,0.1,0.1c0.1,0,0.2,0,0.1-0.1c0,0-0.1,0-0.1,0C25.2,45.1,25.2,45.1,25.1,45.2 M26.8,45.5
	c0,0.1,0.1,0.1,0.1,0C26.9,45.5,26.9,45.4,26.8,45.5C26.8,45.4,26.8,45.4,26.8,45.5"/>
<path id="path4" class="st3" d="M24.7,0.7c0.1,0,0.1,0,0.2,0C25,0.6,24.9,0.6,24.7,0.7C24.7,0.6,24.7,0.6,24.7,0.7 M24.3,0.7
	c-0.1,0.1-0.1,0.1,0.1,0c0.1,0,0.1-0.1,0.1-0.1C24.5,0.7,24.4,0.7,24.3,0.7 M25.1,0.7c0,0,0.1,0.1,0.2,0.1c0.1,0,0.1,0.1,0.1,0
	C25.4,0.8,25.1,0.7,25.1,0.7C25,0.7,25,0.7,25.1,0.7 M23.8,1.1l-0.2,0.2L23.8,1.1c0.2-0.1,0.3-0.2,0.3-0.2s0,0,0,0S24,0.9,23.8,1.1
	 M25.6,1C25.8,1.2,26,1.4,26,1.7c0,0.1,0,0.1,0,0C26.1,1.6,25.8,1.1,25.6,1C25.4,0.9,25.4,0.9,25.6,1 M23.5,1.5c0,0.1,0,0.2,0,0.2
	S23.5,1.7,23.5,1.5C23.6,1.3,23.6,1.3,23.5,1.5 M23.4,2C23.4,2.1,23.4,2.1,23.4,2c0,0,0-0.1,0-0.1C23.4,1.8,23.4,1.8,23.4,2
	 M25.7,2.9C25.5,3.1,25.5,3.1,25.7,2.9c0.1,0,0.3-0.3,0.2-0.2C25.9,2.6,25.8,2.7,25.7,2.9 M23.8,2.9c0.1,0.1,0.4,0.3,0.4,0.3
	c0,0,0,0,0,0S24,3.1,23.9,3C23.8,2.9,23.7,2.8,23.8,2.9 M24.7,3.3c0.1,0,0.1,0,0.2,0C24.9,3.3,24.9,3.3,24.7,3.3
	C24.6,3.3,24.6,3.3,24.7,3.3 M21.9,3.8c4.1,0,7.2,0,7.2,0c0,0-2,0-4.4,0C22.3,3.7,21,3.8,21.9,3.8 M20.7,4.5C20.8,4.8,20.9,5,21,5
	C21,5,20.9,4.8,20.7,4.5C20.6,4.2,20.5,4,20.5,4S20.6,4.2,20.7,4.5 M21.6,6.2c0,0.1,0.1,0.2,0.1,0.2S21.7,6.3,21.6,6.2
	c0-0.1-0.1-0.2-0.1-0.2C21.5,6,21.5,6.1,21.6,6.2 M17.6,7.1C17.6,7.1,17.6,7.1,17.6,7.1c-0.1,0.1-0.1,0.1-0.1,0.1
	C17.6,7.2,17.7,7.1,17.6,7.1C17.7,7.1,17.6,7,17.6,7.1C17.5,7,17.5,7,17.6,7.1 M22.6,8.2c0,0.1,0.1,0.1,0.1,0.1S22.7,8.3,22.6,8.2
	c0-0.1,0-0.1,0-0.1S22.6,8.1,22.6,8.2 M15.6,8.6L15.2,9L15.6,8.6c0.3-0.3,0.4-0.3,0.3-0.3C15.9,8.3,15.8,8.4,15.6,8.6 M23.3,9.4
	c0,0,0,0.1-0.1,0.1l-0.2,0l0.2,0C23.4,9.5,23.4,9.5,23.3,9.4C23.3,9.4,23.3,9.4,23.3,9.4 M26,9.5c0,0,0.3,0,0.6,0c0.6,0,0.6,0-0.2,0
	C26.2,9.4,26,9.5,26,9.5 M28,9.4c0,0,0.1,0,0.1,0c0.1,0,0.1,0,0.1,0C28.3,9.4,28,9.4,28,9.4 M21.1,9.5c0,0,0,0.1,0,0.1
	S21.1,9.7,21.1,9.5c0,0,0.1,0,0.1,0c0.1,0,0.1,0,0,0C21.2,9.5,21.1,9.5,21.1,9.5 M21,10C21,10.1,21.1,10.1,21,10
	C21.1,10,21.1,10,21,10C21.1,9.9,21,9.9,21,10 M37,10.3c0.1,0.1,0.2,0.2,0.3,0.2C37.3,10.5,37.2,10.4,37,10.3
	c-0.1-0.1-0.2-0.2-0.2-0.2S36.9,10.2,37,10.3 M20.9,10.6c0,0.1,0,0.1,0,0.1C20.9,10.7,20.9,10.7,20.9,10.6c0,0,0.1-0.1,0-0.1
	S20.9,10.5,20.9,10.6 M20.8,10.8c0,0,0.1,0.1,0.1,0.2l0.1,0.1L21,11C20.9,11,20.9,10.9,20.8,10.8C20.8,10.8,20.8,10.8,20.8,10.8
	 M28.3,11.1l-0.2,0.2L28.3,11.1c0.2-0.1,0.2-0.2,0.2-0.2C28.5,10.9,28.4,11,28.3,11.1 M21.2,11.2c0,0,0.1,0.1,0.2,0.2l0.2,0.1
	l-0.1-0.2C21.2,11.2,21.2,11.1,21.2,11.2 M39.7,12.1c0.9,0.9,0.9,1,0.6,0.6c-0.2-0.2-0.5-0.5-0.8-0.8C39.2,11.5,39.2,11.5,39.7,12.1
	 M28,12.3c0.2,0.2,0.4,0.4,0.4,0.4S28.3,12.5,28,12.3c-0.2-0.2-0.3-0.4-0.4-0.4C27.6,11.9,27.8,12.1,28,12.3 M21.2,12.5l-0.6,0.6
	L21.2,12.5c0.5-0.5,0.6-0.6,0.6-0.6C21.8,12,21.5,12.2,21.2,12.5 M13.8,12.2c0,0.1,0,0.2,0,0.1s0-0.2,0-0.2
	C13.8,12.1,13.8,12.1,13.8,12.2 M28.7,13.1c0.1,0.1,0.2,0.2,0.2,0.2C29,13.3,28.9,13.2,28.7,13.1c0-0.1-0.1-0.2-0.2-0.2
	S28.6,13,28.7,13.1 M40.7,13.2c0.1,0.1,0.3,0.4,0.5,0.6c0.2,0.2,0.3,0.4,0.3,0.4C41.6,14.3,40.8,13.2,40.7,13.2
	C40.6,13,40.6,13.1,40.7,13.2 M13.8,13.8C13.8,13.9,13.8,14,13.8,13.8C13.8,13.9,13.8,13.8,13.8,13.8C13.8,13.7,13.8,13.8,13.8,13.8
	 M33,14.1c0,0.1,0,0.1,0,0.1c0,0-0.1,0-0.2,0c-0.1,0-0.3,0.2-0.5,0.4c-0.2,0.2-0.6,0.6-0.8,0.9c-0.2,0.2-0.5,0.5-0.5,0.6
	c-0.1,0.1-0.1,0.1-0.1,0.1c0,0-0.1,0.1-0.3,0.2c-0.1,0.1-0.2,0.2-0.3,0.2c0,0-0.1,0-0.1,0.1c0,0-0.1,0.2-0.3,0.4
	c-0.1,0.2-0.4,0.6-0.6,0.9c-1,1.8-2.8,3.4-4.7,4.5c-0.9,0.5-0.9,0.5-0.9,0.6c0,0,0,0.1,0,0c0,0-0.1,0.1-0.2,0.2
	c-0.3,0.3-0.5,0.4-0.5,0.4c0,0-0.1,0-0.1,0.1c-0.2,0.1-0.4,0.3-0.6,0.4c-0.1,0-0.2,0.1-0.3,0.2c-0.1,0.1-0.2,0.2-0.2,0.2
	c0,0-0.1,0.1-0.2,0.2c-0.1,0.2-0.2,0.2-0.4,0.2c-0.3,0,1.1,0,1.5-0.1c0.7-0.1,2.2-0.4,2.2-0.5c0,0-0.1,0-0.2,0
	c-0.4,0.1-0.4,0-0.1-0.2c0.1-0.1,0.3-0.2,0.4-0.4c0.2-0.1,0.3-0.3,0.3-0.3s0.2-0.2,0.4-0.4c0.2-0.2,0.4-0.4,0.4-0.4s0.1-0.1,0.2-0.2
	c0.1-0.1,0.3-0.3,0.4-0.4c0.1-0.1,0.2-0.2,0.3-0.3s0.2-0.2,0.4-0.3c0.1-0.1,0.4-0.4,0.6-0.6c0.3-0.3,0.7-0.6,1.1-1
	c0.1-0.1,0.3-0.2,0.3-0.3c0.1-0.1,0.1-0.2,0.2-0.2c0.2-0.2,0.5-0.4,0.8-0.7c0.2-0.2,0.4-0.4,0.6-0.5c0.1-0.1,0.3-0.3,0.5-0.4
	s0.3-0.2,0.3-0.2c0,0,0.1-0.1,0.1-0.1c0,0,0.1-0.1,0.1-0.1s0.2-0.1,0.3-0.2c0.1-0.1,0.2-0.2,0.3-0.2s0,0,0,0c0,0,0-0.1,0-0.1
	c0,0,0.1-0.1,0.1-0.1c0.1-0.2,0.1,0,0,0.3c-0.1,0.3-0.1,0.4,0,0.3c0.3-0.8,0.5-3.3,0.2-3.7C33,14,33,14,33,14.1 M41.8,14.6
	c0.2,0.3,0.3,0.5,0.2,0.3c-0.2-0.3-0.5-0.6-0.4-0.3c0,0,0,0,0,0c0,0-0.1,0-0.1,0.1c0,0.1,0,0.2,0,0.2c0,0,0,0.1,0,0.3c0,0,0,0-0.1,0
	c-0.1,0-0.1,0,0,0.1c0,0,0,0.1,0,0.1c0,0-0.1,0-0.1,0.1c0,0-0.1,0.1-0.1,0.1s-0.1,0-0.1,0s0,0.1-0.1,0.1c0,0-0.1,0-0.1,0.1
	c0,0.1,0,0.1-0.1,0c-0.1,0-0.1,0-0.1,0c0,0.1-0.1,0.2-0.2,0.1c0,0,0,0,0,0.1c0,0.1,0,0.1,0,0.1c-0.1,0-0.1,0-0.1,0.1
	c0,0-0.4,0.2-0.4,0.2c0,0,0,0,0-0.1c0,0,0,0,0,0c0,0-0.1,0.1-0.1,0.1c0,0.1-0.1,0.2-0.1,0.1c0,0,0,0-0.1,0.1c0,0.1-0.1,0.2-0.2,0.3
	c-0.1,0.1-0.1,0.1-0.1,0.2c0,0,0,0,0,0c0,0-0.1,0,0,0.2l0,0.2l-0.1-0.1c0-0.1-0.1-0.1-0.1-0.1c0,0,0,0,0.4,1
	c0.8,2.1,1.2,3.8,1.2,5.8c0,1.3,0,1.2-0.2,2.4l0,0.1l0-0.1c0.1-0.2,0.3-1.4,0.3-1.8c0-0.4,0-0.4,0-0.1c0,0.3,0,0.3,0.1,0.3
	c0.1,0,0.1,0,0.1-0.1c0-0.1,0.1-0.3,0.2-0.4c0,0,0.1-0.1,0.1-0.2c0-0.1,0.3-0.5,0.4-0.5c0,0,0.1,0,0-0.1c0,0,0.1-0.2,0.1-0.2
	c0,0,0.1,0,0.1,0c0.1,0,0.1-0.2,0-0.1c0,0-0.1,0-0.1,0c0,0,0-0.1,0.1-0.1s0.1,0,0.2-0.1c0.1-0.1,0.1-0.1,0.1,0c0,0,0.1,0,0,0
	c0,0,0-0.1,0-0.1c0,0,0.1,0,0-0.1c0-0.1,0-0.1,0.1,0c0.1,0,0.1,0,0.1,0c0,0-0.1,0-0.1-0.1c0,0,0,0,0.1,0c0.1,0,0.1,0,0.2,0
	c0,0,0.1-0.1,0-0.1c0,0,0,0,0-0.1c0,0,0.1,0,0.1,0c0,0,0.1,0,0.1,0c0,0,0.1,0,0.1,0c0,0,0.1,0,0.1,0c0.1,0,0.1,0,0,0
	c0,0.1,0,0.1,0,0.2c0.1,0.1,0.1,0.1,0,0.2c0,0.1,0,0.1,0,0c0.1-0.1,0.1-0.1,0.1,0c0,0,0,0.1,0,0.2c0,0,0,0.1,0,0.2
	c0,0.1,0-0.1,0-0.4l0-0.5l0,0.6c0,0.4,0,0,0-0.9c0-2-0.2-3.3-0.7-4.6c-0.2-0.5-0.2-0.7-0.1-0.4c0,0.1,0.1,0.2,0.1,0.2
	c0,0,0-0.1-0.1-0.3S43,16.8,43,16.8c0,0,0,0,0,0c0.1-0.1-0.9-1.7-1-1.6c0,0,0,0,0,0c0,0-0.4-0.7-0.4-0.7
	C41.6,14.3,41.7,14.5,41.8,14.6 M7.6,20.3c0,0.1,0.1,0.2,0.2,0.3l0.1,0.1l-0.1-0.1C7.7,20.5,7.7,20.4,7.6,20.3l-0.1-0.1L7.6,20.3
	 M31.4,20.6c-0.1,0.1-0.1,0.2-0.1,0.1c0.1,0,0.3-0.3,0.2-0.3C31.5,20.4,31.4,20.5,31.4,20.6 M8,21c0.3,0.5,1.3,1.5,1.8,2
	c0.2,0.1,0-0.1-0.5-0.5s-0.9-1-1.1-1.2C7.9,20.7,7.8,20.6,8,21 M31.1,20.9l-0.1,0.2L31.1,20.9c0.1,0,0.2-0.1,0.2-0.1
	C31.2,20.8,31.2,20.8,31.1,20.9 M30.5,21.6L30.1,22L30.5,21.6c0.4-0.4,0.5-0.4,0.4-0.4C30.9,21.1,30.7,21.3,30.5,21.6 M7.9,22.2
	c0,0,0,0.1,0.1,0.2c0,0.1,0.1,0.1,0.1,0.1S8,22.4,7.9,22.2C7.9,22.2,7.9,22.2,7.9,22.2 M10.5,23.5c0,0,0.1,0.1,0.1,0.1
	c0.1,0.1,0.1,0.1,0.1,0.1c0,0-0.1-0.1-0.1-0.1C10.6,23.5,10.5,23.5,10.5,23.5 M38.9,23.9c0,0.2,0,0.3,0,0.2c0-0.1,0-0.3,0-0.4
	C38.9,23.5,38.9,23.6,38.9,23.9 M3.5,23.7C3.5,23.8,3.5,23.8,3.5,23.7C3.5,23.7,3.5,23.6,3.5,23.7C3.5,23.5,3.5,23.6,3.5,23.7
	 M44,23.9c0,0.2,0,0.2,0,0.2c0-0.1,0-0.2,0-0.3C44.1,23.6,44,23.7,44,23.9 M3.4,24.1c0,0.1,0,0.2,0,0.1c0-0.1,0-0.2,0-0.3
	C3.5,23.9,3.4,24,3.4,24.1 M32.8,24.2c0,0.1-0.1,0.1-0.1,0.1c0,0-0.1,0-0.2,0.1c0,0-0.1,0.1-0.2,0.1c-0.1,0-0.1,0-0.2,0.1
	c0,0-0.1,0.1-0.2,0.1c-0.1,0-0.2,0-0.3,0.1c-0.1,0.1-0.2,0.1-0.2,0.1c0,0-0.1,0-0.1,0c0,0-0.1,0.1-0.2,0.1c-0.1,0-0.2,0-0.2,0.1
	s0,0,0,0s-0.1,0-0.1,0c0,0-0.1,0-0.1,0c0,0,0,0,0,0s0,0-0.1,0c-0.1,0-0.4,0.1-0.4,0.2c0,0,0,0-0.1,0c-0.1,0-0.4,0.2-0.4,0.2
	c0,0,0,0-0.1,0c0,0-0.1,0,0,0c0,0,0,0-0.1,0c-0.1,0-0.1,0-0.1,0s0,0,0,0s-0.1,0-0.1,0.1c0,0-0.1,0.1-0.2,0.1c-0.2,0-0.8,0.2-0.9,0.2
	c-0.1,0.1,0.1,0.4,0.3,0.4c0.1,0,0.8,0.6,1,0.9c0.7,0.7,1.3,1.6,1.5,2.3c0.1,0.3,0.2,0.4,0.2,0.4c0,0,0-0.1-0.1-0.2
	c0-0.1-0.1-0.2-0.1-0.2c0,0,0,0,0.1,0c0,0,0.1,0,0.1,0c0,0,0,0,0.1,0c0.1,0,0.1,0.1,0.2,0c0,0,0.1,0,0.1,0c0,0,0,0,0.1,0
	c0.1,0,0.2,0,0.2,0c0,0,0.1,0,0.2-0.1c0.1-0.1,0.3-0.1,0.4-0.1c0,0,0.1,0,0.1-0.1s0.1-0.1,0.2-0.1s0.1,0,0.1-0.1s0-0.1,0.1-0.1
	c0,0,0,0,0,0.1c0,0.1,0,0,0.1,0c0.1,0,0.2-0.1,0.2-0.1c0,0,0,0,0,0c0,0,0,0,0.1,0c0.2,0,0.3,0,0.3,0s0,0,0.3-0.1
	c0.1,0,0.1-0.1,0.2-0.1c0.1-0.1,0.1-0.1,0.1-0.1c0,0.1,0,0,0.1-0.1c0,0,0,0,0.1,0c0.2,0.1,0.3,0,0.3,0c0,0,0-0.1,0-0.2
	c0-0.1,0-0.1,0,0c0,0.1,0,0.1,0,0c0,0,0.1,0,0.1,0c0,0,0,0,0-0.1s0-0.1,0,0c0,0,0.1,0,0.2,0c0.2-0.1,0.2-0.1,0.2,0.1
	c0,0,0,0.1,0.1,0.1c0,0,0.1,0,0.1,0.1c0,0.1,0,0.1,0,0.1c0,0-0.1-0.6-0.2-0.6c0,0,0,0,0-0.1c0.1-0.4-1.1-2.9-1.7-3.4
	c-0.1-0.1-0.2-0.2-0.2-0.2c0,0,0,0-0.1,0c0,0-0.1,0-0.1-0.1C33.2,24.1,32.9,24.1,32.8,24.2 M44,24.4C44,24.5,44,24.5,44,24.4
	c0,0,0-0.1,0-0.1C44,24.2,44,24.3,44,24.4 M45.5,24.4C45.5,24.5,45.6,24.5,45.5,24.4c0,0,0-0.1,0-0.1C45.6,24.2,45.5,24.3,45.5,24.4
	 M9.4,24.6c0.1,0.1,0.2,0.2,0.2,0.2C9.6,24.8,9.5,24.7,9.4,24.6c0-0.1-0.1-0.2-0.1-0.2C9.2,24.4,9.3,24.5,9.4,24.6 M25.1,24.6
	c-0.1,0-0.2,0.1-0.2,0.1s0.2,0,0.3-0.1c0.1,0,0.2-0.1,0.2-0.1C25.4,24.5,25.3,24.6,25.1,24.6 M3.4,25c0,0.2,0,0.3,0,0.2
	c0-0.1,0-0.3,0-0.4C3.4,24.7,3.4,24.8,3.4,25 M12.5,24.7c0.1,0.1,0.9,0.4,0.9,0.4c0,0-0.2-0.1-0.4-0.2
	C12.7,24.7,12.5,24.7,12.5,24.7 M38.9,24.9c0,0.1,0,0.2,0,0.1c0-0.1,0-0.2,0-0.3C38.9,24.7,38.9,24.8,38.9,24.9 M45.6,25
	c0,0.1,0,0.2,0,0.1c0-0.1,0-0.2,0-0.2C45.6,24.8,45.6,24.8,45.6,25 M10.1,25.3c0.2,0.2,0.3,0.3,0.3,0.3
	C10.4,25.6,10.3,25.5,10.1,25.3C10,25.2,9.8,25,9.8,25C9.8,25,9.9,25.2,10.1,25.3 M14.5,25.5c0.1,0,0.2,0.1,0.2,0.1c0,0,0,0-0.1-0.1
	C14.4,25.4,14.3,25.4,14.5,25.5 M43.8,25.7c0,0.1,0,0.2,0,0.2C43.8,26,43.8,25.9,43.8,25.7c0-0.1,0.1-0.2,0-0.2
	C43.8,25.5,43.8,25.6,43.8,25.7 M14.9,25.6c0,0,0.1,0,0.2,0c0,0,0,0,0,0C15,25.6,14.9,25.6,14.9,25.6C14.8,25.6,14.8,25.6,14.9,25.6
	 M45.6,26.2c0,0.4,0,0.5,0,0.3c0-0.2,0-0.5,0-0.7C45.7,25.7,45.6,25.9,45.6,26.2 M3.4,25.9c0,0.1,0,0.2,0,0.1c0-0.1,0-0.2,0-0.2
	C3.5,25.7,3.4,25.7,3.4,25.9 M17.3,26.1c0,0,0.1,0,0.2,0S17.5,26.1,17.3,26.1C17.3,26.1,17.3,26.1,17.3,26.1 M3.5,26.3
	C3.5,26.4,3.5,26.4,3.5,26.3C3.5,26.3,3.5,26.2,3.5,26.3C3.5,26.2,3.5,26.2,3.5,26.3 M17.8,26.2c0.1,0,0.1,0,0.2,0
	C18,26.2,18,26.2,17.8,26.2C17.7,26.2,17.7,26.2,17.8,26.2 M18.2,26.2c0.1,0,0.2,0,0.2,0c0.1,0,0,0-0.1,0S18.2,26.2,18.2,26.2
	 M20.4,26.2c0,0,0.1,0.1,0.2,0.1l0.1,0.1l-0.1-0.1C20.5,26.3,20.5,26.2,20.4,26.2C20.4,26.2,20.3,26.2,20.4,26.2 M19.1,26.3
	c0.2,0,0.6,0,0.8,0c0.2,0,0,0-0.4,0C19.1,26.3,18.9,26.3,19.1,26.3 M43.6,26.5c0,0.1,0,0.2,0,0.2C43.6,26.7,43.6,26.6,43.6,26.5
	c0-0.1,0.1-0.1,0-0.2C43.7,26.3,43.6,26.4,43.6,26.5 M11.7,26.5c0,0,0.6,0.3,0.6,0.3c0,0-0.1-0.1-0.3-0.2
	C11.9,26.5,11.7,26.5,11.7,26.5 M20.7,26.6c0.1,0.1,0.1,0.1,0.1,0.1S20.8,26.7,20.7,26.6c0-0.1-0.1-0.1-0.1-0.1
	C20.6,26.5,20.7,26.5,20.7,26.6 M40.3,26.9c0,0.1,0,0.2,0,0.2C40.3,27.1,40.4,27,40.3,26.9c0.1-0.1,0.1-0.1,0.1-0.2
	C40.4,26.7,40.4,26.8,40.3,26.9 M21,27c0.1,0.1,0.3,0.2,0.4,0.3c0.2,0.2,0.2,0.1-0.2-0.3C21,26.9,20.9,26.9,21,27 M45.6,27.4
	C45.6,27.5,45.6,27.6,45.6,27.4c0,0,0-0.1,0-0.1C45.6,27.3,45.6,27.3,45.6,27.4 M21.7,27.5c0.1,0.1,0.2,0.2,0.2,0.2
	C21.9,27.7,21.8,27.6,21.7,27.5C21.7,27.5,21.6,27.5,21.7,27.5 M38.5,27.7c0,0.1,0,0.2,0,0.2C38.5,27.9,38.5,27.9,38.5,27.7
	c0-0.1,0.1-0.1,0-0.2C38.5,27.6,38.5,27.6,38.5,27.7 M40,27.8C39.9,28,39.9,28.1,40,27.8c0.1,0,0.1-0.1,0.1-0.2
	C40.1,27.6,40,27.7,40,27.8 M43.2,27.9c0,0.1,0,0.2,0,0.2C43.2,28.2,43.2,28.1,43.2,27.9c0.1-0.1,0.1-0.2,0.1-0.2
	C43.3,27.8,43.2,27.8,43.2,27.9 M45.5,28c0,0.1,0,0.2,0,0.1c0-0.1,0-0.2,0-0.2S45.5,27.9,45.5,28 M39.8,28.2c0,0.1-0.1,0.2-0.1,0.2
	C39.7,28.4,39.8,28.3,39.8,28.2C39.9,28,39.9,28,39.8,28.2 M23.1,28.3c0.1,0,0.1,0.1,0.2,0.1C23.3,28.4,23.2,28.3,23.1,28.3
	C23.1,28.3,23,28.2,23.1,28.3C23,28.2,23,28.3,23.1,28.3 M18.6,29.1c0.1,0.1,0.2,0.2,0.3,0.2S18.8,29.2,18.6,29.1
	c-0.1-0.1-0.2-0.2-0.2-0.2C18.4,28.8,18.5,28.9,18.6,29.1 M25.4,29.2c0,0,0.1,0.1,0.2,0.1c0.1,0.1,0.2,0.1,0.2,0.1
	c0,0-0.1-0.1-0.2-0.1C25.5,29.3,25.4,29.2,25.4,29.2 M39,29.4c-0.1,0.1-0.1,0.1-0.1,0.1C39,29.6,39,29.5,39,29.4
	c0.1-0.1,0.1-0.1,0.1-0.1C39.1,29.3,39.1,29.4,39,29.4 M38.7,29.8c-0.1,0.1-0.1,0.2-0.1,0.2C38.6,30,38.7,29.9,38.7,29.8
	c0.1-0.1,0.2-0.2,0.2-0.2C38.9,29.6,38.8,29.7,38.7,29.8 M5.3,30c0,0,0.1,0.1,0.2,0.2l0.2,0.1l-0.1-0.2C5.4,30,5.3,30,5.3,30
	 M27.1,30.4c0.2,0.2,0.3,0.3,0.3,0.3C27.4,30.7,27.3,30.6,27.1,30.4c-0.1-0.2-0.3-0.3-0.3-0.3S26.9,30.2,27.1,30.4 M35.8,30.2
	C35.8,30.4,35.8,30.4,35.8,30.2c0,0,0-0.1,0-0.1C35.8,30.1,35.8,30.1,35.8,30.2 M38.2,30.5c-0.1,0.1-0.2,0.2-0.1,0.2
	c0.1,0,0.4-0.4,0.3-0.4C38.4,30.3,38.3,30.4,38.2,30.5 M24.4,30.8c0.1,0.1,0.2,0.2,0.2,0.2C24.6,31,24.5,30.9,24.4,30.8
	c0-0.1-0.1-0.2-0.2-0.2C24.2,30.6,24.3,30.7,24.4,30.8 M42,30.8c0,0.1-0.1,0.1,0,0.1S42,30.8,42,30.8c0.1-0.1,0.1-0.1,0.1-0.1
	C42.1,30.6,42.1,30.7,42,30.8 M35.9,30.8C35.9,30.9,35.9,31,35.9,30.8c0,0,0-0.1,0-0.1C35.9,30.7,35.9,30.7,35.9,30.8 M22.1,31.2
	l-0.4,0.4L22.1,31.2c0.4-0.3,0.4-0.4,0.4-0.4C22.5,30.8,22.3,30.9,22.1,31.2 M37.8,31c-0.1,0.1-0.2,0.2-0.2,0.2
	C37.6,31.2,37.7,31.1,37.8,31c0.2-0.1,0.2-0.2,0.2-0.2C38,30.8,37.9,30.9,37.8,31 M37.4,31.3c-0.1,0.1-0.1,0.2-0.1,0.2
	c0,0,0.2-0.3,0.2-0.3C37.5,31.1,37.4,31.1,37.4,31.3 M35.9,31.6c0,0.2,0,0.3,0,0.2c0-0.1,0-0.3,0-0.4C35.9,31.3,35.9,31.4,35.9,31.6
	 M41.7,31.3c0,0.1-0.1,0.1,0,0.1C41.6,31.5,41.7,31.4,41.7,31.3c0.1-0.1,0.1-0.1,0.1-0.1C41.8,31.2,41.7,31.3,41.7,31.3 M37.4,31.4
	c-0.1,0.1-0.1,0.1-0.2,0.1c0,0-0.1,0-0.1,0.1c0,0.1,0,0.1,0,0c0.1,0,0.4-0.4,0.4-0.4C37.6,31.2,37.5,31.3,37.4,31.4 M8.7,31.5
	c0.1,0,0.4,0,0.5,0c0.1,0,0,0-0.3,0C8.6,31.5,8.5,31.5,8.7,31.5 M21.5,31.8l-0.1,0.2L21.5,31.8c0.2-0.1,0.2-0.1,0.2-0.1
	C21.7,31.6,21.6,31.7,21.5,31.8 M19.9,32.3c0,0.2,0,0.3,0,0.2c0-0.1,0-0.3,0-0.4C19.9,32,19.9,32.1,19.9,32.3 M21.2,32.2l-0.1,0.2
	L21.2,32.2c0.2-0.1,0.2-0.1,0.2-0.1C21.4,32,21.3,32.1,21.2,32.2 M10.3,32.3v0.2V32.3c0.1-0.1,0.1-0.1,0-0.2
	C10.3,32.1,10.3,32.2,10.3,32.3 M36,32.5c0,0.2,0,0.3,0,0.2c0-0.1,0-0.3,0-0.4C36,32.2,36,32.3,36,32.5 M40.9,32.5
	c-0.1,0.1-0.1,0.1-0.1,0.1C40.9,32.7,40.9,32.6,40.9,32.5c0.1-0.1,0.1-0.1,0.1-0.1C41,32.4,41,32.4,40.9,32.5 M25.1,33
	c0,0.2,0,0.4,0,0.2c0-0.1,0-0.3,0-0.5C25.1,32.7,25.1,32.8,25.1,33 M20.4,33.1l-0.2,0.3L20.4,33.1c0.2-0.1,0.3-0.2,0.3-0.2
	C20.7,32.8,20.6,32.8,20.4,33.1 M28.5,33.5C28.5,33.6,28.5,33.7,28.5,33.5c0,0,0-0.1,0-0.1C28.5,33.4,28.5,33.4,28.5,33.5
	 M39.8,33.9l-0.2,0.2L39.8,33.9c0.2-0.1,0.2-0.2,0.2-0.2C40,33.7,39.9,33.8,39.8,33.9 M19.5,33.9c-0.1,0.2,0,0.2,0.1,0
	c0.1-0.1,0.1-0.1,0,0C19.6,34,19.6,34,19.5,33.9C19.6,33.7,19.6,33.7,19.5,33.9 M11,34.1C10.9,34.3,10.9,34.3,11,34.1
	c0.1,0,0.1-0.1,0.1-0.1C11,34,11,34,11,34.1 M31.7,34.2C31.7,34.3,31.7,34.4,31.7,34.2C31.7,34.3,31.7,34.2,31.7,34.2
	C31.7,34.1,31.7,34.1,31.7,34.2 M9.4,34.5c-0.1,0.2-0.2,0.4-0.2,0.4c0,0,0.4-0.7,0.3-0.7C9.6,34.1,9.5,34.3,9.4,34.5 M39.3,34.4
	L39,34.8L39.3,34.4c0.2-0.2,0.3-0.3,0.3-0.3C39.6,34.1,39.6,34.1,39.3,34.4 M28.5,34.8C28.5,34.9,28.5,34.9,28.5,34.8
	C28.6,34.8,28.6,34.8,28.5,34.8C28.5,34.7,28.5,34.7,28.5,34.8 M37.9,35.8l-0.5,0.5L37.9,35.8c0.4-0.3,0.6-0.5,0.5-0.5
	C38.4,35.4,38.1,35.6,37.9,35.8 M8.4,36.4c0,0.1-0.1,0.1,0,0.1S8.4,36.5,8.4,36.4c0.1-0.1,0.1-0.1,0.1-0.1
	C8.4,36.3,8.4,36.3,8.4,36.4 M37,36.6l-0.2,0.2L37,36.6c0.2-0.1,0.2-0.2,0.2-0.2C37.1,36.4,37.1,36.5,37,36.6 M43.3,36.8
	C43.3,36.9,43.3,36.9,43.3,36.8C43.3,36.8,43.3,36.8,43.3,36.8C43.3,36.7,43.3,36.7,43.3,36.8 M36.5,37l-0.3,0.2L36.5,37
	c0.3-0.2,0.3-0.2,0.3-0.2C36.8,36.8,36.6,36.9,36.5,37 M43.2,37.2C43.2,37.3,43.2,37.4,43.2,37.2c0,0,0-0.1,0-0.1
	C43.2,37,43.2,37.1,43.2,37.2 M9.6,37.2C9.5,37.4,9.6,37.4,9.6,37.2c0.1,0,0.1-0.1,0.1-0.1C9.7,37.1,9.6,37.1,9.6,37.2 M35.2,38.1
	c-2.4,2.1-4.2,4.2-5.2,6c-0.1,0.1-0.1,0.1,0,0.1c0.1,0,0.1,0,0.1,0c0,0,0,0.1,0.1,0.1c0,0,0.1,0,0.1,0c0,0,0,0.1,0,0.1
	c0,0,0.1,0,0,0.1c-0.1,0,0,0.2,0.1,0.2c0.1,0,0.1,0.1,0,0.1c0,0,0,0,0,0.1s0,0,0.1,0c0,0,0,0,0,0c0,0,0,0.1,0,0.1
	c0,0,0.1,0.1,0.1,0.2c0,0.1,0.1,0.2,0.1,0.3c0.2,0.2,0.3,0.5,0.3,0.5c0,0,0,0,0.1,0.1c0,0,0.1,0.1,0.1,0.1s0.1,0.1,0.2,0.2
	c0.4,0.4,0.5,0.5,0.5,0.6C31.9,47,32,47,32,47c0,0,0.1,0,0.1,0.1c0,0,0,0.1,0.2,0.3c0,0,0.1,0.1,0.1,0.1c0,0,0.1,0.1,0.2,0.2
	c0.1,0.1,0.1,0.2,0.1,0.2c0,0,0,0,0,0c0,0,0.1,0,0.1,0c0,0,0,0.1,0,0c0,0,0,0,0,0c0,0.1,0,0.1,0.1,0.2c0,0.1,0.1,0.1,0.1,0.1
	c0,0,0,0,0,0c0,0,0,0.1,0,0.1s0,0,0,0.1c0,0,0,0.1,0,0.1s0.1,0.1,0.2,0.2c0.1,0.1,0.1,0.2,0.1,0.2s0.1,0.1,0.1,0.1
	c0,0.1,0.1,0.1,0.1,0.1c0,0,0,0,0,0c0,0.1,0.1,0.2,0.1,0.2c0,0,0,0,0,0c0,0,0.1,0.1,0.1,0.2c0.1,0.1,0.2,0.2,0.2,0.3l0.1,0.1h3.3
	c1.8,0,3.2,0,3.2,0c-0.1,0-0.3-0.2-0.2-0.2c0,0,0-0.1,0-0.1c0-0.1,0-0.1-0.1,0c0,0,0,0,0,0c0-0.1,0-0.1-0.1,0c0,0,0,0,0,0
	c0.1-0.1,0-0.2-0.2-0.2c0,0,0,0,0.1-0.1c0.1-0.1,0.1-0.1,0,0c0,0-0.1,0-0.1,0c0,0,0-0.1-0.1-0.1c0,0-0.1-0.1,0-0.1
	c0-0.1-0.1-0.3-0.2-0.3c0,0-0.1,0-0.1,0c0,0,0,0,0,0c0,0,0,0,0-0.1c0-0.1,0-0.1-0.1-0.1c-0.1,0-0.1,0,0-0.1c0-0.1,0-0.1,0-0.1
	c0,0,0,0,0,0c0,0,0-0.1,0,0c0,0,0,0,0-0.1c0-0.1,0-0.1,0-0.2c0,0,0-0.1,0-0.1c0,0,0-0.1,0,0c0,0-0.1,0-0.1,0c0,0,0-0.1-0.1-0.1
	c0,0,0,0,0-0.1c0-0.1,0-0.1-0.1,0c-0.1,0-0.1,0,0,0c0-0.1,0-0.1,0,0c-0.1,0-0.1,0,0-0.2c0-0.1,0-0.1,0-0.1c-0.1,0.1-0.2,0-0.2-0.1
	c0,0,0-0.1,0-0.1c-0.1-0.1-0.1,0-0.1,0c0,0,0,0,0,0c-0.1-0.1-0.1-0.1,0-0.1c0.1,0,0.1,0,0,0c0,0-0.1-0.1-0.1-0.1s0,0-0.1,0
	c0,0-0.1,0,0-0.1c0,0,0-0.1,0-0.1s-0.1-0.1-0.1-0.1s0-0.1,0-0.1c0,0,0,0-0.1,0c-0.1,0-0.1,0,0-0.1c0-0.1,0-0.1,0-0.1s0-0.1,0-0.1
	c0-0.1,0-0.1,0-0.1c0,0-0.2-0.1-0.2-0.2c0,0,0,0,0-0.1c0,0,0,0-0.1,0.1c-0.1,0.1-0.1,0,0-0.1c0-0.1,0-0.1-0.1-0.2
	c-0.1-0.1-0.2-0.1-0.2-0.1c-0.1,0.1,0,0,0-0.2c0-0.1,0-0.1,0-0.1c-0.1,0-0.1,0,0,0c0,0,0-0.1,0-0.1c0,0,0,0,0-0.1c0,0,0.1,0,0.1,0
	c0,0,0.1,0,0.1,0c0,0,0,0,0,0S38,44.8,38,44.7c-0.1-0.1-0.1-0.1-0.1,0c0,0.1,0,0.1,0,0.1c0,0-0.1-0.1-0.1-0.1c0-0.1,0-0.1,0-0.1
	c0,0,0,0,0,0c0,0-0.1,0-0.1,0s-0.1,0-0.1,0c0,0,0,0,0,0c0.1,0-0.2-0.3-0.3-0.3c-0.1,0-0.1,0,0-0.1c0,0,0-0.1,0-0.1c0,0,0,0,0-0.1
	c0-0.1,0-0.1,0,0c0,0.1,0,0,0,0c0-0.1,0-0.1,0-0.2c0,0,0-0.1,0-0.1c0,0,0,0-0.1,0c0,0-0.1,0-0.1-0.1c0-0.1,0-0.1,0-0.1
	c0,0,0.1,0,0.1,0c0,0,0,0,0,0c0,0-0.1,0-0.1,0c0,0-0.1-0.1-0.1-0.1c-0.1,0-0.1-0.1-0.1-0.1c0-0.1-0.2-0.3-0.3-0.2c0,0,0,0,0-0.1
	c0,0,0-0.1,0,0c0,0-0.1,0-0.1,0s0,0,0,0c0,0,0,0,0,0c0,0,0,0-0.1,0c0,0,0,0,0,0c0.1-0.1,0-0.2-0.1-0.1c-0.1,0-0.1,0-0.2-0.2
	c0-0.3,0-0.2-0.1-0.1c0,0-0.1,0.1-0.1,0c0-0.2-0.1,0.1-0.2,0.4c-0.1,0.6-0.1,0.6-0.2,0c0-0.1,0-0.3-0.1-0.4c0-0.1,0-0.2,0-0.2
	c0,0,0,0-0.1-0.1c0,0-0.1-0.1-0.1-0.1c0,0,0-0.1,0,0c0,0,0,0,0-0.1c0-0.1,0-0.2-0.1-0.1c0,0-0.1,0,0,0c0,0,0-0.1-0.1-0.1
	c-0.1,0-0.1-0.1-0.1-0.1c0,0,0,0,0,0s-0.1-0.1-0.1-0.2c0-0.1-0.1-0.2-0.1-0.2c0,0-0.1-0.1-0.1-0.2c0-0.1,0-0.1-0.1-0.1c0,0,0,0,0,0
	c0,0,0-0.1,0-0.2c0-0.1,0-0.2,0-0.3c0-0.1,0-0.1-0.1-0.1c-0.1,0-0.1,0-0.1-0.1c0,0,0-0.1,0-0.1c0,0,0-0.1,0-0.1c0,0,0.1-0.1,0.1-0.2
	c0,0,0-0.1,0,0c0,0,0,0,0,0c0,0,0.6-0.6,1.8-1.6c0.1-0.1,0.2-0.2,0.2-0.2C36.2,37.3,35.8,37.6,35.2,38.1 M43.2,38.2
	c0,0.4,0,0.6,0,0.4c0-0.2,0-0.6,0-0.8C43.2,37.6,43.2,37.8,43.2,38.2 M9.4,38.1c0.1,0,0.1,0,0.2,0C9.7,38.1,9.6,38.1,9.4,38.1
	C9.4,38.1,9.3,38.1,9.4,38.1 M9.8,38.1c0.1,0,0.1,0,0.2,0C10.1,38.1,10,38.1,9.8,38.1C9.8,38.1,9.8,38.1,9.8,38.1 M10.4,38.2
	c0.1,0,0.2,0,0.3,0c0.1,0,0,0-0.1,0C10.3,38.2,10.3,38.2,10.4,38.2 M10.9,38.2c0,0,0.1,0,0.2,0C11.1,38.2,11.1,38.2,10.9,38.2
	C10.9,38.2,10.8,38.2,10.9,38.2 M11.6,38.3c0,0,0.1,0,0.2,0C11.8,38.3,11.8,38.3,11.6,38.3C11.6,38.3,11.6,38.3,11.6,38.3
	 M43.2,39.2C43.2,39.3,43.2,39.3,43.2,39.2c0,0,0-0.1,0-0.1C43.2,39,43.2,39.1,43.2,39.2 M43.3,39.6C43.3,39.7,43.3,39.7,43.3,39.6
	C43.3,39.6,43.3,39.6,43.3,39.6C43.3,39.5,43.3,39.5,43.3,39.6 M22.1,40.5l-0.1,0.2L22.1,40.5c0.2-0.1,0.2-0.1,0.2-0.1
	C22.2,40.3,22.2,40.4,22.1,40.5 M21.3,41.3l-0.6,0.6L21.3,41.3c0.3-0.3,0.6-0.6,0.6-0.6C22,40.7,21.9,40.7,21.3,41.3 M43.7,41.6
	c0,0,0,0.1,0.1,0.2C43.8,42.1,43.8,42,43.7,41.6C43.7,41.7,43.7,41.6,43.7,41.6 M20.5,42.1l-0.1,0.2L20.5,42.1
	c0.2-0.1,0.2-0.1,0.2-0.1C20.7,41.9,20.6,42,20.5,42.1 M44,42.6c0,0.1,0,0.1,0.1,0.2c0,0,0,0,0,0C44.1,42.7,44,42.6,44,42.6
	C44,42.5,44,42.5,44,42.6 M12.5,43.2c0,0.3,0,0.4,0,0.3c0-0.1,0-0.4,0-0.5C12.6,42.8,12.5,42.9,12.5,43.2 M19.4,42.9
	c-0.1,0.1-0.2,0.2-0.2,0.2C19.2,43,19.3,43,19.4,42.9c0.1,0,0.2-0.1,0.2-0.1C19.7,42.7,19.7,42.7,19.4,42.9 M24.3,42.9
	c-0.1,0.2-0.2,0.4-0.1,0.3c0.1-0.1,0.3-0.4,0.2-0.4C24.4,42.8,24.4,42.8,24.3,42.9 M19,43.2C18.8,43.3,18.7,43.4,19,43.2
	c0,0,0.1,0,0.1,0C19.2,43,19.2,43,19,43.2 M18.2,43.7c-0.1,0.1-0.2,0.1-0.2,0.1c0,0,0.3-0.2,0.4-0.2S18.4,43.5,18.2,43.7 M23.8,43.8
	c0,0.1-0.1,0.1,0,0.1S23.8,43.9,23.8,43.8c0.1-0.1,0.1-0.1,0.1-0.1S23.8,43.8,23.8,43.8 M12.5,44.4c0,0.4,0,0.7,0,0.8
	c0,0.1,0-0.2,0-0.6c0-0.4,0-0.8,0-0.8C12.5,43.7,12.5,44,12.5,44.4 M11.4,44.1C11.4,44.2,11.4,44.3,11.4,44.1c0,0,0-0.1,0-0.1
	C11.4,43.9,11.4,44,11.4,44.1 M44.6,44c0,0,0.6,1.3,0.7,1.3C45.3,45.3,44.7,44.1,44.6,44C44.6,44,44.6,44,44.6,44 M17.1,44.3
	C16.9,44.4,16.9,44.5,17.1,44.3c0.1,0,0.2,0,0.2,0C17.2,44.3,17.2,44.3,17.1,44.3 M11.4,44.5c0,0.1,0,0.2,0,0.1c0-0.1,0-0.2,0-0.2
	S11.4,44.4,11.4,44.5 M23.4,44.5c0,0.1-0.1,0.2-0.1,0.2S23.4,44.7,23.4,44.5C23.6,44.3,23.5,44.3,23.4,44.5 M16.4,44.7
	c-0.1,0-0.2,0.1-0.2,0.1C16.2,44.9,16.3,44.8,16.4,44.7c0.1,0,0.2-0.1,0.2-0.1C16.6,44.6,16.6,44.6,16.4,44.7 M11.3,44.9
	C11.3,45,11.3,45.1,11.3,44.9c0,0,0-0.1,0-0.1C11.3,44.8,11.3,44.8,11.3,44.9 M19.3,45c-0.1,0-0.1,0.1-0.1,0.1c0,0,0.3-0.1,0.3-0.2
	C19.5,44.9,19.5,44.9,19.3,45 M15.1,45.4c-0.4,0.2-0.7,0.4-0.7,0.4c0.1,0,1.4-0.7,1.4-0.7C15.9,45,16,45,15.1,45.4 M11.3,45.4
	c0,0.1,0,0.2,0,0.1c0-0.1,0-0.2,0-0.3C11.3,45.2,11.3,45.2,11.3,45.4 M12.4,45.7c0,0.2,0,0.2,0,0.2c0-0.1,0-0.2,0-0.3
	C12.4,45.4,12.4,45.5,12.4,45.7 M21.1,46c0,0.4,0,0.5,0,0.3c0-0.2,0-0.5,0-0.7C21.1,45.5,21.1,45.7,21.1,46 M45.4,45.6
	c0,0.1,0.1,0.2,0.1,0.2C45.5,45.8,45.5,45.7,45.4,45.6c0-0.1-0.1-0.2-0.1-0.2C45.3,45.4,45.3,45.5,45.4,45.6 M11.2,45.9
	c0,0.1,0,0.2,0,0.1s0-0.2,0-0.2C11.2,45.7,11.2,45.8,11.2,45.9 M14,45.8c-0.1,0-0.2,0.1-0.2,0.1c0,0,0.6-0.2,0.6-0.2
	C14.4,45.7,14.3,45.7,14,45.8 M45.7,46.1c0.1,0.2,0.2,0.4,0.2,0.4C46,46.6,45.9,46.4,45.7,46.1c0-0.1-0.1-0.3-0.1-0.3
	S45.6,46,45.7,46.1 M13.3,46.1c-0.6,0.2-0.8,0.2-0.9,0c0-0.1,0-0.1,0,0c0,0.2,0.5,0.2,1.2-0.1C13.8,45.9,13.7,46,13.3,46.1
	 M38.5,46.1C38.5,46.2,38.5,46.2,38.5,46.1C38.4,46.1,38.4,46.1,38.5,46.1C38.5,46,38.6,46.1,38.5,46.1 M11.2,46.3
	C11.2,46.4,11.2,46.4,11.2,46.3C11.2,46.3,11.2,46.3,11.2,46.3C11.2,46.2,11.2,46.2,11.2,46.3 M11.1,46.7
	C11.1,46.8,11.1,46.8,11.1,46.7C11.2,46.7,11.2,46.6,11.1,46.7C11.1,46.5,11.1,46.6,11.1,46.7 M46.1,46.8c0,0.1,0.1,0.1,0.1,0.1
	C46.2,47,46.2,46.9,46.1,46.8c0-0.1,0-0.1,0-0.1C46,46.7,46,46.8,46.1,46.8 M11.1,47C11.1,47.1,11.1,47.2,11.1,47c0,0,0-0.1,0-0.1
	C11.1,46.9,11.1,46.9,11.1,47 M21,47.2c0,0.1,0,0.2,0,0.1c0-0.1,0-0.2,0-0.2C21.1,47,21,47.1,21,47.2 M46.3,47.2
	c0,0.1,0.1,0.1,0.1,0.1C46.4,47.3,46.4,47.3,46.3,47.2c0-0.1,0-0.1,0-0.1C46.2,47,46.2,47.1,46.3,47.2 M11,47.5c0,0.1,0,0.3,0,0.3
	C11,47.8,11,47.7,11,47.5c0.1-0.1,0.1-0.2,0.1-0.2C11,47.2,11,47.3,11,47.5 M21,47.7C21,47.8,21,47.9,21,47.7c0,0,0-0.1,0-0.1
	C21,47.5,21,47.6,21,47.7 M10.9,48c0,0.2,0,0.3,0.3,0.2l0.2,0l-0.2,0l-0.2,0L10.9,48C11,47.8,10.9,47.8,10.9,48 M12.6,47.9
	C12.5,47.9,12.5,47.9,12.6,47.9c0,0,0.1,0,0.2,0C12.9,47.8,12.7,47.8,12.6,47.9 M20.9,48.6c0,0.1,0,0.3,0,0.3
	C20.9,48.9,20.9,48.8,20.9,48.6c0.1-0.1,0.1-0.2,0.1-0.2C20.9,48.3,20.9,48.4,20.9,48.6 M47.1,48.6c0,0.1,0.1,0.1,0.1,0.1
	C47.2,48.7,47.2,48.6,47.1,48.6c0-0.1,0-0.1,0-0.1S47,48.5,47.1,48.6 M47.4,49.2c0,0.1,0.1,0.2,0.1,0.2
	C47.6,49.4,47.5,49.3,47.4,49.2c0-0.1-0.1-0.2-0.1-0.2C47.3,49,47.4,49.1,47.4,49.2 M20.7,49.4c0,0.1,0,0.2,0,0.2
	C20.7,49.6,20.7,49.5,20.7,49.4c0-0.1,0.1-0.1,0-0.2C20.8,49.2,20.7,49.3,20.7,49.4 M47.7,49.8c0.1,0.2,0.2,0.4,0.2,0.3
	c0,0-0.3-0.7-0.3-0.7C47.6,49.4,47.7,49.6,47.7,49.8"/>
</svg>
