<?xml version="1.0" encoding="utf-8"?>
<!-- Generator: Adobe Illustrator 27.2.0, SVG Export Plug-In . SVG Version: 6.00 Build 0)  -->
<svg version="1.1" id="svg" xmlns="http://www.w3.org/2000/svg" xmlns:xlink="http://www.w3.org/1999/xlink" x="0px" y="0px"
	 viewBox="0 0 400 400" style="enable-background:new 0 0 400 400;" xml:space="preserve">
<style type="text/css">
	.st0{fill-rule:evenodd;clip-rule:evenodd;fill:#175970;}
	.st1{fill-rule:evenodd;clip-rule:evenodd;fill:#F9974B;}
	.st2{fill-rule:evenodd;clip-rule:evenodd;fill:#F67B26;}
	.st3{fill-rule:evenodd;clip-rule:evenodd;fill:#61B1B5;}
</style>
<path id="path0" class="st0" d="M188.9,3c-2.9,1-5.8,3.8-6.7,6.6c-3.4,11,10.1,18.7,17.7,10.1C206.9,11.8,198.8-0.3,188.9,3
	 M157.5,28.8c0.4,0.8,2.5,4.9,4.7,9.1c2.1,4.2,5.2,10.1,6.7,13.1c1.6,3,4.3,8.1,5.9,11.3c1.7,3.2,3.7,7,4.6,8.3
	c0.8,1.3,1.5,2.5,1.5,2.6s-3.4,0-7.6-0.1c-10-0.3-10.3-0.2-10.6,2.2c-0.2,1.6-1,5.8-1.6,8.5c-0.1,0.6,0.7,1.6,3.9,4.5
	c2.3,2,4.1,3.8,4.1,3.9c0,0.1-2.1,2.3-4.8,4.9c-2.6,2.5-7,6.8-9.6,9.5l-4.9,4.9l4.5,0.3c10.4,0.6,78.1,0.4,78.4-0.2
	c0.1-0.4-2.7-3.6-8.5-9.6c-10-10.4-9.8-10-8.5-11c7.7-6,7.9-6.3,6.1-13l-1.2-4.7l-9.1,0.1c-5,0.1-9.1,0-9.1-0.1
	c0-0.2,1.1-2.2,2.5-4.6c2.3-4.1,3.5-6.3,10.3-19.4c2.2-4.3,10.5-20.5,11-21.6c0.1-0.2-15.5-0.3-34.7-0.3h-34.8L157.5,28.8
	 M128.1,55.3c-13.3,3-23,6.8-27.2,10.5c-8,7-8.2,26.2-0.4,41.5c1.4,2.7,5,7.8,4.4,6.2c-2-5.5-1.1-22.5,1.5-29.9
	c3.6-10.2,15.3-22.8,25.9-28.1C136.3,53.5,135.9,53.5,128.1,55.3 M266.6,63.2c0.2,0.2,1.9,1.2,3.7,2.1C281.5,71.2,289,77,294,83.4
	c1.3,1.7,2.6,3.3,3,3.7c0.9,1,0.9,0.9-1.2,1.9c-5.3,2.5-17.4,9.7-17.1,10.3c0.1,0.2,2,4.5,4.3,9.4c22.4,49.4,27.4,79.2,19,113.4
	c-2.8,11.4-7.5,26.2-8.6,26.8c-0.2,0.1-0.5,0.6-0.8,1.1c-1.5,3,11.2-12.2,15.7-18.9c15.6-23.2,16.5-53.3,2.6-88
	c-2.9-7.2-3.1-7.7-2.9-7.7c0.1,0,0.4,0.5,0.8,1.1l0.6,1.1l-0.1-1.8c-0.1-1.2,0.1-1.7,0.4-1.7c0.3,0.1,0.4-0.1,0.4-0.2
	c-0.1-0.2,0.4-0.8,1-1.3c0.6-0.5,1.3-1.6,1.6-2.3c0.4-0.8,0.6-1,0.6-0.6c0,1,0.8,0.4,0.8-0.7c0-0.5,0.2-1.1,0.5-1.2
	c0.3-0.2,0.3-0.1,0.2,0.2c-0.2,0.2-0.2,0.5-0.1,0.5c0.5,0,3.4-1.6,3.4-1.9c-0.1-0.9,0.1-1.2,0.7-1c0.5,0.2,0.6,0.1,0.4-0.5
	c-0.2-0.4-0.2-0.6,0-0.5c0.3,0.3,1.3-0.6,1.3-1.2c0-0.3,0.2-0.3,0.8,0c0.9,0.5,1.3,0.5,1,0c-0.1-0.2,0.1-0.5,0.6-0.6
	c0.4-0.1,0.8-0.4,0.8-0.6c0-0.2,0.3-0.4,0.8-0.4c0.4,0,0.9-0.4,1-0.8c0.1-0.4,0.4-0.8,0.7-0.8c0.3,0,0.2-0.2-0.1-0.6
	c-0.4-0.5-0.4-0.6,0.1-0.6c0.3,0,0.7-0.1,0.7-0.3c0.2-1.3,0.2-2.1-0.1-2.1c-0.2,0-0.3-0.6-0.3-1.3c0-1,0.2-1.3,0.6-1.1
	c0.4,0.1,0.5,0.1,0.3-0.2c-1.2-1.9,1.2,0.2,3,2.7c1.2,1.6,0.2-0.1-1.4-2.6c-11.2-16.7-23.9-28.8-43.5-41.5
	C279.7,69.2,264.8,61.5,266.6,63.2 M339.8,133.3c0,0.1,0.7,2,1.6,4.2c8.3,20.7,8.3,53.8,0,81.3c-5.7,18.8-15.2,35.9-28,50.4
	c-5.6,6.3-16.7,17.2-20.6,20.2c-7.4,5.7-25.4,21.6-25.1,22.1c0.1,0.2,0.1,0.3-0.1,0.2s-0.9,0.3-1.5,1c-1.1,1.2-1.1,1.2-0.1,0.3
	c1.2-1,1.5-0.7,0.4,0.5c-0.5,0.6-0.6,0.8-0.2,1c0.3,0.2,0.4,0.6,0.4,1.1c-0.1,0.6,0.1,0.7,1,0.7c1,0,1.1,0.1,0.9,1.2
	c-0.1,0.7,0.1,1.8,0.3,2.4c0.3,0.7,0.4,1.3,0.3,1.5s0,0.2,0.2,0.2s0.5,0.4,0.5,1c0,0.5,0.2,1.1,0.5,1.3s0.8,1,1.2,1.8
	c0.4,0.8,0.9,1.5,1.1,1.5c0.2,0,0.3,0.2,0.2,0.4s0.1,0.7,0.6,1.1c0.5,0.4,0.7,1,0.6,1.2c-0.2,0.3,0,0.3,0.4,0.2
	c0.5-0.2,0.6,0,0.5,1.2c-0.1,0.8,0,1.3,0.2,1.2c0.2-0.1,0.3,0.1,0.3,0.4c0,0.3,0.4,0.7,0.8,0.8c0.4,0.1,0.7,0.4,0.6,0.6
	c-0.1,0.2,0,0.8,0.2,1.4c0.2,0.6,0.5,1.9,0.6,2.9c0.4,4.8,1,4.8,1.5-0.1c0.2-2.1,1.3-4.6,1.4-3.2c0,0.2,0.3,0,0.6-0.4
	c0.7-0.9,0.6-0.9,0.7,1.1c0.1,1.5,0.1,1.6,1.3,1.5c1.2-0.1,1.8,0.7,0.9,1.2c-0.2,0.1-0.1,0.1,0.2,0c0.3-0.1,0.6,0.1,0.7,0.3
	c0.1,0.2,0,0.4-0.2,0.4c-0.2,0-0.3,0.2-0.2,0.4c0.1,0.2,0.5,0.3,0.8,0.2c0.4-0.2,0.5,0,0.4,0.4c-0.1,0.3-0.1,0.5,0.1,0.5
	c0.6-0.2,2.5,1.4,2.3,1.9c-0.1,0.3,0.2,0.7,0.7,1c0.5,0.2,1,0.7,1.2,1c0.2,0.3,0.5,0.4,0.7,0.3c0.3-0.2,0.3-0.1,0.1,0.2
	c-0.2,0.3-0.5,0.3-0.7,0.2c-0.2-0.2-0.2,0.1,0,0.6c0.2,0.5,0.6,0.8,0.9,0.7c0.3-0.1,0.5,0.1,0.5,0.4c0,0.3,0.1,0.6,0.2,0.8
	c0.1,0.2,0.1,0.7,0,1.3c0,0.8,0,0.9,0.4,0.4c0.4-0.5,0.4-0.4,0.2,0.3c-0.1,0.5,0,0.9,0.2,0.9c0.2,0,0.2,0.2-0.1,0.6
	c-0.4,0.5-0.3,0.6,0.4,0.6c0.9,0,3.2,2.3,2.3,2.3c-0.2,0-0.3,0.2-0.2,0.4c0.1,0.2,0.5,0.3,1,0.2c0.4-0.1,0.9,0,1,0.3
	c0.2,0.3,0.1,0.4-0.1,0.3c-0.2-0.1-0.4,0.2-0.4,0.8c0,0.6,0.2,1.1,0.5,1.2c0.3,0.1,0.4-0.2,0.3-0.7c-0.2-0.8-0.1-0.8,0.5,0.2
	c0.4,0.6,0.8,1.1,1,1.1s0.3,0.2,0.3,0.4c0,0.3-0.2,0.3-0.6-0.1c-0.3-0.3-0.7-0.4-0.9-0.2c-0.2,0.2-0.1,0.4,0.2,0.5
	c0.3,0.1,0.4,0.4,0.2,0.8c-0.2,0.5-0.1,0.6,0.4,0.4c0.6-0.2,0.6-0.1,0.3,0.5c-0.5,0.9-0.6,2-0.1,1.3c0.2-0.3,0.6-0.2,1.5,0.5
	c1,0.8,1.1,1,0.7,1.7c-0.7,1.1-0.6,1.9,0.1,1c0.3-0.4,0.6-0.6,0.6-0.5c0,0.2,0.1,0.4,0.1,0.6c0.1,0.6,1.3,2,1.5,1.8
	c0.1-0.1,0.2,0.3,0.1,1c0,0.7,0.1,1.2,0.3,1.2c0.2,0,0.2,0.4,0.1,0.8c-0.2,0.7-0.1,0.8,0.4,0.6c0.3-0.1,0.7-0.1,0.7,0.1
	c0,0.2,0.1,0.6,0.1,0.8c0,0.2,0.3,0.6,0.6,0.7c0.3,0.2,0.4,0.6,0.3,1c-0.2,0.4-0.1,0.6,0.3,0.5c0.3-0.1,0.6,0,0.5,0.2
	c0,0.2,0.2,0.5,0.5,0.7c0.4,0.2,0.3,0.3-0.4,0.3c-0.9,0-1.2,0.6-0.4,1c0.3,0.2,0.3,0.1,0.2-0.2c-0.3-0.5,0.1-0.6,0.9-0.1
	c0.3,0.2,0.4,0.6,0.3,0.9c-0.3,0.8,0.9,1.3,1.6,0.7c0.4-0.4,0.5-0.2,0.1,0.9c-0.5,1.6-0.5,1.6,0.1,1.3c0.3-0.2,0.4-0.1,0.2,0.4
	c-0.2,0.6-0.2,0.6,0.3,0.2c0.5-0.4,0.6-0.4,0.5,0c-0.1,0.3,0.1,0.5,0.4,0.5c0.3-0.1,0.5,0.2,0.5,0.5c0,0.4,0.2,0.5,0.6,0.4
	c0.4-0.2,0.5,0,0.3,0.4c-0.1,0.3,0,0.8,0.3,0.9c0.4,0.3,0.4,0.5,0.1,1.4c-0.3,0.6-0.3,0.9-0.1,0.8c0.2-0.1,0.4,0,0.4,0.4
	c0,0.3,0.1,0.5,0.3,0.4c0.2-0.1,0.3,0.2,0.1,0.8c-0.1,0.7,0,1,0.4,1c0.4,0,0.6,0.3,0.6,0.8c0,0.4-0.2,0.8-0.4,0.8
	c-0.2,0-0.3,0.2-0.2,0.4c0.1,0.2,0.4,0.3,0.6,0.2c0.6-0.4,1.4,1,1.3,2.1c-0.1,0.5,0.1,1,0.4,1.1c0.3,0.1,0.5,0.4,0.5,0.7
	c0,0.3,0.3,0.4,0.7,0.3c0.6-0.2,0.6-0.1-0.1,0.4c-0.4,0.3-0.6,0.6-0.5,0.7c0.1,0,0.4,0.1,0.6,0.1c1,0.2,1.3,0.7,0.8,1.3
	c-0.4,0.5-0.4,0.6,0,0.3c0.3-0.2,0.5,0,0.5,0.4c0,0.5,0.1,0.6,0.3,0.2c0.3-0.4,0.4-0.3,0.5,0.3c0.1,0.4,0,0.9-0.2,1
	c-0.2,0.1,0,0.6,0.5,1.1l0.9,0.8l28.6,0.1c15.7,0.1,28.6,0,28.6-0.1c0-0.5-2.9-5.9-8.6-15.8c-14.1-24.6-17.2-30.7-20.7-39.5
	c-11.3-28.3-11.9-48.5-2.1-74.6c3.5-9.4,5.1-14,6.6-19.2c11.1-38,8.1-73.1-9.4-110.1C341.9,136.6,339.9,132.8,339.8,133.3
	 M256.9,135.3c-0.1,0.5-0.4,1-0.6,1s-0.3,0.3-0.1,0.6c0.2,0.4,0.1,0.6-0.2,0.4c-0.3-0.2-1.2,0.4-2.3,1.5c-1,1-2,1.8-2.3,1.8
	c-0.3,0-0.7,0.3-1,0.6c-0.3,0.3-0.8,0.7-1.2,0.9c-0.4,0.1-1.6,1-2.7,2c-1.1,1-2.9,2.4-3.8,3.3c-1,0.8-3,2.7-4.6,4.1
	c-2.4,2.2-4.5,4-6.2,5.5c-0.2,0.2-0.8,0.8-1.4,1.5c-0.6,0.6-1.7,1.7-2.6,2.5c-3.3,2.8-6.1,5.3-8.9,8c-1.5,1.5-3.7,3.5-4.9,4.5
	c-1.1,1-2.5,2.2-3.1,2.7c-0.6,0.5-1.8,1.5-2.6,2.1c-0.8,0.6-2.3,2-3.3,3c-1,1-1.9,1.9-2,1.9c-0.1,0-1.6,1.3-3.3,2.9
	c-1.7,1.6-3.3,2.9-3.5,2.9c-0.2,0-1.5,1-2.8,2.2c-1.3,1.2-2.9,2.6-3.6,3.2c-0.7,0.5-1.3,1.2-1.3,1.5c0,0.3-0.4,0.6-0.9,0.6
	s-0.7,0.1-0.4,0.2c1.2,0.5,15.7-4.1,23-7.3c18.6-8.2,35.4-24,42.1-39.4c2.8-6.5,5.5-14.9,4.9-15.5
	C257.2,134.4,257,134.8,256.9,135.3 M35.1,141.5c-6.7,13.4-11.3,28.6-13.7,45.5c-5.1,35.9,14.1,62.9,44.8,62.9l7.9,0l0.4,1.9
	c0.2,1.1,0.7,2.5,1.1,3.2c1.5,3.2-6.6,20.6-19.7,42.5c-2.7,4.5-5,8.3-5,8.4c-0.1,0.1,0.6,0.4,1.4,0.6c0.8,0.2,4.5,1.6,8.1,3
	c3.7,1.4,8,3,9.8,3.6c4.1,1.4,7.6,3.2,7.6,3.8c0,0.3-1.2,2.7-2.7,5.4c-2.3,4.2-2.6,5-2.2,5.7c0.4,0.7,8.2,6.2,9.3,6.5
	c0.3,0.1,0.2,0.6-0.5,1.7c-0.6,0.8-1.5,2.3-2.1,3.2l-1,1.7l1.1,1.2c0.6,0.6,2.2,1.9,3.5,2.8l2.4,1.6l-0.2,2.2
	c-0.1,1.2-0.4,4.5-0.7,7.3c-0.3,2.8-0.6,6.2-0.8,7.6c-0.2,2.5-1.8,14.2-2.5,18.3c-0.4,2.4-0.9,2.3,5.3,1.3
	c16.7-2.8,32.8-9.4,60.1-24.2c11.5-6.2,15.7-4.9,16.1,5.1c0.4,8.3-1.2,23.1-3.3,31.7l-1.1,4.3l3.3-0.1l3.3-0.1l1.2-4.7
	c6.7-26,18-49.3,34.7-71.9c12.7-17.1,17.6-26.5,20.1-38.7c5.6-27.4-4.5-45.5-31.4-55.8c-13.9-5.4-14.8-5.8-19.1-8.3
	c-4.8-2.9-8.4-6.1-11.1-10l-1.6-2.3l-5.7,0.1c-41.3,0.9-82.8-19.8-98.8-49.3c-1.5-2.9-1.6-2.6-0.1,4.3c4.3,20.7,17.8,38.4,36.7,47.8
	c6.8,3.4,14,5.5,27.2,8c20.2,3.9,28.9,10.2,33.8,24.5c3.4,9.9,3.4,17.1,0,25.2l-0.8,1.9l1.5-1.6c3.3-3.5,8.4-9.3,13.6-15.2
	c10.3-11.7,15-14.5,20.5-12.2c13.2,5.5,12.6,34.4-1.3,60.8c-11,21.1-29,37.9-56.1,52.6c-15.7,8.5-27.1,13.4-32.9,14l-2.2,0.3
	l-0.3-2.3c-0.1-1.3-0.1-5.3,0.1-8.9c0.2-3.7,0.5-9.2,0.6-12.3c0.2-4.5,0.4-5.8,0.9-6.2c0.4-0.3,3.7-3.3,7.5-6.5
	c3.8-3.2,6.8-5.9,6.8-6c-0.1-0.1-3.5-0.8-7.7-1.6c-13.6-2.8-19-4.3-18.8-5.5c0.3-1.3,3.4-8.2,5-11.2c1-1.8,1.7-3.3,1.6-3.4
	c-0.2-0.2-10.4-1.4-15.9-1.8l-5.2-0.5l0.2-1.1c0.3-1.5,13-30.9,15.6-35.9l1.3-2.5l7.7-4.4c7.8-4.5,15.3-9.3,16.2-10.4
	c0.6-0.8,0.3-0.9-5.7-1.4c-30.7-2.9-54.6-21.3-64.4-49.8c-5.3-15.5-6.2-40-2.1-56.6C37.8,136.6,37.5,136.7,35.1,141.5 M275.1,223.4
	c-0.9,0.5-1.3,0.6-1.4,0.3c-0.1-0.3-0.2-0.1-0.2,0.3s-0.1,0.6-0.3,0.5c-0.1-0.1-0.5-0.1-0.8,0.2c-0.4,0.4-0.5,0.3-0.3-0.3
	c0.2-0.6,0.2-0.6-0.2-0.2c-0.2,0.3-0.4,0.9-0.4,1.3c0,0.7-0.8,0.7-2.7,0.3c-0.3-0.1-0.6,0.1-0.6,0.3c-0.1,1-0.2,1.1-0.5,0.6
	c-0.2-0.3-0.5-0.1-1,0.6c-0.4,0.6-1.1,1.1-1.6,1.2c-2.1,0.2-2.4,0.2-2.2,0.5c0.2,0.3-0.9,0.5-2.5,0.3c-0.6,0-0.8,0.1-0.7,0.3
	c0.1,0.2,0.1,0.4-0.2,0.4c-0.2,0-1,0.4-1.6,0.8c-0.9,0.6-1.1,0.7-0.9,0.2c0.1-0.3,0-0.6-0.2-0.6c-0.2,0-0.5,0.3-0.7,0.6
	c-0.1,0.3-0.5,0.6-0.9,0.6c-0.4,0-1,0.4-1.3,0.8c-0.3,0.4-0.7,0.8-0.9,0.7c-1.1-0.2-2.2,0.1-3.2,1c-0.6,0.5-1.2,0.9-1.3,0.8
	c-0.1-0.1-0.7,0-1.4,0.2c-0.8,0.2-1.2,0.2-1.2,0c0-0.2-0.2-0.3-0.5-0.2c-0.3,0.1-0.9-0.1-1.4-0.4c-0.6-0.4-0.8-0.4-0.8-0.1
	c0,0.2-0.3,0.4-0.6,0.2c-0.7-0.3-0.8-0.6,0.6,3.2c4,10.8,6.1,27.1,4.7,36.5c-0.9,6.5-4,16.4-5.9,19.1c-1.6,2.2-0.5,1.7,4.5-2.4
	c1.5-1.2,8.6-6.9,15.8-12.7c7.2-5.7,14.6-11.8,16.5-13.4l3.4-3l-0.2-7c-0.5-14.7-2.7-30.1-4.2-29.8c-0.3,0.1-0.5-0.3-0.6-0.9
	C276.8,222.7,276.5,222.6,275.1,223.4 M302,367.2c-0.4,0.2-0.4,0.4-0.1,0.6c0.5,0.3,0.9,0,0.7-0.5C302.6,367,302.3,367,302,367.2"/>
<path id="path1" class="st1" d="M219.5,53.5c0,0.1,3.6,2.4,8,5.1c11.6,7.1,17.1,11.6,24.1,19.9c0.8,1,1.1,1.2,0.7,0.6
	c-3.6-5.5-17.9-18.2-20.5-18.2c-0.2,0-0.2-0.2-0.1-0.4c0.1-0.2,0.1-0.6-0.2-0.9c-0.3-0.4-0.3-0.6,0-0.8c0.2-0.2,0.6,0,0.8,0.3
	c0.2,0.4,0.3,0.2,0.3-0.7c0-0.7-0.2-1.3-0.5-1.4c-1.2-0.5,0.7-0.9,4.3-0.8c4.4,0.1,12.5,1.4,13.4,2.3c0.4,0.3,0.9,0.6,1.3,0.6
	c0.4,0,1,0.4,1.3,0.8c0.4,0.4,1.1,0.8,1.7,0.8c0.6,0,1.6,0.3,2.4,0.7c0.8,0.4,1.8,0.7,2.2,0.6s0.9,0,1,0.3c0.1,0.2,0.5,0.4,0.8,0.4
	c0.3,0,0.5-0.2,0.4-0.4c-0.1-0.2,0.1-0.5,0.4-0.7c1.1-0.6-11.5-4.5-20.6-6.3C234.4,53.8,219.5,52.7,219.5,53.5 M260.1,60.7
	c1.2,0.4,1.3,0.5,0.5,0.7c-0.5,0.1-0.9,0-0.9-0.2c0-0.2-0.3-0.3-0.6-0.2c-0.4,0.1-0.5,0.1-0.3-0.2c0.2-0.3,0-0.3-0.6-0.1
	c-0.6,0.2-0.8,0.1-0.6-0.2C257.9,60.1,258.4,60.1,260.1,60.7 M262.1,62.7c0,0.3,0.3,0.6,0.6,0.6c0.3,0,1.5,0.6,2.6,1.3
	c1.1,0.7,3,1.8,4.2,2.4c3.6,1.8,4.7,2.5,5.3,3.3c0.3,0.4,0.7,0.7,0.9,0.6c0.2-0.1,0.6,0.2,0.8,0.8c0.4,1,1.3,1.3,1.6,0.7
	c0.1-0.2,0.5-0.2,1,0c0.9,0.3,0.9,1.8,0,2.4c-0.5,0.3,0,1.2,0.5,0.9c0.6-0.3,0.4,0.2-0.2,0.8c-0.7,0.7-1.2,0.7-0.6,0
	c0.3-0.3,0.3-0.6,0.1-0.6c-0.6,0-0.9,1-0.6,2.3c0.2,1.1-1,2.3-1.3,1.3c-0.1-0.2-0.4-0.3-0.7-0.2c-0.4,0.2-0.5,0.4-0.2,0.7
	c0.8,0.9-2.2,1.5-3.3,0.6c-0.6-0.5-0.6-0.4-0.6,0.3c0,0.5-0.2,0.8-0.4,0.8c-0.2,0-0.3,0.2-0.2,0.4c0.1,0.2,0.1,0.5-0.1,0.6
	c-0.2,0.1-0.5,0-0.6-0.2c-0.2-0.3-0.5-0.3-1.1,0c-0.8,0.4-0.8,0.4-0.2-0.1c0.4-0.3,0.7-0.9,0.7-1.3c0-0.6-0.1-0.6-0.8,0.3
	c-0.9,1.2-1.7,1.1-1.3-0.1c0.2-0.5,0.1-0.7-0.3-0.5c-0.3,0.1-0.5,0.5-0.4,0.9c0.4,1.4-0.7,2-1.8,1c-0.8-0.7-0.9-0.8-0.7-0.1
	c0.2,0.6,0.1,0.7-0.4,0.5c-0.3-0.1-0.8-0.2-1-0.2c-0.2,0-0.4-0.2-0.4-0.4c0-0.2,0.3-0.4,0.6-0.4s0.6-0.3,0.6-0.7
	c0-0.4-0.1-0.5-0.3-0.3c-0.5,0.8-1.9,1.3-2.5,0.9c-0.8-0.5-1.2-0.5-1.2,0.2c0,0.3-0.2,0.6-0.4,0.6c-0.2,0-0.3,0.3-0.2,0.6
	c0.1,0.4,0,0.6-0.3,0.6c-0.3,0-0.6-0.2-0.6-0.5c0-0.3-0.3-0.1-0.6,0.3c-0.6,0.7-0.6,0.7-0.4-0.1c0.1-0.5,0.1-0.9-0.2-0.9
	c-0.2,0-0.4,0.2-0.4,0.4c0,0.2-0.3,0.4-0.6,0.4s-0.6,0.2-0.6,0.5c0,0.3-0.4-0.1-0.8-0.8c-0.9-1.4-1-1.8-0.4-1.5
	c0.2,0.1,0.4,0,0.4-0.2c0-0.2-0.2-0.4-0.5-0.3c-0.3,0.1-0.8-0.1-1.2-0.5c-0.4-0.3-0.1,0.4,0.8,1.6c1,1.5,1.6,2.1,1.9,1.9
	c0.6-0.6,1-0.5,0.9,0.3c0,0.4,0.1,1,0.3,1.5c0.2,0.6,0.1,0.6-0.5-0.2c-0.4-0.5,0.3,1.2,1.7,3.9c6.1,11.9,8.3,21.8,7.8,35.1
	c-0.3,7.4-0.3,7.6-0.1,10.2c0.3,4.6-9.1,22.9-17.9,34.5l-3.9,5.1l1.7,1.4c16.8,13.8,25.6,26.9,31.4,46.8c0.7,2.4,1.4,4.3,1.6,4.1
	c0.2-0.2,0.2,0.2,0,0.8c-0.2,0.8-0.2,1.1,0.2,0.8c0.4-0.2,0.4,0.1,0.2,1.2c-0.2,1.2-0.1,1.3,0.2,0.7c0.3-0.6,0.3-0.3,0.2,1.2
	c-0.2,1.5-0.1,1.8,0.2,1.4c0.3-0.5,0.4-0.2,0.2,1.2c-0.1,1.1-0.1,1.5,0.1,1c0.4-1,0.8,0.7,1.1,5.1c0.1,1.7,0.4,3.6,0.6,4.1
	c0.3,0.8,0.7,3.9,0.7,6.2c0,0.3,0.2,0.4,0.3,0.3c0.2-0.1,0.3,0.1,0.3,0.5c0,0.4-0.1,0.6-0.3,0.5c-0.2-0.1-0.3,0.3-0.3,1
	s0.2,1.2,0.4,1.2c0.2,0,0.3-0.3,0.2-0.6c-0.2-0.4,0-0.5,0.3-0.4c0.4,0.1,0.6-0.2,0.6-1.1c0.1-0.7,0.4-1.5,0.7-1.7
	c0.3-0.2,0.6-0.8,0.6-1.2c0-0.4,0.2-1,0.5-1.2c0.5-0.5,0.7-2,0.7-4.5c0-0.8,0.2-1.2,0.8-1.3c0.4-0.1,0.8-0.3,0.8-0.5
	c0-0.2,0.4-0.4,0.8-0.5s0.8-0.5,0.8-0.8c0-0.5,0.1-0.5,0.8-0.1c0.5,0.3,0.6,0.6,0.3,0.8c-0.3,0.2-0.3,0.5,0.3,1
	c0.4,0.4,0.6,0.5,0.5,0.2c-0.1-0.3-0.1-0.6,0.2-0.7c0.3-0.2,0.4,0.1,0.3,0.7c-0.4,2.9,1.8,2.5,3-0.5c0.4-1,0.8-1.8,1-1.7
	c0.1,0.1,0.3-0.4,0.3-1.1c0-0.7,0.7-3.4,1.5-6.1c2.7-9,2.9-9.9,4-15.5c0.6-3,1.2-5.5,1.4-5.4c0.2,0.1,0.2-0.2,0.1-0.6
	c-0.1-0.5,0-0.9,0.2-1.1c0.8-0.5,1.8-10.6,1.8-18.4c-0.1-17.7-3.9-36.1-11.9-57.2c-1.4-3.6-0.5-0.3,1.4,5.3c2.7,8.1,3,14.3,0.6,14.4
	c-0.2,0-0.1-0.2,0.1-0.5c0.3-0.3,0.3-0.6,0.1-0.8c-0.2-0.1-0.5,0-0.5,0.3c-0.1,0.4-0.3,0.4-0.8-0.1c-0.4-0.3-0.6-0.4-0.6-0.2
	c0.2,0.9-0.1,1.4-0.6,1.2c-0.4-0.1-0.6,0.1-0.8,0.9c-0.1,0.6-0.4,1.2-0.6,1.4c-0.2,0.1-0.4,0.6-0.4,1c0,0.5-0.2,0.7-0.7,0.5
	c-0.5-0.2-0.6-0.1-0.4,0.4c0.1,0.3,0.1,0.7-0.1,0.8c-0.2,0.1-0.4,0.5-0.5,1c0,0.5-0.4,1-0.9,1.2c-0.4,0.2-1.2,0.9-1.7,1.5
	c-0.9,1.2-1.7,1.3-1.5,0.3c0.1-0.3,0-0.3,0-0.2c-0.1,0.2-0.5,0.3-1,0.3c-1.1,0-2.4,1-2,1.5c0.2,0.3,0,0.3-0.7,0c-0.7-0.3-1-0.2-1,0
	c0,0.2-0.2,0.3-0.4,0.2s-0.4,0-0.4,0.2c0,0.3-0.3,0.2-0.8-0.2c-0.8-0.7-2.8,0.6-2.8,1.9c0,0.2-0.2,0.2-0.5-0.1
	c-0.4-0.4-0.4-0.6,0.2-0.9c0.8-0.5,0.9-1.1,0.1-1.1c-0.3,0-0.5,0.2-0.4,0.4c0.1,0.2-0.1,0.4-0.4,0.4c-0.5,0-0.6,0.2-0.4,0.8
	c0.2,0.8-0.1,0.9-1.5,0.9c-0.3,0-0.4,0.2-0.3,0.5c0.1,0.3-0.1,0.5-0.7,0.4c-0.5-0.1-1.1,0.1-1.4,0.4c-0.3,0.3-0.4,0.5-0.2,0.5
	s0,0.3-0.2,0.6c-0.3,0.3-0.3,0.8-0.2,1c0.2,0.3,0,0.4-0.6,0.2c-1.1-0.3-2.2,0.6-1.5,1.4c0.4,0.4,0.4,0.4,0,0.2
	c-0.3-0.1-0.6-0.1-0.7,0.2c-0.1,0.2-0.6,0.3-1,0.2s-0.7-0.1-0.7,0.1c0.1,0.8-0.1,1.1-0.4,0.6c-0.3-0.4-0.4-0.4-0.8,0.3
	c-0.4,0.8-0.5,0.8-1.2,0.2c-0.7-0.6-0.8-0.6-0.8,0c0,0.7-0.6,0.9-1,0.3c-0.1-0.2-1-0.3-2-0.3c-1,0.1-1.8,0-1.8-0.2
	c0-0.2-0.5-0.5-1.2-0.7c-0.7-0.2-1.1-0.3-1,0c0.1,0.2,0.1,0.4-0.1,0.4c-0.2,0-0.7,0.1-1.1,0.3c-0.6,0.2-0.6,0.2-0.3-0.3
	c0.2-0.3,0.4-1.2,0.4-2c0-1.3,0.1-1.5,0.9-1.5c0.7,0,0.8-0.1,0.3-0.2c-0.4-0.1-0.7-0.4-0.7-0.7c0-0.3-0.2-0.6-0.5-0.7
	c-0.3-0.1-0.3-0.4,0-0.9c0.3-0.6,0.2-0.9-0.4-1.4c-0.8-0.6-1.3-2.5-0.6-2.1c0.2,0.1,0.3-0.2,0.3-0.6c0-1,2.3-4.8,2.7-4.5
	c0.2,0.1,0.3-0.1,0.3-0.5c0-0.4,0.9-2.3,2-4.3c1.1-2,2.1-4,2.2-4.4c0.1-0.4,0.4-0.7,0.7-0.5c0.2,0.1,0.3,0.1,0.2-0.2
	c-0.4-0.6,0.1-1.7,0.6-1.4c0.2,0.1,0.3,0.1,0.2-0.2c-0.1-0.2,0.7-2.4,1.9-4.9c1.2-2.5,2.1-4.6,2.1-4.7s0.9-2.1,2-4.4
	c1.1-2.3,2-4.2,2-4.3c0-0.1,1.4-3.2,3.1-6.8c1.7-3.7,3.9-8.6,4.9-10.9c2.1-5.1,2-5,3.8-1.4c1.8,3.4,1.5,2.1-0.4-2
	c-0.7-1.6-1.9-4.2-2.7-5.8c-1.6-3.4-1.6-3.4-0.5-3.8c0.4-0.1,2.2-1.1,3.8-2.1c5.6-3.5,7.7-4.7,10.6-6.1c1.6-0.8,3-1.6,3.2-1.8
	c0.6-1-4.3-6.5-12.2-13.7c-3.6-3.2-17-10.9-18.6-10.7c-0.4,0-0.7-0.1-0.7-0.3c-0.1-0.6-1.1-1-1.8-0.8c-0.4,0.1-0.7,0-0.7-0.2
	c0-0.2-0.2-0.4-0.4-0.4S262.1,62.4,262.1,62.7 M94.3,69.2c-2.3,1.5-5.6,4.2-7.3,5.9s-3.2,2.9-3.3,2.7C83.2,76.5,71.1,88,65.3,95.2
	c-8.5,10.5-19.6,27-19.6,29.1c0,3.6,4.6,17.4,8.2,24.8c4.6,9.4,7.6,13.9,13.1,19.7c3.9,4.1,14.3,12.5,12,9.7
	c-0.8-0.9-0.2-0.8,1.1,0.2c0.8,0.6,0.9,0.8,0.3,0.6c-1-0.3,0.6,1.1,2.3,2l1.2,0.6l-0.8-0.9l-0.8-0.9l1.1,0.4c1.5,0.6,1.4,0.6,1-0.8
	c-0.2-0.6-0.6-1.2-0.8-1.2c-0.2,0-0.4-0.2-0.4-0.4c0-0.2,0.1-0.3,0.3-0.2c0.2,0.1,0.5-0.1,0.8-0.4c0.4-0.4,0.4-0.5-0.1-0.5
	c-0.8,0-1.1-1.6-0.4-1.8c0.3-0.1,0.6-0.5,0.6-0.8s0.4-0.9,0.8-1.4c0.5-0.5,0.7-0.6,0.5-0.3c-0.2,0.3-0.2,0.5,0,0.3
	c0.5-0.4,0.5-1.9,0.1-1.6c-0.2,0.1-0.3,0-0.2-0.4c0.1-0.3,0.1-1.3-0.1-2.1c-0.3-1.2-0.2-1.6,0.2-1.9c0.8-0.6,0.7-0.9-0.2-0.7
	c-0.9,0.2-1.2-1.9-0.4-2.4c0.2-0.1,0.3-0.4,0.2-0.6c-0.4-0.7-0.5-4.2-0.1-4.2c0.2,0,0.2-0.3-0.1-0.6c-0.3-0.3-0.3-0.6-0.1-0.6
	c0.2,0,0.4-0.4,0.3-0.9c-0.1-0.7,0.1-1,0.8-1.2c0.5-0.1,0.9-0.6,1.1-1.2c0.1-0.5,0-0.9-0.1-0.8c-0.5,0.3-0.4-0.3,0.3-1.4
	c0.3-0.5,0.6-0.8,0.6-0.5c0,0.3,0.4,0.5,0.9,0.5c0.5,0,1.5,0.6,2.4,1.6c24.6,25.4,77.5,32.4,104.9,13.8
	c12.3-8.4,25.1-23.4,29.2-34.4c0.5-1.2,1.1-2.7,1.4-3.4c0.7-1.3-0.2-1.1-1.4,0.2c-0.6,0.8-7.8,5.2-10.8,6.8
	c-15.5,7.8-46,10.9-66.8,6.7c-14.2-2.9-29-11.7-37.5-22.3c-3-3.8-3.8-4.5-2.1-2.1c0.7,1.1,3.5,4.1,6.2,6.8c2.7,2.7,4.8,5,4.8,5.2
	c-0.1,0.2,0,0.2,0.2,0.1c0.6-0.4,1.2,0.3,0.8,0.9c-0.3,0.4-0.4,0.5-0.6,0.1c-0.6-1.6-2.3,0-1.9,1.8c0.1,0.6,0.1,0.9-0.1,0.7
	c-0.5-0.6-1.6-0.6-1.8,0c-0.1,0.3,0,0.4,0.4,0.3c0.4-0.1,0.5-0.1,0.4,0.2c-0.1,0.2,0,0.4,0.4,0.4c0.4,0,0.7,0.2,0.8,0.4
	c0.1,0.3-0.1,0.5-0.4,0.5c-0.5,0-0.6,0.3-0.4,1.4c0.1,0.9,0,1.4-0.3,1.4c-0.3,0-0.3,0.2,0,0.6c0.3,0.3,0.4,0.7,0.2,0.9
	c-0.1,0.2-0.1,0.5,0.2,0.6c0.6,0.4,0.5,0.8-0.3,1.6c-0.5,0.5-0.6,0.7-0.1,1c0.3,0.2,0.4,0.4,0.1,0.4c-0.2,0-0.6-0.2-0.9-0.5
	c-0.3-0.3-0.5-0.3-0.4-0.1c0.1,0.5-0.4,2.9-0.7,2.9c-0.1,0-0.5-0.3-0.8-0.6c-0.6-0.6-0.7-0.6-1.2,0.1c-0.3,0.4-0.7,0.7-0.9,0.6
	c-0.2-0.1-0.4,0.3-0.6,0.7c-0.2,0.6-0.5,0.7-1.3,0.5c-0.9-0.2-1.2,0-1.6,0.8c-0.3,0.6-0.9,1-1.4,1c-0.6,0-0.7,0.1-0.3,0.3
	c0.4,0.3,0.3,0.4-0.3,0.5c-0.5,0.1-0.7,0.4-0.6,0.8c0.1,0.3,0,0.6-0.2,0.6s-0.4-0.2-0.4-0.4c0-0.2-0.3-0.2-0.8,0.1
	c-0.4,0.3-0.7,0.6-0.6,0.7c0.3,0.4-2.3-0.1-3.1-0.6c-1-0.7-1.5-0.7-1.2,0.1c0.2,0.6-0.7,1.7-1.5,1.7c-0.2,0-0.1-0.2,0.2-0.4
	c0.5-0.3,0.5-0.4-0.2-0.4c-0.4,0-1,0.3-1.3,0.7c-0.4,0.6-0.5,0.6-0.5,0.1c0-0.8-3.1-0.8-3.1-0.1c0,0.3,0.3,0.4,0.8,0.3
	c0.5-0.2,0.8-0.1,0.8,0.3c0,4-11-8.2-15.9-17.7C67.5,114.3,75.2,82.1,95.4,69l1-0.7L96.3,70c-0.1,0.9-0.2,2.2-0.4,2.9
	c-0.2,0.6,0.4-0.3,1.3-2s1.8-3.3,2-3.4c0.5-0.3,0.2-1-0.4-1C98.6,66.4,96.6,67.7,94.3,69.2 M281.8,77.1c-0.7,3.5-1,4-2,3.4
	c-0.4-0.3-0.4-0.4,0.1-0.6c0.3-0.1,0.6-0.6,0.6-1c0-0.5-0.2-0.7-0.5-0.6c-0.9,0.3-1.2-0.7-0.4-1.3C280.2,76.6,281.9,76.6,281.8,77.1
	 M82.9,80c-0.4,0.6-1.1,1.7-1.5,2.4c-0.4,0.8-0.8,1.2-0.9,0.9c-0.2-0.6,2.6-5,2.9-4.6C83.6,78.8,83.4,79.4,82.9,80 M107.6,88
	c0.1,0.5,0.5,2.2,0.8,3.8c0.6,3.3,2.9,11.1,2.9,10.2c0-0.3-0.2-1.5-0.5-2.6c-0.7-2.7-0.5-3.6,1.1-3.6c0.7,0,1.6-0.3,2-0.6
	c0.6-0.5,0.8-0.5,1.6,0c0.5,0.3,1,0.5,1.1,0.3c0.1-0.1,0.6,0.1,1.1,0.6c0.5,0.5,1.2,0.8,1.7,0.8c0.4,0,1.1,0.3,1.5,0.6
	c0.4,0.3,1.3,0.8,2,1c0.7,0.2,2.8,0.9,4.7,1.5s5,1.5,6.8,1.8c1.9,0.3,4.2,0.8,5.1,1c1.9,0.4,14.4,0.6,15.6,0.2
	c0.9-0.3,1.6,0.3,0.8,0.8c-0.3,0.2-0.4,0.1-0.1-0.2c0.2-0.3,0.2-0.4-0.1-0.2c-0.3,0.2-0.4,0.4-0.3,0.6c0.2,0.4-0.9,2-3.3,4.4
	c-1,1-1.7,1.9-1.6,2.1c0.2,0.2,5.2-5,6.3-6.6c0.4-0.6,0.8-1,1-0.9c0.2,0.1,0.3-0.2,0.3-0.6c0-0.4,0-0.8-0.1-0.8
	c-0.1,0-1.1,0.3-2.3,0.6c-4.8,1.2-17.4,0.3-24.9-1.8c-9-2.6-16.3-6.4-21.4-11.4C107.7,87.5,107.4,87.2,107.6,88 M111.6,103.5
	c0.1,0.5,0.4,1.2,0.6,1.6c0.3,0.4,0.3,0.3,0.1-0.4c-0.1-0.5-0.4-1.2-0.6-1.6C111.4,102.7,111.4,102.8,111.6,103.5 M114.1,109.9
	c0,0.4,1.6,3.4,1.8,3.4c0.1,0-0.2-0.7-0.6-1.7C114.3,109.8,114.1,109.5,114.1,109.9 M172.5,112.4c0.2,0.2,5,0.5,10.7,0.6
	c10.7,0.3,13.3,0.4,13.7,0.6c0.1,0.1,0.4,0.1,0.7,0.1c0.3,0,0.6,0.3,0.7,0.6c0.1,0.4,0,0.5-0.6,0.3c-0.7-0.2-0.7-0.2,0,0.3
	c1.3,1,2.4,0.6,1.4-0.5c-0.3-0.3-0.3-0.5,0-0.7c0.2-0.1,0.5,0.1,0.6,0.5c0.3,0.8,1.4,1.1,1.4,0.4c0-0.2-0.2-0.4-0.4-0.4
	c-0.2,0-0.4-0.1-0.4-0.3c0-0.5,2.5-0.3,2.7,0.3c0.1,0.4,0,0.5-0.4,0.3c-0.3-0.1-0.7-0.1-0.8,0.1c-0.3,0.4,2.7,0.9,3.7,0.6
	c0.9-0.3,1.5,0.5,0.7,0.8c-0.5,0.2-0.4,0.4,0.5,1.2c0.6,0.5,0.8,0.9,0.6,0.9c-0.3,0-0.7-0.3-1.1-0.6c-0.6-0.6-0.7-0.5-1.1,0.6
	c-0.5,1.4-1.1,1.6-1.1,0.5c0-0.4-0.2-0.9-0.4-1c-0.2-0.1-0.4,0-0.4,0.3s-0.3,0.5-0.7,0.5c-0.4,0-0.7,0.2-0.7,0.5
	c0,0.7-0.8,1.6-1.4,1.6c-0.4,0-0.4,0.1,0.1,0.4c0.5,0.3,0.4,0.4-0.4,0.5c-1.3,0.1-2.5,0.2-2.9,0.3c-0.2,0-0.1,0.3,0.1,0.6
	c0.4,0.4,0.3,0.5-0.5,0.5c-0.5,0-1-0.2-1-0.4c0-0.2-0.2-0.1-0.4,0.2c-0.2,0.3-0.3,0.7-0.2,1c0.1,0.2-0.4,0.7-1,1.1
	c-1.3,0.8-1.5,0.5-0.5-0.6c0.7-0.8,0.7-0.8-0.4-0.1c-0.6,0.4-1,0.9-0.8,1.2c0.1,0.3,0,0.6-0.2,0.6c-0.3,0-0.3,0.2-0.2,0.5
	c0.2,0.4,0.1,0.3-0.3,0c-0.5-0.4-0.7-0.4-1.1,0.2c-0.3,0.5-0.8,0.7-1.5,0.6c-0.9-0.2-0.9-0.1-0.4,0.4c0.6,0.5,0.6,0.6-0.2,1.3
	c-0.7,0.7-0.8,0.7-0.5,0.1c0.1-0.4,0-1-0.3-1.3c-0.7-0.7-1.1-0.7-0.9,0c0.1,0.3,0,0.9-0.3,1.3c-0.3,0.4-0.4,0.9-0.3,1.2
	c0.1,0.3-0.1,0.5-0.4,0.5c-0.8,0-0.8-0.2,0.1-1.5c0.6-1,0.6-1,0-0.8c-0.4,0.2-0.7,0.1-0.7-0.2c0-0.3-0.2-0.3-0.4,0.1
	c-0.3,0.4-0.5,0.5-0.6,0.1c-0.1-0.4-0.4-0.4-0.9,0c-0.5,0.3-0.6,0.6-0.3,1c0.6,0.7,1.1,0.6,0.8-0.2c-0.2-0.6-0.2-0.6,0.4-0.1
	c0.8,0.7,0.6,0.9-0.8,1c-0.7,0.1-1.3-0.2-1.7-0.6c-0.4-0.5-0.8-0.6-1.2-0.4c-0.5,0.3-0.2,0.5,0.5,0.4c0.8-0.1,0.1,0.6-1.1,1.2
	c-0.7,0.3-1.3,0.4-1.3,0.2c0-0.2-0.3-0.5-0.7-0.6c-0.6-0.1-0.7,0-0.5,0.5c0.2,0.6,0.1,0.6-0.9,0.5c-0.8-0.1-1.2,0-1.2,0.4
	c0,0.3-0.2,0.5-0.5,0.5c-1-0.2-1.9,0.5-1.4,1.1c0.7,0.8-0.2,0.6-1.2-0.2c-1.1-1-1.2-1-0.9-0.1c0.2,0.5,0.1,0.6-0.3,0.3
	c-0.4-0.2-0.5-0.1-0.3,0.5c0.3,1.1-0.3,1.1-1.2-0.2c-0.9-1.1-2-0.8-2,0.6c0,0.9-2.9,1.9-4.3,1.5c-0.5-0.1-1.6-0.3-2.4-0.3
	c-0.8,0-1.5-0.2-1.5-0.5c0-0.2-0.2-0.3-0.5-0.1c-0.3,0.2-2.1,0.3-4.2,0.3c-2.4,0-3.7,0.2-3.8,0.4c-0.2,0.6-5.8-0.1-7.3-1
	c-0.2-0.1-0.6-0.3-0.9-0.3c-4.4-0.7-12.7-5.3-18.5-10.2l-3.3-2.9l2.8,2.7c12.5,12,30.9,15.9,61.9,13.1c21.4-2,37.3-10.1,46.2-23.7
	l0.7-1.1h-30.2C184.1,112,172.3,112.1,172.5,112.4 M204.6,114.4c0.1,0.3-0.1,0.4-0.5,0.2c-0.3-0.1-0.6-0.4-0.6-0.6
	C203.5,113.5,204.4,113.8,204.6,114.4 M207.8,114.5c0.2,0.5,0.1,0.5-0.4,0.1c-0.3-0.3-0.7-0.4-0.9-0.2c-0.2,0.2-0.2,0.1,0-0.2
	C206.8,113.5,207.5,113.7,207.8,114.5 M210.7,114.3c0.2,0.5,0.1,0.5-0.3,0.2c-0.3-0.2-0.9-0.3-1.4-0.3c-0.5,0.1-0.9,0-0.9-0.2
	C208.2,113.4,210.4,113.6,210.7,114.3 M209,116.2c-0.2,0.3-0.4,0.8-0.3,1.1c0.1,0.3,0.1,0.4,0,0.3c-0.1-0.1-0.5-0.2-0.9-0.1
	c-0.4,0.1-0.8-0.1-1-0.5c-0.4-0.9,0.4-1.6,1.1-1c0.5,0.4,0.6,0.3,0.9-0.4c0.2-0.5,0.4-0.7,0.5-0.4
	C209.4,115.4,209.3,115.9,209,116.2 M210.5,116c0,0.4,0.2,0.8,0.5,0.8c0.3,0,0.4,0.1,0,0.4c-0.2,0.2-0.6,0.3-0.9,0.2
	c-0.5-0.3-0.6-2.2,0-2.2C210.4,115.2,210.5,115.6,210.5,116 M118.8,118.2c0.7,1,1.5,2,1.9,2.2c0.3,0.3-0.2-0.5-1.1-1.8
	C117.6,116,117,115.6,118.8,118.2 M286,116.6c0,0.2,0.3,0.8,0.6,1.4c0.3,0.5,0.6,0.8,0.6,0.6c0-0.2-0.3-0.8-0.6-1.4
	C286.2,116.7,286,116.4,286,116.6 M198.4,120.2c0.3,0.2,0.4,0.6,0.2,0.9c-0.2,0.3-0.1,0.4,0.2,0.3c0.8-0.3,0.7-1.3-0.2-1.4
	C198,119.9,198,120,198.4,120.2 M268.7,133.1c-1,2.3-1.5,2.8-1.2,1.4c0.2-0.9,1.5-3.3,1.9-3.3C269.4,131.2,269.1,132.1,268.7,133.1
	 M154.7,136c-0.7,0.4-3.1,0.5-3.1,0.1c0-0.2,0.8-0.3,1.8-0.4C154.6,135.6,155,135.7,154.7,136 M158,136c-0.1,0.2-0.6,0.3-1.1,0.3
	c-0.5,0-1-0.1-1.1-0.3c-0.1-0.2,0.4-0.3,1.1-0.3S158.1,135.8,158,136 M36.4,142.2c-0.2,1-0.6,3.3-0.7,5.3c-0.1,1.9-0.3,4.1-0.4,4.9
	c-1,7.5-1.2,17-0.6,22.1l0.3,2.3l0.1-3.5c0.1-1.9,0.2-4.7,0.2-6.1c0.1-1.8,0.2-2.5,0.6-2.6c1.3-0.1,1.5-0.2,1.3-0.7
	c-0.1-0.3-0.1-0.6,0.1-0.6c0.8,0,1.4-2.7,0.7-3.6c-0.5-0.7-0.5-1.2-0.2-1.9c0.4-0.9,0.4-0.9,0.4,0.2c0,0.9,0.1,1,0.3,0.4
	c0.2-0.5,0.5,0.3,0.8,2.5c0.3,1.8,0.6,3.1,0.7,3c0.1-0.1-0.1-1.8-0.4-3.8s-1-6.6-1.4-10.3c-0.5-3.7-1-7.3-1.1-8l-0.3-1.4L36.4,142.2
	 M102.3,151.2c0,0.2,0.2,0.4,0.4,0.4c0.2,0,0.3,0.2,0.2,0.4c-0.1,0.2,0,0.4,0.3,0.4c1,0,1-0.6,0-1
	C102.8,151.1,102.3,151,102.3,151.2 M95.8,156.5c0.7,0.6,1.4,1,1.6,1c0.2-0.1,0.3,0.1,0.2,0.2c-0.1,0.2,0.4,0.9,1.2,1.5
	c2.4,1.8,3.7,3.2,1.7,1.8c-2.1-1.5-6.6-5.5-6.1-5.5C94.4,155.5,95.1,156,95.8,156.5 M280.3,163.5c-0.8,0.3-1,0.6-0.6,0.8
	c0.3,0.2,0.6,0.1,0.7-0.1s0.6-0.6,1-0.8C282.5,162.8,281.7,162.8,280.3,163.5 M40.3,165c0,0.8,1.4,5.8,1.5,5.1
	c0-0.2-0.3-1.6-0.7-3.1S40.3,164.6,40.3,165 M253.6,170.8c-0.4,0.4-0.5,0.3-0.5-0.5c0-0.7,0.1-0.8,0.5-0.5
	C254,170.2,254,170.4,253.6,170.8 M41.9,171.1c0,0.3,0.2,0.9,0.3,1.4c0.2,0.5,0.3,0.6,0.3,0.2c0-0.3-0.2-0.9-0.3-1.4
	C42,170.8,41.9,170.7,41.9,171.1 M42.6,173.6c0,0.5,1.3,4.2,1.4,4.1c0.2-0.2-1-4.2-1.2-4.2C42.7,173.4,42.6,173.5,42.6,173.6
	 M35.2,178.1c0,0.8,0.1,1.1,0.2,0.7c0.1-0.4,0.1-1,0-1.4C35.3,177.1,35.2,177.4,35.2,178.1 M44.1,178.2c0,1.2,5.4,12.8,6.7,14.3
	c0.4,0.5-0.3-1-1.5-3.5c-1.3-2.5-2.9-5.9-3.6-7.6C44.5,178.5,44.1,177.7,44.1,178.2 M35.9,184c0,0.7,0.2,1.6,0.4,1.9
	c0.3,0.4,0.3,0.1,0.1-1.2C36.2,182.6,35.9,182.3,35.9,184 M52.1,194.8c0.3,0.7,0.8,1.4,1,1.5c0.5,0.3,0-0.8-1-2
	C51.6,193.6,51.6,193.6,52.1,194.8 M53.7,197.3c1.9,3.6,11.1,13.6,16.2,17.6c1.7,1.3,3.1,2.6,3,2.9c0,0.2,0.1,0.4,0.4,0.3
	c1.2-0.2,2.2,0.7,1.4,1.3c-0.7,0.5-0.6,0.5,0.3,0.4c1.2-0.2,1.7,0.1,2,1.1c0.2,0.5,0.5,0.6,1,0.5c0.5-0.2,0.8,0,1,0.4
	c0.2,0.5,0.1,0.6-0.4,0.4c-0.5-0.2-0.5-0.1-0.2,0.5c0.5,0.8,1,1,1.4,0.4c0.1-0.2,0.4-0.3,0.6-0.2c0.2,0.1,0.3,0.4,0.2,0.5
	c-0.1,0.2,0.2,0.7,0.6,1.1c0.4,0.5,0.8,1.1,0.8,1.4c0,0.3,0.3,0.8,0.6,1c0.5,0.4,0.6,0.4,0.6-0.1c0-0.3,0.5,0,1.2,0.7
	c0.6,0.7,1.2,1.6,1.2,2c0,0.4,0.2,0.9,0.4,1c0.2,0.1,0.4,0,0.4-0.2c0-0.4,0.9-1.6,1.3-1.6c0.1,0,0.1,0.3,0,0.6
	c-0.2,0.5-0.1,0.6,0.2,0.3c0.4-0.2,0.4-0.1,0,0.5c-0.4,0.7-0.3,1.1,0.6,2.2c0.6,0.8,0.8,1.3,0.4,1.1c-0.3-0.1-0.6,0-0.6,0.2
	c0,0.2,0.2,0.4,0.5,0.4c0.7,0,1.1,1,0.6,1.5c-0.3,0.3-0.3,0.5,0,0.7c0.7,0.4,0.5,0.9-1,2c-1.4,1-1.4,1-2.2,0.3l-0.8-0.7l0.8,1.1
	c0.8,1.1,1.2,1.3,1.5,0.7c0.1-0.2,0.4-0.4,0.7-0.4c0.3,0,0.2,0.2-0.1,0.6c-0.3,0.3-0.7,0.6-1,0.6c-0.3,0-0.5,0.2-0.5,0.4
	c0,0.2,0.2,0.3,0.4,0.2c0.2-0.1,0.4-0.1,0.4,0.2c0,0.2-0.3,0.4-0.8,0.4c-0.6,0-0.7-0.2-0.6-1c0.2-0.9,0.1-1-0.4-0.4
	c-0.7,0.7-6.3,0.7-6.3,0c0-0.7-0.3-0.9-1.8-1.1c-0.7-0.1-1.5-0.2-1.7-0.2c-0.2,0-0.2-0.2-0.1-0.4c0.2-0.3-1.2-1-1.9-0.9
	c-0.2,0-0.6-0.1-0.8-0.3c-0.8-0.7-5-2.8-5.1-2.6c-0.5,0.5,6.5,4.3,12.5,6.8c7.5,3.1,12.1,4.3,21.9,5.4c3.2,0.4,6.2,0.8,6.6,1
	c0.4,0.2,3.2,0.9,6.2,1.6s9.6,2.3,14.6,3.5c5.9,1.5,9.3,2.1,9.6,1.9c0.2-0.2,0.5-0.3,0.7-0.2c0.1,0.1,0.3-0.1,0.4-0.4
	c0.1-0.3,0-0.7-0.2-0.8c-0.3-0.2-0.2-0.4,0.1-0.8c0.3-0.3,0.4-0.9,0.3-1.3s0-0.9,0.2-1c0.2-0.1,0.3-0.5,0.2-0.8
	c-0.1-0.3,0-0.6,0.2-0.7c0.2-0.1,0.5-0.9,0.5-1.9c0-1,0.2-2,0.3-2.2c0.2-0.2,0.1-0.6-0.1-0.7c-0.2-0.2-0.2-0.6,0.2-1.1
	c0.5-0.8,0.5-0.9-0.3-1.6c-0.6-0.5-0.7-0.8-0.3-1c2-1.2-9.8-5.3-17.8-6.2c-31-3.5-53.8-14.9-67.6-33.8
	C54.2,197.4,53.1,196.2,53.7,197.3 M197.6,201.6c-6.2,2.1-18.5,4.5-27.5,5.4c-5.8,0.6-5.7,0.5-3.7,2.6c3.5,3.6,26.7,15.3,27.9,14.1
	c0.1-0.1-2.4-1.2-5.6-2.4c-12.3-4.9-20.4-9.8-16.6-10.1c0.4,0,0.9-0.3,1-0.6c0.1-0.3,0-0.4-0.2-0.3c-0.2,0.1-0.3-0.3-0.3-1
	c0-0.7,0.2-1.2,0.4-1.2c0.2,0,0.2-0.2,0-0.5c-0.2-0.3-0.1-0.3,0.1-0.2c0.2,0.1,1.2,0,2.1-0.3s2.1-0.6,2.6-0.6c0.5,0,1.5-0.2,2.1-0.4
	c1.2-0.4,5.9-1.3,9.8-2c1.1-0.2,3.6-0.9,5.7-1.5c5.9-1.9,7.9-2.4,8.1-2c0.1,0.2,0.4,0.4,0.7,0.4c0.5,0,2,0.7,2.5,1.2
	c0.1,0.1,0.5,0.3,1,0.3c6.2,1.1,25.8,18.1,27.4,23.7c0.4,1.5,0.7,2.1,1,2.1c0.5,0,1.3,2,1.1,3c0,0.5,0.1,0.9,0.2,0.9
	c0.3,0,0.5,0.7,0.5,2.5c0,0.4,0.2,0.9,0.5,1.1c0.4,0.2,0.3,0.4-0.1,0.6c-0.3,0.2-0.4,0.4-0.1,0.6c0.2,0.1,0.5,0,0.6-0.2
	c0.1-0.3,0.3-0.3,0.5-0.2c0.2,0.2,0.1,0.5-0.2,0.6c-0.3,0.2-0.4,0.5-0.2,0.8c0.2,0.3-0.3,0.1-1-0.4c-0.9-0.6-1.4-0.8-1.5-0.5
	c-0.2,0.6-1.1,0.6-1.5-0.1c-0.8-1.3-2.1-0.9-2.6,0.8c-0.3,0.8-0.3,0.8-1.2,0.3c-1-0.6-2-0.4-2.3,0.4c-0.2,0.4-0.4,0.4-1.4-0.1
	c-1-0.5-1.3-0.5-1.5-0.1c-0.2,0.4-0.5,0.4-1.2,0c-0.8-0.4-0.8-0.4-0.6,0.4c0.2,0.6,0.1,0.8-0.4,0.8c-0.3,0-0.6-0.2-0.6-0.5
	c0-0.3-0.4-0.7-1-1c-0.5-0.2-1-0.6-1-0.8c0-0.2-0.5-0.3-1-0.1c-0.7,0.1-1.2,0-1.5-0.4c-0.2-0.3-0.9-0.7-1.5-0.8
	c-0.6-0.1-1.3-0.4-1.6-0.7c-0.4-0.4-0.6-0.3-0.6,0c0,0.3-0.2,0.4-0.4,0.2c-0.2-0.1-0.3-0.4-0.1-0.7c0.1-0.2,0.1-0.3-0.1-0.2
	c-0.2,0.1-1.2-0.5-2.3-1.5c-1-1-2.1-1.8-2.4-1.8c-0.3,0-0.7-0.3-1-0.7c-0.3-0.4-0.7-0.8-0.9-0.8c-0.2-0.1-1.6-0.8-3.1-1.7
	c-2.8-1.7-9.5-4.7-9.8-4.5c-0.1,0.1,1.4,0.8,3.2,1.7c7.5,3.4,12.8,7,17.6,11.9c1.6,1.6,3,2.9,3.2,2.9c0.1,0,0.5,0.2,0.8,0.6
	c0.4,0.5,0.4,0.6,0,0.4c-0.9-0.5-0.5,0.3,0.7,1.7l1.2,1.4l-0.9-1.4l-0.8-1.4l1,1.1c0.5,0.6,0.9,1.3,0.8,1.4
	c-0.1,0.1,0.7,1.9,1.8,3.9c7.4,14,7.8,32.3,1.1,49.7c-0.7,1.9-1.2,3.6-1,3.6c0.2,0.1,0.2,0.3,0.1,0.5c-0.1,0.2,0,0.4,0.2,0.4
	c0.2,0,0.4,0.3,0.3,0.7c0,0.5-0.3,0.7-0.8,0.5c-0.5-0.1-0.6-0.4-0.5-1c0.1-0.5-0.8,1.1-2.1,3.5c-1.3,2.4-2.8,5.1-3.4,6.2
	c-0.6,1-0.9,1.9-0.7,1.9s0.4-0.1,0.4-0.3c0-0.2,0.7-1.4,1.6-2.7c0.9-1.3,1.6-2.6,1.6-2.8s0.2-0.4,0.4-0.4c0.2,0,0.3,0.2,0.2,0.4
	c-0.4,0.7,0.3,0.4,0.9-0.3c0.3-0.4,0.4-0.5,0.3-0.2c-0.3,0.5,0.8,0.5,1.7,0c0.3-0.2,0.5-0.1,0.5,0.3c0,0.3-0.3,0.6-0.6,0.6
	c-0.3,0-0.6,0.2-0.6,0.5c0,0.7-6.6,7.2-6.7,6.5c0-0.3-0.3,0-0.6,0.6c-0.3,0.6-1.9,2.7-3.4,4.5c-19.4,23.2-34.5,52.4-40.6,78.2
	l-0.3,1.1h22.1H216l0-2.8c0-12.3,4.2-31,9.8-44c7.4-17,15.3-28.1,32.6-45.7c15.2-15.5,20.1-24.2,22.3-39.4c0.3-2.4,0.8-4.9,1-5.4
	c0.5-1.4,0.5-1.4-0.3-0.6c-0.4,0.4-2.2,2.1-4.1,3.8c-1.9,1.7-3.3,3.2-3.2,3.3c0.1,0.1,1.2-0.7,2.4-1.8c4.2-3.8,4.4-3.6,3.5,2.4
	c-2.1,14.1-7.1,22.6-22.1,38c-5.3,5.4-10.4,10.8-11.3,11.9c-1,1.2-1.9,2.2-2,2.3c-2.7,2.2-12.2,16.6-16.3,24.8
	c-1.2,2.4-2.3,4.4-2.4,4.5c-0.2,0.1-0.3,0.6-0.4,1.2c-0.1,0.5-0.4,1-0.6,1c-0.6,0-2,1.7-2,2.4c0,1-1.7,2.2-2.6,2
	c-0.6-0.1-0.9-0.1-0.9,0.2c0,0.3-0.2,0.3-0.6,0c-0.5-0.4-0.6-0.4-0.4,0.1c0.2,0.6-0.8,1.3-1.4,0.9c-0.2-0.1-0.4-0.1-0.4,0.2
	c0,0.2,0.3,0.5,0.6,0.6c0.3,0.1,0.5,0.4,0.4,0.7c-0.2,0.3-0.5,0.2-0.9-0.2c-0.4-0.3-0.8-0.5-0.9-0.4c-0.1,0.1,0.1,0.5,0.4,0.8
	c0.6,0.5,0.6,0.5,0,0.5c-0.3,0-0.8-0.2-1.1-0.5c-0.3-0.3-0.7-0.5-1.1-0.3c-0.3,0.1-0.5,0.1-0.4-0.1c0.5-0.8-1.4-0.3-2,0.5
	c-0.5,0.7-0.7,0.8-1.1,0.5c-0.4-0.3-0.5-0.3-0.5,0c0,0.3-0.3,0.4-0.7,0.2c-0.4-0.1-1.2-0.1-1.8,0.2c-0.7,0.3-1,0.3-1,0
	c0-0.2-0.3-0.3-0.6-0.2c-0.3,0.1-0.5,0.1-0.4-0.2c0.1-0.2,0-0.4-0.4-0.4c-0.4,0-0.5,0.2-0.4,0.6c0.1,0.3,0,0.6-0.3,0.6
	c-0.3,0-0.8,0.1-1.1,0.1c-0.3,0-0.5,0.3-0.5,0.6c0.1,0.3-0.1,0.4-0.3,0.3c-0.2-0.1-0.3-0.5-0.2-0.8c0.3-0.8-1.3-1-1.7-0.3
	c-0.4,0.6-0.6,0.2-0.4-0.8c0.1-0.5-1.1-1.5-1.5-1.3c-0.2,0.1-0.6,0-0.8-0.4c-0.6-0.7-2.1-0.7-2.9,0c-0.7,0.7-1.6,0.8-1.2,0.2
	c0.1-0.2,0-0.6-0.3-0.8c-0.3-0.2-0.6-0.1-0.8,0.1c-0.2,0.4-0.3,0.4-0.3,0c0-0.3-0.3-0.5-0.6-0.5c-0.3,0-0.6-0.2-0.6-0.4
	c0-0.3-0.2-0.3-0.6,0.1c-0.5,0.4-0.6,0.3-0.5-1.2c0.1-0.9,0.2-1.7,0.4-1.7c0.4,0,1.5-1.7,1.4-2.2c-0.1-0.7,1.7-4.5,1.9-3.9
	c0.2,0.5,0.9,0.3,0.9-0.3c0-0.2-0.2-0.3-0.4-0.1c-0.6,0.4-0.5,0,0.3-1.4c0.4-0.6,0.9-1,1-0.9c0.2,0.2,0.2,0.1,0.1-0.1
	s1.5-3.1,3.7-6.4c9.5-14.3,17.9-23.8,32-35.9c4.2-3.6,8-7.1,8.4-7.7c0.7-1,0.8-1.2,0.9-2.4c0-0.3,0.2-0.4,0.5-0.2
	c0.3,0.2,0.3,0.1,0.2-0.2c-0.3-0.5,0.8-2.8,1.3-2.8c0.6,0,2-4.3,1.8-5.2c-0.2-0.7-0.2-0.7,0.2-0.2c0.4,0.5,0.4,0.4,0.3-0.3
	c-0.1-0.5,0-0.9,0.2-1c1.5-0.5,3.1-16.5,2.3-23.8c-2.2-20.9-9.9-36.4-23.7-47.8c-4.7-3.9-5.2-4.2-8.8-6.4
	C204.5,199.4,204.3,199.3,197.6,201.6 M57.8,226.7c0.9,1.2,3.8,3.8,5.4,4.9l1.4,0.9l-0.7-1c-0.4-0.6-1-1-1.3-1
	c-0.3,0-1.3-0.8-2.2-1.7C58.3,226.7,56.9,225.6,57.8,226.7 M83.3,228.5c0.2,0.5,0.7,0.6,0.8,0.1c0-0.2-0.2-0.4-0.4-0.4
	C83.3,228.1,83.2,228.2,83.3,228.5 M91,232.5c0,0.3-1,0.7-1.6,0.7c-0.2,0-0.4-0.2-0.4-0.5c0-0.3,0.4-0.5,1-0.5
	C90.6,232.2,91,232.3,91,232.5 M87.1,233c-0.3,0.3-0.3,0.7-0.1,0.8c0.2,0.1,0.5-0.1,0.6-0.4C88,232.5,87.7,232.3,87.1,233
	 M217.2,237c2.5,2.8,2.5,3.3,0,0.7c-0.9-1-1.5-1.8-1.3-1.8C216.1,235.9,216.7,236.4,217.2,237 M281.3,242.2c0,0.8,0.1,1.1,0.2,0.7
	c0.1-0.4,0.1-1,0-1.4C281.4,241.1,281.3,241.4,281.3,242.2 M148,245.2c-0.2,0.6,0.1,1,0.7,1.4c1.6,1.1,1.9,0.5,0.4-1.2
	C148.2,244.4,148.2,244.4,148,245.2 M281.7,246.5c0,0.8,0.1,1.1,0.2,0.7c0.1-0.4,0.1-1,0-1.4C281.8,245.4,281.7,245.7,281.7,246.5
	 M282.1,253.9c0,1,0.1,1.4,0.2,0.9c0.1-0.5,0.1-1.3,0-1.8C282.2,252.5,282.1,252.9,282.1,253.9 M246.9,290.7c-3,2.4-4.3,3.6-4.1,3.8
	c0.1,0.1,1-0.5,1.9-1.3c0.9-0.8,2.1-1.8,2.6-2.2c0.5-0.4,0.9-0.7,0.8-0.8C247.9,290,247.4,290.3,246.9,290.7 M226,298.6
	c-0.1,0.9-1,2.3-1,1.5c0-0.4,0.8-2.4,1-2.4C226,297.7,226.1,298.1,226,298.6 M220.5,356.8c0.4,0.3,0.8,0.5,1,0.4
	c0.2-0.2-0.7-0.9-1.3-0.9C219.9,356.3,220.1,356.5,220.5,356.8 M196.6,359.6c0.9,0.3,0.4,0.9-0.6,0.7c-0.4-0.1-0.8,0-0.8,0.2
	c0,0.2,0.2,0.4,0.4,0.4s0.4,0.2,0.4,0.4s-0.3,0.4-0.6,0.4c-0.3,0-0.6-0.2-0.6-0.4s-0.3-0.3-0.6-0.2c-0.9,0.4-0.3-0.8,0.7-1.3
	c0.5-0.2,0.9-0.5,0.9-0.5C196,359.4,196.3,359.5,196.6,359.6 M209.4,362.6c0,0.5-0.9,0.2-1.1-0.4c-0.1-0.3,0.1-0.4,0.5-0.2
	C209.1,362.1,209.4,362.4,209.4,362.6"/>
<path id="path2" class="st2" d="M232.3,56.4c-0.3,0.2-0.3,0.4,0,0.5c0.3,0.1,0.5,0.8,0.5,1.4c0,0.9-0.1,1.1-0.3,0.7
	c-0.2-0.3-0.5-0.4-0.8-0.3c-0.3,0.2-0.3,0.4,0,0.8c0.2,0.3,0.3,0.7,0.2,0.9c-0.1,0.2-0.1,0.4,0.1,0.4c2.7,0,15.1,11,20.5,18.2
	c1.2,1.6,2,2.3,2.4,2.2c0.3-0.1,0.6,0,0.6,0.2c0,0.2-0.2,0.3-0.4,0.2c-0.6-0.4-0.5,0,1,2.5c1.2,2.1,2.4,3.2,1.4,1.3
	c-0.2-0.4-0.3-1-0.2-1.3c0.1-0.4,0-0.5-0.4-0.3c-0.4,0.1-0.6,0.1-0.6-0.1s0.3-0.4,0.6-0.4s0.6-0.2,0.6-0.4c0-0.2,0.2-0.4,0.4-0.4
	c0.2,0,0.3,0.4,0.2,0.9c-0.2,0.9-0.2,0.9,0.4,0.1c0.3-0.4,0.6-0.5,0.6-0.3c0,0.3,0.3,0.5,0.6,0.5c0.3,0,0.5-0.2,0.3-0.6
	c-0.1-0.3,0-0.6,0.2-0.6c0.2,0,0.4-0.3,0.4-0.6c0-0.7,0.3-0.7,1.2-0.2c0.6,0.4,1.9-0.1,2.5-0.9c0.2-0.3,0.3-0.2,0.3,0.3
	c0,0.4-0.3,0.7-0.6,0.7s-0.6,0.2-0.6,0.4c0,0.2,0.2,0.4,0.4,0.4c0.2,0,0.6,0.1,1,0.2c0.5,0.2,0.6,0.1,0.4-0.5
	c-0.2-0.6-0.2-0.6,0.7,0.1c1.1,1,2.2,0.3,1.8-1c-0.1-0.4,0-0.8,0.4-0.9c0.4-0.2,0.5,0,0.3,0.5c-0.4,1.2,0.4,1.3,1.3,0.1
	c0.7-0.9,0.8-1,0.8-0.3c0,0.4-0.3,1-0.7,1.3c-0.6,0.5-0.6,0.5,0.2,0.1c0.6-0.3,0.9-0.3,1.1,0c0.1,0.2,0.4,0.3,0.6,0.2
	c0.2-0.1,0.3-0.4,0.1-0.6c-0.1-0.2,0-0.4,0.2-0.4c0.2,0,0.4-0.4,0.4-0.8c0-0.7,0.1-0.8,0.6-0.3c1.1,0.9,4.1,0.3,3.3-0.6
	c-0.3-0.4-0.3-0.6,0.2-0.7c0.3-0.1,0.6,0,0.7,0.2c0.3,1,1.6-0.2,1.3-1.3c-0.3-1.3,0-2.3,0.6-2.3c0.2,0,0.2,0.2-0.1,0.6
	c-0.6,0.7-0.1,0.8,0.6,0c0.6-0.6,0.8-1.2,0.2-0.8c-0.5,0.3-1-0.6-0.5-0.9c0.9-0.6,1-2,0-2.4c-0.5-0.2-1-0.2-1,0
	c-0.3,0.7-1.1,0.3-1.6-0.7c-0.3-0.5-0.6-0.9-0.8-0.8c-0.2,0.1-0.6-0.1-0.9-0.6c-0.6-0.8-1.7-1.5-5.3-3.3c-1.2-0.6-3.1-1.7-4.2-2.4
	c-1.1-0.7-2.3-1.3-2.6-1.3c-0.3,0-0.6-0.3-0.6-0.6c0-0.3,0.2-0.6,0.4-0.6s0.4,0.2,0.4,0.4c0,0.2,0.3,0.3,0.7,0.2
	c0.8-0.2,1.8,0.3,1.6,0.8c-0.1,0.2,0.3,0.4,0.8,0.4c0.5,0,1.3,0.2,1.8,0.3c0.4,0.2,0.1-0.2-0.8-0.7c-2.4-1.5-8.7-3.6-9.3-3
	c-0.4,0.4-0.2,0.4,0.5,0.2c0.6-0.2,0.8-0.1,0.7,0.1c-0.2,0.3,0,0.3,0.3,0.2c0.3-0.1,0.6-0.1,0.6,0.2c0,0.2,0.3,0.3,0.7,0.2
	c0.5-0.1,0.7,0,0.7,0.4c0,0.7-0.9,0.8-1.2,0.2c-0.1-0.2-0.6-0.3-1-0.3s-1.4-0.2-2.2-0.6c-0.8-0.4-1.9-0.7-2.4-0.7
	c-0.6,0-1.3-0.4-1.7-0.8c-0.4-0.4-1-0.8-1.3-0.8c-0.4,0-0.9-0.3-1.3-0.6C248.5,57,233.7,55.3,232.3,56.4 M93.7,70.1
	c-18.9,13.3-25.9,45-14.7,66.6c4.9,9.5,15.9,21.7,15.9,17.7c0-0.4-0.2-0.5-0.8-0.3c-0.5,0.2-0.8,0.1-0.8-0.3c0-0.8,3.1-0.7,3.1,0.1
	c0,0.5,0.1,0.5,0.5-0.1c0.3-0.4,0.9-0.7,1.3-0.7c0.6,0,0.6,0.1,0.2,0.4c-0.3,0.2-0.4,0.4-0.2,0.4c0.8,0,1.8-1.1,1.5-1.7
	c-0.3-0.8,0.2-0.8,1.2-0.1c0.8,0.5,3.4,1.1,3.1,0.6c-0.1-0.1,0.2-0.5,0.6-0.7c0.5-0.3,0.8-0.3,0.8-0.1c0,0.2,0.2,0.4,0.4,0.4
	s0.3-0.3,0.2-0.6c-0.2-0.4,0-0.7,0.6-0.8c0.6-0.2,0.7-0.3,0.3-0.5c-0.4-0.2-0.3-0.3,0.3-0.3c0.5,0,1-0.4,1.4-1
	c0.4-0.8,0.7-1,1.6-0.8c0.8,0.2,1.1,0,1.3-0.5c0.1-0.4,0.4-0.7,0.6-0.7c0.2,0,0.6-0.2,0.9-0.6c0.5-0.7,0.6-0.7,1.2-0.1
	c0.3,0.3,0.7,0.6,0.8,0.6c0.3,0,0.8-2.4,0.7-2.9c-0.1-0.2,0.1-0.2,0.4,0.1c0.3,0.3,0.7,0.5,0.9,0.5c0.2,0,0.2-0.2-0.1-0.4
	c-0.5-0.3-0.5-0.4,0.1-1c0.7-0.7,0.8-1.2,0.3-1.6c-0.2-0.1-0.3-0.4-0.2-0.6c0.1-0.2,0-0.6-0.2-0.9c-0.3-0.4-0.3-0.6,0-0.6
	c0.3,0,0.4-0.5,0.3-1.4c-0.1-1,0-1.4,0.4-1.4c0.3,0,0.5-0.2,0.4-0.5c-0.1-0.3-0.5-0.5-0.8-0.4c-0.4,0-0.5-0.1-0.4-0.4
	c0.2-0.3,0-0.3-0.4-0.2c-0.4,0.2-0.6,0.1-0.4-0.3c0.2-0.6,1.4-0.6,1.8,0c0.2,0.2,0.2-0.1,0.1-0.7c-0.4-1.8,1.2-3.4,1.9-1.8
	c0.2,0.4,0.3,0.4,0.6,0c0.3-0.4,0.5-0.4,0.6-0.1c0.1,0.2,0.5,0.4,0.7,0.4c0.3,0-0.1-0.3-0.7-0.8c-0.6-0.4-1.3-0.7-1.5-0.6
	c-0.2,0.1-0.3,0.1-0.2-0.1c0.1-0.2-2.2-2.6-5-5.4c-2.8-2.8-5.7-6.1-6.4-7.3c-0.8-1.2-2.5-3.8-3.8-5.7c-1.3-1.9-2.9-4.4-3.5-5.6
	s-1.2-2.1-1.3-2c-0.2,0.1-0.3,0-0.3-0.3c0-1.3-0.1-1.9-0.6-1.6c-0.3,0.2-0.3,0.1-0.2-0.2c0.1-0.2-0.2-1.9-0.9-3.7
	c-2.8-7.9-3.4-15.8-1.8-23.3c0.2-0.8,0.1-0.9-0.2-0.4c-0.4,0.5-0.4,0.5-0.2-0.1c0.1-0.4,0.2-0.9,0.2-1.2c0-0.3,0.2-0.2,0.4,0.1
	c0.3,0.4,0.4,0.2,0.3-0.8c0-0.7,0.1-2.3,0.2-3.4c0.1-1.1,0.2-2.1,0.1-2.1C96.3,68.4,95.1,69.2,93.7,70.1 M279.5,77.1
	c-0.8,0.6-0.4,1.6,0.4,1.3c0.4-0.1,0.5,0.1,0.5,0.6c0,0.4-0.3,0.9-0.6,1c-0.5,0.2-0.5,0.3-0.1,0.6c1,0.6,1.3,0.1,2-3.4
	C281.9,76.6,280.2,76.6,279.5,77.1 M113.8,95.1c-0.4,0.3-1.3,0.6-2,0.6c-5.1,0.1,4.4,21.2,12.8,28.6c5.2,4.5,13.8,9.2,18,9.9
	c0.3,0,0.6,0.2,0.9,0.3c1.6,0.9,7.1,1.6,7.3,1c0.1-0.3,1.5-0.4,3.8-0.4c2,0,3.9-0.1,4.2-0.3c0.3-0.2,0.5-0.1,0.5,0.1
	c0,0.2,0.7,0.4,1.5,0.5c0.8,0,1.9,0.2,2.4,0.3c1.4,0.4,4.3-0.6,4.3-1.5c0-1.4,1.1-1.8,2-0.6c1,1.2,1.5,1.3,1.2,0.2
	c-0.2-0.6-0.1-0.8,0.3-0.5c0.4,0.2,0.4,0.1,0.3-0.3c-0.3-0.8-0.2-0.8,0.9,0.1c1,0.9,1.9,1.1,1.2,0.2c-0.5-0.6,0.4-1.2,1.4-1.1
	c0.3,0,0.5-0.2,0.5-0.5c0-0.4,0.4-0.5,1.2-0.4c1,0.1,1.1,0.1,0.9-0.5c-0.2-0.5-0.1-0.6,0.5-0.5c0.4,0.1,0.7,0.3,0.7,0.6
	c0,0.2,0.5,0.1,1.3-0.2c1.2-0.6,1.9-1.3,1.1-1.2c-0.8,0.1-1-0.1-0.5-0.4c0.4-0.2,0.8-0.1,1.2,0.4c0.4,0.5,1,0.7,1.7,0.6
	c1.4-0.2,1.6-0.4,0.8-1c-0.6-0.5-0.6-0.5-0.4,0.1c0.3,0.8-0.2,0.9-0.8,0.2c-0.3-0.4-0.2-0.6,0.3-1c0.6-0.4,0.8-0.3,0.9,0
	c0.1,0.3,0.3,0.3,0.6-0.1c0.3-0.4,0.4-0.4,0.4-0.1c0,0.3,0.3,0.4,0.7,0.2c0.6-0.2,0.6-0.2,0,0.8c-0.8,1.3-0.8,1.5-0.1,1.5
	c0.4,0,0.5-0.2,0.4-0.5c-0.1-0.3,0-0.8,0.3-1.2c0.3-0.4,0.4-1,0.3-1.3c-0.3-0.7,0.2-0.7,0.9,0c0.3,0.3,0.4,0.9,0.3,1.3
	c-0.2,0.6-0.2,0.6,0.5-0.1c0.7-0.7,0.8-0.8,0.2-1.3c-0.6-0.5-0.5-0.5,0.4-0.4c0.7,0.1,1.2,0,1.5-0.6c0.4-0.6,0.6-0.7,1.1-0.2
	c0.5,0.4,0.6,0.4,0.3,0c-0.2-0.3-0.1-0.5,0.2-0.5c0.3,0,0.4-0.2,0.2-0.6c-0.1-0.3,0.2-0.8,0.8-1.2c1-0.7,1-0.7,0.4,0.1
	c-1,1.1-0.8,1.3,0.5,0.6c0.6-0.4,1.1-0.9,1-1.1c-0.1-0.2,0-0.7,0.2-1c0.2-0.3,0.4-0.4,0.4-0.2c0,0.2,0.5,0.4,1,0.4
	c0.8,0,0.9,0,0.5-0.5c-0.2-0.3-0.3-0.6-0.1-0.6c0.4-0.1,1.6-0.2,2.9-0.3c0.8-0.1,0.9-0.1,0.4-0.5c-0.4-0.3-0.5-0.4-0.1-0.4
	c0.7,0,1.4-0.8,1.4-1.6c0-0.3,0.3-0.6,0.7-0.5c0.4,0,0.7-0.2,0.7-0.5s0.2-0.5,0.4-0.3c0.2,0.1,0.4,0.6,0.4,1c0,1.1,0.6,0.9,1.1-0.5
	c0.4-1.1,0.5-1.2,1.1-0.6c0.3,0.3,0.8,0.6,1.1,0.6c0.3,0,0-0.4-0.6-0.9c-0.8-0.7-0.9-1-0.5-1.2c0.9-0.3,0.2-1.1-0.7-0.8
	c-1,0.3-3.9-0.2-3.7-0.6c0.1-0.2,0.5-0.2,0.8-0.1c0.4,0.2,0.6,0.1,0.4-0.3c-0.2-0.6-2.7-0.8-2.7-0.3c0,0.2,0.2,0.3,0.4,0.3
	c0.2,0,0.4,0.2,0.4,0.4c0,0.7-1.1,0.4-1.4-0.4c-0.1-0.4-0.4-0.7-0.6-0.5c-0.3,0.2-0.3,0.4,0,0.7c1.1,1.1-0.1,1.5-1.4,0.5
	c-0.7-0.6-0.7-0.6,0-0.3c0.5,0.2,0.7,0.1,0.6-0.3c-0.1-0.3-0.4-0.6-0.7-0.6c-0.3,0-0.6-0.1-0.7-0.1c-0.3-0.2-2.9-0.3-13.7-0.6
	c-5.7-0.2-10.5-0.4-10.8-0.6c-0.2-0.2-3.8-0.3-7.9-0.3c-4.1,0-7.4-0.1-7.3-0.2c0.1-0.2-1.6-0.3-3.8-0.2l-4.1,0.1l1.4-1.3
	c0.8-0.7,1-1,0.5-0.6c-1.3,1.1-1.1,0.1,0.3-1.2c3.1-2.9,5.6-7.1,3.4-5.8c-0.6,0.4-13.8,0.2-15.7-0.2c-0.9-0.2-3.2-0.7-5.1-1
	c-1.9-0.4-5-1.2-6.8-1.8s-4-1.3-4.7-1.5c-0.7-0.2-1.6-0.6-2-1c-0.4-0.3-1-0.6-1.5-0.6c-0.4,0-1.2-0.4-1.7-0.8
	c-0.5-0.5-1-0.7-1.1-0.6c-0.1,0.1-0.6,0-1.1-0.3C114.7,94.7,114.4,94.6,113.8,95.1 M279.1,111.3c-1,2.4-3.2,7.3-4.9,10.9
	c-1.7,3.7-3.1,6.7-3.1,6.8c0,0.1-0.9,2-2,4.3c-1.1,2.3-2,4.2-2,4.4s-1,2.3-2.1,4.7c-1.2,2.5-2,4.7-1.9,4.9c0.1,0.2,0.1,0.3-0.2,0.2
	c-0.5-0.3-1,0.8-0.6,1.4c0.1,0.2,0.1,0.3-0.2,0.2c-0.2-0.1-0.5,0.1-0.7,0.5c-0.1,0.4-1.1,2.4-2.2,4.4c-1.1,2-2,3.9-2,4.3
	c0,0.4-0.1,0.6-0.3,0.5c-0.4-0.3-2.7,3.5-2.7,4.5c0,0.4-0.1,0.7-0.3,0.6c-0.7-0.4-0.2,1.5,0.6,2.1c0.6,0.5,0.7,0.8,0.4,1.4
	c-0.3,0.5-0.3,0.8,0,0.9c0.2,0.1,0.5,0.4,0.5,0.7c0,0.3,0.3,0.6,0.7,0.7c0.5,0.1,0.4,0.2-0.3,0.2c-0.9,0-1,0.2-0.9,1.5
	c0,0.8-0.2,1.7-0.4,2c-0.3,0.5-0.3,0.5,0.3,0.3c0.4-0.1,0.9-0.3,1.1-0.3c0.2,0,0.3-0.2,0.1-0.4c-0.1-0.2,0.3-0.2,1,0
	c0.7,0.2,1.2,0.5,1.2,0.7c0,0.2,0.8,0.2,1.8,0.2c1-0.1,1.9,0.1,2,0.3c0.4,0.6,1,0.4,1-0.3c0-0.6,0.1-0.6,0.8,0
	c0.7,0.6,0.8,0.6,1.2-0.2c0.4-0.7,0.5-0.8,0.8-0.3c0.3,0.5,0.5,0.2,0.4-0.6c0-0.2,0.3-0.2,0.7-0.1s0.9,0.1,1-0.2
	c0.1-0.2,0.5-0.3,0.7-0.2c0.4,0.2,0.4,0.1,0-0.2c-0.7-0.7,0.4-1.7,1.5-1.4c0.6,0.2,0.7,0.1,0.6-0.2c-0.2-0.2-0.1-0.7,0.2-1
	c0.3-0.3,0.4-0.6,0.2-0.6s0-0.2,0.2-0.5c0.3-0.3,0.9-0.5,1.4-0.4c0.6,0.1,0.9-0.1,0.7-0.4c-0.1-0.3,0-0.5,0.3-0.5
	c1.4,0,1.7-0.1,1.5-0.9c-0.1-0.6,0-0.8,0.4-0.8c0.4,0,0.5-0.2,0.4-0.4c-0.1-0.2,0-0.4,0.4-0.4c0.8,0,0.8,0.6-0.1,1.1
	c-0.5,0.3-0.6,0.5-0.2,0.9c0.3,0.3,0.5,0.3,0.5,0.1c0-1.2,2-2.6,2.8-1.9c0.5,0.4,0.8,0.5,0.8,0.2c0-0.3,0.2-0.4,0.4-0.2
	s0.4,0.1,0.4-0.2c0-0.3,0.3-0.3,1,0c0.7,0.3,0.9,0.3,0.7,0c-0.3-0.5,1-1.5,2-1.5c0.5,0,0.9-0.1,1-0.3c0.1-0.2,0.1-0.1,0,0.2
	c-0.2,1,0.6,0.8,1.5-0.3c0.5-0.7,1.3-1.4,1.7-1.5c0.4-0.2,0.8-0.7,0.9-1.2c0-0.5,0.2-1,0.5-1c0.2-0.1,0.3-0.4,0.1-0.8
	c-0.2-0.5-0.1-0.6,0.4-0.4c0.5,0.2,0.7,0,0.7-0.5c0-0.4,0.2-0.8,0.4-1c0.2-0.1,0.5-0.7,0.6-1.4c0.2-0.8,0.4-1.1,0.8-0.9
	c0.5,0.2,0.8-0.3,0.6-1.2c0-0.2,0.2-0.1,0.6,0.2c0.5,0.4,0.7,0.4,0.8,0.1c0.1-0.3,0.3-0.4,0.5-0.3c0.2,0.1,0.2,0.4-0.1,0.8
	c-0.3,0.3-0.3,0.5-0.1,0.5c2.4-0.1,2.2-6.3-0.6-14.5c-1.1-3.4-2-6.3-2-6.4c0.2-0.9-0.1-1.7-0.4-1.5c-0.2,0.1-0.4,0-0.3-0.3
	c0.2-1.2,0-1.9-0.5-1.7c-0.3,0.2-0.4,0.1-0.2-0.3c0.3-0.7-2.6-7.5-3-7.1c-0.2,0.2-0.2,0,0-0.4c0.1-0.4,0.1-0.7-0.1-0.7
	s-0.5-0.3-0.6-0.6c-0.1-0.3-0.1-0.5,0.1-0.4c0.2,0.1,0.2-0.3-0.1-0.9c-0.2-0.6-0.6-1.1-0.7-1c-0.4,0.2-1-1.4-1.1-3.1
	c0-0.4-0.2-0.6-0.5-0.4c-0.3,0.2-0.3,0.1-0.2-0.1c0.4-0.6-0.1-1.7-0.6-1.4c-0.3,0.2-0.3,0-0.2-0.4c0.1-0.4,0.1-0.7-0.2-0.7
	c-0.2,0-0.3-0.3-0.2-0.6c0.1-0.3,0.1-0.5-0.1-0.4c-0.2,0.1-0.8-0.8-1.4-2.1C281.2,106.3,281.2,106.3,279.1,111.3 M203.5,114
	c0,0.2,0.3,0.5,0.6,0.6c0.4,0.1,0.6,0.1,0.5-0.2C204.4,113.8,203.5,113.5,203.5,114 M206.4,114.1c-0.2,0.3-0.1,0.4,0,0.2
	c0.2-0.2,0.6-0.1,0.9,0.2c0.5,0.4,0.6,0.4,0.4-0.1C207.5,113.7,206.8,113.5,206.4,114.1 M208.2,114.1c0,0.2,0.4,0.3,0.9,0.2
	c0.5-0.1,1.1,0,1.4,0.3c0.4,0.3,0.4,0.2,0.3-0.2C210.4,113.6,208.2,113.4,208.2,114.1 M208.8,115.5c-0.2,0.7-0.4,0.8-0.9,0.4
	c-0.7-0.6-1.4,0-1.1,1c0.2,0.4,0.5,0.6,1,0.5c0.4-0.1,0.8-0.1,0.9,0.1c0.1,0.1,0.1,0,0-0.3c-0.1-0.3,0.1-0.8,0.3-1.1
	c0.2-0.3,0.4-0.7,0.3-1C209.2,114.9,209,115,208.8,115.5 M209.8,116.2c0,1.1,0.7,1.7,1.3,1c0.3-0.3,0.3-0.4,0-0.4
	c-0.3,0-0.5-0.4-0.5-0.8c0-0.4-0.2-0.8-0.4-0.8C209.9,115.2,209.8,115.7,209.8,116.2 M199.4,120.7c0,0.3-0.2,0.6-0.5,0.7
	c-0.4,0.1-0.4,0-0.2-0.3c0.2-0.3,0.1-0.6-0.2-0.9c-0.4-0.3-0.4-0.3,0.2-0.2C199.1,120.1,199.4,120.4,199.4,120.7 M151.6,136
	c0,0.4,2.4,0.4,3.1-0.1c0.4-0.2,0-0.3-1.3-0.3C152.4,135.7,151.6,135.9,151.6,136 M155.7,136c0.1,0.2,0.6,0.3,1.1,0.3
	c0.5,0,1-0.1,1.1-0.3c0.1-0.2-0.4-0.3-1.1-0.3S155.6,135.8,155.7,136 M35,150.9c-0.1,1.1-0.3,3.6-0.4,5.6c-0.2,3.9,0.1,1.9,0.8-4.6
	C35.7,148.5,35.4,147.7,35,150.9 M104,152c-0.1,0.2-0.4,0.3-0.8,0.3s-0.5-0.2-0.3-0.4c0.1-0.2,0.1-0.4-0.2-0.4
	c-0.2,0-0.4-0.2-0.4-0.4c0-0.2,0.4-0.2,0.9,0.1C103.8,151.5,104.1,151.9,104,152 M96.3,157.6c2.5,2.3,6.7,5.4,4.9,3.7
	c-0.5-0.5-1.6-1.4-2.4-2.1c-0.8-0.6-1.4-1.3-1.2-1.5c0.1-0.2,0.1-0.3-0.2-0.2c-0.2,0.1-0.9-0.4-1.6-1c-0.7-0.6-1.3-1.1-1.5-1.1
	C94.1,155.5,95,156.5,96.3,157.6 M37.8,157.8c-0.2,0.6,0,1.3,0.3,1.9c0.6,0.9,0.1,3.6-0.7,3.6c-0.2,0-0.3,0.3-0.1,0.6
	c0.2,0.5,0.1,0.6-1.2,0.7c-0.8,0.1-1.3,13.5-0.7,18c0.3,2.1,0.4,2.2,0.6,1.2c0.3-1.1,0.3-1.1,0.3-0.2c0,0.5,0.2,1.4,0.3,2
	c0.2,0.8,0.1,0.9-0.2,0.4c-0.5-0.6-0.4,0,0.5,4.3c0.4,1.8,0.5,2,0.7,1.2c0.2-0.6,0.3-0.3,0.3,1.2c0,1.4,0.5,3.3,1.2,5.4
	c0.7,1.8,1.2,3.3,1.2,3.4c0,0.1,0.2,0.1,0.4-0.1c0.3-0.2,0.3,0,0.2,0.5c-0.4,1.3,6.4,13.7,8.7,15.7c0.6,0.5,0.8,0.8,0.5,0.6
	c-0.7-0.4,1.1,2.1,4.2,5.6c1.9,2.3,7.3,7.2,6.6,6.1c-0.2-0.3-0.1-0.5,0.1-0.5c0.2,0,0.4,0.2,0.4,0.4c0,0.2,0.4,0.5,0.9,0.6
	c0.5,0.1,1.2,0.7,1.6,1.3c0.8,1,0.8,1,0,0.5c-0.7-0.5-0.7-0.5-0.2,0.1c0.4,0.4,0.8,0.6,1.4,0.5c0.6-0.2,0.7-0.1,0.3,0.1
	c-0.4,0.3-0.1,0.7,1.3,1.6c1,0.7,1.7,1.1,1.6,0.8c-0.5-0.8,3.6,1.1,5.1,2.3c0.3,0.2,0.6,0.4,0.8,0.3c0.7-0.1,2.1,0.5,1.9,0.9
	c-0.1,0.2-0.1,0.4,0.1,0.4c0.2,0,0.9,0.1,1.7,0.2c1.4,0.2,1.8,0.4,1.8,1.1c0,0.7,5.5,0.7,6.3,0c0.5-0.5,0.6-0.5,0.4,0.4
	c-0.1,0.8,0,1,0.6,1c0.4,0,0.8-0.2,0.8-0.4c0-0.2-0.2-0.3-0.4-0.2c-0.2,0.1-0.4,0.1-0.4-0.2c0-0.2,0.2-0.4,0.5-0.4
	c0.3,0,0.8-0.3,1-0.6c0.3-0.4,0.3-0.6,0.1-0.6c-0.2,0-0.5,0.2-0.7,0.4c-0.4,0.6-0.7,0.5-1.5-0.7l-0.8-1.1l0.8,0.7
	c1.3,1.1,4.4-1.2,3.2-2.4c-0.3-0.3-0.3-0.5,0-0.7c0.5-0.3,0.1-1.4-0.6-1.4c-0.3,0-0.5-0.2-0.5-0.4c0-0.2,0.3-0.3,0.6-0.2
	c0.4,0.1,0.2-0.3-0.4-1.1c-0.9-1.1-0.9-1.5-0.6-2.2c0.4-0.7,0.4-0.8,0-0.5c-0.4,0.2-0.4,0.1-0.2-0.3c0.1-0.4,0.2-0.6,0-0.6
	c-0.4,0-1.3,1.1-1.3,1.6c0,0.2-0.2,0.3-0.4,0.2c-0.2-0.1-0.4-0.6-0.4-1c0-0.4-0.5-1.3-1.2-2c-0.6-0.7-1.2-1-1.2-0.7
	c0,0.4-0.1,0.4-0.6,0.1c-0.3-0.3-0.6-0.7-0.6-1c0-0.3-0.3-0.9-0.8-1.4c-0.4-0.5-0.7-1-0.6-1.1c0.1-0.2,0-0.4-0.2-0.5
	c-0.2-0.1-0.5,0-0.6,0.2c-0.4,0.6-0.9,0.5-1.4-0.4c-0.3-0.6-0.3-0.7,0.2-0.5c0.4,0.2,0.5,0.1,0.4-0.4c-0.2-0.4-0.5-0.6-1-0.4
	c-0.5,0.2-0.8,0-1-0.5c-0.4-1-0.9-1.2-2-1.1c-0.9,0.1-1,0.1-0.3-0.4c0.8-0.6-0.2-1.5-1.4-1.3c-0.3,0.1-0.5-0.1-0.4-0.3
	c0-0.2-1.3-1.5-3-2.9c-3.5-2.7-10.7-10.1-13.3-13.6c-1.6-2.1-2.7-3.7-6-8.9c-4.1-6.5-8.9-19.8-11-30.3c-0.5-2.5-0.9-4.1-1-3.7
	c-0.1,0.5-0.2,0.4-0.3-0.4C38.1,156.8,38.1,156.8,37.8,157.8 M34.1,166.2c0,2.1,0.1,3,0.1,1.8c0.1-1.1,0.1-2.9,0-3.9
	C34.2,163.1,34.1,164.1,34.1,166.2 M281.4,163.4c-0.4,0.2-0.9,0.6-1,0.8s-0.5,0.2-0.7,0.1c-0.3-0.2-0.1-0.5,0.6-0.8
	C281.7,162.8,282.5,162.8,281.4,163.4 M253.1,170.3c0,0.7,0.1,0.8,0.5,0.5c0.4-0.4,0.4-0.6,0-0.9
	C253.2,169.5,253.1,169.6,253.1,170.3 M34.5,174.4c0,1.1,0.1,1.5,0.2,0.9c0.1-0.6,0.1-1.5,0-2C34.6,172.9,34.5,173.3,34.5,174.4
	 M35.4,178.8c-0.1,0.4-0.2,0.1-0.2-0.7s0.1-1.1,0.2-0.7C35.5,177.8,35.5,178.4,35.4,178.8 M202.3,200.8c-5.5,1.8-10.3,3.2-11.9,3.5
	c-3.8,0.6-8.6,1.6-9.8,2c-0.7,0.2-1.6,0.4-2.1,0.4c-0.5,0-1.7,0.3-2.6,0.6s-1.9,0.5-2.1,0.3c-0.3-0.2-0.3-0.1-0.1,0.2
	c0.2,0.2,0.1,0.5,0,0.5c-0.2,0-0.4,0.5-0.4,1.2c0,0.7,0.1,1.1,0.3,1c0.2-0.1,0.3,0,0.2,0.3c-0.1,0.3-0.6,0.6-1,0.6
	c-4.2,0.3,3.9,5,18.9,11c9.5,3.8,10,4,14.2,6.4c1.5,0.9,2.8,1.6,2.9,1.6c0.1,0,0.4,0.3,0.7,0.7c0.3,0.4,0.7,0.7,1,0.7
	c0.3,0,1.3,0.8,2.4,1.8c1,1,2.1,1.6,2.3,1.5c0.2-0.1,0.3-0.1,0.2,0.1c-0.1,0.2,0.7,1.3,2,2.5c1.6,1.5,1.9,1.8,1.3,0.9
	c-0.5-0.7-1.3-1.6-1.8-2c-0.5-0.4-1-0.9-1-1c0-0.2,0.2-0.1,0.6,0.2s1,0.5,1.6,0.7c0.6,0.1,1.3,0.5,1.5,0.8c0.3,0.4,0.8,0.6,1.5,0.4
	c0.6-0.1,1,0,1,0.1c0,0.2,0.4,0.5,1,0.8c0.5,0.2,1,0.7,1,1c0,0.3,0.3,0.5,0.6,0.5c0.4,0,0.5-0.2,0.4-0.8c-0.2-0.7-0.2-0.8,0.6-0.4
	c0.7,0.4,0.9,0.4,1.2,0c0.2-0.4,0.6-0.3,1.5,0.1c1,0.5,1.3,0.5,1.4,0.1c0.3-0.9,1.4-1,2.3-0.4c0.8,0.5,0.9,0.5,1.2-0.3
	c0.5-1.7,1.9-2.1,2.6-0.8c0.4,0.7,1.3,0.7,1.5,0.1c0.1-0.3,0.6-0.2,1.5,0.5c0.7,0.5,1.2,0.7,1,0.4c-0.2-0.3-0.1-0.6,0.2-0.8
	c0.3-0.2,0.4-0.5,0.2-0.6c-0.2-0.2-0.4-0.1-0.6,0.2c-0.2,0.3-0.4,0.4-0.6,0.1c-0.1-0.2,0-0.5,0.2-0.6c0.4-0.2,0.4-0.3,0-0.5
	c-0.3-0.2-0.5-0.7-0.5-1.1c-0.1-1.8-0.2-2.5-0.5-2.5c-0.2,0-0.3-0.4-0.2-0.9c0.1-1-0.6-3-1.1-3c-0.3,0-0.6-0.6-1-2.1
	c-0.9-3.3-9.4-12.2-17-17.8c-2-1.5-9.5-5.7-10.4-5.9c-0.4-0.1-0.9-0.2-1-0.3c-0.5-0.5-2-1.2-2.5-1.2c-0.3,0-0.6-0.2-0.6-0.4
	C204.3,200.3,203.7,200.3,202.3,200.8 M59.8,228.3l0.9,1.1l-1.2-1c-1.5-1.2-2.6-2.8-1.4-1.9C58.6,227,59.4,227.7,59.8,228.3
	 M84,228.6c0,0.5-0.6,0.4-0.8-0.1c-0.1-0.3,0.1-0.4,0.3-0.3C83.8,228.3,84,228.5,84,228.6 M89.1,232.7c0,0.6,0.4,0.7,1.3,0.3
	c0.9-0.4,0.7-0.7-0.4-0.8C89.4,232.1,89.1,232.3,89.1,232.7 M87.7,233.3c-0.1,0.4-0.4,0.5-0.6,0.4c-0.2-0.1-0.2-0.5,0.1-0.8
	C87.7,232.3,88,232.5,87.7,233.3 M221.5,243c0.5,0.6,0.9,1.2,1,1.2c0.1,0-0.2-0.5-0.6-1.2c-0.5-0.6-0.9-1.2-1-1.2
	C220.7,241.8,221,242.3,221.5,243 M278.9,265.4c-0.7,0.5-1.5,0.9-1.7,0.7c-0.2-0.1-0.3-0.1-0.1,0.1c0.2,0.2-0.3,0.9-1,1.6
	c-1.3,1.4-2.4,1.8-1.4,0.6c0.4-0.6,0.4-0.6-0.3,0.1c-0.5,0.4-0.8,0.9-0.6,1.1c0.1,0.2,0.1,0.3-0.2,0.1c-0.4-0.3-10.2,7.4-10.2,8
	c0,0.2-0.1,0.3-0.3,0.2c-0.3-0.1-11.9,8.9-15.1,11.8c-0.7,0.6-0.9,0.8-0.5,0.5c1-0.8,0.9-0.1-0.2,0.8c-1,0.8-1.6,1-1.2,0.3
	c0.2-0.3,0.1-0.3-0.4,0.1c-0.4,0.3-0.6,0.6-0.5,0.8c0.3,0.3-1.8,2.4-2.3,2.4c-0.2,0-0.1-0.3,0.2-0.7c0.3-0.4-0.3-0.1-1.3,0.6
	c-1,0.7-1.9,1.4-1.9,1.6c0,0.2-3.6,3.5-8.1,7.3c-14.4,12.4-22.5,21.6-32,36c-2.2,3.3-3.9,6.2-3.7,6.4s0.1,0.3-0.1,0.1
	c-0.5-0.5-4,5.6-3.8,6.6c0.1,0.6-0.8,2-1.3,1.9c-0.2,0-0.4,0.8-0.5,1.9c-0.1,1.7-0.1,1.8,0.5,1.4c0.4-0.3,0.6-0.4,0.6-0.1
	c0,0.2,0.3,0.4,0.6,0.4c0.3,0,0.6,0.2,0.6,0.5c0,0.4,0.1,0.4,0.3,0c0.2-0.3,0.5-0.3,0.8-0.1c0.3,0.2,0.4,0.5,0.3,0.8
	c-0.4,0.6,0.5,0.5,1.2-0.2c0.8-0.8,2.2-0.8,2.9,0c0.3,0.3,0.6,0.5,0.8,0.4c0.4-0.2,1.6,0.8,1.5,1.3c-0.2,1,0.1,1.5,0.4,0.8
	c0.4-0.8,2-0.5,1.7,0.3c-0.1,0.3,0,0.6,0.2,0.8c0.2,0.1,0.4,0,0.3-0.3c-0.1-0.3,0.2-0.5,0.5-0.6c0.3,0,0.8-0.1,1.1-0.1
	c0.3,0,0.4-0.3,0.3-0.6c-0.1-0.4,0-0.6,0.4-0.6c0.3,0,0.5,0.2,0.4,0.4c-0.1,0.2,0,0.3,0.4,0.2c0.3-0.1,0.6,0,0.6,0.2
	c0,0.3,0.3,0.3,1,0c0.6-0.2,1.4-0.3,1.8-0.2c0.4,0.1,0.7,0,0.7-0.2c0-0.3,0.1-0.4,0.5,0c0.4,0.3,0.7,0.2,1.1-0.5
	c0.5-0.8,2.5-1.4,2-0.5c-0.1,0.2,0,0.3,0.4,0.1c0.3-0.1,0.8,0,1.1,0.3c0.3,0.3,0.8,0.6,1.1,0.5c0.6,0,0.6-0.1,0-0.5
	c-0.4-0.3-0.6-0.6-0.4-0.8c0.1-0.1,0.6,0,0.9,0.4c0.5,0.4,0.8,0.5,0.9,0.2c0.1-0.2,0-0.5-0.4-0.7c-0.3-0.1-0.6-0.4-0.6-0.6
	c0-0.2,0.2-0.3,0.4-0.2c0.6,0.4,1.7-0.2,1.4-0.9c-0.2-0.5-0.1-0.5,0.4-0.1c0.4,0.3,0.6,0.4,0.6,0c0-0.3,0.4-0.4,0.9-0.2
	c0.9,0.2,2.6-1,2.6-2c0-0.7,1.5-2.4,2-2.4c0.3,0,0.6-0.4,0.6-1c0.1-0.5,0.3-1.1,0.4-1.2c0.2-0.1,1.3-2.1,2.4-4.5
	c4.1-8.2,13.6-22.6,16.3-24.8c0.1-0.1,1-1.2,2-2.3c1-1.2,6.1-6.6,11.3-11.9c15.2-15.6,20.4-24.6,22.3-39
	C281,264.6,280.8,264,278.9,265.4 M221.1,356.6c0.3,0.2,0.5,0.5,0.4,0.6c-0.1,0.1-0.6,0-1-0.4C219.7,356.2,220.2,356,221.1,356.6
	 M195,359.9c-1,0.5-1.6,1.6-0.7,1.3c0.3-0.1,0.6-0.1,0.6,0.2s0.3,0.4,0.6,0.4c0.3,0,0.6-0.2,0.6-0.4s-0.2-0.4-0.4-0.4
	s-0.4-0.2-0.4-0.4c0-0.2,0.3-0.3,0.8-0.2c0.9,0.2,1.4-0.3,0.6-0.7c-0.3-0.1-0.6-0.2-0.7-0.2C195.9,359.4,195.5,359.7,195,359.9
	 M208.3,362.2c0.2,0.6,1.1,0.9,1.1,0.4c0-0.2-0.3-0.5-0.6-0.6C208.4,361.8,208.2,361.9,208.3,362.2"/>
<path id="path4" class="st3" d="M191.7,2.2c0.5,0.1,1.2,0.1,1.6,0c0.4-0.1,0-0.2-0.9-0.2C191.5,2.1,191.2,2.1,191.7,2.2 M188.3,2.9
	c-1.2,0.7-1,0.7,1,0c0.9-0.3,1.2-0.6,0.8-0.6C189.6,2.4,188.8,2.6,188.3,2.9 M194.5,2.6c0.3,0.1,1.1,0.5,1.7,0.8
	c0.6,0.3,1.1,0.5,1.1,0.3c0-0.3-2.2-1.4-2.8-1.4C194.1,2.4,194.1,2.5,194.5,2.6 M184.6,5.5l-2,2l2.1-1.9c1.2-1,2.2-1.9,2.3-2
	c0.1-0.1,0-0.1-0.1-0.1S185.8,4.4,184.6,5.5 M199.1,5.3c1.6,1.5,2.7,3.3,3.3,5.3c0.3,0.8,0.3,0.9,0.3,0.2c0.1-1.2-2.3-4.8-3.9-6
	C197.6,3.8,197.6,3.8,199.1,5.3 M182.1,8.8c-0.2,0.5-0.4,1.3-0.4,1.7c0,0.4,0.3,0,0.6-0.9C182.9,7.8,182.8,7.3,182.1,8.8
	 M181.3,12.7c0,0.9,0.1,1.2,0.2,0.7c0.1-0.5,0.1-1.2,0-1.6C181.4,11.4,181.3,11.8,181.3,12.7 M199.6,20c-1.6,1.9-1.7,2-0.3,0.7
	c1.2-1.1,2.5-2.8,2.1-2.7C201.4,18,200.6,18.9,199.6,20 M184.2,20.3c1,1.1,3.3,2.5,3.6,2.2c0.1-0.1,0-0.2-0.2-0.2
	c-0.2,0-1.3-0.6-2.3-1.4C184.2,20.1,183.7,19.8,184.2,20.3 M191.3,23.7c0.5,0.1,1.2,0.1,1.6,0c0.4-0.1,0-0.2-0.9-0.2
	C191.1,23.5,190.8,23.6,191.3,23.7 M168.9,27.2c32.7,0.3,57.6,0.3,57.6,0c0-0.2-15.8-0.3-35.1-0.2C172.2,27.1,162.1,27.2,168.9,27.2
	 M159.4,33.2c1.1,2.1,2,3.9,2.2,3.9c0.1,0-0.7-1.8-1.8-3.9c-1.1-2.1-2-3.9-2.2-3.9S158.3,31.1,159.4,33.2 M166.4,46.9
	c0.4,0.9,0.9,1.6,1,1.6c0.1,0-0.2-0.7-0.6-1.6c-0.4-0.9-0.9-1.6-1-1.6C165.7,45.3,166,46,166.4,46.9 M134.3,53.9
	c0.4,0.3,0.4,0.4-0.2,0.8c-0.4,0.2-0.5,0.4-0.3,0.4c0.5,0,1.3-0.8,1.3-1.2c0-0.2-0.3-0.3-0.7-0.3C133.9,53.5,133.9,53.6,134.3,53.9
	 M174.8,62.9c0.3,0.6,0.7,1.2,0.8,1.2c0.1,0-0.1-0.5-0.4-1.2c-0.3-0.6-0.7-1.2-0.8-1.2C174.3,61.7,174.5,62.2,174.8,62.9
	 M118.2,66.1l-2.7,2.8l2.8-2.7c2.6-2.5,3-2.9,2.7-2.9C120.9,63.3,119.7,64.6,118.2,66.1 M180.2,72.6c0.2,0.3-0.3,0.5-1.2,0.6
	l-1.5,0.2l1.7,0.1c1.6,0.1,2.1-0.4,1.2-0.9C180.1,72.3,180.1,72.3,180.2,72.6 M202.3,73.1c0,0.2,2.2,0.3,5,0.2
	c5.1-0.1,4.5-0.2-1.6-0.4C203.9,72.9,202.3,73,202.3,73.1 M218.4,72.8c0,0.1,0.5,0.2,1.2,0.3c0.6,0.1,1.1,0,1-0.2
	C220.3,72.7,218.4,72.5,218.4,72.8 M162.6,73.6c-0.1,0.3-0.1,0.8,0,1.1c0.1,0.3,0.2,0.1,0.2-0.3s0.3-0.9,0.7-1
	c0.6-0.2,0.6-0.2,0-0.2C163.2,73.1,162.8,73.3,162.6,73.6 M162.2,77.3c0,0.8,0.1,1.1,0.2,0.7c0.1-0.4,0.1-1,0-1.4
	C162.3,76.3,162.2,76.6,162.2,77.3 M290.4,79.7c1.1,1.1,2,2,2.1,2c0.1,0-0.7-0.9-1.7-2c-1.1-1.1-2-2-2.1-2
	C288.6,77.7,289.4,78.6,290.4,79.7 M161.2,81.9c-0.1,0.6-0.2,1.1-0.1,1.2c0.1,0.1,0.3-0.3,0.4-0.9c0.1-0.6,0.2-1.1,0.1-1.2
	C161.5,80.9,161.3,81.3,161.2,81.9 M160.6,84c0,0.3,0.5,1,1,1.6l1.1,0.9l-0.8-1c-0.5-0.5-0.9-1.2-1-1.6
	C160.6,83.5,160.6,83.5,160.6,84 M220.9,86.4l-1.5,1.7l1.7-1.5c1.5-1.4,1.8-1.8,1.5-1.8C222.5,84.8,221.7,85.5,220.9,86.4
	 M163.3,86.8c0,0.1,0.6,0.6,1.3,1.3l1.3,1.1l-1.1-1.3C163.6,86.8,163.3,86.5,163.3,86.8 M312.1,93.9c7,7.3,7.6,7.9,4.8,4.7
	c-1.3-1.5-4.1-4.4-6.2-6.4C307.7,89.3,308,89.7,312.1,93.9 M218.2,95.7c1.7,1.7,3.2,3.1,3.3,3.1c0.1,0-1.2-1.4-2.9-3.1
	c-1.7-1.7-3.2-3.1-3.3-3.1C215.1,92.6,216.5,94,218.2,95.7 M163.7,97.6l-4.5,4.6l4.6-4.5c4.3-4.2,4.8-4.7,4.5-4.7
	C168.2,93,166.1,95,163.7,97.6 M104,95.3c0,1,0.1,1.4,0.2,0.9c0.1-0.5,0.1-1.3,0-1.8C104.1,93.9,104,94.3,104,95.3 M224,102
	c0.8,0.9,1.6,1.6,1.7,1.6c0.1,0-0.5-0.7-1.3-1.6c-0.8-0.9-1.6-1.6-1.7-1.6C222.6,100.4,223.2,101.1,224,102 M320.4,103
	c0.8,0.9,2.6,3.2,4,5.2c1.4,2,2.7,3.6,2.8,3.6c0.5,0-5.9-8.4-7.3-9.6C319.4,101.7,319.6,102.1,320.4,103 M104,108.2
	c0,0.8,0.1,1.1,0.2,0.7c0.1-0.4,0.1-1,0-1.4C104.1,107.1,104,107.5,104,108.2 M258.3,110.4c0.1,0.7,0,1.2-0.3,1.2
	c-0.2,0-0.8,0.1-1.3,0.1c-0.5,0.1-2.2,1.5-4.1,3.6c-1.8,1.9-4.7,5-6.6,6.9c-1.8,1.9-3.8,4-4.3,4.6c-0.5,0.7-1.1,1.2-1.2,1.2
	c-0.2,0-1.1,0.8-2.1,1.8c-1,1-2,1.8-2.3,1.8s-0.5,0.2-0.6,0.5c0,0.3-1,1.8-2.1,3.4c-1.1,1.6-3.3,5-4.7,7.5
	c-8.3,14.5-22.2,27.7-38,36.4c-7.6,4.2-7.5,4.1-7.2,4.8c0.1,0.4,0.1,0.5,0,0.4c-0.1-0.1-1,0.5-1.9,1.4c-2.2,2.1-3.8,3.4-3.8,3.1
	c0-0.1-0.5,0.2-1.1,0.7c-1.4,1.2-3.5,2.7-4.9,3.5c-0.6,0.3-1.7,1.1-2.3,1.8c-0.7,0.7-1.4,1.3-1.6,1.3c-0.2,0-1,0.7-1.8,1.6
	c-1.1,1.3-1.8,1.7-3.1,1.9c-2.5,0.4,8.7,0,12.4-0.5c5.9-0.8,17.9-3.4,17.5-3.8c-0.1-0.1-0.9,0-1.7,0.2c-2.9,0.8-3.4,0.1-1.2-1.7
	c0.7-0.5,2.3-2,3.6-3.2c1.3-1.2,2.5-2.2,2.8-2.2s1.8-1.3,3.5-2.9c1.7-1.6,3.2-2.9,3.3-2.9c0.1,0,1-0.8,2-1.9c1-1,2.5-2.4,3.3-3
	c0.8-0.6,2-1.6,2.6-2.1c0.6-0.5,2-1.8,3.1-2.7c1.1-1,3.3-3,4.9-4.5c2.7-2.7,5.6-5.2,8.9-8c0.9-0.8,2.1-1.9,2.6-2.5
	c0.6-0.6,1.2-1.3,1.4-1.5c1.8-1.4,3.9-3.3,6.2-5.5c1.5-1.4,3.6-3.3,4.6-4.1c1-0.8,2.7-2.3,3.8-3.3c1.1-1,2.4-1.9,2.7-2
	c0.4-0.1,0.9-0.5,1.2-0.9c0.3-0.3,0.7-0.6,1-0.6c0.3,0,1.3-0.8,2.3-1.8c1.1-1.1,2-1.7,2.3-1.5c0.3,0.2,0.4,0.1,0.2-0.4
	c-0.1-0.4-0.1-0.6,0.1-0.6s0.5-0.5,0.7-1.1c0.6-1.6,0.5-0.2-0.1,2.2c-0.6,2.3-0.7,3.4-0.2,2.1c2.5-6.3,3.9-26.7,2-29.7
	C258.2,109.3,258.2,109.4,258.3,110.4 M328.8,114.4c1.6,2.4,2.5,4,1.4,2.5c-1.8-2.5-4.2-4.6-3-2.7c0.2,0.3,0.1,0.4-0.3,0.2
	c-0.4-0.2-0.6,0.1-0.6,1.1c0,0.7,0.1,1.3,0.3,1.3c0.3,0,0.3,0.8,0.1,2.1c0,0.2-0.3,0.3-0.7,0.3c-0.5,0-0.5,0.1-0.1,0.6
	c0.3,0.4,0.3,0.6,0.1,0.6c-0.2,0-0.5,0.4-0.7,0.8c-0.1,0.4-0.6,0.8-1,0.8c-0.4,0-0.8,0.2-0.8,0.4c0,0.2-0.4,0.5-0.8,0.6
	c-0.4,0.1-0.7,0.4-0.6,0.6c0.3,0.5-0.1,0.5-1,0c-0.5-0.3-0.8-0.3-0.8,0c0,0.6-1,1.6-1.3,1.2c-0.1-0.1-0.1,0.1,0,0.5
	c0.2,0.6,0.1,0.7-0.4,0.5c-0.6-0.2-0.8,0.1-0.7,1c0,0.2-2.9,1.9-3.4,1.9c-0.1,0,0-0.2,0.1-0.5c0.2-0.3,0.1-0.3-0.2-0.2
	c-0.2,0.2-0.5,0.7-0.5,1.2c0,1.1-0.8,1.8-0.8,0.7c0-0.4-0.2-0.2-0.6,0.6c-0.3,0.7-1,1.7-1.6,2.3c-0.6,0.5-1,1.1-1,1.3
	c0.1,0.2-0.1,0.3-0.4,0.2c-0.3-0.1-0.5,0.4-0.4,1.7l0.1,1.8l-0.6-1.1c-0.3-0.6-0.7-1.1-0.8-1.1c-0.2,0,0,0.4,2.9,7.7
	c6.7,16.7,9.6,30.9,9.6,46.4c0,10.1,0,9.8-2,19.3l-0.2,1l0.4-0.9c0.7-1.7,2.3-11.4,2.4-14.6c0.1-3.1,0.1-3.2,0.2-0.6
	c0.1,2.6,0.1,2.6,1.2,2.4c0.8-0.1,1.1-0.4,1-1c-0.1-1,0.5-2.2,1.3-2.9c0.3-0.2,0.6-1,0.7-1.6c0.1-1.2,2.5-4,3.5-4
	c0.3,0,0.5-0.2,0.4-0.5c-0.1-0.4,0.7-1.6,1.2-1.7c0.1,0,0.5-0.2,0.8-0.3c0.7-0.3,0.8-1.5,0.1-1.2c-0.3,0.1-0.5-0.1-0.5-0.4
	c0-0.3,0.4-0.6,0.8-0.6s1.1-0.3,1.4-0.8c0.5-0.6,0.8-0.7,1.2-0.3c0.4,0.3,0.5,0.3,0.3-0.2c-0.2-0.4,0-0.6,0.4-0.6
	c0.4,0,0.5-0.2,0.4-0.6c-0.2-0.5,0-0.6,1.1-0.4c0.7,0.1,1.1,0.1,0.8,0c-0.3-0.1-0.5-0.4-0.5-0.6c0-0.2,0.3-0.2,0.8,0.1
	c0.6,0.3,0.9,0.3,1.4-0.2c0.3-0.3,0.5-0.6,0.4-0.6c-0.1,0,0-0.2,0.3-0.6c0.3-0.3,0.7-0.4,0.9-0.2c0.2,0.2,0.7,0.2,1.1-0.1
	c0.4-0.2,0.9-0.3,1.2-0.1c0.3,0.2,0.8,0.2,1.2,0.2c0.6-0.1,0.7,0,0.3,0.4c-0.4,0.5-0.3,0.7,0.3,1.3c0.6,0.6,0.7,0.8,0.3,1.5
	c-0.4,0.8-0.4,0.8,0.2,0.3c0.6-0.5,0.7-0.5,0.6,0.2c-0.1,0.4,0,1,0.1,1.3c0.1,0.3,0.3,1,0.4,1.6c0.1,0.5,0.2-0.9,0.3-3.1l0.1-4.1
	l0.3,4.9c0.2,2.9,0.2,0.1,0.1-7c-0.1-16.2-1.8-26.2-6-36.7c-1.7-4.3-2-5.3-0.8-3c0.4,0.8,0.9,1.5,1,1.5c0.1,0-0.4-1-1.1-2.3
	c-0.7-1.3-1.4-2.2-1.7-2.1c-0.2,0.1-0.3,0-0.1-0.2c0.5-0.8-6.9-13.6-7.7-13.1c-0.3,0.2-0.3,0.1-0.1-0.2c0.3-0.4-3-5.9-3.5-5.9
	C327.4,112.1,328,113.1,328.8,114.4 M54.1,160.4c0.4,0.7,1,1.6,1.4,2.1l0.8,1l-0.7-1.2c-0.4-0.7-1-1.6-1.4-2.1l-0.8-1L54.1,160.4
	 M245.1,162.4c-0.6,0.8-0.9,1.3-0.7,1.2c0.5-0.3,2.2-2.6,1.9-2.6C246.3,160.9,245.7,161.6,245.1,162.4 M57.5,165.5
	c2.6,3.9,10.3,12.2,14.6,15.9c1.3,1.1-0.4-0.7-3.7-4c-3.3-3.3-7.3-7.8-8.9-9.9C56.4,163.5,55.4,162.4,57.5,165.5 M242.7,165.3
	l-1.1,1.3l1.3-1.1c0.7-0.6,1.3-1.2,1.3-1.3C244.1,163.9,243.8,164.1,242.7,165.3 M238.1,170.4l-3.5,3.6l3.6-3.5
	c3.4-3.3,3.8-3.7,3.5-3.7C241.6,166.8,240,168.4,238.1,170.4 M56.7,175.6c0,0.2,0.3,0.8,0.6,1.4c0.3,0.5,0.6,0.8,0.6,0.6
	s-0.3-0.8-0.6-1.4C56.9,175.6,56.7,175.4,56.7,175.6 M77.7,185.7c0,0.1,0.5,0.6,1.2,1c0.6,0.5,1.2,0.7,1.2,0.6c0-0.1-0.5-0.6-1.2-1
	C78.3,185.9,77.7,185.6,77.7,185.7 M305.6,188.7c0,1.8,0.1,2.6,0.1,1.7s0.1-2.4,0-3.3C305.7,186.1,305.6,186.8,305.6,188.7
	 M21.2,187.1c0,0.8,0.1,1.1,0.2,0.7c0.1-0.4,0.1-1,0-1.4C21.3,186.1,21.2,186.4,21.2,187.1 M347,188.7c0,1.4,0.1,2,0.2,1.3
	c0.1-0.7,0.1-1.8,0-2.5C347.1,186.7,347,187.3,347,188.7 M20.8,191c0,1.2,0.1,1.7,0.2,1.1c0.1-0.6,0.1-1.6,0-2.1
	C20.9,189.4,20.8,189.8,20.8,191 M256.8,191.5c-0.3,0.5-0.8,0.6-1.2,0.5c-0.4-0.2-0.9,0-1.4,0.5c-0.4,0.4-1.1,0.8-1.7,0.8
	c-0.5,0-1.1,0.2-1.4,0.5c-0.2,0.3-0.9,0.5-1.4,0.5c-0.6,0-1.5,0.4-2.1,0.8c-0.6,0.5-1.3,0.7-1.5,0.6c-0.2-0.1-0.5-0.1-0.6,0.1
	c-0.1,0.2-0.9,0.5-1.8,0.6s-1.6,0.4-1.6,0.7s-0.2,0.3-0.4,0.2s-0.6-0.1-0.9,0.1c-0.3,0.2-0.6,0.3-0.8,0.4c-0.2,0-0.3,0.1-0.4,0.1
	s-0.4,0.1-0.8,0.2c-1.1,0.2-3,1.1-3,1.5c0,0.2-0.2,0.3-0.5,0.3c-0.8,0-3.5,1.3-3.5,1.7c0,0.2-0.3,0.3-0.6,0.1
	c-0.3-0.1-0.5-0.1-0.4,0.2c0.1,0.2-0.2,0.4-0.8,0.4c-0.5,0-1,0.2-1,0.4c0,0.2-0.2,0.4-0.4,0.4c-0.2,0-0.7,0.3-1,0.6
	c-0.3,0.3-1.1,0.6-1.8,0.6c-2,0-6.6,1.3-7.4,2c-0.7,0.7,0.9,3,2.1,3c0.5,0,6.1,5,8.3,7.2c5.4,5.6,10.3,13,12.3,18.2
	c0.8,2.1,1.6,3.6,1.6,3.1c0-0.1-0.3-0.9-0.6-1.6c-0.3-0.8-0.6-1.5-0.6-1.6c0-0.1,0.3-0.1,0.6,0c0.3,0.1,0.6,0,0.6-0.2
	c0-0.3,0.3-0.3,0.8,0.1c0.5,0.3,1.1,0.5,1.4,0.4c0.3-0.1,0.5,0,0.5,0.2c0,0.3,0.4,0.3,1.2,0c0.7-0.2,1.3-0.3,1.4-0.2
	c0.1,0.1,0.7-0.3,1.3-0.8c1-0.9,2.1-1.2,3.2-1c0.2,0,0.6-0.3,0.9-0.7c0.3-0.4,0.9-0.8,1.3-0.8c0.4,0,0.8-0.3,0.9-0.6
	c0.1-0.3,0.4-0.6,0.7-0.6c0.2,0,0.3,0.3,0.2,0.6c-0.2,0.5,0,0.4,0.9-0.2c0.6-0.4,1.3-0.8,1.6-0.8c0.2,0,0.3-0.2,0.2-0.4
	c-0.2-0.3,0.1-0.4,0.7-0.3c1.6,0.1,2.7,0,2.5-0.3c-0.2-0.3,0.1-0.3,2.2-0.5c0.5,0,1.2-0.5,1.6-1.2c0.5-0.8,0.8-1,1-0.6
	c0.3,0.5,0.3,0.4,0.5-0.6c0-0.3,0.3-0.4,0.6-0.3c1.9,0.5,2.7,0.4,2.7-0.3c0-0.4,0.2-0.9,0.4-1.3c0.3-0.5,0.4-0.5,0.2,0.2
	c-0.2,0.6-0.1,0.7,0.3,0.3c0.3-0.2,0.6-0.3,0.8-0.2c0.1,0.1,0.3-0.1,0.3-0.5s0.1-0.5,0.2-0.3c0.1,0.3,0.6,0.2,1.5-0.3
	c1.4-0.8,1.5-0.8,1.8,1c0.1,0.4,0.4,0.7,0.6,0.7c0.3-0.1,0.6,0.4,0.7,0.9c0.1,0.5,0.3,0.9,0.4,0.8c0.3-0.3-1.1-4.9-1.5-4.7
	c-0.2,0.1-0.2-0.1-0.1-0.5c0.8-3-9.1-23.4-13.3-27.5c-0.8-0.7-1.4-1.5-1.4-1.8c0-0.2-0.2-0.4-0.5-0.4s-0.7-0.2-1-0.5
	C260.2,190.6,257.4,190.7,256.8,191.5 M346.6,192.8c0,0.9,0.1,1.2,0.2,0.7c0.1-0.5,0.1-1.2,0-1.6
	C346.7,191.5,346.6,191.9,346.6,192.8 M359.1,192.8c0,0.9,0.1,1.2,0.2,0.7c0.1-0.5,0.1-1.2,0-1.6
	C359.2,191.5,359.1,191.9,359.1,192.8 M68.4,194.7c0.7,0.8,1.4,1.4,1.5,1.4c0.1,0-0.4-0.6-1.1-1.4s-1.4-1.4-1.5-1.4
	C67.1,193.4,67.6,194,68.4,194.7 M195.1,194.9c-1.1,0.4-1.7,0.7-1.4,0.7s1.5-0.3,2.5-0.7c1.1-0.4,1.7-0.7,1.4-0.7
	C197.3,194.2,196.2,194.5,195.1,194.9 M20.5,198.2c0,1.9,0.1,2.8,0.1,1.9c0.1-0.9,0.1-2.5,0-3.5C20.5,195.6,20.5,196.3,20.5,198.2
	 M93.6,195.3c0.5,0.5,6.9,3.3,7,3.1c0.1-0.1-1.6-0.9-3.6-1.8C94.9,195.6,93.4,195.1,93.6,195.3 M305.6,197.3c0,1.2,0.1,1.7,0.2,1.1
	c0.1-0.6,0.1-1.6,0-2.1C305.7,195.6,305.6,196.1,305.6,197.3 M359.5,197.5c0,1.1,0.1,1.5,0.2,0.9c0.1-0.6,0.1-1.5,0-2
	C359.6,195.9,359.5,196.4,359.5,197.5 M74,200.4c1.3,1.3,2.4,2.3,2.5,2.3c0.1,0-0.8-1.1-2.1-2.3c-1.3-1.3-2.4-2.3-2.5-2.3
	C71.8,198,72.7,199.1,74,200.4 M109.6,201.8c0.6,0.3,1.4,0.5,1.8,0.5c0.3,0,0-0.2-0.8-0.5C108.8,201.1,108.1,201.1,109.6,201.8
	 M344.7,203.7c-0.1,1-0.2,1.9-0.1,2c0.1,0.1,0.3-0.6,0.4-1.6c0.1-1,0.2-1.9,0.1-2C345.1,202,344.9,202.7,344.7,203.7 M112.7,202.7
	c0.4,0.2,1,0.3,1.4,0.3c0.4,0,0.3-0.1-0.2-0.3c-0.4-0.2-1-0.3-1.4-0.3C112.1,202.4,112.2,202.5,112.7,202.7 M359.9,207.8
	c0,2.9,0.1,4.1,0.1,2.6c0.1-1.5,0.1-3.8,0-5.3C360,203.7,359.9,204.9,359.9,207.8 M20.8,204.9c0,1.1,0.1,1.5,0.2,0.9
	c0.1-0.6,0.1-1.5,0-2C20.9,203.3,20.8,203.8,20.8,204.9 M132.5,206.9c0.4,0.1,1,0.1,1.4,0c0.4-0.1,0.1-0.2-0.7-0.2
	S132.1,206.8,132.5,206.9 M21.2,208.2c0,0.8,0.1,1.1,0.2,0.7c0.1-0.4,0.1-1,0-1.4C21.3,207.1,21.2,207.5,21.2,208.2 M135.8,207.3
	c0.5,0.1,1.2,0.1,1.6,0c0.4-0.1,0-0.2-0.9-0.2C135.7,207.1,135.4,207.2,135.8,207.3 M139.6,207.7c0.6,0.1,1.5,0.1,2,0
	c0.5-0.1,0-0.2-1.1-0.2C139.4,207.5,139,207.6,139.6,207.7 M157,207.7c0.3,0.1,0.9,0.6,1.3,1.1l0.7,0.8l-0.6-1
	c-0.3-0.5-0.9-1-1.3-1.1C156.7,207.5,156.6,207.5,157,207.7 M146.8,208.1c1.8,0.1,4.6,0.1,6.2,0c1.7-0.1,0.2-0.1-3.2-0.1
	C146.4,208,145,208,146.8,208.1 M343.6,209.6c-0.1,0.8-0.2,1.5-0.1,1.6c0.1,0.1,0.3-0.5,0.4-1.3c0.1-0.8,0.2-1.5,0.1-1.6
	C343.9,208.2,343.7,208.8,343.6,209.6 M87.5,210c0,0.3,4.7,2.6,4.9,2.4c0.1-0.1-1-0.7-2.4-1.4C88.6,210.3,87.5,209.9,87.5,210
	 M159.8,210.9c0.5,0.6,0.9,1.2,1,1.2c0.1,0-0.2-0.5-0.6-1.2c-0.5-0.6-0.9-1.2-1-1.2C159,209.8,159.3,210.3,159.8,210.9 M317.3,212.8
	c-0.2,0.8-0.4,1.5-0.3,1.6s0.4-0.5,0.6-1.3s0.4-1.5,0.3-1.6C317.8,211.4,317.5,212,317.3,212.8 M162.1,213.8c0.8,0.8,2.1,2,2.9,2.7
	c1.8,1.4,1.3,0.8-2-2.1C161.6,213.1,161.2,212.8,162.1,213.8 M359.5,217.4c0,0.9,0.1,1.2,0.2,0.7c0.1-0.5,0.1-1.2,0-1.6
	C359.5,216.1,359.5,216.5,359.5,217.4 M167.2,218.1c0.5,0.6,2,1.6,2,1.3c0-0.1-0.6-0.6-1.3-1.1C167.1,217.8,166.8,217.7,167.2,218.1
	 M302.2,219.7c-0.1,0.8-0.2,1.5-0.1,1.6c0.1,0.1,0.3-0.5,0.4-1.3c0.1-0.8,0.2-1.5,0.1-1.6C302.5,218.4,302.3,219,302.2,219.7
	 M314.3,220.1c-0.9,1.9-0.8,2.3,0.2,0.4c0.4-0.8,0.7-1.6,0.6-1.7C315.1,218.8,314.7,219.4,314.3,220.1 M340.3,221.5
	c-0.3,0.9-0.4,1.7-0.3,1.8c0.1,0.1,0.4-0.6,0.6-1.4c0.3-0.9,0.4-1.7,0.3-1.8C340.8,220,340.5,220.6,340.3,221.5 M359.1,222.1
	c0,1.1,0.1,1.5,0.2,0.9c0.1-0.6,0.1-1.5,0-2C359.2,220.5,359.1,221,359.1,222.1 M312.7,223.5c-0.3,0.7-0.6,1.3-0.5,1.4
	c0.1,0.1,0.4-0.5,0.8-1.2C313.8,221.9,313.5,221.8,312.7,223.5 M178.5,224.4c0.5,0.3,1.2,0.6,1.4,0.6c0.2,0,0-0.3-0.6-0.6
	c-0.5-0.3-1.2-0.6-1.4-0.6C177.7,223.9,178,224.1,178.5,224.4 M142.8,230.5c1.1,1.1,2,2,2.1,2c0.1,0-0.7-0.9-1.7-2
	c-1.1-1.1-2-2-2.1-2S141.7,229.4,142.8,230.5 M197.3,231.8c0,0.1,0.9,0.6,2,1.2c1.1,0.5,2,0.9,2,0.8c0-0.1-0.9-0.6-2-1.2
	C198.1,232.1,197.3,231.7,197.3,231.8 M306.6,233.6c-0.5,0.6-0.7,1.2-0.6,1.2c0.1,0,0.6-0.5,1-1.2c0.5-0.6,0.7-1.2,0.6-1.2
	C307.6,232.4,307.1,232.9,306.6,233.6 M304.3,236.7c-0.7,0.9-1.1,1.6-1,1.6c0.1,0,0.8-0.7,1.4-1.6c0.7-0.9,1.1-1.6,1-1.6
	C305.6,235.2,305,235.9,304.3,236.7 M35.9,238.4c0,0.1,0.6,0.6,1.3,1.3l1.3,1.1l-1.1-1.3C36.3,238.4,35.9,238.1,35.9,238.4
	 M210.5,241.2c1.4,1.4,2.6,2.5,2.7,2.5c0.1,0-0.9-1.1-2.3-2.5c-1.4-1.4-2.6-2.5-2.7-2.5C208.1,238.7,209.2,239.8,210.5,241.2
	 M281,240c0,0.9,0.1,1.2,0.2,0.7c0.1-0.5,0.1-1.2,0-1.6C281,238.8,281,239.2,281,240 M300.2,242.1c-0.8,1-1.3,1.7-1.1,1.6
	c0.5-0.3,3-3.4,2.7-3.4C301.7,240.2,301,241.1,300.2,242.1 M188.9,244.1c0.8,0.9,1.6,1.6,1.7,1.6c0.1,0-0.5-0.7-1.3-1.6
	c-0.8-0.9-1.6-1.6-1.7-1.6C187.4,242.6,188,243.3,188.9,244.1 M330.7,244.1c-0.3,0.6-0.5,1.2-0.4,1.2c0.1,0,0.5-0.5,0.8-1.2
	c0.3-0.6,0.5-1.2,0.4-1.2C331.4,243,331,243.5,330.7,244.1 M281.3,244.7c0,0.9,0.1,1.2,0.2,0.7c0.1-0.5,0.1-1.2,0-1.6
	C281.4,243.5,281.3,243.9,281.3,244.7 M170.9,247.4l-3.1,3.2l3.2-3.1c3-2.9,3.4-3.3,3.1-3.3C174.1,244.1,172.6,245.6,170.9,247.4
	 M296.9,245.9c-0.9,1-1.6,1.8-1.5,1.8c0.1,0,1-0.8,1.9-1.8c0.9-1,1.6-1.8,1.5-1.8C298.7,244.1,297.8,244.9,296.9,245.9 M293.5,248.1
	c-0.5,0.8-0.7,1.4-0.5,1.3c0.4-0.3,1.6-2.5,1.5-2.7C294.4,246.6,293.9,247.2,293.5,248.1 M281.8,250.8c0,1.8,0.1,2.6,0.1,1.7
	c0.1-0.9,0.1-2.4,0-3.3C281.8,248.2,281.8,249,281.8,250.8 M327.9,248.8c-0.3,0.6-0.5,1.2-0.4,1.2c0.1,0,0.5-0.5,0.8-1.2
	c0.3-0.6,0.5-1.2,0.4-1.2C328.6,247.7,328.3,248.2,327.9,248.8 M294,249.2c-0.6,0.6-1.2,1.1-1.4,1c-0.2-0.1-0.5,0.2-0.8,0.6
	c-0.4,0.7-0.4,0.8,0.3,0.4c0.8-0.4,3.5-3.2,3.2-3.2C295.2,248,294.6,248.6,294,249.2 M62.8,250.3c1.1,0.1,2.9,0.1,3.9,0
	c1-0.1,0.1-0.1-2.1-0.1C62.5,250.1,61.7,250.2,62.8,250.3 M166.2,252.4l-1.1,1.3l1.3-1.1c1.2-1.1,1.4-1.4,1.1-1.4
	C167.4,251.2,166.8,251.7,166.2,252.4 M153.3,256.6c0,1.6,0.1,2.3,0.2,1.5c0.1-0.8,0.1-2.1,0-2.9C153.3,254.4,153.3,255,153.3,256.6
	 M163.5,255.6l-1.1,1.3l1.3-1.1c1.2-1.1,1.4-1.4,1.1-1.4C164.7,254.3,164.1,254.9,163.5,255.6 M75.5,256.8l0,1.6l0.4-1.3
	c0.2-0.8,0.3-1.4,0-1.6C75.7,255.3,75.6,255.8,75.5,256.8 M282.2,258.4c0,1.7,0.1,2.4,0.2,1.5c0.1-0.9,0.1-2.3,0-3.1
	C282.2,255.9,282.2,256.7,282.2,258.4 M321.9,258.2c-0.5,0.6-0.7,1.2-0.6,1.2c0.1,0,0.6-0.5,1-1.2c0.5-0.6,0.7-1.2,0.6-1.2
	C322.8,257,322.3,257.6,321.9,258.2 M195.1,262.5c0,2,0.1,2.9,0.1,1.9c0.1-1,0.1-2.7,0-3.7C195.1,259.6,195.1,260.5,195.1,262.5
	 M157.2,262.6l-1.9,2.1l2.1-1.9c1.1-1.1,2.1-2,2.1-2.1C159.4,260.4,159,260.7,157.2,262.6 M222.4,266.2c0,0.9,0.1,1.2,0.2,0.7
	c0.1-0.5,0.1-1.2,0-1.6C222.4,265,222.4,265.4,222.4,266.2 M313.1,269.2l-1.5,1.7l1.7-1.5c1.5-1.4,1.8-1.8,1.5-1.8
	C314.7,267.6,313.9,268.3,313.1,269.2 M150,269.4c-0.7,1.6-0.2,1.6,1.2,0.1c1.1-1.2,1.1-1.2,0.1-0.4c-1.1,1-1.1,1-0.9,0.1
	C150.9,268,150.6,268.1,150,269.4 M81.3,270.9c-0.7,1.4-0.5,1.7,0.2,0.4c0.3-0.6,0.5-1.2,0.4-1.3C81.8,270,81.6,270.4,81.3,270.9
	 M247.7,271.9c0,0.8,0.1,1.1,0.2,0.7c0.1-0.4,0.1-1,0-1.4C247.8,270.8,247.7,271.1,247.7,271.9 M68.6,274c-0.8,1.6-1.4,2.9-1.3,2.9
	c0.3,0,3-5.5,2.8-5.7C70.1,271.2,69.4,272.4,68.6,274 M309,273.7l-2.5,2.6l2.6-2.5c1.5-1.4,2.6-2.6,2.6-2.6
	C311.7,270.9,311.3,271.3,309,273.7 M222.4,276.6c0,0.8,0.1,1.1,0.2,0.7c0.1-0.4,0.1-1,0-1.4C222.4,275.5,222.4,275.8,222.4,276.6
	 M297.5,285l-3.9,3.7l3.6-3.2c3.3-2.9,4.8-4.4,4.4-4.3C301.4,281.3,299.6,283,297.5,285 M60.4,289.5c-0.3,0.6-0.5,1.2-0.4,1.2
	c0.1,0,0.5-0.5,0.8-1.2c0.3-0.6,0.5-1.2,0.4-1.2C61,288.3,60.7,288.8,60.4,289.5 M290.2,291.3l-1.3,1.5l1.5-1.3
	c1.4-1.3,1.6-1.6,1.3-1.6C291.6,289.8,291,290.5,290.2,291.3 M340.7,292.6c0,0.8,0.1,1.1,0.2,0.7c0.1-0.4,0.1-1,0-1.4
	C340.8,291.5,340.7,291.8,340.7,292.6 M286.3,294.6l-2.1,2l2.2-1.8c2-1.6,2.5-2.1,2.1-2.1C288.5,292.6,287.5,293.5,286.3,294.6
	 M340.3,295.9c0,0.9,0.1,1.2,0.2,0.7c0.1-0.5,0.1-1.2,0-1.6C340.4,294.6,340.3,295,340.3,295.9 M70.4,295.9
	c-0.7,1.4-0.5,1.7,0.2,0.4c0.3-0.6,0.5-1.2,0.4-1.3C70.9,295,70.6,295.4,70.4,295.9 M276.2,303c-19.3,16.5-34.1,33.6-41.7,48.4
	c-0.5,1.1-0.5,1.1,0,0.7c0.5-0.4,0.6-0.4,0.5,0.2c0,0.4,0.2,0.7,0.6,0.6c0.4,0,0.6,0.1,0.5,0.3c-0.1,0.2,0.1,0.5,0.4,0.6
	c0.4,0.2,0.5,0.3,0.2,0.5c-0.6,0.4-0.1,1.6,0.6,1.3c0.6-0.2,0.8,0.5,0.2,0.8c-0.2,0.1-0.4,0.4-0.4,0.6c0,0.2,0.2,0.3,0.5,0.1
	c0.3-0.2,0.4-0.1,0.2,0.4c-0.2,0.4-0.1,0.6,0.3,0.6c0.3,0,0.7,0.7,1,1.5c0.2,0.8,0.7,1.8,1,2.2c1.3,1.7,2.5,3.7,2.3,3.8
	c-0.1,0.1,0.2,0.4,0.6,0.6c0.4,0.2,0.8,0.6,0.8,0.8s0.6,1,1.3,1.7c3.5,3.6,4.1,4.4,4.4,5.2c0.1,0.5,0.5,0.9,0.8,1.1
	c0.3,0.1,0.6,0.4,0.6,0.6c0,0.4,0.4,0.9,1.7,2.4c0.4,0.4,0.7,0.8,0.7,0.9c0,0.1,0.6,0.8,1.4,1.6c0.7,0.8,1.2,1.6,1.1,1.8
	c-0.1,0.2,0,0.3,0.2,0.1c0.3-0.2,0.5,0,0.5,0.4c0,0.3,0.2,0.5,0.4,0.4c0.2-0.1,0.4-0.1,0.4,0.2c0.1,0.9,0.2,1,0.9,1.9
	c0.4,0.5,0.9,0.8,1.1,0.6c0.2-0.1,0.3,0,0.1,0.2c-0.2,0.2-0.1,0.5,0.1,0.5c0.2,0,0.4,0.3,0.4,0.6c0,0.3,0.1,0.6,0.3,0.6
	s0.7,0.7,1.3,1.6c0.5,0.9,1.1,1.6,1.2,1.6s0.5,0.5,0.7,1.2c0.3,0.6,0.7,1.1,0.9,0.9c0.2-0.1,0.3-0.1,0.1,0.2
	c-0.3,0.5,0.7,1.7,1.1,1.3c0.1-0.1,0.2,0,0.2,0.4s0.5,1.1,1.1,1.7c0.6,0.6,1.4,1.6,1.8,2.2l0.7,1.1l26.2,0c14.4,0,26-0.1,25.7-0.3
	c-1-0.4-2.1-1.6-1.6-1.8c0.2-0.1,0.3-0.6,0.2-1c-0.2-0.6-0.3-0.7-0.5-0.3c-0.2,0.4-0.3,0.4-0.3-0.2c0-0.5-0.2-0.6-0.5-0.4
	c-0.4,0.2-0.4,0.2,0-0.3c0.6-0.8,0-1.5-1.3-1.5c-0.1,0,0.1-0.3,0.5-0.6c0.6-0.5,0.7-0.6,0.1-0.4c-0.4,0.1-0.7,0-0.7-0.3
	c0-0.3-0.2-0.6-0.5-0.7c-0.3-0.1-0.5-0.6-0.4-1.1c0.1-1.1-0.7-2.5-1.3-2.1c-0.2,0.1-0.5,0.1-0.6-0.2c-0.1-0.2-0.1-0.4,0.2-0.4
	c0.2,0,0.4-0.4,0.4-0.8c0-0.5-0.3-0.8-0.6-0.8c-0.5,0-0.6-0.3-0.4-1c0.1-0.5,0-0.9-0.1-0.8c-0.2,0.1-0.3-0.1-0.3-0.4
	c0-0.3-0.2-0.5-0.4-0.4c-0.2,0.1-0.2-0.2,0.1-0.8c0.4-0.8,0.4-1.1-0.1-1.4c-0.3-0.2-0.4-0.6-0.3-0.9c0.2-0.4,0.1-0.5-0.3-0.4
	c-0.3,0.1-0.6,0-0.6-0.4c0-0.3-0.2-0.6-0.5-0.5c-0.3,0.1-0.4-0.2-0.4-0.5c0.1-0.5,0-0.5-0.5,0c-0.5,0.4-0.6,0.4-0.3-0.2
	c0.2-0.5,0.1-0.6-0.2-0.4c-0.6,0.3-0.5,0.4-0.1-1.3c0.3-1.1,0.3-1.2-0.1-0.9c-0.7,0.6-1.9,0.1-1.6-0.7c0.1-0.3,0-0.7-0.3-0.9
	c-0.7-0.5-1.2-0.4-0.9,0.1c0.2,0.3,0.1,0.3-0.2,0.2c-0.7-0.5-0.5-1,0.4-1c0.6,0,0.7-0.1,0.4-0.3c-0.3-0.2-0.5-0.5-0.5-0.7
	c0-0.2-0.2-0.3-0.5-0.2c-0.4,0.1-0.5-0.1-0.3-0.5c0.1-0.4,0-0.8-0.3-1c-0.3-0.2-0.6-0.5-0.6-0.7c0-0.2-0.1-0.6-0.1-0.8
	c0-0.2-0.3-0.3-0.7-0.1c-0.5,0.2-0.6,0.1-0.4-0.6c0.1-0.5,0.1-0.8-0.1-0.8c-0.2,0-0.3-0.5-0.3-1.2c0-0.7,0-1.1-0.1-1
	c-0.2,0.2-1.4-1.2-1.5-1.8c0-0.2-0.1-0.4-0.1-0.6c0-0.2-0.3,0-0.6,0.5c-0.7,0.9-0.8,0.1-0.1-1c0.4-0.7,0.3-0.9-0.7-1.7
	c-0.8-0.7-1.3-0.8-1.5-0.5c-0.5,0.7-0.4-0.4,0.1-1.3c0.3-0.6,0.3-0.7-0.3-0.5c-0.5,0.2-0.6,0.1-0.4-0.4c0.1-0.3,0-0.7-0.2-0.8
	c-0.3-0.1-0.3-0.3-0.2-0.5c0.2-0.2,0.6-0.1,0.9,0.2c0.4,0.3,0.6,0.4,0.6,0.1c0-0.2-0.1-0.4-0.3-0.4s-0.6-0.5-1-1.1
	c-0.6-1-0.7-1-0.5-0.2c0.1,0.6,0,0.8-0.3,0.7c-0.3-0.1-0.5-0.6-0.5-1.2c0-0.6,0.1-0.9,0.4-0.8c0.2,0.1,0.2,0,0.1-0.3
	c-0.2-0.3-0.6-0.4-1-0.3c-0.4,0.1-0.8,0-1-0.2c-0.1-0.2,0-0.4,0.2-0.4c0.9,0-1.4-2.3-2.3-2.3c-0.8,0-0.8-0.1-0.4-0.6
	c0.3-0.3,0.3-0.6,0.1-0.6c-0.2,0-0.3-0.4-0.2-0.9c0.2-0.7,0.1-0.8-0.2-0.3c-0.4,0.5-0.4,0.4-0.4-0.4c0-0.5,0-1.1,0-1.3
	c0-0.2-0.1-0.5-0.2-0.8c0-0.3-0.3-0.4-0.5-0.4c-0.3,0.1-0.7-0.3-0.9-0.7c-0.3-0.5-0.3-0.7,0-0.6c0.2,0.1,0.5,0,0.7-0.2
	c0.2-0.3,0.1-0.4-0.1-0.2c-0.2,0.1-0.6,0-0.7-0.3c-0.2-0.3-0.7-0.7-1.2-1c-0.5-0.2-0.8-0.7-0.7-1c0.2-0.5-1.7-2.1-2.3-1.9
	c-0.2,0-0.2-0.2-0.1-0.5c0.2-0.4,0-0.5-0.4-0.4c-0.3,0.1-0.7,0-0.8-0.2c-0.1-0.2-0.1-0.4,0.2-0.4c0.2,0,0.3-0.2,0.2-0.4
	c-0.1-0.2-0.4-0.3-0.7-0.3c-0.3,0.1-0.3,0-0.2,0c0.8-0.5,0.2-1.3-0.9-1.2c-1.2,0.1-1.2,0-1.3-1.5c-0.1-2.1-0.1-2-0.7-1.1
	c-0.3,0.4-0.6,0.6-0.6,0.4c-0.1-1.4-1.2,1.1-1.4,3.2c-0.5,4.9-1.1,4.9-1.5,0.1c-0.1-1-0.4-2.3-0.6-2.9c-0.2-0.6-0.3-1.3-0.2-1.4
	c0.1-0.2-0.2-0.4-0.6-0.6c-0.4-0.1-0.8-0.5-0.8-0.8c0-0.3-0.2-0.5-0.3-0.4c-0.2,0.1-0.3-0.4-0.2-1.2c0.1-1.2,0-1.4-0.5-1.2
	c-0.4,0.1-0.5,0.1-0.4-0.2c0.1-0.2-0.1-0.8-0.6-1.2c-0.5-0.4-0.7-0.9-0.6-1.1s0-0.4-0.2-0.4c-0.2,0-0.7-0.7-1.1-1.5
	c-0.4-0.8-0.9-1.6-1.2-1.8s-0.5-0.7-0.5-1.3c0-0.5-0.2-1-0.5-1s-0.4-0.1-0.2-0.2s0-0.8-0.3-1.5c-0.3-0.7-0.4-1.8-0.3-2.4
	c0.1-1.1,0.1-1.2-0.9-1.2c-0.9,0-1.1-0.1-1-0.7c0.1-0.4-0.1-0.9-0.4-1.1c-0.4-0.2-0.4-0.5,0.2-1.1c0.4-0.4,0.6-1,0.6-1.3
	c-0.1-0.3,0.1-0.5,0.4-0.4c0.3,0.1,0.4-0.1,0.3-0.3c-0.2-0.3,4.9-4.9,14.2-13c1.2-1,2-1.8,1.9-1.9
	C283.9,296.5,280.4,299.4,276.2,303 M340,303.9c0,3.5,0.1,5,0.1,3.2c0.1-1.8,0.1-4.7,0-6.4C340.1,298.9,340,300.4,340,303.9
	 M68.7,303c0.5,0.1,1.2,0.1,1.6,0c0.4-0.1,0-0.2-0.9-0.2S68.2,302.9,68.7,303 M72.2,303.4c0.5,0.1,1.2,0.1,1.6,0
	c0.4-0.1,0-0.2-0.9-0.2C72,303.2,71.7,303.3,72.2,303.4 M76.3,303.8c0.6,0.1,1.6,0.1,2.1,0c0.6-0.1,0.1-0.2-1.1-0.2
	C76.2,303.6,75.7,303.7,76.3,303.8 M80.6,304.2c0.4,0.1,1,0.1,1.4,0c0.4-0.1,0.1-0.2-0.7-0.2S80.2,304.1,80.6,304.2 M86.4,305
	c0.4,0.1,1,0.1,1.4,0s0.1-0.2-0.7-0.2S86.1,304.9,86.4,305 M340.3,311.9c0,0.9,0.1,1.2,0.2,0.7c0.1-0.5,0.1-1.2,0-1.6
	C340.4,310.7,340.3,311.1,340.3,311.9 M340.7,315.2c0,0.8,0.1,1.1,0.2,0.7c0.1-0.4,0.1-1,0-1.4C340.8,314.2,340.7,314.5,340.7,315.2
	 M170.5,322.4l-1.1,1.3l1.3-1.1c1.2-1.1,1.4-1.4,1.1-1.4C171.7,321.1,171.1,321.7,170.5,322.4 M164.4,328.8l-4.9,5l5-4.9
	c2.7-2.7,5-4.9,5-5C169.5,323.7,169,324.2,164.4,328.8 M344.2,331.6c0,0.3,0.2,1.1,0.5,1.8c0.7,1.5,0.7,0.8,0-1
	C344.4,331.7,344.2,331.3,344.2,331.6 M158,334.9l-1.1,1.3l1.3-1.1c1.2-1.1,1.4-1.4,1.1-1.4C159.2,333.6,158.6,334.2,158,334.9
	 M346.7,339.1c0.1,0.5,0.4,1.2,0.6,1.6c0.3,0.4,0.3,0.3,0.1-0.4c-0.1-0.5-0.4-1.2-0.6-1.6C346.6,338.3,346.5,338.4,346.7,339.1
	 M93.9,344.1c0,2.3,0.1,3.2,0.1,2.1c0.1-1.1,0.1-3,0-4.1C94,341,93.9,341.9,93.9,344.1 M149.3,341.4c-0.9,0.6-1.7,1.3-1.7,1.4
	c0,0.1,0.8-0.4,1.8-1s1.8-1.3,1.8-1.4C151.2,340.1,151.1,340.2,149.3,341.4 M188.6,341.5c-0.9,1.3-1.6,2.9-1.2,2.4
	c0.5-0.6,2.2-3.3,1.9-3.3C189.2,340.6,188.9,341,188.6,341.5 M145.8,343.9c-1.8,1.3-2.1,1.6-0.5,0.8c0.7-0.4,1.5-1,1.7-1.2
	C147.5,342.8,147.3,342.9,145.8,343.9 M139.6,347.9c-0.9,0.5-1.7,1.1-1.7,1.2c0,0.2,2.6-1.3,3.3-1.9
	C141.9,346.6,141.2,346.9,139.6,347.9 M184.2,349.2c-0.3,0.6-0.5,1.2-0.4,1.2c0.1,0,0.5-0.5,0.8-1.2c0.3-0.6,0.5-1.2,0.4-1.2
	C184.9,348,184.5,348.6,184.2,349.2 M93.2,353.6c-0.2,2.9-0.2,5.8-0.1,6.6c0.1,0.8,0.3-1.5,0.4-5s0.2-6.5,0.1-6.6
	C93.5,348.5,93.3,350.7,93.2,353.6 M84.9,351.4c0,0.9,0.1,1.2,0.2,0.7c0.1-0.5,0.1-1.2,0-1.6C84.9,350.1,84.9,350.5,84.9,351.4
	 M351.6,350.9c0,0.4,5.1,10.4,5.3,10.4c0.2,0-4.8-10.1-5.1-10.5C351.6,350.7,351.6,350.8,351.6,350.9 M130.4,353.3
	c-1.5,0.8-1.4,1.1,0.1,0.4c0.6-0.3,1.2-0.7,1.2-0.8C131.6,352.7,131.6,352.7,130.4,353.3 M84.5,354.7c0,1,0.1,1.4,0.2,0.9
	c0.1-0.5,0.1-1.3,0-1.8C84.6,353.3,84.5,353.7,84.5,354.7 M181.2,354.7c-0.4,0.9-0.8,1.7-0.7,1.8c0.1,0.1,0.5-0.6,1-1.6
	C182.6,352.7,182.3,352.6,181.2,354.7 M124.9,356.3c-0.8,0.4-1.5,0.9-1.5,1c0,0.1,0.7-0.2,1.6-0.6c0.9-0.4,1.6-0.9,1.6-1
	C126.6,355.4,126.6,355.4,124.9,356.3 M84.1,358c0,0.9,0.1,1.2,0.2,0.7c0.1-0.5,0.1-1.2,0-1.6C84.2,356.8,84.1,357.1,84.1,358
	 M148,358.2c-0.8,0.4-1.2,0.8-1.1,0.8c0.4,0,2.6-1.1,2.6-1.4C149.6,357.4,149.6,357.4,148,358.2 M114.6,361.5
	c-3.2,1.6-5.7,2.9-5.5,2.9c0.5,0,11.6-5.4,11.6-5.6C120.7,358.5,121.4,358.2,114.6,361.5 M83.7,361.7c0,1.2,0.1,1.7,0.2,1.1
	c0.1-0.6,0.1-1.6,0-2.1C83.8,360.1,83.7,360.5,83.7,361.7 M92.7,364.1c0,1.4,0.1,2,0.2,1.3c0.1-0.7,0.1-1.8,0-2.5
	C92.8,362.1,92.7,362.7,92.7,364.1 M162.7,366.8c0,2.9,0.1,4.1,0.1,2.6c0.1-1.5,0.1-3.8,0-5.3C162.7,362.7,162.7,363.9,162.7,366.8
	 M357.8,363.3c0.4,0.9,0.9,1.6,1,1.6s-0.2-0.7-0.6-1.6c-0.4-0.9-0.9-1.6-1-1.6C357.1,361.7,357.4,362.4,357.8,363.3 M83.3,365.8
	c0,1.1,0.1,1.5,0.2,0.9c0.1-0.6,0.1-1.5,0-2C83.4,364.3,83.3,364.7,83.3,365.8 M105.9,365.3c-1.1,0.4-2,0.9-1.9,0.9
	c0.2,0.2,4.6-1.4,4.6-1.7C108.6,364.4,108.2,364.5,105.9,365.3 M360.4,367.8c0.8,1.5,1.7,2.9,1.9,3.1c0.2,0.2-0.3-0.8-1.1-2.3
	s-1.6-2.9-1.9-3.1S359.5,366.3,360.4,367.8 M100.1,367.4c-4.8,1.6-6.7,1.7-6.9,0.3c-0.2-1.1-0.2-1.1-0.2,0.1
	c-0.1,1.8,4.3,1.4,9.3-0.8C104.3,366.2,103.3,366.3,100.1,367.4 M302.6,367.8c-0.1,0.1-0.4,0.1-0.7-0.1c-0.3-0.2-0.3-0.4,0.1-0.6
	C302.5,366.8,303,367.4,302.6,367.8 M82.9,369.1c0,0.8,0.1,1.1,0.2,0.7s0.1-1,0-1.4S82.9,368.4,82.9,369.1 M82.5,371.9
	c0,0.8,0.1,1.1,0.2,0.7c0.1-0.4,0.1-1,0-1.4C82.6,370.8,82.5,371.1,82.5,371.9 M363.5,373.4c0.3,0.6,0.7,1.2,0.8,1.2
	c0.1,0-0.1-0.5-0.4-1.2c-0.3-0.6-0.7-1.2-0.8-1.2C363,372.3,363.1,372.8,363.5,373.4 M82.1,374.8c0,0.9,0.1,1.2,0.2,0.7
	c0.1-0.5,0.1-1.2,0-1.6C82.2,373.5,82.1,373.9,82.1,374.8 M162.2,376.4c0,1.1,0.1,1.5,0.2,0.9c0.1-0.6,0.1-1.5,0-2
	C162.3,374.8,162.2,375.3,162.2,376.4 M365,376.2c0.3,0.6,0.7,1.2,0.8,1.2c0.1,0-0.1-0.5-0.4-1.2c-0.3-0.6-0.7-1.2-0.8-1.2
	C364.5,375,364.7,375.5,365,376.2 M81.4,378.5c-0.2,1.1-0.2,2.1-0.1,2.2c0.1,0.1,0.3-0.7,0.5-1.8c0.1-1.1,0.2-2.1,0.1-2.2
	C81.8,376.6,81.6,377.4,81.4,378.5 M161.8,380.3c0,0.9,0.1,1.2,0.2,0.7c0.1-0.5,0.1-1.2,0-1.6C161.9,379,161.8,379.4,161.8,380.3
	 M80.7,382.5c-0.3,1.7,0.1,2.1,2.4,1.6l1.9-0.4l-2,0.2l-2,0.2l0.2-1.4C81.4,380.9,81,380.8,80.7,382.5 M94.1,381.6
	c-0.8,0.3-0.8,0.3-0.2,0.3c0.4,0,1.1-0.1,1.6-0.3C96.5,381.2,95.5,381.2,94.1,381.6 M160.8,387.3c-0.2,1.2-0.2,2.3-0.1,2.4
	s0.3-0.8,0.5-2c0.2-1.2,0.2-2.3,0.1-2.4S160.9,386.1,160.8,387.3 M371.3,387.1c0.3,0.6,0.7,1.2,0.8,1.2c0.1,0-0.1-0.5-0.4-1.2
	c-0.3-0.6-0.7-1.2-0.8-1.2C370.8,385.9,371,386.5,371.3,387.1 M374.2,392.2c0.4,0.9,0.9,1.6,1,1.6c0.1,0-0.2-0.7-0.6-1.6
	c-0.4-0.9-0.9-1.6-1-1.6S373.8,391.3,374.2,392.2 M159.6,393.6c-0.1,0.8-0.2,1.5-0.1,1.6c0.1,0.1,0.3-0.5,0.4-1.3
	c0.1-0.8,0.2-1.5,0.1-1.6C159.9,392.2,159.7,392.8,159.6,393.6 M376.8,397.1c0.8,1.6,1.5,2.9,1.6,2.8c0.2-0.2-2.6-5.7-2.8-5.7
	C375.5,394.1,376,395.5,376.8,397.1"/>
</svg>
