<?xml version="1.0" encoding="utf-8"?>
<!-- Generator: Adobe Illustrator 27.2.0, SVG Export Plug-In . SVG Version: 6.00 Build 0)  -->
<svg version="1.1" id="Layer_1" xmlns="http://www.w3.org/2000/svg" xmlns:xlink="http://www.w3.org/1999/xlink" x="0px" y="0px"
	 viewBox="0 0 74 74" style="enable-background:new 0 0 74 74;" xml:space="preserve">
<style type="text/css">
	.st0{fill-rule:evenodd;clip-rule:evenodd;fill:#175970;}
	.st1{fill-rule:evenodd;clip-rule:evenodd;fill:#F9974B;}
	.st2{fill-rule:evenodd;clip-rule:evenodd;fill:#F67B26;}
	.st3{fill-rule:evenodd;clip-rule:evenodd;fill:#61B1B5;}
</style>
<path id="path0" class="st0" d="M35.5,10.9c-0.4,0.1-0.8,0.5-0.9,0.9c-0.4,1.4,1.3,2.5,2.3,1.3C37.9,12.1,36.8,10.5,35.5,10.9
	 M31.4,14.3c0.1,0.1,0.3,0.6,0.6,1.2c0.3,0.6,0.7,1.3,0.9,1.7c0.2,0.4,0.6,1.1,0.8,1.5c0.2,0.4,0.5,0.9,0.6,1.1
	c0.1,0.2,0.2,0.3,0.2,0.3c0,0-0.4,0-1,0c-1.3,0-1.4,0-1.4,0.3c0,0.2-0.1,0.8-0.2,1.1c0,0.1,0.1,0.2,0.5,0.6c0.3,0.3,0.5,0.5,0.5,0.5
	s-0.3,0.3-0.6,0.6c-0.3,0.3-0.9,0.9-1.3,1.3l-0.6,0.6l0.6,0c1.4,0.1,10.3,0.1,10.3,0c0-0.1-0.4-0.5-1.1-1.3
	c-1.3-1.4-1.3-1.3-1.1-1.4c1-0.8,1-0.8,0.8-1.7l-0.2-0.6l-1.2,0c-0.7,0-1.2,0-1.2,0c0,0,0.1-0.3,0.3-0.6c0.3-0.5,0.5-0.8,1.4-2.6
	c0.3-0.6,1.4-2.7,1.4-2.8c0,0-2,0-4.6,0h-4.6L31.4,14.3 M27.5,17.8c-1.8,0.4-3,0.9-3.6,1.4c-1.1,0.9-1.1,3.4-0.1,5.5
	c0.2,0.4,0.7,1,0.6,0.8c-0.3-0.7-0.1-3,0.2-3.9c0.5-1.3,2-3,3.4-3.7C28.6,17.5,28.5,17.5,27.5,17.8 M45.7,18.8c0,0,0.3,0.2,0.5,0.3
	c1.5,0.8,2.5,1.5,3.1,2.4c0.2,0.2,0.3,0.4,0.4,0.5c0.1,0.1,0.1,0.1-0.2,0.3c-0.7,0.3-2.3,1.3-2.3,1.4c0,0,0.3,0.6,0.6,1.2
	c2.9,6.5,3.6,10.4,2.5,14.9c-0.4,1.5-1,3.4-1.1,3.5c0,0-0.1,0.1-0.1,0.1c-0.2,0.4,1.5-1.6,2.1-2.5c2.1-3.1,2.2-7,0.3-11.6
	c-0.4-0.9-0.4-1-0.4-1c0,0,0.1,0.1,0.1,0.1l0.1,0.1l0-0.2c0-0.2,0-0.2,0.1-0.2c0,0,0.1,0,0.1,0c0,0,0.1-0.1,0.1-0.2s0.2-0.2,0.2-0.3
	c0.1-0.1,0.1-0.1,0.1-0.1c0,0.1,0.1,0.1,0.1-0.1c0-0.1,0-0.1,0.1-0.2c0,0,0,0,0,0c0,0,0,0.1,0,0.1c0.1,0,0.4-0.2,0.4-0.3
	c0-0.1,0-0.2,0.1-0.1c0.1,0,0.1,0,0.1-0.1c0-0.1,0-0.1,0-0.1c0,0,0.2-0.1,0.2-0.2c0,0,0,0,0.1,0c0.1,0.1,0.2,0.1,0.1,0
	c0,0,0-0.1,0.1-0.1c0.1,0,0.1-0.1,0.1-0.1s0-0.1,0.1-0.1c0.1,0,0.1-0.1,0.1-0.1c0-0.1,0.1-0.1,0.1-0.1c0,0,0,0,0-0.1
	c-0.1-0.1-0.1-0.1,0-0.1c0,0,0.1,0,0.1,0c0-0.2,0-0.3,0-0.3c0,0,0-0.1,0-0.2c0-0.1,0-0.2,0.1-0.1c0.1,0,0.1,0,0,0
	c-0.2-0.3,0.2,0,0.4,0.4c0.2,0.2,0,0-0.2-0.3c-1.5-2.2-3.1-3.8-5.7-5.5C47.4,19.6,45.5,18.6,45.7,18.8 M55.4,28.1
	c0,0,0.1,0.3,0.2,0.6c1.1,2.7,1.1,7.1,0,10.7c-0.8,2.5-2,4.7-3.7,6.6c-0.7,0.8-2.2,2.3-2.7,2.7c-1,0.8-3.3,2.8-3.3,2.9c0,0,0,0,0,0
	s-0.1,0-0.2,0.1c-0.1,0.2-0.1,0.2,0,0c0.2-0.1,0.2-0.1,0.1,0.1c-0.1,0.1-0.1,0.1,0,0.1c0,0,0.1,0.1,0.1,0.1c0,0.1,0,0.1,0.1,0.1
	c0.1,0,0.1,0,0.1,0.2c0,0.1,0,0.2,0,0.3c0,0.1,0.1,0.2,0,0.2s0,0,0,0s0.1,0.1,0.1,0.1c0,0.1,0,0.1,0.1,0.2s0.1,0.1,0.2,0.2
	c0.1,0.1,0.1,0.2,0.1,0.2s0,0,0,0.1s0,0.1,0.1,0.1s0.1,0.1,0.1,0.2c0,0,0,0,0.1,0c0.1,0,0.1,0,0.1,0.2c0,0.1,0,0.2,0,0.2
	c0,0,0,0,0,0.1s0.1,0.1,0.1,0.1c0.1,0,0.1,0.1,0.1,0.1s0,0.1,0,0.2s0.1,0.3,0.1,0.4c0.1,0.6,0.1,0.6,0.2,0c0-0.3,0.2-0.6,0.2-0.4
	c0,0,0,0,0.1-0.1c0.1-0.1,0.1-0.1,0.1,0.1c0,0.2,0,0.2,0.2,0.2c0.2,0,0.2,0.1,0.1,0.2c0,0,0,0,0,0c0,0,0.1,0,0.1,0c0,0,0,0.1,0,0.1
	s0,0,0,0.1c0,0,0.1,0,0.1,0c0.1,0,0.1,0,0.1,0.1c0,0,0,0.1,0,0.1c0.1,0,0.3,0.2,0.3,0.3c0,0,0,0.1,0.1,0.1c0.1,0,0.1,0.1,0.2,0.1
	s0.1,0.1,0.1,0c0,0,0,0,0,0c0,0-0.1,0-0.1,0c0,0,0,0,0,0.1s0.1,0.1,0.1,0.1c0,0,0.1,0,0.1,0.1s0,0.1,0,0.1c0,0,0,0.1,0,0.2
	c0,0.1,0,0.1,0.1,0.1s0.1-0.1,0,0c0,0.1,0,0.1,0,0.1s0,0,0,0.1c-0.1,0.1,0,0.1,0.1,0.1c0.1,0,0.4,0.3,0.3,0.3c0,0,0,0,0,0.1
	c0,0,0.1,0,0.1,0c0.1,0,0.1,0,0.1,0c0,0,0,0.1,0,0c0,0-0.1,0-0.1,0.1c0,0.1,0,0.1,0.1,0.2s0.1,0,0-0.1c0-0.1,0-0.1,0.1,0
	c0.1,0.1,0.1,0.1,0.1,0.1s0,0,0,0.1c0,0,0,0-0.1,0c0,0-0.1-0.1-0.1,0c0,0,0,0.1,0,0.1c0,0,0.1,0.1,0,0.1c0,0.1,0,0.1,0.1,0.1
	c0.1,0,0.1,0,0,0.1c-0.1,0.1-0.1,0.3,0,0.2c0,0,0.1,0,0.2,0.1c0.1,0.1,0.1,0.1,0.1,0.2c-0.1,0.1-0.1,0.3,0,0.1
	c0-0.1,0.1-0.1,0.1-0.1c0,0,0,0.1,0,0.1c0,0.1,0.2,0.3,0.2,0.2c0,0,0,0,0,0.1c0,0.1,0,0.2,0,0.2c0,0,0,0.1,0,0.1
	c0,0.1,0,0.1,0.1,0.1c0,0,0.1,0,0.1,0s0,0.1,0,0.1c0,0,0,0.1,0.1,0.1c0,0,0.1,0.1,0,0.1c0,0.1,0,0.1,0,0.1c0,0,0.1,0,0.1,0
	c0,0,0,0.1,0.1,0.1c0.1,0,0,0-0.1,0c-0.1,0-0.2,0.1-0.1,0.1c0,0,0,0,0,0c0-0.1,0-0.1,0.1,0c0,0,0.1,0.1,0,0.1c0,0.1,0.1,0.2,0.2,0.1
	c0.1-0.1,0.1,0,0,0.1c-0.1,0.2-0.1,0.2,0,0.2c0,0,0.1,0,0,0.1c0,0.1,0,0.1,0,0s0.1-0.1,0.1,0c0,0,0,0.1,0.1,0.1c0,0,0.1,0,0.1,0.1
	c0,0.1,0,0.1,0.1,0.1c0.1,0,0.1,0,0,0.1c0,0,0,0.1,0,0.1c0.1,0,0.1,0.1,0,0.2c0,0.1,0,0.1,0,0.1c0,0,0.1,0,0.1,0.1c0,0,0,0.1,0,0.1
	c0,0,0,0,0,0.1c0,0.1,0,0.1,0.1,0.1s0.1,0,0.1,0.1c0,0.1,0,0.1-0.1,0.1c0,0,0,0,0,0.1c0,0,0.1,0,0.1,0c0.1-0.1,0.2,0.1,0.2,0.3
	c0,0.1,0,0.1,0.1,0.1s0.1,0.1,0.1,0.1c0,0,0,0.1,0.1,0c0.1,0,0.1,0,0,0.1c-0.1,0-0.1,0.1-0.1,0.1c0,0,0.1,0,0.1,0
	c0.1,0,0.2,0.1,0.1,0.2c-0.1,0.1-0.1,0.1,0,0c0,0,0.1,0,0.1,0.1c0,0.1,0,0.1,0,0c0-0.1,0.1,0,0.1,0c0,0.1,0,0.1,0,0.1s0,0.1,0.1,0.1
	l0.1,0.1l3.8,0c2.1,0,3.8,0,3.8,0c0-0.1-0.4-0.8-1.1-2.1c-1.9-3.2-2.3-4-2.7-5.2c-1.5-3.7-1.6-6.4-0.3-9.8c0.5-1.2,0.7-1.8,0.9-2.5
	c1.5-5,1.1-9.6-1.2-14.5C55.6,28.5,55.4,28,55.4,28.1 M44.4,28.3c0,0.1-0.1,0.1-0.1,0.1c0,0,0,0,0,0.1c0,0.1,0,0.1,0,0.1
	c0,0-0.2,0.1-0.3,0.2c-0.1,0.1-0.3,0.2-0.3,0.2c0,0-0.1,0-0.1,0.1c0,0-0.1,0.1-0.2,0.1c-0.1,0-0.2,0.1-0.4,0.3
	c-0.1,0.1-0.4,0.3-0.5,0.4c-0.1,0.1-0.4,0.4-0.6,0.5c-0.3,0.3-0.6,0.5-0.8,0.7c0,0-0.1,0.1-0.2,0.2c-0.1,0.1-0.2,0.2-0.3,0.3
	c-0.4,0.4-0.8,0.7-1.2,1.1c-0.2,0.2-0.5,0.5-0.6,0.6c-0.1,0.1-0.3,0.3-0.4,0.4c-0.1,0.1-0.2,0.2-0.3,0.3c-0.1,0.1-0.3,0.3-0.4,0.4
	c-0.1,0.1-0.3,0.3-0.3,0.3s-0.2,0.2-0.4,0.4c-0.2,0.2-0.4,0.4-0.5,0.4c0,0-0.2,0.1-0.4,0.3c-0.2,0.2-0.4,0.3-0.5,0.4
	c-0.1,0.1-0.2,0.2-0.2,0.2c0,0-0.1,0.1-0.1,0.1s-0.1,0-0.1,0c0.2,0.1,2.1-0.5,3-1c2.4-1.1,4.7-3.2,5.5-5.2c0.4-0.9,0.7-2,0.6-2
	C44.5,28.2,44.5,28.2,44.4,28.3 M15.2,29.1c-0.9,1.8-1.5,3.8-1.8,6c-0.7,4.7,1.9,8.3,5.9,8.3h1l0.1,0.3c0,0.1,0.1,0.3,0.1,0.4
	c0.2,0.4-0.9,2.7-2.6,5.6c-0.4,0.6-0.7,1.1-0.7,1.1c0,0,0.1,0.1,0.2,0.1s0.6,0.2,1.1,0.4c0.5,0.2,1.1,0.4,1.3,0.5
	c0.5,0.2,1,0.4,1,0.5c0,0-0.2,0.4-0.4,0.7c-0.3,0.6-0.3,0.7-0.3,0.8c0.1,0.1,1.1,0.8,1.2,0.9c0,0,0,0.1-0.1,0.2
	c-0.1,0.1-0.2,0.3-0.3,0.4L21,55.4l0.1,0.2c0.1,0.1,0.3,0.3,0.5,0.4l0.3,0.2l0,0.3c0,0.2-0.1,0.6-0.1,1s-0.1,0.8-0.1,1
	c0,0.3-0.2,1.9-0.3,2.4c-0.1,0.3-0.1,0.3,0.7,0.2c2.2-0.4,4.3-1.2,7.9-3.2c1.5-0.8,2.1-0.6,2.1,0.7c0.1,1.1-0.2,3-0.4,4.2l-0.1,0.6
	l0.4,0l0.4,0l0.2-0.6c0.9-3.4,2.4-6.5,4.6-9.5c1.7-2.3,2.3-3.5,2.6-5.1c0.7-3.6-0.6-6-4.1-7.3c-1.8-0.7-1.9-0.8-2.5-1.1
	c-0.6-0.4-1.1-0.8-1.5-1.3l-0.2-0.3l-0.8,0c-5.4,0.1-10.9-2.6-13-6.5c-0.2-0.4-0.2-0.3,0,0.6c0.6,2.7,2.3,5.1,4.8,6.3
	c0.9,0.4,1.8,0.7,3.6,1.1c2.7,0.5,3.8,1.3,4.4,3.2c0.4,1.3,0.4,2.3,0,3.3l-0.1,0.3l0.2-0.2c0.4-0.5,1.1-1.2,1.8-2
	c1.4-1.5,2-1.9,2.7-1.6c1.7,0.7,1.7,4.5-0.2,8c-1.4,2.8-3.8,5-7.4,6.9c-2.1,1.1-3.6,1.8-4.3,1.8l-0.3,0l0-0.3c0-0.2,0-0.7,0-1.2
	c0-0.5,0.1-1.2,0.1-1.6c0-0.6,0.1-0.8,0.1-0.8c0.1,0,0.5-0.4,1-0.9c0.5-0.4,0.9-0.8,0.9-0.8c0,0-0.5-0.1-1-0.2
	c-1.8-0.4-2.5-0.6-2.5-0.7c0-0.2,0.4-1.1,0.7-1.5c0.1-0.2,0.2-0.4,0.2-0.4c0,0-1.4-0.2-2.1-0.2l-0.7-0.1l0-0.1
	c0-0.2,1.7-4.1,2.1-4.7l0.2-0.3l1-0.6c1-0.6,2-1.2,2.1-1.4c0.1-0.1,0-0.1-0.8-0.2c-4-0.4-7.2-2.8-8.5-6.6c-0.7-2-0.8-5.3-0.3-7.5
	C15.6,28.5,15.6,28.5,15.2,29.1 M46.8,39.9c-0.1,0.1-0.2,0.1-0.2,0c0,0,0,0,0,0c0,0.1,0,0.1,0,0.1c0,0-0.1,0-0.1,0
	c-0.1,0.1-0.1,0,0,0s0-0.1,0,0c0,0-0.1,0.1-0.1,0.2c0,0.1-0.1,0.1-0.4,0c0,0-0.1,0-0.1,0c0,0.1,0,0.1-0.1,0.1c0,0-0.1,0-0.1,0.1
	c-0.1,0.1-0.1,0.1-0.2,0.2c-0.3,0-0.3,0-0.3,0.1c0,0-0.1,0.1-0.3,0c-0.1,0-0.1,0-0.1,0c0,0,0,0.1,0,0.1c0,0-0.1,0.1-0.2,0.1
	c-0.1,0.1-0.1,0.1-0.1,0c0,0,0-0.1,0-0.1c0,0-0.1,0-0.1,0.1c0,0-0.1,0.1-0.1,0.1S44.1,41,44,41.1c0,0.1-0.1,0.1-0.1,0.1
	c-0.1,0-0.3,0-0.4,0.1c-0.1,0.1-0.2,0.1-0.2,0.1c0,0-0.1,0-0.2,0c-0.1,0-0.2,0-0.2,0c0,0,0,0-0.1,0c0,0-0.1,0-0.2-0.1
	c-0.1-0.1-0.1-0.1-0.1,0c0,0,0,0.1-0.1,0c-0.1,0-0.1-0.1,0.1,0.4c0.5,1.4,0.8,3.6,0.6,4.8c-0.1,0.9-0.5,2.2-0.8,2.5
	c-0.2,0.3-0.1,0.2,0.6-0.3c0.2-0.2,1.1-0.9,2.1-1.7c0.9-0.8,1.9-1.6,2.2-1.8l0.4-0.4l0-0.9c-0.1-1.9-0.4-4-0.6-3.9
	c0,0-0.1,0-0.1-0.1C47.1,39.8,47,39.8,46.8,39.9 M50.4,58.8C50.3,58.9,50.3,58.9,50.4,58.8C50.4,59,50.5,58.9,50.4,58.8
	C50.5,58.8,50.4,58.8,50.4,58.8"/>
<path id="path1" class="st1" d="M39.5,17.5c0,0,0.5,0.3,1.1,0.7c1.5,0.9,2.3,1.5,3.2,2.6c0.1,0.1,0.1,0.2,0.1,0.1
	c-0.5-0.7-2.4-2.4-2.7-2.4c0,0,0,0,0-0.1c0,0,0-0.1,0-0.1c0-0.1,0-0.1,0-0.1c0,0,0.1,0,0.1,0c0,0.1,0,0,0-0.1c0-0.1,0-0.2-0.1-0.2
	c-0.2-0.1,0.1-0.1,0.6-0.1c0.6,0,1.6,0.2,1.8,0.3c0.1,0,0.1,0.1,0.2,0.1c0.1,0,0.1,0.1,0.2,0.1c0.1,0.1,0.1,0.1,0.2,0.1
	c0.1,0,0.2,0,0.3,0.1c0.1,0.1,0.2,0.1,0.3,0.1s0.1,0,0.1,0c0,0,0.1,0.1,0.1,0.1s0.1,0,0.1-0.1s0-0.1,0.1-0.1
	c0.1-0.1-1.5-0.6-2.7-0.8C41.5,17.6,39.5,17.4,39.5,17.5 M44.9,18.5C45,18.5,45,18.6,44.9,18.5C44.9,18.6,44.8,18.6,44.9,18.5
	c-0.1,0-0.1,0-0.1,0c-0.1,0-0.1,0,0,0c0,0,0,0-0.1,0s-0.1,0-0.1,0C44.6,18.4,44.6,18.4,44.9,18.5 M45.1,18.8
	C45.1,18.8,45.2,18.8,45.1,18.8c0.1,0.1,0.3,0.2,0.4,0.3c0.1,0.1,0.4,0.2,0.6,0.3c0.5,0.2,0.6,0.3,0.7,0.4c0,0.1,0.1,0.1,0.1,0.1
	c0,0,0.1,0,0.1,0.1c0.1,0.1,0.2,0.2,0.2,0.1c0,0,0.1,0,0.1,0c0.1,0,0.1,0.2,0,0.3c-0.1,0,0,0.2,0.1,0.1c0.1,0,0.1,0,0,0.1
	c-0.1,0.1-0.2,0.1-0.1,0c0,0,0-0.1,0-0.1c-0.1,0-0.1,0.1-0.1,0.3c0,0.1-0.1,0.3-0.2,0.2c0,0-0.1,0-0.1,0c-0.1,0-0.1,0.1,0,0.1
	c0.1,0.1-0.3,0.2-0.4,0.1c-0.1-0.1-0.1-0.1-0.1,0c0,0.1,0,0.1-0.1,0.1c0,0,0,0,0,0.1c0,0,0,0.1,0,0.1c0,0-0.1,0-0.1,0
	c0,0-0.1,0-0.1,0c-0.1,0.1-0.1,0.1,0,0c0.1,0,0.1-0.1,0.1-0.2c0-0.1,0-0.1-0.1,0c-0.1,0.2-0.2,0.1-0.2,0c0-0.1,0-0.1,0-0.1
	c0,0-0.1,0.1-0.1,0.1c0.1,0.2-0.1,0.3-0.2,0.1c-0.1-0.1-0.1-0.1-0.1,0c0,0.1,0,0.1-0.1,0.1c0,0-0.1,0-0.1,0s-0.1,0-0.1-0.1
	c0,0,0-0.1,0.1-0.1s0.1,0,0.1-0.1c0-0.1,0-0.1,0,0c-0.1,0.1-0.3,0.2-0.3,0.1c-0.1-0.1-0.2-0.1-0.2,0c0,0,0,0.1-0.1,0.1
	c0,0,0,0,0,0.1c0,0.1,0,0.1,0,0.1s-0.1,0-0.1-0.1s0,0-0.1,0c-0.1,0.1-0.1,0.1-0.1,0c0-0.1,0-0.1,0-0.1c0,0-0.1,0-0.1,0.1
	s0,0.1-0.1,0.1s-0.1,0-0.1,0.1s-0.1,0-0.1-0.1c-0.1-0.2-0.1-0.2-0.1-0.2c0,0,0.1,0,0.1,0c0,0,0-0.1-0.1,0c0,0-0.1,0-0.2-0.1
	c-0.1,0,0,0.1,0.1,0.2c0.1,0.2,0.2,0.3,0.3,0.3c0.1-0.1,0.1-0.1,0.1,0c0,0.1,0,0.1,0,0.2c0,0.1,0,0.1-0.1,0c-0.1-0.1,0,0.2,0.2,0.5
	c0.8,1.6,1.1,2.9,1,4.6c0,1,0,1,0,1.3c0,0.6-1.2,3-2.4,4.5l-0.5,0.7l0.2,0.2c2.2,1.8,3.4,3.5,4.1,6.2c0.1,0.3,0.2,0.6,0.2,0.5
	c0,0,0,0,0,0.1c0,0.1,0,0.1,0,0.1c0.1,0,0.1,0,0,0.2c0,0.2,0,0.2,0,0.1c0-0.1,0,0,0,0.2c0,0.2,0,0.2,0,0.2c0-0.1,0.1,0,0,0.2
	c0,0.1,0,0.2,0,0.1c0.1-0.1,0.1,0.1,0.1,0.7c0,0.2,0.1,0.5,0.1,0.5c0,0.1,0.1,0.5,0.1,0.8c0,0,0,0.1,0,0c0,0,0,0,0,0.1s0,0.1,0,0.1
	c0,0,0,0,0,0.1c0,0.1,0,0.2,0.1,0.2c0,0,0,0,0-0.1c0-0.1,0-0.1,0-0.1c0.1,0,0.1,0,0.1-0.1c0-0.1,0.1-0.2,0.1-0.2
	c0,0,0.1-0.1,0.1-0.2s0-0.1,0.1-0.2c0.1-0.1,0.1-0.3,0.1-0.6c0-0.1,0-0.2,0.1-0.2c0.1,0,0.1,0,0.1-0.1c0,0,0.1-0.1,0.1-0.1
	s0.1-0.1,0.1-0.1c0-0.1,0-0.1,0.1,0c0.1,0,0.1,0.1,0,0.1c0,0,0,0.1,0,0.1c0.1,0.1,0.1,0.1,0.1,0s0-0.1,0-0.1c0,0,0.1,0,0,0.1
	c-0.1,0.4,0.2,0.3,0.4-0.1c0.1-0.1,0.1-0.2,0.1-0.2c0,0,0-0.1,0-0.1c0-0.1,0.1-0.4,0.2-0.8c0.4-1.2,0.4-1.3,0.5-2
	c0.1-0.4,0.2-0.7,0.2-0.7c0,0,0,0,0-0.1c0-0.1,0-0.1,0-0.1c0.1-0.1,0.2-1.4,0.2-2.4c0-2.3-0.5-4.8-1.6-7.5c-0.2-0.5-0.1,0,0.2,0.7
	c0.4,1.1,0.4,1.9,0.1,1.9c0,0,0,0,0-0.1c0,0,0-0.1,0-0.1c0,0-0.1,0-0.1,0c0,0.1,0,0.1-0.1,0c-0.1,0-0.1-0.1-0.1,0
	c0,0.1,0,0.2-0.1,0.2c-0.1,0-0.1,0-0.1,0.1c0,0.1-0.1,0.2-0.1,0.2c0,0-0.1,0.1-0.1,0.1c0,0.1,0,0.1-0.1,0.1s-0.1,0-0.1,0.1
	c0,0,0,0.1,0,0.1s-0.1,0.1-0.1,0.1c0,0.1-0.1,0.1-0.1,0.2c-0.1,0-0.2,0.1-0.2,0.2c-0.1,0.2-0.2,0.2-0.2,0c0,0,0,0,0,0
	c0,0-0.1,0-0.1,0c-0.1,0-0.3,0.1-0.3,0.2c0,0,0,0-0.1,0c-0.1,0-0.1,0-0.1,0c0,0,0,0-0.1,0s-0.1,0-0.1,0c0,0,0,0-0.1,0
	c-0.1-0.1-0.4,0.1-0.4,0.3c0,0,0,0-0.1,0c-0.1-0.1-0.1-0.1,0-0.1c0.1-0.1,0.1-0.1,0-0.1c0,0-0.1,0-0.1,0.1c0,0,0,0.1-0.1,0.1
	c-0.1,0-0.1,0-0.1,0.1c0,0.1,0,0.1-0.2,0.1c0,0-0.1,0,0,0.1c0,0,0,0.1-0.1,0.1c-0.1,0-0.1,0-0.2,0.1s-0.1,0.1,0,0.1s0,0,0,0.1
	c0,0,0,0.1,0,0.1c0,0,0,0.1-0.1,0c-0.1,0-0.3,0.1-0.2,0.2c0.1,0.1,0.1,0.1,0,0c0,0-0.1,0-0.1,0c0,0-0.1,0-0.1,0s-0.1,0-0.1,0
	c0,0.1,0,0.1-0.1,0.1c0-0.1-0.1-0.1-0.1,0c-0.1,0.1-0.1,0.1-0.2,0c-0.1-0.1-0.1-0.1-0.1,0c0,0.1-0.1,0.1-0.1,0c0,0-0.1,0-0.3,0
	c-0.1,0-0.2,0-0.2,0c0,0-0.1-0.1-0.2-0.1c-0.1,0-0.1,0-0.1,0c0,0,0,0.1,0,0.1s-0.1,0-0.1,0c-0.1,0-0.1,0,0,0c0,0,0.1-0.2,0.1-0.3
	c0-0.2,0-0.2,0.1-0.2c0.1,0,0.1,0,0,0c-0.1,0-0.1-0.1-0.1-0.1c0,0,0-0.1-0.1-0.1c0,0,0-0.1,0-0.1c0-0.1,0-0.1-0.1-0.2
	c-0.1-0.1-0.2-0.3-0.1-0.3c0,0,0,0,0-0.1c0-0.1,0.3-0.6,0.4-0.6c0,0,0,0,0-0.1s0.1-0.3,0.3-0.6c0.1-0.3,0.3-0.5,0.3-0.6
	s0.1-0.1,0.1-0.1c0,0,0,0,0,0c-0.1-0.1,0-0.2,0.1-0.2c0,0,0,0,0,0c0,0,0.1-0.3,0.3-0.6c0.2-0.3,0.3-0.6,0.3-0.6s0.1-0.3,0.3-0.6
	s0.3-0.6,0.3-0.6s0.2-0.4,0.4-0.9c0.2-0.5,0.5-1.1,0.6-1.4c0.3-0.7,0.3-0.7,0.5-0.2c0.2,0.4,0.2,0.3-0.1-0.3
	c-0.1-0.2-0.3-0.6-0.4-0.8c-0.2-0.4-0.2-0.4-0.1-0.5c0.1,0,0.3-0.1,0.5-0.3c0.7-0.5,1-0.6,1.4-0.8c0.2-0.1,0.4-0.2,0.4-0.2
	c0.1-0.1-0.6-0.9-1.6-1.8c-0.5-0.4-2.2-1.4-2.4-1.4c-0.1,0-0.1,0-0.1,0c0-0.1-0.1-0.1-0.2-0.1c-0.1,0-0.1,0-0.1,0c0,0,0-0.1-0.1-0.1
	S45.1,18.7,45.1,18.8 M23,19.6c-0.3,0.2-0.7,0.6-1,0.8s-0.4,0.4-0.4,0.4c-0.1-0.2-1.7,1.3-2.4,2.3c-1.1,1.4-2.6,3.6-2.6,3.8
	c0,0.5,0.6,2.3,1.1,3.3c0.6,1.2,1,1.8,1.7,2.6c0.5,0.5,1.9,1.6,1.6,1.3c-0.1-0.1,0-0.1,0.1,0c0.1,0.1,0.1,0.1,0,0.1
	c-0.1,0,0.1,0.1,0.3,0.3l0.2,0.1l-0.1-0.1l-0.1-0.1l0.1,0.1c0.2,0.1,0.2,0.1,0.1-0.1c0-0.1-0.1-0.2-0.1-0.2c0,0-0.1,0-0.1-0.1
	c0,0,0,0,0,0c0,0,0.1,0,0.1-0.1c0.1-0.1,0.1-0.1,0-0.1c-0.1,0-0.1-0.2-0.1-0.2c0,0,0.1-0.1,0.1-0.1c0,0,0.1-0.1,0.1-0.2
	c0.1-0.1,0.1-0.1,0.1,0c0,0,0,0.1,0,0c0.1-0.1,0.1-0.3,0-0.2c0,0,0,0,0-0.1c0,0,0-0.2,0-0.3c0-0.2,0-0.2,0-0.3
	c0.1-0.1,0.1-0.1,0-0.1c-0.1,0-0.2-0.3-0.1-0.3c0,0,0-0.1,0-0.1c-0.1-0.1-0.1-0.6,0-0.6c0,0,0,0,0-0.1s0-0.1,0-0.1
	c0,0,0.1-0.1,0-0.1c0-0.1,0-0.1,0.1-0.2c0.1,0,0.1-0.1,0.1-0.2c0-0.1,0-0.1,0-0.1c-0.1,0-0.1,0,0-0.2c0-0.1,0.1-0.1,0.1-0.1
	s0.1,0.1,0.1,0.1s0.2,0.1,0.3,0.2c3.2,3.3,10.2,4.3,13.8,1.8c1.6-1.1,3.3-3.1,3.8-4.5c0.1-0.2,0.1-0.4,0.2-0.4c0.1-0.2,0-0.1-0.2,0
	c-0.1,0.1-1,0.7-1.4,0.9c-2,1-6.1,1.4-8.8,0.9c-1.9-0.4-3.8-1.5-4.9-2.9c-0.4-0.5-0.5-0.6-0.3-0.3c0.1,0.1,0.5,0.5,0.8,0.9
	c0.4,0.4,0.6,0.7,0.6,0.7c0,0,0,0,0,0c0.1-0.1,0.2,0,0.1,0.1c0,0.1-0.1,0.1-0.1,0c-0.1-0.2-0.3,0-0.3,0.2c0,0.1,0,0.1,0,0.1
	c-0.1-0.1-0.2-0.1-0.2,0c0,0,0,0.1,0.1,0c0.1,0,0.1,0,0.1,0c0,0,0,0.1,0.1,0.1c0.1,0,0.1,0,0.1,0.1c0,0,0,0.1-0.1,0.1
	c-0.1,0-0.1,0-0.1,0.2c0,0.1,0,0.2,0,0.2s0,0,0,0.1c0,0,0.1,0.1,0,0.1c0,0,0,0.1,0,0.1c0.1,0.1,0.1,0.1,0,0.2
	c-0.1,0.1-0.1,0.1,0,0.1c0,0,0.1,0.1,0,0.1c0,0-0.1,0-0.1-0.1c0,0-0.1,0-0.1,0c0,0.1-0.1,0.4-0.1,0.4c0,0-0.1,0-0.1-0.1
	c-0.1-0.1-0.1-0.1-0.2,0c0,0.1-0.1,0.1-0.1,0.1c0,0-0.1,0-0.1,0.1c0,0.1-0.1,0.1-0.2,0.1c-0.1,0-0.2,0-0.2,0.1
	c0,0.1-0.1,0.1-0.2,0.1c-0.1,0-0.1,0,0,0c0.1,0,0,0.1,0,0.1c-0.1,0-0.1,0.1-0.1,0.1c0,0,0,0.1,0,0.1s-0.1,0-0.1-0.1s0,0-0.1,0
	c-0.1,0-0.1,0.1-0.1,0.1c0,0.1-0.3,0-0.4-0.1c-0.1-0.1-0.2-0.1-0.2,0c0,0.1-0.1,0.2-0.2,0.2c0,0,0,0,0-0.1c0.1,0,0.1-0.1,0-0.1
	c-0.1,0-0.1,0-0.2,0.1c-0.1,0.1-0.1,0.1-0.1,0c0-0.1-0.4-0.1-0.4,0c0,0,0,0.1,0.1,0c0.1,0,0.1,0,0.1,0c0,0.5-1.4-1.1-2.1-2.3
	c-1.5-2.9-0.5-7.2,2.2-8.9l0.1-0.1l0,0.2c0,0.1,0,0.3-0.1,0.4c0,0.1,0.1,0,0.2-0.3c0.1-0.2,0.2-0.4,0.3-0.4c0.1,0,0-0.1-0.1-0.1
	C23.6,19.2,23.3,19.4,23,19.6 M47.7,20.7c-0.1,0.5-0.1,0.5-0.3,0.4c-0.1,0-0.1-0.1,0-0.1c0,0,0.1-0.1,0.1-0.1c0-0.1,0-0.1-0.1-0.1
	c-0.1,0-0.2-0.1-0.1-0.2C47.5,20.6,47.7,20.6,47.7,20.7 M21.5,21c-0.1,0.1-0.1,0.2-0.2,0.3c-0.1,0.1-0.1,0.2-0.1,0.1
	c0-0.1,0.3-0.7,0.4-0.6C21.6,20.9,21.6,21,21.5,21 M24.8,22.1c0,0.1,0.1,0.3,0.1,0.5c0.1,0.4,0.4,1.5,0.4,1.3c0,0,0-0.2-0.1-0.3
	c-0.1-0.4-0.1-0.5,0.1-0.5c0.1,0,0.2,0,0.3-0.1c0.1-0.1,0.1-0.1,0.2,0c0.1,0,0.1,0.1,0.1,0c0,0,0.1,0,0.1,0.1
	c0.1,0.1,0.2,0.1,0.2,0.1c0.1,0,0.1,0,0.2,0.1c0.1,0,0.2,0.1,0.3,0.1c0.1,0,0.4,0.1,0.6,0.2c0.3,0.1,0.7,0.2,0.9,0.2
	c0.3,0,0.6,0.1,0.7,0.1c0.3,0.1,1.9,0.1,2.1,0c0.1,0,0.2,0,0.1,0.1c0,0-0.1,0,0,0c0,0,0-0.1,0,0c0,0-0.1,0.1,0,0.1
	c0,0.1-0.1,0.3-0.4,0.6c-0.1,0.1-0.2,0.3-0.2,0.3c0,0,0.7-0.7,0.8-0.9c0.1-0.1,0.1-0.1,0.1-0.1c0,0,0,0,0-0.1c0-0.1,0-0.1,0-0.1
	s-0.1,0-0.3,0.1c-0.6,0.2-2.3,0-3.3-0.2c-1.2-0.3-2.1-0.8-2.8-1.5C24.8,22,24.8,22,24.8,22.1 M25.3,24.1c0,0.1,0.1,0.2,0.1,0.2
	c0,0.1,0,0,0-0.1C25.4,24.2,25.4,24.1,25.3,24.1C25.3,24,25.3,24,25.3,24.1 M25.6,25c0,0.1,0.2,0.4,0.2,0.4c0,0,0-0.1-0.1-0.2
	C25.7,25,25.6,24.9,25.6,25 M33.3,25.3c0,0,0.7,0.1,1.4,0.1c1.4,0,1.8,0.1,1.8,0.1c0,0,0.1,0,0.1,0c0,0,0.1,0,0.1,0.1
	c0,0.1,0,0.1-0.1,0c-0.1,0-0.1,0,0,0c0.2,0.1,0.3,0.1,0.2-0.1c0,0,0-0.1,0-0.1c0,0,0.1,0,0.1,0.1c0,0.1,0.2,0.1,0.2,0.1
	c0,0,0-0.1-0.1-0.1c0,0-0.1,0-0.1,0c0-0.1,0.3,0,0.4,0c0,0.1,0,0.1-0.1,0c0,0-0.1,0-0.1,0c0,0.1,0.4,0.1,0.5,0.1
	c0.1,0,0.2,0.1,0.1,0.1c-0.1,0-0.1,0.1,0.1,0.2c0.1,0.1,0.1,0.1,0.1,0.1c0,0-0.1,0-0.1-0.1c-0.1-0.1-0.1-0.1-0.1,0.1
	c-0.1,0.2-0.1,0.2-0.1,0.1c0-0.1,0-0.1-0.1-0.1c0,0-0.1,0-0.1,0s0,0.1-0.1,0.1s-0.1,0-0.1,0.1c0,0.1-0.1,0.2-0.2,0.2
	c-0.1,0-0.1,0,0,0.1s0.1,0.1-0.1,0.1c-0.2,0-0.3,0-0.4,0c0,0,0,0,0,0.1c0.1,0.1,0,0.1-0.1,0.1c-0.1,0-0.1,0-0.1-0.1c0,0,0,0-0.1,0
	c0,0,0,0.1,0,0.1c0,0-0.1,0.1-0.1,0.1C36,27,36,27,36.1,26.8c0.1-0.1,0.1-0.1-0.1,0C36,26.9,35.9,26.9,36,27c0,0,0,0.1,0,0.1
	c0,0,0,0,0,0.1c0,0.1,0,0,0,0c-0.1-0.1-0.1-0.1-0.1,0c0,0.1-0.1,0.1-0.2,0.1c-0.1,0-0.1,0-0.1,0.1c0.1,0.1,0.1,0.1,0,0.2
	c-0.1,0.1-0.1,0.1-0.1,0c0-0.1,0-0.1,0-0.2c-0.1-0.1-0.1-0.1-0.1,0c0,0,0,0.1,0,0.2c0,0.1-0.1,0.1,0,0.2c0,0,0,0.1-0.1,0.1
	c-0.1,0-0.1,0,0-0.2c0.1-0.1,0.1-0.1,0-0.1c-0.1,0-0.1,0-0.1,0s0,0-0.1,0c0,0.1-0.1,0.1-0.1,0s-0.1-0.1-0.1,0c-0.1,0-0.1,0.1,0,0.1
	c0.1,0.1,0.1,0.1,0.1,0c0-0.1,0-0.1,0.1,0c0.1,0.1,0.1,0.1-0.1,0.1c-0.1,0-0.2,0-0.2-0.1c-0.1-0.1-0.1-0.1-0.2-0.1
	c-0.1,0,0,0.1,0.1,0.1c0.1,0,0,0.1-0.1,0.2c-0.1,0-0.2,0.1-0.2,0s0-0.1-0.1-0.1c-0.1,0-0.1,0-0.1,0.1c0,0.1,0,0.1-0.1,0.1
	c-0.1,0-0.2,0-0.2,0.1c0,0,0,0.1-0.1,0.1c-0.1,0-0.3,0.1-0.2,0.1c0.1,0.1,0,0.1-0.2,0c-0.1-0.1-0.2-0.1-0.1,0c0,0.1,0,0.1,0,0
	c-0.1,0-0.1,0,0,0.1c0,0.1,0,0.1-0.2,0c-0.1-0.1-0.3-0.1-0.3,0.1c0,0.1-0.4,0.3-0.6,0.2c-0.1,0-0.2,0-0.3,0c-0.1,0-0.2,0-0.2-0.1
	c0,0,0,0-0.1,0c0,0-0.3,0-0.6,0c-0.3,0-0.5,0-0.5,0.1c0,0.1-0.8,0-1-0.1c0,0-0.1,0-0.1,0c-0.6-0.1-1.7-0.7-2.4-1.3l-0.4-0.4l0.4,0.4
	c1.6,1.6,4.1,2.1,8.1,1.7c2.8-0.3,4.9-1.3,6.1-3.1l0.1-0.1h-4C34.9,25.2,33.3,25.3,33.3,25.3 M37.6,25.6
	C37.6,25.6,37.5,25.6,37.6,25.6c-0.1,0-0.1,0-0.1-0.1C37.4,25.4,37.5,25.5,37.6,25.6 M38,25.6C38,25.6,38,25.6,38,25.6
	c-0.1,0-0.1,0-0.2,0c0,0,0,0,0,0C37.8,25.4,37.9,25.5,38,25.6 M38.4,25.6C38.4,25.6,38.4,25.6,38.4,25.6c-0.1,0-0.2,0-0.2,0
	c-0.1,0-0.1,0-0.1,0C38,25.4,38.3,25.5,38.4,25.6 M38.1,25.8c0,0-0.1,0.1,0,0.1c0,0,0,0.1,0,0c0,0-0.1,0-0.1,0c-0.1,0-0.1,0-0.1-0.1
	c-0.1-0.1,0.1-0.2,0.1-0.1C38.1,25.8,38.1,25.8,38.1,25.8c0-0.1,0-0.2,0-0.1C38.2,25.7,38.2,25.8,38.1,25.8 M38.3,25.8
	c0,0.1,0,0.1,0.1,0.1c0,0,0.1,0,0,0.1c0,0-0.1,0-0.1,0c-0.1,0-0.1-0.3,0-0.3C38.3,25.7,38.3,25.7,38.3,25.8 M26.3,26.1
	c0.1,0.1,0.2,0.3,0.3,0.3c0,0,0-0.1-0.1-0.2C26.1,25.8,26,25.7,26.3,26.1 M48.3,25.9c0,0,0,0.1,0.1,0.2c0,0.1,0.1,0.1,0.1,0.1
	S48.4,26,48.3,25.9C48.3,25.9,48.3,25.8,48.3,25.9 M36.7,26.3c0,0,0.1,0.1,0,0.1c0,0,0,0.1,0,0C36.9,26.4,36.9,26.3,36.7,26.3
	C36.7,26.3,36.7,26.3,36.7,26.3 M46,28c-0.1,0.3-0.2,0.4-0.2,0.2c0-0.1,0.2-0.4,0.3-0.4C46.1,27.8,46,27.9,46,28 M31,28.4
	c-0.1,0.1-0.4,0.1-0.4,0c0,0,0.1,0,0.2-0.1C31,28.4,31,28.4,31,28.4 M31.4,28.4c0,0-0.1,0-0.1,0s-0.1,0-0.1,0s0.1,0,0.1,0
	S31.4,28.4,31.4,28.4 M15.4,29.2c0,0.1-0.1,0.4-0.1,0.7c0,0.3,0,0.5-0.1,0.6c-0.1,1-0.2,2.2-0.1,2.9l0,0.3l0-0.5c0-0.3,0-0.6,0-0.8
	c0-0.2,0-0.3,0.1-0.3c0.2,0,0.2,0,0.2-0.1c0,0,0-0.1,0-0.1c0.1,0,0.2-0.4,0.1-0.5c-0.1-0.1-0.1-0.2,0-0.3c0.1-0.1,0.1-0.1,0.1,0
	c0,0.1,0,0.1,0,0.1c0-0.1,0.1,0,0.1,0.3c0,0.2,0.1,0.4,0.1,0.4s0-0.2-0.1-0.5c0-0.3-0.1-0.9-0.2-1.4C15.6,29.7,15.5,29.3,15.4,29.2
	l0.1-0.2L15.4,29.2 M24.1,30.4C24.1,30.4,24.1,30.5,24.1,30.4c0.1,0.1,0.1,0.1,0.1,0.1c0,0,0,0.1,0,0.1c0.1,0,0.1-0.1,0-0.1
	C24.2,30.4,24.1,30.4,24.1,30.4 M23.2,31.1c0.1,0.1,0.2,0.1,0.2,0.1c0,0,0,0,0,0c0,0,0.1,0.1,0.2,0.2c0.3,0.2,0.5,0.4,0.2,0.2
	C23.6,31.5,23,31,23,31C23,31,23.1,31,23.2,31.1 M47.5,32c-0.1,0-0.1,0.1-0.1,0.1C47.5,32.2,47.5,32.1,47.5,32c0,0.1,0.1,0,0.1,0
	C47.8,31.9,47.7,31.9,47.5,32 M15.9,32.2c0,0.1,0.2,0.8,0.2,0.7c0,0,0-0.2-0.1-0.4C16,32.3,15.9,32.2,15.9,32.2 M44,33
	C44,33,43.9,33,44,33c-0.1-0.2-0.1-0.2,0-0.1C44.1,32.9,44.1,32.9,44,33 M16.1,33c0,0,0,0.1,0,0.2c0,0.1,0,0.1,0,0
	C16.2,33.2,16.2,33.1,16.1,33C16.2,33,16.1,33,16.1,33 M16.2,33.4c0,0.1,0.2,0.6,0.2,0.5C16.4,33.9,16.3,33.3,16.2,33.4
	C16.2,33.3,16.2,33.3,16.2,33.4 M15.3,33.9C15.3,34.1,15.3,34.1,15.3,33.9C15.3,34,15.3,33.9,15.3,33.9
	C15.3,33.8,15.3,33.9,15.3,33.9 M16.4,34c0,0.2,0.7,1.7,0.9,1.9c0.1,0.1,0-0.1-0.2-0.5c-0.2-0.3-0.4-0.8-0.5-1
	C16.5,34,16.4,33.9,16.4,34 M15.3,34.7c0,0.1,0,0.2,0.1,0.3C15.4,35,15.4,35,15.3,34.7C15.4,34.5,15.3,34.5,15.3,34.7 M17.5,36.1
	c0,0.1,0.1,0.2,0.1,0.2C17.7,36.4,17.6,36.2,17.5,36.1C17.4,36,17.4,36,17.5,36.1 M17.7,36.5c0.3,0.5,1.5,1.8,2.1,2.3
	c0.2,0.2,0.4,0.3,0.4,0.4c0,0,0,0.1,0.1,0c0.2,0,0.3,0.1,0.2,0.2c-0.1,0.1-0.1,0.1,0,0.1c0.2,0,0.2,0,0.3,0.1c0,0.1,0.1,0.1,0.1,0.1
	c0.1,0,0.1,0,0.1,0.1c0,0.1,0,0.1-0.1,0.1s-0.1,0,0,0.1c0.1,0.1,0.1,0.1,0.2,0.1c0,0,0.1,0,0.1,0s0,0.1,0,0.1c0,0,0,0.1,0.1,0.1
	c0.1,0.1,0.1,0.1,0.1,0.2s0,0.1,0.1,0.1c0.1,0.1,0.1,0.1,0.1,0c0,0,0.1,0,0.2,0.1c0.1,0.1,0.2,0.2,0.2,0.3s0,0.1,0.1,0.1
	s0.1,0,0.1,0c0-0.1,0.1-0.2,0.2-0.2c0,0,0,0,0,0.1c0,0.1,0,0.1,0,0c0.1,0,0.1,0,0,0.1c-0.1,0.1,0,0.1,0.1,0.3
	c0.1,0.1,0.1,0.2,0.1,0.1c0,0-0.1,0-0.1,0c0,0,0,0.1,0.1,0.1c0.1,0,0.1,0.1,0.1,0.2c0,0,0,0.1,0,0.1c0.1,0.1,0.1,0.1-0.1,0.3
	c-0.2,0.1-0.2,0.1-0.3,0l-0.1-0.1L22,42c0.1,0.1,0.2,0.2,0.2,0.1c0,0,0.1-0.1,0.1-0.1c0,0,0,0,0,0.1c0,0-0.1,0.1-0.1,0.1
	s-0.1,0-0.1,0.1c0,0,0,0,0.1,0c0,0,0.1,0,0.1,0c0,0,0,0.1-0.1,0.1c-0.1,0-0.1,0-0.1-0.1c0-0.1,0-0.1-0.1-0.1c-0.1,0.1-0.8,0.1-0.8,0
	c0-0.1,0-0.1-0.2-0.1c-0.1,0-0.2,0-0.2,0s0,0,0-0.1c0,0-0.2-0.1-0.3-0.1c0,0-0.1,0-0.1,0c-0.1-0.1-0.7-0.4-0.7-0.3
	c-0.1,0.1,0.9,0.6,1.6,0.9c1,0.4,1.6,0.6,2.9,0.7c0.4,0.1,0.8,0.1,0.9,0.1c0.1,0,0.4,0.1,0.8,0.2c0.4,0.1,1.3,0.3,1.9,0.5
	c0.8,0.2,1.2,0.3,1.3,0.3c0,0,0.1,0,0.1,0c0,0,0,0,0.1-0.1c0,0,0-0.1,0-0.1c0,0,0-0.1,0-0.1c0,0,0.1-0.1,0-0.2c0-0.1,0-0.1,0-0.1
	s0-0.1,0-0.1c0,0,0-0.1,0-0.1s0.1-0.1,0.1-0.3s0-0.3,0-0.3c0,0,0-0.1,0-0.1c0,0,0-0.1,0-0.1c0.1-0.1,0.1-0.1,0-0.2
	c-0.1-0.1-0.1-0.1,0-0.1c0.3-0.2-1.3-0.7-2.3-0.8c-4.1-0.5-7.1-2-8.9-4.4C17.8,36.5,17.6,36.3,17.7,36.5 M36.6,37
	c-0.8,0.3-2.4,0.6-3.6,0.7c-0.8,0.1-0.8,0.1-0.5,0.3c0.5,0.5,3.5,2,3.7,1.9c0,0-0.3-0.2-0.7-0.3c-1.6-0.6-2.7-1.3-2.2-1.3
	c0.1,0,0.1,0,0.1-0.1c0,0,0-0.1,0,0c0,0,0,0,0-0.1c0-0.1,0-0.2,0.1-0.2c0,0,0,0,0-0.1c0,0,0,0,0,0c0,0,0.2,0,0.3,0s0.3-0.1,0.3-0.1
	s0.2,0,0.3-0.1c0.2-0.1,0.8-0.2,1.3-0.3c0.1,0,0.5-0.1,0.8-0.2c0.8-0.3,1-0.3,1.1-0.3c0,0,0.1,0.1,0.1,0.1c0.1,0,0.3,0.1,0.3,0.2
	c0,0,0.1,0,0.1,0c0.8,0.1,3.4,2.4,3.6,3.1c0.1,0.2,0.1,0.3,0.1,0.3c0.1,0,0.2,0.3,0.1,0.4c0,0.1,0,0.1,0,0.1c0,0,0.1,0.1,0.1,0.3
	c0,0.1,0,0.1,0.1,0.1c0.1,0,0,0.1,0,0.1c0,0-0.1,0.1,0,0.1c0,0,0.1,0,0.1,0c0,0,0,0,0.1,0c0,0,0,0.1,0,0.1c0,0-0.1,0.1,0,0.1
	c0,0,0,0-0.1-0.1c-0.1-0.1-0.2-0.1-0.2-0.1c0,0.1-0.1,0.1-0.2,0c-0.1-0.2-0.3-0.1-0.3,0.1c0,0.1,0,0.1-0.2,0
	c-0.1-0.1-0.3-0.1-0.3,0.1c0,0.1-0.1,0.1-0.2,0s-0.2-0.1-0.2,0c0,0.1-0.1,0.1-0.2,0c-0.1-0.1-0.1-0.1-0.1,0.1c0,0.1,0,0.1-0.1,0.1
	c0,0-0.1,0-0.1-0.1c0,0-0.1-0.1-0.1-0.1c-0.1,0-0.1-0.1-0.1-0.1c0,0-0.1,0-0.1,0c-0.1,0-0.2,0-0.2-0.1c0,0-0.1-0.1-0.2-0.1
	S39,41.5,39,41.5c-0.1-0.1-0.1,0-0.1,0c0,0,0,0.1-0.1,0c0,0,0-0.1,0-0.1c0,0,0,0,0,0c0,0-0.2-0.1-0.3-0.2c-0.1-0.1-0.3-0.2-0.3-0.2
	s-0.1,0-0.1-0.1c0-0.1-0.1-0.1-0.1-0.1c0,0-0.2-0.1-0.4-0.2c-0.4-0.2-1.3-0.6-1.3-0.6c0,0,0.2,0.1,0.4,0.2c1,0.4,1.7,0.9,2.3,1.6
	c0.2,0.2,0.4,0.4,0.4,0.4c0,0,0.1,0,0.1,0.1c0.1,0.1,0.1,0.1,0,0.1c-0.1-0.1-0.1,0,0.1,0.2l0.2,0.2l-0.1-0.2l-0.1-0.2l0.1,0.1
	c0.1,0.1,0.1,0.2,0.1,0.2c0,0,0.1,0.3,0.2,0.5c1,1.8,1,4.3,0.1,6.5c-0.1,0.3-0.2,0.5-0.1,0.5c0,0,0,0,0,0.1s0,0.1,0,0.1
	c0,0,0.1,0,0,0.1c0,0.1,0,0.1-0.1,0.1c-0.1,0-0.1-0.1-0.1-0.1c0-0.1-0.1,0.1-0.3,0.5c-0.2,0.3-0.4,0.7-0.4,0.8
	c-0.1,0.1-0.1,0.3-0.1,0.3c0,0,0.1,0,0.1,0c0,0,0.1-0.2,0.2-0.4c0.1-0.2,0.2-0.3,0.2-0.4s0-0.1,0.1-0.1s0,0,0,0.1
	c-0.1,0.1,0,0.1,0.1,0c0-0.1,0.1-0.1,0,0c0,0.1,0.1,0.1,0.2,0c0,0,0.1,0,0.1,0c0,0,0,0.1-0.1,0.1c0,0-0.1,0-0.1,0.1
	c0,0.1-0.9,0.9-0.9,0.9c0,0,0,0-0.1,0.1c0,0.1-0.3,0.4-0.4,0.6C36,55.7,34,59.6,33.2,63l0,0.1h2.9h3v-0.4c0-1.6,0.6-4.1,1.3-5.8
	c1-2.2,2-3.7,4.3-6c2-2,2.6-3.2,2.9-5.2c0-0.3,0.1-0.6,0.1-0.7c0.1-0.2,0.1-0.2,0-0.1c-0.1,0.1-0.3,0.3-0.5,0.5
	c-0.3,0.2-0.4,0.4-0.4,0.4c0,0,0.2-0.1,0.3-0.2c0.6-0.5,0.6-0.5,0.5,0.3c-0.3,1.9-0.9,3-2.9,5c-0.7,0.7-1.4,1.4-1.5,1.6
	c-0.1,0.2-0.3,0.3-0.3,0.3c-0.4,0.3-1.6,2.2-2.1,3.3c-0.2,0.3-0.3,0.6-0.3,0.6c0,0,0,0.1-0.1,0.2c0,0.1-0.1,0.1-0.1,0.1
	c-0.1,0-0.3,0.2-0.3,0.3c0,0.1-0.2,0.3-0.3,0.3c-0.1,0-0.1,0-0.1,0c0,0,0,0-0.1,0c-0.1-0.1-0.1-0.1-0.1,0c0,0.1-0.1,0.2-0.2,0.1
	c0,0-0.1,0-0.1,0c0,0,0,0.1,0.1,0.1c0,0,0.1,0.1,0.1,0.1c0,0-0.1,0-0.1,0c-0.1,0-0.1-0.1-0.1-0.1s0,0.1,0.1,0.1
	c0.1,0.1,0.1,0.1,0,0.1c0,0-0.1,0-0.1-0.1c0,0-0.1-0.1-0.1,0c0,0-0.1,0-0.1,0c0.1-0.1-0.2,0-0.3,0.1c-0.1,0.1-0.1,0.1-0.1,0.1
	s-0.1,0-0.1,0s0,0.1-0.1,0c-0.1,0-0.2,0-0.2,0c-0.1,0-0.1,0-0.1,0c0,0,0,0-0.1,0c0,0-0.1,0-0.1,0c0,0,0-0.1-0.1-0.1s-0.1,0-0.1,0.1
	c0,0,0,0.1,0,0.1c0,0-0.1,0-0.1,0c0,0-0.1,0-0.1,0.1c0,0,0,0.1,0,0c0,0,0-0.1,0-0.1c0-0.1-0.2-0.1-0.2,0c-0.1,0.1-0.1,0-0.1-0.1
	c0-0.1-0.1-0.2-0.2-0.2c0,0-0.1,0-0.1-0.1c-0.1-0.1-0.3-0.1-0.4,0c-0.1,0.1-0.2,0.1-0.2,0c0,0,0-0.1,0-0.1c0,0-0.1,0-0.1,0
	c0,0.1,0,0.1,0,0c0,0,0-0.1-0.1-0.1c0,0-0.1,0-0.1-0.1c0,0,0,0-0.1,0c-0.1,0.1-0.1,0-0.1-0.2c0-0.1,0-0.2,0.1-0.2
	c0.1,0,0.2-0.2,0.2-0.3c0-0.1,0.2-0.6,0.3-0.5c0,0.1,0.1,0,0.1,0c0,0,0,0-0.1,0c-0.1,0.1-0.1,0,0-0.2c0.1-0.1,0.1-0.1,0.1-0.1
	c0,0,0,0,0,0c0,0,0.2-0.4,0.5-0.8c1.3-1.9,2.4-3.1,4.2-4.7c0.6-0.5,1.1-0.9,1.1-1c0.1-0.1,0.1-0.2,0.1-0.3c0,0,0-0.1,0.1,0
	c0,0,0,0,0,0c0-0.1,0.1-0.4,0.2-0.4c0.1,0,0.3-0.6,0.2-0.7c0-0.1,0-0.1,0,0s0.1,0.1,0,0c0-0.1,0-0.1,0-0.1c0.2-0.1,0.4-2.2,0.3-3.1
	c-0.3-2.8-1.3-4.8-3.1-6.3c-0.6-0.5-0.7-0.6-1.2-0.8C37.5,36.8,37.5,36.7,36.6,37 M18.2,40.3c0.1,0.2,0.5,0.5,0.7,0.6l0.2,0.1L19,41
	c-0.1-0.1-0.1-0.1-0.2-0.1s-0.2-0.1-0.3-0.2C18.3,40.3,18.1,40.2,18.2,40.3 M21.6,40.6c0,0.1,0.1,0.1,0.1,0
	C21.7,40.6,21.7,40.5,21.6,40.6C21.6,40.5,21.6,40.5,21.6,40.6 M22.6,41.1c0,0-0.1,0.1-0.2,0.1c0,0-0.1,0-0.1-0.1s0.1-0.1,0.1-0.1
	S22.6,41.1,22.6,41.1 M22.1,41.2c0,0,0,0.1,0,0.1S22.1,41.3,22.1,41.2C22.2,41.1,22.2,41.1,22.1,41.2 M39.2,41.7
	C39.5,42.1,39.5,42.1,39.2,41.7c-0.1,0-0.2-0.1-0.2-0.1S39.1,41.6,39.2,41.7 M47.7,42.4C47.7,42.5,47.7,42.5,47.7,42.4
	C47.7,42.4,47.7,42.3,47.7,42.4C47.7,42.2,47.7,42.3,47.7,42.4 M30.1,42.8c0,0.1,0,0.1,0.1,0.2c0.2,0.1,0.3,0.1,0.1-0.2
	C30.1,42.7,30.1,42.7,30.1,42.8 M47.7,43C47.7,43.1,47.7,43.1,47.7,43C47.7,43,47.7,42.9,47.7,43C47.7,42.8,47.7,42.8,47.7,43
	 M47.8,43.9c0,0.1,0,0.2,0,0.1s0-0.2,0-0.2S47.8,43.8,47.8,43.9 M43.1,48.8c-0.4,0.3-0.6,0.5-0.5,0.5c0,0,0.1-0.1,0.3-0.2
	S43.1,48.9,43.1,48.8c0.1,0,0.2-0.1,0.2-0.1C43.3,48.7,43.2,48.7,43.1,48.8 M40.4,49.8c0,0.1-0.1,0.3-0.1,0.2c0-0.1,0.1-0.3,0.1-0.3
	C40.4,49.7,40.4,49.7,40.4,49.8 M39.6,57.5c0.1,0,0.1,0.1,0.1,0.1C39.8,57.5,39.7,57.4,39.6,57.5C39.6,57.4,39.6,57.4,39.6,57.5
	 M36.5,57.8C36.6,57.9,36.6,58,36.5,57.8c-0.1,0.1-0.2,0.1-0.2,0.1s0,0.1,0.1,0.1s0.1,0,0.1,0.1s0,0.1-0.1,0.1c0,0-0.1,0-0.1-0.1
	s0,0-0.1,0c-0.1,0.1,0-0.1,0.1-0.2c0.1,0,0.1-0.1,0.1-0.1C36.4,57.8,36.5,57.8,36.5,57.8 M38.2,58.2c0,0.1-0.1,0-0.1-0.1
	C38,58.1,38.1,58.1,38.2,58.2C38.1,58.2,38.2,58.2,38.2,58.2"/>
<path id="path2" class="st2" d="M41.2,17.9C41.2,18,41.2,18,41.2,17.9c0,0.1,0.1,0.2,0.1,0.3c0,0.1,0,0.1,0,0.1c0,0-0.1-0.1-0.1,0
	c0,0,0,0.1,0,0.1c0,0,0,0.1,0,0.1c0,0,0,0.1,0,0.1c0.4,0,2,1.4,2.7,2.4c0.2,0.2,0.3,0.3,0.3,0.3c0,0,0.1,0,0.1,0s0,0-0.1,0
	c-0.1-0.1-0.1,0,0.1,0.3c0.2,0.3,0.3,0.4,0.2,0.2c0-0.1,0-0.1,0-0.2c0-0.1,0-0.1-0.1,0c-0.1,0-0.1,0-0.1,0s0-0.1,0.1-0.1
	s0.1,0,0.1-0.1c0,0,0-0.1,0.1-0.1c0,0,0,0.1,0,0.1c0,0.1,0,0.1,0.1,0c0-0.1,0.1-0.1,0.1,0c0,0,0,0.1,0.1,0.1c0,0,0.1,0,0-0.1
	c0,0,0-0.1,0-0.1s0.1,0,0.1-0.1c0-0.1,0-0.1,0.2,0c0.1,0.1,0.3,0,0.3-0.1c0,0,0,0,0,0c0,0.1,0,0.1-0.1,0.1s-0.1,0-0.1,0.1
	c0,0,0,0.1,0.1,0.1c0,0,0.1,0,0.1,0c0.1,0,0.1,0,0.1-0.1c0-0.1,0-0.1,0.1,0c0.1,0.1,0.3,0,0.2-0.1c0-0.1,0-0.1,0.1-0.1
	c0.1,0,0.1,0,0,0.1c-0.1,0.2,0.1,0.2,0.2,0c0.1-0.1,0.1-0.1,0.1,0c0,0.1,0,0.1-0.1,0.2c-0.1,0.1-0.1,0.1,0,0c0.1,0,0.1,0,0.1,0
	c0,0,0.1,0,0.1,0s0-0.1,0-0.1c0,0,0-0.1,0-0.1s0.1-0.1,0.1-0.1c0-0.1,0-0.1,0.1,0c0.1,0.1,0.5,0,0.4-0.1c0-0.1,0-0.1,0-0.1
	c0,0,0.1,0,0.1,0c0,0.1,0.2,0,0.2-0.2c0-0.2,0-0.3,0.1-0.3c0,0,0,0,0,0.1c-0.1,0.1,0,0.1,0.1,0c0.1-0.1,0.1-0.2,0-0.1
	c-0.1,0-0.1-0.1-0.1-0.1c0.1-0.1,0.1-0.3,0-0.3c-0.1,0-0.1,0-0.1,0c0,0.1-0.1,0-0.2-0.1c0-0.1-0.1-0.1-0.1-0.1c0,0-0.1,0-0.1-0.1
	c-0.1-0.1-0.2-0.2-0.7-0.4c-0.2-0.1-0.4-0.2-0.6-0.3c-0.1-0.1-0.3-0.2-0.3-0.2c0,0-0.1,0-0.1-0.1s0-0.1,0.1-0.1s0.1,0,0.1,0.1
	s0,0,0.1,0c0.1,0,0.2,0,0.2,0.1c0,0,0,0.1,0.1,0.1c0.1,0,0.2,0,0.2,0c0.1,0,0,0-0.1-0.1c-0.3-0.2-1.1-0.5-1.2-0.4
	c-0.1,0.1,0,0.1,0.1,0c0.1,0,0.1,0,0.1,0c0,0,0,0,0,0c0,0,0.1,0,0.1,0c0,0,0,0,0.1,0c0.1,0,0.1,0,0.1,0.1c0,0.1-0.1,0.1-0.2,0
	c0,0-0.1,0-0.1,0s-0.2,0-0.3-0.1c-0.1-0.1-0.3-0.1-0.3-0.1c-0.1,0-0.2-0.1-0.2-0.1c-0.1-0.1-0.1-0.1-0.2-0.1c-0.1,0-0.1,0-0.2-0.1
	C43.3,18,41.4,17.8,41.2,17.9 M23,19.7c-2.5,1.8-3.4,5.9-1.9,8.8c0.6,1.3,2.1,2.9,2.1,2.3c0-0.1,0-0.1-0.1,0c-0.1,0-0.1,0-0.1,0
	c0-0.1,0.4-0.1,0.4,0c0,0.1,0,0.1,0.1,0c0-0.1,0.1-0.1,0.2-0.1c0.1,0,0.1,0,0,0.1c0,0-0.1,0.1,0,0.1c0.1,0,0.2-0.1,0.2-0.2
	c0-0.1,0-0.1,0.2,0c0.1,0.1,0.4,0.1,0.4,0.1c0,0,0-0.1,0.1-0.1c0.1,0,0.1,0,0.1,0s0,0.1,0.1,0.1c0,0,0,0,0-0.1c0-0.1,0-0.1,0.1-0.1
	c0.1,0,0.1,0,0-0.1c-0.1,0,0,0,0,0c0.1,0,0.1-0.1,0.2-0.1C25,30,25,30,25.1,30c0.1,0,0.1,0,0.2-0.1c0-0.1,0.1-0.1,0.1-0.1
	s0.1,0,0.1-0.1c0.1-0.1,0.1-0.1,0.2,0c0,0,0.1,0.1,0.1,0.1c0,0,0.1-0.3,0.1-0.4c0,0,0,0,0.1,0s0.1,0.1,0.1,0.1s0,0,0-0.1
	c-0.1,0-0.1-0.1,0-0.1c0.1-0.1,0.1-0.2,0-0.2c0,0,0-0.1,0-0.1c0,0,0-0.1,0-0.1c0-0.1,0-0.1,0-0.1s0.1-0.1,0-0.2c0-0.1,0-0.2,0.1-0.2
	c0,0,0.1,0,0.1-0.1c0,0-0.1-0.1-0.1-0.1c-0.1,0-0.1,0-0.1-0.1c0,0,0,0-0.1,0c-0.1,0-0.1,0-0.1,0c0-0.1,0.2-0.1,0.2,0c0,0,0,0,0-0.1
	c-0.1-0.2,0.2-0.4,0.3-0.2c0,0.1,0,0.1,0.1,0s0.1-0.1,0.1,0c0,0,0.1,0.1,0.1,0.1c0,0,0,0-0.1-0.1c-0.1-0.1-0.2-0.1-0.2-0.1
	c0,0,0,0,0,0c0,0-0.3-0.3-0.7-0.7c-0.4-0.4-0.8-0.8-0.8-1c-0.1-0.2-0.3-0.5-0.5-0.8c-0.2-0.3-0.4-0.6-0.5-0.7s-0.2-0.3-0.2-0.3
	c0,0,0,0,0,0c0-0.2,0-0.3-0.1-0.2c0,0,0,0,0,0c0,0,0-0.3-0.1-0.5c-0.4-1-0.4-2.1-0.2-3.1c0-0.1,0-0.1,0-0.1c-0.1,0.1-0.1,0.1,0,0
	c0-0.1,0-0.1,0-0.2s0,0,0.1,0c0,0.1,0.1,0,0-0.1c0-0.1,0-0.3,0-0.4c0-0.1,0-0.3,0-0.3C23.3,19.5,23.1,19.6,23,19.7 M47.4,20.7
	c-0.1,0.1-0.1,0.2,0.1,0.2c0.1,0,0.1,0,0.1,0.1c0,0.1,0,0.1-0.1,0.1c-0.1,0-0.1,0,0,0.1c0.1,0.1,0.2,0,0.3-0.4
	C47.7,20.6,47.5,20.6,47.4,20.7 M25.6,23c-0.1,0-0.2,0.1-0.3,0.1c-0.7,0,0.6,2.8,1.7,3.8c0.7,0.6,1.8,1.2,2.4,1.3c0,0,0.1,0,0.1,0
	c0.2,0.1,0.9,0.2,1,0.1c0,0,0.2-0.1,0.5-0.1c0.3,0,0.5,0,0.6,0c0,0,0.1,0,0.1,0c0,0,0.1,0.1,0.2,0.1c0.1,0,0.3,0,0.3,0
	c0.2,0.1,0.6-0.1,0.6-0.2c0-0.2,0.1-0.2,0.3-0.1c0.1,0.2,0.2,0.2,0.2,0c0-0.1,0-0.1,0-0.1c0.1,0,0.1,0,0,0c0-0.1,0-0.1,0.1,0
	c0.1,0.1,0.3,0.1,0.2,0c-0.1-0.1,0.1-0.2,0.2-0.1c0,0,0.1,0,0.1-0.1c0-0.1,0.1-0.1,0.2-0.1c0.1,0,0.1,0,0.1-0.1c0-0.1,0-0.1,0.1-0.1
	c0.1,0,0.1,0,0.1,0.1c0,0,0.1,0,0.2,0c0.2-0.1,0.3-0.2,0.1-0.2c-0.1,0-0.1,0-0.1-0.1c0.1,0,0.1,0,0.2,0.1c0.1,0.1,0.1,0.1,0.2,0.1
	c0.2,0,0.2-0.1,0.1-0.1c-0.1-0.1-0.1-0.1-0.1,0c0,0.1,0,0.1-0.1,0c0-0.1,0-0.1,0-0.1c0.1-0.1,0.1,0,0.1,0c0,0,0,0,0.1,0
	c0-0.1,0.1-0.1,0.1,0c0,0,0,0.1,0.1,0c0.1,0,0.1,0,0,0.1c-0.1,0.2-0.1,0.2,0,0.2c0.1,0,0.1,0,0.1-0.1s0-0.1,0-0.2
	c0-0.1,0.1-0.1,0-0.2c0-0.1,0-0.1,0.1,0c0,0,0.1,0.1,0,0.2c0,0.1,0,0.1,0.1,0c0.1-0.1,0.1-0.1,0-0.2s-0.1-0.1,0.1-0.1
	c0.1,0,0.2,0,0.2-0.1c0.1-0.1,0.1-0.1,0.1,0c0.1,0.1,0.1,0.1,0,0c0,0,0-0.1,0-0.1c0,0,0.1,0,0-0.1c0,0,0-0.1,0.1-0.2
	c0.1-0.1,0.1-0.1,0.1,0C36,27,36,27,36.2,26.9c0.1-0.1,0.1-0.1,0.1-0.1s0-0.1,0-0.1c0,0,0.1-0.1,0.1,0s0.1,0.1,0.1,0.1
	c0.1,0,0.1,0,0.1-0.1c0,0,0-0.1,0-0.1c0.1,0,0.2,0,0.4,0c0.1,0,0.1,0,0.1-0.1c-0.1,0-0.1-0.1,0-0.1c0.1,0,0.2-0.1,0.2-0.2
	c0,0,0-0.1,0.1-0.1c0.1,0,0.1,0,0.1-0.1s0-0.1,0.1,0c0,0,0.1,0.1,0.1,0.1c0,0.1,0.1,0.1,0.1-0.1c0.1-0.1,0.1-0.2,0.1-0.1
	c0,0,0.1,0.1,0.1,0.1c0,0,0-0.1-0.1-0.1c-0.1-0.1-0.1-0.1-0.1-0.2c0.1,0,0-0.1-0.1-0.1c-0.1,0-0.5,0-0.5-0.1c0,0,0.1,0,0.1,0
	c0.1,0,0.1,0,0.1,0c0-0.1-0.4-0.1-0.4,0c0,0,0,0,0.1,0c0,0,0.1,0,0.1,0.1c0,0.1-0.1,0.1-0.2-0.1c0-0.1-0.1-0.1-0.1-0.1
	c0,0,0,0.1,0,0.1c0.1,0.1,0,0.2-0.2,0.1c-0.1-0.1-0.1-0.1,0,0c0.1,0,0.1,0,0.1,0c0,0-0.1-0.1-0.1-0.1c0,0-0.1,0-0.1,0
	c0,0-0.4,0-1.8-0.1c-0.8,0-1.4-0.1-1.4-0.1c0,0-0.5,0-1,0s-1,0-1,0c0,0-0.2,0-0.5,0l-0.5,0l0.2-0.2c0.1-0.1,0.1-0.1,0.1-0.1
	c-0.2,0.1-0.1,0,0-0.2c0.4-0.4,0.7-0.9,0.4-0.8c-0.1,0.1-1.8,0-2.1,0c-0.1,0-0.4-0.1-0.7-0.1c-0.3-0.1-0.7-0.2-0.9-0.2
	s-0.5-0.2-0.6-0.2s-0.2-0.1-0.3-0.1c-0.1,0-0.1-0.1-0.2-0.1c-0.1,0-0.2-0.1-0.2-0.1c-0.1-0.1-0.1-0.1-0.1-0.1c0,0-0.1,0-0.1,0
	C25.7,23,25.7,23,25.6,23 M47.4,25.2c-0.1,0.3-0.4,1-0.6,1.4c-0.2,0.5-0.4,0.9-0.4,0.9c0,0-0.1,0.3-0.3,0.6
	c-0.1,0.3-0.3,0.6-0.3,0.6s-0.1,0.3-0.3,0.6c-0.2,0.3-0.3,0.6-0.3,0.6s0,0,0,0c-0.1,0-0.1,0.1-0.1,0.2c0,0,0,0,0,0
	c0,0-0.1,0-0.1,0.1c0,0.1-0.1,0.3-0.3,0.6c-0.1,0.3-0.3,0.5-0.3,0.6c0,0.1,0,0.1,0,0.1c-0.1,0-0.4,0.5-0.4,0.6c0,0.1,0,0.1,0,0.1
	c-0.1-0.1,0,0.2,0.1,0.3c0.1,0.1,0.1,0.1,0.1,0.2c0,0.1,0,0.1,0,0.1c0,0,0.1,0.1,0.1,0.1c0,0,0,0.1,0.1,0.1c0.1,0,0.1,0,0,0
	c-0.1,0-0.1,0-0.1,0.2c0,0.1,0,0.2-0.1,0.3c0,0.1,0,0.1,0,0c0.1,0,0.1,0,0.1,0c0,0,0,0,0-0.1c0,0,0,0,0.1,0c0.1,0,0.2,0.1,0.2,0.1
	c0,0,0.1,0,0.2,0c0.1,0,0.3,0,0.3,0c0.1,0.1,0.1,0.1,0.1,0c0-0.1,0-0.1,0.1,0c0.1,0.1,0.1,0.1,0.2,0c0.1-0.1,0.1-0.1,0.1,0
	c0,0.1,0.1,0,0.1-0.1c0,0,0,0,0.1,0c0.1,0,0.1,0,0.1,0c0,0,0.1,0,0.1,0c0.1,0,0.1,0,0,0c-0.1-0.1,0.1-0.2,0.2-0.2c0.1,0,0.1,0,0.1,0
	c0,0,0-0.1,0-0.1c0,0,0.1-0.1,0-0.1s0,0,0-0.1c0,0,0.1-0.1,0.2-0.1c0.1,0,0.1,0,0.1-0.1c0,0,0-0.1,0-0.1c0.2,0,0.2,0,0.2-0.1
	c0-0.1,0-0.1,0.1-0.1s0.1,0,0.1-0.1c0,0,0-0.1,0.1-0.1c0.1,0,0.1,0.1,0,0.1c-0.1,0-0.1,0.1,0,0.1c0,0,0.1,0,0.1,0
	c0-0.2,0.3-0.3,0.4-0.3c0.1,0.1,0.1,0.1,0.1,0c0,0,0-0.1,0.1,0c0,0,0.1,0,0.1,0c0,0,0,0,0.1,0c0.1,0,0.1,0,0.1,0
	c0-0.1,0.1-0.2,0.3-0.2c0.1,0,0.1,0,0.1,0s0,0,0,0c0,0.1,0.1,0.1,0.2,0c0.1-0.1,0.2-0.2,0.2-0.2c0.1,0,0.1-0.1,0.1-0.2
	c0-0.1,0-0.1,0.1-0.1c0,0,0-0.1,0-0.1c0-0.1,0-0.1,0.1-0.1c0.1,0,0.1,0,0.1-0.1c0-0.1,0-0.1,0.1-0.1c0,0,0.1-0.1,0.1-0.2
	c0-0.1,0.1-0.1,0.1-0.1c0.1,0,0.1,0,0.1-0.2c0,0,0,0,0.1,0c0.1,0.1,0.1,0.1,0.1,0c0,0,0-0.1,0.1,0c0,0,0,0.1,0,0.1c0,0,0,0.1,0,0.1
	c0.3,0,0.3-0.8-0.1-1.9c-0.1-0.4-0.3-0.8-0.3-0.8c0-0.1,0-0.2-0.1-0.2c0,0-0.1,0,0,0c0-0.2,0-0.3-0.1-0.2c0,0-0.1,0,0,0
	c0-0.1-0.3-1-0.4-0.9c0,0,0,0,0-0.1c0-0.1,0-0.1,0-0.1s-0.1,0-0.1-0.1s0-0.1,0-0.1c0,0,0,0,0-0.1c0-0.1-0.1-0.1-0.1-0.1
	c-0.1,0-0.1-0.2-0.1-0.4c0-0.1,0-0.1-0.1-0.1s0,0,0,0c0.1-0.1,0-0.2-0.1-0.2c0,0,0,0,0-0.1c0-0.1,0-0.1,0-0.1c0,0,0,0,0-0.1
	c0,0,0-0.1,0-0.1c0,0-0.1-0.1-0.2-0.3C47.6,24.5,47.6,24.5,47.4,25.2 M37.4,25.5C37.4,25.5,37.5,25.6,37.4,25.5
	c0.1,0.1,0.2,0.1,0.1,0.1C37.5,25.5,37.4,25.4,37.4,25.5 M37.8,25.5C37.8,25.6,37.8,25.6,37.8,25.5c0,0,0.1,0,0.1,0.1
	c0.1,0.1,0.1,0.1,0.1,0C37.9,25.5,37.8,25.4,37.8,25.5 M38,25.5c0,0,0.1,0,0.1,0s0.1,0,0.2,0c0.1,0,0.1,0,0,0
	C38.3,25.5,38,25.4,38,25.5 M38.1,25.7c0,0.1-0.1,0.1-0.1,0.1c-0.1-0.1-0.2,0-0.1,0.1c0,0.1,0.1,0.1,0.1,0.1c0.1,0,0.1,0,0.1,0
	c0,0,0,0,0,0S38.1,25.8,38.1,25.7C38.2,25.7,38.2,25.7,38.1,25.7C38.2,25.6,38.1,25.6,38.1,25.7 M38.2,25.8c0,0.1,0.1,0.2,0.2,0.1
	c0,0,0-0.1,0-0.1c0,0-0.1-0.1-0.1-0.1c0-0.1,0-0.1-0.1-0.1C38.3,25.7,38.2,25.7,38.2,25.8 M36.9,26.4C36.9,26.4,36.8,26.5,36.9,26.4
	C36.8,26.5,36.8,26.5,36.9,26.4c-0.1,0-0.1,0-0.1-0.1C36.7,26.3,36.7,26.3,36.9,26.4C36.8,26.3,36.9,26.4,36.9,26.4 M30.6,28.4
	c0,0.1,0.3,0.1,0.4,0c0.1,0,0,0-0.2,0C30.7,28.4,30.6,28.4,30.6,28.4 M31.1,28.4c0,0,0.1,0,0.1,0s0.1,0,0.1,0c0,0-0.1,0-0.1,0
	S31.1,28.4,31.1,28.4 M15.2,30.4c0,0.1,0,0.5-0.1,0.7c0,0.5,0,0.3,0.1-0.6C15.3,30.1,15.3,29.9,15.2,30.4 M24.3,30.5
	c0,0-0.1,0-0.1,0c-0.1,0-0.1,0,0-0.1c0,0,0-0.1,0-0.1c0,0-0.1,0-0.1-0.1s0.1,0,0.1,0C24.3,30.4,24.3,30.5,24.3,30.5 M23.3,31.3
	c0.3,0.3,0.9,0.7,0.6,0.5c-0.1-0.1-0.2-0.2-0.3-0.3c-0.1-0.1-0.2-0.2-0.2-0.2c0,0,0,0,0,0c0,0-0.1-0.1-0.2-0.1S23.1,31,23,31
	C23,31,23.1,31.1,23.3,31.3 M15.6,31.3c0,0.1,0,0.2,0,0.3c0.1,0.1,0,0.5-0.1,0.5c0,0,0,0,0,0.1c0,0.1,0,0.1-0.2,0.1
	c-0.1,0-0.2,1.8-0.1,2.4c0,0.3,0.1,0.3,0.1,0.2c0-0.1,0-0.1,0,0c0,0.1,0,0.2,0,0.3c0,0.1,0,0.1,0,0.1c-0.1-0.1-0.1,0,0.1,0.6
	c0.1,0.2,0.1,0.3,0.1,0.2c0-0.1,0,0,0,0.2c0,0.2,0.1,0.4,0.2,0.7c0.1,0.2,0.2,0.4,0.2,0.4s0,0,0.1,0c0,0,0,0,0,0.1
	c-0.1,0.2,0.8,1.8,1.1,2.1c0.1,0.1,0.1,0.1,0.1,0.1c-0.1-0.1,0.1,0.3,0.6,0.7c0.3,0.3,1,0.9,0.9,0.8c0,0,0-0.1,0-0.1s0.1,0,0.1,0.1
	c0,0,0.1,0.1,0.1,0.1S19,40.9,19,41c0.1,0.1,0.1,0.1,0,0.1c-0.1-0.1-0.1-0.1,0,0c0.1,0.1,0.1,0.1,0.2,0.1c0.1,0,0.1,0,0,0
	c-0.1,0,0,0.1,0.2,0.2c0.1,0.1,0.2,0.1,0.2,0.1c-0.1-0.1,0.5,0.1,0.7,0.3c0,0,0.1,0.1,0.1,0c0.1,0,0.3,0.1,0.3,0.1c0,0,0,0.1,0,0.1
	s0.1,0,0.2,0c0.2,0,0.2,0.1,0.2,0.1c0,0.1,0.7,0.1,0.8,0c0.1-0.1,0.1-0.1,0.1,0.1c0,0.1,0,0.1,0.1,0.1c0.1,0,0.1,0,0.1-0.1
	c0,0,0,0-0.1,0c0,0-0.1,0-0.1,0c0,0,0-0.1,0.1-0.1s0.1,0,0.1-0.1c0-0.1,0-0.1,0-0.1s-0.1,0-0.1,0.1c-0.1,0.1-0.1,0.1-0.2-0.1
	l-0.1-0.1l0.1,0.1c0.2,0.1,0.6-0.2,0.4-0.3c0,0,0-0.1,0-0.1c0.1,0,0-0.2-0.1-0.2c0,0-0.1,0-0.1-0.1c0,0,0,0,0.1,0c0.1,0,0,0-0.1-0.1
	c-0.1-0.1-0.1-0.2-0.1-0.3c0.1-0.1,0.1-0.1,0-0.1c-0.1,0-0.1,0,0,0c0-0.1,0-0.1,0-0.1c-0.1,0-0.2,0.1-0.2,0.2c0,0,0,0-0.1,0
	s-0.1-0.1-0.1-0.1s-0.1-0.2-0.2-0.3c-0.1-0.1-0.2-0.1-0.2-0.1c0,0.1,0,0.1-0.1,0c0,0-0.1-0.1-0.1-0.1c0,0,0-0.1-0.1-0.2
	C21.3,40,21.2,40,21.3,40c0,0,0-0.1,0-0.1s-0.1,0-0.1,0C21.1,40,21,40,21,39.9c0-0.1,0-0.1,0-0.1c0.1,0,0.1,0,0.1-0.1
	c0-0.1-0.1-0.1-0.1-0.1s-0.1,0-0.1-0.1c-0.1-0.1-0.1-0.2-0.3-0.1c-0.1,0-0.1,0,0-0.1c0.1-0.1,0-0.2-0.2-0.2c0,0-0.1,0-0.1,0
	c0,0-0.2-0.2-0.4-0.4c-0.5-0.4-1.4-1.3-1.8-1.8c-0.2-0.3-0.4-0.5-0.8-1.2c-0.5-0.9-1.2-2.6-1.4-4c-0.1-0.3-0.1-0.5-0.1-0.5
	C15.7,31.5,15.7,31.4,15.6,31.3C15.6,31.1,15.6,31.1,15.6,31.3 M15.1,32.4c0,0.3,0,0.4,0,0.2c0-0.1,0-0.4,0-0.5
	C15.1,32,15.1,32.1,15.1,32.4 M47.7,32c-0.1,0-0.1,0.1-0.1,0.1c0,0-0.1,0-0.1,0c0,0,0-0.1,0.1-0.1C47.7,31.9,47.8,31.9,47.7,32
	 M43.9,32.9C43.9,33,44,33,43.9,32.9C44.1,32.9,44.1,32.9,43.9,32.9C44,32.8,43.9,32.8,43.9,32.9 M15.2,33.5c0,0.1,0,0.2,0,0.1
	s0-0.2,0-0.3C15.2,33.3,15.2,33.3,15.2,33.5 M15.3,34C15.3,34.1,15.3,34.1,15.3,34c0-0.2,0-0.2,0-0.2C15.3,33.9,15.3,34,15.3,34
	 M37.3,36.9c-0.7,0.2-1.4,0.4-1.6,0.5c-0.5,0.1-1.1,0.2-1.3,0.3c-0.1,0-0.2,0.1-0.3,0.1s-0.2,0-0.3,0.1c-0.1,0-0.3,0.1-0.3,0
	c0,0,0,0,0,0c0,0,0,0.1,0,0.1c0,0-0.1,0.1-0.1,0.2c0,0.1,0,0.1,0,0.1c0,0,0,0,0,0c0,0-0.1,0.1-0.1,0.1c-0.6,0,0.5,0.7,2.5,1.4
	c1.3,0.5,1.3,0.5,1.9,0.8c0.2,0.1,0.4,0.2,0.4,0.2c0,0,0.1,0,0.1,0.1c0,0.1,0.1,0.1,0.1,0.1c0,0,0.2,0.1,0.3,0.2
	c0.1,0.1,0.3,0.2,0.3,0.2c0,0,0,0,0,0c0,0,0.1,0.2,0.3,0.3c0.2,0.2,0.3,0.2,0.2,0.1c-0.1-0.1-0.2-0.2-0.2-0.3S39,41.5,39,41.5
	c0,0,0,0,0.1,0c0.1,0,0.1,0.1,0.2,0.1c0.1,0,0.2,0.1,0.2,0.1c0,0.1,0.1,0.1,0.2,0.1c0.1,0,0.1,0,0.1,0c0,0,0.1,0.1,0.1,0.1
	c0.1,0,0.1,0.1,0.1,0.1c0,0,0,0.1,0.1,0.1c0.1,0,0.1,0,0.1-0.1c0-0.1,0-0.1,0.1-0.1c0.1,0.1,0.1,0.1,0.2,0c0-0.1,0.1,0,0.2,0
	c0.1,0.1,0.2,0.1,0.2,0c0-0.1,0.2-0.1,0.3-0.1c0.1,0.1,0.1,0.1,0.2,0c0.1-0.2,0.3-0.3,0.3-0.1c0.1,0.1,0.2,0.1,0.2,0
	c0,0,0.1,0,0.2,0.1c0.1,0.1,0.2,0.1,0.1,0.1c0,0,0-0.1,0-0.1c0,0,0.1-0.1,0-0.1c0,0-0.1,0-0.1,0c0,0-0.1,0.1-0.1,0c0,0,0-0.1,0-0.1
	c0.1,0,0.1,0,0-0.1c0,0-0.1-0.1-0.1-0.1c0-0.2,0-0.3-0.1-0.3c0,0,0-0.1,0-0.1c0-0.1-0.1-0.4-0.1-0.4c0,0-0.1-0.1-0.1-0.3
	c-0.1-0.4-1.2-1.6-2.2-2.3c-0.3-0.2-1.3-0.8-1.4-0.8c-0.1,0-0.1,0-0.1,0c-0.1-0.1-0.3-0.2-0.3-0.2c0,0-0.1,0-0.1-0.1
	C37.5,36.9,37.4,36.9,37.3,36.9 M18.5,40.6l0.1,0.1L18.5,40.6c-0.2-0.1-0.4-0.4-0.2-0.2C18.3,40.4,18.4,40.5,18.5,40.6 M21.7,40.6
	c0,0.1-0.1,0.1-0.1,0C21.6,40.5,21.6,40.5,21.7,40.6C21.7,40.6,21.7,40.6,21.7,40.6 M22.4,41.1c0,0.1,0.1,0.1,0.2,0
	c0.1-0.1,0.1-0.1-0.1-0.1C22.4,41.1,22.4,41.1,22.4,41.1 M22.2,41.2C22.2,41.3,22.1,41.3,22.2,41.2C22.1,41.3,22.1,41.2,22.2,41.2
	C22.2,41.1,22.2,41.1,22.2,41.2 M39.8,42.5c0.1,0.1,0.1,0.2,0.1,0.2S39.9,42.6,39.8,42.5c0-0.1-0.1-0.2-0.1-0.2
	C39.7,42.3,39.7,42.4,39.8,42.5 M47.3,45.4c-0.1,0.1-0.2,0.1-0.2,0.1c0,0,0,0,0,0c0,0,0,0.1-0.1,0.2c-0.2,0.2-0.3,0.2-0.2,0.1
	c0.1-0.1,0.1-0.1,0,0c-0.1,0.1-0.1,0.1-0.1,0.1c0,0,0,0,0,0c-0.1,0-1.3,1-1.3,1.1c0,0,0,0,0,0c0,0-1.6,1.2-2,1.6
	c-0.1,0.1-0.1,0.1-0.1,0.1c0.1-0.1,0.1,0,0,0.1c-0.1,0.1-0.2,0.1-0.2,0c0,0,0,0-0.1,0c-0.1,0-0.1,0.1-0.1,0.1c0,0-0.2,0.3-0.3,0.3
	c0,0,0,0,0-0.1c0-0.1,0,0-0.2,0.1c-0.1,0.1-0.3,0.2-0.3,0.2s-0.5,0.5-1.1,1c-1.9,1.6-3,2.8-4.2,4.7c-0.3,0.4-0.5,0.8-0.5,0.8
	c0,0,0,0,0,0c-0.1-0.1-0.5,0.7-0.5,0.9c0,0.1-0.1,0.3-0.2,0.3c0,0-0.1,0.1-0.1,0.3c0,0.2,0,0.2,0.1,0.2c0.1,0,0.1-0.1,0.1,0
	c0,0,0,0.1,0.1,0.1c0,0,0.1,0,0.1,0.1c0,0.1,0,0.1,0,0c0,0,0.1,0,0.1,0c0,0,0.1,0.1,0,0.1c-0.1,0.1,0.1,0.1,0.2,0
	c0.1-0.1,0.3-0.1,0.4,0c0,0,0.1,0.1,0.1,0.1c0.1,0,0.2,0.1,0.2,0.2c0,0.1,0,0.2,0.1,0.1c0.1-0.1,0.3-0.1,0.2,0c0,0,0,0.1,0,0.1
	c0,0,0.1,0,0,0s0-0.1,0.1-0.1c0,0,0.1,0,0.1,0c0,0,0.1,0,0-0.1c0-0.1,0-0.1,0.1-0.1c0,0,0.1,0,0.1,0.1c0,0,0,0,0.1,0
	c0,0,0.1,0,0.1,0c0,0,0,0,0.1,0c0.1,0,0.2,0,0.2,0c0.1,0,0.1,0,0.1,0c0,0,0-0.1,0.1,0c0.1,0,0.1,0,0.1-0.1c0.1-0.1,0.3-0.2,0.3-0.1
	c0,0,0,0,0.1,0c0,0,0.1,0,0.1,0c0,0,0.1,0.1,0.1,0.1c0.1,0,0.1,0,0-0.1c-0.1,0-0.1-0.1-0.1-0.1c0,0,0.1,0,0.1,0.1
	c0.1,0.1,0.1,0.1,0.1,0c0,0,0-0.1-0.1-0.1c0,0-0.1-0.1-0.1-0.1s0,0,0.1,0c0.1,0.1,0.2,0,0.2-0.1c0-0.1,0-0.1,0.1,0
	c0.1,0,0.1,0.1,0.1,0c0,0,0.1-0.1,0.1,0c0.1,0,0.3-0.1,0.3-0.3c0-0.1,0.2-0.3,0.3-0.3c0,0,0.1-0.1,0.1-0.1c0-0.1,0-0.1,0.1-0.2
	c0,0,0.2-0.3,0.3-0.6c0.5-1.1,1.8-3,2.1-3.3c0,0,0.1-0.2,0.3-0.3c0.1-0.2,0.8-0.9,1.5-1.6c2-2.1,2.7-3.2,2.9-5.1
	C47.6,45.3,47.6,45.3,47.3,45.4 M39.7,57.4C39.8,57.5,39.8,57.5,39.7,57.4C39.8,57.5,39.7,57.5,39.7,57.4
	C39.5,57.4,39.6,57.4,39.7,57.4 M36.3,57.9c-0.1,0.1-0.2,0.2-0.1,0.2c0,0,0.1,0,0.1,0s0,0.1,0.1,0.1s0.1,0,0.1-0.1s0-0.1-0.1-0.1
	C36.4,58,36.3,58,36.3,57.9c0,0.1,0.1,0.1,0.1,0.1c0.1,0,0.2,0,0.1-0.1c0,0-0.1,0-0.1,0C36.4,57.8,36.4,57.9,36.3,57.9 M38,58.2
	c0,0.1,0.1,0.1,0.1,0.1C38.2,58.2,38.1,58.2,38,58.2C38.1,58.1,38,58.1,38,58.2"/>
<path id="path4" class="st3" d="M35.9,10.8c0.1,0,0.2,0,0.2,0C36.1,10.8,36.1,10.8,35.9,10.8C35.8,10.8,35.8,10.8,35.9,10.8
	 M35.4,10.9c-0.2,0.1-0.1,0.1,0.1,0c0.1,0,0.2-0.1,0.1-0.1C35.6,10.8,35.5,10.8,35.4,10.9 M36.2,10.8c0,0,0.1,0.1,0.2,0.1
	c0.1,0,0.1,0.1,0.1,0C36.6,11,36.3,10.8,36.2,10.8C36.2,10.8,36.2,10.8,36.2,10.8 M34.9,11.2l-0.3,0.3L34.9,11.2
	c0.2-0.1,0.3-0.2,0.3-0.3s0,0,0,0S35.1,11.1,34.9,11.2 M36.8,11.2c0.2,0.2,0.4,0.4,0.4,0.7c0,0.1,0,0.1,0,0
	C37.3,11.8,37,11.3,36.8,11.2C36.6,11,36.6,11,36.8,11.2 M34.6,11.7c0,0.1-0.1,0.2-0.1,0.2c0,0.1,0,0,0.1-0.1
	C34.7,11.5,34.7,11.5,34.6,11.7 M34.5,12.2C34.5,12.3,34.5,12.3,34.5,12.2c0,0,0-0.1,0-0.1C34.5,12,34.5,12.1,34.5,12.2 M36.9,13.1
	C36.7,13.4,36.7,13.4,36.9,13.1c0.1-0.1,0.3-0.3,0.2-0.3C37.1,12.9,37,13,36.9,13.1 M34.9,13.2c0.1,0.1,0.4,0.3,0.5,0.3c0,0,0,0,0,0
	c0,0-0.2-0.1-0.3-0.2C34.9,13.2,34.8,13.1,34.9,13.2 M35.8,13.6c0.1,0,0.2,0,0.2,0C36.1,13.6,36,13.6,35.8,13.6
	C35.8,13.6,35.7,13.6,35.8,13.6 M32.9,14.1c4.3,0,7.6,0,7.6,0c0,0-2.1,0-4.6,0C33.3,14.1,32,14.1,32.9,14.1 M31.6,14.9
	c0.1,0.3,0.3,0.5,0.3,0.5C31.9,15.4,31.8,15.2,31.6,14.9c-0.1-0.3-0.2-0.5-0.2-0.5S31.5,14.6,31.6,14.9 M32.5,16.7
	c0.1,0.1,0.1,0.2,0.1,0.2S32.6,16.8,32.5,16.7c0-0.1-0.1-0.2-0.1-0.2C32.4,16.5,32.5,16.6,32.5,16.7 M28.3,17.6c0.1,0,0.1,0.1,0,0.1
	c-0.1,0-0.1,0.1,0,0.1c0.1,0,0.2-0.1,0.2-0.2C28.4,17.6,28.4,17.6,28.3,17.6C28.2,17.5,28.2,17.6,28.3,17.6 M33.6,18.8
	c0,0.1,0.1,0.2,0.1,0.2C33.8,18.9,33.7,18.9,33.6,18.8c0-0.1,0-0.2-0.1-0.2S33.6,18.7,33.6,18.8 M26.2,19.2l-0.4,0.4L26.2,19.2
	c0.4-0.3,0.4-0.4,0.4-0.4C26.5,18.8,26.4,19,26.2,19.2 M34.3,20.1c0,0,0,0.1-0.2,0.1l-0.2,0l0.2,0C34.4,20.2,34.5,20.1,34.3,20.1
	C34.3,20,34.3,20,34.3,20.1 M37.3,20.1c0,0,0.3,0,0.7,0c0.7,0,0.6,0-0.2-0.1C37.5,20.1,37.3,20.1,37.3,20.1 M39.4,20.1
	c0,0,0.1,0,0.2,0c0.1,0,0.1,0,0.1,0C39.6,20.1,39.4,20,39.4,20.1 M32,20.2c0,0,0,0.1,0,0.1s0,0,0,0c0-0.1,0-0.1,0.1-0.1
	c0.1,0,0.1,0,0,0C32.1,20.1,32.1,20.2,32,20.2 M32,20.7C32,20.8,32,20.8,32,20.7C32,20.7,32,20.6,32,20.7C32,20.5,32,20.6,32,20.7
	 M48.8,21c0.1,0.1,0.3,0.3,0.3,0.3S49,21.1,48.8,21c-0.1-0.1-0.2-0.3-0.2-0.3C48.6,20.7,48.7,20.9,48.8,21 M31.8,21.3
	c0,0.1,0,0.1,0,0.2C31.8,21.5,31.9,21.4,31.8,21.3c0.1,0,0.1-0.1,0.1-0.1C31.9,21.2,31.9,21.2,31.8,21.3 M31.8,21.6
	c0,0,0.1,0.1,0.1,0.2l0.1,0.1l-0.1-0.1C31.9,21.7,31.8,21.6,31.8,21.6C31.8,21.5,31.8,21.5,31.8,21.6 M39.7,21.9l-0.2,0.2L39.7,21.9
	c0.2-0.2,0.3-0.2,0.2-0.2C39.9,21.7,39.8,21.8,39.7,21.9 M32.1,21.9c0,0,0.1,0.1,0.2,0.2l0.2,0.1l-0.1-0.2
	C32.2,21.9,32.1,21.9,32.1,21.9 M51.7,22.9c0.9,1,1,1,0.6,0.6c-0.2-0.2-0.5-0.6-0.8-0.8C51.1,22.3,51.2,22.3,51.7,22.9 M39.3,23.1
	c0.2,0.2,0.4,0.4,0.4,0.4S39.6,23.3,39.3,23.1c-0.2-0.2-0.4-0.4-0.4-0.4C38.9,22.7,39.1,22.9,39.3,23.1 M32.2,23.4L31.6,24
	L32.2,23.4c0.6-0.5,0.6-0.6,0.6-0.6C32.8,22.7,32.5,23,32.2,23.4 M24.3,23.1c0,0.1,0,0.2,0,0.1c0-0.1,0-0.2,0-0.2
	C24.3,22.9,24.3,22.9,24.3,23.1 M40.1,23.9c0.1,0.1,0.2,0.2,0.2,0.2C40.3,24.1,40.3,24.1,40.1,23.9c-0.1-0.1-0.2-0.2-0.2-0.2
	C39.9,23.7,40,23.8,40.1,23.9 M52.8,24.1c0.1,0.1,0.3,0.4,0.5,0.7c0.2,0.3,0.4,0.5,0.4,0.5c0.1,0-0.8-1.1-1-1.3
	C52.7,23.9,52.7,23.9,52.8,24.1 M24.3,24.7C24.3,24.9,24.3,24.9,24.3,24.7C24.4,24.8,24.4,24.7,24.3,24.7
	C24.3,24.6,24.3,24.7,24.3,24.7 M44.6,25c0,0.1,0,0.2,0,0.2c0,0-0.1,0-0.2,0c-0.1,0-0.3,0.2-0.5,0.5c-0.2,0.3-0.6,0.7-0.9,0.9
	c-0.2,0.3-0.5,0.5-0.6,0.6c-0.1,0.1-0.1,0.2-0.2,0.2c0,0-0.1,0.1-0.3,0.2c-0.1,0.1-0.3,0.2-0.3,0.2s-0.1,0-0.1,0.1
	c0,0-0.1,0.2-0.3,0.4s-0.4,0.7-0.6,1c-1.1,1.9-2.9,3.6-5,4.8c-1,0.6-1,0.5-0.9,0.6c0,0.1,0,0.1,0,0.1s-0.1,0.1-0.3,0.2
	c-0.3,0.3-0.5,0.4-0.5,0.4c0,0-0.1,0-0.1,0.1c-0.2,0.2-0.5,0.4-0.6,0.5c-0.1,0-0.2,0.1-0.3,0.2c-0.1,0.1-0.2,0.2-0.2,0.2
	c0,0-0.1,0.1-0.2,0.2c-0.1,0.2-0.2,0.2-0.4,0.3c-0.3,0.1,1.1,0,1.6-0.1c0.8-0.1,2.4-0.4,2.3-0.5c0,0-0.1,0-0.2,0
	c-0.4,0.1-0.4,0-0.2-0.2c0.1-0.1,0.3-0.3,0.5-0.4c0.2-0.2,0.3-0.3,0.4-0.3c0,0,0.2-0.2,0.5-0.4c0.2-0.2,0.4-0.4,0.4-0.4
	s0.1-0.1,0.3-0.3c0.1-0.1,0.3-0.3,0.4-0.4c0.1-0.1,0.3-0.2,0.3-0.3c0.1-0.1,0.3-0.2,0.4-0.4c0.1-0.1,0.4-0.4,0.6-0.6
	c0.4-0.4,0.7-0.7,1.2-1.1c0.1-0.1,0.3-0.3,0.3-0.3c0.1-0.1,0.2-0.2,0.2-0.2c0.2-0.2,0.5-0.4,0.8-0.7c0.2-0.2,0.5-0.4,0.6-0.5
	s0.4-0.3,0.5-0.4c0.1-0.1,0.3-0.3,0.4-0.3c0.1,0,0.1-0.1,0.2-0.1c0,0,0.1-0.1,0.1-0.1c0,0,0.2-0.1,0.3-0.2c0.1-0.1,0.3-0.2,0.3-0.2
	s0.1,0,0-0.1c0-0.1,0-0.1,0-0.1s0.1-0.1,0.1-0.1c0.1-0.2,0.1,0,0,0.3c-0.1,0.3-0.1,0.4,0,0.3c0.3-0.8,0.5-3.5,0.3-3.9
	C44.6,24.9,44.6,24.9,44.6,25 M53.9,25.6c0.2,0.3,0.3,0.5,0.2,0.3c-0.2-0.3-0.6-0.6-0.4-0.4c0,0,0,0.1,0,0s-0.1,0-0.1,0.1
	c0,0.1,0,0.2,0,0.2c0,0,0,0.1,0,0.3c0,0,0,0-0.1,0c-0.1,0-0.1,0,0,0.1c0,0.1,0,0.1,0,0.1c0,0-0.1,0.1-0.1,0.1c0,0.1-0.1,0.1-0.1,0.1
	s-0.1,0-0.1,0.1s-0.1,0.1-0.1,0.1c-0.1,0-0.1,0.1-0.1,0.1c0,0.1,0,0.1-0.1,0c-0.1,0-0.1,0-0.1,0c0,0.1-0.1,0.2-0.2,0.2
	c0,0,0,0,0,0.1c0,0.1,0,0.1-0.1,0.1c-0.1,0-0.1,0-0.1,0.1c0,0-0.4,0.3-0.4,0.3c0,0,0,0,0-0.1c0,0,0,0,0,0c0,0-0.1,0.1-0.1,0.2
	c0,0.1-0.1,0.2-0.1,0.1c0-0.1,0,0-0.1,0.1c0,0.1-0.1,0.2-0.2,0.3c-0.1,0.1-0.1,0.1-0.1,0.2c0,0,0,0-0.1,0s-0.1,0.1-0.1,0.2l0,0.2
	l-0.1-0.1c0-0.1-0.1-0.1-0.1-0.1c0,0,0,0.1,0.4,1c0.9,2.2,1.3,4.1,1.3,6.1c0,1.3,0,1.3-0.3,2.5l0,0.1l0.1-0.1
	c0.1-0.2,0.3-1.5,0.3-1.9c0-0.4,0-0.4,0-0.1s0,0.3,0.2,0.3c0.1,0,0.1-0.1,0.1-0.1c0-0.1,0.1-0.3,0.2-0.4c0,0,0.1-0.1,0.1-0.2
	c0-0.2,0.3-0.5,0.5-0.5c0,0,0.1,0,0.1-0.1c0-0.1,0.1-0.2,0.2-0.2c0,0,0.1,0,0.1,0c0.1,0,0.1-0.2,0-0.2c0,0-0.1,0-0.1-0.1
	c0,0,0.1-0.1,0.1-0.1s0.1,0,0.2-0.1c0.1-0.1,0.1-0.1,0.2,0c0.1,0,0.1,0,0,0c0-0.1,0-0.1,0.1-0.1s0.1,0,0.1-0.1c0-0.1,0-0.1,0.1-0.1
	c0.1,0,0.1,0,0.1,0c0,0-0.1-0.1-0.1-0.1s0,0,0.1,0c0.1,0,0.1,0,0.2,0c0,0,0.1-0.1,0.1-0.1s0,0,0-0.1c0,0,0.1-0.1,0.1,0
	c0,0,0.1,0,0.1,0c0.1,0,0.1,0,0.2,0c0,0,0.1,0,0.2,0c0.1,0,0.1,0,0,0.1c-0.1,0.1,0,0.1,0,0.2c0.1,0.1,0.1,0.1,0,0.2
	c-0.1,0.1-0.1,0.1,0,0s0.1-0.1,0.1,0c0,0.1,0,0.1,0,0.2c0,0,0,0.1,0.1,0.2c0,0.1,0-0.1,0-0.4l0-0.5l0,0.6c0,0.4,0,0,0-0.9
	c0-2.1-0.2-3.4-0.8-4.8c-0.2-0.6-0.3-0.7-0.1-0.4c0.1,0.1,0.1,0.2,0.1,0.2s-0.1-0.1-0.1-0.3s-0.2-0.3-0.2-0.3c0,0,0,0,0,0
	c0.1-0.1-0.9-1.8-1-1.7c0,0,0,0,0,0c0-0.1-0.4-0.8-0.5-0.8C53.7,25.3,53.8,25.4,53.9,25.6 M17.7,31.6c0.1,0.1,0.1,0.2,0.2,0.3L18,32
	l-0.1-0.2C17.9,31.8,17.8,31.7,17.7,31.6l-0.1-0.2L17.7,31.6 M42.9,31.9c-0.1,0.1-0.1,0.2-0.1,0.2c0.1,0,0.3-0.3,0.3-0.3
	C43,31.7,43,31.8,42.9,31.9 M18.2,32.3c0.3,0.5,1.4,1.6,1.9,2.1c0.2,0.1-0.1-0.1-0.5-0.5c-0.4-0.4-1-1-1.2-1.3
	C18,32,17.9,31.9,18.2,32.3 M42.6,32.3l-0.1,0.2L42.6,32.3c0.1-0.1,0.2-0.1,0.2-0.1C42.8,32.1,42.7,32.1,42.6,32.3 M42,32.9
	l-0.5,0.5L42,32.9c0.5-0.4,0.5-0.5,0.5-0.5C42.4,32.5,42.2,32.7,42,32.9 M18.1,33.6c0,0,0,0.1,0.1,0.2c0,0.1,0.1,0.1,0.1,0.1
	C18.2,33.9,18.2,33.8,18.1,33.6C18.1,33.6,18.1,33.6,18.1,33.6 M20.9,35c0,0,0.1,0.1,0.2,0.1c0.1,0.1,0.2,0.1,0.2,0.1
	S21.1,35.1,21,35C20.9,35,20.9,34.9,20.9,35 M50.9,35.3c0,0.2,0,0.3,0,0.2c0-0.1,0-0.3,0-0.4C50.9,35,50.9,35.1,50.9,35.3
	 M13.4,35.1C13.4,35.2,13.4,35.3,13.4,35.1C13.5,35.2,13.5,35.1,13.4,35.1C13.4,35,13.4,35,13.4,35.1 M56.3,35.3c0,0.2,0,0.3,0,0.2
	c0-0.1,0-0.2,0-0.3C56.3,35.1,56.3,35.2,56.3,35.3 M13.4,35.6c0,0.2,0,0.2,0,0.1c0-0.1,0-0.2,0-0.3C13.4,35.4,13.4,35.5,13.4,35.6
	 M44.4,35.7c0,0.1-0.1,0.1-0.2,0.1c-0.1,0-0.1,0-0.2,0.1C44,35.9,43.9,36,43.9,36c-0.1,0-0.1,0-0.2,0.1c0,0-0.1,0.1-0.2,0.1
	c-0.1,0-0.2,0.1-0.3,0.1c-0.1,0.1-0.2,0.1-0.2,0.1c0,0-0.1,0-0.1,0c0,0-0.1,0.1-0.2,0.1c-0.1,0-0.2,0.1-0.2,0.1c0,0,0,0-0.1,0
	c0,0-0.1,0-0.1,0c0,0-0.1,0-0.1,0.1c0,0,0,0-0.1,0c0,0-0.1,0-0.1,0c-0.1,0-0.4,0.1-0.4,0.2c0,0,0,0-0.1,0c-0.1,0-0.5,0.2-0.5,0.2
	c0,0,0,0-0.1,0c0,0-0.1,0-0.1,0c0,0,0,0.1-0.1,0.1c-0.1,0-0.1,0-0.1,0.1c0,0,0,0.1-0.1,0.1c0,0-0.1,0-0.1,0.1c0,0-0.1,0.1-0.2,0.1
	c-0.3,0-0.9,0.2-1,0.3c-0.1,0.1,0.1,0.4,0.3,0.4c0.1,0,0.8,0.7,1.1,0.9c0.7,0.7,1.4,1.7,1.6,2.4c0.1,0.3,0.2,0.5,0.2,0.4
	c0,0,0-0.1-0.1-0.2c0-0.1-0.1-0.2-0.1-0.2s0,0,0.1,0c0,0,0.1,0,0.1,0c0,0,0,0,0.1,0c0.1,0,0.1,0.1,0.2,0.1c0,0,0.1,0,0.1,0
	c0,0,0.1,0,0.2,0c0.1,0,0.2,0,0.2,0c0,0,0.1,0,0.2-0.1c0.1-0.1,0.3-0.2,0.4-0.1c0,0,0.1,0,0.1-0.1s0.1-0.1,0.2-0.1s0.1,0,0.1-0.1
	c0,0,0.1-0.1,0.1-0.1c0,0,0,0,0,0.1c0,0.1,0,0.1,0.1,0c0.1-0.1,0.2-0.1,0.2-0.1c0,0,0,0,0-0.1c0,0,0-0.1,0.1,0c0.2,0,0.4,0,0.3,0
	c0,0,0,0,0.3-0.1c0.1,0,0.2-0.1,0.2-0.2c0.1-0.1,0.1-0.1,0.1-0.1c0,0.1,0,0.1,0.1-0.1c0,0,0-0.1,0.1,0c0.3,0.1,0.4,0.1,0.4,0
	c0-0.1,0-0.1,0.1-0.2c0-0.1,0.1-0.1,0,0c0,0.1,0,0.1,0,0c0,0,0.1,0,0.1,0c0,0,0,0,0-0.1s0-0.1,0,0c0,0,0.1,0,0.2,0
	C47,39.8,47,39.8,47,40c0,0.1,0.1,0.1,0.1,0.1c0,0,0.1,0.1,0.1,0.1s0,0.1,0.1,0.1c0,0-0.1-0.6-0.2-0.6c0,0,0,0,0-0.1
	c0.1-0.4-1.2-3.1-1.8-3.6c-0.1-0.1-0.2-0.2-0.2-0.2c0,0,0-0.1-0.1-0.1s-0.1,0-0.1-0.1C44.9,35.6,44.5,35.6,44.4,35.7 M56.2,35.9
	C56.2,36,56.3,36,56.2,35.9c0,0,0-0.1,0-0.1C56.3,35.7,56.2,35.8,56.2,35.9 M57.9,35.9C57.9,36,57.9,36,57.9,35.9c0,0,0-0.1,0-0.1
	C57.9,35.7,57.9,35.8,57.9,35.9 M19.6,36.1c0.1,0.1,0.2,0.2,0.2,0.2C19.8,36.3,19.8,36.2,19.6,36.1c0-0.1-0.1-0.2-0.1-0.2
	C19.5,36,19.5,36,19.6,36.1 M36.3,36.2c-0.1,0.1-0.2,0.1-0.2,0.1c0,0,0.2,0,0.3-0.1c0.1-0.1,0.2-0.1,0.2-0.1
	C36.6,36.1,36.4,36.1,36.3,36.2 M13.3,36.6c0,0.3,0,0.4,0,0.3c0-0.1,0-0.3,0-0.5C13.3,36.3,13.3,36.3,13.3,36.6 M22.9,36.2
	c0.1,0.1,0.9,0.4,0.9,0.4c0,0-0.2-0.1-0.5-0.2C23.1,36.3,22.9,36.2,22.9,36.2 M50.9,36.5c0,0.2,0,0.2,0,0.1c0-0.1,0-0.2,0-0.3
	C50.9,36.3,50.9,36.3,50.9,36.5 M57.9,36.5c0,0.1,0,0.2,0,0.1s0-0.2,0-0.3S57.9,36.4,57.9,36.5 M20.4,36.9c0.2,0.2,0.3,0.3,0.3,0.3
	C20.7,37.2,20.6,37,20.4,36.9c-0.1-0.2-0.3-0.3-0.3-0.3C20.1,36.6,20.2,36.7,20.4,36.9 M25,37.1c0.1,0,0.2,0.1,0.2,0.1
	c0,0,0,0-0.1-0.1C24.9,37,24.9,37,25,37.1 M56,37.3c0,0.1,0,0.3,0,0.3S56,37.5,56,37.3c0.1-0.1,0.1-0.2,0.1-0.2
	C56.1,37.1,56,37.2,56,37.3 M25.5,37.2c0.1,0,0.1,0,0.2,0c0.1,0,0,0,0,0C25.6,37.2,25.5,37.1,25.5,37.2
	C25.4,37.1,25.4,37.2,25.5,37.2 M58,37.9c0,0.4,0,0.5,0,0.3c0-0.2,0-0.5,0-0.7C58,37.3,58,37.5,58,37.9 M13.4,37.5
	c0,0.1,0,0.2,0,0.1c0-0.1,0-0.2,0-0.3C13.4,37.3,13.4,37.3,13.4,37.5 M28.1,37.7c0.1,0,0.1,0,0.2,0S28.3,37.7,28.1,37.7
	C28.1,37.7,28,37.7,28.1,37.7 M13.4,37.9C13.4,38,13.4,38.1,13.4,37.9C13.5,38,13.5,37.9,13.4,37.9C13.4,37.8,13.4,37.8,13.4,37.9
	 M28.5,37.8c0.1,0,0.2,0,0.2,0C28.8,37.8,28.7,37.8,28.5,37.8C28.5,37.8,28.4,37.8,28.5,37.8 M29,37.8c0.1,0,0.2,0,0.3,0
	c0.1,0,0,0-0.1,0S28.9,37.8,29,37.8 M31.3,37.8c0,0,0.1,0.1,0.2,0.1l0.1,0.1L31.5,38C31.4,37.9,31.4,37.8,31.3,37.8
	C31.2,37.8,31.2,37.8,31.3,37.8 M29.9,37.9c0.2,0,0.6,0,0.8,0c0.2,0,0,0-0.4,0C29.9,37.9,29.7,37.9,29.9,37.9 M55.9,38.1
	c0,0.1,0,0.2,0,0.2S55.9,38.2,55.9,38.1c0.1-0.1,0.1-0.2,0.1-0.2S55.9,38,55.9,38.1 M22.1,38.1c0,0,0.6,0.3,0.6,0.3
	c0,0-0.1-0.1-0.3-0.2C22.3,38.2,22.1,38.1,22.1,38.1 M31.7,38.3c0.1,0.1,0.1,0.2,0.1,0.2S31.8,38.4,31.7,38.3c0-0.1-0.1-0.2-0.1-0.2
	C31.6,38.1,31.6,38.2,31.7,38.3 M52.4,38.5c0,0.1-0.1,0.2,0,0.2S52.4,38.7,52.4,38.5c0.1-0.1,0.1-0.2,0.1-0.2S52.4,38.4,52.4,38.5
	 M32,38.6c0.1,0.1,0.3,0.3,0.4,0.4c0.2,0.2,0.2,0.1-0.3-0.3C31.9,38.6,31.8,38.5,32,38.6 M57.9,39.1C57.9,39.2,58,39.3,57.9,39.1
	c0,0,0-0.1,0-0.1C57.9,39,57.9,39,57.9,39.1 M32.6,39.2c0.1,0.1,0.3,0.2,0.3,0.2C32.9,39.4,32.8,39.3,32.6,39.2
	C32.6,39.2,32.6,39.2,32.6,39.2 M50.4,39.4c0,0.1,0,0.2,0,0.2S50.4,39.6,50.4,39.4c0.1-0.1,0.1-0.2,0.1-0.2
	C50.4,39.3,50.4,39.3,50.4,39.4 M52,39.5C51.9,39.7,51.9,39.8,52,39.5c0.1-0.1,0.1-0.2,0.1-0.2C52.1,39.3,52,39.4,52,39.5
	 M55.4,39.7c0,0.1-0.1,0.2,0,0.2S55.4,39.8,55.4,39.7c0.1-0.1,0.1-0.2,0.1-0.2S55.4,39.5,55.4,39.7 M57.9,39.7c0,0.1,0,0.2,0,0.1
	c0-0.1,0-0.2,0-0.3S57.9,39.6,57.9,39.7 M51.8,39.9c0,0.1-0.1,0.2-0.1,0.2S51.8,40,51.8,39.9C51.9,39.7,51.9,39.7,51.8,39.9
	 M34.1,40c0.1,0,0.2,0.1,0.2,0.1c0,0,0,0-0.1-0.1C34.2,40,34.1,40,34.1,40C34,40,34.1,40,34.1,40 M29.4,40.8
	c0.1,0.1,0.3,0.3,0.3,0.3S29.6,41,29.4,40.8c-0.1-0.1-0.2-0.3-0.2-0.3S29.3,40.7,29.4,40.8 M36.6,41c0,0,0.1,0.1,0.3,0.2
	c0.1,0.1,0.3,0.1,0.3,0.1s-0.1-0.1-0.3-0.2C36.7,41.1,36.6,41,36.6,41 M51,41.3c-0.1,0.1-0.1,0.2-0.1,0.2C50.9,41.4,51,41.3,51,41.3
	c0.1-0.1,0.1-0.2,0.1-0.2C51.1,41.1,51,41.2,51,41.3 M50.7,41.7c-0.1,0.1-0.1,0.2-0.1,0.2S50.7,41.8,50.7,41.7
	c0.1-0.1,0.2-0.2,0.2-0.2C50.9,41.5,50.8,41.6,50.7,41.7 M15.3,41.9c0,0,0.1,0.1,0.2,0.2l0.2,0.1L15.5,42
	C15.4,41.9,15.3,41.8,15.3,41.9 M38.3,42.3c0.2,0.2,0.3,0.3,0.4,0.3S38.6,42.4,38.3,42.3c-0.1-0.2-0.3-0.3-0.3-0.3
	C38,41.9,38.2,42.1,38.3,42.3 M47.6,42.1C47.6,42.2,47.6,42.3,47.6,42.1c0,0,0-0.1,0-0.1C47.6,41.9,47.6,42,47.6,42.1 M50.1,42.4
	C50,42.5,50,42.6,50,42.6c0.1,0,0.4-0.4,0.4-0.4C50.3,42.1,50.2,42.2,50.1,42.4 M35.5,42.6c0.1,0.1,0.2,0.2,0.2,0.2
	C35.7,42.8,35.6,42.8,35.5,42.6c-0.1-0.1-0.2-0.2-0.2-0.2C35.3,42.4,35.4,42.5,35.5,42.6 M54.2,42.6c0,0.1-0.1,0.2-0.1,0.2
	S54.2,42.7,54.2,42.6c0.1-0.1,0.1-0.2,0.1-0.2C54.2,42.5,54.2,42.6,54.2,42.6 M47.7,42.7C47.7,42.8,47.7,42.9,47.7,42.7
	c0,0,0-0.1,0-0.1C47.7,42.6,47.7,42.6,47.7,42.7 M33.1,43.1l-0.4,0.4L33.1,43.1c0.4-0.4,0.5-0.4,0.4-0.4
	C33.5,42.6,33.3,42.8,33.1,43.1 M49.7,42.9c-0.1,0.1-0.2,0.2-0.2,0.2S49.6,43,49.7,42.9c0.2-0.1,0.3-0.2,0.3-0.2
	C49.9,42.6,49.8,42.7,49.7,42.9 M49.3,43.2c-0.1,0.1-0.1,0.2-0.1,0.2c0.1,0,0.2-0.3,0.2-0.4C49.4,43,49.3,43,49.3,43.2 M47.7,43.5
	c0,0.2,0,0.3,0,0.2c0-0.1,0-0.3,0-0.4C47.7,43.2,47.7,43.3,47.7,43.5 M53.8,43.3c0,0.1-0.1,0.2-0.1,0.2S53.8,43.3,53.8,43.3
	c0.1-0.1,0.1-0.2,0.1-0.2C53.9,43.1,53.8,43.2,53.8,43.3 M49.3,43.3c-0.1,0.1-0.2,0.1-0.2,0.1c0,0-0.1,0-0.1,0.1
	c-0.1,0.1-0.1,0.1,0,0.1c0.1-0.1,0.5-0.4,0.4-0.4C49.5,43.2,49.4,43.2,49.3,43.3 M18.9,43.5c0.1,0,0.4,0,0.5,0s0,0-0.3,0
	C18.8,43.4,18.7,43.4,18.9,43.5 M32.5,43.7l-0.1,0.2L32.5,43.7c0.2-0.1,0.2-0.2,0.2-0.2C32.7,43.6,32.6,43.6,32.5,43.7 M30.8,44.3
	c0,0.2,0,0.3,0,0.2c0-0.1,0-0.3,0-0.4C30.8,44,30.8,44.1,30.8,44.3 M32.1,44.2L32,44.3L32.1,44.2c0.2-0.1,0.2-0.2,0.2-0.2
	C32.3,44,32.2,44.1,32.1,44.2 M20.6,44.3v0.2V44.3c0.1-0.1,0.1-0.1,0.1-0.2C20.6,44.1,20.6,44.2,20.6,44.3 M47.8,44.5
	c0,0.2,0,0.3,0,0.2s0-0.3,0-0.4C47.8,44.2,47.8,44.3,47.8,44.5 M53,44.5c-0.1,0.1-0.1,0.2-0.1,0.2S53,44.6,53,44.5
	c0.1-0.1,0.1-0.2,0.1-0.2S53,44.4,53,44.5 M36.3,45.1c0,0.3,0,0.4,0,0.3c0-0.1,0-0.4,0-0.5C36.3,44.7,36.3,44.8,36.3,45.1
	 M31.3,45.1l-0.3,0.3L31.3,45.1c0.2-0.1,0.3-0.2,0.3-0.3C31.6,44.8,31.6,44.8,31.3,45.1 M39.9,45.5C39.9,45.7,39.9,45.7,39.9,45.5
	c0,0,0-0.1,0-0.1C39.9,45.4,39.9,45.4,39.9,45.5 M51.8,45.9l-0.2,0.2L51.8,45.9c0.2-0.2,0.3-0.2,0.2-0.2
	C52,45.7,51.9,45.8,51.8,45.9 M30.4,46c-0.1,0.2,0,0.2,0.2,0c0.1-0.2,0.1-0.2,0-0.1C30.4,46.1,30.4,46.1,30.4,46
	C30.5,45.8,30.4,45.8,30.4,46 M21.3,46.2C21.2,46.4,21.3,46.4,21.3,46.2c0.1,0,0.1-0.1,0.1-0.1C21.4,46,21.4,46.1,21.3,46.2
	 M43.2,46.3C43.2,46.4,43.2,46.4,43.2,46.3C43.3,46.3,43.3,46.3,43.2,46.3C43.2,46.2,43.2,46.2,43.2,46.3 M19.7,46.6
	c-0.1,0.2-0.2,0.4-0.2,0.4c0,0,0.4-0.7,0.4-0.8C19.9,46.2,19.8,46.4,19.7,46.6 M51.3,46.5L51,46.9L51.3,46.5
	c0.2-0.2,0.4-0.3,0.4-0.3C51.7,46.2,51.6,46.2,51.3,46.5 M39.9,46.9C39.9,47,39.9,47.1,39.9,46.9C39.9,47,39.9,46.9,39.9,46.9
	C39.9,46.8,39.9,46.8,39.9,46.9 M49.8,48l-0.5,0.5L49.8,48c0.4-0.3,0.6-0.5,0.5-0.5C50.3,47.5,50.1,47.8,49.8,48 M18.6,48.6
	c0,0.1-0.1,0.2-0.1,0.2C18.5,48.8,18.6,48.7,18.6,48.6c0.1-0.1,0.1-0.2,0.1-0.2C18.7,48.5,18.6,48.5,18.6,48.6 M48.8,48.9L48.7,49
	L48.8,48.9c0.2-0.1,0.2-0.2,0.2-0.2C49,48.7,48.9,48.7,48.8,48.9 M55.5,49C55.5,49.1,55.5,49.2,55.5,49C55.5,49.1,55.5,49,55.5,49
	C55.5,48.9,55.5,48.9,55.5,49 M48.3,49.3L48,49.5L48.3,49.3c0.3-0.2,0.3-0.3,0.3-0.3C48.6,49,48.5,49.1,48.3,49.3 M55.4,49.5
	C55.4,49.6,55.4,49.6,55.4,49.5c0,0,0-0.1,0-0.1S55.4,49.3,55.4,49.5 M19.9,49.5C19.8,49.6,19.8,49.7,19.9,49.5
	c0.1,0,0.1-0.1,0.1-0.1C20,49.3,19.9,49.4,19.9,49.5 M47,50.4c-2.5,2.2-4.5,4.4-5.5,6.4c-0.1,0.1-0.1,0.1,0,0.1s0.1-0.1,0.1,0
	c0,0.1,0,0.1,0.1,0.1c0.1,0,0.1,0,0.1,0c0,0,0,0.1,0.1,0.1c0.1,0,0.1,0,0,0.1c-0.1,0.1,0,0.2,0.1,0.2c0.1,0,0.1,0.1,0,0.1
	c0,0-0.1,0.1-0.1,0.1s0,0,0.1,0c0,0,0.1,0,0,0.1c0,0.1,0,0.1,0,0.1c0,0,0.1,0.1,0.1,0.2c0,0.1,0.1,0.2,0.1,0.3
	c0.2,0.2,0.3,0.5,0.3,0.5c0,0,0,0.1,0.1,0.1s0.1,0.1,0.1,0.1s0.1,0.1,0.2,0.2c0.5,0.5,0.5,0.6,0.6,0.7c0,0.1,0.1,0.1,0.1,0.1
	c0,0,0.1,0.1,0.1,0.1c0,0.1,0.1,0.1,0.2,0.3c0.1,0.1,0.1,0.1,0.1,0.1s0.1,0.1,0.2,0.2c0.1,0.1,0.2,0.2,0.1,0.2c0,0,0,0,0,0
	c0,0,0.1,0,0.1,0.1c0,0,0,0.1,0.1,0.1c0,0,0.1,0,0.1,0c0,0.1,0,0.1,0.1,0.3c0.1,0.1,0.1,0.1,0.1,0.1c0,0,0,0,0,0c0,0,0,0.1,0,0.1
	s0.1,0,0.1,0.1c0,0,0,0.1,0,0.1s0.1,0.1,0.2,0.2c0.1,0.1,0.1,0.2,0.2,0.2s0.1,0.1,0.1,0.2c0,0.1,0.1,0.1,0.1,0.1c0,0,0,0,0,0
	c0,0.1,0.1,0.2,0.1,0.2c0,0,0,0,0,0.1s0.1,0.1,0.1,0.2s0.2,0.2,0.2,0.3l0.1,0.1h3.4c1.9,0,3.4,0,3.4,0c-0.1-0.1-0.3-0.2-0.2-0.2
	c0,0,0-0.1,0-0.1c0-0.1,0-0.1-0.1,0c0,0.1,0,0.1,0,0c0-0.1,0-0.1-0.1-0.1c-0.1,0-0.1,0,0,0c0.1-0.1,0-0.2-0.2-0.2c0,0,0,0,0.1-0.1
	c0.1-0.1,0.1-0.1,0-0.1c-0.1,0-0.1,0-0.1,0s0-0.1-0.1-0.1s-0.1-0.1-0.1-0.1c0-0.1-0.1-0.3-0.2-0.3c0,0-0.1,0-0.1,0c0,0,0-0.1,0-0.1
	c0,0,0.1-0.1,0.1-0.1c0-0.1,0-0.1-0.1-0.1c-0.1,0-0.1,0-0.1-0.1c0-0.1,0-0.1,0-0.1c0,0,0,0,0-0.1s0-0.1-0.1-0.1c0,0,0,0,0-0.1
	c0.1-0.1,0.1-0.1,0-0.2c0,0-0.1-0.1,0-0.1c0-0.1,0-0.1,0-0.1c0,0-0.1,0-0.1-0.1c0,0,0-0.1-0.1-0.1s-0.1,0-0.1-0.1c0-0.1,0-0.1-0.1,0
	c-0.1,0.1-0.1,0.1,0,0c0-0.1,0-0.1,0-0.1c-0.1,0-0.1,0.1,0-0.2c0-0.1,0-0.2,0-0.1c-0.1,0.1-0.3,0-0.2-0.1c0,0,0-0.1,0-0.1
	c-0.1-0.1-0.2-0.1-0.1,0c0,0,0,0,0,0c-0.1-0.1-0.1-0.1,0.1-0.1c0.1,0,0.1,0,0.1,0c0,0-0.1-0.1-0.1-0.1s0,0-0.1,0c-0.1,0-0.1,0,0-0.1
	c0-0.1,0-0.1,0-0.1s-0.1-0.1-0.1-0.1s0-0.1,0-0.1c0,0,0,0-0.1,0c-0.1,0-0.1,0-0.1-0.1c0-0.1,0-0.1,0-0.1s0-0.1,0-0.2s0-0.1,0-0.1
	c0,0-0.2-0.2-0.2-0.2c0,0,0-0.1,0-0.1s0,0-0.1,0.1c-0.1,0.1-0.1,0,0-0.1c0.1-0.1,0-0.1-0.1-0.2C50.1,58,50,58,50,58.1
	c-0.1,0.1-0.1-0.1,0-0.2c0-0.1,0-0.1,0-0.1c-0.1,0-0.1,0-0.1-0.1c0,0,0-0.1,0-0.1c0,0,0,0,0-0.1c0,0,0.1,0,0.1,0
	c0.1,0,0.1,0.1,0.1,0c0,0,0-0.1,0-0.1s-0.1-0.1-0.1-0.1c-0.1-0.1-0.1-0.1-0.1,0c0,0.1,0,0.1,0,0.1c0,0-0.1-0.1-0.1-0.2
	s0-0.1,0.1-0.1c0,0,0,0,0,0c0,0-0.1-0.1-0.1,0s-0.1,0-0.1,0c0,0,0-0.1,0-0.1c0.1,0-0.2-0.3-0.3-0.3c-0.1,0-0.1,0-0.1-0.1
	c0,0,0-0.1,0-0.1c0,0,0-0.1,0-0.1c0-0.1,0-0.1,0,0c-0.1,0.1-0.1,0.1-0.1-0.1c0-0.1,0-0.1,0-0.2c0,0,0-0.1,0-0.1c0,0,0-0.1-0.1-0.1
	c0,0-0.1,0-0.1-0.1c0-0.1,0-0.1,0-0.1c0,0,0.1,0,0.1,0c0,0,0-0.1,0,0c0,0-0.1,0-0.1,0c0,0-0.1-0.1-0.2-0.1c-0.1,0-0.1-0.1-0.1-0.1
	c0-0.1-0.2-0.3-0.3-0.3c0,0,0,0,0-0.1c0-0.1,0-0.1-0.1-0.1c0,0-0.1,0-0.1,0c0,0,0-0.1,0-0.1c0,0,0,0,0-0.1c0,0-0.1,0-0.1,0
	c0,0,0,0,0,0c0.1-0.1,0-0.2-0.1-0.2c-0.2,0-0.2,0-0.2-0.2c0-0.3,0-0.3-0.1-0.1c0,0.1-0.1,0.1-0.1,0.1c0-0.2-0.2,0.1-0.2,0.4
	c-0.1,0.6-0.1,0.6-0.2,0c0-0.1-0.1-0.3-0.1-0.4s0-0.2,0-0.2c0,0,0-0.1-0.1-0.1c-0.1,0-0.1-0.1-0.1-0.1s0-0.1,0-0.1c0,0,0-0.1,0-0.2
	c0-0.2,0-0.2-0.1-0.2c-0.1,0-0.1,0-0.1,0c0,0,0-0.1-0.1-0.2s-0.1-0.1-0.1-0.1c0,0,0-0.1,0-0.1s-0.1-0.1-0.1-0.2s-0.1-0.2-0.2-0.2
	s-0.1-0.1-0.1-0.2c0-0.1,0-0.1-0.1-0.1s-0.1,0,0,0s0-0.1,0-0.2s-0.1-0.2,0-0.3c0-0.1,0-0.2-0.1-0.2c-0.1,0-0.1,0-0.1-0.1
	c0-0.1,0-0.1-0.1-0.1c-0.1,0-0.1-0.1,0-0.1c0.1-0.1,0.1-0.1,0.1-0.2c0,0,0-0.1,0.1-0.1s0.1,0,0,0c0,0,0.6-0.6,1.9-1.7
	c0.2-0.1,0.3-0.2,0.3-0.3C48,49.5,47.5,49.9,47,50.4 M55.4,50.5c0,0.5,0,0.7,0,0.4c0-0.2,0-0.6,0-0.8C55.4,49.9,55.4,50,55.4,50.5
	 M19.7,50.4c0.1,0,0.2,0,0.2,0C19.9,50.4,19.9,50.4,19.7,50.4C19.6,50.4,19.6,50.4,19.7,50.4 M20.1,50.4c0.1,0,0.2,0,0.2,0
	C20.4,50.4,20.3,50.4,20.1,50.4C20.1,50.4,20.1,50.4,20.1,50.4 M20.7,50.5c0.1,0,0.2,0,0.3,0c0.1,0,0,0-0.1,0
	C20.7,50.5,20.6,50.5,20.7,50.5 M21.2,50.5c0.1,0,0.1,0,0.2,0C21.5,50.5,21.4,50.5,21.2,50.5C21.2,50.5,21.2,50.5,21.2,50.5
	 M22,50.7c0.1,0,0.1,0,0.2,0C22.2,50.6,22.2,50.6,22,50.7C22,50.6,22,50.6,22,50.7 M55.4,51.6C55.4,51.7,55.4,51.7,55.4,51.6
	c0,0,0-0.1,0-0.1C55.4,51.4,55.4,51.5,55.4,51.6 M55.5,52C55.5,52.1,55.5,52.1,55.5,52C55.5,52,55.5,52,55.5,52
	C55.5,51.9,55.5,51.9,55.5,52 M33.1,52.9l-0.1,0.2L33.1,52.9c0.2-0.1,0.2-0.2,0.2-0.2C33.2,52.8,33.1,52.9,33.1,52.9 M32.3,53.8
	l-0.6,0.7L32.3,53.8c0.4-0.3,0.7-0.6,0.7-0.6C32.9,53.1,32.9,53.2,32.3,53.8 M55.9,54.2c0,0,0,0.1,0.1,0.2c0.1,0.2,0.1,0.1,0-0.1
	C56,54.2,55.9,54.1,55.9,54.2 M31.4,54.6l-0.1,0.2L31.4,54.6c0.2-0.1,0.2-0.2,0.2-0.2C31.6,54.4,31.5,54.5,31.4,54.6 M56.3,55.1
	c0,0.1,0.1,0.2,0.1,0.2c0,0.1,0,0,0-0.1C56.3,55.2,56.3,55.1,56.3,55.1C56.2,55,56.2,55.1,56.3,55.1 M23,55.8c0,0.3,0,0.4,0,0.3
	c0-0.1,0-0.4,0-0.5C23,55.4,23,55.5,23,55.8 M30.3,55.4c-0.1,0.1-0.2,0.2-0.2,0.2S30.2,55.6,30.3,55.4c0.1,0,0.3-0.1,0.3-0.1
	C30.5,55.3,30.5,55.3,30.3,55.4 M35.4,55.5c-0.1,0.2-0.2,0.4-0.2,0.3c0.1-0.1,0.3-0.4,0.3-0.4C35.5,55.3,35.5,55.4,35.4,55.5
	 M29.8,55.8c-0.2,0.2-0.3,0.2-0.1,0.1c0.1-0.1,0.2-0.1,0.2-0.2C30,55.6,30,55.6,29.8,55.8 M29,56.3c-0.1,0.1-0.2,0.1-0.2,0.2
	c0,0,0.3-0.2,0.4-0.3C29.3,56.1,29.2,56.2,29,56.3 M34.9,56.5c0,0.1-0.1,0.2-0.1,0.2S34.9,56.6,34.9,56.5c0.1-0.1,0.1-0.2,0.1-0.2
	S34.9,56.4,34.9,56.5 M22.9,57.1c0,0.4,0,0.8,0,0.9c0,0.1,0-0.2,0.1-0.7c0-0.5,0-0.9,0-0.9C22.9,56.4,22.9,56.7,22.9,57.1
	 M21.8,56.8C21.8,56.9,21.8,56.9,21.8,56.8c0,0,0-0.1,0-0.1C21.8,56.6,21.8,56.6,21.8,56.8 M56.9,56.7c0,0.1,0.7,1.4,0.7,1.4
	C57.6,58.1,57,56.7,56.9,56.7C56.9,56.7,56.9,56.7,56.9,56.7 M27.8,57C27.6,57.1,27.6,57.2,27.8,57c0.1,0,0.2,0,0.2-0.1
	C27.9,56.9,27.9,56.9,27.8,57 M21.7,57.2c0,0.1,0,0.2,0,0.1c0-0.1,0-0.2,0-0.2C21.8,57,21.7,57.1,21.7,57.2 M34.5,57.2
	c-0.1,0.1-0.1,0.2-0.1,0.2C34.4,57.4,34.4,57.4,34.5,57.2C34.7,56.9,34.6,56.9,34.5,57.2 M27.1,57.4c-0.1,0.1-0.2,0.1-0.2,0.1
	S27,57.5,27.1,57.4c0.1,0,0.2-0.1,0.2-0.1C27.3,57.3,27.3,57.3,27.1,57.4 M21.7,57.6C21.7,57.8,21.7,57.8,21.7,57.6c0,0,0-0.1,0-0.1
	C21.7,57.5,21.7,57.5,21.7,57.6 M30.1,57.7c-0.1,0.1-0.2,0.1-0.1,0.1c0.1,0,0.3-0.1,0.3-0.2C30.3,57.6,30.3,57.6,30.1,57.7
	 M25.7,58.1c-0.4,0.2-0.8,0.4-0.7,0.4c0.1,0,1.5-0.7,1.5-0.7C26.5,57.7,26.6,57.7,25.7,58.1 M21.6,58.1c0,0.2,0,0.2,0,0.1
	c0-0.1,0-0.2,0-0.3C21.7,57.9,21.6,58,21.6,58.1 M22.8,58.4c0,0.2,0,0.3,0,0.2c0-0.1,0-0.2,0-0.3C22.8,58.2,22.8,58.3,22.8,58.4
	 M32,58.8c0,0.4,0,0.5,0,0.3c0-0.2,0-0.5,0-0.7C32,58.3,32,58.4,32,58.8 M57.7,58.3c0.1,0.1,0.1,0.2,0.1,0.2S57.8,58.4,57.7,58.3
	c0-0.1-0.1-0.2-0.1-0.2C57.6,58.1,57.7,58.2,57.7,58.3 M21.6,58.7c0,0.1,0,0.2,0,0.1c0-0.1,0-0.2,0-0.3
	C21.6,58.5,21.6,58.5,21.6,58.7 M24.6,58.6c-0.1,0.1-0.3,0.1-0.3,0.1c0,0,0.6-0.2,0.6-0.2C24.9,58.5,24.9,58.5,24.6,58.6 M58.1,58.9
	c0.1,0.2,0.2,0.4,0.3,0.4c0,0,0-0.1-0.1-0.3s-0.2-0.4-0.3-0.4S57.9,58.7,58.1,58.9 M23.8,58.9c-0.6,0.2-0.9,0.2-0.9,0
	c0-0.1,0-0.1,0,0c0,0.2,0.6,0.2,1.2-0.1C24.4,58.7,24.2,58.7,23.8,58.9 M50.5,58.9C50.4,58.9,50.4,58.9,50.5,58.9
	C50.3,58.9,50.3,58.9,50.5,58.9C50.4,58.8,50.5,58.9,50.5,58.9 M21.5,59.1C21.5,59.2,21.5,59.2,21.5,59.1
	C21.6,59.1,21.6,59.1,21.5,59.1C21.5,58.9,21.5,59,21.5,59.1 M21.5,59.5C21.5,59.6,21.5,59.6,21.5,59.5
	C21.5,59.5,21.5,59.4,21.5,59.5C21.5,59.3,21.5,59.4,21.5,59.5 M58.5,59.7c0,0.1,0.1,0.2,0.1,0.2C58.6,59.8,58.6,59.8,58.5,59.7
	c0-0.1,0-0.2-0.1-0.2C58.4,59.5,58.4,59.6,58.5,59.7 M21.4,59.8C21.4,60,21.4,60,21.4,59.8c0,0,0-0.1,0-0.1
	C21.4,59.7,21.4,59.7,21.4,59.8 M32,60.1c0,0.1,0,0.2,0,0.1c0-0.1,0-0.2,0-0.3C32,59.8,32,59.9,32,60.1 M58.7,60
	c0,0.1,0.1,0.2,0.1,0.2C58.8,60.2,58.8,60.1,58.7,60c0-0.1,0-0.2-0.1-0.2C58.6,59.9,58.6,59.9,58.7,60 M21.3,60.3c0,0.1,0,0.3,0,0.3
	C21.3,60.6,21.4,60.5,21.3,60.3c0.1-0.1,0.1-0.2,0.1-0.2C21.4,60.1,21.4,60.2,21.3,60.3 M31.9,60.6C31.9,60.7,31.9,60.7,31.9,60.6
	c0,0,0-0.1,0-0.1S31.9,60.4,31.9,60.6 M21.2,60.9c0,0.2,0,0.3,0.3,0.2l0.3-0.1l-0.3,0l-0.3,0L21.2,60.9
	C21.3,60.6,21.3,60.6,21.2,60.9 M23,60.7C22.9,60.8,22.9,60.8,23,60.7c0,0,0.1,0,0.2,0C23.3,60.7,23.2,60.7,23,60.7 M31.8,61.5
	c0,0.2,0,0.3,0,0.3S31.8,61.7,31.8,61.5c0.1-0.1,0.1-0.3,0.1-0.3S31.8,61.3,31.8,61.5 M59.5,61.5c0,0.1,0.1,0.2,0.1,0.2
	C59.6,61.6,59.6,61.6,59.5,61.5c0-0.1,0-0.2-0.1-0.2C59.4,61.3,59.5,61.4,59.5,61.5 M59.9,62.1c0.1,0.1,0.1,0.2,0.1,0.2
	S60,62.3,59.9,62.1c0-0.1-0.1-0.2-0.1-0.2S59.8,62,59.9,62.1 M31.6,62.3c0,0.1,0,0.2,0,0.2C31.6,62.5,31.7,62.5,31.6,62.3
	c0.1-0.1,0.1-0.2,0.1-0.2C31.7,62.1,31.6,62.2,31.6,62.3 M60.2,62.8c0.1,0.2,0.2,0.4,0.2,0.4c0,0-0.3-0.8-0.4-0.8
	C60.1,62.4,60.1,62.6,60.2,62.8"/>
</svg>
