<?xml version="1.0" encoding="utf-8"?>
<!-- Generator: Adobe Illustrator 27.2.0, SVG Export Plug-In . SVG Version: 6.00 Build 0)  -->
<svg version="1.1" id="Layer_1" xmlns="http://www.w3.org/2000/svg" xmlns:xlink="http://www.w3.org/1999/xlink" x="0px" y="0px"
	 viewBox="0 0 66 66" style="enable-background:new 0 0 66 66;" xml:space="preserve">
<style type="text/css">
	.st0{fill-rule:evenodd;clip-rule:evenodd;fill:#175970;}
	.st1{fill-rule:evenodd;clip-rule:evenodd;fill:#F9974B;}
	.st2{fill-rule:evenodd;clip-rule:evenodd;fill:#F67B26;}
	.st3{fill-rule:evenodd;clip-rule:evenodd;fill:#61B1B5;}
</style>
<path id="path0" class="st0" d="M30.8,5.5C30.4,5.6,30,6,29.9,6.4c-0.4,1.4,1.3,2.5,2.3,1.3C33.2,6.7,32.1,5.1,30.8,5.5 M26.7,8.9
	c0.1,0.1,0.3,0.6,0.6,1.2c0.3,0.6,0.7,1.3,0.9,1.7c0.2,0.4,0.6,1.1,0.8,1.5c0.2,0.4,0.5,0.9,0.6,1.1c0.1,0.2,0.2,0.3,0.2,0.3
	s-0.4,0-1,0c-1.3,0-1.4,0-1.4,0.3c0,0.2-0.1,0.8-0.2,1.1c0,0.1,0.1,0.2,0.5,0.6c0.3,0.3,0.5,0.5,0.5,0.5c0,0-0.3,0.3-0.6,0.6
	c-0.3,0.3-0.9,0.9-1.3,1.3l-0.6,0.6l0.6,0c1.4,0.1,10.3,0.1,10.3,0c0-0.1-0.4-0.5-1.1-1.3c-1.3-1.4-1.3-1.3-1.1-1.4
	c1-0.8,1-0.8,0.8-1.7L35,14.8l-1.2,0c-0.7,0-1.2,0-1.2,0c0,0,0.1-0.3,0.3-0.6c0.3-0.5,0.5-0.8,1.4-2.6c0.3-0.6,1.4-2.7,1.4-2.8
	c0,0-2,0-4.6,0h-4.6L26.7,8.9 M22.8,12.4c-1.8,0.4-3,0.9-3.6,1.4c-1.1,0.9-1.1,3.4-0.1,5.5c0.2,0.4,0.7,1,0.6,0.8
	c-0.3-0.7-0.1-3,0.2-3.9c0.5-1.3,2-3,3.4-3.7C23.9,12.2,23.8,12.2,22.8,12.4 M41,13.4c0,0,0.3,0.2,0.5,0.3c1.5,0.8,2.5,1.5,3.1,2.4
	c0.2,0.2,0.3,0.4,0.4,0.5c0.1,0.1,0.1,0.1-0.2,0.3c-0.7,0.3-2.3,1.3-2.3,1.4c0,0,0.3,0.6,0.6,1.2c2.9,6.5,3.6,10.4,2.5,14.9
	c-0.4,1.5-1,3.4-1.1,3.5c0,0-0.1,0.1-0.1,0.1c-0.2,0.4,1.5-1.6,2.1-2.5c2.1-3.1,2.2-7,0.3-11.6c-0.4-0.9-0.4-1-0.4-1
	c0,0,0.1,0.1,0.1,0.1l0.1,0.1l0-0.2c0-0.2,0-0.2,0.1-0.2c0,0,0.1,0,0.1,0c0,0,0.1-0.1,0.1-0.2c0.1-0.1,0.2-0.2,0.2-0.3
	c0.1-0.1,0.1-0.1,0.1-0.1c0,0.1,0.1,0.1,0.1-0.1c0-0.1,0-0.1,0.1-0.2c0,0,0,0,0,0c0,0,0,0.1,0,0.1c0.1,0,0.4-0.2,0.4-0.3
	c0-0.1,0-0.2,0.1-0.1c0.1,0,0.1,0,0.1-0.1c0-0.1,0-0.1,0-0.1c0,0,0.2-0.1,0.2-0.2c0,0,0,0,0.1,0c0.1,0.1,0.2,0.1,0.1,0
	c0,0,0-0.1,0.1-0.1c0.1,0,0.1-0.1,0.1-0.1c0,0,0-0.1,0.1-0.1c0.1,0,0.1-0.1,0.1-0.1c0-0.1,0.1-0.1,0.1-0.1c0,0,0,0,0-0.1
	c-0.1-0.1-0.1-0.1,0-0.1c0,0,0.1,0,0.1,0c0-0.2,0-0.3,0-0.3c0,0,0-0.1,0-0.2c0-0.1,0-0.2,0.1-0.1c0.1,0,0.1,0,0,0
	c-0.2-0.3,0.2,0,0.4,0.4c0.2,0.2,0,0-0.2-0.3c-1.5-2.2-3.1-3.8-5.7-5.5C42.7,14.2,40.8,13.2,41,13.4 M50.7,22.7c0,0,0.1,0.3,0.2,0.6
	c1.1,2.7,1.1,7.1,0,10.7c-0.8,2.5-2,4.7-3.7,6.6c-0.7,0.8-2.2,2.3-2.7,2.7c-1,0.8-3.3,2.8-3.3,2.9c0,0,0,0,0,0s-0.1,0-0.2,0.1
	c-0.1,0.2-0.1,0.2,0,0c0.2-0.1,0.2-0.1,0.1,0.1c-0.1,0.1-0.1,0.1,0,0.1c0,0,0.1,0.1,0.1,0.1c0,0.1,0,0.1,0.1,0.1
	c0.1,0,0.1,0,0.1,0.2c0,0.1,0,0.2,0,0.3c0,0.1,0.1,0.2,0,0.2s0,0,0,0s0.1,0.1,0.1,0.1c0,0.1,0,0.1,0.1,0.2s0.1,0.1,0.2,0.2
	s0.1,0.2,0.1,0.2s0,0,0,0.1s0,0.1,0.1,0.1s0.1,0.1,0.1,0.2c0,0,0,0,0.1,0c0.1,0,0.1,0,0.1,0.2c0,0.1,0,0.2,0,0.2c0,0,0,0,0,0.1
	s0.1,0.1,0.1,0.1c0.1,0,0.1,0.1,0.1,0.1s0,0.1,0,0.2s0.1,0.3,0.1,0.4c0.1,0.6,0.1,0.6,0.2,0c0-0.3,0.2-0.6,0.2-0.4c0,0,0,0,0.1-0.1
	c0.1-0.1,0.1-0.1,0.1,0.1c0,0.2,0,0.2,0.2,0.2c0.2,0,0.2,0.1,0.1,0.2c0,0,0,0,0,0c0,0,0.1,0,0.1,0c0,0,0,0.1,0,0.1s0,0,0,0.1
	c0,0,0.1,0,0.1,0c0.1,0,0.1,0,0.1,0.1c0,0,0,0.1,0,0.1c0.1,0,0.3,0.2,0.3,0.3c0,0,0,0.1,0.1,0.1c0.1,0,0.1,0.1,0.2,0.1
	s0.1,0.1,0.1,0c0,0,0,0,0,0c0,0-0.1,0-0.1,0c0,0,0,0,0,0.1s0.1,0.1,0.1,0.1c0,0,0.1,0,0.1,0.1s0,0.1,0,0.1c0,0,0,0.1,0,0.2
	c0,0.1,0,0.1,0.1,0.1s0.1-0.1,0,0c0,0.1,0,0.1,0,0.1s0,0,0,0.1c-0.1,0.1,0,0.1,0.1,0.1c0.1,0,0.4,0.3,0.3,0.3c0,0,0,0,0,0.1
	c0,0,0.1,0,0.1,0c0.1,0,0.1,0,0.1,0c0,0,0,0.1,0,0s-0.1,0-0.1,0.1c0,0.1,0,0.1,0.1,0.2s0.1,0,0-0.1c0-0.1,0-0.1,0.1,0
	c0.1,0.1,0.1,0.1,0.1,0.1s0,0,0,0.1c0,0,0,0-0.1,0c0,0-0.1-0.1-0.1,0c0,0,0,0.1,0,0.1c0,0,0.1,0.1,0,0.1c0,0.1,0,0.1,0.1,0.1
	c0.1,0,0.1,0,0,0.1c-0.1,0.1-0.1,0.3,0,0.2c0,0,0.1,0,0.2,0.1c0.1,0.1,0.1,0.1,0.1,0.2c-0.1,0.1-0.1,0.3,0,0.1
	c0-0.1,0.1-0.1,0.1-0.1c0,0,0,0.1,0,0.1c0,0.1,0.2,0.3,0.2,0.2c0,0,0,0,0,0.1c0,0.1,0,0.2,0,0.2c0,0,0,0.1,0,0.1
	c0,0.1,0,0.1,0.1,0.1c0,0,0.1,0,0.1,0s0,0.1,0,0.1c0,0,0,0.1,0.1,0.1c0,0,0.1,0.1,0,0.1c0,0.1,0,0.1,0,0.1c0,0,0.1,0,0.1,0
	c0,0,0,0.1,0.1,0.1c0.1,0,0,0-0.1,0c-0.1,0-0.2,0.1-0.1,0.1c0,0,0,0,0,0c0-0.1,0-0.1,0.1,0c0,0,0.1,0.1,0,0.1c0,0.1,0.1,0.2,0.2,0.1
	c0.1-0.1,0.1,0,0,0.1c-0.1,0.2-0.1,0.2,0,0.2c0,0,0.1,0,0,0.1c0,0.1,0,0.1,0,0s0.1-0.1,0.1,0c0,0,0,0.1,0.1,0.1c0,0,0.1,0,0.1,0.1
	c0,0.1,0,0.1,0.1,0.1c0.1,0,0.1,0,0,0.1c0,0,0,0.1,0,0.1c0.1,0,0.1,0.1,0,0.2c0,0.1,0,0.1,0,0.1c0,0,0.1,0,0.1,0.1c0,0,0,0.1,0,0.1
	c0,0,0,0,0,0.1c0,0.1,0,0.1,0.1,0.1s0.1,0,0.1,0.1c0,0.1,0,0.1-0.1,0.1c0,0,0,0,0,0.1c0,0,0.1,0,0.1,0c0.1-0.1,0.2,0.1,0.2,0.3
	c0,0.1,0,0.1,0.1,0.1s0.1,0.1,0.1,0.1c0,0,0,0.1,0.1,0c0.1,0,0.1,0,0,0.1c-0.1,0-0.1,0.1-0.1,0.1c0,0,0.1,0,0.1,0
	c0.1,0,0.2,0.1,0.1,0.2c-0.1,0.1-0.1,0.1,0,0c0,0,0.1,0,0.1,0.1c0,0.1,0,0.1,0,0c0-0.1,0.1,0,0.1,0c0,0.1,0,0.1,0,0.1s0,0.1,0.1,0.1
	l0.1,0.1l3.8,0c2.1,0,3.8,0,3.8,0c0-0.1-0.4-0.8-1.1-2.1c-1.9-3.2-2.3-4-2.7-5.2c-1.5-3.7-1.6-6.4-0.3-9.8c0.5-1.2,0.7-1.8,0.9-2.5
	c1.5-5,1.1-9.6-1.2-14.5C50.9,23.1,50.7,22.6,50.7,22.7 M39.7,22.9c0,0.1-0.1,0.1-0.1,0.1s0,0,0,0.1c0,0.1,0,0.1,0,0.1
	c0,0-0.2,0.1-0.3,0.2c-0.1,0.1-0.3,0.2-0.3,0.2c0,0-0.1,0-0.1,0.1c0,0-0.1,0.1-0.2,0.1c-0.1,0-0.2,0.1-0.4,0.3
	c-0.1,0.1-0.4,0.3-0.5,0.4c-0.1,0.1-0.4,0.4-0.6,0.5c-0.3,0.3-0.6,0.5-0.8,0.7c0,0-0.1,0.1-0.2,0.2c-0.1,0.1-0.2,0.2-0.3,0.3
	c-0.4,0.4-0.8,0.7-1.2,1.1c-0.2,0.2-0.5,0.5-0.6,0.6c-0.1,0.1-0.3,0.3-0.4,0.4s-0.2,0.2-0.3,0.3c-0.1,0.1-0.3,0.3-0.4,0.4
	s-0.3,0.3-0.3,0.3s-0.2,0.2-0.4,0.4S31.8,30,31.8,30s-0.2,0.1-0.4,0.3c-0.2,0.2-0.4,0.3-0.5,0.4c-0.1,0.1-0.2,0.2-0.2,0.2
	c0,0-0.1,0.1-0.1,0.1s-0.1,0-0.1,0c0.2,0.1,2.1-0.5,3-1c2.4-1.1,4.7-3.2,5.5-5.2c0.4-0.9,0.7-2,0.6-2C39.8,22.8,39.8,22.9,39.7,22.9
	 M10.5,23.7c-0.9,1.8-1.5,3.8-1.8,6c-0.7,4.7,1.9,8.3,5.9,8.3h1l0.1,0.3c0,0.1,0.1,0.3,0.1,0.4c0.2,0.4-0.9,2.7-2.6,5.6
	c-0.4,0.6-0.7,1.1-0.7,1.1c0,0,0.1,0.1,0.2,0.1s0.6,0.2,1.1,0.4c0.5,0.2,1.1,0.4,1.3,0.5c0.5,0.2,1,0.4,1,0.5c0,0-0.2,0.4-0.4,0.7
	c-0.3,0.6-0.3,0.7-0.3,0.8s1.1,0.8,1.2,0.9c0,0,0,0.1-0.1,0.2c-0.1,0.1-0.2,0.3-0.3,0.4L16.3,50l0.1,0.2c0.1,0.1,0.3,0.3,0.5,0.4
	l0.3,0.2l0,0.3c0,0.2-0.1,0.6-0.1,1c0,0.4-0.1,0.8-0.1,1c0,0.3-0.2,1.9-0.3,2.4c-0.1,0.3-0.1,0.3,0.7,0.2c2.2-0.4,4.3-1.2,7.9-3.2
	c1.5-0.8,2.1-0.6,2.1,0.7c0.1,1.1-0.2,3-0.4,4.2l-0.1,0.6l0.4,0l0.4,0l0.2-0.6c0.9-3.4,2.4-6.5,4.6-9.5c1.7-2.3,2.3-3.5,2.6-5.1
	c0.7-3.6-0.6-6-4.1-7.3c-1.8-0.7-1.9-0.8-2.5-1.1c-0.6-0.4-1.1-0.8-1.5-1.3l-0.2-0.3l-0.8,0c-5.4,0.1-10.9-2.6-13-6.5
	c-0.2-0.4-0.2-0.3,0,0.6c0.6,2.7,2.3,5.1,4.8,6.3c0.9,0.4,1.8,0.7,3.6,1.1c2.7,0.5,3.8,1.3,4.4,3.2c0.4,1.3,0.4,2.3,0,3.3l-0.1,0.3
	l0.2-0.2c0.4-0.5,1.1-1.2,1.8-2c1.4-1.5,2-1.9,2.7-1.6c1.7,0.7,1.7,4.5-0.2,8c-1.4,2.8-3.8,5-7.4,6.9c-2.1,1.1-3.6,1.8-4.3,1.8
	l-0.3,0l0-0.3c0-0.2,0-0.7,0-1.2c0-0.5,0.1-1.2,0.1-1.6c0-0.6,0.1-0.8,0.1-0.8c0.1,0,0.5-0.4,1-0.9c0.5-0.4,0.9-0.8,0.9-0.8
	c0,0-0.5-0.1-1-0.2c-1.8-0.4-2.5-0.6-2.5-0.7c0-0.2,0.4-1.1,0.7-1.5c0.1-0.2,0.2-0.4,0.2-0.4c0,0-1.4-0.2-2.1-0.2L14.9,45l0-0.1
	c0-0.2,1.7-4.1,2.1-4.7l0.2-0.3l1-0.6c1-0.6,2-1.2,2.1-1.4c0.1-0.1,0-0.1-0.8-0.2c-4-0.4-7.2-2.8-8.5-6.6c-0.7-2-0.8-5.3-0.3-7.5
	C10.9,23.1,10.9,23.1,10.5,23.7 M42.1,34.5c-0.1,0.1-0.2,0.1-0.2,0c0,0,0,0,0,0c0,0.1,0,0.1,0,0.1c0,0-0.1,0-0.1,0
	c-0.1,0.1-0.1,0,0,0s0-0.1,0,0c0,0-0.1,0.1-0.1,0.2c0,0.1-0.1,0.1-0.4,0c0,0-0.1,0-0.1,0c0,0.1,0,0.1-0.1,0.1c0,0-0.1,0-0.1,0.1
	c-0.1,0.1-0.1,0.1-0.2,0.2c-0.3,0-0.3,0-0.3,0.1c0,0-0.1,0.1-0.3,0c-0.1,0-0.1,0-0.1,0c0,0,0,0.1,0,0.1c0,0-0.1,0.1-0.2,0.1
	c-0.1,0.1-0.1,0.1-0.1,0c0,0,0-0.1,0-0.1s-0.1,0-0.1,0.1c0,0-0.1,0.1-0.1,0.1s-0.1,0.1-0.2,0.1c0,0.1-0.1,0.1-0.1,0.1
	c-0.1,0-0.3,0-0.4,0.1C38.7,36,38.6,36,38.6,36c0,0-0.1,0-0.2,0c-0.1,0-0.2,0-0.2,0c0,0,0,0-0.1,0c0,0-0.1,0-0.2-0.1
	c-0.1-0.1-0.1-0.1-0.1,0c0,0,0,0.1-0.1,0c-0.1,0-0.1-0.1,0.1,0.4c0.5,1.4,0.8,3.6,0.6,4.8c-0.1,0.9-0.5,2.2-0.8,2.5
	c-0.2,0.3-0.1,0.2,0.6-0.3c0.2-0.2,1.1-0.9,2.1-1.7c0.9-0.8,1.9-1.6,2.2-1.8l0.4-0.4l0-0.9c-0.1-1.9-0.4-4-0.6-3.9
	c0,0-0.1,0-0.1-0.1C42.4,34.4,42.3,34.4,42.1,34.5 M45.7,53.4C45.6,53.5,45.6,53.5,45.7,53.4C45.7,53.6,45.8,53.5,45.7,53.4
	C45.8,53.4,45.7,53.4,45.7,53.4"/>
<path id="path1" class="st1" d="M34.8,12.2c0,0,0.5,0.3,1.1,0.7c1.5,0.9,2.3,1.5,3.2,2.6c0.1,0.1,0.1,0.2,0.1,0.1
	c-0.5-0.7-2.4-2.4-2.7-2.4c0,0,0,0,0-0.1c0,0,0-0.1,0-0.1c0-0.1,0-0.1,0-0.1c0,0,0.1,0,0.1,0c0,0.1,0,0,0-0.1c0-0.1,0-0.2-0.1-0.2
	c-0.2-0.1,0.1-0.1,0.6-0.1c0.6,0,1.6,0.2,1.8,0.3c0.1,0,0.1,0.1,0.2,0.1c0.1,0,0.1,0.1,0.2,0.1c0.1,0.1,0.1,0.1,0.2,0.1
	s0.2,0,0.3,0.1s0.2,0.1,0.3,0.1c0.1,0,0.1,0,0.1,0c0,0,0.1,0.1,0.1,0.1c0,0,0.1,0,0.1-0.1c0,0,0-0.1,0.1-0.1
	c0.1-0.1-1.5-0.6-2.7-0.8C36.8,12.2,34.8,12,34.8,12.2 M40.2,13.1C40.3,13.2,40.3,13.2,40.2,13.1C40.2,13.2,40.1,13.2,40.2,13.1
	c-0.1,0-0.1,0-0.1,0c-0.1,0-0.1,0,0,0c0,0,0,0-0.1,0c-0.1,0-0.1,0-0.1,0C39.9,13,39.9,13,40.2,13.1 M40.4,13.4
	C40.4,13.4,40.5,13.4,40.4,13.4c0.1,0.1,0.3,0.2,0.4,0.3c0.1,0.1,0.4,0.2,0.6,0.3c0.5,0.2,0.6,0.3,0.7,0.4c0,0.1,0.1,0.1,0.1,0.1
	c0,0,0.1,0,0.1,0.1c0.1,0.1,0.2,0.2,0.2,0.1c0,0,0.1,0,0.1,0c0.1,0,0.1,0.2,0,0.3c-0.1,0,0,0.2,0.1,0.1c0.1,0,0.1,0,0,0.1
	c-0.1,0.1-0.2,0.1-0.1,0c0,0,0-0.1,0-0.1c-0.1,0-0.1,0.1-0.1,0.3c0,0.1-0.1,0.3-0.2,0.2c0,0-0.1,0-0.1,0c-0.1,0-0.1,0.1,0,0.1
	c0.1,0.1-0.3,0.2-0.4,0.1c-0.1-0.1-0.1-0.1-0.1,0c0,0.1,0,0.1-0.1,0.1c0,0,0,0,0,0.1c0,0,0,0.1,0,0.1s-0.1,0-0.1,0c0,0-0.1,0-0.1,0
	c-0.1,0.1-0.1,0.1,0,0c0.1,0,0.1-0.1,0.1-0.2c0-0.1,0-0.1-0.1,0c-0.1,0.2-0.2,0.1-0.2,0c0-0.1,0-0.1,0-0.1c0,0-0.1,0.1-0.1,0.1
	c0.1,0.2-0.1,0.3-0.2,0.1c-0.1-0.1-0.1-0.1-0.1,0c0,0.1,0,0.1-0.1,0.1c0,0-0.1,0-0.1,0s-0.1,0-0.1-0.1c0,0,0-0.1,0.1-0.1
	s0.1,0,0.1-0.1c0-0.1,0-0.1,0,0c-0.1,0.1-0.3,0.2-0.3,0.1c-0.1-0.1-0.2-0.1-0.2,0c0,0,0,0.1-0.1,0.1c0,0,0,0,0,0.1
	c0,0.1,0,0.1,0,0.1s-0.1,0-0.1-0.1s0,0-0.1,0c-0.1,0.1-0.1,0.1-0.1,0c0-0.1,0-0.1,0-0.1c0,0-0.1,0-0.1,0.1s0,0.1-0.1,0.1
	s-0.1,0-0.1,0.1s-0.1,0-0.1-0.1c-0.1-0.2-0.1-0.2-0.1-0.2c0,0,0.1,0,0.1,0s0-0.1-0.1,0c0,0-0.1,0-0.2-0.1c-0.1,0,0,0.1,0.1,0.2
	c0.1,0.2,0.2,0.3,0.3,0.3c0.1-0.1,0.1-0.1,0.1,0c0,0.1,0,0.1,0,0.2c0,0.1,0,0.1-0.1,0c-0.1-0.1,0,0.2,0.2,0.5c0.8,1.6,1.1,2.9,1,4.6
	c0,1,0,1,0,1.3c0,0.6-1.2,3-2.4,4.5l-0.5,0.7l0.2,0.2c2.2,1.8,3.4,3.5,4.1,6.2c0.1,0.3,0.2,0.6,0.2,0.5c0,0,0,0,0,0.1
	c0,0.1,0,0.1,0,0.1c0.1,0,0.1,0,0,0.2c0,0.2,0,0.2,0,0.1c0-0.1,0,0,0,0.2c0,0.2,0,0.2,0,0.2c0-0.1,0.1,0,0,0.2c0,0.1,0,0.2,0,0.1
	c0.1-0.1,0.1,0.1,0.1,0.7c0,0.2,0.1,0.5,0.1,0.5c0,0.1,0.1,0.5,0.1,0.8c0,0,0,0.1,0,0c0,0,0,0,0,0.1s0,0.1,0,0.1c0,0,0,0,0,0.1
	s0,0.2,0.1,0.2c0,0,0,0,0-0.1c0-0.1,0-0.1,0-0.1c0.1,0,0.1,0,0.1-0.1c0-0.1,0.1-0.2,0.1-0.2c0,0,0.1-0.1,0.1-0.2s0-0.1,0.1-0.2
	c0.1-0.1,0.1-0.3,0.1-0.6c0-0.1,0-0.2,0.1-0.2c0.1,0,0.1,0,0.1-0.1c0,0,0.1-0.1,0.1-0.1s0.1-0.1,0.1-0.1c0-0.1,0-0.1,0.1,0
	c0.1,0,0.1,0.1,0,0.1c0,0,0,0.1,0,0.1c0.1,0.1,0.1,0.1,0.1,0c0,0,0-0.1,0-0.1c0,0,0.1,0,0,0.1c-0.1,0.4,0.2,0.3,0.4-0.1
	c0.1-0.1,0.1-0.2,0.1-0.2c0,0,0-0.1,0-0.1c0-0.1,0.1-0.4,0.2-0.8c0.4-1.2,0.4-1.3,0.5-2c0.1-0.4,0.2-0.7,0.2-0.7c0,0,0,0,0-0.1
	c0-0.1,0-0.1,0-0.1c0.1-0.1,0.2-1.4,0.2-2.4c0-2.3-0.5-4.8-1.6-7.5c-0.2-0.5-0.1,0,0.2,0.7c0.4,1.1,0.4,1.9,0.1,1.9c0,0,0,0,0-0.1
	c0,0,0-0.1,0-0.1c0,0-0.1,0-0.1,0c0,0.1,0,0.1-0.1,0c-0.1,0-0.1-0.1-0.1,0c0,0.1,0,0.2-0.1,0.2c-0.1,0-0.1,0-0.1,0.1
	c0,0.1-0.1,0.2-0.1,0.2c0,0-0.1,0.1-0.1,0.1c0,0.1,0,0.1-0.1,0.1s-0.1,0-0.1,0.1c0,0,0,0.1,0,0.1s-0.1,0.1-0.1,0.1
	c0,0.1-0.1,0.1-0.1,0.2c-0.1,0-0.2,0.1-0.2,0.2c-0.1,0.2-0.2,0.2-0.2,0c0,0,0,0,0,0c0,0-0.1,0-0.1,0c-0.1,0-0.3,0.1-0.3,0.2
	c0,0,0,0-0.1,0s-0.1,0-0.1,0s0,0-0.1,0s-0.1,0-0.1,0c0,0,0,0-0.1,0c-0.1-0.1-0.4,0.1-0.4,0.3c0,0,0,0-0.1,0c-0.1-0.1-0.1-0.1,0-0.1
	c0.1-0.1,0.1-0.1,0-0.1c0,0-0.1,0-0.1,0.1s0,0.1-0.1,0.1c-0.1,0-0.1,0-0.1,0.1c0,0.1,0,0.1-0.2,0.1c0,0-0.1,0,0,0.1s0,0.1-0.1,0.1
	c-0.1,0-0.1,0-0.2,0.1c0,0-0.1,0.1,0,0.1s0,0,0,0.1c0,0,0,0.1,0,0.1c0,0,0,0.1-0.1,0c-0.1,0-0.3,0.1-0.2,0.2c0.1,0.1,0.1,0.1,0,0
	c0,0-0.1,0-0.1,0c0,0-0.1,0-0.1,0s-0.1,0-0.1,0C41,28,41,28,41,28c0-0.1-0.1-0.1-0.1,0c-0.1,0.1-0.1,0.1-0.2,0s-0.1-0.1-0.1,0
	c0,0.1-0.1,0.1-0.1,0c0,0-0.1,0-0.3,0c-0.1,0-0.2,0-0.2,0s-0.1-0.1-0.2-0.1s-0.1,0-0.1,0c0,0,0,0.1,0,0.1s-0.1,0-0.1,0
	c-0.1,0-0.1,0,0,0c0,0,0.1-0.2,0.1-0.3c0-0.2,0-0.2,0.1-0.2c0.1,0,0.1,0,0,0c-0.1,0-0.1-0.1-0.1-0.1s0-0.1-0.1-0.1c0,0,0-0.1,0-0.1
	c0-0.1,0-0.1-0.1-0.2c-0.1-0.1-0.2-0.3-0.1-0.3c0,0,0,0,0-0.1c0-0.1,0.3-0.6,0.4-0.6c0,0,0,0,0-0.1s0.1-0.3,0.3-0.6
	c0.1-0.3,0.3-0.5,0.3-0.6s0.1-0.1,0.1-0.1c0,0,0,0,0,0c-0.1-0.1,0-0.2,0.1-0.2c0,0,0,0,0,0c0,0,0.1-0.3,0.3-0.6
	c0.2-0.3,0.3-0.6,0.3-0.6s0.1-0.3,0.3-0.6c0.1-0.3,0.3-0.6,0.3-0.6s0.2-0.4,0.4-0.9c0.2-0.5,0.5-1.1,0.6-1.4
	c0.3-0.7,0.3-0.7,0.5-0.2c0.2,0.4,0.2,0.3-0.1-0.3c-0.1-0.2-0.3-0.6-0.4-0.8c-0.2-0.4-0.2-0.4-0.1-0.5c0.1,0,0.3-0.1,0.5-0.3
	c0.7-0.5,1-0.6,1.4-0.8c0.2-0.1,0.4-0.2,0.4-0.2c0.1-0.1-0.6-0.9-1.6-1.8c-0.5-0.4-2.2-1.4-2.4-1.4c-0.1,0-0.1,0-0.1,0
	c0-0.1-0.1-0.1-0.2-0.1c-0.1,0-0.1,0-0.1,0c0,0,0-0.1-0.1-0.1S40.4,13.3,40.4,13.4 M18.3,14.2c-0.3,0.2-0.7,0.6-1,0.8
	c-0.2,0.2-0.4,0.4-0.4,0.4c-0.1-0.2-1.7,1.3-2.4,2.3c-1.1,1.4-2.6,3.6-2.6,3.8c0,0.5,0.6,2.3,1.1,3.3c0.6,1.2,1,1.8,1.7,2.6
	c0.5,0.5,1.9,1.6,1.6,1.3c-0.1-0.1,0-0.1,0.1,0c0.1,0.1,0.1,0.1,0,0.1c-0.1,0,0.1,0.1,0.3,0.3l0.2,0.1l-0.1-0.1l-0.1-0.1l0.1,0.1
	c0.2,0.1,0.2,0.1,0.1-0.1c0-0.1-0.1-0.2-0.1-0.2c0,0-0.1,0-0.1-0.1s0,0,0,0c0,0,0.1,0,0.1-0.1c0.1-0.1,0.1-0.1,0-0.1
	c-0.1,0-0.1-0.2-0.1-0.2c0,0,0.1-0.1,0.1-0.1s0.1-0.1,0.1-0.2c0.1-0.1,0.1-0.1,0.1,0s0,0.1,0,0c0.1-0.1,0.1-0.3,0-0.2c0,0,0,0,0-0.1
	c0,0,0-0.2,0-0.3c0-0.2,0-0.2,0-0.3c0.1-0.1,0.1-0.1,0-0.1c-0.1,0-0.2-0.3-0.1-0.3c0,0,0-0.1,0-0.1c-0.1-0.1-0.1-0.6,0-0.6
	c0,0,0,0,0-0.1s0-0.1,0-0.1c0,0,0.1-0.1,0-0.1c0-0.1,0-0.1,0.1-0.2c0.1,0,0.1-0.1,0.1-0.2c0-0.1,0-0.1,0-0.1c-0.1,0-0.1,0,0-0.2
	c0-0.1,0.1-0.1,0.1-0.1s0.1,0.1,0.1,0.1s0.2,0.1,0.3,0.2c3.2,3.3,10.2,4.3,13.8,1.8c1.6-1.1,3.3-3.1,3.8-4.5
	c0.1-0.2,0.1-0.4,0.2-0.4c0.1-0.2,0-0.1-0.2,0c-0.1,0.1-1,0.7-1.4,0.9c-2,1-6.1,1.4-8.8,0.9c-1.9-0.4-3.8-1.5-4.9-2.9
	c-0.4-0.5-0.5-0.6-0.3-0.3c0.1,0.1,0.5,0.5,0.8,0.9c0.4,0.4,0.6,0.7,0.6,0.7c0,0,0,0,0,0c0.1-0.1,0.2,0,0.1,0.1c0,0.1-0.1,0.1-0.1,0
	c-0.1-0.2-0.3,0-0.3,0.2c0,0.1,0,0.1,0,0.1c-0.1-0.1-0.2-0.1-0.2,0c0,0,0,0.1,0.1,0c0.1,0,0.1,0,0.1,0c0,0,0,0.1,0.1,0.1
	s0.1,0,0.1,0.1c0,0,0,0.1-0.1,0.1c-0.1,0-0.1,0-0.1,0.2c0,0.1,0,0.2,0,0.2s0,0,0,0.1c0,0,0.1,0.1,0,0.1c0,0,0,0.1,0,0.1
	c0.1,0.1,0.1,0.1,0,0.2c-0.1,0.1-0.1,0.1,0,0.1c0,0,0.1,0.1,0,0.1c0,0-0.1,0-0.1-0.1s-0.1,0-0.1,0c0,0.1-0.1,0.4-0.1,0.4
	c0,0-0.1,0-0.1-0.1c-0.1-0.1-0.1-0.1-0.2,0c0,0.1-0.1,0.1-0.1,0.1c0,0-0.1,0-0.1,0.1c0,0.1-0.1,0.1-0.2,0.1c-0.1,0-0.2,0-0.2,0.1
	c0,0.1-0.1,0.1-0.2,0.1c-0.1,0-0.1,0,0,0c0.1,0,0,0.1,0,0.1c-0.1,0-0.1,0.1-0.1,0.1c0,0,0,0.1,0,0.1s-0.1,0-0.1-0.1s0,0-0.1,0
	c-0.1,0-0.1,0.1-0.1,0.1c0,0.1-0.3,0-0.4-0.1C19,25,19,25,19,25.1c0,0.1-0.1,0.2-0.2,0.2c0,0,0,0,0-0.1c0.1,0,0.1-0.1,0-0.1
	c-0.1,0-0.1,0-0.2,0.1c-0.1,0.1-0.1,0.1-0.1,0c0-0.1-0.4-0.1-0.4,0c0,0,0,0.1,0.1,0c0.1,0,0.1,0,0.1,0c0,0.5-1.4-1.1-2.1-2.3
	c-1.5-2.9-0.5-7.2,2.2-8.9l0.1-0.1l0,0.2c0,0.1,0,0.3-0.1,0.4c0,0.1,0.1,0,0.2-0.3C18.8,14.2,19,14,19,14c0.1,0,0-0.1-0.1-0.1
	C18.9,13.8,18.6,14,18.3,14.2 M43,15.3c-0.1,0.5-0.1,0.5-0.3,0.4c-0.1,0-0.1-0.1,0-0.1c0,0,0.1-0.1,0.1-0.1c0-0.1,0-0.1-0.1-0.1
	c-0.1,0-0.2-0.1-0.1-0.2C42.8,15.2,43,15.2,43,15.3 M16.8,15.6c-0.1,0.1-0.1,0.2-0.2,0.3c-0.1,0.1-0.1,0.2-0.1,0.1
	c0-0.1,0.3-0.7,0.4-0.6C16.9,15.5,16.9,15.6,16.8,15.6 M20.1,16.7c0,0.1,0.1,0.3,0.1,0.5c0.1,0.4,0.4,1.5,0.4,1.3c0,0,0-0.2-0.1-0.3
	c-0.1-0.4-0.1-0.5,0.1-0.5c0.1,0,0.2,0,0.3-0.1c0.1-0.1,0.1-0.1,0.2,0c0.1,0,0.1,0.1,0.1,0c0,0,0.1,0,0.1,0.1
	c0.1,0.1,0.2,0.1,0.2,0.1c0.1,0,0.1,0,0.2,0.1c0.1,0,0.2,0.1,0.3,0.1c0.1,0,0.4,0.1,0.6,0.2c0.3,0.1,0.7,0.2,0.9,0.2
	c0.3,0,0.6,0.1,0.7,0.1c0.3,0.1,1.9,0.1,2.1,0c0.1,0,0.2,0,0.1,0.1c0,0-0.1,0,0,0c0,0,0-0.1,0,0c0,0-0.1,0.1,0,0.1
	c0,0.1-0.1,0.3-0.4,0.6c-0.1,0.1-0.2,0.3-0.2,0.3c0,0,0.7-0.7,0.8-0.9c0.1-0.1,0.1-0.1,0.1-0.1c0,0,0,0,0-0.1c0-0.1,0-0.1,0-0.1
	c0,0-0.1,0-0.3,0.1c-0.6,0.2-2.3,0-3.3-0.2C22,18,21,17.5,20.3,16.8C20.1,16.6,20.1,16.6,20.1,16.7 M20.6,18.7
	c0,0.1,0.1,0.2,0.1,0.2c0,0.1,0,0,0-0.1C20.7,18.8,20.7,18.7,20.6,18.7C20.6,18.6,20.6,18.6,20.6,18.7 M20.9,19.6
	c0,0.1,0.2,0.4,0.2,0.4c0,0,0-0.1-0.1-0.2C21,19.6,20.9,19.5,20.9,19.6 M28.6,19.9c0,0,0.7,0.1,1.4,0.1c1.4,0,1.8,0.1,1.8,0.1
	c0,0,0.1,0,0.1,0c0,0,0.1,0,0.1,0.1c0,0.1,0,0.1-0.1,0c-0.1,0-0.1,0,0,0c0.2,0.1,0.3,0.1,0.2-0.1c0,0,0-0.1,0-0.1c0,0,0.1,0,0.1,0.1
	c0,0.1,0.2,0.1,0.2,0.1c0,0,0-0.1-0.1-0.1c0,0-0.1,0-0.1,0c0-0.1,0.3,0,0.4,0c0,0.1,0,0.1-0.1,0c0,0-0.1,0-0.1,0
	c0,0.1,0.4,0.1,0.5,0.1c0.1,0,0.2,0.1,0.1,0.1c-0.1,0-0.1,0.1,0.1,0.2c0.1,0.1,0.1,0.1,0.1,0.1c0,0-0.1,0-0.1-0.1
	c-0.1-0.1-0.1-0.1-0.1,0.1c-0.1,0.2-0.1,0.2-0.1,0.1c0-0.1,0-0.1-0.1-0.1c0,0-0.1,0-0.1,0s0,0.1-0.1,0.1s-0.1,0-0.1,0.1
	c0,0.1-0.1,0.2-0.2,0.2c-0.1,0-0.1,0,0,0.1c0.1,0,0.1,0.1-0.1,0.1c-0.2,0-0.3,0-0.4,0c0,0,0,0,0,0.1c0.1,0.1,0,0.1-0.1,0.1
	c-0.1,0-0.1,0-0.1-0.1s0,0-0.1,0s0,0.1,0,0.1c0,0-0.1,0.1-0.1,0.1c-0.2,0.1-0.2,0.1-0.1-0.1c0.1-0.1,0.1-0.1-0.1,0
	c-0.1,0.1-0.1,0.1-0.1,0.2c0,0,0,0.1,0,0.1c0,0,0,0,0,0.1c0,0.1,0,0,0,0c-0.1-0.1-0.1-0.1-0.1,0c0,0.1-0.1,0.1-0.2,0.1
	c-0.1,0-0.1,0-0.1,0.1c0.1,0.1,0.1,0.1,0,0.2c-0.1,0.1-0.1,0.1-0.1,0c0-0.1,0-0.1,0-0.2c-0.1-0.1-0.1-0.1-0.1,0c0,0,0,0.1,0,0.2
	c0,0.1-0.1,0.1,0,0.2c0,0,0,0.1-0.1,0.1c-0.1,0-0.1,0,0-0.2c0.1-0.1,0.1-0.1,0-0.1c-0.1,0-0.1,0-0.1,0s0,0-0.1,0
	c0,0.1-0.1,0.1-0.1,0s-0.1-0.1-0.1,0c-0.1,0-0.1,0.1,0,0.1c0.1,0.1,0.1,0.1,0.1,0c0-0.1,0-0.1,0.1,0c0.1,0.1,0.1,0.1-0.1,0.1
	c-0.1,0-0.2,0-0.2-0.1c-0.1-0.1-0.1-0.1-0.2-0.1c-0.1,0,0,0.1,0.1,0.1c0.1,0,0,0.1-0.1,0.2c-0.1,0-0.2,0.1-0.2,0s0-0.1-0.1-0.1
	c-0.1,0-0.1,0-0.1,0.1c0,0.1,0,0.1-0.1,0.1c-0.1,0-0.2,0-0.2,0.1c0,0,0,0.1-0.1,0.1c-0.1,0-0.3,0.1-0.2,0.1c0.1,0.1,0,0.1-0.2,0
	c-0.1-0.1-0.2-0.1-0.1,0c0,0.1,0,0.1,0,0c-0.1,0-0.1,0,0,0.1c0,0.1,0,0.1-0.2,0c-0.1-0.1-0.3-0.1-0.3,0.1c0,0.1-0.4,0.3-0.6,0.2
	c-0.1,0-0.2,0-0.3,0s-0.2,0-0.2-0.1c0,0,0,0-0.1,0s-0.3,0-0.6,0c-0.3,0-0.5,0-0.5,0.1c0,0.1-0.8,0-1-0.1c0,0-0.1,0-0.1,0
	c-0.6-0.1-1.7-0.7-2.4-1.3L21.8,21l0.4,0.4c1.6,1.6,4.1,2.1,8.1,1.7c2.8-0.3,4.9-1.3,6.1-3.1l0.1-0.1h-4
	C30.2,19.9,28.6,19.9,28.6,19.9 M32.9,20.2C32.9,20.2,32.8,20.2,32.9,20.2c-0.1,0-0.1,0-0.1-0.1C32.7,20,32.8,20.1,32.9,20.2
	 M33.3,20.2C33.3,20.2,33.3,20.2,33.3,20.2c-0.1,0-0.1,0-0.2,0c0,0,0,0,0,0C33.1,20,33.2,20.1,33.3,20.2 M33.7,20.2
	C33.7,20.2,33.7,20.2,33.7,20.2c-0.1,0-0.2,0-0.2,0c-0.1,0-0.1,0-0.1,0C33.3,20,33.6,20.1,33.7,20.2 M33.4,20.4c0,0-0.1,0.1,0,0.1
	c0,0,0,0.1,0,0c0,0-0.1,0-0.1,0c-0.1,0-0.1,0-0.1-0.1c-0.1-0.1,0.1-0.2,0.1-0.1C33.4,20.4,33.4,20.4,33.4,20.4c0-0.1,0-0.2,0-0.1
	C33.5,20.3,33.5,20.4,33.4,20.4 M33.6,20.4c0,0.1,0,0.1,0.1,0.1c0,0,0.1,0,0,0.1c0,0-0.1,0-0.1,0c-0.1,0-0.1-0.3,0-0.3
	C33.6,20.3,33.6,20.3,33.6,20.4 M21.6,20.7c0.1,0.1,0.2,0.3,0.3,0.3c0,0,0-0.1-0.1-0.2C21.4,20.4,21.3,20.3,21.6,20.7 M43.6,20.5
	c0,0,0,0.1,0.1,0.2c0,0.1,0.1,0.1,0.1,0.1S43.7,20.6,43.6,20.5C43.6,20.5,43.6,20.4,43.6,20.5 M32,20.9c0,0,0.1,0.1,0,0.1
	c0,0,0,0.1,0,0C32.2,21,32.2,20.9,32,20.9C32,20.9,32,20.9,32,20.9 M41.3,22.6c-0.1,0.3-0.2,0.4-0.2,0.2c0-0.1,0.2-0.4,0.3-0.4
	C41.4,22.4,41.3,22.5,41.3,22.6 M26.3,23c-0.1,0.1-0.4,0.1-0.4,0c0,0,0.1,0,0.2-0.1C26.3,23,26.3,23,26.3,23 M26.7,23
	c0,0-0.1,0-0.1,0s-0.1,0-0.1,0s0.1,0,0.1,0C26.7,23,26.7,23,26.7,23 M10.7,23.8c0,0.1-0.1,0.4-0.1,0.7c0,0.3,0,0.5-0.1,0.6
	c-0.1,1-0.2,2.2-0.1,2.9l0,0.3l0-0.5c0-0.3,0-0.6,0-0.8c0-0.2,0-0.3,0.1-0.3c0.2,0,0.2,0,0.2-0.1c0,0,0-0.1,0-0.1
	c0.1,0,0.2-0.4,0.1-0.5c-0.1-0.1-0.1-0.2,0-0.3c0.1-0.1,0.1-0.1,0.1,0c0,0.1,0,0.1,0,0.1c0-0.1,0.1,0,0.1,0.3c0,0.2,0.1,0.4,0.1,0.4
	c0,0,0-0.2-0.1-0.5c0-0.3-0.1-0.9-0.2-1.4C10.9,24.3,10.8,23.9,10.7,23.8l0.1-0.2L10.7,23.8 M19.4,25C19.4,25,19.4,25.1,19.4,25
	c0.1,0.1,0.1,0.1,0.1,0.1c0,0,0,0.1,0,0.1c0.1,0,0.1-0.1,0-0.1C19.5,25,19.4,25,19.4,25 M18.5,25.7c0.1,0.1,0.2,0.1,0.2,0.1
	c0,0,0,0,0,0c0,0,0.1,0.1,0.2,0.2c0.3,0.2,0.5,0.4,0.2,0.2c-0.3-0.2-0.9-0.7-0.8-0.7C18.3,25.6,18.4,25.6,18.5,25.7 M42.8,26.6
	c-0.1,0-0.1,0.1-0.1,0.1C42.8,26.8,42.8,26.7,42.8,26.6c0,0.1,0.1,0,0.1,0C43.1,26.5,43,26.5,42.8,26.6 M11.2,26.8
	c0,0.1,0.2,0.8,0.2,0.7c0,0,0-0.2-0.1-0.4C11.3,26.9,11.2,26.8,11.2,26.8 M39.3,27.6C39.3,27.6,39.2,27.6,39.3,27.6
	c-0.1-0.2-0.1-0.2,0-0.1C39.4,27.5,39.4,27.5,39.3,27.6 M11.4,27.6c0,0,0,0.1,0,0.2c0,0.1,0,0.1,0,0C11.5,27.8,11.5,27.7,11.4,27.6
	C11.4,27.6,11.4,27.6,11.4,27.6 M11.5,28c0,0.1,0.2,0.6,0.2,0.5C11.7,28.5,11.6,27.9,11.5,28C11.5,27.9,11.5,27.9,11.5,28
	 M10.6,28.6C10.6,28.7,10.6,28.7,10.6,28.6C10.6,28.6,10.6,28.5,10.6,28.6C10.6,28.4,10.6,28.5,10.6,28.6 M11.7,28.6
	c0,0.2,0.7,1.7,0.9,1.9c0.1,0.1,0-0.1-0.2-0.5c-0.2-0.3-0.4-0.8-0.5-1C11.8,28.6,11.7,28.5,11.7,28.6 M10.6,29.3
	c0,0.1,0,0.2,0.1,0.3C10.7,29.6,10.7,29.6,10.6,29.3C10.7,29.1,10.6,29.1,10.6,29.3 M12.8,30.8c0,0.1,0.1,0.2,0.1,0.2
	C13,31,12.9,30.8,12.8,30.8C12.7,30.6,12.7,30.6,12.8,30.8 M13,31.1c0.3,0.5,1.5,1.8,2.1,2.3c0.2,0.2,0.4,0.3,0.4,0.4
	c0,0,0,0.1,0.1,0c0.2,0,0.3,0.1,0.2,0.2c-0.1,0.1-0.1,0.1,0,0.1c0.2,0,0.2,0,0.3,0.1c0,0.1,0.1,0.1,0.1,0.1c0.1,0,0.1,0,0.1,0.1
	c0,0.1,0,0.1-0.1,0.1s-0.1,0,0,0.1c0.1,0.1,0.1,0.1,0.2,0.1c0,0,0.1,0,0.1,0s0,0.1,0,0.1c0,0,0,0.1,0.1,0.1c0.1,0.1,0.1,0.1,0.1,0.2
	s0,0.1,0.1,0.1c0.1,0.1,0.1,0.1,0.1,0c0,0,0.1,0,0.2,0.1c0.1,0.1,0.2,0.2,0.2,0.3s0,0.1,0.1,0.1s0.1,0,0.1,0c0-0.1,0.1-0.2,0.2-0.2
	c0,0,0,0,0,0.1c0,0.1,0,0.1,0,0c0.1,0,0.1,0,0,0.1c-0.1,0.1,0,0.1,0.1,0.3c0.1,0.1,0.1,0.2,0.1,0.1c0,0-0.1,0-0.1,0
	c0,0,0,0.1,0.1,0.1c0.1,0,0.1,0.1,0.1,0.2c0,0,0,0.1,0,0.1c0.1,0.1,0.1,0.1-0.1,0.3c-0.2,0.1-0.2,0.1-0.3,0l-0.1-0.1l0.1,0.1
	c0.1,0.1,0.2,0.2,0.2,0.1c0,0,0.1-0.1,0.1-0.1c0,0,0,0,0,0.1c0,0-0.1,0.1-0.1,0.1c0,0-0.1,0-0.1,0.1c0,0,0,0,0.1,0c0,0,0.1,0,0.1,0
	c0,0,0,0.1-0.1,0.1c-0.1,0-0.1,0-0.1-0.1c0-0.1,0-0.1-0.1-0.1c-0.1,0.1-0.8,0.1-0.8,0c0-0.1,0-0.1-0.2-0.1c-0.1,0-0.2,0-0.2,0
	c0,0,0,0,0-0.1c0,0-0.2-0.1-0.3-0.1c0,0-0.1,0-0.1,0c-0.1-0.1-0.7-0.4-0.7-0.3c-0.1,0.1,0.9,0.6,1.6,0.9c1,0.4,1.6,0.6,2.9,0.7
	c0.4,0.1,0.8,0.1,0.9,0.1c0.1,0,0.4,0.1,0.8,0.2c0.4,0.1,1.3,0.3,1.9,0.5c0.8,0.2,1.2,0.3,1.3,0.3c0,0,0.1,0,0.1,0c0,0,0,0,0.1-0.1
	c0,0,0-0.1,0-0.1c0,0,0-0.1,0-0.1c0,0,0.1-0.1,0-0.2c0-0.1,0-0.1,0-0.1s0-0.1,0-0.1c0,0,0-0.1,0-0.1s0.1-0.1,0.1-0.3s0-0.3,0-0.3
	c0,0,0-0.1,0-0.1c0,0,0-0.1,0-0.1c0.1-0.1,0.1-0.1,0-0.2c-0.1-0.1-0.1-0.1,0-0.1c0.3-0.2-1.3-0.7-2.3-0.8c-4.1-0.5-7.1-2-8.9-4.4
	C13.1,31.1,12.9,30.9,13,31.1 M31.9,31.6c-0.8,0.3-2.4,0.6-3.6,0.7c-0.8,0.1-0.8,0.1-0.5,0.3c0.5,0.5,3.5,2,3.7,1.9
	c0,0-0.3-0.2-0.7-0.3c-1.6-0.6-2.7-1.3-2.2-1.3c0.1,0,0.1,0,0.1-0.1c0,0,0-0.1,0,0c0,0,0,0,0-0.1c0-0.1,0-0.2,0.1-0.2c0,0,0,0,0-0.1
	c0,0,0,0,0,0c0,0,0.2,0,0.3,0c0.1,0,0.3-0.1,0.3-0.1c0.1,0,0.2,0,0.3-0.1c0.2-0.1,0.8-0.2,1.3-0.3c0.1,0,0.5-0.1,0.8-0.2
	c0.8-0.3,1-0.3,1.1-0.3c0,0,0.1,0.1,0.1,0.1c0.1,0,0.3,0.1,0.3,0.2c0,0,0.1,0,0.1,0c0.8,0.1,3.4,2.4,3.6,3.1
	c0.1,0.2,0.1,0.3,0.1,0.3c0.1,0,0.2,0.3,0.1,0.4c0,0.1,0,0.1,0,0.1c0,0,0.1,0.1,0.1,0.3c0,0.1,0,0.1,0.1,0.1c0.1,0,0,0.1,0,0.1
	c0,0-0.1,0.1,0,0.1c0,0,0.1,0,0.1,0c0,0,0,0,0.1,0c0,0,0,0.1,0,0.1c0,0-0.1,0.1,0,0.1c0,0,0,0-0.1-0.1c-0.1-0.1-0.2-0.1-0.2-0.1
	c0,0.1-0.1,0.1-0.2,0c-0.1-0.2-0.3-0.1-0.3,0.1c0,0.1,0,0.1-0.2,0c-0.1-0.1-0.3-0.1-0.3,0.1c0,0.1-0.1,0.1-0.2,0s-0.2-0.1-0.2,0
	c0,0.1-0.1,0.1-0.2,0c-0.1-0.1-0.1-0.1-0.1,0.1c0,0.1,0,0.1-0.1,0.1c0,0-0.1,0-0.1-0.1c0,0-0.1-0.1-0.1-0.1c-0.1,0-0.1-0.1-0.1-0.1
	c0,0-0.1,0-0.1,0c-0.1,0-0.2,0-0.2-0.1c0,0-0.1-0.1-0.2-0.1s-0.2-0.1-0.2-0.1c-0.1-0.1-0.1,0-0.1,0c0,0,0,0.1-0.1,0c0,0,0-0.1,0-0.1
	c0,0,0,0,0,0s-0.2-0.1-0.3-0.2c-0.1-0.1-0.3-0.2-0.3-0.2c0,0-0.1,0-0.1-0.1c0-0.1-0.1-0.1-0.1-0.1c0,0-0.2-0.1-0.4-0.2
	c-0.4-0.2-1.3-0.6-1.3-0.6c0,0,0.2,0.1,0.4,0.2c1,0.4,1.7,0.9,2.3,1.6c0.2,0.2,0.4,0.4,0.4,0.4c0,0,0.1,0,0.1,0.1
	c0.1,0.1,0.1,0.1,0,0.1c-0.1-0.1-0.1,0,0.1,0.2l0.2,0.2L35,37.1l-0.1-0.2L35,37c0.1,0.1,0.1,0.2,0.1,0.2c0,0,0.1,0.3,0.2,0.5
	c1,1.8,1,4.3,0.1,6.5c-0.1,0.3-0.2,0.5-0.1,0.5c0,0,0,0,0,0.1c0,0,0,0.1,0,0.1c0,0,0.1,0,0,0.1c0,0.1,0,0.1-0.1,0.1
	c-0.1,0-0.1-0.1-0.1-0.1c0-0.1-0.1,0.1-0.3,0.5c-0.2,0.3-0.4,0.7-0.4,0.8c-0.1,0.1-0.1,0.3-0.1,0.3c0,0,0.1,0,0.1,0
	c0,0,0.1-0.2,0.2-0.4c0.1-0.2,0.2-0.3,0.2-0.4s0-0.1,0.1-0.1c0,0,0,0,0,0.1c-0.1,0.1,0,0.1,0.1,0c0-0.1,0.1-0.1,0,0
	c0,0.1,0.1,0.1,0.2,0c0,0,0.1,0,0.1,0c0,0,0,0.1-0.1,0.1c0,0-0.1,0-0.1,0.1c0,0.1-0.9,0.9-0.9,0.9c0,0,0,0-0.1,0.1s-0.3,0.4-0.4,0.6
	c-2.6,3.1-4.5,6.9-5.3,10.3l0,0.1h2.9h3v-0.4c0-1.6,0.6-4.1,1.3-5.8c1-2.2,2-3.7,4.3-6c2-2,2.6-3.2,2.9-5.2c0-0.3,0.1-0.6,0.1-0.7
	c0.1-0.2,0.1-0.2,0-0.1c-0.1,0.1-0.3,0.3-0.5,0.5c-0.3,0.2-0.4,0.4-0.4,0.4c0,0,0.2-0.1,0.3-0.2c0.6-0.5,0.6-0.5,0.5,0.3
	c-0.3,1.9-0.9,3-2.9,5c-0.7,0.7-1.4,1.4-1.5,1.6c-0.1,0.2-0.3,0.3-0.3,0.3c-0.4,0.3-1.6,2.2-2.1,3.3c-0.2,0.3-0.3,0.6-0.3,0.6
	c0,0,0,0.1-0.1,0.2c0,0.1-0.1,0.1-0.1,0.1c-0.1,0-0.3,0.2-0.3,0.3c0,0.1-0.2,0.3-0.3,0.3c-0.1,0-0.1,0-0.1,0c0,0,0,0-0.1,0
	c-0.1-0.1-0.1-0.1-0.1,0c0,0.1-0.1,0.2-0.2,0.1c0,0-0.1,0-0.1,0c0,0,0,0.1,0.1,0.1c0,0,0.1,0.1,0.1,0.1c0,0-0.1,0-0.1,0
	c-0.1,0-0.1-0.1-0.1-0.1s0,0.1,0.1,0.1c0.1,0.1,0.1,0.1,0,0.1c0,0-0.1,0-0.1-0.1c0,0-0.1-0.1-0.1,0c0,0-0.1,0-0.1,0
	c0.1-0.1-0.2,0-0.3,0.1c-0.1,0.1-0.1,0.1-0.1,0.1c-0.1,0-0.1,0-0.1,0s0,0.1-0.1,0c-0.1,0-0.2,0-0.2,0c-0.1,0-0.1,0-0.1,0
	c0,0,0,0-0.1,0c0,0-0.1,0-0.1,0c0,0,0-0.1-0.1-0.1s-0.1,0-0.1,0.1c0,0,0,0.1,0,0.1c0,0-0.1,0-0.1,0c0,0-0.1,0-0.1,0.1c0,0,0,0.1,0,0
	c0,0,0-0.1,0-0.1c0-0.1-0.2-0.1-0.2,0c-0.1,0.1-0.1,0-0.1-0.1c0-0.1-0.1-0.2-0.2-0.2c0,0-0.1,0-0.1-0.1c-0.1-0.1-0.3-0.1-0.4,0
	c-0.1,0.1-0.2,0.1-0.2,0c0,0,0-0.1,0-0.1c0,0-0.1,0-0.1,0c0,0.1,0,0.1,0,0c0,0,0-0.1-0.1-0.1s-0.1,0-0.1-0.1c0,0,0,0-0.1,0
	c-0.1,0.1-0.1,0-0.1-0.2c0-0.1,0-0.2,0.1-0.2c0.1,0,0.2-0.2,0.2-0.3c0-0.1,0.2-0.6,0.3-0.5c0,0.1,0.1,0,0.1,0c0,0,0,0-0.1,0
	c-0.1,0.1-0.1,0,0-0.2c0.1-0.1,0.1-0.1,0.1-0.1c0,0,0,0,0,0s0.2-0.4,0.5-0.8c1.3-1.9,2.4-3.1,4.2-4.7c0.6-0.5,1.1-0.9,1.1-1
	c0.1-0.1,0.1-0.2,0.1-0.3c0,0,0-0.1,0.1,0c0,0,0,0,0,0c0-0.1,0.1-0.4,0.2-0.4c0.1,0,0.3-0.6,0.2-0.7c0-0.1,0-0.1,0,0s0.1,0.1,0,0
	c0-0.1,0-0.1,0-0.1c0.2-0.1,0.4-2.2,0.3-3.1c-0.3-2.8-1.3-4.8-3.1-6.3c-0.6-0.5-0.7-0.6-1.2-0.8C32.8,31.4,32.8,31.3,31.9,31.6
	 M13.5,35c0.1,0.2,0.5,0.5,0.7,0.6l0.2,0.1l-0.1-0.1c-0.1-0.1-0.1-0.1-0.2-0.1s-0.2-0.1-0.3-0.2C13.6,35,13.4,34.8,13.5,35
	 M16.9,35.2c0,0.1,0.1,0.1,0.1,0C17,35.2,17,35.1,16.9,35.2C16.9,35.1,16.9,35.1,16.9,35.2 M17.9,35.7c0,0-0.1,0.1-0.2,0.1
	c0,0-0.1,0-0.1-0.1c0,0,0.1-0.1,0.1-0.1S17.9,35.7,17.9,35.7 M17.4,35.8c0,0,0,0.1,0,0.1S17.4,35.9,17.4,35.8
	C17.5,35.7,17.5,35.7,17.4,35.8 M34.5,36.3C34.8,36.7,34.8,36.7,34.5,36.3c-0.1,0-0.2-0.1-0.2-0.1C34.4,36.2,34.4,36.2,34.5,36.3
	 M43,37C43,37.1,43,37.1,43,37C43,37,43,37,43,37C43,36.8,43,36.9,43,37 M25.4,37.4c0,0.1,0,0.1,0.1,0.2c0.2,0.1,0.3,0.1,0.1-0.2
	C25.4,37.3,25.4,37.3,25.4,37.4 M43,37.6C43,37.7,43,37.7,43,37.6C43,37.6,43,37.5,43,37.6C43,37.4,43,37.5,43,37.6 M43.1,38.5
	c0,0.1,0,0.2,0,0.1s0-0.2,0-0.2S43.1,38.4,43.1,38.5 M38.4,43.4c-0.4,0.3-0.6,0.5-0.5,0.5c0,0,0.1-0.1,0.3-0.2
	C38.3,43.6,38.4,43.5,38.4,43.4c0.1,0,0.2-0.1,0.2-0.1C38.6,43.3,38.5,43.3,38.4,43.4 M35.7,44.4c0,0.1-0.1,0.3-0.1,0.2
	c0-0.1,0.1-0.3,0.1-0.3C35.7,44.3,35.7,44.3,35.7,44.4 M34.9,52.1c0.1,0,0.1,0.1,0.1,0.1C35.1,52.1,35,52,34.9,52.1
	C34.9,52,34.9,52,34.9,52.1 M31.8,52.4C31.9,52.5,31.9,52.6,31.8,52.4c-0.1,0.1-0.2,0.1-0.2,0.1s0,0.1,0.1,0.1s0.1,0,0.1,0.1
	s0,0.1-0.1,0.1s-0.1,0-0.1-0.1s0,0-0.1,0c-0.1,0.1,0-0.1,0.1-0.2c0.1,0,0.1-0.1,0.1-0.1C31.7,52.4,31.8,52.4,31.8,52.4 M33.5,52.8
	c0,0.1-0.1,0-0.1-0.1C33.3,52.7,33.4,52.7,33.5,52.8C33.4,52.8,33.5,52.8,33.5,52.8"/>
<path id="path2" class="st2" d="M36.5,12.5C36.5,12.6,36.5,12.6,36.5,12.5c0,0.1,0.1,0.2,0.1,0.3c0,0.1,0,0.1,0,0.1
	c0,0-0.1-0.1-0.1,0c0,0,0,0.1,0,0.1c0,0,0,0.1,0,0.1c0,0,0,0.1,0,0.1c0.4,0,2,1.4,2.7,2.4c0.2,0.2,0.3,0.3,0.3,0.3c0,0,0.1,0,0.1,0
	c0,0,0,0-0.1,0c-0.1-0.1-0.1,0,0.1,0.3c0.2,0.3,0.3,0.4,0.2,0.2c0-0.1,0-0.1,0-0.2c0-0.1,0-0.1-0.1,0c-0.1,0-0.1,0-0.1,0
	s0-0.1,0.1-0.1s0.1,0,0.1-0.1c0,0,0-0.1,0.1-0.1c0,0,0,0.1,0,0.1c0,0.1,0,0.1,0.1,0c0-0.1,0.1-0.1,0.1,0c0,0,0,0.1,0.1,0.1
	c0,0,0.1,0,0-0.1c0,0,0-0.1,0-0.1c0,0,0.1,0,0.1-0.1c0-0.1,0-0.1,0.2,0c0.1,0.1,0.3,0,0.3-0.1c0,0,0,0,0,0c0,0.1,0,0.1-0.1,0.1
	s-0.1,0-0.1,0.1c0,0,0,0.1,0.1,0.1c0,0,0.1,0,0.1,0c0.1,0,0.1,0,0.1-0.1s0-0.1,0.1,0c0.1,0.1,0.3,0,0.2-0.1c0-0.1,0-0.1,0.1-0.1
	c0.1,0,0.1,0,0,0.1c-0.1,0.2,0.1,0.2,0.2,0c0.1-0.1,0.1-0.1,0.1,0c0,0.1,0,0.1-0.1,0.2c-0.1,0.1-0.1,0.1,0,0c0.1,0,0.1,0,0.1,0
	c0,0,0.1,0,0.1,0c0,0,0-0.1,0-0.1c0,0,0-0.1,0-0.1s0.1-0.1,0.1-0.1c0-0.1,0-0.1,0.1,0c0.1,0.1,0.5,0,0.4-0.1c0-0.1,0-0.1,0-0.1
	c0,0,0.1,0,0.1,0c0,0.1,0.2,0,0.2-0.2c0-0.2,0-0.3,0.1-0.3c0,0,0,0,0,0.1c-0.1,0.1,0,0.1,0.1,0c0.1-0.1,0.1-0.2,0-0.1
	c-0.1,0-0.1-0.1-0.1-0.1c0.1-0.1,0.1-0.3,0-0.3c-0.1,0-0.1,0-0.1,0c0,0.1-0.1,0-0.2-0.1c0-0.1-0.1-0.1-0.1-0.1c0,0-0.1,0-0.1-0.1
	c-0.1-0.1-0.2-0.2-0.7-0.4c-0.2-0.1-0.4-0.2-0.6-0.3c-0.1-0.1-0.3-0.2-0.3-0.2c0,0-0.1,0-0.1-0.1c0,0,0-0.1,0.1-0.1s0.1,0,0.1,0.1
	c0,0,0,0,0.1,0c0.1,0,0.2,0,0.2,0.1c0,0,0,0.1,0.1,0.1s0.2,0,0.2,0c0.1,0,0,0-0.1-0.1c-0.3-0.2-1.1-0.5-1.2-0.4
	c-0.1,0.1,0,0.1,0.1,0c0.1,0,0.1,0,0.1,0c0,0,0,0,0,0c0,0,0.1,0,0.1,0c0,0,0,0,0.1,0c0.1,0,0.1,0,0.1,0.1c0,0.1-0.1,0.1-0.2,0
	c0,0-0.1,0-0.1,0s-0.2,0-0.3-0.1c-0.1-0.1-0.3-0.1-0.3-0.1c-0.1,0-0.2-0.1-0.2-0.1s-0.1-0.1-0.2-0.1c-0.1,0-0.1,0-0.2-0.1
	C38.6,12.6,36.7,12.4,36.5,12.5 M18.3,14.3c-2.5,1.8-3.4,5.9-1.9,8.8c0.6,1.3,2.1,2.9,2.1,2.3c0-0.1,0-0.1-0.1,0c-0.1,0-0.1,0-0.1,0
	c0-0.1,0.4-0.1,0.4,0c0,0.1,0,0.1,0.1,0c0-0.1,0.1-0.1,0.2-0.1c0.1,0,0.1,0,0,0.1c0,0-0.1,0.1,0,0.1c0.1,0,0.2-0.1,0.2-0.2
	c0-0.1,0-0.1,0.2,0c0.1,0.1,0.4,0.1,0.4,0.1c0,0,0-0.1,0.1-0.1c0.1,0,0.1,0,0.1,0s0,0.1,0.1,0.1c0,0,0,0,0-0.1c0-0.1,0-0.1,0.1-0.1
	c0.1,0,0.1,0,0-0.1s0,0,0,0c0.1,0,0.1-0.1,0.2-0.1c0.1-0.1,0.1-0.1,0.2-0.1c0.1,0,0.1,0,0.2-0.1c0-0.1,0.1-0.1,0.1-0.1
	s0.1,0,0.1-0.1c0.1-0.1,0.1-0.1,0.2,0c0,0,0.1,0.1,0.1,0.1c0,0,0.1-0.3,0.1-0.4c0,0,0,0,0.1,0s0.1,0.1,0.1,0.1s0,0,0-0.1
	c-0.1,0-0.1-0.1,0-0.1c0.1-0.1,0.1-0.2,0-0.2c0,0,0-0.1,0-0.1c0,0,0-0.1,0-0.1c0-0.1,0-0.1,0-0.1s0.1-0.1,0-0.2c0-0.1,0-0.2,0.1-0.2
	c0,0,0.1,0,0.1-0.1c0,0-0.1-0.1-0.1-0.1c-0.1,0-0.1,0-0.1-0.1c0,0,0,0-0.1,0c-0.1,0-0.1,0-0.1,0c0-0.1,0.2-0.1,0.2,0c0,0,0,0,0-0.1
	c-0.1-0.2,0.2-0.4,0.3-0.2c0,0.1,0,0.1,0.1,0c0-0.1,0.1-0.1,0.1,0c0,0,0.1,0.1,0.1,0.1c0,0,0,0-0.1-0.1c-0.1-0.1-0.2-0.1-0.2-0.1
	c0,0,0,0,0,0S21.3,22,21,21.7c-0.4-0.4-0.8-0.8-0.8-1c-0.1-0.2-0.3-0.5-0.5-0.8s-0.4-0.6-0.5-0.7C19.1,19.1,19,19,19,19c0,0,0,0,0,0
	c0-0.2,0-0.3-0.1-0.2c0,0,0,0,0,0c0,0,0-0.3-0.1-0.5c-0.4-1-0.4-2.1-0.2-3.1c0-0.1,0-0.1,0-0.1c-0.1,0.1-0.1,0.1,0,0
	c0-0.1,0-0.1,0-0.2s0,0,0.1,0c0,0.1,0.1,0,0-0.1c0-0.1,0-0.3,0-0.4c0-0.1,0-0.3,0-0.3C18.6,14.1,18.4,14.2,18.3,14.3 M42.7,15.3
	c-0.1,0.1-0.1,0.2,0.1,0.2c0.1,0,0.1,0,0.1,0.1c0,0.1,0,0.1-0.1,0.1c-0.1,0-0.1,0,0,0.1c0.1,0.1,0.2,0,0.3-0.4
	C43,15.2,42.8,15.2,42.7,15.3 M20.9,17.6c-0.1,0-0.2,0.1-0.3,0.1c-0.7,0,0.6,2.8,1.7,3.8c0.7,0.6,1.8,1.2,2.4,1.3c0,0,0.1,0,0.1,0
	c0.2,0.1,0.9,0.2,1,0.1c0,0,0.2-0.1,0.5-0.1c0.3,0,0.5,0,0.6,0s0.1,0,0.1,0c0,0,0.1,0.1,0.2,0.1c0.1,0,0.3,0,0.3,0
	c0.2,0.1,0.6-0.1,0.6-0.2c0-0.2,0.1-0.2,0.3-0.1c0.1,0.2,0.2,0.2,0.2,0c0-0.1,0-0.1,0-0.1c0.1,0,0.1,0,0,0c0-0.1,0-0.1,0.1,0
	c0.1,0.1,0.3,0.1,0.2,0c-0.1-0.1,0.1-0.2,0.2-0.1c0,0,0.1,0,0.1-0.1c0-0.1,0.1-0.1,0.2-0.1c0.1,0,0.1,0,0.1-0.1c0-0.1,0-0.1,0.1-0.1
	c0.1,0,0.1,0,0.1,0.1c0,0,0.1,0,0.2,0c0.2-0.1,0.3-0.2,0.1-0.2c-0.1,0-0.1,0-0.1-0.1c0.1,0,0.1,0,0.2,0.1s0.1,0.1,0.2,0.1
	c0.2,0,0.2-0.1,0.1-0.1c-0.1-0.1-0.1-0.1-0.1,0c0,0.1,0,0.1-0.1,0c0-0.1,0-0.1,0-0.1c0.1-0.1,0.1,0,0.1,0c0,0,0,0,0.1,0
	c0-0.1,0.1-0.1,0.1,0c0,0,0,0.1,0.1,0c0.1,0,0.1,0,0,0.1c-0.1,0.2-0.1,0.2,0,0.2c0.1,0,0.1,0,0.1-0.1c0,0,0-0.1,0-0.2s0.1-0.1,0-0.2
	c0-0.1,0-0.1,0.1,0c0,0,0.1,0.1,0,0.2c0,0.1,0,0.1,0.1,0c0.1-0.1,0.1-0.1,0-0.2c-0.1-0.1-0.1-0.1,0.1-0.1c0.1,0,0.2,0,0.2-0.1
	c0.1-0.1,0.1-0.1,0.1,0c0.1,0.1,0.1,0.1,0,0c0,0,0-0.1,0-0.1s0.1,0,0-0.1c0,0,0-0.1,0.1-0.2c0.1-0.1,0.1-0.1,0.1,0
	c-0.1,0.1-0.1,0.2,0.1,0.1c0.1-0.1,0.1-0.1,0.1-0.1s0-0.1,0-0.1s0.1-0.1,0.1,0c0,0,0.1,0.1,0.1,0.1c0.1,0,0.1,0,0.1-0.1
	c0,0,0-0.1,0-0.1c0.1,0,0.2,0,0.4,0c0.1,0,0.1,0,0.1-0.1c-0.1,0-0.1-0.1,0-0.1c0.1,0,0.2-0.1,0.2-0.2c0,0,0-0.1,0.1-0.1
	c0.1,0,0.1,0,0.1-0.1s0-0.1,0.1,0c0,0,0.1,0.1,0.1,0.1c0,0.1,0.1,0.1,0.1-0.1c0.1-0.1,0.1-0.2,0.1-0.1c0,0,0.1,0.1,0.1,0.1
	c0,0,0-0.1-0.1-0.1c-0.1-0.1-0.1-0.1-0.1-0.2c0.1,0,0-0.1-0.1-0.1c-0.1,0-0.5,0-0.5-0.1c0,0,0.1,0,0.1,0c0.1,0,0.1,0,0.1,0
	c0-0.1-0.4-0.1-0.4,0c0,0,0,0,0.1,0c0,0,0.1,0,0.1,0.1c0,0.1-0.1,0.1-0.2-0.1c0-0.1-0.1-0.1-0.1-0.1c0,0,0,0.1,0,0.1
	c0.1,0.1,0,0.2-0.2,0.1c-0.1-0.1-0.1-0.1,0,0c0.1,0,0.1,0,0.1,0c0,0-0.1-0.1-0.1-0.1s-0.1,0-0.1,0c0,0-0.4,0-1.8-0.1
	c-0.8,0-1.4-0.1-1.4-0.1c0,0-0.5,0-1,0c-0.5,0-1,0-1,0c0,0-0.2,0-0.5,0l-0.5,0l0.2-0.2c0.1-0.1,0.1-0.1,0.1-0.1
	c-0.2,0.1-0.1,0,0-0.2c0.4-0.4,0.7-0.9,0.4-0.8c-0.1,0.1-1.8,0-2.1,0c-0.1,0-0.4-0.1-0.7-0.1c-0.3-0.1-0.7-0.2-0.9-0.2
	s-0.5-0.2-0.6-0.2s-0.2-0.1-0.3-0.1c-0.1,0-0.1-0.1-0.2-0.1c-0.1,0-0.2-0.1-0.2-0.1c-0.1-0.1-0.1-0.1-0.1-0.1c0,0-0.1,0-0.1,0
	C21,17.6,21,17.6,20.9,17.6 M42.7,19.8c-0.1,0.3-0.4,1-0.6,1.4c-0.2,0.5-0.4,0.9-0.4,0.9c0,0-0.1,0.3-0.3,0.6
	c-0.1,0.3-0.3,0.6-0.3,0.6s-0.1,0.3-0.3,0.6c-0.2,0.3-0.3,0.6-0.3,0.6s0,0,0,0c-0.1,0-0.1,0.1-0.1,0.2c0,0,0,0,0,0
	c0,0-0.1,0-0.1,0.1c0,0.1-0.1,0.3-0.3,0.6s-0.3,0.5-0.3,0.6c0,0.1,0,0.1,0,0.1c-0.1,0-0.4,0.5-0.4,0.6c0,0.1,0,0.1,0,0.1
	c-0.1-0.1,0,0.2,0.1,0.3c0.1,0.1,0.1,0.1,0.1,0.2c0,0.1,0,0.1,0,0.1c0,0,0.1,0.1,0.1,0.1s0,0.1,0.1,0.1c0.1,0,0.1,0,0,0
	c-0.1,0-0.1,0-0.1,0.2c0,0.1,0,0.2-0.1,0.3c0,0.1,0,0.1,0,0c0.1,0,0.1,0,0.1,0s0,0,0-0.1c0,0,0,0,0.1,0s0.2,0.1,0.2,0.1s0.1,0,0.2,0
	c0.1,0,0.3,0,0.3,0c0.1,0.1,0.1,0.1,0.1,0c0-0.1,0-0.1,0.1,0c0.1,0.1,0.1,0.1,0.2,0c0.1-0.1,0.1-0.1,0.1,0s0.1,0,0.1-0.1
	c0,0,0,0,0.1,0s0.1,0,0.1,0c0,0,0.1,0,0.1,0c0.1,0,0.1,0,0,0c-0.1-0.1,0.1-0.2,0.2-0.2c0.1,0,0.1,0,0.1,0c0,0,0-0.1,0-0.1
	c0,0,0.1-0.1,0-0.1s0,0,0-0.1c0,0,0.1-0.1,0.2-0.1c0.1,0,0.1,0,0.1-0.1c0,0,0-0.1,0-0.1c0.2,0,0.2,0,0.2-0.1c0-0.1,0-0.1,0.1-0.1
	s0.1,0,0.1-0.1s0-0.1,0.1-0.1c0.1,0,0.1,0.1,0,0.1c-0.1,0-0.1,0.1,0,0.1c0,0,0.1,0,0.1,0c0-0.2,0.3-0.3,0.4-0.3
	c0.1,0.1,0.1,0.1,0.1,0s0-0.1,0.1,0s0.1,0,0.1,0s0,0,0.1,0s0.1,0,0.1,0c0-0.1,0.1-0.2,0.3-0.2c0.1,0,0.1,0,0.1,0s0,0,0,0
	c0,0.1,0.1,0.1,0.2,0c0.1-0.1,0.2-0.2,0.2-0.2c0.1,0,0.1-0.1,0.1-0.2c0-0.1,0-0.1,0.1-0.1c0,0,0-0.1,0-0.1c0-0.1,0-0.1,0.1-0.1
	c0.1,0,0.1,0,0.1-0.1c0-0.1,0-0.1,0.1-0.1c0,0,0.1-0.1,0.1-0.2c0-0.1,0.1-0.1,0.1-0.1c0.1,0,0.1,0,0.1-0.2c0,0,0,0,0.1,0
	c0.1,0.1,0.1,0.1,0.1,0c0,0,0-0.1,0.1,0c0,0,0,0.1,0,0.1c0,0,0,0.1,0,0.1c0.3,0,0.3-0.8-0.1-1.9c-0.1-0.4-0.3-0.8-0.3-0.8
	c0-0.1,0-0.2-0.1-0.2c0,0-0.1,0,0,0c0-0.2,0-0.3-0.1-0.2c0,0-0.1,0,0,0c0-0.1-0.3-1-0.4-0.9c0,0,0,0,0-0.1c0-0.1,0-0.1,0-0.1
	s-0.1,0-0.1-0.1s0-0.1,0-0.1c0,0,0,0,0-0.1c0-0.1-0.1-0.1-0.1-0.1c-0.1,0-0.1-0.2-0.1-0.4c0-0.1,0-0.1-0.1-0.1s0,0,0,0
	c0.1-0.1,0-0.2-0.1-0.2c0,0,0,0,0-0.1c0-0.1,0-0.1,0-0.1c0,0,0,0,0-0.1c0,0,0-0.1,0-0.1c0,0-0.1-0.1-0.2-0.3
	C42.9,19.1,42.9,19.1,42.7,19.8 M32.7,20.1C32.7,20.1,32.7,20.2,32.7,20.1c0.1,0.1,0.2,0.1,0.1,0.1C32.8,20.1,32.7,20,32.7,20.1
	 M33.1,20.1C33.1,20.2,33.1,20.2,33.1,20.1c0,0,0.1,0,0.1,0.1c0.1,0.1,0.1,0.1,0.1,0C33.2,20.1,33.1,20,33.1,20.1 M33.3,20.1
	c0,0,0.1,0,0.1,0s0.1,0,0.2,0c0.1,0,0.1,0,0,0C33.6,20.1,33.3,20,33.3,20.1 M33.4,20.3c0,0.1-0.1,0.1-0.1,0.1
	c-0.1-0.1-0.2,0-0.1,0.1c0,0.1,0.1,0.1,0.1,0.1c0.1,0,0.1,0,0.1,0c0,0,0,0,0,0S33.4,20.4,33.4,20.3C33.5,20.4,33.5,20.3,33.4,20.3
	C33.5,20.2,33.4,20.2,33.4,20.3 M33.5,20.4c0,0.1,0.1,0.2,0.2,0.1c0,0,0-0.1,0-0.1c0,0-0.1-0.1-0.1-0.1c0-0.1,0-0.1-0.1-0.1
	C33.6,20.3,33.5,20.3,33.5,20.4 M32.2,21C32.2,21,32.1,21.1,32.2,21C32.1,21.1,32.1,21.1,32.2,21c-0.1,0-0.1,0-0.1-0.1
	C32,20.9,32,20.9,32.2,21C32.1,20.9,32.2,21,32.2,21 M25.9,23c0,0.1,0.3,0.1,0.4,0c0.1,0,0,0-0.2,0C26,23,25.9,23,25.9,23 M26.4,23
	c0,0,0.1,0,0.1,0s0.1,0,0.1,0s-0.1,0-0.1,0C26.5,23,26.4,23,26.4,23 M10.5,25c0,0.1,0,0.5-0.1,0.7c0,0.5,0,0.3,0.1-0.6
	C10.6,24.7,10.6,24.6,10.5,25 M19.6,25.1c0,0-0.1,0-0.1,0c-0.1,0-0.1,0,0-0.1c0,0,0-0.1,0-0.1c0,0-0.1,0-0.1-0.1s0.1,0,0.1,0
	C19.6,25.1,19.6,25.1,19.6,25.1 M18.6,25.9c0.3,0.3,0.9,0.7,0.6,0.5c-0.1-0.1-0.2-0.2-0.3-0.3c-0.1-0.1-0.2-0.2-0.2-0.2c0,0,0,0,0,0
	c0,0-0.1-0.1-0.2-0.1s-0.2-0.1-0.2-0.1C18.3,25.6,18.4,25.7,18.6,25.9 M10.9,25.9c0,0.1,0,0.2,0,0.3c0.1,0.1,0,0.5-0.1,0.5
	c0,0,0,0,0,0.1c0,0.1,0,0.1-0.2,0.1c-0.1,0-0.2,1.8-0.1,2.4c0,0.3,0.1,0.3,0.1,0.2c0-0.1,0-0.1,0,0c0,0.1,0,0.2,0,0.3
	c0,0.1,0,0.1,0,0.1c-0.1-0.1-0.1,0,0.1,0.6c0.1,0.2,0.1,0.3,0.1,0.2c0-0.1,0,0,0,0.2c0,0.2,0.1,0.4,0.2,0.7c0.1,0.2,0.2,0.4,0.2,0.4
	c0,0,0,0,0.1,0c0,0,0,0,0,0.1c-0.1,0.2,0.8,1.8,1.1,2.1c0.1,0.1,0.1,0.1,0.1,0.1c-0.1-0.1,0.1,0.3,0.6,0.7c0.3,0.3,1,0.9,0.9,0.8
	c0,0,0-0.1,0-0.1c0,0,0.1,0,0.1,0.1c0,0,0.1,0.1,0.1,0.1c0.1,0,0.2,0.1,0.2,0.2c0.1,0.1,0.1,0.1,0,0.1c-0.1-0.1-0.1-0.1,0,0
	c0.1,0.1,0.1,0.1,0.2,0.1c0.1,0,0.1,0,0,0c-0.1,0,0,0.1,0.2,0.2c0.1,0.1,0.2,0.1,0.2,0.1c-0.1-0.1,0.5,0.1,0.7,0.3
	c0,0,0.1,0.1,0.1,0c0.1,0,0.3,0.1,0.3,0.1c0,0,0,0.1,0,0.1s0.1,0,0.2,0c0.2,0,0.2,0.1,0.2,0.1c0,0.1,0.7,0.1,0.8,0
	c0.1-0.1,0.1-0.1,0.1,0.1c0,0.1,0,0.1,0.1,0.1c0.1,0,0.1,0,0.1-0.1c0,0,0,0-0.1,0s-0.1,0-0.1,0c0,0,0-0.1,0.1-0.1s0.1,0,0.1-0.1
	c0-0.1,0-0.1,0-0.1s-0.1,0-0.1,0.1c-0.1,0.1-0.1,0.1-0.2-0.1l-0.1-0.1l0.1,0.1c0.2,0.1,0.6-0.2,0.4-0.3c0,0,0-0.1,0-0.1
	c0.1,0,0-0.2-0.1-0.2c0,0-0.1,0-0.1-0.1c0,0,0,0,0.1,0c0.1,0,0,0-0.1-0.1c-0.1-0.1-0.1-0.2-0.1-0.3c0.1-0.1,0.1-0.1,0-0.1
	c-0.1,0-0.1,0,0,0c0-0.1,0-0.1,0-0.1c-0.1,0-0.2,0.1-0.2,0.2c0,0,0,0-0.1,0s-0.1-0.1-0.1-0.1s-0.1-0.2-0.2-0.3
	C17,35,16.9,35,16.9,35c0,0.1,0,0.1-0.1,0c0,0-0.1-0.1-0.1-0.1c0,0,0-0.1-0.1-0.2c-0.1-0.1-0.1-0.1-0.1-0.1c0,0,0-0.1,0-0.1
	s-0.1,0-0.1,0c-0.1,0.1-0.1,0.1-0.2-0.1c0-0.1,0-0.1,0-0.1c0.1,0,0.1,0,0.1-0.1c0-0.1-0.1-0.1-0.1-0.1s-0.1,0-0.1-0.1
	c-0.1-0.1-0.1-0.2-0.3-0.1c-0.1,0-0.1,0,0-0.1c0.1-0.1,0-0.2-0.2-0.2c0,0-0.1,0-0.1,0c0,0-0.2-0.2-0.4-0.4c-0.5-0.4-1.4-1.3-1.8-1.8
	c-0.2-0.3-0.4-0.5-0.8-1.2c-0.5-0.9-1.2-2.6-1.4-4C11.1,26.2,11,25.9,11,26C11,26.1,11,26.1,10.9,25.9
	C10.9,25.7,10.9,25.7,10.9,25.9 M10.4,27c0,0.3,0,0.4,0,0.2c0-0.1,0-0.4,0-0.5C10.4,26.6,10.4,26.7,10.4,27 M43,26.6
	c-0.1,0-0.1,0.1-0.1,0.1c0,0-0.1,0-0.1,0c0,0,0-0.1,0.1-0.1C43,26.5,43.1,26.5,43,26.6 M39.2,27.5C39.2,27.6,39.3,27.6,39.2,27.5
	C39.4,27.5,39.4,27.5,39.2,27.5C39.3,27.4,39.2,27.4,39.2,27.5 M10.5,28.1c0,0.1,0,0.2,0,0.1c0-0.1,0-0.2,0-0.3
	C10.5,27.9,10.5,27.9,10.5,28.1 M10.6,28.6C10.6,28.7,10.6,28.7,10.6,28.6c0-0.2,0-0.2,0-0.2C10.6,28.5,10.6,28.6,10.6,28.6
	 M32.6,31.5C31.8,31.8,31.2,32,31,32c-0.5,0.1-1.1,0.2-1.3,0.3c-0.1,0-0.2,0.1-0.3,0.1s-0.2,0-0.3,0.1c-0.1,0-0.3,0.1-0.3,0
	c0,0,0,0,0,0c0,0,0,0.1,0,0.1c0,0-0.1,0.1-0.1,0.2c0,0.1,0,0.1,0,0.1s0,0,0,0c0,0-0.1,0.1-0.1,0.1c-0.6,0,0.5,0.7,2.5,1.4
	c1.3,0.5,1.3,0.5,1.9,0.8c0.2,0.1,0.4,0.2,0.4,0.2s0.1,0,0.1,0.1c0,0.1,0.1,0.1,0.1,0.1c0,0,0.2,0.1,0.3,0.2
	c0.1,0.1,0.3,0.2,0.3,0.2c0,0,0,0,0,0c0,0,0.1,0.2,0.3,0.3c0.2,0.2,0.3,0.2,0.2,0.1c-0.1-0.1-0.2-0.2-0.2-0.3s-0.1-0.1-0.1-0.1
	c0,0,0,0,0.1,0c0.1,0,0.1,0.1,0.2,0.1c0.1,0,0.2,0.1,0.2,0.1c0,0.1,0.1,0.1,0.2,0.1c0.1,0,0.1,0,0.1,0c0,0,0.1,0.1,0.1,0.1
	c0.1,0,0.1,0.1,0.1,0.1c0,0,0,0.1,0.1,0.1c0.1,0,0.1,0,0.1-0.1c0-0.1,0-0.1,0.1-0.1c0.1,0.1,0.1,0.1,0.2,0c0-0.1,0.1,0,0.2,0
	c0.1,0.1,0.2,0.1,0.2,0c0-0.1,0.2-0.1,0.3-0.1c0.1,0.1,0.1,0.1,0.2,0c0.1-0.2,0.3-0.3,0.3-0.1c0.1,0.1,0.2,0.1,0.2,0
	c0,0,0.1,0,0.2,0.1c0.1,0.1,0.2,0.1,0.1,0.1c0,0,0-0.1,0-0.1c0,0,0.1-0.1,0-0.1c0,0-0.1,0-0.1,0c0,0-0.1,0.1-0.1,0c0,0,0-0.1,0-0.1
	c0.1,0,0.1,0,0-0.1c0,0-0.1-0.1-0.1-0.1c0-0.2,0-0.3-0.1-0.3c0,0,0-0.1,0-0.1c0-0.1-0.1-0.4-0.1-0.4c0,0-0.1-0.1-0.1-0.3
	c-0.1-0.4-1.2-1.6-2.2-2.3c-0.3-0.2-1.3-0.8-1.4-0.8c-0.1,0-0.1,0-0.1,0c-0.1-0.1-0.3-0.2-0.3-0.2c0,0-0.1,0-0.1-0.1
	C32.8,31.5,32.7,31.5,32.6,31.5 M13.8,35.2l0.1,0.1L13.8,35.2c-0.2-0.1-0.4-0.4-0.2-0.2C13.6,35,13.7,35.1,13.8,35.2 M17,35.2
	c0,0.1-0.1,0.1-0.1,0C16.9,35.1,16.9,35.1,17,35.2C17,35.2,17,35.2,17,35.2 M17.6,35.7c0,0.1,0.1,0.1,0.2,0c0.1-0.1,0.1-0.1-0.1-0.1
	C17.7,35.7,17.6,35.7,17.6,35.7 M17.5,35.8C17.5,35.9,17.4,35.9,17.5,35.8C17.4,35.9,17.4,35.8,17.5,35.8
	C17.5,35.7,17.5,35.7,17.5,35.8 M35.1,37.1c0.1,0.1,0.1,0.2,0.1,0.2S35.2,37.2,35.1,37.1c0-0.1-0.1-0.2-0.1-0.2
	C35,36.9,35,37,35.1,37.1 M42.6,40c-0.1,0.1-0.2,0.1-0.2,0.1c0,0,0,0,0,0c0,0,0,0.1-0.1,0.2c-0.2,0.2-0.3,0.2-0.2,0.1
	c0.1-0.1,0.1-0.1,0,0c-0.1,0.1-0.1,0.1-0.1,0.1c0,0,0,0,0,0c-0.1,0-1.3,1-1.3,1.1c0,0,0,0,0,0c0,0-1.6,1.2-2,1.6
	c-0.1,0.1-0.1,0.1-0.1,0.1c0.1-0.1,0.1,0,0,0.1c-0.1,0.1-0.2,0.1-0.2,0c0,0,0,0-0.1,0c-0.1,0-0.1,0.1-0.1,0.1c0,0-0.2,0.3-0.3,0.3
	c0,0,0,0,0-0.1c0-0.1,0,0-0.2,0.1s-0.3,0.2-0.3,0.2s-0.5,0.5-1.1,1c-1.9,1.6-3,2.8-4.2,4.7c-0.3,0.4-0.5,0.8-0.5,0.8s0,0,0,0
	c-0.1-0.1-0.5,0.7-0.5,0.9c0,0.1-0.1,0.3-0.2,0.3c0,0-0.1,0.1-0.1,0.3c0,0.2,0,0.2,0.1,0.2c0.1,0,0.1-0.1,0.1,0c0,0,0,0.1,0.1,0.1
	s0.1,0,0.1,0.1c0,0.1,0,0.1,0,0c0,0,0.1,0,0.1,0c0,0,0.1,0.1,0,0.1c-0.1,0.1,0.1,0.1,0.2,0c0.1-0.1,0.3-0.1,0.4,0
	c0,0,0.1,0.1,0.1,0.1c0.1,0,0.2,0.1,0.2,0.2c0,0.1,0,0.2,0.1,0.1c0.1-0.1,0.3-0.1,0.2,0c0,0,0,0.1,0,0.1c0,0,0.1,0,0,0
	c0,0,0-0.1,0.1-0.1c0,0,0.1,0,0.1,0c0,0,0.1,0,0-0.1c0-0.1,0-0.1,0.1-0.1c0,0,0.1,0,0.1,0.1c0,0,0,0,0.1,0c0,0,0.1,0,0.1,0
	c0,0,0,0,0.1,0c0.1,0,0.2,0,0.2,0c0.1,0,0.1,0,0.1,0c0,0,0-0.1,0.1,0c0.1,0,0.1,0,0.1-0.1c0.1-0.1,0.3-0.2,0.3-0.1c0,0,0,0,0.1,0
	c0,0,0.1,0,0.1,0c0,0,0.1,0.1,0.1,0.1c0.1,0,0.1,0,0-0.1c-0.1,0-0.1-0.1-0.1-0.1c0,0,0.1,0,0.1,0.1c0.1,0.1,0.1,0.1,0.1,0
	c0,0,0-0.1-0.1-0.1c0,0-0.1-0.1-0.1-0.1s0,0,0.1,0c0.1,0.1,0.2,0,0.2-0.1c0-0.1,0-0.1,0.1,0c0.1,0,0.1,0.1,0.1,0c0,0,0.1-0.1,0.1,0
	c0.1,0,0.3-0.1,0.3-0.3c0-0.1,0.2-0.3,0.3-0.3c0,0,0.1-0.1,0.1-0.1c0-0.1,0-0.1,0.1-0.2c0,0,0.2-0.3,0.3-0.6c0.5-1.1,1.8-3,2.1-3.3
	c0,0,0.1-0.2,0.3-0.3c0.1-0.2,0.8-0.9,1.5-1.6c2-2.1,2.7-3.2,2.9-5.1C42.9,39.9,42.9,39.9,42.6,40 M35,52C35.1,52.1,35.1,52.1,35,52
	C35.1,52.1,35,52.1,35,52C34.8,52,34.9,52,35,52 M31.6,52.5c-0.1,0.1-0.2,0.2-0.1,0.2c0,0,0.1,0,0.1,0s0,0.1,0.1,0.1s0.1,0,0.1-0.1
	s0-0.1-0.1-0.1S31.6,52.6,31.6,52.5c0,0.1,0.1,0.1,0.1,0.1c0.1,0,0.2,0,0.1-0.1c0,0-0.1,0-0.1,0C31.7,52.4,31.7,52.5,31.6,52.5
	 M33.3,52.8c0,0.1,0.1,0.1,0.1,0.1C33.5,52.8,33.4,52.8,33.3,52.8C33.4,52.7,33.3,52.7,33.3,52.8"/>
<path id="path4" class="st3" d="M31.2,5.4c0.1,0,0.2,0,0.2,0C31.4,5.4,31.4,5.4,31.2,5.4C31.1,5.4,31.1,5.4,31.2,5.4 M30.7,5.5
	c-0.2,0.1-0.1,0.1,0.1,0c0.1,0,0.2-0.1,0.1-0.1C30.9,5.4,30.8,5.5,30.7,5.5 M31.5,5.5c0,0,0.1,0.1,0.2,0.1c0.1,0,0.1,0.1,0.1,0
	C31.9,5.6,31.6,5.4,31.5,5.5C31.5,5.4,31.5,5.4,31.5,5.5 M30.2,5.8L30,6.1L30.2,5.8c0.2-0.1,0.3-0.2,0.3-0.3c0,0,0,0,0,0
	S30.4,5.7,30.2,5.8 M32.1,5.8c0.2,0.2,0.4,0.4,0.4,0.7c0,0.1,0,0.1,0,0C32.6,6.4,32.3,5.9,32.1,5.8C31.9,5.6,31.9,5.6,32.1,5.8
	 M29.9,6.3c0,0.1-0.1,0.2-0.1,0.2c0,0.1,0,0,0.1-0.1C30,6.1,30,6.1,29.9,6.3 M29.8,6.8C29.8,6.9,29.8,6.9,29.8,6.8c0,0,0-0.1,0-0.1
	C29.8,6.6,29.8,6.7,29.8,6.8 M32.2,7.7C32,8,32,8,32.2,7.7c0.1-0.1,0.3-0.3,0.2-0.3C32.4,7.5,32.3,7.6,32.2,7.7 M30.2,7.8
	c0.1,0.1,0.4,0.3,0.5,0.3c0,0,0,0,0,0c0,0-0.2-0.1-0.3-0.2C30.2,7.8,30.1,7.7,30.2,7.8 M31.1,8.2c0.1,0,0.2,0,0.2,0
	C31.4,8.2,31.3,8.2,31.1,8.2C31.1,8.2,31,8.2,31.1,8.2 M28.2,8.7c4.3,0,7.6,0,7.6,0c0,0-2.1,0-4.6,0C28.6,8.7,27.3,8.7,28.2,8.7
	 M26.9,9.5C27,9.8,27.2,10,27.2,10C27.2,10,27.1,9.8,26.9,9.5C26.8,9.2,26.7,9,26.7,9S26.8,9.2,26.9,9.5 M27.8,11.3
	c0.1,0.1,0.1,0.2,0.1,0.2S27.9,11.4,27.8,11.3c0-0.1-0.1-0.2-0.1-0.2C27.7,11.1,27.8,11.2,27.8,11.3 M23.6,12.2c0.1,0,0.1,0.1,0,0.1
	c-0.1,0-0.1,0.1,0,0.1c0.1,0,0.2-0.1,0.2-0.2C23.7,12.2,23.7,12.2,23.6,12.2C23.5,12.2,23.5,12.2,23.6,12.2 M28.9,13.4
	c0,0.1,0.1,0.2,0.1,0.2S29,13.5,28.9,13.4c0-0.1,0-0.2-0.1-0.2S28.9,13.3,28.9,13.4 M21.5,13.8l-0.4,0.4L21.5,13.8
	c0.4-0.3,0.4-0.4,0.4-0.4C21.8,13.4,21.7,13.6,21.5,13.8 M29.6,14.7c0,0,0,0.1-0.2,0.1l-0.2,0l0.2,0C29.7,14.8,29.8,14.7,29.6,14.7
	C29.6,14.6,29.6,14.6,29.6,14.7 M32.6,14.7c0,0,0.3,0,0.7,0c0.7,0,0.6,0-0.2-0.1C32.8,14.7,32.6,14.7,32.6,14.7 M34.7,14.7
	c0,0,0.1,0,0.2,0c0.1,0,0.1,0,0.1,0C34.9,14.7,34.7,14.7,34.7,14.7 M27.3,14.8c0,0,0,0.1,0,0.1c0,0,0,0,0,0c0-0.1,0-0.1,0.1-0.1
	c0.1,0,0.1,0,0,0C27.4,14.7,27.4,14.8,27.3,14.8 M27.3,15.3C27.3,15.4,27.3,15.4,27.3,15.3C27.3,15.3,27.3,15.2,27.3,15.3
	C27.3,15.2,27.3,15.2,27.3,15.3 M44.1,15.6c0.1,0.1,0.3,0.3,0.3,0.3S44.3,15.7,44.1,15.6c-0.1-0.1-0.2-0.3-0.2-0.3
	C43.9,15.3,44,15.5,44.1,15.6 M27.1,15.9c0,0.1,0,0.1,0,0.2C27.1,16.1,27.2,16,27.1,15.9c0.1,0,0.1-0.1,0.1-0.1S27.2,15.8,27.1,15.9
	 M27.1,16.2c0,0,0.1,0.1,0.1,0.2l0.1,0.1l-0.1-0.1C27.2,16.3,27.1,16.2,27.1,16.2C27.1,16.1,27.1,16.1,27.1,16.2 M35,16.5l-0.2,0.2
	L35,16.5c0.2-0.2,0.3-0.2,0.2-0.2C35.2,16.3,35.1,16.4,35,16.5 M27.4,16.5c0,0,0.1,0.1,0.2,0.2l0.2,0.1l-0.1-0.2
	C27.5,16.5,27.4,16.5,27.4,16.5 M47,17.5c0.9,1,1,1,0.6,0.6c-0.2-0.2-0.5-0.6-0.8-0.8C46.4,16.9,46.5,16.9,47,17.5 M34.6,17.7
	c0.2,0.2,0.4,0.4,0.4,0.4S34.9,17.9,34.6,17.7c-0.2-0.2-0.4-0.4-0.4-0.4C34.2,17.3,34.4,17.5,34.6,17.7 M27.5,18l-0.6,0.6L27.5,18
	c0.6-0.5,0.6-0.6,0.6-0.6C28.1,17.4,27.8,17.6,27.5,18 M19.6,17.7c0,0.1,0,0.2,0,0.1c0-0.1,0-0.2,0-0.2
	C19.6,17.5,19.6,17.5,19.6,17.7 M35.4,18.5c0.1,0.1,0.2,0.2,0.2,0.2S35.6,18.7,35.4,18.5c-0.1-0.1-0.2-0.2-0.2-0.2
	C35.2,18.3,35.3,18.4,35.4,18.5 M48.1,18.7c0.1,0.1,0.3,0.4,0.5,0.7s0.4,0.5,0.4,0.5c0.1,0-0.8-1.1-1-1.3C48,18.5,48,18.5,48.1,18.7
	 M19.6,19.4C19.6,19.5,19.6,19.5,19.6,19.4C19.7,19.4,19.7,19.3,19.6,19.4C19.6,19.2,19.6,19.3,19.6,19.4 M39.9,19.6
	c0,0.1,0,0.2,0,0.2c0,0-0.1,0-0.2,0c-0.1,0-0.3,0.2-0.5,0.5c-0.2,0.3-0.6,0.7-0.9,0.9c-0.2,0.3-0.5,0.5-0.6,0.6
	c-0.1,0.1-0.1,0.2-0.2,0.2c0,0-0.1,0.1-0.3,0.2c-0.1,0.1-0.3,0.2-0.3,0.2c0,0-0.1,0-0.1,0.1c0,0-0.1,0.2-0.3,0.4
	c-0.1,0.2-0.4,0.7-0.6,1c-1.1,1.9-2.9,3.6-5,4.8c-1,0.6-1,0.5-0.9,0.6c0,0.1,0,0.1,0,0.1s-0.1,0.1-0.3,0.2c-0.3,0.3-0.5,0.4-0.5,0.4
	c0,0-0.1,0-0.1,0.1c-0.2,0.2-0.5,0.4-0.6,0.5c-0.1,0-0.2,0.1-0.3,0.2C28.1,30.9,28,31,28,31c0,0-0.1,0.1-0.2,0.2
	c-0.1,0.2-0.2,0.2-0.4,0.3c-0.3,0.1,1.1,0,1.6-0.1c0.8-0.1,2.4-0.4,2.3-0.5c0,0-0.1,0-0.2,0c-0.4,0.1-0.4,0-0.2-0.2
	c0.1-0.1,0.3-0.3,0.5-0.4c0.2-0.2,0.3-0.3,0.4-0.3s0.2-0.2,0.5-0.4c0.2-0.2,0.4-0.4,0.4-0.4s0.1-0.1,0.3-0.3
	c0.1-0.1,0.3-0.3,0.4-0.4c0.1-0.1,0.3-0.2,0.3-0.3c0.1-0.1,0.3-0.2,0.4-0.4c0.1-0.1,0.4-0.4,0.6-0.6c0.4-0.4,0.7-0.7,1.2-1.1
	c0.1-0.1,0.3-0.3,0.3-0.3c0.1-0.1,0.2-0.2,0.2-0.2c0.2-0.2,0.5-0.4,0.8-0.7c0.2-0.2,0.5-0.4,0.6-0.5s0.4-0.3,0.5-0.4
	c0.1-0.1,0.3-0.3,0.4-0.3c0.1,0,0.1-0.1,0.2-0.1c0,0,0.1-0.1,0.1-0.1c0,0,0.2-0.1,0.3-0.2c0.1-0.1,0.3-0.2,0.3-0.2s0.1,0,0-0.1
	c0-0.1,0-0.1,0-0.1s0.1-0.1,0.1-0.1c0.1-0.2,0.1,0,0,0.3c-0.1,0.3-0.1,0.4,0,0.3c0.3-0.8,0.5-3.5,0.3-3.9
	C39.9,19.5,39.9,19.5,39.9,19.6 M49.2,20.2c0.2,0.3,0.3,0.5,0.2,0.3c-0.2-0.3-0.6-0.6-0.4-0.4c0,0,0,0.1,0,0s-0.1,0-0.1,0.1
	c0,0.1,0,0.2,0,0.2c0,0,0,0.1,0,0.3c0,0,0,0-0.1,0c-0.1,0-0.1,0,0,0.1c0,0.1,0,0.1,0,0.1c0,0-0.1,0.1-0.1,0.1c0,0.1-0.1,0.1-0.1,0.1
	s-0.1,0-0.1,0.1c0,0-0.1,0.1-0.1,0.1c-0.1,0-0.1,0.1-0.1,0.1c0,0.1,0,0.1-0.1,0c-0.1,0-0.1,0-0.1,0c0,0.1-0.1,0.2-0.2,0.2
	c0,0,0,0,0,0.1c0,0.1,0,0.1-0.1,0.1c-0.1,0-0.1,0-0.1,0.1c0,0-0.4,0.3-0.4,0.3c0,0,0,0,0-0.1c0,0,0,0,0,0c0,0-0.1,0.1-0.1,0.2
	c0,0.1-0.1,0.2-0.1,0.1c0-0.1,0,0-0.1,0.1c0,0.1-0.1,0.2-0.2,0.3c-0.1,0.1-0.1,0.1-0.1,0.2c0,0,0,0-0.1,0s-0.1,0.1-0.1,0.2l0,0.2
	l-0.1-0.1c0-0.1-0.1-0.1-0.1-0.1c0,0,0,0.1,0.4,1c0.9,2.2,1.3,4.1,1.3,6.1c0,1.3,0,1.3-0.3,2.5l0,0.1l0.1-0.1
	c0.1-0.2,0.3-1.5,0.3-1.9c0-0.4,0-0.4,0-0.1c0,0.3,0,0.3,0.2,0.3c0.1,0,0.1-0.1,0.1-0.1c0-0.1,0.1-0.3,0.2-0.4c0,0,0.1-0.1,0.1-0.2
	c0-0.2,0.3-0.5,0.5-0.5c0,0,0.1,0,0.1-0.1c0-0.1,0.1-0.2,0.2-0.2c0,0,0.1,0,0.1,0c0.1,0,0.1-0.2,0-0.2c0,0-0.1,0-0.1-0.1
	c0,0,0.1-0.1,0.1-0.1s0.1,0,0.2-0.1c0.1-0.1,0.1-0.1,0.2,0c0.1,0,0.1,0,0,0c0-0.1,0-0.1,0.1-0.1s0.1,0,0.1-0.1c0-0.1,0-0.1,0.1-0.1
	c0.1,0,0.1,0,0.1,0c0,0-0.1-0.1-0.1-0.1c0,0,0,0,0.1,0c0.1,0,0.1,0,0.2,0c0,0,0.1-0.1,0.1-0.1s0,0,0-0.1c0,0,0.1-0.1,0.1,0
	c0,0,0.1,0,0.1,0c0.1,0,0.1,0,0.2,0c0,0,0.1,0,0.2,0c0.1,0,0.1,0,0,0.1c-0.1,0.1,0,0.1,0,0.2c0.1,0.1,0.1,0.1,0,0.2
	c-0.1,0.1-0.1,0.1,0,0s0.1-0.1,0.1,0c0,0.1,0,0.1,0,0.2s0,0.1,0.1,0.2c0,0.1,0-0.1,0-0.4l0-0.5l0,0.6c0,0.4,0,0,0-0.9
	c0-2.1-0.2-3.4-0.8-4.8c-0.2-0.6-0.3-0.7-0.1-0.4c0.1,0.1,0.1,0.2,0.1,0.2s-0.1-0.1-0.1-0.3s-0.2-0.3-0.2-0.3c0,0,0,0,0,0
	c0.1-0.1-0.9-1.8-1-1.7c0,0,0,0,0,0c0-0.1-0.4-0.8-0.5-0.8C49,19.9,49.1,20,49.2,20.2 M13,26.2c0.1,0.1,0.1,0.2,0.2,0.3l0.1,0.1
	l-0.1-0.2C13.2,26.4,13.1,26.3,13,26.2L13,26.1L13,26.2 M38.2,26.5c-0.1,0.1-0.1,0.2-0.1,0.2c0.1,0,0.3-0.3,0.3-0.3
	C38.3,26.3,38.3,26.4,38.2,26.5 M13.5,26.9c0.3,0.5,1.4,1.6,1.9,2.1c0.2,0.1-0.1-0.1-0.5-0.5s-1-1-1.2-1.3
	C13.3,26.6,13.2,26.5,13.5,26.9 M37.9,26.9L37.7,27L37.9,26.9c0.1-0.1,0.2-0.1,0.2-0.1C38.1,26.7,38,26.7,37.9,26.9 M37.3,27.5
	L36.8,28L37.3,27.5c0.5-0.4,0.5-0.5,0.5-0.5C37.7,27.1,37.5,27.3,37.3,27.5 M13.4,28.2c0,0,0,0.1,0.1,0.2c0,0.1,0.1,0.1,0.1,0.1
	S13.5,28.4,13.4,28.2C13.4,28.2,13.4,28.2,13.4,28.2 M16.1,29.6c0,0,0.1,0.1,0.2,0.1c0.1,0.1,0.2,0.1,0.2,0.1c0,0-0.1-0.1-0.2-0.1
	C16.2,29.6,16.1,29.5,16.1,29.6 M46.1,29.9c0,0.2,0,0.3,0,0.2c0-0.1,0-0.3,0-0.4C46.2,29.6,46.1,29.7,46.1,29.9 M8.7,29.7
	C8.7,29.8,8.7,29.9,8.7,29.7C8.8,29.8,8.8,29.7,8.7,29.7C8.7,29.6,8.7,29.6,8.7,29.7 M51.6,29.9c0,0.2,0,0.3,0,0.2
	c0-0.1,0-0.2,0-0.3C51.6,29.7,51.6,29.8,51.6,29.9 M8.7,30.3c0,0.2,0,0.2,0,0.1c0-0.1,0-0.2,0-0.3C8.7,30,8.7,30.1,8.7,30.3
	 M39.7,30.3c0,0.1-0.1,0.1-0.2,0.1c-0.1,0-0.1,0-0.2,0.1c-0.1,0.1-0.1,0.1-0.2,0.1c-0.1,0-0.1,0-0.2,0.1c0,0-0.1,0.1-0.2,0.1
	c-0.1,0-0.2,0.1-0.3,0.1c-0.1,0.1-0.2,0.1-0.2,0.1c0,0-0.1,0-0.1,0c0,0-0.1,0.1-0.2,0.1c-0.1,0-0.2,0.1-0.2,0.1s0,0-0.1,0
	c0,0-0.1,0-0.1,0c0,0-0.1,0-0.1,0.1c0,0,0,0-0.1,0c0,0-0.1,0-0.1,0c-0.1,0-0.4,0.1-0.4,0.2c0,0,0,0-0.1,0c-0.1,0-0.5,0.2-0.5,0.2
	c0,0,0,0-0.1,0c0,0-0.1,0-0.1,0c0,0,0,0.1-0.1,0.1c-0.1,0-0.1,0-0.1,0.1s0,0.1-0.1,0.1c0,0-0.1,0-0.1,0.1c0,0-0.1,0.1-0.2,0.1
	c-0.3,0-0.9,0.2-1,0.3c-0.1,0.1,0.1,0.4,0.3,0.4c0.1,0,0.8,0.7,1.1,0.9c0.7,0.7,1.4,1.7,1.6,2.4c0.1,0.3,0.2,0.5,0.2,0.4
	c0,0,0-0.1-0.1-0.2c0-0.1-0.1-0.2-0.1-0.2s0,0,0.1,0c0,0,0.1,0,0.1,0c0,0,0,0,0.1,0c0.1,0,0.1,0.1,0.2,0.1c0,0,0.1,0,0.1,0
	c0,0,0.1,0,0.2,0c0.1,0,0.2,0,0.2,0s0.1,0,0.2-0.1c0.1-0.1,0.3-0.2,0.4-0.1c0,0,0.1,0,0.1-0.1c0-0.1,0.1-0.1,0.2-0.1
	c0.1,0,0.1,0,0.1-0.1c0,0,0.1-0.1,0.1-0.1c0,0,0,0,0,0.1c0,0.1,0,0.1,0.1,0c0.1-0.1,0.2-0.1,0.2-0.1c0,0,0,0,0-0.1c0,0,0-0.1,0.1,0
	c0.2,0,0.4,0,0.3,0c0,0,0,0,0.3-0.1c0.1,0,0.2-0.1,0.2-0.2c0.1-0.1,0.1-0.1,0.1-0.1c0,0.1,0,0.1,0.1-0.1c0,0,0-0.1,0.1,0
	c0.3,0.1,0.4,0.1,0.4,0c0-0.1,0-0.1,0.1-0.2c0-0.1,0.1-0.1,0,0c0,0.1,0,0.1,0,0c0,0,0.1,0,0.1,0c0,0,0,0,0-0.1s0-0.1,0,0
	c0,0,0.1,0,0.2,0c0.2-0.1,0.2-0.1,0.2,0.1c0,0.1,0.1,0.1,0.1,0.1c0,0,0.1,0.1,0.1,0.1s0,0.1,0.1,0.1c0,0-0.1-0.6-0.2-0.6
	c0,0,0,0,0-0.1c0.1-0.4-1.2-3.1-1.8-3.6c-0.1-0.1-0.2-0.2-0.2-0.2c0,0,0-0.1-0.1-0.1s-0.1,0-0.1-0.1C40.2,30.2,39.8,30.2,39.7,30.3
	 M51.5,30.5C51.5,30.6,51.6,30.6,51.5,30.5c0,0,0-0.1,0-0.1C51.6,30.3,51.5,30.4,51.5,30.5 M53.2,30.5
	C53.2,30.6,53.2,30.6,53.2,30.5c0,0,0-0.1,0-0.1C53.2,30.3,53.2,30.4,53.2,30.5 M14.9,30.7c0.1,0.1,0.2,0.2,0.2,0.2
	S15.1,30.8,14.9,30.7c0-0.1-0.1-0.2-0.1-0.2C14.8,30.6,14.8,30.6,14.9,30.7 M31.6,30.8c-0.1,0.1-0.2,0.1-0.2,0.1s0.2,0,0.3-0.1
	c0.1-0.1,0.2-0.1,0.2-0.1C31.9,30.7,31.7,30.7,31.6,30.8 M8.6,31.2c0,0.3,0,0.4,0,0.3c0-0.1,0-0.3,0-0.5C8.6,30.9,8.6,30.9,8.6,31.2
	 M18.2,30.8c0.1,0.1,0.9,0.4,0.9,0.4c0,0-0.2-0.1-0.5-0.2C18.4,30.9,18.2,30.8,18.2,30.8 M46.1,31.1c0,0.2,0,0.2,0,0.1
	c0-0.1,0-0.2,0-0.3C46.2,30.9,46.1,30.9,46.1,31.1 M53.2,31.1c0,0.1,0,0.2,0,0.1s0-0.2,0-0.3S53.2,31,53.2,31.1 M15.7,31.5
	c0.2,0.2,0.3,0.3,0.3,0.3S15.9,31.6,15.7,31.5c-0.1-0.2-0.3-0.3-0.3-0.3C15.4,31.2,15.5,31.3,15.7,31.5 M20.3,31.7
	c0.1,0,0.2,0.1,0.2,0.1c0,0,0,0-0.1-0.1C20.2,31.6,20.2,31.6,20.3,31.7 M51.3,31.9c0,0.1,0,0.3,0,0.3S51.3,32.1,51.3,31.9
	c0.1-0.1,0.1-0.2,0.1-0.2C51.3,31.7,51.3,31.8,51.3,31.9 M20.8,31.8c0.1,0,0.1,0,0.2,0c0.1,0,0,0,0,0C20.9,31.8,20.8,31.8,20.8,31.8
	C20.7,31.8,20.7,31.8,20.8,31.8 M53.3,32.5c0,0.4,0,0.5,0,0.3c0-0.2,0-0.5,0-0.7C53.3,31.9,53.3,32.1,53.3,32.5 M8.7,32.1
	c0,0.1,0,0.2,0,0.1c0-0.1,0-0.2,0-0.3C8.7,31.9,8.7,31.9,8.7,32.1 M23.4,32.3c0.1,0,0.1,0,0.2,0S23.6,32.3,23.4,32.3
	C23.3,32.3,23.3,32.3,23.4,32.3 M8.7,32.5C8.7,32.6,8.7,32.7,8.7,32.5C8.8,32.6,8.8,32.5,8.7,32.5C8.7,32.4,8.7,32.4,8.7,32.5
	 M23.8,32.4c0.1,0,0.2,0,0.2,0C24.1,32.4,24,32.4,23.8,32.4C23.8,32.4,23.7,32.4,23.8,32.4 M24.3,32.4c0.1,0,0.2,0,0.3,0s0,0-0.1,0
	S24.2,32.4,24.3,32.4 M26.6,32.4c0,0,0.1,0.1,0.2,0.1l0.1,0.1l-0.1-0.1C26.7,32.5,26.7,32.4,26.6,32.4
	C26.5,32.4,26.5,32.4,26.6,32.4 M25.2,32.5c0.2,0,0.6,0,0.8,0c0.2,0,0,0-0.4,0C25.2,32.5,25,32.5,25.2,32.5 M51.2,32.7
	c0,0.1,0,0.2,0,0.2S51.2,32.8,51.2,32.7c0.1-0.1,0.1-0.2,0.1-0.2C51.2,32.5,51.2,32.6,51.2,32.7 M17.4,32.8c0,0,0.6,0.3,0.6,0.3
	c0,0-0.1-0.1-0.3-0.2C17.6,32.8,17.4,32.7,17.4,32.8 M27,32.9c0.1,0.1,0.1,0.2,0.1,0.2S27.1,33,27,32.9c0-0.1-0.1-0.2-0.1-0.2
	C26.9,32.7,26.9,32.8,27,32.9 M47.7,33.1c0,0.1-0.1,0.2,0,0.2S47.7,33.3,47.7,33.1c0.1-0.1,0.1-0.2,0.1-0.2S47.7,33,47.7,33.1
	 M27.3,33.3c0.1,0.1,0.3,0.3,0.4,0.4c0.2,0.2,0.2,0.1-0.3-0.3C27.2,33.2,27.1,33.1,27.3,33.3 M53.2,33.7
	C53.2,33.8,53.3,33.9,53.2,33.7c0,0,0-0.1,0-0.1C53.2,33.6,53.2,33.6,53.2,33.7 M27.9,33.8c0.1,0.1,0.3,0.2,0.3,0.2
	C28.2,34,28.1,33.9,27.9,33.8C27.9,33.8,27.9,33.8,27.9,33.8 M45.7,34c0,0.1,0,0.2,0,0.2S45.7,34.2,45.7,34c0.1-0.1,0.1-0.2,0.1-0.2
	C45.7,33.9,45.7,33.9,45.7,34 M47.3,34.1C47.2,34.3,47.2,34.4,47.3,34.1c0.1-0.1,0.1-0.2,0.1-0.2C47.4,33.9,47.3,34,47.3,34.1
	 M50.7,34.3c0,0.1-0.1,0.2,0,0.2S50.7,34.4,50.7,34.3c0.1-0.1,0.1-0.2,0.1-0.2C50.8,34.1,50.7,34.1,50.7,34.3 M53.2,34.3
	c0,0.1,0,0.2,0,0.1c0-0.1,0-0.2,0-0.3S53.2,34.2,53.2,34.3 M47.1,34.5c0,0.1-0.1,0.2-0.1,0.2S47.1,34.6,47.1,34.5
	C47.2,34.3,47.2,34.3,47.1,34.5 M29.4,34.6c0.1,0,0.2,0.1,0.2,0.1s0,0-0.1-0.1C29.5,34.6,29.4,34.6,29.4,34.6
	C29.3,34.6,29.4,34.6,29.4,34.6 M24.7,35.5c0.1,0.1,0.3,0.3,0.3,0.3S24.9,35.6,24.7,35.5c-0.1-0.1-0.2-0.3-0.2-0.3
	S24.6,35.3,24.7,35.5 M31.9,35.6c0,0,0.1,0.1,0.3,0.2c0.1,0.1,0.3,0.1,0.3,0.1s-0.1-0.1-0.3-0.2C32,35.7,31.9,35.6,31.9,35.6
	 M46.3,35.9c-0.1,0.1-0.1,0.2-0.1,0.2S46.3,36,46.3,35.9c0.1-0.1,0.1-0.2,0.1-0.2C46.4,35.7,46.3,35.8,46.3,35.9 M46,36.3
	c-0.1,0.1-0.1,0.2-0.1,0.2S46,36.4,46,36.3c0.1-0.1,0.2-0.2,0.2-0.2C46.1,36.1,46.1,36.2,46,36.3 M10.6,36.5c0,0,0.1,0.1,0.2,0.2
	l0.2,0.1l-0.1-0.2C10.7,36.5,10.6,36.5,10.6,36.5 M33.6,36.9c0.2,0.2,0.3,0.3,0.4,0.3C34,37.2,33.9,37,33.6,36.9
	c-0.1-0.2-0.3-0.3-0.3-0.3C33.3,36.5,33.5,36.7,33.6,36.9 M42.9,36.7C42.9,36.8,42.9,36.9,42.9,36.7c0,0,0-0.1,0-0.1
	C42.9,36.5,42.9,36.6,42.9,36.7 M45.4,37c-0.1,0.1-0.2,0.2-0.1,0.2c0.1,0,0.4-0.4,0.4-0.4C45.6,36.7,45.5,36.8,45.4,37 M30.8,37.2
	c0.1,0.1,0.2,0.2,0.2,0.2C31,37.5,30.9,37.4,30.8,37.2c-0.1-0.1-0.2-0.2-0.2-0.2C30.6,37,30.7,37.1,30.8,37.2 M49.5,37.2
	c0,0.1-0.1,0.2-0.1,0.2C49.4,37.4,49.5,37.3,49.5,37.2c0.1-0.1,0.1-0.2,0.1-0.2C49.5,37.1,49.5,37.2,49.5,37.2 M43,37.3
	C43,37.4,43,37.5,43,37.3c0,0,0-0.1,0-0.1C43,37.2,43,37.2,43,37.3 M28.4,37.7L28,38.1L28.4,37.7c0.4-0.4,0.5-0.4,0.4-0.4
	C28.8,37.2,28.6,37.4,28.4,37.7 M45,37.5c-0.1,0.1-0.2,0.2-0.2,0.2S44.9,37.6,45,37.5c0.2-0.1,0.3-0.2,0.3-0.2
	C45.2,37.2,45.1,37.3,45,37.5 M44.6,37.8c-0.1,0.1-0.1,0.2-0.1,0.2c0.1,0,0.2-0.3,0.2-0.4C44.7,37.6,44.6,37.6,44.6,37.8 M43,38.1
	c0,0.2,0,0.3,0,0.2c0-0.1,0-0.3,0-0.4C43,37.8,43,37.9,43,38.1 M49.1,37.9C49,37.9,49,38,49,38S49.1,38,49.1,37.9
	c0.1-0.1,0.1-0.2,0.1-0.2C49.2,37.7,49.1,37.8,49.1,37.9 M44.6,37.9c-0.1,0.1-0.2,0.1-0.2,0.1c0,0-0.1,0-0.1,0.1
	c-0.1,0.1-0.1,0.1,0,0.1c0.1-0.1,0.5-0.4,0.4-0.4C44.8,37.8,44.7,37.8,44.6,37.9 M14.2,38.1c0.1,0,0.4,0,0.5,0c0.1,0,0,0-0.3,0
	C14.1,38,14,38,14.2,38.1 M27.8,38.3l-0.1,0.2L27.8,38.3c0.2-0.1,0.2-0.2,0.2-0.2C28,38.2,27.9,38.2,27.8,38.3 M26.1,38.9
	c0,0.2,0,0.3,0,0.2c0-0.1,0-0.3,0-0.4C26.1,38.6,26.1,38.7,26.1,38.9 M27.4,38.8l-0.1,0.2L27.4,38.8c0.2-0.1,0.2-0.2,0.2-0.2
	C27.6,38.6,27.5,38.7,27.4,38.8 M15.9,38.9v0.2V38.9c0.1-0.1,0.1-0.1,0.1-0.2C15.9,38.7,15.9,38.8,15.9,38.9 M43.1,39.1
	c0,0.2,0,0.3,0,0.2s0-0.3,0-0.4C43.1,38.8,43.1,38.9,43.1,39.1 M48.3,39.1c-0.1,0.1-0.1,0.2-0.1,0.2S48.3,39.2,48.3,39.1
	c0.1-0.1,0.1-0.2,0.1-0.2S48.3,39,48.3,39.1 M31.6,39.7c0,0.3,0,0.4,0,0.3c0-0.1,0-0.4,0-0.5C31.6,39.3,31.6,39.4,31.6,39.7
	 M26.6,39.7L26.4,40L26.6,39.7c0.2-0.1,0.3-0.2,0.3-0.3C26.9,39.4,26.9,39.4,26.6,39.7 M35.2,40.1C35.2,40.3,35.2,40.3,35.2,40.1
	c0,0,0-0.1,0-0.1C35.2,40,35.2,40,35.2,40.1 M47.1,40.5l-0.2,0.2L47.1,40.5c0.2-0.2,0.3-0.2,0.2-0.2C47.3,40.3,47.2,40.4,47.1,40.5
	 M25.7,40.6c-0.1,0.2,0,0.2,0.2,0c0.1-0.2,0.1-0.2,0-0.1C25.7,40.7,25.7,40.7,25.7,40.6C25.8,40.4,25.7,40.4,25.7,40.6 M16.6,40.8
	C16.5,41,16.6,41,16.6,40.8c0.1,0,0.1-0.1,0.1-0.1C16.7,40.7,16.7,40.7,16.6,40.8 M38.5,40.9C38.5,41,38.5,41,38.5,40.9
	C38.6,40.9,38.6,40.9,38.5,40.9C38.5,40.8,38.5,40.8,38.5,40.9 M15,41.2c-0.1,0.2-0.2,0.4-0.2,0.4c0,0,0.4-0.7,0.4-0.8
	C15.1,40.8,15.1,41,15,41.2 M46.6,41.1l-0.3,0.3L46.6,41.1c0.2-0.2,0.4-0.3,0.4-0.3C47,40.8,46.9,40.8,46.6,41.1 M35.2,41.5
	C35.2,41.6,35.2,41.7,35.2,41.5C35.2,41.6,35.2,41.5,35.2,41.5C35.2,41.4,35.2,41.4,35.2,41.5 M45.1,42.6l-0.5,0.5L45.1,42.6
	c0.4-0.3,0.6-0.5,0.5-0.5C45.6,42.1,45.4,42.4,45.1,42.6 M13.9,43.2c0,0.1-0.1,0.2-0.1,0.2S13.9,43.3,13.9,43.2
	c0.1-0.1,0.1-0.2,0.1-0.2C14,43.1,13.9,43.1,13.9,43.2 M44.1,43.5L44,43.7L44.1,43.5c0.2-0.1,0.2-0.2,0.2-0.2
	C44.3,43.3,44.2,43.3,44.1,43.5 M50.8,43.6C50.8,43.7,50.8,43.8,50.8,43.6C50.8,43.7,50.8,43.6,50.8,43.6
	C50.8,43.5,50.8,43.5,50.8,43.6 M43.6,43.9l-0.3,0.3L43.6,43.9c0.3-0.2,0.3-0.3,0.3-0.3C43.9,43.6,43.8,43.7,43.6,43.9 M50.7,44.1
	C50.7,44.2,50.7,44.2,50.7,44.1c0,0,0-0.1,0-0.1C50.7,43.9,50.7,43.9,50.7,44.1 M15.2,44.1C15.1,44.2,15.1,44.3,15.2,44.1
	c0.1,0,0.1-0.1,0.1-0.1C15.3,43.9,15.2,44,15.2,44.1 M42.3,45c-2.5,2.2-4.5,4.4-5.5,6.4c-0.1,0.1-0.1,0.1,0,0.1s0.1-0.1,0.1,0
	c0,0.1,0,0.1,0.1,0.1c0.1,0,0.1,0,0.1,0c0,0,0,0.1,0.1,0.1c0.1,0,0.1,0,0,0.1c-0.1,0.1,0,0.2,0.1,0.2c0.1,0,0.1,0.1,0,0.1
	c0,0-0.1,0.1-0.1,0.1s0,0,0.1,0c0,0,0.1,0,0,0.1c0,0.1,0,0.1,0,0.1c0,0,0.1,0.1,0.1,0.2c0,0.1,0.1,0.2,0.1,0.3
	c0.2,0.2,0.3,0.5,0.3,0.5c0,0,0,0.1,0.1,0.1c0.1,0,0.1,0.1,0.1,0.1s0.1,0.1,0.2,0.2c0.5,0.5,0.5,0.6,0.6,0.7c0,0.1,0.1,0.1,0.1,0.1
	c0,0,0.1,0.1,0.1,0.1c0,0.1,0.1,0.1,0.2,0.3c0.1,0.1,0.1,0.1,0.1,0.1s0.1,0.1,0.2,0.2c0.1,0.1,0.2,0.2,0.1,0.2c0,0,0,0,0,0
	c0,0,0.1,0,0.1,0.1c0,0,0,0.1,0.1,0.1c0,0,0.1,0,0.1,0c0,0.1,0,0.1,0.1,0.3c0.1,0.1,0.1,0.1,0.1,0.1c0,0,0,0,0,0c0,0,0,0.1,0,0.1
	c0,0,0.1,0,0.1,0.1c0,0,0,0.1,0,0.1c0,0,0.1,0.1,0.2,0.2c0.1,0.1,0.1,0.2,0.2,0.2s0.1,0.1,0.1,0.2c0,0.1,0.1,0.1,0.1,0.1
	c0,0,0,0,0,0c0,0.1,0.1,0.2,0.1,0.2c0,0,0,0,0,0.1s0.1,0.1,0.1,0.2s0.2,0.2,0.2,0.3l0.1,0.1h3.4c1.9,0,3.4,0,3.4,0
	c-0.1-0.1-0.3-0.2-0.2-0.2c0,0,0-0.1,0-0.1c0-0.1,0-0.1-0.1,0c0,0.1,0,0.1,0,0c0-0.1,0-0.1-0.1-0.1c-0.1,0-0.1,0,0,0
	c0.1-0.1,0-0.2-0.2-0.2c0,0,0,0,0.1-0.1c0.1-0.1,0.1-0.1,0-0.1c-0.1,0-0.1,0-0.1,0s0-0.1-0.1-0.1s-0.1-0.1-0.1-0.1
	c0-0.1-0.1-0.3-0.2-0.3c0,0-0.1,0-0.1,0c0,0,0-0.1,0-0.1c0,0,0.1-0.1,0.1-0.1c0-0.1,0-0.1-0.1-0.1c-0.1,0-0.1,0-0.1-0.1
	c0-0.1,0-0.1,0-0.1c0,0,0,0,0-0.1s0-0.1-0.1-0.1c0,0,0,0,0-0.1c0.1-0.1,0.1-0.1,0-0.2c0,0-0.1-0.1,0-0.1c0-0.1,0-0.1,0-0.1
	c0,0-0.1,0-0.1-0.1c0,0,0-0.1-0.1-0.1s-0.1,0-0.1-0.1c0-0.1,0-0.1-0.1,0c-0.1,0.1-0.1,0.1,0,0c0-0.1,0-0.1,0-0.1
	c-0.1,0-0.1,0.1,0-0.2c0-0.1,0-0.2,0-0.1c-0.1,0.1-0.3,0-0.2-0.1c0,0,0-0.1,0-0.1c-0.1-0.1-0.2-0.1-0.1,0c0,0,0,0,0,0
	c-0.1-0.1-0.1-0.1,0.1-0.1c0.1,0,0.1,0,0.1,0c0,0-0.1-0.1-0.1-0.1s0,0-0.1,0c-0.1,0-0.1,0,0-0.1c0-0.1,0-0.1,0-0.1s-0.1-0.1-0.1-0.1
	s0-0.1,0-0.1c0,0,0,0-0.1,0c-0.1,0-0.1,0-0.1-0.1c0-0.1,0-0.1,0-0.1s0-0.1,0-0.2s0-0.1,0-0.1c0,0-0.2-0.2-0.2-0.2c0,0,0-0.1,0-0.1
	s0,0-0.1,0.1c-0.1,0.1-0.1,0,0-0.1c0.1-0.1,0-0.1-0.1-0.2c-0.1-0.1-0.2-0.1-0.2-0.1c-0.1,0.1-0.1-0.1,0-0.2c0-0.1,0-0.1,0-0.1
	c-0.1,0-0.1,0-0.1-0.1c0,0,0-0.1,0-0.1c0,0,0,0,0-0.1c0,0,0.1,0,0.1,0c0.1,0,0.1,0.1,0.1,0c0,0,0-0.1,0-0.1s-0.1-0.1-0.1-0.1
	c-0.1-0.1-0.1-0.1-0.1,0c0,0.1,0,0.1,0,0.1c0,0-0.1-0.1-0.1-0.2s0-0.1,0.1-0.1c0,0,0,0,0,0c0,0-0.1-0.1-0.1,0s-0.1,0-0.1,0
	c0,0,0-0.1,0-0.1c0.1,0-0.2-0.3-0.3-0.3c-0.1,0-0.1,0-0.1-0.1c0,0,0-0.1,0-0.1c0,0,0-0.1,0-0.1c0-0.1,0-0.1,0,0
	c-0.1,0.1-0.1,0.1-0.1-0.1c0-0.1,0-0.1,0-0.2c0,0,0-0.1,0-0.1c0,0,0-0.1-0.1-0.1c0,0-0.1,0-0.1-0.1c0-0.1,0-0.1,0-0.1
	c0,0,0.1,0,0.1,0c0,0,0-0.1,0,0c0,0-0.1,0-0.1,0c0,0-0.1-0.1-0.2-0.1c-0.1,0-0.1-0.1-0.1-0.1c0-0.1-0.2-0.3-0.3-0.3c0,0,0,0,0-0.1
	c0-0.1,0-0.1-0.1-0.1c0,0-0.1,0-0.1,0c0,0,0-0.1,0-0.1c0,0,0,0,0-0.1c0,0-0.1,0-0.1,0c0,0,0,0,0,0c0.1-0.1,0-0.2-0.1-0.2
	c-0.2,0-0.2,0-0.2-0.2c0-0.3,0-0.3-0.1-0.1c0,0.1-0.1,0.1-0.1,0.1c0-0.2-0.2,0.1-0.2,0.4c-0.1,0.6-0.1,0.6-0.2,0
	c0-0.1-0.1-0.3-0.1-0.4s0-0.2,0-0.2c0,0,0-0.1-0.1-0.1c-0.1,0-0.1-0.1-0.1-0.1s0-0.1,0-0.1c0,0,0-0.1,0-0.2c0-0.2,0-0.2-0.1-0.2
	c-0.1,0-0.1,0-0.1,0c0,0,0-0.1-0.1-0.2c-0.1-0.1-0.1-0.1-0.1-0.1s0-0.1,0-0.1s-0.1-0.1-0.1-0.2s-0.1-0.2-0.2-0.2s-0.1-0.1-0.1-0.2
	c0-0.1,0-0.1-0.1-0.1s-0.1,0,0,0s0-0.1,0-0.2c0-0.1-0.1-0.2,0-0.3c0-0.1,0-0.2-0.1-0.2c-0.1,0-0.1,0-0.1-0.1c0-0.1,0-0.1-0.1-0.1
	c-0.1,0-0.1-0.1,0-0.1c0.1-0.1,0.1-0.1,0.1-0.2c0,0,0-0.1,0.1-0.1s0.1,0,0,0c0,0,0.6-0.6,1.9-1.7c0.2-0.1,0.3-0.2,0.3-0.3
	C43.3,44.1,42.8,44.5,42.3,45 M50.7,45.1c0,0.5,0,0.7,0,0.4c0-0.2,0-0.6,0-0.8C50.7,44.5,50.7,44.7,50.7,45.1 M15,45
	c0.1,0,0.2,0,0.2,0S15.2,45,15,45C14.9,45,14.9,45,15,45 M15.4,45c0.1,0,0.2,0,0.2,0C15.7,45,15.6,45,15.4,45
	C15.4,45,15.4,45,15.4,45 M16,45.1c0.1,0,0.2,0,0.3,0c0.1,0,0,0-0.1,0C16,45.1,15.9,45.1,16,45.1 M16.5,45.2c0.1,0,0.1,0,0.2,0
	C16.8,45.1,16.7,45.1,16.5,45.2C16.5,45.1,16.5,45.1,16.5,45.2 M17.3,45.3c0.1,0,0.1,0,0.2,0C17.5,45.2,17.5,45.2,17.3,45.3
	C17.3,45.2,17.3,45.2,17.3,45.3 M50.7,46.2C50.7,46.3,50.7,46.3,50.7,46.2c0,0,0-0.1,0-0.1C50.7,46,50.7,46.1,50.7,46.2 M50.8,46.6
	C50.8,46.7,50.8,46.7,50.8,46.6C50.8,46.6,50.8,46.6,50.8,46.6C50.8,46.5,50.8,46.5,50.8,46.6 M28.4,47.5l-0.1,0.2L28.4,47.5
	c0.2-0.1,0.2-0.2,0.2-0.2C28.5,47.4,28.4,47.5,28.4,47.5 M27.6,48.4L26.9,49L27.6,48.4c0.4-0.3,0.7-0.6,0.7-0.6
	C28.2,47.7,28.2,47.8,27.6,48.4 M51.2,48.8c0,0,0,0.1,0.1,0.2c0.1,0.2,0.1,0.1,0-0.1C51.3,48.8,51.2,48.7,51.2,48.8 M26.7,49.2
	l-0.1,0.2L26.7,49.2c0.2-0.1,0.2-0.2,0.2-0.2C26.9,49,26.8,49.1,26.7,49.2 M51.6,49.7c0,0.1,0.1,0.2,0.1,0.2c0,0.1,0,0,0-0.1
	C51.6,49.8,51.6,49.7,51.6,49.7C51.5,49.6,51.5,49.7,51.6,49.7 M18.3,50.4c0,0.3,0,0.4,0,0.3c0-0.1,0-0.4,0-0.5
	C18.3,50,18.3,50.1,18.3,50.4 M25.6,50c-0.1,0.1-0.2,0.2-0.2,0.2S25.5,50.2,25.6,50c0.1,0,0.3-0.1,0.3-0.1
	C25.8,49.9,25.8,49.9,25.6,50 M30.7,50.1c-0.1,0.2-0.2,0.4-0.2,0.3c0.1-0.1,0.3-0.4,0.3-0.4C30.8,49.9,30.8,50,30.7,50.1 M25.1,50.4
	c-0.2,0.2-0.3,0.2-0.1,0.1c0.1-0.1,0.2-0.1,0.2-0.2C25.3,50.2,25.3,50.2,25.1,50.4 M24.3,50.9c-0.1,0.1-0.2,0.1-0.2,0.2
	c0,0,0.3-0.2,0.4-0.3C24.6,50.7,24.5,50.8,24.3,50.9 M30.2,51.1c0,0.1-0.1,0.2-0.1,0.2S30.2,51.2,30.2,51.1c0.1-0.1,0.1-0.2,0.1-0.2
	S30.2,51,30.2,51.1 M18.2,51.7c0,0.4,0,0.8,0,0.9c0,0.1,0-0.2,0.1-0.7c0-0.5,0-0.9,0-0.9C18.2,51,18.2,51.3,18.2,51.7 M17.1,51.4
	C17.1,51.5,17.1,51.5,17.1,51.4c0,0,0-0.1,0-0.1C17.1,51.2,17.1,51.2,17.1,51.4 M52.2,51.3c0,0.1,0.7,1.4,0.7,1.4
	C52.9,52.7,52.3,51.3,52.2,51.3C52.2,51.3,52.2,51.3,52.2,51.3 M23.1,51.6C22.9,51.7,22.9,51.8,23.1,51.6c0.1,0,0.2,0,0.2-0.1
	C23.2,51.5,23.2,51.5,23.1,51.6 M17,51.8c0,0.1,0,0.2,0,0.1c0-0.1,0-0.2,0-0.2C17.1,51.6,17,51.7,17,51.8 M29.8,51.8
	c-0.1,0.1-0.1,0.2-0.1,0.2C29.7,52,29.7,52,29.8,51.8C30,51.5,29.9,51.5,29.8,51.8 M22.4,52c-0.1,0.1-0.2,0.1-0.2,0.1
	S22.3,52.1,22.4,52c0.1,0,0.2-0.1,0.2-0.1C22.6,51.9,22.6,51.9,22.4,52 M17,52.2C17,52.4,17,52.4,17,52.2c0,0,0-0.1,0-0.1
	C17,52.1,17,52.1,17,52.2 M25.4,52.3c-0.1,0.1-0.2,0.1-0.1,0.1c0.1,0,0.3-0.1,0.3-0.2C25.6,52.2,25.6,52.2,25.4,52.3 M21,52.7
	c-0.4,0.2-0.8,0.4-0.7,0.4c0.1,0,1.5-0.7,1.5-0.7C21.8,52.3,21.9,52.3,21,52.7 M16.9,52.7c0,0.2,0,0.2,0,0.1c0-0.1,0-0.2,0-0.3
	C17,52.5,16.9,52.6,16.9,52.7 M18.1,53c0,0.2,0,0.3,0,0.2c0-0.1,0-0.2,0-0.3C18.1,52.8,18.1,52.9,18.1,53 M27.3,53.4
	c0,0.4,0,0.5,0,0.3c0-0.2,0-0.5,0-0.7C27.3,52.9,27.3,53,27.3,53.4 M53,52.9c0.1,0.1,0.1,0.2,0.1,0.2S53.1,53.1,53,52.9
	c0-0.1-0.1-0.2-0.1-0.2C52.9,52.7,53,52.8,53,52.9 M16.9,53.3c0,0.1,0,0.2,0,0.1c0-0.1,0-0.2,0-0.3C16.9,53.1,16.9,53.1,16.9,53.3
	 M19.9,53.2c-0.1,0.1-0.3,0.1-0.3,0.1c0,0,0.6-0.2,0.6-0.2C20.2,53.1,20.2,53.1,19.9,53.2 M53.4,53.5c0.1,0.2,0.2,0.4,0.3,0.4
	c0,0,0-0.1-0.1-0.3c-0.1-0.2-0.2-0.4-0.3-0.4S53.2,53.3,53.4,53.5 M19.1,53.5c-0.6,0.2-0.9,0.2-0.9,0c0-0.1,0-0.1,0,0
	c0,0.2,0.6,0.2,1.2-0.1C19.7,53.3,19.5,53.3,19.1,53.5 M45.8,53.5C45.7,53.5,45.7,53.5,45.8,53.5C45.6,53.5,45.6,53.5,45.8,53.5
	C45.7,53.4,45.8,53.5,45.8,53.5 M16.8,53.7C16.8,53.8,16.8,53.8,16.8,53.7C16.9,53.7,16.9,53.7,16.8,53.7
	C16.8,53.6,16.8,53.6,16.8,53.7 M16.8,54.1C16.8,54.2,16.8,54.2,16.8,54.1C16.8,54.1,16.8,54,16.8,54.1C16.8,53.9,16.8,54,16.8,54.1
	 M53.8,54.3c0,0.1,0.1,0.2,0.1,0.2C53.9,54.4,53.9,54.4,53.8,54.3c0-0.1,0-0.2-0.1-0.2C53.7,54.1,53.7,54.2,53.8,54.3 M16.7,54.4
	C16.7,54.6,16.7,54.6,16.7,54.4c0,0,0-0.1,0-0.1C16.7,54.3,16.7,54.3,16.7,54.4 M27.3,54.7c0,0.1,0,0.2,0,0.1c0-0.1,0-0.2,0-0.3
	C27.3,54.4,27.3,54.5,27.3,54.7 M54,54.6c0,0.1,0.1,0.2,0.1,0.2C54.1,54.8,54.1,54.7,54,54.6c0-0.1,0-0.2-0.1-0.2
	C53.9,54.5,53.9,54.5,54,54.6 M16.6,54.9c0,0.1,0,0.3,0,0.3C16.6,55.2,16.7,55.1,16.6,54.9c0.1-0.1,0.1-0.2,0.1-0.2
	C16.7,54.7,16.7,54.8,16.6,54.9 M27.2,55.2C27.2,55.3,27.2,55.3,27.2,55.2c0,0,0-0.1,0-0.1S27.2,55.1,27.2,55.2 M16.5,55.5
	c0,0.2,0,0.3,0.3,0.2l0.3-0.1l-0.3,0l-0.3,0L16.5,55.5C16.6,55.2,16.6,55.2,16.5,55.5 M18.3,55.3C18.2,55.4,18.2,55.4,18.3,55.3
	c0,0,0.1,0,0.2,0C18.6,55.3,18.5,55.3,18.3,55.3 M27.1,56.1c0,0.2,0,0.3,0,0.3S27.1,56.3,27.1,56.1c0.1-0.1,0.1-0.3,0.1-0.3
	S27.1,55.9,27.1,56.1 M54.8,56.1c0,0.1,0.1,0.2,0.1,0.2C54.9,56.2,54.9,56.2,54.8,56.1c0-0.1,0-0.2-0.1-0.2
	C54.7,55.9,54.8,56,54.8,56.1 M55.2,56.7c0.1,0.1,0.1,0.2,0.1,0.2S55.3,56.9,55.2,56.7c0-0.1-0.1-0.2-0.1-0.2S55.1,56.6,55.2,56.7
	 M26.9,56.9c0,0.1,0,0.2,0,0.2C26.9,57.1,27,57.1,26.9,56.9c0.1-0.1,0.1-0.2,0.1-0.2C27,56.7,26.9,56.8,26.9,56.9 M55.5,57.4
	c0.1,0.2,0.2,0.4,0.2,0.4c0,0-0.3-0.8-0.4-0.8C55.4,57,55.4,57.2,55.5,57.4"/>
</svg>
